<?xml version="1.0" encoding="utf-8" standalone="no"?>
<!DOCTYPE svg PUBLIC "-//W3C//DTD SVG 1.1//EN"
  "http://www.w3.org/Graphics/SVG/1.1/DTD/svg11.dtd">
<svg xmlns:xlink="http://www.w3.org/1999/xlink" width="453.543307pt" height="113.385827pt" viewBox="0 0 453.543307 113.385827" xmlns="http://www.w3.org/2000/svg" version="1.1">
 <metadata>
  <rdf:RDF xmlns:dc="http://purl.org/dc/elements/1.1/" xmlns:cc="http://creativecommons.org/ns#" xmlns:rdf="http://www.w3.org/1999/02/22-rdf-syntax-ns#">
   <cc:Work>
    <dc:type rdf:resource="http://purl.org/dc/dcmitype/StillImage"/>
    <dc:date>2025-06-28T07:39:27.206120</dc:date>
    <dc:format>image/svg+xml</dc:format>
    <dc:creator>
     <cc:Agent>
      <dc:title>Matplotlib v3.10.3, https://matplotlib.org/</dc:title>
     </cc:Agent>
    </dc:creator>
   </cc:Work>
  </rdf:RDF>
 </metadata>
 <defs>
  <style type="text/css">*{stroke-linejoin: round; stroke-linecap: butt}</style>
 </defs>
 <g id="figure_1">
  <g id="patch_1">
   <path d="M 0 113.385827 
L 453.543307 113.385827 
L 453.543307 0 
L 0 0 
L 0 113.385827 
z
" style="fill: none"/>
  </g>
  <g id="axes_1">
   <g id="patch_2">
    <path d="M 25.623501 101.377987 
L 112.147208 101.377987 
L 112.147208 26.144885 
L 25.623501 26.144885 
L 25.623501 101.377987 
z
" style="fill: none"/>
   </g>
   <g id="patch_3">
    <path d="M 32.83381 101.377987 
L 47.254428 101.377987 
L 47.254428 78.283715 
L 32.83381 78.283715 
z
" clip-path="url(#p445d663b24)" style="fill: #f03e3e"/>
   </g>
   <g id="patch_4">
    <path d="M 61.675046 101.377987 
L 76.095663 101.377987 
L 76.095663 76.008661 
L 61.675046 76.008661 
z
" clip-path="url(#p445d663b24)" style="fill: #ff6b6b"/>
   </g>
   <g id="patch_5">
    <path d="M 90.516281 101.377987 
L 104.936899 101.377987 
L 104.936899 91.428476 
L 90.516281 91.428476 
z
" clip-path="url(#p445d663b24)" style="fill: #ffa8a8"/>
   </g>
   <g id="patch_6">
    <path d="M 25.623501 101.377987 
L 25.623501 26.144885 
" style="fill: none; stroke: #000000; stroke-width: 0.3; stroke-linejoin: miter; stroke-linecap: square"/>
   </g>
   <g id="patch_7">
    <path d="M 25.623501 101.377987 
L 112.147208 101.377987 
" style="fill: none; stroke: #000000; stroke-width: 0.25; stroke-linejoin: miter; stroke-linecap: square"/>
   </g>
   <g id="matplotlib.axis_1">
    <g id="xtick_1">
     <g id="line2d_1"/>
     <g id="text_1">
      <!-- EB -->
      <g transform="translate(36.471306 108.877987) scale(0.06 -0.06)">
       <defs>
        <path id="Roboto-Regular-45" d="M 3100 2103 
L 1128 2103 
L 1128 491 
L 3419 491 
L 3419 0 
L 528 0 
L 528 4550 
L 3388 4550 
L 3388 4056 
L 1128 4056 
L 1128 2594 
L 3100 2594 
L 3100 2103 
z
" transform="scale(0.015625)"/>
        <path id="Roboto-Regular-42" d="M 528 0 
L 528 4550 
L 2016 4550 
Q 2756 4550 3129 4244 
Q 3503 3938 3503 3338 
Q 3503 3019 3322 2773 
Q 3141 2528 2828 2394 
Q 3197 2291 3411 2002 
Q 3625 1713 3625 1313 
Q 3625 700 3228 350 
Q 2831 0 2106 0 
L 528 0 
z
M 1128 2128 
L 1128 491 
L 2119 491 
Q 2538 491 2780 708 
Q 3022 925 3022 1306 
Q 3022 2128 2128 2128 
L 1128 2128 
z
M 1128 2609 
L 2034 2609 
Q 2428 2609 2664 2806 
Q 2900 3003 2900 3341 
Q 2900 3716 2681 3886 
Q 2463 4056 2016 4056 
L 1128 4056 
L 1128 2609 
z
" transform="scale(0.015625)"/>
       </defs>
       <use xlink:href="#Roboto-Regular-45"/>
       <use xlink:href="#Roboto-Regular-42" transform="translate(56.835938 0)"/>
      </g>
     </g>
    </g>
    <g id="xtick_2">
     <g id="line2d_2"/>
     <g id="text_2">
      <!-- GB -->
      <g transform="translate(64.974573 108.877987) scale(0.06 -0.06)">
       <defs>
        <path id="Roboto-Regular-47" d="M 3888 597 
Q 3656 266 3242 101 
Q 2828 -63 2278 -63 
Q 1722 -63 1290 198 
Q 859 459 623 940 
Q 388 1422 381 2056 
L 381 2453 
Q 381 3481 861 4047 
Q 1341 4613 2209 4613 
Q 2922 4613 3356 4248 
Q 3791 3884 3888 3216 
L 3288 3216 
Q 3119 4119 2213 4119 
Q 1609 4119 1298 3695 
Q 988 3272 984 2469 
L 984 2097 
Q 984 1331 1334 879 
Q 1684 428 2281 428 
Q 2619 428 2872 503 
Q 3125 578 3291 756 
L 3291 1778 
L 2238 1778 
L 2238 2266 
L 3888 2266 
L 3888 597 
z
" transform="scale(0.015625)"/>
       </defs>
       <use xlink:href="#Roboto-Regular-47"/>
       <use xlink:href="#Roboto-Regular-42" transform="translate(68.115234 0)"/>
      </g>
     </g>
    </g>
    <g id="xtick_3">
     <g id="line2d_3"/>
     <g id="text_3">
      <!-- HPB -->
      <g transform="translate(91.827372 108.877987) scale(0.06 -0.06)">
       <defs>
        <path id="Roboto-Regular-48" d="M 4025 0 
L 3422 0 
L 3422 2103 
L 1128 2103 
L 1128 0 
L 528 0 
L 528 4550 
L 1128 4550 
L 1128 2594 
L 3422 2594 
L 3422 4550 
L 4025 4550 
L 4025 0 
z
" transform="scale(0.015625)"/>
        <path id="Roboto-Regular-50" d="M 1128 1781 
L 1128 0 
L 528 0 
L 528 4550 
L 2206 4550 
Q 2953 4550 3376 4169 
Q 3800 3788 3800 3159 
Q 3800 2497 3386 2139 
Q 2972 1781 2200 1781 
L 1128 1781 
z
M 1128 2272 
L 2206 2272 
Q 2688 2272 2944 2498 
Q 3200 2725 3200 3153 
Q 3200 3559 2944 3803 
Q 2688 4047 2241 4056 
L 1128 4056 
L 1128 2272 
z
" transform="scale(0.015625)"/>
       </defs>
       <use xlink:href="#Roboto-Regular-48"/>
       <use xlink:href="#Roboto-Regular-50" transform="translate(71.289062 0)"/>
       <use xlink:href="#Roboto-Regular-42" transform="translate(134.375 0)"/>
      </g>
     </g>
    </g>
   </g>
   <g id="matplotlib.axis_2">
    <g id="ytick_1">
     <g id="line2d_4">
      <defs>
       <path id="m6a20f422d4" d="M 0 0 
L -2 0 
" style="stroke: #000000; stroke-width: 0.25"/>
      </defs>
      <g>
       <use xlink:href="#m6a20f422d4" x="25.623501" y="101.377987" style="stroke: #000000; stroke-width: 0.25"/>
      </g>
     </g>
     <g id="text_4">
      <!-- 0 -->
      <g transform="translate(17.298188 103.627987) scale(0.06 -0.06)">
       <defs>
        <path id="Roboto-Light-30" d="M 3172 1897 
Q 3172 934 2819 435 
Q 2466 -63 1778 -63 
Q 1103 -63 743 426 
Q 384 916 375 1850 
L 375 2666 
Q 375 3625 731 4119 
Q 1088 4613 1772 4613 
Q 2447 4613 2803 4136 
Q 3159 3659 3172 2731 
L 3172 1897 
z
M 2797 2713 
Q 2797 3494 2542 3894 
Q 2288 4294 1772 4294 
Q 1266 4294 1009 3903 
Q 753 3513 747 2750 
L 747 1856 
Q 747 1078 1011 665 
Q 1275 253 1778 253 
Q 2278 253 2536 656 
Q 2794 1059 2797 1838 
L 2797 2713 
z
" transform="scale(0.015625)"/>
       </defs>
       <use xlink:href="#Roboto-Light-30"/>
      </g>
     </g>
    </g>
    <g id="ytick_2">
     <g id="line2d_5">
      <g>
       <use xlink:href="#m6a20f422d4" x="25.623501" y="76.300286" style="stroke: #000000; stroke-width: 0.25"/>
      </g>
     </g>
     <g id="text_5">
      <!-- 3000 -->
      <g transform="translate(7.322251 78.550286) scale(0.06 -0.06)">
       <defs>
        <path id="Roboto-Light-33" d="M 1259 2478 
L 1647 2478 
Q 1969 2478 2209 2592 
Q 2450 2706 2576 2904 
Q 2703 3103 2703 3363 
Q 2703 3800 2456 4047 
Q 2209 4294 1747 4294 
Q 1309 4294 1029 4036 
Q 750 3778 750 3356 
L 375 3356 
Q 375 3709 553 4001 
Q 731 4294 1047 4453 
Q 1363 4613 1747 4613 
Q 2366 4613 2722 4275 
Q 3078 3938 3078 3350 
Q 3078 3022 2870 2745 
Q 2663 2469 2300 2331 
Q 2725 2213 2944 1923 
Q 3163 1634 3163 1234 
Q 3163 650 2781 293 
Q 2400 -63 1763 -63 
Q 1356 -63 1017 100 
Q 678 263 492 555 
Q 306 847 306 1234 
L 681 1234 
Q 681 800 984 526 
Q 1288 253 1763 253 
Q 2247 253 2517 501 
Q 2788 750 2788 1222 
Q 2788 1678 2495 1918 
Q 2203 2159 1634 2159 
L 1259 2159 
L 1259 2478 
z
" transform="scale(0.015625)"/>
       </defs>
       <use xlink:href="#Roboto-Light-33"/>
       <use xlink:href="#Roboto-Light-30" transform="translate(55.419922 0)"/>
       <use xlink:href="#Roboto-Light-30" transform="translate(110.839844 0)"/>
       <use xlink:href="#Roboto-Light-30" transform="translate(166.259766 0)"/>
      </g>
     </g>
    </g>
    <g id="ytick_3">
     <g id="line2d_6">
      <g>
       <use xlink:href="#m6a20f422d4" x="25.623501" y="51.222586" style="stroke: #000000; stroke-width: 0.25"/>
      </g>
     </g>
     <g id="text_6">
      <!-- 6000 -->
      <g transform="translate(7.322251 53.472586) scale(0.06 -0.06)">
       <defs>
        <path id="Roboto-Light-36" d="M 2634 4584 
L 2634 4256 
L 2591 4256 
Q 1775 4256 1306 3776 
Q 838 3297 788 2444 
Q 975 2703 1265 2845 
Q 1556 2988 1916 2988 
Q 2516 2988 2870 2573 
Q 3225 2159 3225 1491 
Q 3225 1047 3059 690 
Q 2894 334 2584 135 
Q 2275 -63 1878 -63 
Q 1225 -63 815 410 
Q 406 884 406 1634 
L 406 2009 
Q 406 3231 962 3901 
Q 1519 4572 2541 4584 
L 2634 4584 
z
M 1856 2666 
Q 1500 2666 1192 2455 
Q 884 2244 781 1919 
L 781 1600 
Q 781 1006 1086 631 
Q 1391 256 1878 256 
Q 2316 256 2586 603 
Q 2856 950 2856 1478 
Q 2856 2016 2586 2341 
Q 2316 2666 1856 2666 
z
" transform="scale(0.015625)"/>
       </defs>
       <use xlink:href="#Roboto-Light-36"/>
       <use xlink:href="#Roboto-Light-30" transform="translate(55.419922 0)"/>
       <use xlink:href="#Roboto-Light-30" transform="translate(110.839844 0)"/>
       <use xlink:href="#Roboto-Light-30" transform="translate(166.259766 0)"/>
      </g>
     </g>
    </g>
    <g id="ytick_4">
     <g id="line2d_7">
      <g>
       <use xlink:href="#m6a20f422d4" x="25.623501" y="26.144885" style="stroke: #000000; stroke-width: 0.25"/>
      </g>
     </g>
     <g id="text_7">
      <!-- 9000 -->
      <g transform="translate(7.322251 28.394885) scale(0.06 -0.06)">
       <defs>
        <path id="Roboto-Light-39" d="M 2763 2106 
Q 2563 1813 2266 1652 
Q 1969 1491 1622 1491 
Q 1234 1491 937 1691 
Q 641 1891 478 2244 
Q 316 2597 316 3016 
Q 316 3466 489 3834 
Q 663 4203 973 4408 
Q 1284 4613 1691 4613 
Q 2375 4613 2756 4133 
Q 3138 3653 3138 2772 
L 3138 2434 
Q 3138 1203 2613 584 
Q 2088 -34 1009 -34 
L 941 -34 
L 944 291 
L 1075 291 
Q 1891 303 2316 753 
Q 2741 1203 2763 2106 
z
M 1669 1813 
Q 2044 1813 2342 2036 
Q 2641 2259 2766 2616 
L 2766 2831 
Q 2766 3525 2477 3908 
Q 2188 4291 1697 4291 
Q 1253 4291 968 3933 
Q 684 3575 684 3031 
Q 684 2509 957 2161 
Q 1231 1813 1669 1813 
z
" transform="scale(0.015625)"/>
       </defs>
       <use xlink:href="#Roboto-Light-39"/>
       <use xlink:href="#Roboto-Light-30" transform="translate(55.419922 0)"/>
       <use xlink:href="#Roboto-Light-30" transform="translate(110.839844 0)"/>
       <use xlink:href="#Roboto-Light-30" transform="translate(166.259766 0)"/>
      </g>
     </g>
    </g>
   </g>
   <g id="text_8">
    <!-- Energy use [W] -->
    <g style="fill: #212529" transform="translate(44.390823 17.020794) scale(0.075 -0.075)">
     <defs>
      <path id="Roboto-Regular-6e" d="M 984 3381 
L 1003 2956 
Q 1391 3444 2016 3444 
Q 3088 3444 3097 2234 
L 3097 0 
L 2519 0 
L 2519 2238 
Q 2516 2603 2352 2778 
Q 2188 2953 1841 2953 
Q 1559 2953 1346 2803 
Q 1134 2653 1016 2409 
L 1016 0 
L 438 0 
L 438 3381 
L 984 3381 
z
" transform="scale(0.015625)"/>
      <path id="Roboto-Regular-65" d="M 1841 -63 
Q 1153 -63 722 389 
Q 291 841 291 1597 
L 291 1703 
Q 291 2206 483 2601 
Q 675 2997 1020 3220 
Q 1366 3444 1769 3444 
Q 2428 3444 2793 3009 
Q 3159 2575 3159 1766 
L 3159 1525 
L 869 1525 
Q 881 1025 1161 717 
Q 1441 409 1872 409 
Q 2178 409 2390 534 
Q 2603 659 2763 866 
L 3116 591 
Q 2691 -63 1841 -63 
z
M 1769 2969 
Q 1419 2969 1181 2714 
Q 944 2459 888 2000 
L 2581 2000 
L 2581 2044 
Q 2556 2484 2343 2726 
Q 2131 2969 1769 2969 
z
" transform="scale(0.015625)"/>
      <path id="Roboto-Regular-72" d="M 2072 2863 
Q 1941 2884 1788 2884 
Q 1219 2884 1016 2400 
L 1016 0 
L 438 0 
L 438 3381 
L 1000 3381 
L 1009 2991 
Q 1294 3444 1816 3444 
Q 1984 3444 2072 3400 
L 2072 2863 
z
" transform="scale(0.015625)"/>
      <path id="Roboto-Regular-67" d="M 300 1719 
Q 300 2509 665 2976 
Q 1031 3444 1634 3444 
Q 2253 3444 2600 3006 
L 2628 3381 
L 3156 3381 
L 3156 81 
Q 3156 -575 2767 -953 
Q 2378 -1331 1722 -1331 
Q 1356 -1331 1006 -1175 
Q 656 -1019 472 -747 
L 772 -400 
Q 1144 -859 1681 -859 
Q 2103 -859 2339 -621 
Q 2575 -384 2575 47 
L 2575 338 
Q 2228 -63 1628 -63 
Q 1034 -63 667 415 
Q 300 894 300 1719 
z
M 881 1653 
Q 881 1081 1115 754 
Q 1350 428 1772 428 
Q 2319 428 2575 925 
L 2575 2469 
Q 2309 2953 1778 2953 
Q 1356 2953 1118 2625 
Q 881 2297 881 1653 
z
" transform="scale(0.015625)"/>
      <path id="Roboto-Regular-79" d="M 1544 847 
L 2331 3381 
L 2950 3381 
L 1591 -522 
Q 1275 -1366 588 -1366 
L 478 -1356 
L 263 -1316 
L 263 -847 
L 419 -859 
Q 713 -859 877 -740 
Q 1041 -622 1147 -306 
L 1275 38 
L 69 3381 
L 700 3381 
L 1544 847 
z
" transform="scale(0.015625)"/>
      <path id="Roboto-Regular-20" transform="scale(0.015625)"/>
      <path id="Roboto-Regular-75" d="M 2525 334 
Q 2188 -63 1534 -63 
Q 994 -63 711 251 
Q 428 566 425 1181 
L 425 3381 
L 1003 3381 
L 1003 1197 
Q 1003 428 1628 428 
Q 2291 428 2509 922 
L 2509 3381 
L 3088 3381 
L 3088 0 
L 2538 0 
L 2525 334 
z
" transform="scale(0.015625)"/>
      <path id="Roboto-Regular-73" d="M 2406 897 
Q 2406 1131 2229 1261 
Q 2053 1391 1614 1484 
Q 1175 1578 917 1709 
Q 659 1841 536 2022 
Q 413 2203 413 2453 
Q 413 2869 764 3156 
Q 1116 3444 1663 3444 
Q 2238 3444 2595 3147 
Q 2953 2850 2953 2388 
L 2372 2388 
Q 2372 2625 2170 2797 
Q 1969 2969 1663 2969 
Q 1347 2969 1169 2831 
Q 991 2694 991 2472 
Q 991 2263 1156 2156 
Q 1322 2050 1755 1953 
Q 2188 1856 2456 1722 
Q 2725 1588 2854 1398 
Q 2984 1209 2984 938 
Q 2984 484 2621 210 
Q 2259 -63 1681 -63 
Q 1275 -63 962 81 
Q 650 225 473 483 
Q 297 741 297 1041 
L 875 1041 
Q 891 750 1108 579 
Q 1325 409 1681 409 
Q 2009 409 2207 542 
Q 2406 675 2406 897 
z
" transform="scale(0.015625)"/>
      <path id="Roboto-Regular-5b" d="M 1634 4725 
L 1038 4725 
L 1038 -500 
L 1634 -500 
L 1634 -975 
L 456 -975 
L 456 5200 
L 1634 5200 
L 1634 4725 
z
" transform="scale(0.015625)"/>
      <path id="Roboto-Regular-57" d="M 1509 1434 
L 1597 834 
L 1725 1375 
L 2625 4550 
L 3131 4550 
L 4009 1375 
L 4134 825 
L 4231 1438 
L 4938 4550 
L 5541 4550 
L 4438 0 
L 3891 0 
L 2953 3316 
L 2881 3663 
L 2809 3316 
L 1838 0 
L 1291 0 
L 191 4550 
L 791 4550 
L 1509 1434 
z
" transform="scale(0.015625)"/>
      <path id="Roboto-Regular-5d" d="M 28 5200 
L 1209 5200 
L 1209 -975 
L 28 -975 
L 28 -500 
L 631 -500 
L 631 4725 
L 28 4725 
L 28 5200 
z
" transform="scale(0.015625)"/>
     </defs>
     <use xlink:href="#Roboto-Regular-45"/>
     <use xlink:href="#Roboto-Regular-6e" transform="translate(56.835938 0)"/>
     <use xlink:href="#Roboto-Regular-65" transform="translate(112.011719 0)"/>
     <use xlink:href="#Roboto-Regular-72" transform="translate(164.990234 0)"/>
     <use xlink:href="#Roboto-Regular-67" transform="translate(198.828125 0)"/>
     <use xlink:href="#Roboto-Regular-79" transform="translate(254.931641 0)"/>
     <use xlink:href="#Roboto-Regular-20" transform="translate(302.246094 0)"/>
     <use xlink:href="#Roboto-Regular-75" transform="translate(327.001953 0)"/>
     <use xlink:href="#Roboto-Regular-73" transform="translate(382.128906 0)"/>
     <use xlink:href="#Roboto-Regular-65" transform="translate(433.691406 0)"/>
     <use xlink:href="#Roboto-Regular-20" transform="translate(486.669922 0)"/>
     <use xlink:href="#Roboto-Regular-5b" transform="translate(511.425781 0)"/>
     <use xlink:href="#Roboto-Regular-57" transform="translate(537.939453 0)"/>
     <use xlink:href="#Roboto-Regular-5d" transform="translate(626.660156 0)"/>
    </g>
   </g>
   <g id="text_9">
    <!-- 2763 -->
    <g transform="translate(34.501931 76.766536) scale(0.05 -0.05)">
     <defs>
      <path id="Roboto-Light-32" d="M 3278 0 
L 428 0 
L 428 288 
L 1988 2056 
Q 2375 2503 2525 2793 
Q 2675 3084 2675 3359 
Q 2675 3791 2422 4042 
Q 2169 4294 1725 4294 
Q 1266 4294 983 4000 
Q 700 3706 700 3238 
L 328 3238 
Q 328 3622 501 3937 
Q 675 4253 995 4433 
Q 1316 4613 1725 4613 
Q 2350 4613 2701 4284 
Q 3053 3956 3053 3391 
Q 3053 3072 2854 2694 
Q 2656 2316 2156 1750 
L 888 316 
L 3278 316 
L 3278 0 
z
" transform="scale(0.015625)"/>
      <path id="Roboto-Light-37" d="M 3231 4334 
L 1288 0 
L 897 0 
L 2828 4231 
L 241 4231 
L 241 4550 
L 3231 4550 
L 3231 4334 
z
" transform="scale(0.015625)"/>
     </defs>
     <use xlink:href="#Roboto-Light-32"/>
     <use xlink:href="#Roboto-Light-37" transform="translate(55.419922 0)"/>
     <use xlink:href="#Roboto-Light-36" transform="translate(110.839844 0)"/>
     <use xlink:href="#Roboto-Light-33" transform="translate(166.259766 0)"/>
    </g>
   </g>
   <g id="text_10">
    <!-- 3035 -->
    <g transform="translate(63.343167 74.491482) scale(0.05 -0.05)">
     <defs>
      <path id="Roboto-Light-35" d="M 681 2331 
L 903 4550 
L 3178 4550 
L 3178 4203 
L 1225 4203 
L 1066 2666 
Q 1431 2916 1922 2916 
Q 2538 2916 2903 2516 
Q 3269 2116 3269 1450 
Q 3269 731 2912 334 
Q 2556 -63 1909 -63 
Q 1316 -63 947 268 
Q 578 600 525 1197 
L 884 1197 
Q 938 731 1200 492 
Q 1463 253 1909 253 
Q 2397 253 2645 562 
Q 2894 872 2894 1444 
Q 2894 1944 2616 2259 
Q 2338 2575 1856 2575 
Q 1591 2575 1394 2508 
Q 1197 2441 978 2247 
L 681 2331 
z
" transform="scale(0.015625)"/>
     </defs>
     <use xlink:href="#Roboto-Light-33"/>
     <use xlink:href="#Roboto-Light-30" transform="translate(55.419922 0)"/>
     <use xlink:href="#Roboto-Light-33" transform="translate(110.839844 0)"/>
     <use xlink:href="#Roboto-Light-35" transform="translate(166.259766 0)"/>
    </g>
   </g>
   <g id="text_11">
    <!-- 1190 -->
    <g transform="translate(92.184403 89.911297) scale(0.05 -0.05)">
     <defs>
      <path id="Roboto-Light-31" d="M 2169 0 
L 1794 0 
L 1794 4100 
L 556 3641 
L 556 3991 
L 2106 4566 
L 2169 4566 
L 2169 0 
z
" transform="scale(0.015625)"/>
     </defs>
     <use xlink:href="#Roboto-Light-31"/>
     <use xlink:href="#Roboto-Light-31" transform="translate(55.419922 0)"/>
     <use xlink:href="#Roboto-Light-39" transform="translate(110.839844 0)"/>
     <use xlink:href="#Roboto-Light-30" transform="translate(166.259766 0)"/>
    </g>
   </g>
  </g>
  <g id="axes_2">
   <g id="patch_8">
    <path d="M 138.104321 101.377987 
L 224.628028 101.377987 
L 224.628028 26.144885 
L 138.104321 26.144885 
L 138.104321 101.377987 
z
" style="fill: none"/>
   </g>
   <g id="patch_9">
    <path d="M 145.31463 101.377987 
L 159.735248 101.377987 
L 159.735248 37.868739 
L 145.31463 37.868739 
z
" clip-path="url(#p4995a752bc)" style="fill: #f59f00"/>
   </g>
   <g id="patch_10">
    <path d="M 174.155865 101.377987 
L 188.576483 101.377987 
L 188.576483 73.471728 
L 174.155865 73.471728 
z
" clip-path="url(#p4995a752bc)" style="fill: #fcc419"/>
   </g>
   <g id="patch_11">
    <path d="M 202.997101 101.377987 
L 217.417719 101.377987 
L 217.417719 74.016832 
L 202.997101 74.016832 
z
" clip-path="url(#p4995a752bc)" style="fill: #ffe066"/>
   </g>
   <g id="patch_12">
    <path d="M 138.104321 101.377987 
L 138.104321 26.144885 
" style="fill: none; stroke: #000000; stroke-width: 0.3; stroke-linejoin: miter; stroke-linecap: square"/>
   </g>
   <g id="patch_13">
    <path d="M 138.104321 101.377987 
L 224.628028 101.377987 
" style="fill: none; stroke: #000000; stroke-width: 0.3; stroke-linejoin: miter; stroke-linecap: square"/>
   </g>
   <g id="matplotlib.axis_3">
    <g id="xtick_4">
     <g id="line2d_8"/>
     <g id="text_12">
      <!-- EB -->
      <g transform="translate(148.952126 108.877987) scale(0.06 -0.06)">
       <use xlink:href="#Roboto-Regular-45"/>
       <use xlink:href="#Roboto-Regular-42" transform="translate(56.835938 0)"/>
      </g>
     </g>
    </g>
    <g id="xtick_5">
     <g id="line2d_9"/>
     <g id="text_13">
      <!-- GB -->
      <g transform="translate(177.455393 108.877987) scale(0.06 -0.06)">
       <use xlink:href="#Roboto-Regular-47"/>
       <use xlink:href="#Roboto-Regular-42" transform="translate(68.115234 0)"/>
      </g>
     </g>
    </g>
    <g id="xtick_6">
     <g id="line2d_10"/>
     <g id="text_14">
      <!-- HPB -->
      <g transform="translate(204.308192 108.877987) scale(0.06 -0.06)">
       <use xlink:href="#Roboto-Regular-48"/>
       <use xlink:href="#Roboto-Regular-50" transform="translate(71.289062 0)"/>
       <use xlink:href="#Roboto-Regular-42" transform="translate(134.375 0)"/>
      </g>
     </g>
    </g>
   </g>
   <g id="matplotlib.axis_4">
    <g id="ytick_5">
     <g id="line2d_11">
      <g>
       <use xlink:href="#m6a20f422d4" x="138.104321" y="101.377987" style="stroke: #000000; stroke-width: 0.25"/>
      </g>
     </g>
     <g id="text_15">
      <!-- 0 -->
      <g transform="translate(129.779008 103.627987) scale(0.06 -0.06)">
       <use xlink:href="#Roboto-Light-30"/>
      </g>
     </g>
    </g>
    <g id="ytick_6">
     <g id="line2d_12">
      <g>
       <use xlink:href="#m6a20f422d4" x="138.104321" y="76.300286" style="stroke: #000000; stroke-width: 0.25"/>
      </g>
     </g>
     <g id="text_16">
      <!-- 3000 -->
      <g transform="translate(119.803071 78.550286) scale(0.06 -0.06)">
       <use xlink:href="#Roboto-Light-33"/>
       <use xlink:href="#Roboto-Light-30" transform="translate(55.419922 0)"/>
       <use xlink:href="#Roboto-Light-30" transform="translate(110.839844 0)"/>
       <use xlink:href="#Roboto-Light-30" transform="translate(166.259766 0)"/>
      </g>
     </g>
    </g>
    <g id="ytick_7">
     <g id="line2d_13">
      <g>
       <use xlink:href="#m6a20f422d4" x="138.104321" y="51.222586" style="stroke: #000000; stroke-width: 0.25"/>
      </g>
     </g>
     <g id="text_17">
      <!-- 6000 -->
      <g transform="translate(119.803071 53.472586) scale(0.06 -0.06)">
       <use xlink:href="#Roboto-Light-36"/>
       <use xlink:href="#Roboto-Light-30" transform="translate(55.419922 0)"/>
       <use xlink:href="#Roboto-Light-30" transform="translate(110.839844 0)"/>
       <use xlink:href="#Roboto-Light-30" transform="translate(166.259766 0)"/>
      </g>
     </g>
    </g>
    <g id="ytick_8">
     <g id="line2d_14">
      <g>
       <use xlink:href="#m6a20f422d4" x="138.104321" y="26.144885" style="stroke: #000000; stroke-width: 0.25"/>
      </g>
     </g>
     <g id="text_18">
      <!-- 9000 -->
      <g transform="translate(119.803071 28.394885) scale(0.06 -0.06)">
       <use xlink:href="#Roboto-Light-39"/>
       <use xlink:href="#Roboto-Light-30" transform="translate(55.419922 0)"/>
       <use xlink:href="#Roboto-Light-30" transform="translate(110.839844 0)"/>
       <use xlink:href="#Roboto-Light-30" transform="translate(166.259766 0)"/>
      </g>
     </g>
    </g>
   </g>
   <g id="text_19">
    <!-- Primary energy use [W] -->
    <g style="fill: #212529" transform="translate(143.173596 17.020794) scale(0.075 -0.075)">
     <defs>
      <path id="Roboto-Regular-69" d="M 1066 0 
L 488 0 
L 488 3381 
L 1066 3381 
L 1066 0 
z
M 441 4278 
Q 441 4419 527 4516 
Q 613 4613 781 4613 
Q 950 4613 1037 4516 
Q 1125 4419 1125 4278 
Q 1125 4138 1037 4044 
Q 950 3950 781 3950 
Q 613 3950 527 4044 
Q 441 4138 441 4278 
z
" transform="scale(0.015625)"/>
      <path id="Roboto-Regular-6d" d="M 981 3381 
L 997 3006 
Q 1369 3444 2000 3444 
Q 2709 3444 2966 2900 
Q 3134 3144 3404 3294 
Q 3675 3444 4044 3444 
Q 5156 3444 5175 2266 
L 5175 0 
L 4597 0 
L 4597 2231 
Q 4597 2594 4431 2773 
Q 4266 2953 3875 2953 
Q 3553 2953 3340 2761 
Q 3128 2569 3094 2244 
L 3094 0 
L 2513 0 
L 2513 2216 
Q 2513 2953 1791 2953 
Q 1222 2953 1013 2469 
L 1013 0 
L 434 0 
L 434 3381 
L 981 3381 
z
" transform="scale(0.015625)"/>
      <path id="Roboto-Regular-61" d="M 2525 0 
Q 2475 100 2444 356 
Q 2041 -63 1481 -63 
Q 981 -63 661 220 
Q 341 503 341 938 
Q 341 1466 742 1758 
Q 1144 2050 1872 2050 
L 2434 2050 
L 2434 2316 
Q 2434 2619 2253 2798 
Q 2072 2978 1719 2978 
Q 1409 2978 1200 2822 
Q 991 2666 991 2444 
L 409 2444 
Q 409 2697 589 2933 
Q 769 3169 1076 3306 
Q 1384 3444 1753 3444 
Q 2338 3444 2669 3151 
Q 3000 2859 3013 2347 
L 3013 791 
Q 3013 325 3131 50 
L 3131 0 
L 2525 0 
z
M 1566 441 
Q 1838 441 2081 581 
Q 2325 722 2434 947 
L 2434 1641 
L 1981 1641 
Q 919 1641 919 1019 
Q 919 747 1100 594 
Q 1281 441 1566 441 
z
" transform="scale(0.015625)"/>
     </defs>
     <use xlink:href="#Roboto-Regular-50"/>
     <use xlink:href="#Roboto-Regular-72" transform="translate(63.085938 0)"/>
     <use xlink:href="#Roboto-Regular-69" transform="translate(96.923828 0)"/>
     <use xlink:href="#Roboto-Regular-6d" transform="translate(121.191406 0)"/>
     <use xlink:href="#Roboto-Regular-61" transform="translate(208.837891 0)"/>
     <use xlink:href="#Roboto-Regular-72" transform="translate(263.232422 0)"/>
     <use xlink:href="#Roboto-Regular-79" transform="translate(297.070312 0)"/>
     <use xlink:href="#Roboto-Regular-20" transform="translate(344.384766 0)"/>
     <use xlink:href="#Roboto-Regular-65" transform="translate(369.140625 0)"/>
     <use xlink:href="#Roboto-Regular-6e" transform="translate(422.119141 0)"/>
     <use xlink:href="#Roboto-Regular-65" transform="translate(477.294922 0)"/>
     <use xlink:href="#Roboto-Regular-72" transform="translate(530.273438 0)"/>
     <use xlink:href="#Roboto-Regular-67" transform="translate(564.111328 0)"/>
     <use xlink:href="#Roboto-Regular-79" transform="translate(620.214844 0)"/>
     <use xlink:href="#Roboto-Regular-20" transform="translate(667.529297 0)"/>
     <use xlink:href="#Roboto-Regular-75" transform="translate(692.285156 0)"/>
     <use xlink:href="#Roboto-Regular-73" transform="translate(747.412109 0)"/>
     <use xlink:href="#Roboto-Regular-65" transform="translate(798.974609 0)"/>
     <use xlink:href="#Roboto-Regular-20" transform="translate(851.953125 0)"/>
     <use xlink:href="#Roboto-Regular-5b" transform="translate(876.708984 0)"/>
     <use xlink:href="#Roboto-Regular-57" transform="translate(903.222656 0)"/>
     <use xlink:href="#Roboto-Regular-5d" transform="translate(991.943359 0)"/>
    </g>
   </g>
   <g id="text_20">
    <!-- 7597 -->
    <g transform="translate(146.982751 36.35156) scale(0.05 -0.05)">
     <use xlink:href="#Roboto-Light-37"/>
     <use xlink:href="#Roboto-Light-35" transform="translate(55.419922 0)"/>
     <use xlink:href="#Roboto-Light-39" transform="translate(110.839844 0)"/>
     <use xlink:href="#Roboto-Light-37" transform="translate(166.259766 0)"/>
    </g>
   </g>
   <g id="text_21">
    <!-- 3338 -->
    <g transform="translate(175.823987 71.954549) scale(0.05 -0.05)">
     <defs>
      <path id="Roboto-Light-38" d="M 3109 3378 
Q 3109 3025 2903 2745 
Q 2697 2466 2359 2334 
Q 2753 2200 2990 1900 
Q 3228 1600 3228 1206 
Q 3228 622 2831 279 
Q 2434 -63 1781 -63 
Q 1122 -63 726 278 
Q 331 619 331 1206 
Q 331 1594 559 1897 
Q 788 2200 1184 2334 
Q 847 2466 647 2745 
Q 447 3025 447 3378 
Q 447 3944 811 4278 
Q 1175 4613 1775 4613 
Q 2375 4613 2742 4275 
Q 3109 3938 3109 3378 
z
M 2853 1203 
Q 2853 1628 2550 1901 
Q 2247 2175 1775 2175 
Q 1303 2175 1003 1906 
Q 703 1638 703 1203 
Q 703 769 993 511 
Q 1284 253 1781 253 
Q 2266 253 2559 509 
Q 2853 766 2853 1203 
z
M 2734 3381 
Q 2734 3772 2464 4033 
Q 2194 4294 1775 4294 
Q 1350 4294 1086 4042 
Q 822 3791 822 3381 
Q 822 2981 1086 2737 
Q 1350 2494 1778 2494 
Q 2200 2494 2467 2739 
Q 2734 2984 2734 3381 
z
" transform="scale(0.015625)"/>
     </defs>
     <use xlink:href="#Roboto-Light-33"/>
     <use xlink:href="#Roboto-Light-33" transform="translate(55.419922 0)"/>
     <use xlink:href="#Roboto-Light-33" transform="translate(110.839844 0)"/>
     <use xlink:href="#Roboto-Light-38" transform="translate(166.259766 0)"/>
    </g>
   </g>
   <g id="text_22">
    <!-- 3273 -->
    <g transform="translate(204.665223 72.499653) scale(0.05 -0.05)">
     <use xlink:href="#Roboto-Light-33"/>
     <use xlink:href="#Roboto-Light-32" transform="translate(55.419922 0)"/>
     <use xlink:href="#Roboto-Light-37" transform="translate(110.839844 0)"/>
     <use xlink:href="#Roboto-Light-33" transform="translate(166.259766 0)"/>
    </g>
   </g>
  </g>
  <g id="axes_3">
   <g id="patch_14">
    <path d="M 250.585141 101.377987 
L 337.108848 101.377987 
L 337.108848 26.144885 
L 250.585141 26.144885 
L 250.585141 101.377987 
z
" style="fill: none"/>
   </g>
   <g id="patch_15">
    <path d="M 257.795449 101.377987 
L 272.216067 101.377987 
L 272.216067 35.600881 
L 257.795449 35.600881 
z
" clip-path="url(#p67e4699755)" style="fill: #74b816"/>
   </g>
   <g id="patch_16">
    <path d="M 286.636685 101.377987 
L 301.057303 101.377987 
L 301.057303 70.674628 
L 286.636685 70.674628 
z
" clip-path="url(#p67e4699755)" style="fill: #94d82d"/>
   </g>
   <g id="patch_17">
    <path d="M 315.477921 101.377987 
L 329.898539 101.377987 
L 329.898539 73.03979 
L 315.477921 73.03979 
z
" clip-path="url(#p67e4699755)" style="fill: #c0eb75"/>
   </g>
   <g id="patch_18">
    <path d="M 250.585141 101.377987 
L 250.585141 26.144885 
" style="fill: none; stroke: #000000; stroke-width: 0.3; stroke-linejoin: miter; stroke-linecap: square"/>
   </g>
   <g id="patch_19">
    <path d="M 250.585141 101.377987 
L 337.108848 101.377987 
" style="fill: none; stroke: #000000; stroke-width: 0.3; stroke-linejoin: miter; stroke-linecap: square"/>
   </g>
   <g id="matplotlib.axis_5">
    <g id="xtick_7">
     <g id="line2d_15"/>
     <g id="text_23">
      <!-- EB -->
      <g transform="translate(261.432946 108.877987) scale(0.06 -0.06)">
       <use xlink:href="#Roboto-Regular-45"/>
       <use xlink:href="#Roboto-Regular-42" transform="translate(56.835938 0)"/>
      </g>
     </g>
    </g>
    <g id="xtick_8">
     <g id="line2d_16"/>
     <g id="text_24">
      <!-- GB -->
      <g transform="translate(289.936213 108.877987) scale(0.06 -0.06)">
       <use xlink:href="#Roboto-Regular-47"/>
       <use xlink:href="#Roboto-Regular-42" transform="translate(68.115234 0)"/>
      </g>
     </g>
    </g>
    <g id="xtick_9">
     <g id="line2d_17"/>
     <g id="text_25">
      <!-- HPB -->
      <g transform="translate(316.789011 108.877987) scale(0.06 -0.06)">
       <use xlink:href="#Roboto-Regular-48"/>
       <use xlink:href="#Roboto-Regular-50" transform="translate(71.289062 0)"/>
       <use xlink:href="#Roboto-Regular-42" transform="translate(134.375 0)"/>
      </g>
     </g>
    </g>
   </g>
   <g id="matplotlib.axis_6">
    <g id="ytick_9">
     <g id="line2d_18">
      <g>
       <use xlink:href="#m6a20f422d4" x="250.585141" y="101.377987" style="stroke: #000000; stroke-width: 0.25"/>
      </g>
     </g>
     <g id="text_26">
      <!-- 0 -->
      <g transform="translate(242.259828 103.627987) scale(0.06 -0.06)">
       <use xlink:href="#Roboto-Light-30"/>
      </g>
     </g>
    </g>
    <g id="ytick_10">
     <g id="line2d_19">
      <g>
       <use xlink:href="#m6a20f422d4" x="250.585141" y="76.300286" style="stroke: #000000; stroke-width: 0.25"/>
      </g>
     </g>
     <g id="text_27">
      <!-- 500 -->
      <g transform="translate(235.609203 78.550286) scale(0.06 -0.06)">
       <use xlink:href="#Roboto-Light-35"/>
       <use xlink:href="#Roboto-Light-30" transform="translate(55.419922 0)"/>
       <use xlink:href="#Roboto-Light-30" transform="translate(110.839844 0)"/>
      </g>
     </g>
    </g>
    <g id="ytick_11">
     <g id="line2d_20">
      <g>
       <use xlink:href="#m6a20f422d4" x="250.585141" y="51.222586" style="stroke: #000000; stroke-width: 0.25"/>
      </g>
     </g>
     <g id="text_28">
      <!-- 1000 -->
      <g transform="translate(232.283891 53.472586) scale(0.06 -0.06)">
       <use xlink:href="#Roboto-Light-31"/>
       <use xlink:href="#Roboto-Light-30" transform="translate(55.419922 0)"/>
       <use xlink:href="#Roboto-Light-30" transform="translate(110.839844 0)"/>
       <use xlink:href="#Roboto-Light-30" transform="translate(166.259766 0)"/>
      </g>
     </g>
    </g>
    <g id="ytick_12">
     <g id="line2d_21">
      <g>
       <use xlink:href="#m6a20f422d4" x="250.585141" y="26.144885" style="stroke: #000000; stroke-width: 0.25"/>
      </g>
     </g>
     <g id="text_29">
      <!-- 1500 -->
      <g transform="translate(232.283891 28.394885) scale(0.06 -0.06)">
       <use xlink:href="#Roboto-Light-31"/>
       <use xlink:href="#Roboto-Light-35" transform="translate(55.419922 0)"/>
       <use xlink:href="#Roboto-Light-30" transform="translate(110.839844 0)"/>
       <use xlink:href="#Roboto-Light-30" transform="translate(166.259766 0)"/>
      </g>
     </g>
    </g>
   </g>
   <g id="text_30">
    <!-- CO$_2$ emission [gCO$_2$/h] -->
    <g style="fill: #212529" transform="translate(255.784494 17.046575) scale(0.075 -0.075)">
     <defs>
      <path id="Roboto-Regular-43" d="M 3875 1444 
Q 3791 722 3342 329 
Q 2894 -63 2150 -63 
Q 1344 -63 858 515 
Q 372 1094 372 2063 
L 372 2500 
Q 372 3134 598 3615 
Q 825 4097 1240 4355 
Q 1656 4613 2203 4613 
Q 2928 4613 3365 4208 
Q 3803 3803 3875 3088 
L 3272 3088 
Q 3194 3631 2933 3875 
Q 2672 4119 2203 4119 
Q 1628 4119 1301 3694 
Q 975 3269 975 2484 
L 975 2044 
Q 975 1303 1284 865 
Q 1594 428 2150 428 
Q 2650 428 2917 654 
Q 3184 881 3272 1444 
L 3875 1444 
z
" transform="scale(0.015625)"/>
      <path id="Roboto-Regular-4f" d="M 4028 2128 
Q 4028 1459 3803 961 
Q 3578 463 3165 200 
Q 2753 -63 2203 -63 
Q 1666 -63 1250 201 
Q 834 466 604 955 
Q 375 1444 369 2088 
L 369 2416 
Q 369 3072 597 3575 
Q 825 4078 1242 4345 
Q 1659 4613 2197 4613 
Q 2744 4613 3161 4348 
Q 3578 4084 3803 3582 
Q 4028 3081 4028 2416 
L 4028 2128 
z
M 3431 2422 
Q 3431 3231 3106 3664 
Q 2781 4097 2197 4097 
Q 1628 4097 1301 3664 
Q 975 3231 966 2463 
L 966 2128 
Q 966 1344 1295 895 
Q 1625 447 2203 447 
Q 2784 447 3103 870 
Q 3422 1294 3431 2084 
L 3431 2422 
z
" transform="scale(0.015625)"/>
      <path id="NotoSansMath-Regular-32" d="M 307 0 
L 307 467 
L 1504 1677 
Q 1850 2022 2086 2291 
Q 2323 2560 2444 2819 
Q 2566 3078 2566 3386 
Q 2566 3763 2342 3958 
Q 2118 4154 1760 4154 
Q 1427 4154 1174 4038 
Q 922 3923 659 3718 
L 358 4096 
Q 627 4320 976 4477 
Q 1325 4634 1760 4634 
Q 2400 4634 2771 4310 
Q 3142 3987 3142 3418 
Q 3142 3059 2995 2748 
Q 2848 2438 2585 2131 
Q 2323 1824 1971 1478 
L 1018 538 
L 1018 512 
L 3328 512 
L 3328 0 
L 307 0 
z
" transform="scale(0.015625)"/>
      <path id="Roboto-Regular-6f" d="M 284 1722 
Q 284 2219 479 2616 
Q 675 3013 1023 3228 
Q 1372 3444 1819 3444 
Q 2509 3444 2936 2966 
Q 3363 2488 3363 1694 
L 3363 1653 
Q 3363 1159 3173 767 
Q 2984 375 2632 156 
Q 2281 -63 1825 -63 
Q 1138 -63 711 415 
Q 284 894 284 1681 
L 284 1722 
z
M 866 1653 
Q 866 1091 1127 750 
Q 1388 409 1825 409 
Q 2266 409 2525 754 
Q 2784 1100 2784 1722 
Q 2784 2278 2520 2623 
Q 2256 2969 1819 2969 
Q 1391 2969 1128 2628 
Q 866 2288 866 1653 
z
" transform="scale(0.015625)"/>
      <path id="Roboto-Regular-2f" d="M 553 -391 
L 56 -391 
L 1956 4550 
L 2450 4550 
L 553 -391 
z
" transform="scale(0.015625)"/>
      <path id="Roboto-Regular-68" d="M 1016 2972 
Q 1400 3444 2016 3444 
Q 3088 3444 3097 2234 
L 3097 0 
L 2519 0 
L 2519 2238 
Q 2516 2603 2352 2778 
Q 2188 2953 1841 2953 
Q 1559 2953 1346 2803 
Q 1134 2653 1016 2409 
L 1016 0 
L 438 0 
L 438 4800 
L 1016 4800 
L 1016 2972 
z
" transform="scale(0.015625)"/>
     </defs>
     <use xlink:href="#Roboto-Regular-43" transform="translate(0 0.75)"/>
     <use xlink:href="#Roboto-Regular-4f" transform="translate(65.087891 0.75)"/>
     <use xlink:href="#NotoSansMath-Regular-32" transform="translate(134.775781 -15.328125) scale(0.7)"/>
     <use xlink:href="#Roboto-Regular-20" transform="translate(177.495467 0.75)"/>
     <use xlink:href="#Roboto-Regular-65" transform="translate(202.251326 0.75)"/>
     <use xlink:href="#Roboto-Regular-6d" transform="translate(255.229842 0.75)"/>
     <use xlink:href="#Roboto-Regular-69" transform="translate(342.876326 0.75)"/>
     <use xlink:href="#Roboto-Regular-73" transform="translate(367.143904 0.75)"/>
     <use xlink:href="#Roboto-Regular-73" transform="translate(418.706404 0.75)"/>
     <use xlink:href="#Roboto-Regular-69" transform="translate(470.268904 0.75)"/>
     <use xlink:href="#Roboto-Regular-6f" transform="translate(494.536482 0.75)"/>
     <use xlink:href="#Roboto-Regular-6e" transform="translate(551.567732 0.75)"/>
     <use xlink:href="#Roboto-Regular-20" transform="translate(606.743513 0.75)"/>
     <use xlink:href="#Roboto-Regular-5b" transform="translate(631.499373 0.75)"/>
     <use xlink:href="#Roboto-Regular-67" transform="translate(658.013045 0.75)"/>
     <use xlink:href="#Roboto-Regular-43" transform="translate(714.11656 0.75)"/>
     <use xlink:href="#Roboto-Regular-4f" transform="translate(779.204451 0.75)"/>
     <use xlink:href="#NotoSansMath-Regular-32" transform="translate(848.892342 -15.328125) scale(0.7)"/>
     <use xlink:href="#Roboto-Regular-2f" transform="translate(891.612027 0.75)"/>
     <use xlink:href="#Roboto-Regular-68" transform="translate(932.822964 0.75)"/>
     <use xlink:href="#Roboto-Regular-5d" transform="translate(987.901089 0.75)"/>
    </g>
   </g>
   <g id="text_31">
    <!-- 1311 -->
    <g transform="translate(259.463571 34.083702) scale(0.05 -0.05)">
     <use xlink:href="#Roboto-Light-31"/>
     <use xlink:href="#Roboto-Light-33" transform="translate(55.419922 0)"/>
     <use xlink:href="#Roboto-Light-31" transform="translate(110.839844 0)"/>
     <use xlink:href="#Roboto-Light-31" transform="translate(166.259766 0)"/>
    </g>
   </g>
   <g id="text_32">
    <!-- 612 -->
    <g transform="translate(289.690354 69.157449) scale(0.05 -0.05)">
     <use xlink:href="#Roboto-Light-36"/>
     <use xlink:href="#Roboto-Light-31" transform="translate(55.419922 0)"/>
     <use xlink:href="#Roboto-Light-32" transform="translate(110.839844 0)"/>
    </g>
   </g>
   <g id="text_33">
    <!-- 565 -->
    <g transform="translate(318.53159 71.522611) scale(0.05 -0.05)">
     <use xlink:href="#Roboto-Light-35"/>
     <use xlink:href="#Roboto-Light-36" transform="translate(55.419922 0)"/>
     <use xlink:href="#Roboto-Light-35" transform="translate(110.839844 0)"/>
    </g>
   </g>
  </g>
  <g id="axes_4">
   <g id="patch_20">
    <path d="M 363.06596 101.377987 
L 449.589668 101.377987 
L 449.589668 26.144885 
L 363.06596 26.144885 
L 363.06596 101.377987 
z
" style="fill: none"/>
   </g>
   <g id="patch_21">
    <path d="M 370.276269 101.377987 
L 384.696887 101.377987 
L 384.696887 77.847209 
L 370.276269 77.847209 
z
" clip-path="url(#p69452d9453)" style="fill: #ae3ec9"/>
   </g>
   <g id="patch_22">
    <path d="M 399.117505 101.377987 
L 413.538123 101.377987 
L 413.538123 78.345084 
L 399.117505 78.345084 
z
" clip-path="url(#p69452d9453)" style="fill: #cc5de8"/>
   </g>
   <g id="patch_23">
    <path d="M 427.958741 101.377987 
L 442.379359 101.377987 
L 442.379359 46.759605 
L 427.958741 46.759605 
z
" clip-path="url(#p69452d9453)" style="fill: #e599f7"/>
   </g>
   <g id="patch_24">
    <path d="M 363.06596 101.377987 
L 363.06596 26.144885 
" style="fill: none; stroke: #000000; stroke-width: 0.3; stroke-linejoin: miter; stroke-linecap: square"/>
   </g>
   <g id="patch_25">
    <path d="M 363.06596 101.377987 
L 449.589668 101.377987 
" style="fill: none; stroke: #000000; stroke-width: 0.3; stroke-linejoin: miter; stroke-linecap: square"/>
   </g>
   <g id="matplotlib.axis_7">
    <g id="xtick_10">
     <g id="line2d_22"/>
     <g id="text_34">
      <!-- EB -->
      <g transform="translate(373.913766 108.877987) scale(0.06 -0.06)">
       <use xlink:href="#Roboto-Regular-45"/>
       <use xlink:href="#Roboto-Regular-42" transform="translate(56.835938 0)"/>
      </g>
     </g>
    </g>
    <g id="xtick_11">
     <g id="line2d_23"/>
     <g id="text_35">
      <!-- GB -->
      <g transform="translate(402.417033 108.877987) scale(0.06 -0.06)">
       <use xlink:href="#Roboto-Regular-47"/>
       <use xlink:href="#Roboto-Regular-42" transform="translate(68.115234 0)"/>
      </g>
     </g>
    </g>
    <g id="xtick_12">
     <g id="line2d_24"/>
     <g id="text_36">
      <!-- HPB -->
      <g transform="translate(429.269831 108.877987) scale(0.06 -0.06)">
       <use xlink:href="#Roboto-Regular-48"/>
       <use xlink:href="#Roboto-Regular-50" transform="translate(71.289062 0)"/>
       <use xlink:href="#Roboto-Regular-42" transform="translate(134.375 0)"/>
      </g>
     </g>
    </g>
   </g>
   <g id="matplotlib.axis_8">
    <g id="ytick_13">
     <g id="line2d_25">
      <g>
       <use xlink:href="#m6a20f422d4" x="363.06596" y="101.377987" style="stroke: #000000; stroke-width: 0.25"/>
      </g>
     </g>
     <g id="text_37">
      <!-- 0 -->
      <g transform="translate(354.740648 103.627987) scale(0.06 -0.06)">
       <use xlink:href="#Roboto-Light-30"/>
      </g>
     </g>
    </g>
    <g id="ytick_14">
     <g id="line2d_26">
      <g>
       <use xlink:href="#m6a20f422d4" x="363.06596" y="76.300286" style="stroke: #000000; stroke-width: 0.25"/>
      </g>
     </g>
     <g id="text_38">
      <!-- 10 -->
      <g transform="translate(351.415335 78.550286) scale(0.06 -0.06)">
       <use xlink:href="#Roboto-Light-31"/>
       <use xlink:href="#Roboto-Light-30" transform="translate(55.419922 0)"/>
      </g>
     </g>
    </g>
    <g id="ytick_15">
     <g id="line2d_27">
      <g>
       <use xlink:href="#m6a20f422d4" x="363.06596" y="51.222586" style="stroke: #000000; stroke-width: 0.25"/>
      </g>
     </g>
     <g id="text_39">
      <!-- 20 -->
      <g transform="translate(351.415335 53.472586) scale(0.06 -0.06)">
       <use xlink:href="#Roboto-Light-32"/>
       <use xlink:href="#Roboto-Light-30" transform="translate(55.419922 0)"/>
      </g>
     </g>
    </g>
    <g id="ytick_16">
     <g id="line2d_28">
      <g>
       <use xlink:href="#m6a20f422d4" x="363.06596" y="26.144885" style="stroke: #000000; stroke-width: 0.25"/>
      </g>
     </g>
     <g id="text_40">
      <!-- 30 -->
      <g transform="translate(351.415335 28.394885) scale(0.06 -0.06)">
       <use xlink:href="#Roboto-Light-33"/>
       <use xlink:href="#Roboto-Light-30" transform="translate(55.419922 0)"/>
      </g>
     </g>
    </g>
   </g>
   <g id="text_41">
    <!-- Exergy efficiency [%] -->
    <g style="fill: #212529" transform="translate(372.444806 17.020794) scale(0.075 -0.075)">
     <defs>
      <path id="Roboto-Regular-78" d="M 1572 2147 
L 2322 3381 
L 2997 3381 
L 1891 1709 
L 3031 0 
L 2363 0 
L 1581 1266 
L 800 0 
L 128 0 
L 1269 1709 
L 163 3381 
L 831 3381 
L 1572 2147 
z
" transform="scale(0.015625)"/>
      <path id="Roboto-Regular-66" d="M 722 0 
L 722 2934 
L 188 2934 
L 188 3381 
L 722 3381 
L 722 3728 
Q 722 4272 1012 4569 
Q 1303 4866 1834 4866 
Q 2034 4866 2231 4813 
L 2200 4344 
Q 2053 4372 1888 4372 
Q 1606 4372 1453 4208 
Q 1300 4044 1300 3738 
L 1300 3381 
L 2022 3381 
L 2022 2934 
L 1300 2934 
L 1300 0 
L 722 0 
z
" transform="scale(0.015625)"/>
      <path id="Roboto-Regular-63" d="M 1794 409 
Q 2103 409 2334 596 
Q 2566 784 2591 1066 
L 3138 1066 
Q 3122 775 2937 512 
Q 2753 250 2445 93 
Q 2138 -63 1794 -63 
Q 1103 -63 695 398 
Q 288 859 288 1659 
L 288 1756 
Q 288 2250 469 2634 
Q 650 3019 989 3231 
Q 1328 3444 1791 3444 
Q 2359 3444 2736 3103 
Q 3113 2763 3138 2219 
L 2591 2219 
Q 2566 2547 2342 2758 
Q 2119 2969 1791 2969 
Q 1350 2969 1108 2651 
Q 866 2334 866 1734 
L 866 1625 
Q 866 1041 1106 725 
Q 1347 409 1794 409 
z
" transform="scale(0.015625)"/>
      <path id="Roboto-Regular-25" d="M 328 3675 
Q 328 4084 589 4350 
Q 850 4616 1259 4616 
Q 1675 4616 1933 4348 
Q 2191 4081 2191 3656 
L 2191 3434 
Q 2191 3022 1930 2761 
Q 1669 2500 1266 2500 
Q 859 2500 593 2761 
Q 328 3022 328 3456 
L 328 3675 
z
M 759 3434 
Q 759 3191 896 3033 
Q 1034 2875 1266 2875 
Q 1488 2875 1623 3028 
Q 1759 3181 1759 3447 
L 1759 3675 
Q 1759 3919 1625 4078 
Q 1491 4238 1259 4238 
Q 1028 4238 893 4078 
Q 759 3919 759 3663 
L 759 3434 
z
M 2544 1116 
Q 2544 1525 2805 1789 
Q 3066 2053 3475 2053 
Q 3884 2053 4146 1790 
Q 4409 1528 4409 1094 
L 4409 872 
Q 4409 463 4148 198 
Q 3888 -66 3481 -66 
Q 3075 -66 2809 195 
Q 2544 456 2544 891 
L 2544 1116 
z
M 2975 872 
Q 2975 625 3112 467 
Q 3250 309 3481 309 
Q 3706 309 3840 464 
Q 3975 619 3975 884 
L 3975 1116 
Q 3975 1363 3839 1519 
Q 3703 1675 3475 1675 
Q 3253 1675 3114 1520 
Q 2975 1366 2975 1103 
L 2975 872 
z
M 1397 344 
L 1069 550 
L 3291 4106 
L 3619 3900 
L 1397 344 
z
" transform="scale(0.015625)"/>
     </defs>
     <use xlink:href="#Roboto-Regular-45"/>
     <use xlink:href="#Roboto-Regular-78" transform="translate(56.835938 0)"/>
     <use xlink:href="#Roboto-Regular-65" transform="translate(106.396484 0)"/>
     <use xlink:href="#Roboto-Regular-72" transform="translate(159.375 0)"/>
     <use xlink:href="#Roboto-Regular-67" transform="translate(193.212891 0)"/>
     <use xlink:href="#Roboto-Regular-79" transform="translate(249.316406 0)"/>
     <use xlink:href="#Roboto-Regular-20" transform="translate(296.630859 0)"/>
     <use xlink:href="#Roboto-Regular-65" transform="translate(321.386719 0)"/>
     <use xlink:href="#Roboto-Regular-66" transform="translate(374.365234 0)"/>
     <use xlink:href="#Roboto-Regular-66" transform="translate(409.082031 0)"/>
     <use xlink:href="#Roboto-Regular-69" transform="translate(443.798828 0)"/>
     <use xlink:href="#Roboto-Regular-63" transform="translate(468.066406 0)"/>
     <use xlink:href="#Roboto-Regular-69" transform="translate(520.410156 0)"/>
     <use xlink:href="#Roboto-Regular-65" transform="translate(544.677734 0)"/>
     <use xlink:href="#Roboto-Regular-6e" transform="translate(597.65625 0)"/>
     <use xlink:href="#Roboto-Regular-63" transform="translate(652.832031 0)"/>
     <use xlink:href="#Roboto-Regular-79" transform="translate(705.175781 0)"/>
     <use xlink:href="#Roboto-Regular-20" transform="translate(752.490234 0)"/>
     <use xlink:href="#Roboto-Regular-5b" transform="translate(777.246094 0)"/>
     <use xlink:href="#Roboto-Regular-25" transform="translate(803.759766 0)"/>
     <use xlink:href="#Roboto-Regular-5d" transform="translate(877.001953 0)"/>
    </g>
   </g>
   <g id="text_42">
    <!-- 9.4 -->
    <g transform="translate(374.11861 76.33003) scale(0.05 -0.05)">
     <defs>
      <path id="Roboto-Light-2e" d="M 453 225 
Q 453 334 523 411 
Q 594 488 719 488 
Q 844 488 916 411 
Q 988 334 988 225 
Q 988 116 916 45 
Q 844 -25 719 -25 
Q 594 -25 523 45 
Q 453 116 453 225 
z
" transform="scale(0.015625)"/>
      <path id="Roboto-Light-34" d="M 2725 1466 
L 3434 1466 
L 3434 1150 
L 2725 1150 
L 2725 0 
L 2350 0 
L 2350 1150 
L 209 1150 
L 209 1363 
L 2316 4550 
L 2725 4550 
L 2725 1466 
z
M 669 1466 
L 2350 1466 
L 2350 4066 
L 2184 3778 
L 669 1466 
z
" transform="scale(0.015625)"/>
     </defs>
     <use xlink:href="#Roboto-Light-39"/>
     <use xlink:href="#Roboto-Light-2e" transform="translate(55.419922 0)"/>
     <use xlink:href="#Roboto-Light-34" transform="translate(79.296875 0)"/>
    </g>
   </g>
   <g id="text_43">
    <!-- 9.2 -->
    <g transform="translate(402.959845 76.827905) scale(0.05 -0.05)">
     <use xlink:href="#Roboto-Light-39"/>
     <use xlink:href="#Roboto-Light-2e" transform="translate(55.419922 0)"/>
     <use xlink:href="#Roboto-Light-32" transform="translate(79.296875 0)"/>
    </g>
   </g>
   <g id="text_44">
    <!-- 21.8 -->
    <g transform="translate(430.415534 45.242426) scale(0.05 -0.05)">
     <use xlink:href="#Roboto-Light-32"/>
     <use xlink:href="#Roboto-Light-31" transform="translate(55.419922 0)"/>
     <use xlink:href="#Roboto-Light-2e" transform="translate(110.839844 0)"/>
     <use xlink:href="#Roboto-Light-38" transform="translate(134.716797 0)"/>
    </g>
   </g>
  </g>
 </g>
 <defs>
  <clipPath id="p445d663b24">
   <rect x="25.623501" y="26.144885" width="86.523708" height="75.233102"/>
  </clipPath>
  <clipPath id="p4995a752bc">
   <rect x="138.104321" y="26.144885" width="86.523708" height="75.233102"/>
  </clipPath>
  <clipPath id="p67e4699755">
   <rect x="250.585141" y="26.144885" width="86.523708" height="75.233102"/>
  </clipPath>
  <clipPath id="p69452d9453">
   <rect x="363.06596" y="26.144885" width="86.523708" height="75.233102"/>
  </clipPath>
 </defs>
</svg>
