<?xml version="1.0" encoding="utf-8" standalone="no"?>
<!DOCTYPE svg PUBLIC "-//W3C//DTD SVG 1.1//EN"
  "http://www.w3.org/Graphics/SVG/1.1/DTD/svg11.dtd">
<svg xmlns:xlink="http://www.w3.org/1999/xlink" width="340.15748pt" height="184.251969pt" viewBox="0 0 340.15748 184.251969" xmlns="http://www.w3.org/2000/svg" version="1.1">
 <metadata>
  <rdf:RDF xmlns:dc="http://purl.org/dc/elements/1.1/" xmlns:cc="http://creativecommons.org/ns#" xmlns:rdf="http://www.w3.org/1999/02/22-rdf-syntax-ns#">
   <cc:Work>
    <dc:type rdf:resource="http://purl.org/dc/dcmitype/StillImage"/>
    <dc:date>2025-07-22T21:21:54.214902</dc:date>
    <dc:format>image/svg+xml</dc:format>
    <dc:creator>
     <cc:Agent>
      <dc:title>Matplotlib v3.10.3, https://matplotlib.org/</dc:title>
     </cc:Agent>
    </dc:creator>
   </cc:Work>
  </rdf:RDF>
 </metadata>
 <defs>
  <style type="text/css">*{stroke-linejoin: round; stroke-linecap: butt}</style>
 </defs>
 <g id="figure_1">
  <g id="patch_1">
   <path d="M 0 184.251969 
L 340.15748 184.251969 
L 340.15748 0 
L 0 0 
L 0 184.251969 
z
" style="fill: none"/>
  </g>
  <g id="axes_1">
   <g id="patch_2">
    <path d="M 30.225229 156.815724 
L 332.77403 156.815724 
L 332.77403 5.919156 
L 30.225229 5.919156 
L 30.225229 156.815724 
z
" style="fill: none"/>
   </g>
   <g id="FillBetweenPolyCollection_1">
    <defs>
     <path id="m7526aa2305" d="M 93.160158 -27.439109 
L 93.160158 -27.436244 
L 93.618568 -27.436244 
L 94.076978 -27.436244 
L 94.535389 -27.436244 
L 94.993799 -27.436244 
L 95.452209 -27.436244 
L 95.91062 -27.436244 
L 96.36903 -27.436244 
L 96.827441 -27.436244 
L 97.285851 -27.436244 
L 97.744261 -27.436244 
L 98.202672 -27.436244 
L 98.661082 -27.436244 
L 99.119492 -27.436244 
L 99.577903 -27.436244 
L 100.036313 -27.436244 
L 100.494723 -27.436244 
L 100.953134 -27.436244 
L 101.411544 -27.436244 
L 101.869954 -27.436244 
L 102.328365 -27.436244 
L 102.786775 -27.436244 
L 103.245185 -27.436244 
L 103.703596 -27.436244 
L 104.162006 -27.436244 
L 104.620417 -27.436244 
L 105.078827 -27.436244 
L 105.537237 -27.436244 
L 105.995648 -27.436244 
L 106.454058 -27.436244 
L 106.912468 -27.436244 
L 107.370879 -27.436244 
L 107.829289 -27.436244 
L 108.287699 -27.436244 
L 108.74611 -27.436244 
L 109.20452 -27.436244 
L 109.66293 -27.436244 
L 110.121341 -27.436244 
L 110.579751 -27.436244 
L 111.038161 -27.436244 
L 111.496572 -27.436244 
L 111.954982 -27.436244 
L 112.413393 -27.436244 
L 112.871803 -27.436244 
L 113.330213 -27.436244 
L 113.788624 -27.436244 
L 114.247034 -27.436244 
L 114.705444 -27.436244 
L 115.163855 -27.436244 
L 115.622265 -27.436244 
L 116.080675 -27.436244 
L 116.539086 -27.436244 
L 116.997496 -27.436244 
L 117.455906 -27.436244 
L 117.914317 -27.436244 
L 118.372727 -27.436244 
L 118.831137 -27.436244 
L 119.289548 -27.436244 
L 119.747958 -27.436244 
L 120.206369 -27.436244 
L 120.664779 -27.436244 
L 121.123189 -27.436244 
L 121.5816 -27.436244 
L 122.04001 -27.436244 
L 122.49842 -27.436244 
L 122.956831 -27.436244 
L 123.415241 -27.436244 
L 123.873651 -27.436244 
L 124.332062 -27.436244 
L 124.790472 -27.436244 
L 125.248882 -27.436244 
L 125.707293 -27.436244 
L 126.165703 -27.436244 
L 126.624113 -27.436244 
L 127.082524 -27.436244 
L 127.540934 -27.436244 
L 127.999345 -27.436244 
L 128.457755 -27.436244 
L 128.916165 -27.436244 
L 129.374576 -27.436244 
L 129.832986 -27.436244 
L 130.291396 -27.436244 
L 130.749807 -27.436244 
L 131.208217 -27.436244 
L 131.666627 -27.436244 
L 132.125038 -27.436244 
L 132.583448 -27.436244 
L 133.041858 -27.436244 
L 133.500269 -27.436244 
L 133.958679 -27.436244 
L 134.417089 -27.436244 
L 134.8755 -27.436244 
L 135.33391 -27.436244 
L 135.792321 -27.436244 
L 136.250731 -27.436244 
L 136.709141 -27.436244 
L 137.167552 -27.436244 
L 137.625962 -27.436244 
L 138.084372 -27.436244 
L 138.542783 -27.436244 
L 139.001193 -27.436244 
L 139.459603 -27.436244 
L 139.918014 -27.436244 
L 140.376424 -27.436244 
L 140.834834 -27.436244 
L 141.293245 -27.436244 
L 141.751655 -27.436244 
L 142.210065 -27.436244 
L 142.668476 -27.436244 
L 143.126886 -27.436244 
L 143.585297 -27.436244 
L 144.043707 -27.436244 
L 144.502117 -27.436244 
L 144.960528 -27.436244 
L 145.418938 -27.436244 
L 145.877348 -27.436244 
L 146.335759 -27.436244 
L 146.794169 -27.436244 
L 147.252579 -27.436244 
L 147.71099 -27.436244 
L 148.1694 -27.436244 
L 148.62781 -27.436244 
L 149.086221 -27.436244 
L 149.544631 -27.436244 
L 150.003042 -27.436244 
L 150.461452 -27.436244 
L 150.919862 -27.436244 
L 151.378273 -27.436244 
L 151.836683 -27.436244 
L 152.295093 -27.436244 
L 152.753504 -27.436244 
L 153.211914 -27.436244 
L 153.670324 -27.436244 
L 154.128735 -27.436244 
L 154.587145 -27.436244 
L 155.045555 -27.436244 
L 155.503966 -27.436244 
L 155.962376 -27.436244 
L 156.420786 -27.436244 
L 156.879197 -27.436244 
L 157.337607 -27.436244 
L 157.796018 -27.436244 
L 158.254428 -27.436244 
L 158.712838 -27.436244 
L 159.171249 -27.436244 
L 159.629659 -27.436244 
L 160.088069 -27.436244 
L 160.54648 -27.436244 
L 161.00489 -27.436244 
L 161.4633 -27.436244 
L 161.921711 -27.436244 
L 162.380121 -27.436244 
L 162.838531 -27.436244 
L 163.296942 -27.436244 
L 163.755352 -27.436244 
L 164.213762 -27.436244 
L 164.672173 -27.436244 
L 165.130583 -27.436244 
L 165.588994 -27.436244 
L 166.047404 -27.436244 
L 166.505814 -27.436244 
L 166.964225 -27.436244 
L 167.422635 -27.436244 
L 167.881045 -27.436244 
L 168.339456 -27.436244 
L 168.797866 -27.436244 
L 169.256276 -27.436244 
L 169.714687 -27.436244 
L 170.173097 -27.436244 
L 170.631507 -27.436244 
L 171.089918 -27.436244 
L 171.548328 -27.436244 
L 172.006738 -27.436244 
L 172.465149 -27.436244 
L 172.923559 -27.436244 
L 173.38197 -27.436244 
L 173.84038 -27.436244 
L 174.29879 -27.436244 
L 174.757201 -27.436244 
L 175.215611 -27.436244 
L 175.674021 -27.436244 
L 176.132432 -27.436244 
L 176.590842 -27.436244 
L 177.049252 -27.436244 
L 177.507663 -27.436244 
L 177.966073 -27.436244 
L 178.424483 -27.436244 
L 178.882894 -27.436244 
L 179.341304 -27.436244 
L 179.799714 -27.436244 
L 180.258125 -27.436244 
L 180.716535 -27.436244 
L 181.174946 -27.436244 
L 181.633356 -27.436244 
L 182.091766 -27.436244 
L 182.550177 -27.436244 
L 183.008587 -27.436244 
L 183.466997 -27.436244 
L 183.925408 -27.436244 
L 184.383818 -27.436244 
L 184.383818 -27.45594 
L 184.383818 -27.45594 
L 183.925408 -27.478463 
L 183.466997 -27.522455 
L 183.008587 -27.604055 
L 182.550177 -27.747832 
L 182.091766 -27.988569 
L 181.633356 -28.371791 
L 181.174946 -28.952081 
L 180.716535 -29.788487 
L 180.258125 -30.936953 
L 179.799714 -32.440729 
L 179.341304 -34.32069 
L 178.882894 -36.5681 
L 178.424483 -39.142113 
L 177.966073 -41.973239 
L 177.507663 -44.972323 
L 177.049252 -48.04298 
L 176.590842 -51.094488 
L 176.132432 -54.052214 
L 175.674021 -56.863641 
L 175.215611 -59.499508 
L 174.757201 -61.950901 
L 174.29879 -64.223907 
L 173.84038 -66.333597 
L 173.38197 -68.298709 
L 172.923559 -70.137864 
L 172.465149 -71.867524 
L 172.006738 -73.501471 
L 171.548328 -75.051296 
L 171.089918 -76.527273 
L 170.631507 -77.9391 
L 170.173097 -79.296165 
L 169.714687 -80.607305 
L 169.256276 -81.880234 
L 168.797866 -83.120958 
L 168.339456 -84.333463 
L 167.881045 -85.519827 
L 167.422635 -86.680737 
L 166.964225 -87.816279 
L 166.505814 -88.926742 
L 166.047404 -90.013211 
L 165.588994 -91.077767 
L 165.130583 -92.123235 
L 164.672173 -93.152575 
L 164.213762 -94.168148 
L 163.755352 -95.171115 
L 163.296942 -96.161224 
L 162.838531 -97.137072 
L 162.380121 -98.096731 
L 161.921711 -99.03851 
L 161.4633 -99.961562 
L 161.00489 -100.866114 
L 160.54648 -101.753286 
L 160.088069 -102.624609 
L 159.629659 -103.481509 
L 159.171249 -104.324997 
L 158.712838 -105.155757 
L 158.254428 -105.9746 
L 157.796018 -106.783095 
L 157.337607 -107.584053 
L 156.879197 -108.381563 
L 156.420786 -109.18043 
L 155.962376 -109.985184 
L 155.503966 -110.798995 
L 155.045555 -111.622957 
L 154.587145 -112.455986 
L 154.128735 -113.295271 
L 153.670324 -114.13698 
L 153.211914 -114.976814 
L 152.753504 -115.810209 
L 152.295093 -116.632265 
L 151.836683 -117.437698 
L 151.378273 -118.221131 
L 150.919862 -118.977805 
L 150.461452 -119.70456 
L 150.003042 -120.400741 
L 149.544631 -121.06869 
L 149.086221 -121.713616 
L 148.62781 -122.342831 
L 148.1694 -122.964434 
L 147.71099 -123.585636 
L 147.252579 -124.211025 
L 146.794169 -124.841195 
L 146.335759 -125.472181 
L 145.877348 -126.096051 
L 145.418938 -126.702585 
L 144.960528 -127.28154 
L 144.502117 -127.824656 
L 144.043707 -128.326663 
L 143.585297 -128.785023 
L 143.126886 -129.198805 
L 142.668476 -129.567504 
L 142.210065 -129.890592 
L 141.751655 -130.168071 
L 141.293245 -130.401687 
L 140.834834 -130.596073 
L 140.376424 -130.759127 
L 139.918014 -130.90131 
L 139.459603 -131.034041 
L 139.001193 -131.167682 
L 138.542783 -131.309725 
L 138.084372 -131.463669 
L 137.625962 -131.628929 
L 137.167552 -131.801777 
L 136.709141 -131.977103 
L 136.250731 -132.150435 
L 135.792321 -132.319573 
L 135.33391 -132.485287 
L 134.8755 -132.65088 
L 134.417089 -132.820855 
L 133.958679 -132.999264 
L 133.500269 -133.188334 
L 133.041858 -133.387796 
L 132.583448 -133.59501 
L 132.125038 -133.805737 
L 131.666627 -134.01523 
L 131.208217 -134.219362 
L 130.749807 -134.415496 
L 130.291396 -134.602922 
L 129.832986 -134.782788 
L 129.374576 -134.957582 
L 128.916165 -135.130381 
L 128.457755 -135.304102 
L 127.999345 -135.480976 
L 127.540934 -135.662275 
L 127.082524 -135.848249 
L 126.624113 -136.038136 
L 126.165703 -136.230132 
L 125.707293 -136.421206 
L 125.248882 -136.606586 
L 124.790472 -136.778667 
L 124.332062 -136.925073 
L 123.873651 -137.025783 
L 123.415241 -137.049592 
L 122.956831 -136.950658 
L 122.49842 -136.666339 
L 122.04001 -136.117764 
L 121.5816 -135.214425 
L 121.123189 -133.863431 
L 120.664779 -131.982887 
L 120.206369 -129.517422 
L 119.747958 -126.452553 
L 119.289548 -122.824054 
L 118.831137 -118.719115 
L 118.372727 -114.267944 
L 117.914317 -109.627031 
L 117.455906 -104.957689 
L 116.997496 -100.404801 
L 116.539086 -96.080478 
L 116.080675 -92.055675 
L 115.622265 -88.360379 
L 115.163855 -84.990654 
L 114.705444 -81.919389 
L 114.247034 -79.107396 
L 113.788624 -76.512349 
L 113.330213 -74.094472 
L 112.871803 -71.819228 
L 112.413393 -69.658072 
L 111.954982 -67.588382 
L 111.496572 -65.59334 
L 111.038161 -63.661903 
L 110.579751 -61.788582 
L 110.121341 -59.972673 
L 109.66293 -58.216732 
L 109.20452 -56.524477 
L 108.74611 -54.898579 
L 108.287699 -53.33896 
L 107.829289 -51.842026 
L 107.370879 -50.40099 
L 106.912468 -49.007032 
L 106.454058 -47.650811 
L 105.995648 -46.323835 
L 105.537237 -45.01933 
L 105.078827 -43.7326 
L 104.620417 -42.461006 
L 104.162006 -41.203852 
L 103.703596 -39.962296 
L 103.245185 -38.739347 
L 102.786775 -37.539852 
L 102.328365 -36.370398 
L 101.869954 -35.239099 
L 101.411544 -34.155321 
L 100.953134 -33.129361 
L 100.494723 -32.172075 
L 100.036313 -31.294326 
L 99.577903 -30.506149 
L 99.119492 -29.815635 
L 98.661082 -29.227683 
L 98.202672 -28.742949 
L 97.744261 -28.357337 
L 97.285851 -28.062252 
L 96.827441 -27.845605 
L 96.36903 -27.693336 
L 95.91062 -27.591066 
L 95.452209 -27.525521 
L 94.993799 -27.485482 
L 94.535389 -27.46219 
L 94.076978 -27.449296 
L 93.618568 -27.442507 
L 93.160158 -27.439109 
z
" style="stroke: #1d4ed8; stroke-width: 0.75"/>
    </defs>
    <g clip-path="url(#pbf830fd130)">
     <use xlink:href="#m7526aa2305" x="0" y="184.251969" style="fill: #1d4ed8; fill-opacity: 0.25; stroke: #1d4ed8; stroke-width: 0.75"/>
    </g>
   </g>
   <g id="FillBetweenPolyCollection_2">
    <path d="M 149.413402 156.814783 
L 149.413402 156.815724 
L 149.647577 156.815724 
L 149.881753 156.815724 
L 150.115928 156.815724 
L 150.350104 156.815724 
L 150.58428 156.815724 
L 150.818455 156.815724 
L 151.052631 156.815724 
L 151.286807 156.815724 
L 151.520982 156.815724 
L 151.755158 156.815724 
L 151.989333 156.815724 
L 152.223509 156.815724 
L 152.457685 156.815724 
L 152.69186 156.815724 
L 152.926036 156.815724 
L 153.160212 156.815724 
L 153.394387 156.815724 
L 153.628563 156.815724 
L 153.862738 156.815724 
L 154.096914 156.815724 
L 154.33109 156.815724 
L 154.565265 156.815724 
L 154.799441 156.815724 
L 155.033616 156.815724 
L 155.267792 156.815724 
L 155.501968 156.815724 
L 155.736143 156.815724 
L 155.970319 156.815724 
L 156.204495 156.815724 
L 156.43867 156.815724 
L 156.672846 156.815724 
L 156.907021 156.815724 
L 157.141197 156.815724 
L 157.375373 156.815724 
L 157.609548 156.815724 
L 157.843724 156.815724 
L 158.0779 156.815724 
L 158.312075 156.815724 
L 158.546251 156.815724 
L 158.780426 156.815724 
L 159.014602 156.815724 
L 159.248778 156.815724 
L 159.482953 156.815724 
L 159.717129 156.815724 
L 159.951305 156.815724 
L 160.18548 156.815724 
L 160.419656 156.815724 
L 160.653831 156.815724 
L 160.888007 156.815724 
L 161.122183 156.815724 
L 161.356358 156.815724 
L 161.590534 156.815724 
L 161.82471 156.815724 
L 162.058885 156.815724 
L 162.293061 156.815724 
L 162.527236 156.815724 
L 162.761412 156.815724 
L 162.995588 156.815724 
L 163.229763 156.815724 
L 163.463939 156.815724 
L 163.698115 156.815724 
L 163.93229 156.815724 
L 164.166466 156.815724 
L 164.400641 156.815724 
L 164.634817 156.815724 
L 164.868993 156.815724 
L 165.103168 156.815724 
L 165.337344 156.815724 
L 165.571519 156.815724 
L 165.805695 156.815724 
L 166.039871 156.815724 
L 166.274046 156.815724 
L 166.508222 156.815724 
L 166.742398 156.815724 
L 166.976573 156.815724 
L 167.210749 156.815724 
L 167.444924 156.815724 
L 167.6791 156.815724 
L 167.913276 156.815724 
L 168.147451 156.815724 
L 168.381627 156.815724 
L 168.615803 156.815724 
L 168.849978 156.815724 
L 169.084154 156.815724 
L 169.318329 156.815724 
L 169.552505 156.815724 
L 169.786681 156.815724 
L 170.020856 156.815724 
L 170.255032 156.815724 
L 170.489208 156.815724 
L 170.723383 156.815724 
L 170.957559 156.815724 
L 171.191734 156.815724 
L 171.42591 156.815724 
L 171.660086 156.815724 
L 171.894261 156.815724 
L 172.128437 156.815724 
L 172.362613 156.815724 
L 172.596788 156.815724 
L 172.830964 156.815724 
L 173.065139 156.815724 
L 173.299315 156.815724 
L 173.533491 156.815724 
L 173.767666 156.815724 
L 174.001842 156.815724 
L 174.236018 156.815724 
L 174.470193 156.815724 
L 174.704369 156.815724 
L 174.938544 156.815724 
L 175.17272 156.815724 
L 175.406896 156.815724 
L 175.641071 156.815724 
L 175.875247 156.815724 
L 176.109423 156.815724 
L 176.343598 156.815724 
L 176.577774 156.815724 
L 176.811949 156.815724 
L 177.046125 156.815724 
L 177.280301 156.815724 
L 177.514476 156.815724 
L 177.748652 156.815724 
L 177.982827 156.815724 
L 178.217003 156.815724 
L 178.451179 156.815724 
L 178.685354 156.815724 
L 178.91953 156.815724 
L 179.153706 156.815724 
L 179.387881 156.815724 
L 179.622057 156.815724 
L 179.856232 156.815724 
L 180.090408 156.815724 
L 180.324584 156.815724 
L 180.558759 156.815724 
L 180.792935 156.815724 
L 181.027111 156.815724 
L 181.261286 156.815724 
L 181.495462 156.815724 
L 181.729637 156.815724 
L 181.963813 156.815724 
L 182.197989 156.815724 
L 182.432164 156.815724 
L 182.66634 156.815724 
L 182.900516 156.815724 
L 183.134691 156.815724 
L 183.368867 156.815724 
L 183.603042 156.815724 
L 183.837218 156.815724 
L 184.071394 156.815724 
L 184.305569 156.815724 
L 184.539745 156.815724 
L 184.773921 156.815724 
L 185.008096 156.815724 
L 185.242272 156.815724 
L 185.476447 156.815724 
L 185.710623 156.815724 
L 185.944799 156.815724 
L 186.178974 156.815724 
L 186.41315 156.815724 
L 186.647326 156.815724 
L 186.881501 156.815724 
L 187.115677 156.815724 
L 187.349852 156.815724 
L 187.584028 156.815724 
L 187.818204 156.815724 
L 188.052379 156.815724 
L 188.286555 156.815724 
L 188.52073 156.815724 
L 188.754906 156.815724 
L 188.989082 156.815724 
L 189.223257 156.815724 
L 189.457433 156.815724 
L 189.691609 156.815724 
L 189.925784 156.815724 
L 190.15996 156.815724 
L 190.394135 156.815724 
L 190.628311 156.815724 
L 190.862487 156.815724 
L 191.096662 156.815724 
L 191.330838 156.815724 
L 191.565014 156.815724 
L 191.799189 156.815724 
L 192.033365 156.815724 
L 192.26754 156.815724 
L 192.501716 156.815724 
L 192.735892 156.815724 
L 192.970067 156.815724 
L 193.204243 156.815724 
L 193.438419 156.815724 
L 193.672594 156.815724 
L 193.90677 156.815724 
L 194.140945 156.815724 
L 194.375121 156.815724 
L 194.609297 156.815724 
L 194.843472 156.815724 
L 195.077648 156.815724 
L 195.311824 156.815724 
L 195.545999 156.815724 
L 195.780175 156.815724 
L 196.01435 156.815724 
L 196.01435 156.815308 
L 196.01435 156.815308 
L 195.780175 156.814508 
L 195.545999 156.812611 
L 195.311824 156.808699 
L 195.077648 156.801644 
L 194.843472 156.790418 
L 194.609297 156.774446 
L 194.375121 156.753835 
L 194.140945 156.72948 
L 193.90677 156.703129 
L 193.672594 156.6773 
L 193.438419 156.654677 
L 193.204243 156.637128 
L 192.970067 156.625169 
L 192.735892 156.618464 
L 192.501716 156.616726 
L 192.26754 156.619846 
L 192.033365 156.627146 
L 191.799189 156.636756 
L 191.565014 156.645895 
L 191.330838 156.651671 
L 191.096662 156.651529 
L 190.862487 156.643005 
L 190.628311 156.623267 
L 190.394135 156.58922 
L 190.15996 156.538554 
L 189.925784 156.471423 
L 189.691609 156.39174 
L 189.457433 156.306847 
L 189.223257 156.225073 
L 188.989082 156.152345 
L 188.754906 156.090256 
L 188.52073 156.037204 
L 188.286555 155.991576 
L 188.052379 155.953913 
L 187.818204 155.92569 
L 187.584028 155.905258 
L 187.349852 155.884211 
L 187.115677 155.847719 
L 186.881501 155.779852 
L 186.647326 155.67114 
L 186.41315 155.5234 
L 186.178974 155.348345 
L 185.944799 155.1604 
L 185.710623 154.967413 
L 185.476447 154.763929 
L 185.242272 154.530968 
L 185.008096 154.2442 
L 184.773921 153.888152 
L 184.539745 153.468608 
L 184.305569 153.013612 
L 184.071394 152.559489 
L 183.837218 152.12905 
L 183.603042 151.715478 
L 183.368867 151.281227 
L 183.134691 150.770382 
L 182.900516 150.125237 
L 182.66634 149.299194 
L 182.432164 148.263888 
L 182.197989 147.010547 
L 181.963813 145.543527 
L 181.729637 143.865929 
L 181.495462 141.9651 
L 181.261286 139.809763 
L 181.027111 137.362586 
L 180.792935 134.598598 
L 180.558759 131.513535 
L 180.324584 128.111755 
L 180.090408 124.378426 
L 179.856232 120.256588 
L 179.622057 115.65152 
L 179.387881 110.462811 
L 179.153706 104.616046 
L 178.91953 98.065871 
L 178.685354 90.777604 
L 178.451179 82.724479 
L 178.217003 73.919023 
L 177.982827 64.446849 
L 177.748652 54.453235 
L 177.514476 44.079028 
L 177.280301 33.405302 
L 177.046125 22.469301 
L 176.811949 11.343423 
L 176.577774 0.196978 
L 176.343598 -10.729591 
L 176.109423 -21.219799 
L 175.875247 -31.156153 
L 175.641071 -40.512214 
L 175.406896 -49.288995 
L 175.17272 -57.469882 
L 174.938544 -65.028259 
L 174.704369 -71.961182 
L 174.470193 -78.311986 
L 174.236018 -84.169662 
L 174.001842 -89.644039 
L 173.767666 -94.818254 
L 173.533491 -99.702584 
L 173.299315 -104.233631 
L 173.065139 -108.335419 
L 172.830964 -112.00121 
L 172.596788 -115.330121 
L 172.362613 -118.485671 
L 172.128437 -121.600046 
L 171.894261 -124.686426 
L 171.660086 -127.620353 
L 171.42591 -130.206995 
L 171.191734 -132.289797 
L 170.957559 -133.82631 
L 170.723383 -134.887081 
L 170.489208 -135.597853 
L 170.255032 -136.084624 
L 170.020856 -136.457176 
L 169.786681 -136.807323 
L 169.552505 -137.182027 
L 169.318329 -137.549805 
L 169.084154 -137.827723 
L 168.849978 -137.978206 
L 168.615803 -138.073302 
L 168.381627 -138.224786 
L 168.147451 -138.43136 
L 167.913276 -138.517039 
L 167.6791 -138.253744 
L 167.444924 -137.558971 
L 167.210749 -136.578303 
L 166.976573 -135.588253 
L 166.742398 -134.825081 
L 166.508222 -134.378213 
L 166.274046 -134.189461 
L 166.039871 -134.107873 
L 165.805695 -133.947232 
L 165.571519 -133.540626 
L 165.337344 -132.804457 
L 165.103168 -131.789518 
L 164.868993 -130.662947 
L 164.634817 -129.600258 
L 164.400641 -128.661241 
L 164.166466 -127.76998 
L 163.93229 -126.832101 
L 163.698115 -125.874009 
L 163.463939 -125.052394 
L 163.229763 -124.513294 
L 162.995588 -124.234753 
L 162.761412 -123.998628 
L 162.527236 -123.508208 
L 162.293061 -122.543233 
L 162.058885 -121.036472 
L 161.82471 -119.048 
L 161.590534 -116.698032 
L 161.356358 -114.119532 
L 161.122183 -111.43318 
L 160.888007 -108.712989 
L 160.653831 -105.936802 
L 160.419656 -102.955804 
L 160.18548 -99.515746 
L 159.951305 -95.326619 
L 159.717129 -90.15098 
L 159.482953 -83.878127 
L 159.248778 -76.554798 
L 159.014602 -68.353328 
L 158.780426 -59.490748 
L 158.546251 -50.148538 
L 158.312075 -40.438979 
L 158.0779 -30.418226 
L 157.843724 -20.110091 
L 157.609548 -9.516591 
L 157.375373 1.372533 
L 157.141197 12.549554 
L 156.907021 23.944173 
L 156.672846 35.398393 
L 156.43867 46.686556 
L 156.204495 57.572458 
L 155.970319 67.870837 
L 155.736143 77.482075 
L 155.501968 86.387612 
L 155.267792 94.614561 
L 155.033616 102.192877 
L 154.799441 109.130758 
L 154.565265 115.420424 
L 154.33109 121.064675 
L 154.096914 126.101009 
L 153.862738 130.603963 
L 153.628563 134.662889 
L 153.394387 138.349476 
L 153.160212 141.696352 
L 152.926036 144.699926 
L 152.69186 147.342177 
L 152.457685 149.612743 
L 152.223509 151.516729 
L 151.989333 153.069625 
L 151.755158 154.291307 
L 151.520982 155.207119 
L 151.286807 155.853105 
L 151.052631 156.277608 
L 150.818455 156.535849 
L 150.58428 156.680781 
L 150.350104 156.755655 
L 150.115928 156.791167 
L 149.881753 156.806563 
L 149.647577 156.812629 
L 149.413402 156.814783 
z
" clip-path="url(#pbf830fd130)" style="fill: #7e22ce; fill-opacity: 0.25; stroke: #7e22ce; stroke-width: 0.75"/>
   </g>
   <g id="patch_3">
    <path d="M 30.225229 156.815724 
L 30.225229 5.919156 
" style="fill: none; stroke: #000000; stroke-width: 0.3; stroke-linejoin: miter; stroke-linecap: square"/>
   </g>
   <g id="patch_4">
    <path d="M 30.225229 156.815724 
L 332.77403 156.815724 
" style="fill: none; stroke: #000000; stroke-width: 0.3; stroke-linejoin: miter; stroke-linecap: square"/>
   </g>
   <g id="matplotlib.axis_1">
    <g id="xtick_1">
     <g id="line2d_1">
      <defs>
       <path id="m591a7fd904" d="M 0 0 
L 0 2 
" style="stroke: #000000; stroke-width: 0.3"/>
      </defs>
      <g>
       <use xlink:href="#m591a7fd904" x="30.225229" y="156.815724" style="stroke: #000000; stroke-width: 0.3"/>
      </g>
     </g>
     <g id="text_1">
      <!-- 0 -->
      <g transform="translate(28.424019 165.690724) scale(0.065 -0.065)">
       <defs>
        <path id="Roboto-Light-30" d="M 3172 1897 
Q 3172 934 2819 435 
Q 2466 -63 1778 -63 
Q 1103 -63 743 426 
Q 384 916 375 1850 
L 375 2666 
Q 375 3625 731 4119 
Q 1088 4613 1772 4613 
Q 2447 4613 2803 4136 
Q 3159 3659 3172 2731 
L 3172 1897 
z
M 2797 2713 
Q 2797 3494 2542 3894 
Q 2288 4294 1772 4294 
Q 1266 4294 1009 3903 
Q 753 3513 747 2750 
L 747 1856 
Q 747 1078 1011 665 
Q 1275 253 1778 253 
Q 2278 253 2536 656 
Q 2794 1059 2797 1838 
L 2797 2713 
z
" transform="scale(0.015625)"/>
       </defs>
       <use xlink:href="#Roboto-Light-30"/>
      </g>
     </g>
    </g>
    <g id="xtick_2">
     <g id="line2d_2">
      <g>
       <use xlink:href="#m591a7fd904" x="68.04383" y="156.815724" style="stroke: #000000; stroke-width: 0.3"/>
      </g>
     </g>
     <g id="text_2">
      <!-- 5 -->
      <g transform="translate(66.242619 165.690724) scale(0.065 -0.065)">
       <defs>
        <path id="Roboto-Light-35" d="M 681 2331 
L 903 4550 
L 3178 4550 
L 3178 4203 
L 1225 4203 
L 1066 2666 
Q 1431 2916 1922 2916 
Q 2538 2916 2903 2516 
Q 3269 2116 3269 1450 
Q 3269 731 2912 334 
Q 2556 -63 1909 -63 
Q 1316 -63 947 268 
Q 578 600 525 1197 
L 884 1197 
Q 938 731 1200 492 
Q 1463 253 1909 253 
Q 2397 253 2645 562 
Q 2894 872 2894 1444 
Q 2894 1944 2616 2259 
Q 2338 2575 1856 2575 
Q 1591 2575 1394 2508 
Q 1197 2441 978 2247 
L 681 2331 
z
" transform="scale(0.015625)"/>
       </defs>
       <use xlink:href="#Roboto-Light-35"/>
      </g>
     </g>
    </g>
    <g id="xtick_3">
     <g id="line2d_3">
      <g>
       <use xlink:href="#m591a7fd904" x="105.86243" y="156.815724" style="stroke: #000000; stroke-width: 0.3"/>
      </g>
     </g>
     <g id="text_3">
      <!-- 10 -->
      <g transform="translate(102.260008 165.690724) scale(0.065 -0.065)">
       <defs>
        <path id="Roboto-Light-31" d="M 2169 0 
L 1794 0 
L 1794 4100 
L 556 3641 
L 556 3991 
L 2106 4566 
L 2169 4566 
L 2169 0 
z
" transform="scale(0.015625)"/>
       </defs>
       <use xlink:href="#Roboto-Light-31"/>
       <use xlink:href="#Roboto-Light-30" transform="translate(55.419922 0)"/>
      </g>
     </g>
    </g>
    <g id="xtick_4">
     <g id="line2d_4">
      <g>
       <use xlink:href="#m591a7fd904" x="143.68103" y="156.815724" style="stroke: #000000; stroke-width: 0.3"/>
      </g>
     </g>
     <g id="text_4">
      <!-- 15 -->
      <g transform="translate(140.078608 165.690724) scale(0.065 -0.065)">
       <use xlink:href="#Roboto-Light-31"/>
       <use xlink:href="#Roboto-Light-35" transform="translate(55.419922 0)"/>
      </g>
     </g>
    </g>
    <g id="xtick_5">
     <g id="line2d_5">
      <g>
       <use xlink:href="#m591a7fd904" x="181.49963" y="156.815724" style="stroke: #000000; stroke-width: 0.3"/>
      </g>
     </g>
     <g id="text_5">
      <!-- 20 -->
      <g transform="translate(177.897208 165.690724) scale(0.065 -0.065)">
       <defs>
        <path id="Roboto-Light-32" d="M 3278 0 
L 428 0 
L 428 288 
L 1988 2056 
Q 2375 2503 2525 2793 
Q 2675 3084 2675 3359 
Q 2675 3791 2422 4042 
Q 2169 4294 1725 4294 
Q 1266 4294 983 4000 
Q 700 3706 700 3238 
L 328 3238 
Q 328 3622 501 3937 
Q 675 4253 995 4433 
Q 1316 4613 1725 4613 
Q 2350 4613 2701 4284 
Q 3053 3956 3053 3391 
Q 3053 3072 2854 2694 
Q 2656 2316 2156 1750 
L 888 316 
L 3278 316 
L 3278 0 
z
" transform="scale(0.015625)"/>
       </defs>
       <use xlink:href="#Roboto-Light-32"/>
       <use xlink:href="#Roboto-Light-30" transform="translate(55.419922 0)"/>
      </g>
     </g>
    </g>
    <g id="xtick_6">
     <g id="line2d_6">
      <g>
       <use xlink:href="#m591a7fd904" x="219.31823" y="156.815724" style="stroke: #000000; stroke-width: 0.3"/>
      </g>
     </g>
     <g id="text_6">
      <!-- 25 -->
      <g transform="translate(215.715808 165.690724) scale(0.065 -0.065)">
       <use xlink:href="#Roboto-Light-32"/>
       <use xlink:href="#Roboto-Light-35" transform="translate(55.419922 0)"/>
      </g>
     </g>
    </g>
    <g id="xtick_7">
     <g id="line2d_7">
      <g>
       <use xlink:href="#m591a7fd904" x="257.13683" y="156.815724" style="stroke: #000000; stroke-width: 0.3"/>
      </g>
     </g>
     <g id="text_7">
      <!-- 30 -->
      <g transform="translate(253.534408 165.690724) scale(0.065 -0.065)">
       <defs>
        <path id="Roboto-Light-33" d="M 1259 2478 
L 1647 2478 
Q 1969 2478 2209 2592 
Q 2450 2706 2576 2904 
Q 2703 3103 2703 3363 
Q 2703 3800 2456 4047 
Q 2209 4294 1747 4294 
Q 1309 4294 1029 4036 
Q 750 3778 750 3356 
L 375 3356 
Q 375 3709 553 4001 
Q 731 4294 1047 4453 
Q 1363 4613 1747 4613 
Q 2366 4613 2722 4275 
Q 3078 3938 3078 3350 
Q 3078 3022 2870 2745 
Q 2663 2469 2300 2331 
Q 2725 2213 2944 1923 
Q 3163 1634 3163 1234 
Q 3163 650 2781 293 
Q 2400 -63 1763 -63 
Q 1356 -63 1017 100 
Q 678 263 492 555 
Q 306 847 306 1234 
L 681 1234 
Q 681 800 984 526 
Q 1288 253 1763 253 
Q 2247 253 2517 501 
Q 2788 750 2788 1222 
Q 2788 1678 2495 1918 
Q 2203 2159 1634 2159 
L 1259 2159 
L 1259 2478 
z
" transform="scale(0.015625)"/>
       </defs>
       <use xlink:href="#Roboto-Light-33"/>
       <use xlink:href="#Roboto-Light-30" transform="translate(55.419922 0)"/>
      </g>
     </g>
    </g>
    <g id="xtick_8">
     <g id="line2d_8">
      <g>
       <use xlink:href="#m591a7fd904" x="294.95543" y="156.815724" style="stroke: #000000; stroke-width: 0.3"/>
      </g>
     </g>
     <g id="text_8">
      <!-- 35 -->
      <g transform="translate(291.353008 165.690724) scale(0.065 -0.065)">
       <use xlink:href="#Roboto-Light-33"/>
       <use xlink:href="#Roboto-Light-35" transform="translate(55.419922 0)"/>
      </g>
     </g>
    </g>
    <g id="xtick_9">
     <g id="line2d_9">
      <g>
       <use xlink:href="#m591a7fd904" x="332.77403" y="156.815724" style="stroke: #000000; stroke-width: 0.3"/>
      </g>
     </g>
     <g id="text_9">
      <!-- 40 -->
      <g transform="translate(329.171608 165.690724) scale(0.065 -0.065)">
       <defs>
        <path id="Roboto-Light-34" d="M 2725 1466 
L 3434 1466 
L 3434 1150 
L 2725 1150 
L 2725 0 
L 2350 0 
L 2350 1150 
L 209 1150 
L 209 1363 
L 2316 4550 
L 2725 4550 
L 2725 1466 
z
M 669 1466 
L 2350 1466 
L 2350 4066 
L 2184 3778 
L 669 1466 
z
" transform="scale(0.015625)"/>
       </defs>
       <use xlink:href="#Roboto-Light-34"/>
       <use xlink:href="#Roboto-Light-30" transform="translate(55.419922 0)"/>
      </g>
     </g>
    </g>
    <g id="text_10">
     <!-- Exergy efficiency [%] -->
     <g transform="translate(148.3467 177.104787) scale(0.075 -0.075)">
      <defs>
       <path id="Roboto-Light-45" d="M 3088 2181 
L 959 2181 
L 959 325 
L 3406 325 
L 3406 0 
L 575 0 
L 575 4550 
L 3391 4550 
L 3391 4222 
L 959 4222 
L 959 2506 
L 3088 2506 
L 3088 2181 
z
" transform="scale(0.015625)"/>
       <path id="Roboto-Light-78" d="M 1550 2009 
L 2463 3381 
L 2906 3381 
L 1759 1722 
L 2956 0 
L 2516 0 
L 1553 1431 
L 591 0 
L 150 0 
L 1344 1722 
L 197 3381 
L 638 3381 
L 1550 2009 
z
" transform="scale(0.015625)"/>
       <path id="Roboto-Light-65" d="M 1797 -63 
Q 1366 -63 1017 150 
Q 669 363 475 742 
Q 281 1122 281 1594 
L 281 1728 
Q 281 2216 470 2606 
Q 659 2997 996 3220 
Q 1334 3444 1728 3444 
Q 2344 3444 2705 3023 
Q 3066 2603 3066 1875 
L 3066 1666 
L 653 1666 
L 653 1594 
Q 653 1019 983 636 
Q 1313 253 1813 253 
Q 2113 253 2342 362 
Q 2572 472 2759 713 
L 2994 534 
Q 2581 -63 1797 -63 
z
M 1728 3125 
Q 1306 3125 1017 2815 
Q 728 2506 666 1984 
L 2694 1984 
L 2694 2025 
Q 2678 2513 2415 2819 
Q 2153 3125 1728 3125 
z
" transform="scale(0.015625)"/>
       <path id="Roboto-Light-72" d="M 2050 3063 
Q 1931 3084 1797 3084 
Q 1447 3084 1205 2889 
Q 963 2694 859 2322 
L 859 0 
L 488 0 
L 488 3381 
L 853 3381 
L 859 2844 
Q 1156 3444 1813 3444 
Q 1969 3444 2059 3403 
L 2050 3063 
z
" transform="scale(0.015625)"/>
       <path id="Roboto-Light-67" d="M 338 1722 
Q 338 2516 689 2980 
Q 1041 3444 1644 3444 
Q 2334 3444 2694 2894 
L 2713 3381 
L 3063 3381 
L 3063 69 
Q 3063 -584 2697 -965 
Q 2331 -1347 1706 -1347 
Q 1353 -1347 1033 -1189 
Q 713 -1031 528 -769 
L 738 -544 
Q 1134 -1031 1681 -1031 
Q 2150 -1031 2412 -754 
Q 2675 -478 2684 13 
L 2684 438 
Q 2325 -63 1638 -63 
Q 1050 -63 694 406 
Q 338 875 338 1672 
L 338 1722 
z
M 716 1656 
Q 716 1009 975 636 
Q 1234 263 1706 263 
Q 2397 263 2684 881 
L 2684 2453 
Q 2553 2778 2306 2948 
Q 2059 3119 1713 3119 
Q 1241 3119 978 2748 
Q 716 2378 716 1656 
z
" transform="scale(0.015625)"/>
       <path id="Roboto-Light-79" d="M 1559 538 
L 2547 3381 
L 2950 3381 
L 1506 -575 
L 1431 -750 
Q 1153 -1366 572 -1366 
Q 438 -1366 284 -1322 
L 281 -1013 
L 475 -1031 
Q 750 -1031 920 -895 
Q 1091 -759 1209 -428 
L 1375 28 
L 100 3381 
L 509 3381 
L 1559 538 
z
" transform="scale(0.015625)"/>
       <path id="Roboto-Light-20" transform="scale(0.015625)"/>
       <path id="Roboto-Light-66" d="M 756 0 
L 756 3075 
L 197 3075 
L 197 3381 
L 756 3381 
L 756 3791 
Q 756 4309 1020 4587 
Q 1284 4866 1756 4866 
Q 1969 4866 2153 4813 
L 2125 4500 
Q 1969 4538 1784 4538 
Q 1475 4538 1303 4345 
Q 1131 4153 1131 3800 
L 1131 3381 
L 1938 3381 
L 1938 3075 
L 1131 3075 
L 1131 0 
L 756 0 
z
" transform="scale(0.015625)"/>
       <path id="Roboto-Light-69" d="M 906 0 
L 531 0 
L 531 3381 
L 906 3381 
L 906 0 
z
M 466 4359 
Q 466 4466 534 4539 
Q 603 4613 722 4613 
Q 841 4613 911 4539 
Q 981 4466 981 4359 
Q 981 4253 911 4181 
Q 841 4109 722 4109 
Q 603 4109 534 4181 
Q 466 4253 466 4359 
z
" transform="scale(0.015625)"/>
       <path id="Roboto-Light-63" d="M 1738 253 
Q 2128 253 2392 473 
Q 2656 694 2678 1044 
L 3038 1044 
Q 3022 734 2844 479 
Q 2666 225 2370 81 
Q 2075 -63 1738 -63 
Q 1072 -63 683 400 
Q 294 863 294 1644 
L 294 1756 
Q 294 2256 469 2640 
Q 644 3025 970 3234 
Q 1297 3444 1734 3444 
Q 2291 3444 2652 3112 
Q 3013 2781 3038 2241 
L 2678 2241 
Q 2653 2638 2392 2881 
Q 2131 3125 1734 3125 
Q 1228 3125 948 2759 
Q 669 2394 669 1734 
L 669 1625 
Q 669 978 948 615 
Q 1228 253 1738 253 
z
" transform="scale(0.015625)"/>
       <path id="Roboto-Light-6e" d="M 844 3381 
L 856 2803 
Q 1047 3116 1331 3280 
Q 1616 3444 1959 3444 
Q 2503 3444 2768 3137 
Q 3034 2831 3038 2219 
L 3038 0 
L 2666 0 
L 2666 2222 
Q 2663 2675 2473 2897 
Q 2284 3119 1869 3119 
Q 1522 3119 1255 2901 
Q 988 2684 859 2316 
L 859 0 
L 488 0 
L 488 3381 
L 844 3381 
z
" transform="scale(0.015625)"/>
       <path id="Roboto-Light-5b" d="M 1541 4881 
L 884 4881 
L 884 -656 
L 1541 -656 
L 1541 -975 
L 509 -975 
L 509 5200 
L 1541 5200 
L 1541 4881 
z
" transform="scale(0.015625)"/>
       <path id="Roboto-Light-25" d="M 341 3675 
Q 341 4081 592 4348 
Q 844 4616 1231 4616 
Q 1619 4616 1870 4348 
Q 2122 4081 2122 3656 
L 2122 3434 
Q 2122 3034 1873 2767 
Q 1625 2500 1238 2500 
Q 853 2500 597 2762 
Q 341 3025 341 3456 
L 341 3675 
z
M 644 3434 
Q 644 3144 805 2956 
Q 966 2769 1238 2769 
Q 1503 2769 1661 2958 
Q 1819 3147 1819 3447 
L 1819 3675 
Q 1819 3966 1656 4155 
Q 1494 4344 1231 4344 
Q 972 4344 808 4156 
Q 644 3969 644 3656 
L 644 3434 
z
M 2631 1116 
Q 2631 1522 2882 1787 
Q 3134 2053 3518 2053 
Q 3903 2053 4158 1789 
Q 4413 1525 4413 1094 
L 4413 872 
Q 4413 466 4161 200 
Q 3909 -66 3525 -66 
Q 3141 -66 2886 198 
Q 2631 463 2631 888 
L 2631 1116 
z
M 2931 872 
Q 2931 578 3092 390 
Q 3253 203 3525 203 
Q 3794 203 3951 392 
Q 4109 581 4109 888 
L 4109 1116 
Q 4109 1416 3948 1598 
Q 3788 1781 3519 1781 
Q 3256 1781 3093 1597 
Q 2931 1413 2931 1103 
L 2931 872 
z
M 1356 378 
L 1122 528 
L 3344 4084 
L 3578 3934 
L 1356 378 
z
" transform="scale(0.015625)"/>
       <path id="Roboto-Light-5d" d="M 0 5200 
L 1034 5200 
L 1034 -975 
L 0 -975 
L 0 -656 
L 659 -656 
L 659 4881 
L 0 4881 
L 0 5200 
z
" transform="scale(0.015625)"/>
      </defs>
      <use xlink:href="#Roboto-Light-45"/>
      <use xlink:href="#Roboto-Light-78" transform="translate(56.884766 0)"/>
      <use xlink:href="#Roboto-Light-65" transform="translate(105.517578 0)"/>
      <use xlink:href="#Roboto-Light-72" transform="translate(157.177734 0)"/>
      <use xlink:href="#Roboto-Light-67" transform="translate(190.820312 0)"/>
      <use xlink:href="#Roboto-Light-79" transform="translate(246.289062 0)"/>
      <use xlink:href="#Roboto-Light-20" transform="translate(293.798828 0)"/>
      <use xlink:href="#Roboto-Light-65" transform="translate(318.115234 0)"/>
      <use xlink:href="#Roboto-Light-66" transform="translate(369.775391 0)"/>
      <use xlink:href="#Roboto-Light-66" transform="translate(402.880859 0)"/>
      <use xlink:href="#Roboto-Light-69" transform="translate(435.986328 0)"/>
      <use xlink:href="#Roboto-Light-63" transform="translate(458.398438 0)"/>
      <use xlink:href="#Roboto-Light-69" transform="translate(509.912109 0)"/>
      <use xlink:href="#Roboto-Light-65" transform="translate(532.324219 0)"/>
      <use xlink:href="#Roboto-Light-6e" transform="translate(583.984375 0)"/>
      <use xlink:href="#Roboto-Light-63" transform="translate(638.916016 0)"/>
      <use xlink:href="#Roboto-Light-79" transform="translate(690.429688 0)"/>
      <use xlink:href="#Roboto-Light-20" transform="translate(737.939453 0)"/>
      <use xlink:href="#Roboto-Light-5b" transform="translate(762.255859 0)"/>
      <use xlink:href="#Roboto-Light-25" transform="translate(786.230469 0)"/>
      <use xlink:href="#Roboto-Light-5d" transform="translate(860.107422 0)"/>
     </g>
    </g>
   </g>
   <g id="matplotlib.axis_2">
    <g id="ytick_1">
     <g id="line2d_10">
      <defs>
       <path id="md9fb4d37a9" d="M 0 0 
L -2 0 
" style="stroke: #000000; stroke-width: 0.3"/>
      </defs>
      <g>
       <use xlink:href="#md9fb4d37a9" x="30.225229" y="156.815724" style="stroke: #000000; stroke-width: 0.3"/>
      </g>
     </g>
     <g id="text_11">
      <!-- 0.00 -->
      <g transform="translate(14.866089 159.253224) scale(0.065 -0.065)">
       <defs>
        <path id="Roboto-Light-2e" d="M 453 225 
Q 453 334 523 411 
Q 594 488 719 488 
Q 844 488 916 411 
Q 988 334 988 225 
Q 988 116 916 45 
Q 844 -25 719 -25 
Q 594 -25 523 45 
Q 453 116 453 225 
z
" transform="scale(0.015625)"/>
       </defs>
       <use xlink:href="#Roboto-Light-30"/>
       <use xlink:href="#Roboto-Light-2e" transform="translate(55.419922 0)"/>
       <use xlink:href="#Roboto-Light-30" transform="translate(79.296875 0)"/>
       <use xlink:href="#Roboto-Light-30" transform="translate(134.716797 0)"/>
      </g>
     </g>
    </g>
    <g id="ytick_2">
     <g id="line2d_11">
      <g>
       <use xlink:href="#md9fb4d37a9" x="30.225229" y="119.091582" style="stroke: #000000; stroke-width: 0.3"/>
      </g>
     </g>
     <g id="text_12">
      <!-- 0.05 -->
      <g transform="translate(14.866089 121.529082) scale(0.065 -0.065)">
       <use xlink:href="#Roboto-Light-30"/>
       <use xlink:href="#Roboto-Light-2e" transform="translate(55.419922 0)"/>
       <use xlink:href="#Roboto-Light-30" transform="translate(79.296875 0)"/>
       <use xlink:href="#Roboto-Light-35" transform="translate(134.716797 0)"/>
      </g>
     </g>
    </g>
    <g id="ytick_3">
     <g id="line2d_12">
      <g>
       <use xlink:href="#md9fb4d37a9" x="30.225229" y="81.36744" style="stroke: #000000; stroke-width: 0.3"/>
      </g>
     </g>
     <g id="text_13">
      <!-- 0.10 -->
      <g transform="translate(14.866089 83.80494) scale(0.065 -0.065)">
       <use xlink:href="#Roboto-Light-30"/>
       <use xlink:href="#Roboto-Light-2e" transform="translate(55.419922 0)"/>
       <use xlink:href="#Roboto-Light-31" transform="translate(79.296875 0)"/>
       <use xlink:href="#Roboto-Light-30" transform="translate(134.716797 0)"/>
      </g>
     </g>
    </g>
    <g id="ytick_4">
     <g id="line2d_13">
      <g>
       <use xlink:href="#md9fb4d37a9" x="30.225229" y="43.643298" style="stroke: #000000; stroke-width: 0.3"/>
      </g>
     </g>
     <g id="text_14">
      <!-- 0.15 -->
      <g transform="translate(14.866089 46.080798) scale(0.065 -0.065)">
       <use xlink:href="#Roboto-Light-30"/>
       <use xlink:href="#Roboto-Light-2e" transform="translate(55.419922 0)"/>
       <use xlink:href="#Roboto-Light-31" transform="translate(79.296875 0)"/>
       <use xlink:href="#Roboto-Light-35" transform="translate(134.716797 0)"/>
      </g>
     </g>
    </g>
    <g id="ytick_5">
     <g id="line2d_14">
      <g>
       <use xlink:href="#md9fb4d37a9" x="30.225229" y="5.919156" style="stroke: #000000; stroke-width: 0.3"/>
      </g>
     </g>
     <g id="text_15">
      <!-- 0.20 -->
      <g transform="translate(14.866089 8.356656) scale(0.065 -0.065)">
       <use xlink:href="#Roboto-Light-30"/>
       <use xlink:href="#Roboto-Light-2e" transform="translate(55.419922 0)"/>
       <use xlink:href="#Roboto-Light-32" transform="translate(79.296875 0)"/>
       <use xlink:href="#Roboto-Light-30" transform="translate(134.716797 0)"/>
      </g>
     </g>
    </g>
    <g id="text_16">
     <!-- Probability density -->
     <g transform="translate(9.265308 111.428964) rotate(-90) scale(0.075 -0.075)">
      <defs>
       <path id="Roboto-Light-50" d="M 959 1853 
L 959 0 
L 575 0 
L 575 4550 
L 2125 4550 
Q 2834 4550 3245 4187 
Q 3656 3825 3656 3191 
Q 3656 2550 3261 2201 
Q 2866 1853 2116 1853 
L 959 1853 
z
M 959 2178 
L 2125 2178 
Q 2684 2178 2978 2443 
Q 3272 2709 3272 3184 
Q 3272 3656 2980 3936 
Q 2688 4216 2150 4222 
L 959 4222 
L 959 2178 
z
" transform="scale(0.015625)"/>
       <path id="Roboto-Light-6f" d="M 281 1741 
Q 281 2228 470 2618 
Q 659 3009 1004 3226 
Q 1350 3444 1788 3444 
Q 2463 3444 2881 2970 
Q 3300 2497 3300 1716 
L 3300 1638 
Q 3300 1147 3111 755 
Q 2922 363 2578 150 
Q 2234 -63 1794 -63 
Q 1122 -63 701 410 
Q 281 884 281 1666 
L 281 1741 
z
M 656 1638 
Q 656 1031 970 642 
Q 1284 253 1794 253 
Q 2300 253 2614 642 
Q 2928 1031 2928 1669 
L 2928 1741 
Q 2928 2128 2784 2450 
Q 2641 2772 2381 2948 
Q 2122 3125 1788 3125 
Q 1288 3125 972 2733 
Q 656 2341 656 1706 
L 656 1638 
z
" transform="scale(0.015625)"/>
       <path id="Roboto-Light-62" d="M 3209 1656 
Q 3209 866 2859 401 
Q 2509 -63 1919 -63 
Q 1213 -63 850 463 
L 834 0 
L 484 0 
L 484 4800 
L 856 4800 
L 856 2891 
Q 1213 3444 1913 3444 
Q 2513 3444 2861 2986 
Q 3209 2528 3209 1713 
L 3209 1656 
z
M 2834 1722 
Q 2834 2391 2575 2755 
Q 2316 3119 1844 3119 
Q 1484 3119 1234 2942 
Q 984 2766 856 2425 
L 856 900 
Q 1138 263 1850 263 
Q 2313 263 2573 628 
Q 2834 994 2834 1722 
z
" transform="scale(0.015625)"/>
       <path id="Roboto-Light-61" d="M 2622 0 
Q 2566 159 2550 472 
Q 2353 216 2048 76 
Q 1744 -63 1403 -63 
Q 916 -63 614 209 
Q 313 481 313 897 
Q 313 1391 723 1678 
Q 1134 1966 1869 1966 
L 2547 1966 
L 2547 2350 
Q 2547 2713 2323 2920 
Q 2100 3128 1672 3128 
Q 1281 3128 1025 2928 
Q 769 2728 769 2447 
L 394 2450 
Q 394 2853 769 3148 
Q 1144 3444 1691 3444 
Q 2256 3444 2582 3161 
Q 2909 2878 2919 2372 
L 2919 772 
Q 2919 281 3022 38 
L 3022 0 
L 2622 0 
z
M 1447 269 
Q 1822 269 2117 450 
Q 2413 631 2547 934 
L 2547 1678 
L 1878 1678 
Q 1319 1672 1003 1473 
Q 688 1275 688 928 
Q 688 644 898 456 
Q 1109 269 1447 269 
z
" transform="scale(0.015625)"/>
       <path id="Roboto-Light-6c" d="M 906 0 
L 531 0 
L 531 4800 
L 906 4800 
L 906 0 
z
" transform="scale(0.015625)"/>
       <path id="Roboto-Light-74" d="M 1069 4247 
L 1069 3381 
L 1769 3381 
L 1769 3075 
L 1069 3075 
L 1069 822 
Q 1069 541 1170 403 
Q 1272 266 1509 266 
Q 1603 266 1813 297 
L 1828 -9 
Q 1681 -63 1428 -63 
Q 1044 -63 869 160 
Q 694 384 694 819 
L 694 3075 
L 72 3075 
L 72 3381 
L 694 3381 
L 694 4247 
L 1069 4247 
z
" transform="scale(0.015625)"/>
       <path id="Roboto-Light-64" d="M 338 1722 
Q 338 2509 689 2976 
Q 1041 3444 1644 3444 
Q 2328 3444 2688 2903 
L 2688 4800 
L 3059 4800 
L 3059 0 
L 2709 0 
L 2694 450 
Q 2334 -63 1638 -63 
Q 1053 -63 695 407 
Q 338 878 338 1678 
L 338 1722 
z
M 716 1656 
Q 716 1009 975 636 
Q 1234 263 1706 263 
Q 2397 263 2688 872 
L 2688 2459 
Q 2397 3119 1713 3119 
Q 1241 3119 978 2748 
Q 716 2378 716 1656 
z
" transform="scale(0.015625)"/>
       <path id="Roboto-Light-73" d="M 2513 859 
Q 2513 1138 2289 1306 
Q 2066 1475 1616 1570 
Q 1166 1666 917 1789 
Q 669 1913 548 2091 
Q 428 2269 428 2522 
Q 428 2922 762 3183 
Q 1097 3444 1619 3444 
Q 2184 3444 2526 3164 
Q 2869 2884 2869 2434 
L 2494 2434 
Q 2494 2731 2245 2928 
Q 1997 3125 1619 3125 
Q 1250 3125 1026 2961 
Q 803 2797 803 2534 
Q 803 2281 989 2142 
Q 1175 2003 1667 1887 
Q 2159 1772 2404 1640 
Q 2650 1509 2769 1325 
Q 2888 1141 2888 878 
Q 2888 450 2542 193 
Q 2197 -63 1641 -63 
Q 1050 -63 683 223 
Q 316 509 316 947 
L 691 947 
Q 713 619 967 436 
Q 1222 253 1641 253 
Q 2031 253 2272 425 
Q 2513 597 2513 859 
z
" transform="scale(0.015625)"/>
      </defs>
      <use xlink:href="#Roboto-Light-50"/>
      <use xlink:href="#Roboto-Light-72" transform="translate(61.572266 0)"/>
      <use xlink:href="#Roboto-Light-6f" transform="translate(95.214844 0)"/>
      <use xlink:href="#Roboto-Light-62" transform="translate(151.220703 0)"/>
      <use xlink:href="#Roboto-Light-61" transform="translate(206.640625 0)"/>
      <use xlink:href="#Roboto-Light-62" transform="translate(260.205078 0)"/>
      <use xlink:href="#Roboto-Light-69" transform="translate(315.625 0)"/>
      <use xlink:href="#Roboto-Light-6c" transform="translate(338.037109 0)"/>
      <use xlink:href="#Roboto-Light-69" transform="translate(360.449219 0)"/>
      <use xlink:href="#Roboto-Light-74" transform="translate(382.861328 0)"/>
      <use xlink:href="#Roboto-Light-79" transform="translate(414.990234 0)"/>
      <use xlink:href="#Roboto-Light-20" transform="translate(462.5 0)"/>
      <use xlink:href="#Roboto-Light-64" transform="translate(486.816406 0)"/>
      <use xlink:href="#Roboto-Light-65" transform="translate(542.382812 0)"/>
      <use xlink:href="#Roboto-Light-6e" transform="translate(594.042969 0)"/>
      <use xlink:href="#Roboto-Light-73" transform="translate(648.974609 0)"/>
      <use xlink:href="#Roboto-Light-69" transform="translate(699.609375 0)"/>
      <use xlink:href="#Roboto-Light-74" transform="translate(722.021484 0)"/>
      <use xlink:href="#Roboto-Light-79" transform="translate(754.150391 0)"/>
     </g>
    </g>
   </g>
   <g id="legend_1">
    <g id="patch_5">
     <path d="M 246.289655 13.419156 
L 258.289655 13.419156 
L 258.289655 9.219156 
L 246.289655 9.219156 
z
" style="fill: #1d4ed8; fill-opacity: 0.25; stroke: #1d4ed8; stroke-width: 0.75; stroke-linejoin: miter"/>
    </g>
    <g id="text_17">
     <!-- Air source heat pump -->
     <g transform="translate(261.289655 13.419156) scale(0.06 -0.06)">
      <defs>
       <path id="Roboto-Light-41" d="M 3031 1275 
L 966 1275 
L 497 0 
L 94 0 
L 1816 4550 
L 2181 4550 
L 3903 0 
L 3503 0 
L 3031 1275 
z
M 1084 1603 
L 2909 1603 
L 1997 4081 
L 1084 1603 
z
" transform="scale(0.015625)"/>
       <path id="Roboto-Light-75" d="M 2663 428 
Q 2325 -63 1584 -63 
Q 1044 -63 762 251 
Q 481 566 475 1181 
L 475 3381 
L 847 3381 
L 847 1228 
Q 847 263 1628 263 
Q 2441 263 2656 934 
L 2656 3381 
L 3031 3381 
L 3031 0 
L 2669 0 
L 2663 428 
z
" transform="scale(0.015625)"/>
       <path id="Roboto-Light-68" d="M 859 2809 
Q 1044 3113 1331 3278 
Q 1619 3444 1959 3444 
Q 2503 3444 2768 3137 
Q 3034 2831 3038 2219 
L 3038 0 
L 2666 0 
L 2666 2222 
Q 2663 2675 2473 2897 
Q 2284 3119 1869 3119 
Q 1522 3119 1255 2901 
Q 988 2684 859 2316 
L 859 0 
L 488 0 
L 488 4800 
L 859 4800 
L 859 2809 
z
" transform="scale(0.015625)"/>
       <path id="Roboto-Light-70" d="M 3206 1656 
Q 3206 866 2856 401 
Q 2506 -63 1919 -63 
Q 1225 -63 856 425 
L 856 -1300 
L 484 -1300 
L 484 3381 
L 831 3381 
L 850 2903 
Q 1216 3444 1909 3444 
Q 2516 3444 2861 2984 
Q 3206 2525 3206 1709 
L 3206 1656 
z
M 2831 1722 
Q 2831 2369 2565 2744 
Q 2300 3119 1825 3119 
Q 1481 3119 1234 2953 
Q 988 2788 856 2472 
L 856 850 
Q 991 559 1241 406 
Q 1491 253 1831 253 
Q 2303 253 2567 629 
Q 2831 1006 2831 1722 
z
" transform="scale(0.015625)"/>
       <path id="Roboto-Light-6d" d="M 828 3381 
L 841 2831 
Q 1028 3138 1309 3291 
Q 1591 3444 1934 3444 
Q 2734 3444 2950 2788 
Q 3131 3103 3434 3273 
Q 3738 3444 4103 3444 
Q 5191 3444 5213 2256 
L 5213 0 
L 4838 0 
L 4838 2228 
Q 4834 2681 4642 2900 
Q 4450 3119 4016 3119 
Q 3613 3113 3334 2858 
Q 3056 2603 3025 2238 
L 3025 0 
L 2650 0 
L 2650 2256 
Q 2647 2691 2445 2905 
Q 2244 3119 1825 3119 
Q 1472 3119 1219 2917 
Q 966 2716 844 2319 
L 844 0 
L 469 0 
L 469 3381 
L 828 3381 
z
" transform="scale(0.015625)"/>
      </defs>
      <use xlink:href="#Roboto-Light-41"/>
      <use xlink:href="#Roboto-Light-69" transform="translate(62.451172 0)"/>
      <use xlink:href="#Roboto-Light-72" transform="translate(84.863281 0)"/>
      <use xlink:href="#Roboto-Light-20" transform="translate(118.505859 0)"/>
      <use xlink:href="#Roboto-Light-73" transform="translate(142.822266 0)"/>
      <use xlink:href="#Roboto-Light-6f" transform="translate(193.457031 0)"/>
      <use xlink:href="#Roboto-Light-75" transform="translate(249.462891 0)"/>
      <use xlink:href="#Roboto-Light-72" transform="translate(304.394531 0)"/>
      <use xlink:href="#Roboto-Light-63" transform="translate(338.037109 0)"/>
      <use xlink:href="#Roboto-Light-65" transform="translate(389.550781 0)"/>
      <use xlink:href="#Roboto-Light-20" transform="translate(441.210938 0)"/>
      <use xlink:href="#Roboto-Light-68" transform="translate(465.527344 0)"/>
      <use xlink:href="#Roboto-Light-65" transform="translate(520.410156 0)"/>
      <use xlink:href="#Roboto-Light-61" transform="translate(572.070312 0)"/>
      <use xlink:href="#Roboto-Light-74" transform="translate(625.634766 0)"/>
      <use xlink:href="#Roboto-Light-20" transform="translate(657.763672 0)"/>
      <use xlink:href="#Roboto-Light-70" transform="translate(682.080078 0)"/>
      <use xlink:href="#Roboto-Light-75" transform="translate(737.5 0)"/>
      <use xlink:href="#Roboto-Light-6d" transform="translate(792.431641 0)"/>
      <use xlink:href="#Roboto-Light-70" transform="translate(881.054688 0)"/>
     </g>
    </g>
    <g id="patch_6">
     <path d="M 246.289655 22.737906 
L 258.289655 22.737906 
L 258.289655 18.537906 
L 246.289655 18.537906 
z
" style="fill: #7e22ce; fill-opacity: 0.25; stroke: #7e22ce; stroke-width: 0.75; stroke-linejoin: miter"/>
    </g>
    <g id="text_18">
     <!-- Ground source heat pump -->
     <g transform="translate(261.289655 22.737906) scale(0.06 -0.06)">
      <defs>
       <path id="Roboto-Light-47" d="M 3859 541 
Q 3659 256 3232 96 
Q 2806 -63 2278 -63 
Q 1744 -63 1328 193 
Q 913 450 684 919 
Q 456 1388 453 1994 
L 453 2569 
Q 453 3516 931 4064 
Q 1409 4613 2216 4613 
Q 2919 4613 3347 4255 
Q 3775 3897 3856 3269 
L 3472 3269 
Q 3388 3769 3064 4026 
Q 2741 4284 2219 4284 
Q 1581 4284 1209 3831 
Q 838 3378 838 2553 
L 838 2016 
Q 838 1497 1014 1098 
Q 1191 700 1520 481 
Q 1850 263 2278 263 
Q 2775 263 3131 419 
Q 3363 522 3475 659 
L 3475 1834 
L 2253 1834 
L 2253 2159 
L 3859 2159 
L 3859 541 
z
" transform="scale(0.015625)"/>
      </defs>
      <use xlink:href="#Roboto-Light-47"/>
      <use xlink:href="#Roboto-Light-72" transform="translate(68.359375 0)"/>
      <use xlink:href="#Roboto-Light-6f" transform="translate(102.001953 0)"/>
      <use xlink:href="#Roboto-Light-75" transform="translate(158.007812 0)"/>
      <use xlink:href="#Roboto-Light-6e" transform="translate(212.939453 0)"/>
      <use xlink:href="#Roboto-Light-64" transform="translate(267.871094 0)"/>
      <use xlink:href="#Roboto-Light-20" transform="translate(323.4375 0)"/>
      <use xlink:href="#Roboto-Light-73" transform="translate(347.753906 0)"/>
      <use xlink:href="#Roboto-Light-6f" transform="translate(398.388672 0)"/>
      <use xlink:href="#Roboto-Light-75" transform="translate(454.394531 0)"/>
      <use xlink:href="#Roboto-Light-72" transform="translate(509.326172 0)"/>
      <use xlink:href="#Roboto-Light-63" transform="translate(542.96875 0)"/>
      <use xlink:href="#Roboto-Light-65" transform="translate(594.482422 0)"/>
      <use xlink:href="#Roboto-Light-20" transform="translate(646.142578 0)"/>
      <use xlink:href="#Roboto-Light-68" transform="translate(670.458984 0)"/>
      <use xlink:href="#Roboto-Light-65" transform="translate(725.341797 0)"/>
      <use xlink:href="#Roboto-Light-61" transform="translate(777.001953 0)"/>
      <use xlink:href="#Roboto-Light-74" transform="translate(830.566406 0)"/>
      <use xlink:href="#Roboto-Light-20" transform="translate(862.695312 0)"/>
      <use xlink:href="#Roboto-Light-70" transform="translate(887.011719 0)"/>
      <use xlink:href="#Roboto-Light-75" transform="translate(942.431641 0)"/>
      <use xlink:href="#Roboto-Light-6d" transform="translate(997.363281 0)"/>
      <use xlink:href="#Roboto-Light-70" transform="translate(1085.986328 0)"/>
     </g>
    </g>
   </g>
  </g>
 </g>
 <defs>
  <clipPath id="pbf830fd130">
   <rect x="30.225229" y="5.919156" width="302.548801" height="150.896568"/>
  </clipPath>
 </defs>
</svg>
