<?xml version="1.0" encoding="utf-8" standalone="no"?>
<!DOCTYPE svg PUBLIC "-//W3C//DTD SVG 1.1//EN"
  "http://www.w3.org/Graphics/SVG/1.1/DTD/svg11.dtd">
<svg xmlns:xlink="http://www.w3.org/1999/xlink" width="340.15748pt" height="184.251969pt" viewBox="0 0 340.15748 184.251969" xmlns="http://www.w3.org/2000/svg" version="1.1">
 <metadata>
  <rdf:RDF xmlns:dc="http://purl.org/dc/elements/1.1/" xmlns:cc="http://creativecommons.org/ns#" xmlns:rdf="http://www.w3.org/1999/02/22-rdf-syntax-ns#">
   <cc:Work>
    <dc:type rdf:resource="http://purl.org/dc/dcmitype/StillImage"/>
    <dc:date>2025-07-17T16:52:32.705354</dc:date>
    <dc:format>image/svg+xml</dc:format>
    <dc:creator>
     <cc:Agent>
      <dc:title>Matplotlib v3.10.3, https://matplotlib.org/</dc:title>
     </cc:Agent>
    </dc:creator>
   </cc:Work>
  </rdf:RDF>
 </metadata>
 <defs>
  <style type="text/css">*{stroke-linejoin: round; stroke-linecap: butt}</style>
 </defs>
 <g id="figure_1">
  <g id="patch_1">
   <path d="M 0 184.251969 
L 340.15748 184.251969 
L 340.15748 0 
L 0 0 
L 0 184.251969 
z
" style="fill: none"/>
  </g>
  <g id="axes_1">
   <g id="patch_2">
    <path d="M 26.630226 156.83674 
L 332.812959 156.83674 
L 332.812959 5.954849 
L 26.630226 5.954849 
L 26.630226 156.83674 
z
" style="fill: none"/>
   </g>
   <g id="FillBetweenPolyCollection_1">
    <defs>
     <path id="m040c0b94f9" d="M 62.153597 -27.416078 
L 62.153597 -27.415228 
L 62.291128 -27.415228 
L 62.428658 -27.415228 
L 62.566189 -27.415228 
L 62.70372 -27.415228 
L 62.841251 -27.415228 
L 62.978782 -27.415228 
L 63.116313 -27.415228 
L 63.253844 -27.415228 
L 63.391375 -27.415228 
L 63.528906 -27.415228 
L 63.666437 -27.415228 
L 63.803968 -27.415228 
L 63.941499 -27.415228 
L 64.07903 -27.415228 
L 64.216561 -27.415228 
L 64.354092 -27.415228 
L 64.491623 -27.415228 
L 64.629154 -27.415228 
L 64.766685 -27.415228 
L 64.904216 -27.415228 
L 65.041747 -27.415228 
L 65.179278 -27.415228 
L 65.316809 -27.415228 
L 65.45434 -27.415228 
L 65.591871 -27.415228 
L 65.729402 -27.415228 
L 65.866933 -27.415228 
L 66.004464 -27.415228 
L 66.141995 -27.415228 
L 66.279526 -27.415228 
L 66.417057 -27.415228 
L 66.554588 -27.415228 
L 66.692119 -27.415228 
L 66.82965 -27.415228 
L 66.967181 -27.415228 
L 67.104712 -27.415228 
L 67.242243 -27.415228 
L 67.379774 -27.415228 
L 67.517305 -27.415228 
L 67.654836 -27.415228 
L 67.792367 -27.415228 
L 67.929897 -27.415228 
L 68.067428 -27.415228 
L 68.204959 -27.415228 
L 68.34249 -27.415228 
L 68.480021 -27.415228 
L 68.617552 -27.415228 
L 68.755083 -27.415228 
L 68.892614 -27.415228 
L 69.030145 -27.415228 
L 69.167676 -27.415228 
L 69.305207 -27.415228 
L 69.442738 -27.415228 
L 69.580269 -27.415228 
L 69.7178 -27.415228 
L 69.855331 -27.415228 
L 69.992862 -27.415228 
L 70.130393 -27.415228 
L 70.267924 -27.415228 
L 70.405455 -27.415228 
L 70.542986 -27.415228 
L 70.680517 -27.415228 
L 70.818048 -27.415228 
L 70.955579 -27.415228 
L 71.09311 -27.415228 
L 71.230641 -27.415228 
L 71.368172 -27.415228 
L 71.505703 -27.415228 
L 71.643234 -27.415228 
L 71.780765 -27.415228 
L 71.918296 -27.415228 
L 72.055827 -27.415228 
L 72.193358 -27.415228 
L 72.330889 -27.415228 
L 72.46842 -27.415228 
L 72.605951 -27.415228 
L 72.743482 -27.415228 
L 72.881013 -27.415228 
L 73.018544 -27.415228 
L 73.156075 -27.415228 
L 73.293606 -27.415228 
L 73.431136 -27.415228 
L 73.568667 -27.415228 
L 73.706198 -27.415228 
L 73.843729 -27.415228 
L 73.98126 -27.415228 
L 74.118791 -27.415228 
L 74.256322 -27.415228 
L 74.393853 -27.415228 
L 74.531384 -27.415228 
L 74.668915 -27.415228 
L 74.806446 -27.415228 
L 74.943977 -27.415228 
L 75.081508 -27.415228 
L 75.219039 -27.415228 
L 75.35657 -27.415228 
L 75.494101 -27.415228 
L 75.631632 -27.415228 
L 75.769163 -27.415228 
L 75.906694 -27.415228 
L 76.044225 -27.415228 
L 76.181756 -27.415228 
L 76.319287 -27.415228 
L 76.456818 -27.415228 
L 76.594349 -27.415228 
L 76.73188 -27.415228 
L 76.869411 -27.415228 
L 77.006942 -27.415228 
L 77.144473 -27.415228 
L 77.282004 -27.415228 
L 77.419535 -27.415228 
L 77.557066 -27.415228 
L 77.694597 -27.415228 
L 77.832128 -27.415228 
L 77.969659 -27.415228 
L 78.10719 -27.415228 
L 78.244721 -27.415228 
L 78.382252 -27.415228 
L 78.519783 -27.415228 
L 78.657314 -27.415228 
L 78.794845 -27.415228 
L 78.932375 -27.415228 
L 79.069906 -27.415228 
L 79.207437 -27.415228 
L 79.344968 -27.415228 
L 79.482499 -27.415228 
L 79.62003 -27.415228 
L 79.757561 -27.415228 
L 79.895092 -27.415228 
L 80.032623 -27.415228 
L 80.170154 -27.415228 
L 80.307685 -27.415228 
L 80.445216 -27.415228 
L 80.582747 -27.415228 
L 80.720278 -27.415228 
L 80.857809 -27.415228 
L 80.99534 -27.415228 
L 81.132871 -27.415228 
L 81.270402 -27.415228 
L 81.407933 -27.415228 
L 81.545464 -27.415228 
L 81.682995 -27.415228 
L 81.820526 -27.415228 
L 81.958057 -27.415228 
L 82.095588 -27.415228 
L 82.233119 -27.415228 
L 82.37065 -27.415228 
L 82.508181 -27.415228 
L 82.645712 -27.415228 
L 82.783243 -27.415228 
L 82.920774 -27.415228 
L 83.058305 -27.415228 
L 83.195836 -27.415228 
L 83.333367 -27.415228 
L 83.470898 -27.415228 
L 83.608429 -27.415228 
L 83.74596 -27.415228 
L 83.883491 -27.415228 
L 84.021022 -27.415228 
L 84.158553 -27.415228 
L 84.296084 -27.415228 
L 84.433614 -27.415228 
L 84.571145 -27.415228 
L 84.708676 -27.415228 
L 84.846207 -27.415228 
L 84.983738 -27.415228 
L 85.121269 -27.415228 
L 85.2588 -27.415228 
L 85.396331 -27.415228 
L 85.533862 -27.415228 
L 85.671393 -27.415228 
L 85.808924 -27.415228 
L 85.946455 -27.415228 
L 86.083986 -27.415228 
L 86.221517 -27.415228 
L 86.359048 -27.415228 
L 86.496579 -27.415228 
L 86.63411 -27.415228 
L 86.771641 -27.415228 
L 86.909172 -27.415228 
L 87.046703 -27.415228 
L 87.184234 -27.415228 
L 87.321765 -27.415228 
L 87.459296 -27.415228 
L 87.596827 -27.415228 
L 87.734358 -27.415228 
L 87.871889 -27.415228 
L 88.00942 -27.415228 
L 88.146951 -27.415228 
L 88.284482 -27.415228 
L 88.422013 -27.415228 
L 88.559544 -27.415228 
L 88.697075 -27.415228 
L 88.834606 -27.415228 
L 88.972137 -27.415228 
L 89.109668 -27.415228 
L 89.247199 -27.415228 
L 89.38473 -27.415228 
L 89.522261 -27.415228 
L 89.522261 -27.435565 
L 89.522261 -27.435565 
L 89.38473 -27.457762 
L 89.247199 -27.500555 
L 89.109668 -27.579479 
L 88.972137 -27.718759 
L 88.834606 -27.953984 
L 88.697075 -28.334252 
L 88.559544 -28.922856 
L 88.422013 -29.795445 
L 88.284482 -31.034832 
L 88.146951 -32.72215 
L 88.00942 -34.92507 
L 87.871889 -37.684853 
L 87.734358 -41.004868 
L 87.596827 -44.843449 
L 87.459296 -49.113353 
L 87.321765 -53.68868 
L 87.184234 -58.418303 
L 87.046703 -63.143234 
L 86.909172 -67.714479 
L 86.771641 -72.007952 
L 86.63411 -75.934068 
L 86.496579 -79.441066 
L 86.359048 -82.512601 
L 86.221517 -85.161213 
L 86.083986 -87.419695 
L 85.946455 -89.332333 
L 85.808924 -90.947432 
L 85.671393 -92.311931 
L 85.533862 -93.468237 
L 85.396331 -94.452919 
L 85.2588 -95.296605 
L 85.121269 -96.024419 
L 84.983738 -96.656452 
L 84.846207 -97.208069 
L 84.708676 -97.690146 
L 84.571145 -98.109483 
L 84.433614 -98.469648 
L 84.296084 -98.77229 
L 84.158553 -99.018775 
L 84.021022 -99.211773 
L 83.883491 -99.356382 
L 83.74596 -99.460479 
L 83.608429 -99.534202 
L 83.470898 -99.588697 
L 83.333367 -99.634501 
L 83.195836 -99.67997 
L 83.058305 -99.73015 
L 82.920774 -99.786351 
L 82.783243 -99.846475 
L 82.645712 -99.905972 
L 82.508181 -99.959204 
L 82.37065 -100.000894 
L 82.233119 -100.027386 
L 82.095588 -100.037501 
L 81.958057 -100.032839 
L 81.820526 -100.017506 
L 81.682995 -99.99734 
L 81.545464 -99.978784 
L 81.407933 -99.967685 
L 81.270402 -99.968256 
L 81.132871 -99.982461 
L 80.99534 -100.009917 
L 80.857809 -100.048281 
L 80.720278 -100.093961 
L 80.582747 -100.142893 
L 80.445216 -100.19119 
L 80.307685 -100.235554 
L 80.170154 -100.27349 
L 80.032623 -100.303436 
L 79.895092 -100.324912 
L 79.757561 -100.338712 
L 79.62003 -100.347021 
L 79.482499 -100.353292 
L 79.344968 -100.361727 
L 79.207437 -100.376377 
L 79.069906 -100.400043 
L 78.932375 -100.433319 
L 78.794845 -100.474146 
L 78.657314 -100.518111 
L 78.519783 -100.559498 
L 78.382252 -100.592801 
L 78.244721 -100.614263 
L 78.10719 -100.622931 
L 77.969659 -100.620917 
L 77.832128 -100.612786 
L 77.694597 -100.604307 
L 77.557066 -100.600983 
L 77.419535 -100.606817 
L 77.282004 -100.62363 
L 77.144473 -100.651011 
L 77.006942 -100.686788 
L 76.869411 -100.727759 
L 76.73188 -100.770459 
L 76.594349 -100.811784 
L 76.456818 -100.849443 
L 76.319287 -100.882212 
L 76.181756 -100.910024 
L 76.044225 -100.933884 
L 75.906694 -100.95559 
L 75.769163 -100.977308 
L 75.631632 -101.001057 
L 75.494101 -101.028229 
L 75.35657 -101.059269 
L 75.219039 -101.093563 
L 75.081508 -101.129552 
L 74.943977 -101.165029 
L 74.806446 -101.197539 
L 74.668915 -101.224821 
L 74.531384 -101.245224 
L 74.393853 -101.25805 
L 74.256322 -101.263758 
L 74.118791 -101.263992 
L 73.98126 -101.261397 
L 73.843729 -101.259257 
L 73.706198 -101.26098 
L 73.568667 -101.269533 
L 73.431136 -101.286903 
L 73.293606 -101.313674 
L 73.156075 -101.34882 
L 73.018544 -101.389788 
L 72.881013 -101.432929 
L 72.743482 -101.474249 
L 72.605951 -101.51037 
L 72.46842 -101.539454 
L 72.330889 -101.561781 
L 72.193358 -101.57974 
L 72.055827 -101.597113 
L 71.918296 -101.617823 
L 71.780765 -101.644526 
L 71.643234 -101.677534 
L 71.505703 -101.7145 
L 71.368172 -101.750999 
L 71.230641 -101.781852 
L 71.09311 -101.802733 
L 70.955579 -101.811543 
L 70.818048 -101.809103 
L 70.680517 -101.799 
L 70.542986 -101.786698 
L 70.405455 -101.778219 
L 70.267924 -101.778805 
L 70.130393 -101.791893 
L 69.992862 -101.818612 
L 69.855331 -101.857831 
L 69.7178 -101.906677 
L 69.580269 -101.961303 
L 69.442738 -102.017677 
L 69.305207 -102.072201 
L 69.167676 -102.12204 
L 69.030145 -102.165178 
L 68.892614 -102.2003 
L 68.755083 -102.226594 
L 68.617552 -102.24349 
L 68.480021 -102.250191 
L 68.34249 -102.244752 
L 68.204959 -102.222403 
L 68.067428 -102.172965 
L 67.929897 -102.077441 
L 67.792367 -101.904192 
L 67.654836 -101.605486 
L 67.517305 -101.115466 
L 67.379774 -100.350744 
L 67.242243 -99.214706 
L 67.104712 -97.606146 
L 66.967181 -95.431986 
L 66.82965 -92.622694 
L 66.692119 -89.147807 
L 66.554588 -85.028232 
L 66.417057 -80.34198 
L 66.279526 -75.221094 
L 66.141995 -69.839402 
L 66.004464 -64.392986 
L 65.866933 -59.077117 
L 65.729402 -54.064248 
L 65.591871 -49.48723 
L 65.45434 -45.430382 
L 65.316809 -41.92898 
L 65.179278 -38.975818 
L 65.041747 -36.532201 
L 64.904216 -34.540406 
L 64.766685 -32.935061 
L 64.629154 -31.651807 
L 64.491623 -30.632677 
L 64.354092 -29.828441 
L 64.216561 -29.198714 
L 64.07903 -28.710781 
L 63.941499 -28.337959 
L 63.803968 -28.058083 
L 63.666437 -27.852398 
L 63.528906 -27.704877 
L 63.391375 -27.601897 
L 63.253844 -27.53208 
L 63.116313 -27.486189 
L 62.978782 -27.456986 
L 62.841251 -27.439016 
L 62.70372 -27.428334 
L 62.566189 -27.422206 
L 62.428658 -27.418815 
L 62.291128 -27.417007 
L 62.153597 -27.416078 
z
" style="stroke: #c2410c; stroke-width: 0.75"/>
    </defs>
    <g clip-path="url(#p58f27f78e8)">
     <use xlink:href="#m040c0b94f9" x="0" y="184.251969" style="fill: #c2410c; fill-opacity: 0.25; stroke: #c2410c; stroke-width: 0.75"/>
    </g>
   </g>
   <g id="FillBetweenPolyCollection_2">
    <defs>
     <path id="mefee69dd80" d="M 57.432446 -27.415568 
L 57.432446 -27.415228 
L 57.599125 -27.415228 
L 57.765804 -27.415228 
L 57.932483 -27.415228 
L 58.099162 -27.415228 
L 58.265841 -27.415228 
L 58.432519 -27.415228 
L 58.599198 -27.415228 
L 58.765877 -27.415228 
L 58.932556 -27.415228 
L 59.099235 -27.415228 
L 59.265914 -27.415228 
L 59.432593 -27.415228 
L 59.599272 -27.415228 
L 59.765951 -27.415228 
L 59.93263 -27.415228 
L 60.099309 -27.415228 
L 60.265988 -27.415228 
L 60.432667 -27.415228 
L 60.599345 -27.415228 
L 60.766024 -27.415228 
L 60.932703 -27.415228 
L 61.099382 -27.415228 
L 61.266061 -27.415228 
L 61.43274 -27.415228 
L 61.599419 -27.415228 
L 61.766098 -27.415228 
L 61.932777 -27.415228 
L 62.099456 -27.415228 
L 62.266135 -27.415228 
L 62.432814 -27.415228 
L 62.599492 -27.415228 
L 62.766171 -27.415228 
L 62.93285 -27.415228 
L 63.099529 -27.415228 
L 63.266208 -27.415228 
L 63.432887 -27.415228 
L 63.599566 -27.415228 
L 63.766245 -27.415228 
L 63.932924 -27.415228 
L 64.099603 -27.415228 
L 64.266282 -27.415228 
L 64.432961 -27.415228 
L 64.599639 -27.415228 
L 64.766318 -27.415228 
L 64.932997 -27.415228 
L 65.099676 -27.415228 
L 65.266355 -27.415228 
L 65.433034 -27.415228 
L 65.599713 -27.415228 
L 65.766392 -27.415228 
L 65.933071 -27.415228 
L 66.09975 -27.415228 
L 66.266429 -27.415228 
L 66.433108 -27.415228 
L 66.599786 -27.415228 
L 66.766465 -27.415228 
L 66.933144 -27.415228 
L 67.099823 -27.415228 
L 67.266502 -27.415228 
L 67.433181 -27.415228 
L 67.59986 -27.415228 
L 67.766539 -27.415228 
L 67.933218 -27.415228 
L 68.099897 -27.415228 
L 68.266576 -27.415228 
L 68.433255 -27.415228 
L 68.599933 -27.415228 
L 68.766612 -27.415228 
L 68.933291 -27.415228 
L 69.09997 -27.415228 
L 69.266649 -27.415228 
L 69.433328 -27.415228 
L 69.600007 -27.415228 
L 69.766686 -27.415228 
L 69.933365 -27.415228 
L 70.100044 -27.415228 
L 70.266723 -27.415228 
L 70.433402 -27.415228 
L 70.60008 -27.415228 
L 70.766759 -27.415228 
L 70.933438 -27.415228 
L 71.100117 -27.415228 
L 71.266796 -27.415228 
L 71.433475 -27.415228 
L 71.600154 -27.415228 
L 71.766833 -27.415228 
L 71.933512 -27.415228 
L 72.100191 -27.415228 
L 72.26687 -27.415228 
L 72.433549 -27.415228 
L 72.600227 -27.415228 
L 72.766906 -27.415228 
L 72.933585 -27.415228 
L 73.100264 -27.415228 
L 73.266943 -27.415228 
L 73.433622 -27.415228 
L 73.600301 -27.415228 
L 73.76698 -27.415228 
L 73.933659 -27.415228 
L 74.100338 -27.415228 
L 74.267017 -27.415228 
L 74.433696 -27.415228 
L 74.600374 -27.415228 
L 74.767053 -27.415228 
L 74.933732 -27.415228 
L 75.100411 -27.415228 
L 75.26709 -27.415228 
L 75.433769 -27.415228 
L 75.600448 -27.415228 
L 75.767127 -27.415228 
L 75.933806 -27.415228 
L 76.100485 -27.415228 
L 76.267164 -27.415228 
L 76.433843 -27.415228 
L 76.600521 -27.415228 
L 76.7672 -27.415228 
L 76.933879 -27.415228 
L 77.100558 -27.415228 
L 77.267237 -27.415228 
L 77.433916 -27.415228 
L 77.600595 -27.415228 
L 77.767274 -27.415228 
L 77.933953 -27.415228 
L 78.100632 -27.415228 
L 78.267311 -27.415228 
L 78.43399 -27.415228 
L 78.600668 -27.415228 
L 78.767347 -27.415228 
L 78.934026 -27.415228 
L 79.100705 -27.415228 
L 79.267384 -27.415228 
L 79.434063 -27.415228 
L 79.600742 -27.415228 
L 79.767421 -27.415228 
L 79.9341 -27.415228 
L 80.100779 -27.415228 
L 80.267458 -27.415228 
L 80.434137 -27.415228 
L 80.600815 -27.415228 
L 80.767494 -27.415228 
L 80.934173 -27.415228 
L 81.100852 -27.415228 
L 81.267531 -27.415228 
L 81.43421 -27.415228 
L 81.600889 -27.415228 
L 81.767568 -27.415228 
L 81.934247 -27.415228 
L 82.100926 -27.415228 
L 82.267605 -27.415228 
L 82.434284 -27.415228 
L 82.600963 -27.415228 
L 82.767641 -27.415228 
L 82.93432 -27.415228 
L 83.100999 -27.415228 
L 83.267678 -27.415228 
L 83.434357 -27.415228 
L 83.601036 -27.415228 
L 83.767715 -27.415228 
L 83.934394 -27.415228 
L 84.101073 -27.415228 
L 84.267752 -27.415228 
L 84.434431 -27.415228 
L 84.60111 -27.415228 
L 84.767788 -27.415228 
L 84.934467 -27.415228 
L 85.101146 -27.415228 
L 85.267825 -27.415228 
L 85.434504 -27.415228 
L 85.601183 -27.415228 
L 85.767862 -27.415228 
L 85.934541 -27.415228 
L 86.10122 -27.415228 
L 86.267899 -27.415228 
L 86.434578 -27.415228 
L 86.601257 -27.415228 
L 86.767935 -27.415228 
L 86.934614 -27.415228 
L 87.101293 -27.415228 
L 87.267972 -27.415228 
L 87.434651 -27.415228 
L 87.60133 -27.415228 
L 87.768009 -27.415228 
L 87.934688 -27.415228 
L 88.101367 -27.415228 
L 88.268046 -27.415228 
L 88.434725 -27.415228 
L 88.601404 -27.415228 
L 88.768082 -27.415228 
L 88.934761 -27.415228 
L 89.10144 -27.415228 
L 89.268119 -27.415228 
L 89.434798 -27.415228 
L 89.601477 -27.415228 
L 89.768156 -27.415228 
L 89.934835 -27.415228 
L 90.101514 -27.415228 
L 90.268193 -27.415228 
L 90.434872 -27.415228 
L 90.601551 -27.415228 
L 90.601551 -27.416069 
L 90.601551 -27.416069 
L 90.434872 -27.417328 
L 90.268193 -27.420176 
L 90.101514 -27.426243 
L 89.934835 -27.438416 
L 89.768156 -27.461437 
L 89.601477 -27.502494 
L 89.434798 -27.571603 
L 89.268119 -27.681478 
L 89.10144 -27.846688 
L 88.934761 -28.082046 
L 88.768082 -28.400542 
L 88.601404 -28.811449 
L 88.434725 -29.319298 
L 88.268046 -29.924133 
L 88.101367 -30.622848 
L 87.934688 -31.410798 
L 87.768009 -32.282696 
L 87.60133 -33.232223 
L 87.434651 -34.250634 
L 87.267972 -35.325371 
L 87.101293 -36.43989 
L 86.934614 -37.575332 
L 86.767935 -38.713737 
L 86.601257 -39.841624 
L 86.434578 -40.952557 
L 86.267899 -42.047794 
L 86.10122 -43.135074 
L 85.934541 -44.226431 
L 85.767862 -45.336062 
L 85.601183 -46.478745 
L 85.434504 -47.668428 
L 85.267825 -48.91627 
L 85.101146 -50.227971 
L 84.934467 -51.601268 
L 84.767788 -53.025106 
L 84.60111 -54.481489 
L 84.434431 -55.949491 
L 84.267752 -57.409644 
L 84.101073 -58.846714 
L 83.934394 -60.250154 
L 83.767715 -61.613084 
L 83.601036 -62.931472 
L 83.434357 -64.204599 
L 83.267678 -65.436462 
L 83.100999 -66.636717 
L 82.93432 -67.819768 
L 82.767641 -69.001765 
L 82.600963 -70.196692 
L 82.434284 -71.41354 
L 82.267605 -72.656155 
L 82.100926 -73.925974 
L 81.934247 -75.226039 
L 81.767568 -76.563647 
L 81.600889 -77.949428 
L 81.43421 -79.392578 
L 81.267531 -80.894392 
L 81.100852 -82.443538 
L 80.934173 -84.01585 
L 80.767494 -85.579116 
L 80.600815 -87.100906 
L 80.434137 -88.556397 
L 80.267458 -89.933621 
L 80.100779 -91.234925 
L 79.9341 -92.474676 
L 79.767421 -93.674009 
L 79.600742 -94.853909 
L 79.434063 -96.028331 
L 79.267384 -97.199103 
L 79.100705 -98.353888 
L 78.934026 -99.467499 
L 78.767347 -100.506074 
L 78.600668 -101.433274 
L 78.43399 -102.217601 
L 78.267311 -102.839633 
L 78.100632 -103.297479 
L 77.933953 -103.608566 
L 77.767274 -103.806583 
L 77.600595 -103.9341 
L 77.433916 -104.033059 
L 77.267237 -104.136203 
L 77.100558 -104.2621 
L 76.933879 -104.414986 
L 76.7672 -104.588898 
L 76.600521 -104.774035 
L 76.433843 -104.962624 
L 76.267164 -105.15185 
L 76.100485 -105.342768 
L 75.933806 -105.53599 
L 75.767127 -105.726455 
L 75.600448 -105.900106 
L 75.433769 -106.034525 
L 75.26709 -106.103934 
L 75.100411 -106.087102 
L 74.933732 -105.975389 
L 74.767053 -105.77787 
L 74.600374 -105.521384 
L 74.433696 -105.245201 
L 74.267017 -104.992141 
L 74.100338 -104.799341 
L 73.933659 -104.691784 
L 73.76698 -104.6802 
L 73.600301 -104.762748 
L 73.433622 -104.928343 
L 73.266943 -105.159409 
L 73.100264 -105.433173 
L 72.933585 -105.722368 
L 72.766906 -105.997057 
L 72.600227 -106.228493 
L 72.433549 -106.39409 
L 72.26687 -106.481226 
L 72.100191 -106.487934 
L 71.933512 -106.420498 
L 71.766833 -106.290015 
L 71.600154 -106.110518 
L 71.433475 -105.899773 
L 71.266796 -105.681616 
L 71.100117 -105.487252 
L 70.933438 -105.353239 
L 70.766759 -105.315505 
L 70.60008 -105.400699 
L 70.433402 -105.617492 
L 70.266723 -105.950832 
L 70.100044 -106.36151 
L 69.933365 -106.791876 
L 69.766686 -107.176601 
L 69.600007 -107.455691 
L 69.433328 -107.586305 
L 69.266649 -107.550538 
L 69.09997 -107.357855 
L 68.933291 -107.042392 
L 68.766612 -106.656284 
L 68.599933 -106.260393 
L 68.433255 -105.913632 
L 68.266576 -105.662027 
L 68.099897 -105.528902 
L 67.933218 -105.507981 
L 67.766539 -105.561375 
L 67.59986 -105.623894 
L 67.433181 -105.613723 
L 67.266502 -105.447529 
L 67.099823 -105.056191 
L 66.933144 -104.396761 
L 66.766465 -103.457443 
L 66.599786 -102.255103 
L 66.433108 -100.827617 
L 66.266429 -99.224677 
L 66.09975 -97.499862 
L 65.933071 -95.70465 
L 65.766392 -93.883408 
L 65.599713 -92.068411 
L 65.433034 -90.275427 
L 65.266355 -88.501797 
L 65.099676 -86.728814 
L 64.932997 -84.928422 
L 64.766318 -83.072074 
L 64.599639 -81.13861 
L 64.432961 -79.118874 
L 64.266282 -77.01666 
L 64.099603 -74.847174 
L 63.932924 -72.634369 
L 63.766245 -70.407758 
L 63.599566 -68.198312 
L 63.432887 -66.033051 
L 63.266208 -63.928875 
L 63.099529 -61.88745 
L 62.93285 -59.89352 
L 62.766171 -57.918139 
L 62.599492 -55.926408 
L 62.432814 -53.887288 
L 62.266135 -51.782166 
L 62.099456 -49.609613 
L 61.932777 -47.385574 
L 61.766098 -45.140061 
L 61.599419 -42.912235 
L 61.43274 -40.74551 
L 61.266061 -38.683356 
L 61.099382 -36.765794 
L 60.932703 -35.026292 
L 60.766024 -33.489075 
L 60.599345 -32.167151 
L 60.432667 -31.061515 
L 60.265988 -30.16185 
L 60.099309 -29.448681 
L 59.93263 -28.89659 
L 59.765951 -28.4778 
L 59.599272 -28.165381 
L 59.432593 -27.935517 
L 59.265914 -27.768577 
L 59.099235 -27.649146 
L 58.932556 -27.565389 
L 58.765877 -27.508201 
L 58.599198 -27.47047 
L 58.432519 -27.446586 
L 58.265841 -27.43217 
L 58.099162 -27.423913 
L 57.932483 -27.419441 
L 57.765804 -27.417159 
L 57.599125 -27.416063 
L 57.432446 -27.415568 
z
" style="stroke: #be185d; stroke-width: 0.75"/>
    </defs>
    <g clip-path="url(#p58f27f78e8)">
     <use xlink:href="#mefee69dd80" x="0" y="184.251969" style="fill: #be185d; fill-opacity: 0.25; stroke: #be185d; stroke-width: 0.75"/>
    </g>
   </g>
   <g id="FillBetweenPolyCollection_3">
    <defs>
     <path id="m2e900ad4b7" d="M 109.534308 -27.415841 
L 109.534308 -27.415228 
L 109.850593 -27.415228 
L 110.166879 -27.415228 
L 110.483164 -27.415228 
L 110.79945 -27.415228 
L 111.115735 -27.415228 
L 111.432021 -27.415228 
L 111.748306 -27.415228 
L 112.064592 -27.415228 
L 112.380877 -27.415228 
L 112.697162 -27.415228 
L 113.013448 -27.415228 
L 113.329733 -27.415228 
L 113.646019 -27.415228 
L 113.962304 -27.415228 
L 114.27859 -27.415228 
L 114.594875 -27.415228 
L 114.911161 -27.415228 
L 115.227446 -27.415228 
L 115.543732 -27.415228 
L 115.860017 -27.415228 
L 116.176303 -27.415228 
L 116.492588 -27.415228 
L 116.808874 -27.415228 
L 117.125159 -27.415228 
L 117.441445 -27.415228 
L 117.75773 -27.415228 
L 118.074016 -27.415228 
L 118.390301 -27.415228 
L 118.706587 -27.415228 
L 119.022872 -27.415228 
L 119.339158 -27.415228 
L 119.655443 -27.415228 
L 119.971728 -27.415228 
L 120.288014 -27.415228 
L 120.604299 -27.415228 
L 120.920585 -27.415228 
L 121.23687 -27.415228 
L 121.553156 -27.415228 
L 121.869441 -27.415228 
L 122.185727 -27.415228 
L 122.502012 -27.415228 
L 122.818298 -27.415228 
L 123.134583 -27.415228 
L 123.450869 -27.415228 
L 123.767154 -27.415228 
L 124.08344 -27.415228 
L 124.399725 -27.415228 
L 124.716011 -27.415228 
L 125.032296 -27.415228 
L 125.348582 -27.415228 
L 125.664867 -27.415228 
L 125.981153 -27.415228 
L 126.297438 -27.415228 
L 126.613724 -27.415228 
L 126.930009 -27.415228 
L 127.246295 -27.415228 
L 127.56258 -27.415228 
L 127.878865 -27.415228 
L 128.195151 -27.415228 
L 128.511436 -27.415228 
L 128.827722 -27.415228 
L 129.144007 -27.415228 
L 129.460293 -27.415228 
L 129.776578 -27.415228 
L 130.092864 -27.415228 
L 130.409149 -27.415228 
L 130.725435 -27.415228 
L 131.04172 -27.415228 
L 131.358006 -27.415228 
L 131.674291 -27.415228 
L 131.990577 -27.415228 
L 132.306862 -27.415228 
L 132.623148 -27.415228 
L 132.939433 -27.415228 
L 133.255719 -27.415228 
L 133.572004 -27.415228 
L 133.88829 -27.415228 
L 134.204575 -27.415228 
L 134.520861 -27.415228 
L 134.837146 -27.415228 
L 135.153431 -27.415228 
L 135.469717 -27.415228 
L 135.786002 -27.415228 
L 136.102288 -27.415228 
L 136.418573 -27.415228 
L 136.734859 -27.415228 
L 137.051144 -27.415228 
L 137.36743 -27.415228 
L 137.683715 -27.415228 
L 138.000001 -27.415228 
L 138.316286 -27.415228 
L 138.632572 -27.415228 
L 138.948857 -27.415228 
L 139.265143 -27.415228 
L 139.581428 -27.415228 
L 139.897714 -27.415228 
L 140.213999 -27.415228 
L 140.530285 -27.415228 
L 140.84657 -27.415228 
L 141.162856 -27.415228 
L 141.479141 -27.415228 
L 141.795427 -27.415228 
L 142.111712 -27.415228 
L 142.427998 -27.415228 
L 142.744283 -27.415228 
L 143.060568 -27.415228 
L 143.376854 -27.415228 
L 143.693139 -27.415228 
L 144.009425 -27.415228 
L 144.32571 -27.415228 
L 144.641996 -27.415228 
L 144.958281 -27.415228 
L 145.274567 -27.415228 
L 145.590852 -27.415228 
L 145.907138 -27.415228 
L 146.223423 -27.415228 
L 146.539709 -27.415228 
L 146.855994 -27.415228 
L 147.17228 -27.415228 
L 147.488565 -27.415228 
L 147.804851 -27.415228 
L 148.121136 -27.415228 
L 148.437422 -27.415228 
L 148.753707 -27.415228 
L 149.069993 -27.415228 
L 149.386278 -27.415228 
L 149.702564 -27.415228 
L 150.018849 -27.415228 
L 150.335134 -27.415228 
L 150.65142 -27.415228 
L 150.967705 -27.415228 
L 151.283991 -27.415228 
L 151.600276 -27.415228 
L 151.916562 -27.415228 
L 152.232847 -27.415228 
L 152.549133 -27.415228 
L 152.865418 -27.415228 
L 153.181704 -27.415228 
L 153.497989 -27.415228 
L 153.814275 -27.415228 
L 154.13056 -27.415228 
L 154.446846 -27.415228 
L 154.763131 -27.415228 
L 155.079417 -27.415228 
L 155.395702 -27.415228 
L 155.711988 -27.415228 
L 156.028273 -27.415228 
L 156.344559 -27.415228 
L 156.660844 -27.415228 
L 156.97713 -27.415228 
L 157.293415 -27.415228 
L 157.609701 -27.415228 
L 157.925986 -27.415228 
L 158.242271 -27.415228 
L 158.558557 -27.415228 
L 158.874842 -27.415228 
L 159.191128 -27.415228 
L 159.507413 -27.415228 
L 159.823699 -27.415228 
L 160.139984 -27.415228 
L 160.45627 -27.415228 
L 160.772555 -27.415228 
L 161.088841 -27.415228 
L 161.405126 -27.415228 
L 161.721412 -27.415228 
L 162.037697 -27.415228 
L 162.353983 -27.415228 
L 162.670268 -27.415228 
L 162.986554 -27.415228 
L 163.302839 -27.415228 
L 163.619125 -27.415228 
L 163.93541 -27.415228 
L 164.251696 -27.415228 
L 164.567981 -27.415228 
L 164.884267 -27.415228 
L 165.200552 -27.415228 
L 165.516837 -27.415228 
L 165.833123 -27.415228 
L 166.149408 -27.415228 
L 166.465694 -27.415228 
L 166.781979 -27.415228 
L 167.098265 -27.415228 
L 167.41455 -27.415228 
L 167.730836 -27.415228 
L 168.047121 -27.415228 
L 168.363407 -27.415228 
L 168.679692 -27.415228 
L 168.995978 -27.415228 
L 169.312263 -27.415228 
L 169.628549 -27.415228 
L 169.944834 -27.415228 
L 170.26112 -27.415228 
L 170.577405 -27.415228 
L 170.893691 -27.415228 
L 171.209976 -27.415228 
L 171.526262 -27.415228 
L 171.842547 -27.415228 
L 172.158833 -27.415228 
L 172.475118 -27.415228 
L 172.475118 -27.422637 
L 172.475118 -27.422637 
L 172.158833 -27.431225 
L 171.842547 -27.448262 
L 171.526262 -27.480497 
L 171.209976 -27.538689 
L 170.893691 -27.638934 
L 170.577405 -27.803767 
L 170.26112 -28.062563 
L 169.944834 -28.450674 
L 169.628549 -29.006861 
L 169.312263 -29.768883 
L 168.995978 -30.767607 
L 168.679692 -32.020603 
L 168.363407 -33.526613 
L 168.047121 -35.262393 
L 167.730836 -37.183028 
L 167.41455 -39.226044 
L 167.098265 -41.318661 
L 166.781979 -43.386705 
L 166.465694 -45.363322 
L 166.149408 -47.195772 
L 165.833123 -48.849236 
L 165.516837 -50.307369 
L 165.200552 -51.570113 
L 164.884267 -52.649723 
L 164.567981 -53.56612 
L 164.251696 -54.342493 
L 163.93541 -55.001775 
L 163.619125 -55.564298 
L 163.302839 -56.046644 
L 162.986554 -56.461499 
L 162.670268 -56.818237 
L 162.353983 -57.123859 
L 162.037697 -57.383977 
L 161.721412 -57.603585 
L 161.405126 -57.787486 
L 161.088841 -57.940377 
L 160.772555 -58.066707 
L 160.45627 -58.170472 
L 160.139984 -58.255093 
L 159.823699 -58.323472 
L 159.507413 -58.378214 
L 159.191128 -58.421901 
L 158.874842 -58.457273 
L 158.558557 -58.487184 
L 158.242271 -58.514303 
L 157.925986 -58.54066 
L 157.609701 -58.567209 
L 157.293415 -58.59365 
L 156.97713 -58.618615 
L 156.660844 -58.640226 
L 156.344559 -58.656834 
L 156.028273 -58.667685 
L 155.711988 -58.673257 
L 155.395702 -58.675143 
L 155.079417 -58.675545 
L 154.763131 -58.676584 
L 154.446846 -58.679717 
L 154.13056 -58.68547 
L 153.814275 -58.69355 
L 153.497989 -58.703238 
L 153.181704 -58.71384 
L 152.865418 -58.724989 
L 152.549133 -58.736672 
L 152.232847 -58.749018 
L 151.916562 -58.761981 
L 151.600276 -58.775087 
L 151.283991 -58.787414 
L 150.967705 -58.797799 
L 150.65142 -58.805248 
L 150.335134 -58.809355 
L 150.018849 -58.810613 
L 149.702564 -58.810449 
L 149.386278 -58.81098 
L 149.069993 -58.814516 
L 148.753707 -58.822977 
L 148.437422 -58.837381 
L 148.121136 -58.857558 
L 147.804851 -58.882173 
L 147.488565 -58.909036 
L 147.17228 -58.935581 
L 146.855994 -58.959392 
L 146.539709 -58.97863 
L 146.223423 -58.992275 
L 145.907138 -59.000187 
L 145.590852 -59.002999 
L 145.274567 -59.00192 
L 144.958281 -58.998506 
L 144.641996 -58.994427 
L 144.32571 -58.991262 
L 144.009425 -58.990308 
L 143.693139 -58.992417 
L 143.376854 -58.997897 
L 143.060568 -59.006492 
L 142.744283 -59.017478 
L 142.427998 -59.029868 
L 142.111712 -59.042639 
L 141.795427 -59.054924 
L 141.479141 -59.066107 
L 141.162856 -59.075812 
L 140.84657 -59.083859 
L 140.530285 -59.090254 
L 140.213999 -59.095251 
L 139.897714 -59.099456 
L 139.581428 -59.103876 
L 139.265143 -59.109825 
L 138.948857 -59.118666 
L 138.632572 -59.131443 
L 138.316286 -59.148526 
L 138.000001 -59.169422 
L 137.683715 -59.192811 
L 137.36743 -59.21681 
L 137.051144 -59.239385 
L 136.734859 -59.258775 
L 136.418573 -59.273822 
L 136.102288 -59.284134 
L 135.786002 -59.290078 
L 135.469717 -59.292618 
L 135.153431 -59.293082 
L 134.837146 -59.292901 
L 134.520861 -59.293383 
L 134.204575 -59.29556 
L 133.88829 -59.300112 
L 133.572004 -59.307372 
L 133.255719 -59.317398 
L 132.939433 -59.330049 
L 132.623148 -59.345049 
L 132.306862 -59.361985 
L 131.990577 -59.380243 
L 131.674291 -59.398914 
L 131.358006 -59.416758 
L 131.04172 -59.432293 
L 130.725435 -59.444053 
L 130.409149 -59.450963 
L 130.092864 -59.452718 
L 129.776578 -59.450002 
L 129.460293 -59.444454 
L 129.144007 -59.438348 
L 128.827722 -59.434095 
L 128.511436 -59.433708 
L 128.195151 -59.438395 
L 127.878865 -59.448386 
L 127.56258 -59.46299 
L 127.246295 -59.480853 
L 126.930009 -59.500308 
L 126.613724 -59.519736 
L 126.297438 -59.537875 
L 125.981153 -59.554023 
L 125.664867 -59.568146 
L 125.348582 -59.580847 
L 125.032296 -59.593225 
L 124.716011 -59.606608 
L 124.399725 -59.622189 
L 124.08344 -59.640586 
L 123.767154 -59.661353 
L 123.450869 -59.682478 
L 123.134583 -59.69985 
L 122.818298 -59.706664 
L 122.502012 -59.692678 
L 122.185727 -59.64328 
L 121.869441 -59.538395 
L 121.553156 -59.351479 
L 121.23687 -59.049044 
L 120.920585 -58.591379 
L 120.604299 -57.935108 
L 120.288014 -57.03794 
L 119.971728 -55.865378 
L 119.655443 -54.398347 
L 119.339158 -52.640064 
L 119.022872 -50.620192 
L 118.706587 -48.39471 
L 118.390301 -46.040915 
L 118.074016 -43.648311 
L 117.75773 -41.307265 
L 117.441445 -39.097959 
L 117.125159 -37.081936 
L 116.808874 -35.297707 
L 116.492588 -33.760683 
L 116.176303 -32.466637 
L 115.860017 -31.397231 
L 115.543732 -30.52603 
L 115.227446 -29.823757 
L 114.911161 -29.26208 
L 114.594875 -28.815788 
L 114.27859 -28.463595 
L 113.962304 -28.188031 
L 113.646019 -27.97485 
L 113.329733 -27.812332 
L 113.013448 -27.690673 
L 112.697162 -27.601551 
L 112.380877 -27.537868 
L 112.064592 -27.493611 
L 111.748306 -27.463777 
L 111.432021 -27.444315 
L 111.115735 -27.432056 
L 110.79945 -27.424614 
L 110.483164 -27.420268 
L 110.166879 -27.417829 
L 109.850593 -27.416518 
L 109.534308 -27.415841 
z
" style="stroke: #4338ca; stroke-width: 0.75"/>
    </defs>
    <g clip-path="url(#p58f27f78e8)">
     <use xlink:href="#m2e900ad4b7" x="0" y="184.251969" style="fill: #4338ca; fill-opacity: 0.25; stroke: #4338ca; stroke-width: 0.75"/>
    </g>
   </g>
   <g id="FillBetweenPolyCollection_4">
    <defs>
     <path id="m18ae49bdbe" d="M 93.753195 -27.415514 
L 93.753195 -27.415228 
L 93.921693 -27.415228 
L 94.09019 -27.415228 
L 94.258687 -27.415228 
L 94.427184 -27.415228 
L 94.595682 -27.415228 
L 94.764179 -27.415228 
L 94.932676 -27.415228 
L 95.101173 -27.415228 
L 95.26967 -27.415228 
L 95.438168 -27.415228 
L 95.606665 -27.415228 
L 95.775162 -27.415228 
L 95.943659 -27.415228 
L 96.112157 -27.415228 
L 96.280654 -27.415228 
L 96.449151 -27.415228 
L 96.617648 -27.415228 
L 96.786146 -27.415228 
L 96.954643 -27.415228 
L 97.12314 -27.415228 
L 97.291637 -27.415228 
L 97.460135 -27.415228 
L 97.628632 -27.415228 
L 97.797129 -27.415228 
L 97.965626 -27.415228 
L 98.134123 -27.415228 
L 98.302621 -27.415228 
L 98.471118 -27.415228 
L 98.639615 -27.415228 
L 98.808112 -27.415228 
L 98.97661 -27.415228 
L 99.145107 -27.415228 
L 99.313604 -27.415228 
L 99.482101 -27.415228 
L 99.650599 -27.415228 
L 99.819096 -27.415228 
L 99.987593 -27.415228 
L 100.15609 -27.415228 
L 100.324587 -27.415228 
L 100.493085 -27.415228 
L 100.661582 -27.415228 
L 100.830079 -27.415228 
L 100.998576 -27.415228 
L 101.167074 -27.415228 
L 101.335571 -27.415228 
L 101.504068 -27.415228 
L 101.672565 -27.415228 
L 101.841063 -27.415228 
L 102.00956 -27.415228 
L 102.178057 -27.415228 
L 102.346554 -27.415228 
L 102.515052 -27.415228 
L 102.683549 -27.415228 
L 102.852046 -27.415228 
L 103.020543 -27.415228 
L 103.18904 -27.415228 
L 103.357538 -27.415228 
L 103.526035 -27.415228 
L 103.694532 -27.415228 
L 103.863029 -27.415228 
L 104.031527 -27.415228 
L 104.200024 -27.415228 
L 104.368521 -27.415228 
L 104.537018 -27.415228 
L 104.705516 -27.415228 
L 104.874013 -27.415228 
L 105.04251 -27.415228 
L 105.211007 -27.415228 
L 105.379505 -27.415228 
L 105.548002 -27.415228 
L 105.716499 -27.415228 
L 105.884996 -27.415228 
L 106.053493 -27.415228 
L 106.221991 -27.415228 
L 106.390488 -27.415228 
L 106.558985 -27.415228 
L 106.727482 -27.415228 
L 106.89598 -27.415228 
L 107.064477 -27.415228 
L 107.232974 -27.415228 
L 107.401471 -27.415228 
L 107.569969 -27.415228 
L 107.738466 -27.415228 
L 107.906963 -27.415228 
L 108.07546 -27.415228 
L 108.243957 -27.415228 
L 108.412455 -27.415228 
L 108.580952 -27.415228 
L 108.749449 -27.415228 
L 108.917946 -27.415228 
L 109.086444 -27.415228 
L 109.254941 -27.415228 
L 109.423438 -27.415228 
L 109.591935 -27.415228 
L 109.760433 -27.415228 
L 109.92893 -27.415228 
L 110.097427 -27.415228 
L 110.265924 -27.415228 
L 110.434422 -27.415228 
L 110.602919 -27.415228 
L 110.771416 -27.415228 
L 110.939913 -27.415228 
L 111.10841 -27.415228 
L 111.276908 -27.415228 
L 111.445405 -27.415228 
L 111.613902 -27.415228 
L 111.782399 -27.415228 
L 111.950897 -27.415228 
L 112.119394 -27.415228 
L 112.287891 -27.415228 
L 112.456388 -27.415228 
L 112.624886 -27.415228 
L 112.793383 -27.415228 
L 112.96188 -27.415228 
L 113.130377 -27.415228 
L 113.298875 -27.415228 
L 113.467372 -27.415228 
L 113.635869 -27.415228 
L 113.804366 -27.415228 
L 113.972863 -27.415228 
L 114.141361 -27.415228 
L 114.309858 -27.415228 
L 114.478355 -27.415228 
L 114.646852 -27.415228 
L 114.81535 -27.415228 
L 114.983847 -27.415228 
L 115.152344 -27.415228 
L 115.320841 -27.415228 
L 115.489339 -27.415228 
L 115.657836 -27.415228 
L 115.826333 -27.415228 
L 115.99483 -27.415228 
L 116.163328 -27.415228 
L 116.331825 -27.415228 
L 116.500322 -27.415228 
L 116.668819 -27.415228 
L 116.837316 -27.415228 
L 117.005814 -27.415228 
L 117.174311 -27.415228 
L 117.342808 -27.415228 
L 117.511305 -27.415228 
L 117.679803 -27.415228 
L 117.8483 -27.415228 
L 118.016797 -27.415228 
L 118.185294 -27.415228 
L 118.353792 -27.415228 
L 118.522289 -27.415228 
L 118.690786 -27.415228 
L 118.859283 -27.415228 
L 119.02778 -27.415228 
L 119.196278 -27.415228 
L 119.364775 -27.415228 
L 119.533272 -27.415228 
L 119.701769 -27.415228 
L 119.870267 -27.415228 
L 120.038764 -27.415228 
L 120.207261 -27.415228 
L 120.375758 -27.415228 
L 120.544256 -27.415228 
L 120.712753 -27.415228 
L 120.88125 -27.415228 
L 121.049747 -27.415228 
L 121.218245 -27.415228 
L 121.386742 -27.415228 
L 121.555239 -27.415228 
L 121.723736 -27.415228 
L 121.892233 -27.415228 
L 122.060731 -27.415228 
L 122.229228 -27.415228 
L 122.397725 -27.415228 
L 122.566222 -27.415228 
L 122.73472 -27.415228 
L 122.903217 -27.415228 
L 123.071714 -27.415228 
L 123.240211 -27.415228 
L 123.408709 -27.415228 
L 123.577206 -27.415228 
L 123.745703 -27.415228 
L 123.9142 -27.415228 
L 124.082698 -27.415228 
L 124.251195 -27.415228 
L 124.419692 -27.415228 
L 124.588189 -27.415228 
L 124.756686 -27.415228 
L 124.925184 -27.415228 
L 125.093681 -27.415228 
L 125.262178 -27.415228 
L 125.430675 -27.415228 
L 125.599173 -27.415228 
L 125.76767 -27.415228 
L 125.936167 -27.415228 
L 126.104664 -27.415228 
L 126.273162 -27.415228 
L 126.441659 -27.415228 
L 126.610156 -27.415228 
L 126.778653 -27.415228 
L 126.94715 -27.415228 
L 127.115648 -27.415228 
L 127.284145 -27.415228 
L 127.284145 -27.416022 
L 127.284145 -27.416022 
L 127.115648 -27.417373 
L 126.94715 -27.420625 
L 126.778653 -27.427892 
L 126.610156 -27.442987 
L 126.441659 -27.472151 
L 126.273162 -27.524599 
L 126.104664 -27.612478 
L 125.936167 -27.749842 
L 125.76767 -27.950579 
L 125.599173 -28.225757 
L 125.430675 -28.581457 
L 125.262178 -29.018198 
L 125.093681 -29.532355 
L 124.925184 -30.118763 
L 124.756686 -30.772787 
L 124.588189 -31.490402 
L 124.419692 -32.266273 
L 124.251195 -33.09144 
L 124.082698 -33.952787 
L 123.9142 -34.835336 
L 123.745703 -35.726396 
L 123.577206 -36.619137 
L 123.408709 -37.513422 
L 123.240211 -38.413515 
L 123.071714 -39.324329 
L 122.903217 -40.24858 
L 122.73472 -41.186304 
L 122.566222 -42.136432 
L 122.397725 -43.098959 
L 122.229228 -44.076258 
L 122.060731 -45.072852 
L 121.892233 -46.093646 
L 121.723736 -47.141157 
L 121.555239 -48.212838 
L 121.386742 -49.300082 
L 121.218245 -50.390277 
L 121.049747 -51.471784 
L 120.88125 -52.53955 
L 120.712753 -53.597989 
L 120.544256 -54.658992 
L 120.375758 -55.736015 
L 120.207261 -56.837714 
L 120.038764 -57.964554 
L 119.870267 -59.1093 
L 119.701769 -60.259695 
L 119.533272 -61.401259 
L 119.364775 -62.519872 
L 119.196278 -63.605281 
L 119.02778 -64.655964 
L 118.859283 -65.683271 
L 118.690786 -66.711206 
L 118.522289 -67.769793 
L 118.353792 -68.884098 
L 118.185294 -70.064605 
L 118.016797 -71.3046 
L 117.8483 -72.586006 
L 117.679803 -73.88956 
L 117.511305 -75.202402 
L 117.342808 -76.518364 
L 117.174311 -77.831965 
L 117.005814 -79.132117 
L 116.837316 -80.401961 
L 116.668819 -81.626741 
L 116.500322 -82.805415 
L 116.331825 -83.958264 
L 116.163328 -85.124489 
L 115.99483 -86.349551 
L 115.826333 -87.668098 
L 115.657836 -89.090894 
L 115.489339 -90.601758 
L 115.320841 -92.165079 
L 115.152344 -93.739377 
L 114.983847 -95.290514 
L 114.81535 -96.799676 
L 114.646852 -98.264585 
L 114.478355 -99.695534 
L 114.309858 -101.109549 
L 114.141361 -102.525941 
L 113.972863 -103.964874 
L 113.804366 -105.448107 
L 113.635869 -106.999407 
L 113.467372 -108.642359 
L 113.298875 -110.395206 
L 113.130377 -112.264406 
L 112.96188 -114.239308 
L 112.793383 -116.289788 
L 112.624886 -118.367855 
L 112.456388 -120.413664 
L 112.287891 -122.365219 
L 112.119394 -124.169103 
L 111.950897 -125.788046 
L 111.782399 -127.202203 
L 111.613902 -128.404847 
L 111.445405 -129.397026 
L 111.276908 -130.186021 
L 111.10841 -130.788528 
L 110.939913 -131.23457 
L 110.771416 -131.566488 
L 110.602919 -131.830379 
L 110.434422 -132.062617 
L 110.265924 -132.277605 
L 110.097427 -132.462499 
L 109.92893 -132.581155 
L 109.760433 -132.585404 
L 109.591935 -132.429292 
L 109.423438 -132.081719 
L 109.254941 -131.534363 
L 109.086444 -130.80355 
L 108.917946 -129.926056 
L 108.749449 -128.949844 
L 108.580952 -127.922092 
L 108.412455 -126.878272 
L 108.243957 -125.836229 
L 108.07546 -124.797042 
L 107.906963 -123.750852 
L 107.738466 -122.683596 
L 107.569969 -121.581496 
L 107.401471 -120.433338 
L 107.232974 -119.232775 
L 107.064477 -117.981884 
L 106.89598 -116.694161 
L 106.727482 -115.393322 
L 106.558985 -114.106071 
L 106.390488 -112.851241 
L 106.221991 -111.63095 
L 106.053493 -110.428835 
L 105.884996 -109.216483 
L 105.716499 -107.964897 
L 105.548002 -106.655919 
L 105.379505 -105.28939 
L 105.211007 -103.883837 
L 105.04251 -102.47042 
L 104.874013 -101.081609 
L 104.705516 -99.738363 
L 104.537018 -98.44128 
L 104.368521 -97.170602 
L 104.200024 -95.895878 
L 104.031527 -94.590597 
L 103.863029 -93.243915 
L 103.694532 -91.863245 
L 103.526035 -90.467067 
L 103.357538 -89.072856 
L 103.18904 -87.687103 
L 103.020543 -86.302096 
L 102.852046 -84.899754 
L 102.683549 -83.459294 
L 102.515052 -81.964717 
L 102.346554 -80.409374 
L 102.178057 -78.796911 
L 102.00956 -77.139297 
L 101.841063 -75.453209 
L 101.672565 -73.755975 
L 101.504068 -72.061941 
L 101.335571 -70.379773 
L 101.167074 -68.710885 
L 100.998576 -67.049035 
L 100.830079 -65.381114 
L 100.661582 -63.689092 
L 100.493085 -61.95291 
L 100.324587 -60.153797 
L 100.15609 -58.27742 
L 99.987593 -56.316428 
L 99.819096 -54.27214 
L 99.650599 -52.155201 
L 99.482101 -49.985022 
L 99.313604 -47.788124 
L 99.145107 -45.595899 
L 98.97661 -43.442479 
L 98.808112 -41.362976 
L 98.639615 -39.391764 
L 98.471118 -37.56033 
L 98.302621 -35.894667 
L 98.134123 -34.412837 
L 97.965626 -33.123446 
L 97.797129 -32.025472 
L 97.628632 -31.109339 
L 97.460135 -30.358834 
L 97.291637 -29.753393 
L 97.12314 -29.270416 
L 96.954643 -28.887405 
L 96.786146 -28.583771 
L 96.617648 -28.34209 
L 96.449151 -28.148624 
L 96.280654 -27.993042 
L 96.112157 -27.867605 
L 95.943659 -27.766273 
L 95.775162 -27.684158 
L 95.606665 -27.617382 
L 95.438168 -27.563133 
L 95.26967 -27.519589 
L 95.101173 -27.485595 
L 94.932676 -27.460193 
L 94.764179 -27.442272 
L 94.595682 -27.430455 
L 94.427184 -27.423221 
L 94.258687 -27.419128 
L 94.09019 -27.416992 
L 93.921693 -27.415967 
L 93.753195 -27.415514 
z
" style="stroke: #15803d; stroke-width: 0.75"/>
    </defs>
    <g clip-path="url(#p58f27f78e8)">
     <use xlink:href="#m18ae49bdbe" x="0" y="184.251969" style="fill: #15803d; fill-opacity: 0.25; stroke: #15803d; stroke-width: 0.75"/>
    </g>
   </g>
   <g id="FillBetweenPolyCollection_5">
    <defs>
     <path id="m07fe318a20" d="M 139.038217 -27.416004 
L 139.038217 -27.415228 
L 139.899429 -27.415228 
L 140.76064 -27.415228 
L 141.621852 -27.415228 
L 142.483063 -27.415228 
L 143.344275 -27.415228 
L 144.205486 -27.415228 
L 145.066698 -27.415228 
L 145.927909 -27.415228 
L 146.789121 -27.415228 
L 147.650332 -27.415228 
L 148.511544 -27.415228 
L 149.372755 -27.415228 
L 150.233967 -27.415228 
L 151.095178 -27.415228 
L 151.95639 -27.415228 
L 152.817602 -27.415228 
L 153.678813 -27.415228 
L 154.540025 -27.415228 
L 155.401236 -27.415228 
L 156.262448 -27.415228 
L 157.123659 -27.415228 
L 157.984871 -27.415228 
L 158.846082 -27.415228 
L 159.707294 -27.415228 
L 160.568505 -27.415228 
L 161.429717 -27.415228 
L 162.290928 -27.415228 
L 163.15214 -27.415228 
L 164.013351 -27.415228 
L 164.874563 -27.415228 
L 165.735774 -27.415228 
L 166.596986 -27.415228 
L 167.458197 -27.415228 
L 168.319409 -27.415228 
L 169.180621 -27.415228 
L 170.041832 -27.415228 
L 170.903044 -27.415228 
L 171.764255 -27.415228 
L 172.625467 -27.415228 
L 173.486678 -27.415228 
L 174.34789 -27.415228 
L 175.209101 -27.415228 
L 176.070313 -27.415228 
L 176.931524 -27.415228 
L 177.792736 -27.415228 
L 178.653947 -27.415228 
L 179.515159 -27.415228 
L 180.37637 -27.415228 
L 181.237582 -27.415228 
L 182.098793 -27.415228 
L 182.960005 -27.415228 
L 183.821216 -27.415228 
L 184.682428 -27.415228 
L 185.54364 -27.415228 
L 186.404851 -27.415228 
L 187.266063 -27.415228 
L 188.127274 -27.415228 
L 188.988486 -27.415228 
L 189.849697 -27.415228 
L 190.710909 -27.415228 
L 191.57212 -27.415228 
L 192.433332 -27.415228 
L 193.294543 -27.415228 
L 194.155755 -27.415228 
L 195.016966 -27.415228 
L 195.878178 -27.415228 
L 196.739389 -27.415228 
L 197.600601 -27.415228 
L 198.461812 -27.415228 
L 199.323024 -27.415228 
L 200.184235 -27.415228 
L 201.045447 -27.415228 
L 201.906659 -27.415228 
L 202.76787 -27.415228 
L 203.629082 -27.415228 
L 204.490293 -27.415228 
L 205.351505 -27.415228 
L 206.212716 -27.415228 
L 207.073928 -27.415228 
L 207.935139 -27.415228 
L 208.796351 -27.415228 
L 209.657562 -27.415228 
L 210.518774 -27.415228 
L 211.379985 -27.415228 
L 212.241197 -27.415228 
L 213.102408 -27.415228 
L 213.96362 -27.415228 
L 214.824831 -27.415228 
L 215.686043 -27.415228 
L 216.547254 -27.415228 
L 217.408466 -27.415228 
L 218.269678 -27.415228 
L 219.130889 -27.415228 
L 219.992101 -27.415228 
L 220.853312 -27.415228 
L 221.714524 -27.415228 
L 222.575735 -27.415228 
L 223.436947 -27.415228 
L 224.298158 -27.415228 
L 225.15937 -27.415228 
L 226.020581 -27.415228 
L 226.881793 -27.415228 
L 227.743004 -27.415228 
L 228.604216 -27.415228 
L 229.465427 -27.415228 
L 230.326639 -27.415228 
L 231.18785 -27.415228 
L 232.049062 -27.415228 
L 232.910274 -27.415228 
L 233.771485 -27.415228 
L 234.632697 -27.415228 
L 235.493908 -27.415228 
L 236.35512 -27.415228 
L 237.216331 -27.415228 
L 238.077543 -27.415228 
L 238.938754 -27.415228 
L 239.799966 -27.415228 
L 240.661177 -27.415228 
L 241.522389 -27.415228 
L 242.3836 -27.415228 
L 243.244812 -27.415228 
L 244.106023 -27.415228 
L 244.967235 -27.415228 
L 245.828446 -27.415228 
L 246.689658 -27.415228 
L 247.550869 -27.415228 
L 248.412081 -27.415228 
L 249.273293 -27.415228 
L 250.134504 -27.415228 
L 250.995716 -27.415228 
L 251.856927 -27.415228 
L 252.718139 -27.415228 
L 253.57935 -27.415228 
L 254.440562 -27.415228 
L 255.301773 -27.415228 
L 256.162985 -27.415228 
L 257.024196 -27.415228 
L 257.885408 -27.415228 
L 258.746619 -27.415228 
L 259.607831 -27.415228 
L 260.469042 -27.415228 
L 261.330254 -27.415228 
L 262.191465 -27.415228 
L 263.052677 -27.415228 
L 263.913888 -27.415228 
L 264.7751 -27.415228 
L 265.636312 -27.415228 
L 266.497523 -27.415228 
L 267.358735 -27.415228 
L 268.219946 -27.415228 
L 269.081158 -27.415228 
L 269.942369 -27.415228 
L 270.803581 -27.415228 
L 271.664792 -27.415228 
L 272.526004 -27.415228 
L 273.387215 -27.415228 
L 274.248427 -27.415228 
L 275.109638 -27.415228 
L 275.97085 -27.415228 
L 276.832061 -27.415228 
L 277.693273 -27.415228 
L 278.554484 -27.415228 
L 279.415696 -27.415228 
L 280.276907 -27.415228 
L 281.138119 -27.415228 
L 281.999331 -27.415228 
L 282.860542 -27.415228 
L 283.721754 -27.415228 
L 284.582965 -27.415228 
L 285.444177 -27.415228 
L 286.305388 -27.415228 
L 287.1666 -27.415228 
L 288.027811 -27.415228 
L 288.889023 -27.415228 
L 289.750234 -27.415228 
L 290.611446 -27.415228 
L 291.472657 -27.415228 
L 292.333869 -27.415228 
L 293.19508 -27.415228 
L 294.056292 -27.415228 
L 294.917503 -27.415228 
L 295.778715 -27.415228 
L 296.639926 -27.415228 
L 297.501138 -27.415228 
L 298.36235 -27.415228 
L 299.223561 -27.415228 
L 300.084773 -27.415228 
L 300.945984 -27.415228 
L 301.807196 -27.415228 
L 302.668407 -27.415228 
L 303.529619 -27.415228 
L 304.39083 -27.415228 
L 305.252042 -27.415228 
L 306.113253 -27.415228 
L 306.974465 -27.415228 
L 307.835676 -27.415228 
L 308.696888 -27.415228 
L 309.558099 -27.415228 
L 310.419311 -27.415228 
L 310.419311 -27.415695 
L 310.419311 -27.415695 
L 309.558099 -27.416336 
L 308.696888 -27.417699 
L 307.835676 -27.420422 
L 306.974465 -27.425531 
L 306.113253 -27.434547 
L 305.252042 -27.449536 
L 304.39083 -27.473058 
L 303.529619 -27.507975 
L 302.668407 -27.55711 
L 301.807196 -27.622825 
L 300.945984 -27.706586 
L 300.084773 -27.80864 
L 299.223561 -27.927892 
L 298.36235 -28.062043 
L 297.501138 -28.20796 
L 296.639926 -28.362202 
L 295.778715 -28.521573 
L 294.917503 -28.683564 
L 294.056292 -28.846587 
L 293.19508 -29.009966 
L 292.333869 -29.173719 
L 291.472657 -29.338232 
L 290.611446 -29.503932 
L 289.750234 -29.671043 
L 288.889023 -29.839496 
L 288.027811 -30.008964 
L 287.1666 -30.179017 
L 286.305388 -30.349305 
L 285.444177 -30.519729 
L 284.582965 -30.69053 
L 283.721754 -30.86229 
L 282.860542 -31.035818 
L 281.999331 -31.211958 
L 281.138119 -31.391337 
L 280.276907 -31.574102 
L 279.415696 -31.759743 
L 278.554484 -31.947061 
L 277.693273 -32.134359 
L 276.832061 -32.319811 
L 275.97085 -32.501927 
L 275.109638 -32.679948 
L 274.248427 -32.854046 
L 273.387215 -33.025261 
L 272.526004 -33.195213 
L 271.664792 -33.365687 
L 270.803581 -33.538241 
L 269.942369 -33.713931 
L 269.081158 -33.8932 
L 268.219946 -34.075905 
L 267.358735 -34.261395 
L 266.497523 -34.448614 
L 265.636312 -34.636228 
L 264.7751 -34.82282 
L 263.913888 -35.007192 
L 263.052677 -35.188712 
L 262.191465 -35.367591 
L 261.330254 -35.544932 
L 260.469042 -35.722488 
L 259.607831 -35.902177 
L 258.746619 -36.085511 
L 257.885408 -36.273167 
L 257.024196 -36.464853 
L 256.162985 -36.659506 
L 255.301773 -36.85571 
L 254.440562 -37.052132 
L 253.57935 -37.247828 
L 252.718139 -37.44234 
L 251.856927 -37.635656 
L 250.995716 -37.828149 
L 250.134504 -38.020542 
L 249.273293 -38.213855 
L 248.412081 -38.409235 
L 247.550869 -38.607604 
L 246.689658 -38.809222 
L 245.828446 -39.013367 
L 244.967235 -39.218367 
L 244.106023 -39.422052 
L 243.244812 -39.622501 
L 242.3836 -39.818806 
L 241.522389 -40.011533 
L 240.661177 -40.20266 
L 239.799966 -40.394973 
L 238.938754 -40.591097 
L 238.077543 -40.792502 
L 237.216331 -40.998875 
L 236.35512 -41.208139 
L 235.493908 -41.417153 
L 234.632697 -41.622788 
L 233.771485 -41.822868 
L 232.910274 -42.016544 
L 232.049062 -42.20394 
L 231.18785 -42.385314 
L 230.326639 -42.560211 
L 229.465427 -42.727068 
L 228.604216 -42.883441 
L 227.743004 -43.02671 
L 226.881793 -43.154873 
L 226.020581 -43.267051 
L 225.15937 -43.363514 
L 224.298158 -43.44527 
L 223.436947 -43.513525 
L 222.575735 -43.569289 
L 221.714524 -43.613331 
L 220.853312 -43.646412 
L 219.992101 -43.669609 
L 219.130889 -43.684506 
L 218.269678 -43.693133 
L 217.408466 -43.697717 
L 216.547254 -43.700375 
L 215.686043 -43.702886 
L 214.824831 -43.706563 
L 213.96362 -43.712228 
L 213.102408 -43.720238 
L 212.241197 -43.730577 
L 211.379985 -43.743028 
L 210.518774 -43.757393 
L 209.657562 -43.773685 
L 208.796351 -43.792154 
L 207.935139 -43.813084 
L 207.073928 -43.836437 
L 206.212716 -43.86153 
L 205.351505 -43.887007 
L 204.490293 -43.911198 
L 203.629082 -43.932723 
L 202.76787 -43.951058 
L 201.906659 -43.966713 
L 201.045447 -43.980938 
L 200.184235 -43.995078 
L 199.323024 -44.00988 
L 198.461812 -44.025058 
L 197.600601 -44.039217 
L 196.739389 -44.050092 
L 195.878178 -44.054905 
L 195.016966 -44.050635 
L 194.155755 -44.034127 
L 193.294543 -44.002052 
L 192.433332 -43.950869 
L 191.57212 -43.876946 
L 190.710909 -43.776859 
L 189.849697 -43.64781 
L 188.988486 -43.487997 
L 188.127274 -43.296822 
L 187.266063 -43.074944 
L 186.404851 -42.824256 
L 185.54364 -42.547856 
L 184.682428 -42.249965 
L 183.821216 -41.935673 
L 182.960005 -41.6104 
L 182.098793 -41.27912 
L 181.237582 -40.945579 
L 180.37637 -40.611815 
L 179.515159 -40.278204 
L 178.653947 -39.944049 
L 177.792736 -39.608441 
L 176.931524 -39.271023 
L 176.070313 -38.932324 
L 175.209101 -38.593545 
L 174.34789 -38.25592 
L 173.486678 -37.920006 
L 172.625467 -37.585235 
L 171.764255 -37.249988 
L 170.903044 -36.91217 
L 170.041832 -36.570037 
L 169.180621 -36.222882 
L 168.319409 -35.871278 
L 167.458197 -35.516756 
L 166.596986 -35.1611 
L 165.735774 -34.805604 
L 164.874563 -34.450629 
L 164.013351 -34.095646 
L 163.15214 -33.739679 
L 162.290928 -33.381874 
L 161.429717 -33.021919 
L 160.568505 -32.660097 
L 159.707294 -32.297031 
L 158.846082 -31.933298 
L 157.984871 -31.569162 
L 157.123659 -31.204597 
L 156.262448 -30.839609 
L 155.401236 -30.474738 
L 154.540025 -30.111551 
L 153.678813 -29.752995 
L 152.817602 -29.403498 
L 151.95639 -29.068793 
L 151.095178 -28.755449 
L 150.233967 -28.470139 
L 149.372755 -28.218726 
L 148.511544 -28.00534 
L 147.650332 -27.831674 
L 146.789121 -27.696692 
L 145.927909 -27.596857 
L 145.066698 -27.526815 
L 144.205486 -27.480329 
L 143.344275 -27.451213 
L 142.483063 -27.434035 
L 141.621852 -27.424505 
L 140.76064 -27.41954 
L 139.899429 -27.417115 
L 139.038217 -27.416004 
z
" style="stroke: #1d4ed8; stroke-width: 0.75"/>
    </defs>
    <g clip-path="url(#p58f27f78e8)">
     <use xlink:href="#m07fe318a20" x="0" y="184.251969" style="fill: #1d4ed8; fill-opacity: 0.25; stroke: #1d4ed8; stroke-width: 0.75"/>
    </g>
   </g>
   <g id="patch_3">
    <path d="M 26.630226 156.83674 
L 26.630226 5.954849 
" style="fill: none; stroke: #000000; stroke-width: 0.3; stroke-linejoin: miter; stroke-linecap: square"/>
   </g>
   <g id="patch_4">
    <path d="M 26.630226 156.83674 
L 332.812959 156.83674 
" style="fill: none; stroke: #000000; stroke-width: 0.3; stroke-linejoin: miter; stroke-linecap: square"/>
   </g>
   <g id="matplotlib.axis_1">
    <g id="xtick_1">
     <g id="line2d_1">
      <defs>
       <path id="m3812a82a98" d="M 0 0 
L 0 2 
" style="stroke: #000000; stroke-width: 0.3"/>
      </defs>
      <g>
       <use xlink:href="#m3812a82a98" x="26.630226" y="156.83674" style="stroke: #000000; stroke-width: 0.3"/>
      </g>
     </g>
     <g id="text_1">
      <!-- 0 -->
      <g transform="translate(24.829015 165.71174) scale(0.065 -0.065)">
       <defs>
        <path id="Roboto-Light-30" d="M 3172 1897 
Q 3172 934 2819 435 
Q 2466 -63 1778 -63 
Q 1103 -63 743 426 
Q 384 916 375 1850 
L 375 2666 
Q 375 3625 731 4119 
Q 1088 4613 1772 4613 
Q 2447 4613 2803 4136 
Q 3159 3659 3172 2731 
L 3172 1897 
z
M 2797 2713 
Q 2797 3494 2542 3894 
Q 2288 4294 1772 4294 
Q 1266 4294 1009 3903 
Q 753 3513 747 2750 
L 747 1856 
Q 747 1078 1011 665 
Q 1275 253 1778 253 
Q 2278 253 2536 656 
Q 2794 1059 2797 1838 
L 2797 2713 
z
" transform="scale(0.015625)"/>
       </defs>
       <use xlink:href="#Roboto-Light-30"/>
      </g>
     </g>
    </g>
    <g id="xtick_2">
     <g id="line2d_2">
      <g>
       <use xlink:href="#m3812a82a98" x="47.042408" y="156.83674" style="stroke: #000000; stroke-width: 0.3"/>
      </g>
     </g>
     <g id="text_2">
      <!-- 4 -->
      <g transform="translate(45.241197 165.71174) scale(0.065 -0.065)">
       <defs>
        <path id="Roboto-Light-34" d="M 2725 1466 
L 3434 1466 
L 3434 1150 
L 2725 1150 
L 2725 0 
L 2350 0 
L 2350 1150 
L 209 1150 
L 209 1363 
L 2316 4550 
L 2725 4550 
L 2725 1466 
z
M 669 1466 
L 2350 1466 
L 2350 4066 
L 2184 3778 
L 669 1466 
z
" transform="scale(0.015625)"/>
       </defs>
       <use xlink:href="#Roboto-Light-34"/>
      </g>
     </g>
    </g>
    <g id="xtick_3">
     <g id="line2d_3">
      <g>
       <use xlink:href="#m3812a82a98" x="67.45459" y="156.83674" style="stroke: #000000; stroke-width: 0.3"/>
      </g>
     </g>
     <g id="text_3">
      <!-- 8 -->
      <g transform="translate(65.653379 165.71174) scale(0.065 -0.065)">
       <defs>
        <path id="Roboto-Light-38" d="M 3109 3378 
Q 3109 3025 2903 2745 
Q 2697 2466 2359 2334 
Q 2753 2200 2990 1900 
Q 3228 1600 3228 1206 
Q 3228 622 2831 279 
Q 2434 -63 1781 -63 
Q 1122 -63 726 278 
Q 331 619 331 1206 
Q 331 1594 559 1897 
Q 788 2200 1184 2334 
Q 847 2466 647 2745 
Q 447 3025 447 3378 
Q 447 3944 811 4278 
Q 1175 4613 1775 4613 
Q 2375 4613 2742 4275 
Q 3109 3938 3109 3378 
z
M 2853 1203 
Q 2853 1628 2550 1901 
Q 2247 2175 1775 2175 
Q 1303 2175 1003 1906 
Q 703 1638 703 1203 
Q 703 769 993 511 
Q 1284 253 1781 253 
Q 2266 253 2559 509 
Q 2853 766 2853 1203 
z
M 2734 3381 
Q 2734 3772 2464 4033 
Q 2194 4294 1775 4294 
Q 1350 4294 1086 4042 
Q 822 3791 822 3381 
Q 822 2981 1086 2737 
Q 1350 2494 1778 2494 
Q 2200 2494 2467 2739 
Q 2734 2984 2734 3381 
z
" transform="scale(0.015625)"/>
       </defs>
       <use xlink:href="#Roboto-Light-38"/>
      </g>
     </g>
    </g>
    <g id="xtick_4">
     <g id="line2d_4">
      <g>
       <use xlink:href="#m3812a82a98" x="87.866773" y="156.83674" style="stroke: #000000; stroke-width: 0.3"/>
      </g>
     </g>
     <g id="text_4">
      <!-- 12 -->
      <g transform="translate(84.264351 165.71174) scale(0.065 -0.065)">
       <defs>
        <path id="Roboto-Light-31" d="M 2169 0 
L 1794 0 
L 1794 4100 
L 556 3641 
L 556 3991 
L 2106 4566 
L 2169 4566 
L 2169 0 
z
" transform="scale(0.015625)"/>
        <path id="Roboto-Light-32" d="M 3278 0 
L 428 0 
L 428 288 
L 1988 2056 
Q 2375 2503 2525 2793 
Q 2675 3084 2675 3359 
Q 2675 3791 2422 4042 
Q 2169 4294 1725 4294 
Q 1266 4294 983 4000 
Q 700 3706 700 3238 
L 328 3238 
Q 328 3622 501 3937 
Q 675 4253 995 4433 
Q 1316 4613 1725 4613 
Q 2350 4613 2701 4284 
Q 3053 3956 3053 3391 
Q 3053 3072 2854 2694 
Q 2656 2316 2156 1750 
L 888 316 
L 3278 316 
L 3278 0 
z
" transform="scale(0.015625)"/>
       </defs>
       <use xlink:href="#Roboto-Light-31"/>
       <use xlink:href="#Roboto-Light-32" transform="translate(55.419922 0)"/>
      </g>
     </g>
    </g>
    <g id="xtick_5">
     <g id="line2d_5">
      <g>
       <use xlink:href="#m3812a82a98" x="108.278955" y="156.83674" style="stroke: #000000; stroke-width: 0.3"/>
      </g>
     </g>
     <g id="text_5">
      <!-- 16 -->
      <g transform="translate(104.676533 165.71174) scale(0.065 -0.065)">
       <defs>
        <path id="Roboto-Light-36" d="M 2634 4584 
L 2634 4256 
L 2591 4256 
Q 1775 4256 1306 3776 
Q 838 3297 788 2444 
Q 975 2703 1265 2845 
Q 1556 2988 1916 2988 
Q 2516 2988 2870 2573 
Q 3225 2159 3225 1491 
Q 3225 1047 3059 690 
Q 2894 334 2584 135 
Q 2275 -63 1878 -63 
Q 1225 -63 815 410 
Q 406 884 406 1634 
L 406 2009 
Q 406 3231 962 3901 
Q 1519 4572 2541 4584 
L 2634 4584 
z
M 1856 2666 
Q 1500 2666 1192 2455 
Q 884 2244 781 1919 
L 781 1600 
Q 781 1006 1086 631 
Q 1391 256 1878 256 
Q 2316 256 2586 603 
Q 2856 950 2856 1478 
Q 2856 2016 2586 2341 
Q 2316 2666 1856 2666 
z
" transform="scale(0.015625)"/>
       </defs>
       <use xlink:href="#Roboto-Light-31"/>
       <use xlink:href="#Roboto-Light-36" transform="translate(55.419922 0)"/>
      </g>
     </g>
    </g>
    <g id="xtick_6">
     <g id="line2d_6">
      <g>
       <use xlink:href="#m3812a82a98" x="128.691137" y="156.83674" style="stroke: #000000; stroke-width: 0.3"/>
      </g>
     </g>
     <g id="text_6">
      <!-- 20 -->
      <g transform="translate(125.088715 165.71174) scale(0.065 -0.065)">
       <use xlink:href="#Roboto-Light-32"/>
       <use xlink:href="#Roboto-Light-30" transform="translate(55.419922 0)"/>
      </g>
     </g>
    </g>
    <g id="xtick_7">
     <g id="line2d_7">
      <g>
       <use xlink:href="#m3812a82a98" x="149.103319" y="156.83674" style="stroke: #000000; stroke-width: 0.3"/>
      </g>
     </g>
     <g id="text_7">
      <!-- 24 -->
      <g transform="translate(145.500897 165.71174) scale(0.065 -0.065)">
       <use xlink:href="#Roboto-Light-32"/>
       <use xlink:href="#Roboto-Light-34" transform="translate(55.419922 0)"/>
      </g>
     </g>
    </g>
    <g id="xtick_8">
     <g id="line2d_8">
      <g>
       <use xlink:href="#m3812a82a98" x="169.515501" y="156.83674" style="stroke: #000000; stroke-width: 0.3"/>
      </g>
     </g>
     <g id="text_8">
      <!-- 28 -->
      <g transform="translate(165.91308 165.71174) scale(0.065 -0.065)">
       <use xlink:href="#Roboto-Light-32"/>
       <use xlink:href="#Roboto-Light-38" transform="translate(55.419922 0)"/>
      </g>
     </g>
    </g>
    <g id="xtick_9">
     <g id="line2d_9">
      <g>
       <use xlink:href="#m3812a82a98" x="189.927684" y="156.83674" style="stroke: #000000; stroke-width: 0.3"/>
      </g>
     </g>
     <g id="text_9">
      <!-- 32 -->
      <g transform="translate(186.325262 165.71174) scale(0.065 -0.065)">
       <defs>
        <path id="Roboto-Light-33" d="M 1259 2478 
L 1647 2478 
Q 1969 2478 2209 2592 
Q 2450 2706 2576 2904 
Q 2703 3103 2703 3363 
Q 2703 3800 2456 4047 
Q 2209 4294 1747 4294 
Q 1309 4294 1029 4036 
Q 750 3778 750 3356 
L 375 3356 
Q 375 3709 553 4001 
Q 731 4294 1047 4453 
Q 1363 4613 1747 4613 
Q 2366 4613 2722 4275 
Q 3078 3938 3078 3350 
Q 3078 3022 2870 2745 
Q 2663 2469 2300 2331 
Q 2725 2213 2944 1923 
Q 3163 1634 3163 1234 
Q 3163 650 2781 293 
Q 2400 -63 1763 -63 
Q 1356 -63 1017 100 
Q 678 263 492 555 
Q 306 847 306 1234 
L 681 1234 
Q 681 800 984 526 
Q 1288 253 1763 253 
Q 2247 253 2517 501 
Q 2788 750 2788 1222 
Q 2788 1678 2495 1918 
Q 2203 2159 1634 2159 
L 1259 2159 
L 1259 2478 
z
" transform="scale(0.015625)"/>
       </defs>
       <use xlink:href="#Roboto-Light-33"/>
       <use xlink:href="#Roboto-Light-32" transform="translate(55.419922 0)"/>
      </g>
     </g>
    </g>
    <g id="xtick_10">
     <g id="line2d_10">
      <g>
       <use xlink:href="#m3812a82a98" x="210.339866" y="156.83674" style="stroke: #000000; stroke-width: 0.3"/>
      </g>
     </g>
     <g id="text_10">
      <!-- 36 -->
      <g transform="translate(206.737444 165.71174) scale(0.065 -0.065)">
       <use xlink:href="#Roboto-Light-33"/>
       <use xlink:href="#Roboto-Light-36" transform="translate(55.419922 0)"/>
      </g>
     </g>
    </g>
    <g id="xtick_11">
     <g id="line2d_11">
      <g>
       <use xlink:href="#m3812a82a98" x="230.752048" y="156.83674" style="stroke: #000000; stroke-width: 0.3"/>
      </g>
     </g>
     <g id="text_11">
      <!-- 40 -->
      <g transform="translate(227.149626 165.71174) scale(0.065 -0.065)">
       <use xlink:href="#Roboto-Light-34"/>
       <use xlink:href="#Roboto-Light-30" transform="translate(55.419922 0)"/>
      </g>
     </g>
    </g>
    <g id="xtick_12">
     <g id="line2d_12">
      <g>
       <use xlink:href="#m3812a82a98" x="251.16423" y="156.83674" style="stroke: #000000; stroke-width: 0.3"/>
      </g>
     </g>
     <g id="text_12">
      <!-- 44 -->
      <g transform="translate(247.561809 165.71174) scale(0.065 -0.065)">
       <use xlink:href="#Roboto-Light-34"/>
       <use xlink:href="#Roboto-Light-34" transform="translate(55.419922 0)"/>
      </g>
     </g>
    </g>
    <g id="xtick_13">
     <g id="line2d_13">
      <g>
       <use xlink:href="#m3812a82a98" x="271.576413" y="156.83674" style="stroke: #000000; stroke-width: 0.3"/>
      </g>
     </g>
     <g id="text_13">
      <!-- 48 -->
      <g transform="translate(267.973991 165.71174) scale(0.065 -0.065)">
       <use xlink:href="#Roboto-Light-34"/>
       <use xlink:href="#Roboto-Light-38" transform="translate(55.419922 0)"/>
      </g>
     </g>
    </g>
    <g id="xtick_14">
     <g id="line2d_14">
      <g>
       <use xlink:href="#m3812a82a98" x="291.988595" y="156.83674" style="stroke: #000000; stroke-width: 0.3"/>
      </g>
     </g>
     <g id="text_14">
      <!-- 52 -->
      <g transform="translate(288.386173 165.71174) scale(0.065 -0.065)">
       <defs>
        <path id="Roboto-Light-35" d="M 681 2331 
L 903 4550 
L 3178 4550 
L 3178 4203 
L 1225 4203 
L 1066 2666 
Q 1431 2916 1922 2916 
Q 2538 2916 2903 2516 
Q 3269 2116 3269 1450 
Q 3269 731 2912 334 
Q 2556 -63 1909 -63 
Q 1316 -63 947 268 
Q 578 600 525 1197 
L 884 1197 
Q 938 731 1200 492 
Q 1463 253 1909 253 
Q 2397 253 2645 562 
Q 2894 872 2894 1444 
Q 2894 1944 2616 2259 
Q 2338 2575 1856 2575 
Q 1591 2575 1394 2508 
Q 1197 2441 978 2247 
L 681 2331 
z
" transform="scale(0.015625)"/>
       </defs>
       <use xlink:href="#Roboto-Light-35"/>
       <use xlink:href="#Roboto-Light-32" transform="translate(55.419922 0)"/>
      </g>
     </g>
    </g>
    <g id="xtick_15">
     <g id="line2d_15">
      <g>
       <use xlink:href="#m3812a82a98" x="312.400777" y="156.83674" style="stroke: #000000; stroke-width: 0.3"/>
      </g>
     </g>
     <g id="text_15">
      <!-- 56 -->
      <g transform="translate(308.798355 165.71174) scale(0.065 -0.065)">
       <use xlink:href="#Roboto-Light-35"/>
       <use xlink:href="#Roboto-Light-36" transform="translate(55.419922 0)"/>
      </g>
     </g>
    </g>
    <g id="xtick_16">
     <g id="line2d_16">
      <g>
       <use xlink:href="#m3812a82a98" x="332.812959" y="156.83674" style="stroke: #000000; stroke-width: 0.3"/>
      </g>
     </g>
     <g id="text_16">
      <!-- 60 -->
      <g transform="translate(329.210537 165.71174) scale(0.065 -0.065)">
       <use xlink:href="#Roboto-Light-36"/>
       <use xlink:href="#Roboto-Light-30" transform="translate(55.419922 0)"/>
      </g>
     </g>
    </g>
    <g id="text_17">
     <!-- Exergy efficiency [%] -->
     <g transform="translate(146.568663 177.125803) scale(0.075 -0.075)">
      <defs>
       <path id="Roboto-Light-45" d="M 3088 2181 
L 959 2181 
L 959 325 
L 3406 325 
L 3406 0 
L 575 0 
L 575 4550 
L 3391 4550 
L 3391 4222 
L 959 4222 
L 959 2506 
L 3088 2506 
L 3088 2181 
z
" transform="scale(0.015625)"/>
       <path id="Roboto-Light-78" d="M 1550 2009 
L 2463 3381 
L 2906 3381 
L 1759 1722 
L 2956 0 
L 2516 0 
L 1553 1431 
L 591 0 
L 150 0 
L 1344 1722 
L 197 3381 
L 638 3381 
L 1550 2009 
z
" transform="scale(0.015625)"/>
       <path id="Roboto-Light-65" d="M 1797 -63 
Q 1366 -63 1017 150 
Q 669 363 475 742 
Q 281 1122 281 1594 
L 281 1728 
Q 281 2216 470 2606 
Q 659 2997 996 3220 
Q 1334 3444 1728 3444 
Q 2344 3444 2705 3023 
Q 3066 2603 3066 1875 
L 3066 1666 
L 653 1666 
L 653 1594 
Q 653 1019 983 636 
Q 1313 253 1813 253 
Q 2113 253 2342 362 
Q 2572 472 2759 713 
L 2994 534 
Q 2581 -63 1797 -63 
z
M 1728 3125 
Q 1306 3125 1017 2815 
Q 728 2506 666 1984 
L 2694 1984 
L 2694 2025 
Q 2678 2513 2415 2819 
Q 2153 3125 1728 3125 
z
" transform="scale(0.015625)"/>
       <path id="Roboto-Light-72" d="M 2050 3063 
Q 1931 3084 1797 3084 
Q 1447 3084 1205 2889 
Q 963 2694 859 2322 
L 859 0 
L 488 0 
L 488 3381 
L 853 3381 
L 859 2844 
Q 1156 3444 1813 3444 
Q 1969 3444 2059 3403 
L 2050 3063 
z
" transform="scale(0.015625)"/>
       <path id="Roboto-Light-67" d="M 338 1722 
Q 338 2516 689 2980 
Q 1041 3444 1644 3444 
Q 2334 3444 2694 2894 
L 2713 3381 
L 3063 3381 
L 3063 69 
Q 3063 -584 2697 -965 
Q 2331 -1347 1706 -1347 
Q 1353 -1347 1033 -1189 
Q 713 -1031 528 -769 
L 738 -544 
Q 1134 -1031 1681 -1031 
Q 2150 -1031 2412 -754 
Q 2675 -478 2684 13 
L 2684 438 
Q 2325 -63 1638 -63 
Q 1050 -63 694 406 
Q 338 875 338 1672 
L 338 1722 
z
M 716 1656 
Q 716 1009 975 636 
Q 1234 263 1706 263 
Q 2397 263 2684 881 
L 2684 2453 
Q 2553 2778 2306 2948 
Q 2059 3119 1713 3119 
Q 1241 3119 978 2748 
Q 716 2378 716 1656 
z
" transform="scale(0.015625)"/>
       <path id="Roboto-Light-79" d="M 1559 538 
L 2547 3381 
L 2950 3381 
L 1506 -575 
L 1431 -750 
Q 1153 -1366 572 -1366 
Q 438 -1366 284 -1322 
L 281 -1013 
L 475 -1031 
Q 750 -1031 920 -895 
Q 1091 -759 1209 -428 
L 1375 28 
L 100 3381 
L 509 3381 
L 1559 538 
z
" transform="scale(0.015625)"/>
       <path id="Roboto-Light-20" transform="scale(0.015625)"/>
       <path id="Roboto-Light-66" d="M 756 0 
L 756 3075 
L 197 3075 
L 197 3381 
L 756 3381 
L 756 3791 
Q 756 4309 1020 4587 
Q 1284 4866 1756 4866 
Q 1969 4866 2153 4813 
L 2125 4500 
Q 1969 4538 1784 4538 
Q 1475 4538 1303 4345 
Q 1131 4153 1131 3800 
L 1131 3381 
L 1938 3381 
L 1938 3075 
L 1131 3075 
L 1131 0 
L 756 0 
z
" transform="scale(0.015625)"/>
       <path id="Roboto-Light-69" d="M 906 0 
L 531 0 
L 531 3381 
L 906 3381 
L 906 0 
z
M 466 4359 
Q 466 4466 534 4539 
Q 603 4613 722 4613 
Q 841 4613 911 4539 
Q 981 4466 981 4359 
Q 981 4253 911 4181 
Q 841 4109 722 4109 
Q 603 4109 534 4181 
Q 466 4253 466 4359 
z
" transform="scale(0.015625)"/>
       <path id="Roboto-Light-63" d="M 1738 253 
Q 2128 253 2392 473 
Q 2656 694 2678 1044 
L 3038 1044 
Q 3022 734 2844 479 
Q 2666 225 2370 81 
Q 2075 -63 1738 -63 
Q 1072 -63 683 400 
Q 294 863 294 1644 
L 294 1756 
Q 294 2256 469 2640 
Q 644 3025 970 3234 
Q 1297 3444 1734 3444 
Q 2291 3444 2652 3112 
Q 3013 2781 3038 2241 
L 2678 2241 
Q 2653 2638 2392 2881 
Q 2131 3125 1734 3125 
Q 1228 3125 948 2759 
Q 669 2394 669 1734 
L 669 1625 
Q 669 978 948 615 
Q 1228 253 1738 253 
z
" transform="scale(0.015625)"/>
       <path id="Roboto-Light-6e" d="M 844 3381 
L 856 2803 
Q 1047 3116 1331 3280 
Q 1616 3444 1959 3444 
Q 2503 3444 2768 3137 
Q 3034 2831 3038 2219 
L 3038 0 
L 2666 0 
L 2666 2222 
Q 2663 2675 2473 2897 
Q 2284 3119 1869 3119 
Q 1522 3119 1255 2901 
Q 988 2684 859 2316 
L 859 0 
L 488 0 
L 488 3381 
L 844 3381 
z
" transform="scale(0.015625)"/>
       <path id="Roboto-Light-5b" d="M 1541 4881 
L 884 4881 
L 884 -656 
L 1541 -656 
L 1541 -975 
L 509 -975 
L 509 5200 
L 1541 5200 
L 1541 4881 
z
" transform="scale(0.015625)"/>
       <path id="Roboto-Light-25" d="M 341 3675 
Q 341 4081 592 4348 
Q 844 4616 1231 4616 
Q 1619 4616 1870 4348 
Q 2122 4081 2122 3656 
L 2122 3434 
Q 2122 3034 1873 2767 
Q 1625 2500 1238 2500 
Q 853 2500 597 2762 
Q 341 3025 341 3456 
L 341 3675 
z
M 644 3434 
Q 644 3144 805 2956 
Q 966 2769 1238 2769 
Q 1503 2769 1661 2958 
Q 1819 3147 1819 3447 
L 1819 3675 
Q 1819 3966 1656 4155 
Q 1494 4344 1231 4344 
Q 972 4344 808 4156 
Q 644 3969 644 3656 
L 644 3434 
z
M 2631 1116 
Q 2631 1522 2882 1787 
Q 3134 2053 3518 2053 
Q 3903 2053 4158 1789 
Q 4413 1525 4413 1094 
L 4413 872 
Q 4413 466 4161 200 
Q 3909 -66 3525 -66 
Q 3141 -66 2886 198 
Q 2631 463 2631 888 
L 2631 1116 
z
M 2931 872 
Q 2931 578 3092 390 
Q 3253 203 3525 203 
Q 3794 203 3951 392 
Q 4109 581 4109 888 
L 4109 1116 
Q 4109 1416 3948 1598 
Q 3788 1781 3519 1781 
Q 3256 1781 3093 1597 
Q 2931 1413 2931 1103 
L 2931 872 
z
M 1356 378 
L 1122 528 
L 3344 4084 
L 3578 3934 
L 1356 378 
z
" transform="scale(0.015625)"/>
       <path id="Roboto-Light-5d" d="M 0 5200 
L 1034 5200 
L 1034 -975 
L 0 -975 
L 0 -656 
L 659 -656 
L 659 4881 
L 0 4881 
L 0 5200 
z
" transform="scale(0.015625)"/>
      </defs>
      <use xlink:href="#Roboto-Light-45"/>
      <use xlink:href="#Roboto-Light-78" transform="translate(56.884766 0)"/>
      <use xlink:href="#Roboto-Light-65" transform="translate(105.517578 0)"/>
      <use xlink:href="#Roboto-Light-72" transform="translate(157.177734 0)"/>
      <use xlink:href="#Roboto-Light-67" transform="translate(190.820312 0)"/>
      <use xlink:href="#Roboto-Light-79" transform="translate(246.289062 0)"/>
      <use xlink:href="#Roboto-Light-20" transform="translate(293.798828 0)"/>
      <use xlink:href="#Roboto-Light-65" transform="translate(318.115234 0)"/>
      <use xlink:href="#Roboto-Light-66" transform="translate(369.775391 0)"/>
      <use xlink:href="#Roboto-Light-66" transform="translate(402.880859 0)"/>
      <use xlink:href="#Roboto-Light-69" transform="translate(435.986328 0)"/>
      <use xlink:href="#Roboto-Light-63" transform="translate(458.398438 0)"/>
      <use xlink:href="#Roboto-Light-69" transform="translate(509.912109 0)"/>
      <use xlink:href="#Roboto-Light-65" transform="translate(532.324219 0)"/>
      <use xlink:href="#Roboto-Light-6e" transform="translate(583.984375 0)"/>
      <use xlink:href="#Roboto-Light-63" transform="translate(638.916016 0)"/>
      <use xlink:href="#Roboto-Light-79" transform="translate(690.429688 0)"/>
      <use xlink:href="#Roboto-Light-20" transform="translate(737.939453 0)"/>
      <use xlink:href="#Roboto-Light-5b" transform="translate(762.255859 0)"/>
      <use xlink:href="#Roboto-Light-25" transform="translate(786.230469 0)"/>
      <use xlink:href="#Roboto-Light-5d" transform="translate(860.107422 0)"/>
     </g>
    </g>
   </g>
   <g id="matplotlib.axis_2">
    <g id="ytick_1">
     <g id="line2d_17">
      <defs>
       <path id="m45cfa2895c" d="M 0 0 
L -2 0 
" style="stroke: #000000; stroke-width: 0.3"/>
      </defs>
      <g>
       <use xlink:href="#m45cfa2895c" x="26.630226" y="156.83674" style="stroke: #000000; stroke-width: 0.3"/>
      </g>
     </g>
     <g id="text_18">
      <!-- 0.0 -->
      <g transform="translate(14.873507 159.27424) scale(0.065 -0.065)">
       <defs>
        <path id="Roboto-Light-2e" d="M 453 225 
Q 453 334 523 411 
Q 594 488 719 488 
Q 844 488 916 411 
Q 988 334 988 225 
Q 988 116 916 45 
Q 844 -25 719 -25 
Q 594 -25 523 45 
Q 453 116 453 225 
z
" transform="scale(0.015625)"/>
       </defs>
       <use xlink:href="#Roboto-Light-30"/>
       <use xlink:href="#Roboto-Light-2e" transform="translate(55.419922 0)"/>
       <use xlink:href="#Roboto-Light-30" transform="translate(79.296875 0)"/>
      </g>
     </g>
    </g>
    <g id="ytick_2">
     <g id="line2d_18">
      <g>
       <use xlink:href="#m45cfa2895c" x="26.630226" y="126.660362" style="stroke: #000000; stroke-width: 0.3"/>
      </g>
     </g>
     <g id="text_19">
      <!-- 0.1 -->
      <g transform="translate(14.873507 129.097862) scale(0.065 -0.065)">
       <use xlink:href="#Roboto-Light-30"/>
       <use xlink:href="#Roboto-Light-2e" transform="translate(55.419922 0)"/>
       <use xlink:href="#Roboto-Light-31" transform="translate(79.296875 0)"/>
      </g>
     </g>
    </g>
    <g id="ytick_3">
     <g id="line2d_19">
      <g>
       <use xlink:href="#m45cfa2895c" x="26.630226" y="96.483984" style="stroke: #000000; stroke-width: 0.3"/>
      </g>
     </g>
     <g id="text_20">
      <!-- 0.2 -->
      <g transform="translate(14.873507 98.921484) scale(0.065 -0.065)">
       <use xlink:href="#Roboto-Light-30"/>
       <use xlink:href="#Roboto-Light-2e" transform="translate(55.419922 0)"/>
       <use xlink:href="#Roboto-Light-32" transform="translate(79.296875 0)"/>
      </g>
     </g>
    </g>
    <g id="ytick_4">
     <g id="line2d_20">
      <g>
       <use xlink:href="#m45cfa2895c" x="26.630226" y="66.307606" style="stroke: #000000; stroke-width: 0.3"/>
      </g>
     </g>
     <g id="text_21">
      <!-- 0.3 -->
      <g transform="translate(14.873507 68.745106) scale(0.065 -0.065)">
       <use xlink:href="#Roboto-Light-30"/>
       <use xlink:href="#Roboto-Light-2e" transform="translate(55.419922 0)"/>
       <use xlink:href="#Roboto-Light-33" transform="translate(79.296875 0)"/>
      </g>
     </g>
    </g>
    <g id="ytick_5">
     <g id="line2d_21">
      <g>
       <use xlink:href="#m45cfa2895c" x="26.630226" y="36.131228" style="stroke: #000000; stroke-width: 0.3"/>
      </g>
     </g>
     <g id="text_22">
      <!-- 0.4 -->
      <g transform="translate(14.873507 38.568728) scale(0.065 -0.065)">
       <use xlink:href="#Roboto-Light-30"/>
       <use xlink:href="#Roboto-Light-2e" transform="translate(55.419922 0)"/>
       <use xlink:href="#Roboto-Light-34" transform="translate(79.296875 0)"/>
      </g>
     </g>
    </g>
    <g id="ytick_6">
     <g id="line2d_22">
      <g>
       <use xlink:href="#m45cfa2895c" x="26.630226" y="5.954849" style="stroke: #000000; stroke-width: 0.3"/>
      </g>
     </g>
     <g id="text_23">
      <!-- 0.5 -->
      <g transform="translate(14.873507 8.392349) scale(0.065 -0.065)">
       <use xlink:href="#Roboto-Light-30"/>
       <use xlink:href="#Roboto-Light-2e" transform="translate(55.419922 0)"/>
       <use xlink:href="#Roboto-Light-35" transform="translate(79.296875 0)"/>
      </g>
     </g>
    </g>
    <g id="text_24">
     <!-- Probability density -->
     <g transform="translate(9.272726 111.457318) rotate(-90) scale(0.075 -0.075)">
      <defs>
       <path id="Roboto-Light-50" d="M 959 1853 
L 959 0 
L 575 0 
L 575 4550 
L 2125 4550 
Q 2834 4550 3245 4187 
Q 3656 3825 3656 3191 
Q 3656 2550 3261 2201 
Q 2866 1853 2116 1853 
L 959 1853 
z
M 959 2178 
L 2125 2178 
Q 2684 2178 2978 2443 
Q 3272 2709 3272 3184 
Q 3272 3656 2980 3936 
Q 2688 4216 2150 4222 
L 959 4222 
L 959 2178 
z
" transform="scale(0.015625)"/>
       <path id="Roboto-Light-6f" d="M 281 1741 
Q 281 2228 470 2618 
Q 659 3009 1004 3226 
Q 1350 3444 1788 3444 
Q 2463 3444 2881 2970 
Q 3300 2497 3300 1716 
L 3300 1638 
Q 3300 1147 3111 755 
Q 2922 363 2578 150 
Q 2234 -63 1794 -63 
Q 1122 -63 701 410 
Q 281 884 281 1666 
L 281 1741 
z
M 656 1638 
Q 656 1031 970 642 
Q 1284 253 1794 253 
Q 2300 253 2614 642 
Q 2928 1031 2928 1669 
L 2928 1741 
Q 2928 2128 2784 2450 
Q 2641 2772 2381 2948 
Q 2122 3125 1788 3125 
Q 1288 3125 972 2733 
Q 656 2341 656 1706 
L 656 1638 
z
" transform="scale(0.015625)"/>
       <path id="Roboto-Light-62" d="M 3209 1656 
Q 3209 866 2859 401 
Q 2509 -63 1919 -63 
Q 1213 -63 850 463 
L 834 0 
L 484 0 
L 484 4800 
L 856 4800 
L 856 2891 
Q 1213 3444 1913 3444 
Q 2513 3444 2861 2986 
Q 3209 2528 3209 1713 
L 3209 1656 
z
M 2834 1722 
Q 2834 2391 2575 2755 
Q 2316 3119 1844 3119 
Q 1484 3119 1234 2942 
Q 984 2766 856 2425 
L 856 900 
Q 1138 263 1850 263 
Q 2313 263 2573 628 
Q 2834 994 2834 1722 
z
" transform="scale(0.015625)"/>
       <path id="Roboto-Light-61" d="M 2622 0 
Q 2566 159 2550 472 
Q 2353 216 2048 76 
Q 1744 -63 1403 -63 
Q 916 -63 614 209 
Q 313 481 313 897 
Q 313 1391 723 1678 
Q 1134 1966 1869 1966 
L 2547 1966 
L 2547 2350 
Q 2547 2713 2323 2920 
Q 2100 3128 1672 3128 
Q 1281 3128 1025 2928 
Q 769 2728 769 2447 
L 394 2450 
Q 394 2853 769 3148 
Q 1144 3444 1691 3444 
Q 2256 3444 2582 3161 
Q 2909 2878 2919 2372 
L 2919 772 
Q 2919 281 3022 38 
L 3022 0 
L 2622 0 
z
M 1447 269 
Q 1822 269 2117 450 
Q 2413 631 2547 934 
L 2547 1678 
L 1878 1678 
Q 1319 1672 1003 1473 
Q 688 1275 688 928 
Q 688 644 898 456 
Q 1109 269 1447 269 
z
" transform="scale(0.015625)"/>
       <path id="Roboto-Light-6c" d="M 906 0 
L 531 0 
L 531 4800 
L 906 4800 
L 906 0 
z
" transform="scale(0.015625)"/>
       <path id="Roboto-Light-74" d="M 1069 4247 
L 1069 3381 
L 1769 3381 
L 1769 3075 
L 1069 3075 
L 1069 822 
Q 1069 541 1170 403 
Q 1272 266 1509 266 
Q 1603 266 1813 297 
L 1828 -9 
Q 1681 -63 1428 -63 
Q 1044 -63 869 160 
Q 694 384 694 819 
L 694 3075 
L 72 3075 
L 72 3381 
L 694 3381 
L 694 4247 
L 1069 4247 
z
" transform="scale(0.015625)"/>
       <path id="Roboto-Light-64" d="M 338 1722 
Q 338 2509 689 2976 
Q 1041 3444 1644 3444 
Q 2328 3444 2688 2903 
L 2688 4800 
L 3059 4800 
L 3059 0 
L 2709 0 
L 2694 450 
Q 2334 -63 1638 -63 
Q 1053 -63 695 407 
Q 338 878 338 1678 
L 338 1722 
z
M 716 1656 
Q 716 1009 975 636 
Q 1234 263 1706 263 
Q 2397 263 2688 872 
L 2688 2459 
Q 2397 3119 1713 3119 
Q 1241 3119 978 2748 
Q 716 2378 716 1656 
z
" transform="scale(0.015625)"/>
       <path id="Roboto-Light-73" d="M 2513 859 
Q 2513 1138 2289 1306 
Q 2066 1475 1616 1570 
Q 1166 1666 917 1789 
Q 669 1913 548 2091 
Q 428 2269 428 2522 
Q 428 2922 762 3183 
Q 1097 3444 1619 3444 
Q 2184 3444 2526 3164 
Q 2869 2884 2869 2434 
L 2494 2434 
Q 2494 2731 2245 2928 
Q 1997 3125 1619 3125 
Q 1250 3125 1026 2961 
Q 803 2797 803 2534 
Q 803 2281 989 2142 
Q 1175 2003 1667 1887 
Q 2159 1772 2404 1640 
Q 2650 1509 2769 1325 
Q 2888 1141 2888 878 
Q 2888 450 2542 193 
Q 2197 -63 1641 -63 
Q 1050 -63 683 223 
Q 316 509 316 947 
L 691 947 
Q 713 619 967 436 
Q 1222 253 1641 253 
Q 2031 253 2272 425 
Q 2513 597 2513 859 
z
" transform="scale(0.015625)"/>
      </defs>
      <use xlink:href="#Roboto-Light-50"/>
      <use xlink:href="#Roboto-Light-72" transform="translate(61.572266 0)"/>
      <use xlink:href="#Roboto-Light-6f" transform="translate(95.214844 0)"/>
      <use xlink:href="#Roboto-Light-62" transform="translate(151.220703 0)"/>
      <use xlink:href="#Roboto-Light-61" transform="translate(206.640625 0)"/>
      <use xlink:href="#Roboto-Light-62" transform="translate(260.205078 0)"/>
      <use xlink:href="#Roboto-Light-69" transform="translate(315.625 0)"/>
      <use xlink:href="#Roboto-Light-6c" transform="translate(338.037109 0)"/>
      <use xlink:href="#Roboto-Light-69" transform="translate(360.449219 0)"/>
      <use xlink:href="#Roboto-Light-74" transform="translate(382.861328 0)"/>
      <use xlink:href="#Roboto-Light-79" transform="translate(414.990234 0)"/>
      <use xlink:href="#Roboto-Light-20" transform="translate(462.5 0)"/>
      <use xlink:href="#Roboto-Light-64" transform="translate(486.816406 0)"/>
      <use xlink:href="#Roboto-Light-65" transform="translate(542.382812 0)"/>
      <use xlink:href="#Roboto-Light-6e" transform="translate(594.042969 0)"/>
      <use xlink:href="#Roboto-Light-73" transform="translate(648.974609 0)"/>
      <use xlink:href="#Roboto-Light-69" transform="translate(699.609375 0)"/>
      <use xlink:href="#Roboto-Light-74" transform="translate(722.021484 0)"/>
      <use xlink:href="#Roboto-Light-79" transform="translate(754.150391 0)"/>
     </g>
    </g>
   </g>
   <g id="legend_1">
    <g id="patch_5">
     <path d="M 230.377959 13.454849 
L 242.377959 13.454849 
L 242.377959 9.254849 
L 230.377959 9.254849 
z
" style="fill: #c2410c; fill-opacity: 0.25; stroke: #c2410c; stroke-width: 0.75; stroke-linejoin: miter"/>
    </g>
    <g id="text_25">
     <!-- Electric boiler -->
     <g transform="translate(245.377959 13.454849) scale(0.06 -0.06)">
      <use xlink:href="#Roboto-Light-45"/>
      <use xlink:href="#Roboto-Light-6c" transform="translate(56.884766 0)"/>
      <use xlink:href="#Roboto-Light-65" transform="translate(79.296875 0)"/>
      <use xlink:href="#Roboto-Light-63" transform="translate(130.957031 0)"/>
      <use xlink:href="#Roboto-Light-74" transform="translate(182.470703 0)"/>
      <use xlink:href="#Roboto-Light-72" transform="translate(214.599609 0)"/>
      <use xlink:href="#Roboto-Light-69" transform="translate(248.242188 0)"/>
      <use xlink:href="#Roboto-Light-63" transform="translate(270.654297 0)"/>
      <use xlink:href="#Roboto-Light-20" transform="translate(322.167969 0)"/>
      <use xlink:href="#Roboto-Light-62" transform="translate(346.484375 0)"/>
      <use xlink:href="#Roboto-Light-6f" transform="translate(401.904297 0)"/>
      <use xlink:href="#Roboto-Light-69" transform="translate(457.910156 0)"/>
      <use xlink:href="#Roboto-Light-6c" transform="translate(480.322266 0)"/>
      <use xlink:href="#Roboto-Light-65" transform="translate(502.734375 0)"/>
      <use xlink:href="#Roboto-Light-72" transform="translate(554.394531 0)"/>
     </g>
    </g>
    <g id="patch_6">
     <path d="M 230.377959 22.773599 
L 242.377959 22.773599 
L 242.377959 18.573599 
L 230.377959 18.573599 
z
" style="fill: #be185d; fill-opacity: 0.25; stroke: #be185d; stroke-width: 0.75; stroke-linejoin: miter"/>
    </g>
    <g id="text_26">
     <!-- Gas boiler -->
     <g transform="translate(245.377959 22.773599) scale(0.06 -0.06)">
      <defs>
       <path id="Roboto-Light-47" d="M 3859 541 
Q 3659 256 3232 96 
Q 2806 -63 2278 -63 
Q 1744 -63 1328 193 
Q 913 450 684 919 
Q 456 1388 453 1994 
L 453 2569 
Q 453 3516 931 4064 
Q 1409 4613 2216 4613 
Q 2919 4613 3347 4255 
Q 3775 3897 3856 3269 
L 3472 3269 
Q 3388 3769 3064 4026 
Q 2741 4284 2219 4284 
Q 1581 4284 1209 3831 
Q 838 3378 838 2553 
L 838 2016 
Q 838 1497 1014 1098 
Q 1191 700 1520 481 
Q 1850 263 2278 263 
Q 2775 263 3131 419 
Q 3363 522 3475 659 
L 3475 1834 
L 2253 1834 
L 2253 2159 
L 3859 2159 
L 3859 541 
z
" transform="scale(0.015625)"/>
      </defs>
      <use xlink:href="#Roboto-Light-47"/>
      <use xlink:href="#Roboto-Light-61" transform="translate(68.359375 0)"/>
      <use xlink:href="#Roboto-Light-73" transform="translate(121.923828 0)"/>
      <use xlink:href="#Roboto-Light-20" transform="translate(172.558594 0)"/>
      <use xlink:href="#Roboto-Light-62" transform="translate(196.875 0)"/>
      <use xlink:href="#Roboto-Light-6f" transform="translate(252.294922 0)"/>
      <use xlink:href="#Roboto-Light-69" transform="translate(308.300781 0)"/>
      <use xlink:href="#Roboto-Light-6c" transform="translate(330.712891 0)"/>
      <use xlink:href="#Roboto-Light-65" transform="translate(353.125 0)"/>
      <use xlink:href="#Roboto-Light-72" transform="translate(404.785156 0)"/>
     </g>
    </g>
    <g id="patch_7">
     <path d="M 230.377959 32.092349 
L 242.377959 32.092349 
L 242.377959 27.892349 
L 230.377959 27.892349 
z
" style="fill: #4338ca; fill-opacity: 0.25; stroke: #4338ca; stroke-width: 0.75; stroke-linejoin: miter"/>
    </g>
    <g id="text_27">
     <!-- Heat pump boiler -->
     <g transform="translate(245.377959 32.092349) scale(0.06 -0.06)">
      <defs>
       <path id="Roboto-Light-48" d="M 3947 0 
L 3559 0 
L 3559 2181 
L 959 2181 
L 959 0 
L 575 0 
L 575 4550 
L 959 4550 
L 959 2506 
L 3559 2506 
L 3559 4550 
L 3947 4550 
L 3947 0 
z
" transform="scale(0.015625)"/>
       <path id="Roboto-Light-70" d="M 3206 1656 
Q 3206 866 2856 401 
Q 2506 -63 1919 -63 
Q 1225 -63 856 425 
L 856 -1300 
L 484 -1300 
L 484 3381 
L 831 3381 
L 850 2903 
Q 1216 3444 1909 3444 
Q 2516 3444 2861 2984 
Q 3206 2525 3206 1709 
L 3206 1656 
z
M 2831 1722 
Q 2831 2369 2565 2744 
Q 2300 3119 1825 3119 
Q 1481 3119 1234 2953 
Q 988 2788 856 2472 
L 856 850 
Q 991 559 1241 406 
Q 1491 253 1831 253 
Q 2303 253 2567 629 
Q 2831 1006 2831 1722 
z
" transform="scale(0.015625)"/>
       <path id="Roboto-Light-75" d="M 2663 428 
Q 2325 -63 1584 -63 
Q 1044 -63 762 251 
Q 481 566 475 1181 
L 475 3381 
L 847 3381 
L 847 1228 
Q 847 263 1628 263 
Q 2441 263 2656 934 
L 2656 3381 
L 3031 3381 
L 3031 0 
L 2669 0 
L 2663 428 
z
" transform="scale(0.015625)"/>
       <path id="Roboto-Light-6d" d="M 828 3381 
L 841 2831 
Q 1028 3138 1309 3291 
Q 1591 3444 1934 3444 
Q 2734 3444 2950 2788 
Q 3131 3103 3434 3273 
Q 3738 3444 4103 3444 
Q 5191 3444 5213 2256 
L 5213 0 
L 4838 0 
L 4838 2228 
Q 4834 2681 4642 2900 
Q 4450 3119 4016 3119 
Q 3613 3113 3334 2858 
Q 3056 2603 3025 2238 
L 3025 0 
L 2650 0 
L 2650 2256 
Q 2647 2691 2445 2905 
Q 2244 3119 1825 3119 
Q 1472 3119 1219 2917 
Q 966 2716 844 2319 
L 844 0 
L 469 0 
L 469 3381 
L 828 3381 
z
" transform="scale(0.015625)"/>
      </defs>
      <use xlink:href="#Roboto-Light-48"/>
      <use xlink:href="#Roboto-Light-65" transform="translate(70.751953 0)"/>
      <use xlink:href="#Roboto-Light-61" transform="translate(122.412109 0)"/>
      <use xlink:href="#Roboto-Light-74" transform="translate(175.976562 0)"/>
      <use xlink:href="#Roboto-Light-20" transform="translate(208.105469 0)"/>
      <use xlink:href="#Roboto-Light-70" transform="translate(232.421875 0)"/>
      <use xlink:href="#Roboto-Light-75" transform="translate(287.841797 0)"/>
      <use xlink:href="#Roboto-Light-6d" transform="translate(342.773438 0)"/>
      <use xlink:href="#Roboto-Light-70" transform="translate(431.396484 0)"/>
      <use xlink:href="#Roboto-Light-20" transform="translate(486.816406 0)"/>
      <use xlink:href="#Roboto-Light-62" transform="translate(511.132812 0)"/>
      <use xlink:href="#Roboto-Light-6f" transform="translate(566.552734 0)"/>
      <use xlink:href="#Roboto-Light-69" transform="translate(622.558594 0)"/>
      <use xlink:href="#Roboto-Light-6c" transform="translate(644.970703 0)"/>
      <use xlink:href="#Roboto-Light-65" transform="translate(667.382812 0)"/>
      <use xlink:href="#Roboto-Light-72" transform="translate(719.042969 0)"/>
     </g>
    </g>
    <g id="patch_8">
     <path d="M 230.377959 41.411099 
L 242.377959 41.411099 
L 242.377959 37.211099 
L 230.377959 37.211099 
z
" style="fill: #15803d; fill-opacity: 0.25; stroke: #15803d; stroke-width: 0.75; stroke-linejoin: miter"/>
    </g>
    <g id="text_28">
     <!-- Solar-assisted gas boiler -->
     <g transform="translate(245.377959 41.411099) scale(0.06 -0.06)">
      <defs>
       <path id="Roboto-Light-53" d="M 3150 1119 
Q 3150 1497 2884 1717 
Q 2619 1938 1912 2136 
Q 1206 2334 881 2569 
Q 419 2900 419 3438 
Q 419 3959 848 4286 
Q 1278 4613 1947 4613 
Q 2400 4613 2758 4438 
Q 3116 4263 3312 3950 
Q 3509 3638 3509 3253 
L 3122 3253 
Q 3122 3719 2803 4001 
Q 2484 4284 1947 4284 
Q 1425 4284 1115 4051 
Q 806 3819 806 3444 
Q 806 3097 1084 2878 
Q 1363 2659 1975 2492 
Q 2588 2325 2903 2145 
Q 3219 1966 3378 1716 
Q 3538 1466 3538 1125 
Q 3538 588 3108 262 
Q 2678 -63 1975 -63 
Q 1494 -63 1092 109 
Q 691 281 483 590 
Q 275 900 275 1300 
L 659 1300 
Q 659 819 1018 541 
Q 1378 263 1975 263 
Q 2506 263 2828 497 
Q 3150 731 3150 1119 
z
" transform="scale(0.015625)"/>
       <path id="Roboto-Light-2d" d="M 1650 1850 
L 153 1850 
L 153 2166 
L 1650 2166 
L 1650 1850 
z
" transform="scale(0.015625)"/>
      </defs>
      <use xlink:href="#Roboto-Light-53"/>
      <use xlink:href="#Roboto-Light-6f" transform="translate(59.228516 0)"/>
      <use xlink:href="#Roboto-Light-6c" transform="translate(115.234375 0)"/>
      <use xlink:href="#Roboto-Light-61" transform="translate(137.646484 0)"/>
      <use xlink:href="#Roboto-Light-72" transform="translate(191.210938 0)"/>
      <use xlink:href="#Roboto-Light-2d" transform="translate(224.853516 0)"/>
      <use xlink:href="#Roboto-Light-61" transform="translate(253.466797 0)"/>
      <use xlink:href="#Roboto-Light-73" transform="translate(307.03125 0)"/>
      <use xlink:href="#Roboto-Light-73" transform="translate(357.666016 0)"/>
      <use xlink:href="#Roboto-Light-69" transform="translate(408.300781 0)"/>
      <use xlink:href="#Roboto-Light-73" transform="translate(430.712891 0)"/>
      <use xlink:href="#Roboto-Light-74" transform="translate(481.347656 0)"/>
      <use xlink:href="#Roboto-Light-65" transform="translate(513.476562 0)"/>
      <use xlink:href="#Roboto-Light-64" transform="translate(565.136719 0)"/>
      <use xlink:href="#Roboto-Light-20" transform="translate(620.703125 0)"/>
      <use xlink:href="#Roboto-Light-67" transform="translate(645.019531 0)"/>
      <use xlink:href="#Roboto-Light-61" transform="translate(700.488281 0)"/>
      <use xlink:href="#Roboto-Light-73" transform="translate(754.052734 0)"/>
      <use xlink:href="#Roboto-Light-20" transform="translate(804.6875 0)"/>
      <use xlink:href="#Roboto-Light-62" transform="translate(829.003906 0)"/>
      <use xlink:href="#Roboto-Light-6f" transform="translate(884.423828 0)"/>
      <use xlink:href="#Roboto-Light-69" transform="translate(940.429688 0)"/>
      <use xlink:href="#Roboto-Light-6c" transform="translate(962.841797 0)"/>
      <use xlink:href="#Roboto-Light-65" transform="translate(985.253906 0)"/>
      <use xlink:href="#Roboto-Light-72" transform="translate(1036.914062 0)"/>
     </g>
    </g>
    <g id="patch_9">
     <path d="M 230.377959 50.773912 
L 242.377959 50.773912 
L 242.377959 46.573912 
L 230.377959 46.573912 
z
" style="fill: #1d4ed8; fill-opacity: 0.25; stroke: #1d4ed8; stroke-width: 0.75; stroke-linejoin: miter"/>
    </g>
    <g id="text_29">
     <!-- Ground source heat pump boiler -->
     <g transform="translate(245.377959 50.773912) scale(0.06 -0.06)">
      <defs>
       <path id="Roboto-Light-68" d="M 859 2809 
Q 1044 3113 1331 3278 
Q 1619 3444 1959 3444 
Q 2503 3444 2768 3137 
Q 3034 2831 3038 2219 
L 3038 0 
L 2666 0 
L 2666 2222 
Q 2663 2675 2473 2897 
Q 2284 3119 1869 3119 
Q 1522 3119 1255 2901 
Q 988 2684 859 2316 
L 859 0 
L 488 0 
L 488 4800 
L 859 4800 
L 859 2809 
z
" transform="scale(0.015625)"/>
      </defs>
      <use xlink:href="#Roboto-Light-47"/>
      <use xlink:href="#Roboto-Light-72" transform="translate(68.359375 0)"/>
      <use xlink:href="#Roboto-Light-6f" transform="translate(102.001953 0)"/>
      <use xlink:href="#Roboto-Light-75" transform="translate(158.007812 0)"/>
      <use xlink:href="#Roboto-Light-6e" transform="translate(212.939453 0)"/>
      <use xlink:href="#Roboto-Light-64" transform="translate(267.871094 0)"/>
      <use xlink:href="#Roboto-Light-20" transform="translate(323.4375 0)"/>
      <use xlink:href="#Roboto-Light-73" transform="translate(347.753906 0)"/>
      <use xlink:href="#Roboto-Light-6f" transform="translate(398.388672 0)"/>
      <use xlink:href="#Roboto-Light-75" transform="translate(454.394531 0)"/>
      <use xlink:href="#Roboto-Light-72" transform="translate(509.326172 0)"/>
      <use xlink:href="#Roboto-Light-63" transform="translate(542.96875 0)"/>
      <use xlink:href="#Roboto-Light-65" transform="translate(594.482422 0)"/>
      <use xlink:href="#Roboto-Light-20" transform="translate(646.142578 0)"/>
      <use xlink:href="#Roboto-Light-68" transform="translate(670.458984 0)"/>
      <use xlink:href="#Roboto-Light-65" transform="translate(725.341797 0)"/>
      <use xlink:href="#Roboto-Light-61" transform="translate(777.001953 0)"/>
      <use xlink:href="#Roboto-Light-74" transform="translate(830.566406 0)"/>
      <use xlink:href="#Roboto-Light-20" transform="translate(862.695312 0)"/>
      <use xlink:href="#Roboto-Light-70" transform="translate(887.011719 0)"/>
      <use xlink:href="#Roboto-Light-75" transform="translate(942.431641 0)"/>
      <use xlink:href="#Roboto-Light-6d" transform="translate(997.363281 0)"/>
      <use xlink:href="#Roboto-Light-70" transform="translate(1085.986328 0)"/>
      <use xlink:href="#Roboto-Light-20" transform="translate(1141.40625 0)"/>
      <use xlink:href="#Roboto-Light-62" transform="translate(1165.722656 0)"/>
      <use xlink:href="#Roboto-Light-6f" transform="translate(1221.142578 0)"/>
      <use xlink:href="#Roboto-Light-69" transform="translate(1277.148438 0)"/>
      <use xlink:href="#Roboto-Light-6c" transform="translate(1299.560547 0)"/>
      <use xlink:href="#Roboto-Light-65" transform="translate(1321.972656 0)"/>
      <use xlink:href="#Roboto-Light-72" transform="translate(1373.632812 0)"/>
     </g>
    </g>
   </g>
  </g>
 </g>
 <defs>
  <clipPath id="p58f27f78e8">
   <rect x="26.630226" y="5.954849" width="306.182734" height="150.881891"/>
  </clipPath>
 </defs>
</svg>
