<?xml version="1.0" encoding="utf-8" standalone="no"?>
<!DOCTYPE svg PUBLIC "-//W3C//DTD SVG 1.1//EN"
  "http://www.w3.org/Graphics/SVG/1.1/DTD/svg11.dtd">
<svg xmlns:xlink="http://www.w3.org/1999/xlink" width="340.15748pt" height="184.251969pt" viewBox="0 0 340.15748 184.251969" xmlns="http://www.w3.org/2000/svg" version="1.1">
 <metadata>
  <rdf:RDF xmlns:dc="http://purl.org/dc/elements/1.1/" xmlns:cc="http://creativecommons.org/ns#" xmlns:rdf="http://www.w3.org/1999/02/22-rdf-syntax-ns#">
   <cc:Work>
    <dc:type rdf:resource="http://purl.org/dc/dcmitype/StillImage"/>
    <dc:date>2025-07-22T21:45:36.349526</dc:date>
    <dc:format>image/svg+xml</dc:format>
    <dc:creator>
     <cc:Agent>
      <dc:title>Matplotlib v3.10.3, https://matplotlib.org/</dc:title>
     </cc:Agent>
    </dc:creator>
   </cc:Work>
  </rdf:RDF>
 </metadata>
 <defs>
  <style type="text/css">*{stroke-linejoin: round; stroke-linecap: butt}</style>
 </defs>
 <g id="figure_1">
  <g id="patch_1">
   <path d="M 0 184.251969 
L 340.15748 184.251969 
L 340.15748 0 
L 0 0 
L 0 184.251969 
z
" style="fill: none"/>
  </g>
  <g id="axes_1">
   <g id="patch_2">
    <path d="M 26.630226 156.83674 
L 332.812959 156.83674 
L 332.812959 5.954849 
L 26.630226 5.954849 
L 26.630226 156.83674 
z
" style="fill: none"/>
   </g>
   <g id="FillBetweenPolyCollection_1">
    <defs>
     <path id="mc0cd8213be" d="M 110.635519 -27.415885 
L 110.635519 -27.415228 
L 111.138263 -27.415228 
L 111.641008 -27.415228 
L 112.143752 -27.415228 
L 112.646496 -27.415228 
L 113.14924 -27.415228 
L 113.651984 -27.415228 
L 114.154728 -27.415228 
L 114.657472 -27.415228 
L 115.160216 -27.415228 
L 115.66296 -27.415228 
L 116.165704 -27.415228 
L 116.668448 -27.415228 
L 117.171192 -27.415228 
L 117.673936 -27.415228 
L 118.17668 -27.415228 
L 118.679424 -27.415228 
L 119.182168 -27.415228 
L 119.684912 -27.415228 
L 120.187656 -27.415228 
L 120.6904 -27.415228 
L 121.193144 -27.415228 
L 121.695888 -27.415228 
L 122.198633 -27.415228 
L 122.701377 -27.415228 
L 123.204121 -27.415228 
L 123.706865 -27.415228 
L 124.209609 -27.415228 
L 124.712353 -27.415228 
L 125.215097 -27.415228 
L 125.717841 -27.415228 
L 126.220585 -27.415228 
L 126.723329 -27.415228 
L 127.226073 -27.415228 
L 127.728817 -27.415228 
L 128.231561 -27.415228 
L 128.734305 -27.415228 
L 129.237049 -27.415228 
L 129.739793 -27.415228 
L 130.242537 -27.415228 
L 130.745281 -27.415228 
L 131.248025 -27.415228 
L 131.750769 -27.415228 
L 132.253513 -27.415228 
L 132.756258 -27.415228 
L 133.259002 -27.415228 
L 133.761746 -27.415228 
L 134.26449 -27.415228 
L 134.767234 -27.415228 
L 135.269978 -27.415228 
L 135.772722 -27.415228 
L 136.275466 -27.415228 
L 136.77821 -27.415228 
L 137.280954 -27.415228 
L 137.783698 -27.415228 
L 138.286442 -27.415228 
L 138.789186 -27.415228 
L 139.29193 -27.415228 
L 139.794674 -27.415228 
L 140.297418 -27.415228 
L 140.800162 -27.415228 
L 141.302906 -27.415228 
L 141.80565 -27.415228 
L 142.308394 -27.415228 
L 142.811138 -27.415228 
L 143.313883 -27.415228 
L 143.816627 -27.415228 
L 144.319371 -27.415228 
L 144.822115 -27.415228 
L 145.324859 -27.415228 
L 145.827603 -27.415228 
L 146.330347 -27.415228 
L 146.833091 -27.415228 
L 147.335835 -27.415228 
L 147.838579 -27.415228 
L 148.341323 -27.415228 
L 148.844067 -27.415228 
L 149.346811 -27.415228 
L 149.849555 -27.415228 
L 150.352299 -27.415228 
L 150.855043 -27.415228 
L 151.357787 -27.415228 
L 151.860531 -27.415228 
L 152.363275 -27.415228 
L 152.866019 -27.415228 
L 153.368763 -27.415228 
L 153.871507 -27.415228 
L 154.374252 -27.415228 
L 154.876996 -27.415228 
L 155.37974 -27.415228 
L 155.882484 -27.415228 
L 156.385228 -27.415228 
L 156.887972 -27.415228 
L 157.390716 -27.415228 
L 157.89346 -27.415228 
L 158.396204 -27.415228 
L 158.898948 -27.415228 
L 159.401692 -27.415228 
L 159.904436 -27.415228 
L 160.40718 -27.415228 
L 160.909924 -27.415228 
L 161.412668 -27.415228 
L 161.915412 -27.415228 
L 162.418156 -27.415228 
L 162.9209 -27.415228 
L 163.423644 -27.415228 
L 163.926388 -27.415228 
L 164.429132 -27.415228 
L 164.931877 -27.415228 
L 165.434621 -27.415228 
L 165.937365 -27.415228 
L 166.440109 -27.415228 
L 166.942853 -27.415228 
L 167.445597 -27.415228 
L 167.948341 -27.415228 
L 168.451085 -27.415228 
L 168.953829 -27.415228 
L 169.456573 -27.415228 
L 169.959317 -27.415228 
L 170.462061 -27.415228 
L 170.964805 -27.415228 
L 171.467549 -27.415228 
L 171.970293 -27.415228 
L 172.473037 -27.415228 
L 172.975781 -27.415228 
L 173.478525 -27.415228 
L 173.981269 -27.415228 
L 174.484013 -27.415228 
L 174.986757 -27.415228 
L 175.489502 -27.415228 
L 175.992246 -27.415228 
L 176.49499 -27.415228 
L 176.997734 -27.415228 
L 177.500478 -27.415228 
L 178.003222 -27.415228 
L 178.505966 -27.415228 
L 179.00871 -27.415228 
L 179.511454 -27.415228 
L 180.014198 -27.415228 
L 180.516942 -27.415228 
L 181.019686 -27.415228 
L 181.52243 -27.415228 
L 182.025174 -27.415228 
L 182.527918 -27.415228 
L 183.030662 -27.415228 
L 183.533406 -27.415228 
L 184.03615 -27.415228 
L 184.538894 -27.415228 
L 185.041638 -27.415228 
L 185.544382 -27.415228 
L 186.047127 -27.415228 
L 186.549871 -27.415228 
L 187.052615 -27.415228 
L 187.555359 -27.415228 
L 188.058103 -27.415228 
L 188.560847 -27.415228 
L 189.063591 -27.415228 
L 189.566335 -27.415228 
L 190.069079 -27.415228 
L 190.571823 -27.415228 
L 191.074567 -27.415228 
L 191.577311 -27.415228 
L 192.080055 -27.415228 
L 192.582799 -27.415228 
L 193.085543 -27.415228 
L 193.588287 -27.415228 
L 194.091031 -27.415228 
L 194.593775 -27.415228 
L 195.096519 -27.415228 
L 195.599263 -27.415228 
L 196.102007 -27.415228 
L 196.604752 -27.415228 
L 197.107496 -27.415228 
L 197.61024 -27.415228 
L 198.112984 -27.415228 
L 198.615728 -27.415228 
L 199.118472 -27.415228 
L 199.621216 -27.415228 
L 200.12396 -27.415228 
L 200.626704 -27.415228 
L 201.129448 -27.415228 
L 201.632192 -27.415228 
L 202.134936 -27.415228 
L 202.63768 -27.415228 
L 203.140424 -27.415228 
L 203.643168 -27.415228 
L 204.145912 -27.415228 
L 204.648656 -27.415228 
L 205.1514 -27.415228 
L 205.654144 -27.415228 
L 206.156888 -27.415228 
L 206.659632 -27.415228 
L 207.162376 -27.415228 
L 207.665121 -27.415228 
L 208.167865 -27.415228 
L 208.670609 -27.415228 
L 209.173353 -27.415228 
L 209.676097 -27.415228 
L 210.178841 -27.415228 
L 210.681585 -27.415228 
L 210.681585 -27.425607 
L 210.681585 -27.425607 
L 210.178841 -27.437425 
L 209.676097 -27.460501 
L 209.173353 -27.503346 
L 208.670609 -27.579007 
L 208.167865 -27.706146 
L 207.665121 -27.909524 
L 207.162376 -28.219409 
L 206.659632 -28.669441 
L 206.156888 -29.292849 
L 205.654144 -30.117362 
L 205.1514 -31.159705 
L 204.648656 -32.421003 
L 204.145912 -33.8844 
L 203.643168 -35.515809 
L 203.140424 -37.267915 
L 202.63768 -39.086608 
L 202.134936 -40.918376 
L 201.632192 -42.716944 
L 201.129448 -44.447757 
L 200.626704 -46.089601 
L 200.12396 -47.633512 
L 199.621216 -49.079723 
L 199.118472 -50.433779 
L 198.615728 -51.702869 
L 198.112984 -52.89315 
L 197.61024 -54.008385 
L 197.107496 -55.049852 
L 196.604752 -56.01717 
L 196.102007 -56.909582 
L 195.599263 -57.72722 
L 195.096519 -58.472011 
L 194.593775 -59.148041 
L 194.091031 -59.761387 
L 193.588287 -60.31955 
L 193.085543 -60.830706 
L 192.582799 -61.302961 
L 192.080055 -61.743753 
L 191.577311 -62.159448 
L 191.074567 -62.555118 
L 190.571823 -62.934507 
L 190.069079 -63.300144 
L 189.566335 -63.65361 
L 189.063591 -63.995911 
L 188.560847 -64.327879 
L 188.058103 -64.650452 
L 187.555359 -64.96476 
L 187.052615 -65.271996 
L 186.549871 -65.573159 
L 186.047127 -65.868848 
L 185.544382 -66.159238 
L 185.041638 -66.444242 
L 184.538894 -66.723736 
L 184.03615 -66.997602 
L 183.533406 -67.265391 
L 183.030662 -67.525481 
L 182.527918 -67.773803 
L 182.025174 -68.002308 
L 181.52243 -68.197463 
L 181.019686 -68.339138 
L 180.516942 -68.400289 
L 180.014198 -68.347876 
L 179.511454 -68.145364 
L 179.00871 -67.756878 
L 178.505966 -67.152616 
L 178.003222 -66.314602 
L 177.500478 -65.241444 
L 176.997734 -63.950758 
L 176.49499 -62.478343 
L 175.992246 -60.874024 
L 175.489502 -59.194998 
L 174.986757 -57.498233 
L 174.484013 -55.833689 
L 173.981269 -54.239756 
L 173.478525 -52.741603 
L 172.975781 -51.352198 
L 172.473037 -50.075173 
L 171.970293 -48.908373 
L 171.467549 -47.847073 
L 170.964805 -46.886233 
L 170.462061 -46.021587 
L 169.959317 -45.249712 
L 169.456573 -44.567437 
L 168.953829 -43.970965 
L 168.451085 -43.45508 
L 167.948341 -43.0127 
L 167.445597 -42.634914 
L 166.942853 -42.311494 
L 166.440109 -42.031748 
L 165.937365 -41.785476 
L 165.434621 -41.563781 
L 164.931877 -41.359576 
L 164.429132 -41.167732 
L 163.926388 -40.98492 
L 163.423644 -40.809273 
L 162.9209 -40.639993 
L 162.418156 -40.47697 
L 161.915412 -40.320446 
L 161.412668 -40.170726 
L 160.909924 -40.027947 
L 160.40718 -39.891933 
L 159.904436 -39.762173 
L 159.401692 -39.63795 
L 158.898948 -39.518565 
L 158.396204 -39.403575 
L 157.89346 -39.292915 
L 157.390716 -39.186844 
L 156.887972 -39.085687 
L 156.385228 -38.989464 
L 155.882484 -38.897552 
L 155.37974 -38.808524 
L 154.876996 -38.720293 
L 154.374252 -38.630555 
L 153.871507 -38.537422 
L 153.368763 -38.44003 
L 152.866019 -38.338902 
L 152.363275 -38.235883 
L 151.860531 -38.133681 
L 151.357787 -38.035136 
L 150.855043 -37.942521 
L 150.352299 -37.857075 
L 149.849555 -37.778906 
L 149.346811 -37.707201 
L 148.844067 -37.640602 
L 148.341323 -37.577561 
L 147.838579 -37.516573 
L 147.335835 -37.456274 
L 146.833091 -37.395475 
L 146.330347 -37.333209 
L 145.827603 -37.268831 
L 145.324859 -37.202164 
L 144.822115 -37.133611 
L 144.319371 -37.064169 
L 143.816627 -36.995264 
L 143.313883 -36.928439 
L 142.811138 -36.864945 
L 142.308394 -36.805387 
L 141.80565 -36.749544 
L 141.302906 -36.696434 
L 140.800162 -36.644626 
L 140.297418 -36.592668 
L 139.794674 -36.539467 
L 139.29193 -36.484501 
L 138.789186 -36.42776 
L 138.286442 -36.369487 
L 137.783698 -36.309813 
L 137.280954 -36.248432 
L 136.77821 -36.184417 
L 136.275466 -36.116195 
L 135.772722 -36.041674 
L 135.269978 -35.958424 
L 134.767234 -35.863873 
L 134.26449 -35.755493 
L 133.761746 -35.630973 
L 133.259002 -35.488423 
L 132.756258 -35.326591 
L 132.253513 -35.145083 
L 131.750769 -34.944521 
L 131.248025 -34.726574 
L 130.745281 -34.49382 
L 130.242537 -34.249454 
L 129.739793 -33.996879 
L 129.237049 -33.739292 
L 128.734305 -33.479337 
L 128.231561 -33.218912 
L 127.728817 -32.959135 
L 127.226073 -32.700448 
L 126.723329 -32.442803 
L 126.220585 -32.185876 
L 125.717841 -31.929253 
L 125.215097 -31.672566 
L 124.712353 -31.415569 
L 124.209609 -31.158155 
L 123.706865 -30.900335 
L 123.204121 -30.642212 
L 122.701377 -30.383984 
L 122.198633 -30.125998 
L 121.695888 -29.868867 
L 121.193144 -29.613602 
L 120.6904 -29.361745 
L 120.187656 -29.115434 
L 119.684912 -28.877378 
L 119.182168 -28.650721 
L 118.679424 -28.4388 
L 118.17668 -28.244834 
L 117.673936 -28.07157 
L 117.171192 -27.920966 
L 116.668448 -27.793933 
L 116.165704 -27.690226 
L 115.66296 -27.60848 
L 115.160216 -27.546403 
L 114.657472 -27.501077 
L 114.154728 -27.469311 
L 113.651984 -27.447975 
L 113.14924 -27.43426 
L 112.646496 -27.425832 
L 112.143752 -27.420886 
L 111.641008 -27.418116 
L 111.138263 -27.416637 
L 110.635519 -27.415885 
z
" style="stroke: #be185d; stroke-width: 0.75"/>
    </defs>
    <g clip-path="url(#p8d4c016bb7)">
     <use xlink:href="#mc0cd8213be" x="0" y="184.251969" style="fill: #be185d; fill-opacity: 0.25; stroke: #be185d; stroke-width: 0.75"/>
    </g>
   </g>
   <g id="FillBetweenPolyCollection_2">
    <defs>
     <path id="m2b2b29df23" d="M 142.324767 -27.415388 
L 142.324767 -27.415228 
L 142.744003 -27.415228 
L 143.16324 -27.415228 
L 143.582476 -27.415228 
L 144.001713 -27.415228 
L 144.420949 -27.415228 
L 144.840185 -27.415228 
L 145.259422 -27.415228 
L 145.678658 -27.415228 
L 146.097895 -27.415228 
L 146.517131 -27.415228 
L 146.936367 -27.415228 
L 147.355604 -27.415228 
L 147.77484 -27.415228 
L 148.194077 -27.415228 
L 148.613313 -27.415228 
L 149.032549 -27.415228 
L 149.451786 -27.415228 
L 149.871022 -27.415228 
L 150.290259 -27.415228 
L 150.709495 -27.415228 
L 151.128731 -27.415228 
L 151.547968 -27.415228 
L 151.967204 -27.415228 
L 152.386441 -27.415228 
L 152.805677 -27.415228 
L 153.224913 -27.415228 
L 153.64415 -27.415228 
L 154.063386 -27.415228 
L 154.482623 -27.415228 
L 154.901859 -27.415228 
L 155.321095 -27.415228 
L 155.740332 -27.415228 
L 156.159568 -27.415228 
L 156.578805 -27.415228 
L 156.998041 -27.415228 
L 157.417277 -27.415228 
L 157.836514 -27.415228 
L 158.25575 -27.415228 
L 158.674987 -27.415228 
L 159.094223 -27.415228 
L 159.513459 -27.415228 
L 159.932696 -27.415228 
L 160.351932 -27.415228 
L 160.771169 -27.415228 
L 161.190405 -27.415228 
L 161.609642 -27.415228 
L 162.028878 -27.415228 
L 162.448114 -27.415228 
L 162.867351 -27.415228 
L 163.286587 -27.415228 
L 163.705824 -27.415228 
L 164.12506 -27.415228 
L 164.544296 -27.415228 
L 164.963533 -27.415228 
L 165.382769 -27.415228 
L 165.802006 -27.415228 
L 166.221242 -27.415228 
L 166.640478 -27.415228 
L 167.059715 -27.415228 
L 167.478951 -27.415228 
L 167.898188 -27.415228 
L 168.317424 -27.415228 
L 168.73666 -27.415228 
L 169.155897 -27.415228 
L 169.575133 -27.415228 
L 169.99437 -27.415228 
L 170.413606 -27.415228 
L 170.832842 -27.415228 
L 171.252079 -27.415228 
L 171.671315 -27.415228 
L 172.090552 -27.415228 
L 172.509788 -27.415228 
L 172.929024 -27.415228 
L 173.348261 -27.415228 
L 173.767497 -27.415228 
L 174.186734 -27.415228 
L 174.60597 -27.415228 
L 175.025206 -27.415228 
L 175.444443 -27.415228 
L 175.863679 -27.415228 
L 176.282916 -27.415228 
L 176.702152 -27.415228 
L 177.121388 -27.415228 
L 177.540625 -27.415228 
L 177.959861 -27.415228 
L 178.379098 -27.415228 
L 178.798334 -27.415228 
L 179.217571 -27.415228 
L 179.636807 -27.415228 
L 180.056043 -27.415228 
L 180.47528 -27.415228 
L 180.894516 -27.415228 
L 181.313753 -27.415228 
L 181.732989 -27.415228 
L 182.152225 -27.415228 
L 182.571462 -27.415228 
L 182.990698 -27.415228 
L 183.409935 -27.415228 
L 183.829171 -27.415228 
L 184.248407 -27.415228 
L 184.667644 -27.415228 
L 185.08688 -27.415228 
L 185.506117 -27.415228 
L 185.925353 -27.415228 
L 186.344589 -27.415228 
L 186.763826 -27.415228 
L 187.183062 -27.415228 
L 187.602299 -27.415228 
L 188.021535 -27.415228 
L 188.440771 -27.415228 
L 188.860008 -27.415228 
L 189.279244 -27.415228 
L 189.698481 -27.415228 
L 190.117717 -27.415228 
L 190.536953 -27.415228 
L 190.95619 -27.415228 
L 191.375426 -27.415228 
L 191.794663 -27.415228 
L 192.213899 -27.415228 
L 192.633135 -27.415228 
L 193.052372 -27.415228 
L 193.471608 -27.415228 
L 193.890845 -27.415228 
L 194.310081 -27.415228 
L 194.729317 -27.415228 
L 195.148554 -27.415228 
L 195.56779 -27.415228 
L 195.987027 -27.415228 
L 196.406263 -27.415228 
L 196.8255 -27.415228 
L 197.244736 -27.415228 
L 197.663972 -27.415228 
L 198.083209 -27.415228 
L 198.502445 -27.415228 
L 198.921682 -27.415228 
L 199.340918 -27.415228 
L 199.760154 -27.415228 
L 200.179391 -27.415228 
L 200.598627 -27.415228 
L 201.017864 -27.415228 
L 201.4371 -27.415228 
L 201.856336 -27.415228 
L 202.275573 -27.415228 
L 202.694809 -27.415228 
L 203.114046 -27.415228 
L 203.533282 -27.415228 
L 203.952518 -27.415228 
L 204.371755 -27.415228 
L 204.790991 -27.415228 
L 205.210228 -27.415228 
L 205.629464 -27.415228 
L 206.0487 -27.415228 
L 206.467937 -27.415228 
L 206.887173 -27.415228 
L 207.30641 -27.415228 
L 207.725646 -27.415228 
L 208.144882 -27.415228 
L 208.564119 -27.415228 
L 208.983355 -27.415228 
L 209.402592 -27.415228 
L 209.821828 -27.415228 
L 210.241064 -27.415228 
L 210.660301 -27.415228 
L 211.079537 -27.415228 
L 211.498774 -27.415228 
L 211.91801 -27.415228 
L 212.337246 -27.415228 
L 212.756483 -27.415228 
L 213.175719 -27.415228 
L 213.594956 -27.415228 
L 214.014192 -27.415228 
L 214.433429 -27.415228 
L 214.852665 -27.415228 
L 215.271901 -27.415228 
L 215.691138 -27.415228 
L 216.110374 -27.415228 
L 216.529611 -27.415228 
L 216.948847 -27.415228 
L 217.368083 -27.415228 
L 217.78732 -27.415228 
L 218.206556 -27.415228 
L 218.625793 -27.415228 
L 219.045029 -27.415228 
L 219.464265 -27.415228 
L 219.883502 -27.415228 
L 220.302738 -27.415228 
L 220.721975 -27.415228 
L 221.141211 -27.415228 
L 221.560447 -27.415228 
L 221.979684 -27.415228 
L 222.39892 -27.415228 
L 222.818157 -27.415228 
L 223.237393 -27.415228 
L 223.656629 -27.415228 
L 224.075866 -27.415228 
L 224.495102 -27.415228 
L 224.914339 -27.415228 
L 225.333575 -27.415228 
L 225.752811 -27.415228 
L 225.752811 -27.415306 
L 225.752811 -27.415306 
L 225.333575 -27.415485 
L 224.914339 -27.415951 
L 224.495102 -27.416953 
L 224.075866 -27.418732 
L 223.656629 -27.421304 
L 223.237393 -27.424277 
L 222.818157 -27.426924 
L 222.39892 -27.4286 
L 221.979684 -27.42922 
L 221.560447 -27.429352 
L 221.141211 -27.429822 
L 220.721975 -27.431205 
L 220.302738 -27.433616 
L 219.883502 -27.436902 
L 219.464265 -27.440938 
L 219.045029 -27.445661 
L 218.625793 -27.450804 
L 218.206556 -27.455684 
L 217.78732 -27.459424 
L 217.368083 -27.461425 
L 216.948847 -27.46154 
L 216.529611 -27.459919 
L 216.110374 -27.456998 
L 215.691138 -27.453764 
L 215.271901 -27.45182 
L 214.852665 -27.452819 
L 214.433429 -27.457612 
L 214.014192 -27.46577 
L 213.594956 -27.475716 
L 213.175719 -27.485204 
L 212.756483 -27.491897 
L 212.337246 -27.494223 
L 211.91801 -27.492515 
L 211.498774 -27.489597 
L 211.079537 -27.489796 
L 210.660301 -27.496626 
L 210.241064 -27.510902 
L 209.821828 -27.530732 
L 209.402592 -27.553104 
L 208.983355 -27.57562 
L 208.564119 -27.597305 
L 208.144882 -27.6184 
L 207.725646 -27.639715 
L 207.30641 -27.662125 
L 206.887173 -27.686328 
L 206.467937 -27.712626 
L 206.0487 -27.740827 
L 205.629464 -27.77072 
L 205.210228 -27.803069 
L 204.790991 -27.840287 
L 204.371755 -27.886144 
L 203.952518 -27.944667 
L 203.533282 -28.018595 
L 203.114046 -28.107614 
L 202.694809 -28.20731 
L 202.275573 -28.31043 
L 201.856336 -28.410959 
L 201.4371 -28.508959 
L 201.017864 -28.612636 
L 200.598627 -28.735697 
L 200.179391 -28.891538 
L 199.760154 -29.087827 
L 199.340918 -29.323941 
L 198.921682 -29.591591 
L 198.502445 -29.878349 
L 198.083209 -30.174081 
L 197.663972 -30.478428 
L 197.244736 -30.804196 
L 196.8255 -31.172315 
L 196.406263 -31.601497 
L 195.987027 -32.102281 
L 195.56779 -32.68142 
L 195.148554 -33.351189 
L 194.729317 -34.131838 
L 194.310081 -35.041887 
L 193.890845 -36.084671 
L 193.471608 -37.245533 
L 193.052372 -38.504391 
L 192.633135 -39.852405 
L 192.213899 -41.296595 
L 191.794663 -42.848011 
L 191.375426 -44.505415 
L 190.95619 -46.249898 
L 190.536953 -48.052201 
L 190.117717 -49.881083 
L 189.698481 -51.704639 
L 189.279244 -53.488347 
L 188.860008 -55.196034 
L 188.440771 -56.795528 
L 188.021535 -58.269031 
L 187.602299 -59.623915 
L 187.183062 -60.892498 
L 186.763826 -62.114691 
L 186.344589 -63.31556 
L 185.925353 -64.497191 
L 185.506117 -65.65136 
L 185.08688 -66.781591 
L 184.667644 -67.914386 
L 184.248407 -69.085833 
L 183.829171 -70.312207 
L 183.409935 -71.572546 
L 182.990698 -72.820978 
L 182.571462 -74.015005 
L 182.152225 -75.131031 
L 181.732989 -76.15669 
L 181.313753 -77.077693 
L 180.894516 -77.882444 
L 180.47528 -78.583986 
L 180.056043 -79.232711 
L 179.636807 -79.897042 
L 179.217571 -80.622567 
L 178.798334 -81.406046 
L 178.379098 -82.208184 
L 177.959861 -82.989316 
L 177.540625 -83.729236 
L 177.121388 -84.413643 
L 176.702152 -85.010389 
L 176.282916 -85.469017 
L 175.863679 -85.746178 
L 175.444443 -85.829825 
L 175.025206 -85.74153 
L 174.60597 -85.523219 
L 174.186734 -85.22493 
L 173.767497 -84.895797 
L 173.348261 -84.567572 
L 172.929024 -84.231364 
L 172.509788 -83.830182 
L 172.090552 -83.288237 
L 171.671315 -82.563899 
L 171.252079 -81.681008 
L 170.832842 -80.705489 
L 170.413606 -79.687419 
L 169.99437 -78.625363 
L 169.575133 -77.485098 
L 169.155897 -76.248193 
L 168.73666 -74.942549 
L 168.317424 -73.632638 
L 167.898188 -72.382682 
L 167.478951 -71.219999 
L 167.059715 -70.121001 
L 166.640478 -69.028947 
L 166.221242 -67.893727 
L 165.802006 -66.707514 
L 165.382769 -65.510674 
L 164.963533 -64.362711 
L 164.544296 -63.298283 
L 164.12506 -62.300207 
L 163.705824 -61.31092 
L 163.286587 -60.274595 
L 162.867351 -59.17494 
L 162.448114 -58.037358 
L 162.028878 -56.898648 
L 161.609642 -55.77584 
L 161.190405 -54.659368 
L 160.771169 -53.529236 
L 160.351932 -52.376337 
L 159.932696 -51.212808 
L 159.513459 -50.065384 
L 159.094223 -48.956815 
L 158.674987 -47.888655 
L 158.25575 -46.838514 
L 157.836514 -45.774788 
L 157.417277 -44.67871 
L 156.998041 -43.557451 
L 156.578805 -42.439174 
L 156.159568 -41.356108 
L 155.740332 -40.329294 
L 155.321095 -39.362262 
L 154.901859 -38.442898 
L 154.482623 -37.552202 
L 154.063386 -36.677421 
L 153.64415 -35.820592 
L 153.224913 -34.994308 
L 152.805677 -34.209792 
L 152.386441 -33.470517 
L 151.967204 -32.7754 
L 151.547968 -32.123422 
L 151.128731 -31.514015 
L 150.709495 -30.947021 
L 150.290259 -30.425338 
L 149.871022 -29.955528 
L 149.451786 -29.542364 
L 149.032549 -29.182731 
L 148.613313 -28.866745 
L 148.194077 -28.585159 
L 147.77484 -28.334904 
L 147.355604 -28.118048 
L 146.936367 -27.936951 
L 146.517131 -27.790824 
L 146.097895 -27.675833 
L 145.678658 -27.587311 
L 145.259422 -27.521492 
L 144.840185 -27.475453 
L 144.420949 -27.446032 
L 144.001713 -27.429257 
L 143.582476 -27.42086 
L 143.16324 -27.417206 
L 142.744003 -27.415832 
L 142.324767 -27.415388 
z
" style="stroke: #c2410c; stroke-width: 0.75"/>
    </defs>
    <g clip-path="url(#p8d4c016bb7)">
     <use xlink:href="#m2b2b29df23" x="0" y="184.251969" style="fill: #c2410c; fill-opacity: 0.25; stroke: #c2410c; stroke-width: 0.75"/>
    </g>
   </g>
   <g id="FillBetweenPolyCollection_3">
    <path d="M 92.670682 156.812888 
L 92.670682 156.83674 
L 92.706126 156.83674 
L 92.74157 156.83674 
L 92.777014 156.83674 
L 92.812458 156.83674 
L 92.847902 156.83674 
L 92.883346 156.83674 
L 92.91879 156.83674 
L 92.954234 156.83674 
L 92.989678 156.83674 
L 93.025122 156.83674 
L 93.060566 156.83674 
L 93.09601 156.83674 
L 93.131454 156.83674 
L 93.166898 156.83674 
L 93.202342 156.83674 
L 93.237786 156.83674 
L 93.27323 156.83674 
L 93.308674 156.83674 
L 93.344117 156.83674 
L 93.379561 156.83674 
L 93.415005 156.83674 
L 93.450449 156.83674 
L 93.485893 156.83674 
L 93.521337 156.83674 
L 93.556781 156.83674 
L 93.592225 156.83674 
L 93.627669 156.83674 
L 93.663113 156.83674 
L 93.698557 156.83674 
L 93.734001 156.83674 
L 93.769445 156.83674 
L 93.804889 156.83674 
L 93.840333 156.83674 
L 93.875777 156.83674 
L 93.911221 156.83674 
L 93.946665 156.83674 
L 93.982109 156.83674 
L 94.017553 156.83674 
L 94.052997 156.83674 
L 94.088441 156.83674 
L 94.123885 156.83674 
L 94.159329 156.83674 
L 94.194773 156.83674 
L 94.230217 156.83674 
L 94.265661 156.83674 
L 94.301105 156.83674 
L 94.336549 156.83674 
L 94.371993 156.83674 
L 94.407437 156.83674 
L 94.442881 156.83674 
L 94.478325 156.83674 
L 94.513769 156.83674 
L 94.549213 156.83674 
L 94.584657 156.83674 
L 94.620101 156.83674 
L 94.655545 156.83674 
L 94.690989 156.83674 
L 94.726433 156.83674 
L 94.761877 156.83674 
L 94.797321 156.83674 
L 94.832765 156.83674 
L 94.868209 156.83674 
L 94.903653 156.83674 
L 94.939097 156.83674 
L 94.974541 156.83674 
L 95.009985 156.83674 
L 95.045429 156.83674 
L 95.080873 156.83674 
L 95.116317 156.83674 
L 95.151761 156.83674 
L 95.187205 156.83674 
L 95.222649 156.83674 
L 95.258093 156.83674 
L 95.293537 156.83674 
L 95.328981 156.83674 
L 95.364425 156.83674 
L 95.399869 156.83674 
L 95.435313 156.83674 
L 95.470757 156.83674 
L 95.506201 156.83674 
L 95.541645 156.83674 
L 95.577089 156.83674 
L 95.612533 156.83674 
L 95.647977 156.83674 
L 95.683421 156.83674 
L 95.718865 156.83674 
L 95.754309 156.83674 
L 95.789753 156.83674 
L 95.825197 156.83674 
L 95.860641 156.83674 
L 95.896085 156.83674 
L 95.931529 156.83674 
L 95.966973 156.83674 
L 96.002417 156.83674 
L 96.037861 156.83674 
L 96.073305 156.83674 
L 96.108749 156.83674 
L 96.144193 156.83674 
L 96.179637 156.83674 
L 96.215081 156.83674 
L 96.250525 156.83674 
L 96.285969 156.83674 
L 96.321413 156.83674 
L 96.356857 156.83674 
L 96.392301 156.83674 
L 96.427745 156.83674 
L 96.463189 156.83674 
L 96.498633 156.83674 
L 96.534076 156.83674 
L 96.56952 156.83674 
L 96.604964 156.83674 
L 96.640408 156.83674 
L 96.675852 156.83674 
L 96.711296 156.83674 
L 96.74674 156.83674 
L 96.782184 156.83674 
L 96.817628 156.83674 
L 96.853072 156.83674 
L 96.888516 156.83674 
L 96.92396 156.83674 
L 96.959404 156.83674 
L 96.994848 156.83674 
L 97.030292 156.83674 
L 97.065736 156.83674 
L 97.10118 156.83674 
L 97.136624 156.83674 
L 97.172068 156.83674 
L 97.207512 156.83674 
L 97.242956 156.83674 
L 97.2784 156.83674 
L 97.313844 156.83674 
L 97.349288 156.83674 
L 97.384732 156.83674 
L 97.420176 156.83674 
L 97.45562 156.83674 
L 97.491064 156.83674 
L 97.526508 156.83674 
L 97.561952 156.83674 
L 97.597396 156.83674 
L 97.63284 156.83674 
L 97.668284 156.83674 
L 97.703728 156.83674 
L 97.739172 156.83674 
L 97.774616 156.83674 
L 97.81006 156.83674 
L 97.845504 156.83674 
L 97.880948 156.83674 
L 97.916392 156.83674 
L 97.951836 156.83674 
L 97.98728 156.83674 
L 98.022724 156.83674 
L 98.058168 156.83674 
L 98.093612 156.83674 
L 98.129056 156.83674 
L 98.1645 156.83674 
L 98.199944 156.83674 
L 98.235388 156.83674 
L 98.270832 156.83674 
L 98.306276 156.83674 
L 98.34172 156.83674 
L 98.377164 156.83674 
L 98.412608 156.83674 
L 98.448052 156.83674 
L 98.483496 156.83674 
L 98.51894 156.83674 
L 98.554384 156.83674 
L 98.589828 156.83674 
L 98.625272 156.83674 
L 98.660716 156.83674 
L 98.69616 156.83674 
L 98.731604 156.83674 
L 98.767048 156.83674 
L 98.802492 156.83674 
L 98.837936 156.83674 
L 98.87338 156.83674 
L 98.908824 156.83674 
L 98.944268 156.83674 
L 98.979712 156.83674 
L 99.015156 156.83674 
L 99.0506 156.83674 
L 99.086044 156.83674 
L 99.121488 156.83674 
L 99.156932 156.83674 
L 99.192376 156.83674 
L 99.22782 156.83674 
L 99.263264 156.83674 
L 99.298708 156.83674 
L 99.334152 156.83674 
L 99.369596 156.83674 
L 99.40504 156.83674 
L 99.440484 156.83674 
L 99.475928 156.83674 
L 99.511372 156.83674 
L 99.546816 156.83674 
L 99.58226 156.83674 
L 99.617704 156.83674 
L 99.653148 156.83674 
L 99.688592 156.83674 
L 99.724035 156.83674 
L 99.724035 156.825263 
L 99.724035 156.825263 
L 99.688592 156.811298 
L 99.653148 156.782952 
L 99.617704 156.728211 
L 99.58226 156.627584 
L 99.546816 156.45139 
L 99.511372 156.157313 
L 99.475928 155.689008 
L 99.440484 154.976719 
L 99.40504 153.940628 
L 99.369596 152.497175 
L 99.334152 150.567753 
L 99.298708 148.088369 
L 99.263264 145.018317 
L 99.22782 141.345936 
L 99.192376 137.090129 
L 99.156932 132.29736 
L 99.121488 127.034919 
L 99.086044 121.382008 
L 99.0506 115.420547 
L 99.015156 109.227366 
L 98.979712 102.868884 
L 98.944268 96.39867 
L 98.908824 89.85753 
L 98.87338 83.275282 
L 98.837936 76.673165 
L 98.802492 70.066014 
L 98.767048 63.463691 
L 98.731604 56.871756 
L 98.69616 50.291617 
L 98.660716 43.720557 
L 98.625272 37.15196 
L 98.589828 30.575989 
L 98.554384 23.980919 
L 98.51894 17.355229 
L 98.483496 10.690338 
L 98.448052 3.983511 
L 98.412608 -2.760005 
L 98.377164 -9.526732 
L 98.34172 -16.297429 
L 98.306276 -23.052212 
L 98.270832 -29.777044 
L 98.235388 -36.469244 
L 98.199944 -43.139572 
L 98.1645 -49.809372 
L 98.129056 -56.503275 
L 98.093612 -63.23998 
L 98.058168 -70.024797 
L 98.022724 -76.847151 
L 97.98728 -83.684212 
L 97.951836 -90.509138 
L 97.916392 -97.300292 
L 97.880948 -104.047376 
L 97.845504 -110.751766 
L 97.81006 -117.420855 
L 97.774616 -124.058579 
L 97.739172 -130.65556 
L 97.703728 -137.182019 
L 97.668284 -143.585283 
L 97.63284 -149.792104 
L 97.597396 -155.714908 
L 97.561952 -161.260627 
L 97.526508 -166.340855 
L 97.491064 -170.88207 
L 97.45562 -174.834586 
L 97.420176 -178.178655 
L 97.384732 -180.926314 
L 97.349288 -183.118311 
L 97.313844 -184.816815 
L 97.2784 -186.095911 
L 97.242956 -187.032583 
L 97.207512 -187.700414 
L 97.172068 -188.166782 
L 97.136624 -188.49271 
L 97.10118 -188.733385 
L 97.065736 -188.937504 
L 97.030292 -189.144686 
L 96.994848 -189.381716 
L 96.959404 -189.659471 
L 96.92396 -189.972441 
L 96.888516 -190.301823 
L 96.853072 -190.621786 
L 96.817628 -190.907284 
L 96.782184 -191.141297 
L 96.74674 -191.319626 
L 96.711296 -191.452132 
L 96.675852 -191.560224 
L 96.640408 -191.671279 
L 96.604964 -191.811388 
L 96.56952 -191.998303 
L 96.534076 -192.236627 
L 96.498633 -192.516821 
L 96.463189 -192.818568 
L 96.427745 -193.117489 
L 96.392301 -193.39285 
L 96.356857 -193.633368 
L 96.321413 -193.838877 
L 96.285969 -194.017507 
L 96.250525 -194.18006 
L 96.215081 -194.334588 
L 96.179637 -194.483933 
L 96.144193 -194.627176 
L 96.108749 -194.763684 
L 96.073305 -194.896956 
L 96.037861 -195.035611 
L 96.002417 -195.190715 
L 95.966973 -195.370884 
L 95.931529 -195.578031 
L 95.896085 -195.806347 
L 95.860641 -196.045174 
L 95.825197 -196.284263 
L 95.789753 -196.518515 
L 95.754309 -196.74966 
L 95.718865 -196.984068 
L 95.683421 -197.227928 
L 95.647977 -197.482396 
L 95.612533 -197.741251 
L 95.577089 -197.992295 
L 95.541645 -198.222007 
L 95.506201 -198.421466 
L 95.470757 -198.591028 
L 95.435313 -198.74168 
L 95.399869 -198.89221 
L 95.364425 -199.062843 
L 95.328981 -199.267332 
L 95.293537 -199.506169 
L 95.258093 -199.763355 
L 95.222649 -200.007836 
L 95.187205 -200.198828 
L 95.151761 -200.29231 
L 95.116317 -200.245165 
L 95.080873 -200.014297 
L 95.045429 -199.550577 
L 95.009985 -198.790616 
L 94.974541 -197.651516 
L 94.939097 -196.033509 
L 94.903653 -193.832495 
L 94.868209 -190.960004 
L 94.832765 -187.364228 
L 94.797321 -183.044538 
L 94.761877 -178.053946 
L 94.726433 -172.488538 
L 94.690989 -166.467653 
L 94.655545 -160.111558 
L 94.620101 -153.523328 
L 94.584657 -146.779151 
L 94.549213 -139.927701 
L 94.513769 -132.996205 
L 94.478325 -125.999363 
L 94.442881 -118.947528 
L 94.407437 -111.851855 
L 94.371993 -104.725832 
L 94.336549 -97.583913 
L 94.301105 -90.438737 
L 94.265661 -83.298454 
L 94.230217 -76.165305 
L 94.194773 -69.03594 
L 94.159329 -61.903307 
L 94.123885 -54.759425 
L 94.088441 -47.598085 
L 94.052997 -40.416631 
L 94.017553 -33.216316 
L 93.982109 -26.001307 
L 93.946665 -18.776839 
L 93.911221 -11.547286 
L 93.875777 -4.314816 
L 93.840333 2.921005 
L 93.804889 10.162654 
L 93.769445 17.413378 
L 93.734001 24.675629 
L 93.698557 31.949645 
L 93.663113 39.232648 
L 93.627669 46.518951 
L 93.592225 53.801051 
L 93.556781 61.071264 
L 93.521337 68.323121 
L 93.485893 75.551506 
L 93.450449 82.750794 
L 93.415005 89.910841 
L 93.379561 97.011517 
L 93.344117 104.017126 
L 93.308674 110.872446 
L 93.27323 117.50193 
L 93.237786 123.813103 
L 93.202342 129.704253 
L 93.166898 135.075547 
L 93.131454 139.841734 
L 93.09601 143.943973 
L 93.060566 147.358304 
L 93.025122 150.098847 
L 92.989678 152.215048 
L 92.954234 153.783735 
L 92.91879 154.897933 
L 92.883346 155.654992 
L 92.847902 156.146389 
L 92.812458 156.45072 
L 92.777014 156.630372 
L 92.74157 156.731368 
L 92.706126 156.785399 
L 92.670682 156.812888 
z
" clip-path="url(#p8d4c016bb7)" style="fill: #a16207; fill-opacity: 0.25; stroke: #a16207; stroke-width: 0.75"/>
   </g>
   <g id="patch_3">
    <path d="M 26.630226 156.83674 
L 26.630226 5.954849 
" style="fill: none; stroke: #000000; stroke-width: 0.3; stroke-linejoin: miter; stroke-linecap: square"/>
   </g>
   <g id="patch_4">
    <path d="M 26.630226 156.83674 
L 332.812959 156.83674 
" style="fill: none; stroke: #000000; stroke-width: 0.3; stroke-linejoin: miter; stroke-linecap: square"/>
   </g>
   <g id="matplotlib.axis_1">
    <g id="xtick_1">
     <g id="line2d_1">
      <defs>
       <path id="m0c8339c357" d="M 0 0 
L 0 2 
" style="stroke: #000000; stroke-width: 0.3"/>
      </defs>
      <g>
       <use xlink:href="#m0c8339c357" x="26.630226" y="156.83674" style="stroke: #000000; stroke-width: 0.3"/>
      </g>
     </g>
     <g id="text_1">
      <!-- 0 -->
      <g transform="translate(24.829015 165.71174) scale(0.065 -0.065)">
       <defs>
        <path id="Roboto-Light-30" d="M 3172 1897 
Q 3172 934 2819 435 
Q 2466 -63 1778 -63 
Q 1103 -63 743 426 
Q 384 916 375 1850 
L 375 2666 
Q 375 3625 731 4119 
Q 1088 4613 1772 4613 
Q 2447 4613 2803 4136 
Q 3159 3659 3172 2731 
L 3172 1897 
z
M 2797 2713 
Q 2797 3494 2542 3894 
Q 2288 4294 1772 4294 
Q 1266 4294 1009 3903 
Q 753 3513 747 2750 
L 747 1856 
Q 747 1078 1011 665 
Q 1275 253 1778 253 
Q 2278 253 2536 656 
Q 2794 1059 2797 1838 
L 2797 2713 
z
" transform="scale(0.015625)"/>
       </defs>
       <use xlink:href="#Roboto-Light-30"/>
      </g>
     </g>
    </g>
    <g id="xtick_2">
     <g id="line2d_2">
      <g>
       <use xlink:href="#m0c8339c357" x="47.042408" y="156.83674" style="stroke: #000000; stroke-width: 0.3"/>
      </g>
     </g>
     <g id="text_2">
      <!-- 4 -->
      <g transform="translate(45.241197 165.71174) scale(0.065 -0.065)">
       <defs>
        <path id="Roboto-Light-34" d="M 2725 1466 
L 3434 1466 
L 3434 1150 
L 2725 1150 
L 2725 0 
L 2350 0 
L 2350 1150 
L 209 1150 
L 209 1363 
L 2316 4550 
L 2725 4550 
L 2725 1466 
z
M 669 1466 
L 2350 1466 
L 2350 4066 
L 2184 3778 
L 669 1466 
z
" transform="scale(0.015625)"/>
       </defs>
       <use xlink:href="#Roboto-Light-34"/>
      </g>
     </g>
    </g>
    <g id="xtick_3">
     <g id="line2d_3">
      <g>
       <use xlink:href="#m0c8339c357" x="67.45459" y="156.83674" style="stroke: #000000; stroke-width: 0.3"/>
      </g>
     </g>
     <g id="text_3">
      <!-- 8 -->
      <g transform="translate(65.653379 165.71174) scale(0.065 -0.065)">
       <defs>
        <path id="Roboto-Light-38" d="M 3109 3378 
Q 3109 3025 2903 2745 
Q 2697 2466 2359 2334 
Q 2753 2200 2990 1900 
Q 3228 1600 3228 1206 
Q 3228 622 2831 279 
Q 2434 -63 1781 -63 
Q 1122 -63 726 278 
Q 331 619 331 1206 
Q 331 1594 559 1897 
Q 788 2200 1184 2334 
Q 847 2466 647 2745 
Q 447 3025 447 3378 
Q 447 3944 811 4278 
Q 1175 4613 1775 4613 
Q 2375 4613 2742 4275 
Q 3109 3938 3109 3378 
z
M 2853 1203 
Q 2853 1628 2550 1901 
Q 2247 2175 1775 2175 
Q 1303 2175 1003 1906 
Q 703 1638 703 1203 
Q 703 769 993 511 
Q 1284 253 1781 253 
Q 2266 253 2559 509 
Q 2853 766 2853 1203 
z
M 2734 3381 
Q 2734 3772 2464 4033 
Q 2194 4294 1775 4294 
Q 1350 4294 1086 4042 
Q 822 3791 822 3381 
Q 822 2981 1086 2737 
Q 1350 2494 1778 2494 
Q 2200 2494 2467 2739 
Q 2734 2984 2734 3381 
z
" transform="scale(0.015625)"/>
       </defs>
       <use xlink:href="#Roboto-Light-38"/>
      </g>
     </g>
    </g>
    <g id="xtick_4">
     <g id="line2d_4">
      <g>
       <use xlink:href="#m0c8339c357" x="87.866773" y="156.83674" style="stroke: #000000; stroke-width: 0.3"/>
      </g>
     </g>
     <g id="text_4">
      <!-- 12 -->
      <g transform="translate(84.264351 165.71174) scale(0.065 -0.065)">
       <defs>
        <path id="Roboto-Light-31" d="M 2169 0 
L 1794 0 
L 1794 4100 
L 556 3641 
L 556 3991 
L 2106 4566 
L 2169 4566 
L 2169 0 
z
" transform="scale(0.015625)"/>
        <path id="Roboto-Light-32" d="M 3278 0 
L 428 0 
L 428 288 
L 1988 2056 
Q 2375 2503 2525 2793 
Q 2675 3084 2675 3359 
Q 2675 3791 2422 4042 
Q 2169 4294 1725 4294 
Q 1266 4294 983 4000 
Q 700 3706 700 3238 
L 328 3238 
Q 328 3622 501 3937 
Q 675 4253 995 4433 
Q 1316 4613 1725 4613 
Q 2350 4613 2701 4284 
Q 3053 3956 3053 3391 
Q 3053 3072 2854 2694 
Q 2656 2316 2156 1750 
L 888 316 
L 3278 316 
L 3278 0 
z
" transform="scale(0.015625)"/>
       </defs>
       <use xlink:href="#Roboto-Light-31"/>
       <use xlink:href="#Roboto-Light-32" transform="translate(55.419922 0)"/>
      </g>
     </g>
    </g>
    <g id="xtick_5">
     <g id="line2d_5">
      <g>
       <use xlink:href="#m0c8339c357" x="108.278955" y="156.83674" style="stroke: #000000; stroke-width: 0.3"/>
      </g>
     </g>
     <g id="text_5">
      <!-- 16 -->
      <g transform="translate(104.676533 165.71174) scale(0.065 -0.065)">
       <defs>
        <path id="Roboto-Light-36" d="M 2634 4584 
L 2634 4256 
L 2591 4256 
Q 1775 4256 1306 3776 
Q 838 3297 788 2444 
Q 975 2703 1265 2845 
Q 1556 2988 1916 2988 
Q 2516 2988 2870 2573 
Q 3225 2159 3225 1491 
Q 3225 1047 3059 690 
Q 2894 334 2584 135 
Q 2275 -63 1878 -63 
Q 1225 -63 815 410 
Q 406 884 406 1634 
L 406 2009 
Q 406 3231 962 3901 
Q 1519 4572 2541 4584 
L 2634 4584 
z
M 1856 2666 
Q 1500 2666 1192 2455 
Q 884 2244 781 1919 
L 781 1600 
Q 781 1006 1086 631 
Q 1391 256 1878 256 
Q 2316 256 2586 603 
Q 2856 950 2856 1478 
Q 2856 2016 2586 2341 
Q 2316 2666 1856 2666 
z
" transform="scale(0.015625)"/>
       </defs>
       <use xlink:href="#Roboto-Light-31"/>
       <use xlink:href="#Roboto-Light-36" transform="translate(55.419922 0)"/>
      </g>
     </g>
    </g>
    <g id="xtick_6">
     <g id="line2d_6">
      <g>
       <use xlink:href="#m0c8339c357" x="128.691137" y="156.83674" style="stroke: #000000; stroke-width: 0.3"/>
      </g>
     </g>
     <g id="text_6">
      <!-- 20 -->
      <g transform="translate(125.088715 165.71174) scale(0.065 -0.065)">
       <use xlink:href="#Roboto-Light-32"/>
       <use xlink:href="#Roboto-Light-30" transform="translate(55.419922 0)"/>
      </g>
     </g>
    </g>
    <g id="xtick_7">
     <g id="line2d_7">
      <g>
       <use xlink:href="#m0c8339c357" x="149.103319" y="156.83674" style="stroke: #000000; stroke-width: 0.3"/>
      </g>
     </g>
     <g id="text_7">
      <!-- 24 -->
      <g transform="translate(145.500897 165.71174) scale(0.065 -0.065)">
       <use xlink:href="#Roboto-Light-32"/>
       <use xlink:href="#Roboto-Light-34" transform="translate(55.419922 0)"/>
      </g>
     </g>
    </g>
    <g id="xtick_8">
     <g id="line2d_8">
      <g>
       <use xlink:href="#m0c8339c357" x="169.515501" y="156.83674" style="stroke: #000000; stroke-width: 0.3"/>
      </g>
     </g>
     <g id="text_8">
      <!-- 28 -->
      <g transform="translate(165.91308 165.71174) scale(0.065 -0.065)">
       <use xlink:href="#Roboto-Light-32"/>
       <use xlink:href="#Roboto-Light-38" transform="translate(55.419922 0)"/>
      </g>
     </g>
    </g>
    <g id="xtick_9">
     <g id="line2d_9">
      <g>
       <use xlink:href="#m0c8339c357" x="189.927684" y="156.83674" style="stroke: #000000; stroke-width: 0.3"/>
      </g>
     </g>
     <g id="text_9">
      <!-- 32 -->
      <g transform="translate(186.325262 165.71174) scale(0.065 -0.065)">
       <defs>
        <path id="Roboto-Light-33" d="M 1259 2478 
L 1647 2478 
Q 1969 2478 2209 2592 
Q 2450 2706 2576 2904 
Q 2703 3103 2703 3363 
Q 2703 3800 2456 4047 
Q 2209 4294 1747 4294 
Q 1309 4294 1029 4036 
Q 750 3778 750 3356 
L 375 3356 
Q 375 3709 553 4001 
Q 731 4294 1047 4453 
Q 1363 4613 1747 4613 
Q 2366 4613 2722 4275 
Q 3078 3938 3078 3350 
Q 3078 3022 2870 2745 
Q 2663 2469 2300 2331 
Q 2725 2213 2944 1923 
Q 3163 1634 3163 1234 
Q 3163 650 2781 293 
Q 2400 -63 1763 -63 
Q 1356 -63 1017 100 
Q 678 263 492 555 
Q 306 847 306 1234 
L 681 1234 
Q 681 800 984 526 
Q 1288 253 1763 253 
Q 2247 253 2517 501 
Q 2788 750 2788 1222 
Q 2788 1678 2495 1918 
Q 2203 2159 1634 2159 
L 1259 2159 
L 1259 2478 
z
" transform="scale(0.015625)"/>
       </defs>
       <use xlink:href="#Roboto-Light-33"/>
       <use xlink:href="#Roboto-Light-32" transform="translate(55.419922 0)"/>
      </g>
     </g>
    </g>
    <g id="xtick_10">
     <g id="line2d_10">
      <g>
       <use xlink:href="#m0c8339c357" x="210.339866" y="156.83674" style="stroke: #000000; stroke-width: 0.3"/>
      </g>
     </g>
     <g id="text_10">
      <!-- 36 -->
      <g transform="translate(206.737444 165.71174) scale(0.065 -0.065)">
       <use xlink:href="#Roboto-Light-33"/>
       <use xlink:href="#Roboto-Light-36" transform="translate(55.419922 0)"/>
      </g>
     </g>
    </g>
    <g id="xtick_11">
     <g id="line2d_11">
      <g>
       <use xlink:href="#m0c8339c357" x="230.752048" y="156.83674" style="stroke: #000000; stroke-width: 0.3"/>
      </g>
     </g>
     <g id="text_11">
      <!-- 40 -->
      <g transform="translate(227.149626 165.71174) scale(0.065 -0.065)">
       <use xlink:href="#Roboto-Light-34"/>
       <use xlink:href="#Roboto-Light-30" transform="translate(55.419922 0)"/>
      </g>
     </g>
    </g>
    <g id="xtick_12">
     <g id="line2d_12">
      <g>
       <use xlink:href="#m0c8339c357" x="251.16423" y="156.83674" style="stroke: #000000; stroke-width: 0.3"/>
      </g>
     </g>
     <g id="text_12">
      <!-- 44 -->
      <g transform="translate(247.561809 165.71174) scale(0.065 -0.065)">
       <use xlink:href="#Roboto-Light-34"/>
       <use xlink:href="#Roboto-Light-34" transform="translate(55.419922 0)"/>
      </g>
     </g>
    </g>
    <g id="xtick_13">
     <g id="line2d_13">
      <g>
       <use xlink:href="#m0c8339c357" x="271.576413" y="156.83674" style="stroke: #000000; stroke-width: 0.3"/>
      </g>
     </g>
     <g id="text_13">
      <!-- 48 -->
      <g transform="translate(267.973991 165.71174) scale(0.065 -0.065)">
       <use xlink:href="#Roboto-Light-34"/>
       <use xlink:href="#Roboto-Light-38" transform="translate(55.419922 0)"/>
      </g>
     </g>
    </g>
    <g id="xtick_14">
     <g id="line2d_14">
      <g>
       <use xlink:href="#m0c8339c357" x="291.988595" y="156.83674" style="stroke: #000000; stroke-width: 0.3"/>
      </g>
     </g>
     <g id="text_14">
      <!-- 52 -->
      <g transform="translate(288.386173 165.71174) scale(0.065 -0.065)">
       <defs>
        <path id="Roboto-Light-35" d="M 681 2331 
L 903 4550 
L 3178 4550 
L 3178 4203 
L 1225 4203 
L 1066 2666 
Q 1431 2916 1922 2916 
Q 2538 2916 2903 2516 
Q 3269 2116 3269 1450 
Q 3269 731 2912 334 
Q 2556 -63 1909 -63 
Q 1316 -63 947 268 
Q 578 600 525 1197 
L 884 1197 
Q 938 731 1200 492 
Q 1463 253 1909 253 
Q 2397 253 2645 562 
Q 2894 872 2894 1444 
Q 2894 1944 2616 2259 
Q 2338 2575 1856 2575 
Q 1591 2575 1394 2508 
Q 1197 2441 978 2247 
L 681 2331 
z
" transform="scale(0.015625)"/>
       </defs>
       <use xlink:href="#Roboto-Light-35"/>
       <use xlink:href="#Roboto-Light-32" transform="translate(55.419922 0)"/>
      </g>
     </g>
    </g>
    <g id="xtick_15">
     <g id="line2d_15">
      <g>
       <use xlink:href="#m0c8339c357" x="312.400777" y="156.83674" style="stroke: #000000; stroke-width: 0.3"/>
      </g>
     </g>
     <g id="text_15">
      <!-- 56 -->
      <g transform="translate(308.798355 165.71174) scale(0.065 -0.065)">
       <use xlink:href="#Roboto-Light-35"/>
       <use xlink:href="#Roboto-Light-36" transform="translate(55.419922 0)"/>
      </g>
     </g>
    </g>
    <g id="xtick_16">
     <g id="line2d_16">
      <g>
       <use xlink:href="#m0c8339c357" x="332.812959" y="156.83674" style="stroke: #000000; stroke-width: 0.3"/>
      </g>
     </g>
     <g id="text_16">
      <!-- 60 -->
      <g transform="translate(329.210537 165.71174) scale(0.065 -0.065)">
       <use xlink:href="#Roboto-Light-36"/>
       <use xlink:href="#Roboto-Light-30" transform="translate(55.419922 0)"/>
      </g>
     </g>
    </g>
    <g id="text_17">
     <!-- Exergy efficiency [%] -->
     <g transform="translate(146.568663 177.125803) scale(0.075 -0.075)">
      <defs>
       <path id="Roboto-Light-45" d="M 3088 2181 
L 959 2181 
L 959 325 
L 3406 325 
L 3406 0 
L 575 0 
L 575 4550 
L 3391 4550 
L 3391 4222 
L 959 4222 
L 959 2506 
L 3088 2506 
L 3088 2181 
z
" transform="scale(0.015625)"/>
       <path id="Roboto-Light-78" d="M 1550 2009 
L 2463 3381 
L 2906 3381 
L 1759 1722 
L 2956 0 
L 2516 0 
L 1553 1431 
L 591 0 
L 150 0 
L 1344 1722 
L 197 3381 
L 638 3381 
L 1550 2009 
z
" transform="scale(0.015625)"/>
       <path id="Roboto-Light-65" d="M 1797 -63 
Q 1366 -63 1017 150 
Q 669 363 475 742 
Q 281 1122 281 1594 
L 281 1728 
Q 281 2216 470 2606 
Q 659 2997 996 3220 
Q 1334 3444 1728 3444 
Q 2344 3444 2705 3023 
Q 3066 2603 3066 1875 
L 3066 1666 
L 653 1666 
L 653 1594 
Q 653 1019 983 636 
Q 1313 253 1813 253 
Q 2113 253 2342 362 
Q 2572 472 2759 713 
L 2994 534 
Q 2581 -63 1797 -63 
z
M 1728 3125 
Q 1306 3125 1017 2815 
Q 728 2506 666 1984 
L 2694 1984 
L 2694 2025 
Q 2678 2513 2415 2819 
Q 2153 3125 1728 3125 
z
" transform="scale(0.015625)"/>
       <path id="Roboto-Light-72" d="M 2050 3063 
Q 1931 3084 1797 3084 
Q 1447 3084 1205 2889 
Q 963 2694 859 2322 
L 859 0 
L 488 0 
L 488 3381 
L 853 3381 
L 859 2844 
Q 1156 3444 1813 3444 
Q 1969 3444 2059 3403 
L 2050 3063 
z
" transform="scale(0.015625)"/>
       <path id="Roboto-Light-67" d="M 338 1722 
Q 338 2516 689 2980 
Q 1041 3444 1644 3444 
Q 2334 3444 2694 2894 
L 2713 3381 
L 3063 3381 
L 3063 69 
Q 3063 -584 2697 -965 
Q 2331 -1347 1706 -1347 
Q 1353 -1347 1033 -1189 
Q 713 -1031 528 -769 
L 738 -544 
Q 1134 -1031 1681 -1031 
Q 2150 -1031 2412 -754 
Q 2675 -478 2684 13 
L 2684 438 
Q 2325 -63 1638 -63 
Q 1050 -63 694 406 
Q 338 875 338 1672 
L 338 1722 
z
M 716 1656 
Q 716 1009 975 636 
Q 1234 263 1706 263 
Q 2397 263 2684 881 
L 2684 2453 
Q 2553 2778 2306 2948 
Q 2059 3119 1713 3119 
Q 1241 3119 978 2748 
Q 716 2378 716 1656 
z
" transform="scale(0.015625)"/>
       <path id="Roboto-Light-79" d="M 1559 538 
L 2547 3381 
L 2950 3381 
L 1506 -575 
L 1431 -750 
Q 1153 -1366 572 -1366 
Q 438 -1366 284 -1322 
L 281 -1013 
L 475 -1031 
Q 750 -1031 920 -895 
Q 1091 -759 1209 -428 
L 1375 28 
L 100 3381 
L 509 3381 
L 1559 538 
z
" transform="scale(0.015625)"/>
       <path id="Roboto-Light-20" transform="scale(0.015625)"/>
       <path id="Roboto-Light-66" d="M 756 0 
L 756 3075 
L 197 3075 
L 197 3381 
L 756 3381 
L 756 3791 
Q 756 4309 1020 4587 
Q 1284 4866 1756 4866 
Q 1969 4866 2153 4813 
L 2125 4500 
Q 1969 4538 1784 4538 
Q 1475 4538 1303 4345 
Q 1131 4153 1131 3800 
L 1131 3381 
L 1938 3381 
L 1938 3075 
L 1131 3075 
L 1131 0 
L 756 0 
z
" transform="scale(0.015625)"/>
       <path id="Roboto-Light-69" d="M 906 0 
L 531 0 
L 531 3381 
L 906 3381 
L 906 0 
z
M 466 4359 
Q 466 4466 534 4539 
Q 603 4613 722 4613 
Q 841 4613 911 4539 
Q 981 4466 981 4359 
Q 981 4253 911 4181 
Q 841 4109 722 4109 
Q 603 4109 534 4181 
Q 466 4253 466 4359 
z
" transform="scale(0.015625)"/>
       <path id="Roboto-Light-63" d="M 1738 253 
Q 2128 253 2392 473 
Q 2656 694 2678 1044 
L 3038 1044 
Q 3022 734 2844 479 
Q 2666 225 2370 81 
Q 2075 -63 1738 -63 
Q 1072 -63 683 400 
Q 294 863 294 1644 
L 294 1756 
Q 294 2256 469 2640 
Q 644 3025 970 3234 
Q 1297 3444 1734 3444 
Q 2291 3444 2652 3112 
Q 3013 2781 3038 2241 
L 2678 2241 
Q 2653 2638 2392 2881 
Q 2131 3125 1734 3125 
Q 1228 3125 948 2759 
Q 669 2394 669 1734 
L 669 1625 
Q 669 978 948 615 
Q 1228 253 1738 253 
z
" transform="scale(0.015625)"/>
       <path id="Roboto-Light-6e" d="M 844 3381 
L 856 2803 
Q 1047 3116 1331 3280 
Q 1616 3444 1959 3444 
Q 2503 3444 2768 3137 
Q 3034 2831 3038 2219 
L 3038 0 
L 2666 0 
L 2666 2222 
Q 2663 2675 2473 2897 
Q 2284 3119 1869 3119 
Q 1522 3119 1255 2901 
Q 988 2684 859 2316 
L 859 0 
L 488 0 
L 488 3381 
L 844 3381 
z
" transform="scale(0.015625)"/>
       <path id="Roboto-Light-5b" d="M 1541 4881 
L 884 4881 
L 884 -656 
L 1541 -656 
L 1541 -975 
L 509 -975 
L 509 5200 
L 1541 5200 
L 1541 4881 
z
" transform="scale(0.015625)"/>
       <path id="Roboto-Light-25" d="M 341 3675 
Q 341 4081 592 4348 
Q 844 4616 1231 4616 
Q 1619 4616 1870 4348 
Q 2122 4081 2122 3656 
L 2122 3434 
Q 2122 3034 1873 2767 
Q 1625 2500 1238 2500 
Q 853 2500 597 2762 
Q 341 3025 341 3456 
L 341 3675 
z
M 644 3434 
Q 644 3144 805 2956 
Q 966 2769 1238 2769 
Q 1503 2769 1661 2958 
Q 1819 3147 1819 3447 
L 1819 3675 
Q 1819 3966 1656 4155 
Q 1494 4344 1231 4344 
Q 972 4344 808 4156 
Q 644 3969 644 3656 
L 644 3434 
z
M 2631 1116 
Q 2631 1522 2882 1787 
Q 3134 2053 3518 2053 
Q 3903 2053 4158 1789 
Q 4413 1525 4413 1094 
L 4413 872 
Q 4413 466 4161 200 
Q 3909 -66 3525 -66 
Q 3141 -66 2886 198 
Q 2631 463 2631 888 
L 2631 1116 
z
M 2931 872 
Q 2931 578 3092 390 
Q 3253 203 3525 203 
Q 3794 203 3951 392 
Q 4109 581 4109 888 
L 4109 1116 
Q 4109 1416 3948 1598 
Q 3788 1781 3519 1781 
Q 3256 1781 3093 1597 
Q 2931 1413 2931 1103 
L 2931 872 
z
M 1356 378 
L 1122 528 
L 3344 4084 
L 3578 3934 
L 1356 378 
z
" transform="scale(0.015625)"/>
       <path id="Roboto-Light-5d" d="M 0 5200 
L 1034 5200 
L 1034 -975 
L 0 -975 
L 0 -656 
L 659 -656 
L 659 4881 
L 0 4881 
L 0 5200 
z
" transform="scale(0.015625)"/>
      </defs>
      <use xlink:href="#Roboto-Light-45"/>
      <use xlink:href="#Roboto-Light-78" transform="translate(56.884766 0)"/>
      <use xlink:href="#Roboto-Light-65" transform="translate(105.517578 0)"/>
      <use xlink:href="#Roboto-Light-72" transform="translate(157.177734 0)"/>
      <use xlink:href="#Roboto-Light-67" transform="translate(190.820312 0)"/>
      <use xlink:href="#Roboto-Light-79" transform="translate(246.289062 0)"/>
      <use xlink:href="#Roboto-Light-20" transform="translate(293.798828 0)"/>
      <use xlink:href="#Roboto-Light-65" transform="translate(318.115234 0)"/>
      <use xlink:href="#Roboto-Light-66" transform="translate(369.775391 0)"/>
      <use xlink:href="#Roboto-Light-66" transform="translate(402.880859 0)"/>
      <use xlink:href="#Roboto-Light-69" transform="translate(435.986328 0)"/>
      <use xlink:href="#Roboto-Light-63" transform="translate(458.398438 0)"/>
      <use xlink:href="#Roboto-Light-69" transform="translate(509.912109 0)"/>
      <use xlink:href="#Roboto-Light-65" transform="translate(532.324219 0)"/>
      <use xlink:href="#Roboto-Light-6e" transform="translate(583.984375 0)"/>
      <use xlink:href="#Roboto-Light-63" transform="translate(638.916016 0)"/>
      <use xlink:href="#Roboto-Light-79" transform="translate(690.429688 0)"/>
      <use xlink:href="#Roboto-Light-20" transform="translate(737.939453 0)"/>
      <use xlink:href="#Roboto-Light-5b" transform="translate(762.255859 0)"/>
      <use xlink:href="#Roboto-Light-25" transform="translate(786.230469 0)"/>
      <use xlink:href="#Roboto-Light-5d" transform="translate(860.107422 0)"/>
     </g>
    </g>
   </g>
   <g id="matplotlib.axis_2">
    <g id="ytick_1">
     <g id="line2d_17">
      <defs>
       <path id="m60c9be02bc" d="M 0 0 
L -2 0 
" style="stroke: #000000; stroke-width: 0.3"/>
      </defs>
      <g>
       <use xlink:href="#m60c9be02bc" x="26.630226" y="156.83674" style="stroke: #000000; stroke-width: 0.3"/>
      </g>
     </g>
     <g id="text_18">
      <!-- 0.0 -->
      <g transform="translate(14.873507 159.27424) scale(0.065 -0.065)">
       <defs>
        <path id="Roboto-Light-2e" d="M 453 225 
Q 453 334 523 411 
Q 594 488 719 488 
Q 844 488 916 411 
Q 988 334 988 225 
Q 988 116 916 45 
Q 844 -25 719 -25 
Q 594 -25 523 45 
Q 453 116 453 225 
z
" transform="scale(0.015625)"/>
       </defs>
       <use xlink:href="#Roboto-Light-30"/>
       <use xlink:href="#Roboto-Light-2e" transform="translate(55.419922 0)"/>
       <use xlink:href="#Roboto-Light-30" transform="translate(79.296875 0)"/>
      </g>
     </g>
    </g>
    <g id="ytick_2">
     <g id="line2d_18">
      <g>
       <use xlink:href="#m60c9be02bc" x="26.630226" y="126.660362" style="stroke: #000000; stroke-width: 0.3"/>
      </g>
     </g>
     <g id="text_19">
      <!-- 0.1 -->
      <g transform="translate(14.873507 129.097862) scale(0.065 -0.065)">
       <use xlink:href="#Roboto-Light-30"/>
       <use xlink:href="#Roboto-Light-2e" transform="translate(55.419922 0)"/>
       <use xlink:href="#Roboto-Light-31" transform="translate(79.296875 0)"/>
      </g>
     </g>
    </g>
    <g id="ytick_3">
     <g id="line2d_19">
      <g>
       <use xlink:href="#m60c9be02bc" x="26.630226" y="96.483984" style="stroke: #000000; stroke-width: 0.3"/>
      </g>
     </g>
     <g id="text_20">
      <!-- 0.2 -->
      <g transform="translate(14.873507 98.921484) scale(0.065 -0.065)">
       <use xlink:href="#Roboto-Light-30"/>
       <use xlink:href="#Roboto-Light-2e" transform="translate(55.419922 0)"/>
       <use xlink:href="#Roboto-Light-32" transform="translate(79.296875 0)"/>
      </g>
     </g>
    </g>
    <g id="ytick_4">
     <g id="line2d_20">
      <g>
       <use xlink:href="#m60c9be02bc" x="26.630226" y="66.307606" style="stroke: #000000; stroke-width: 0.3"/>
      </g>
     </g>
     <g id="text_21">
      <!-- 0.3 -->
      <g transform="translate(14.873507 68.745106) scale(0.065 -0.065)">
       <use xlink:href="#Roboto-Light-30"/>
       <use xlink:href="#Roboto-Light-2e" transform="translate(55.419922 0)"/>
       <use xlink:href="#Roboto-Light-33" transform="translate(79.296875 0)"/>
      </g>
     </g>
    </g>
    <g id="ytick_5">
     <g id="line2d_21">
      <g>
       <use xlink:href="#m60c9be02bc" x="26.630226" y="36.131228" style="stroke: #000000; stroke-width: 0.3"/>
      </g>
     </g>
     <g id="text_22">
      <!-- 0.4 -->
      <g transform="translate(14.873507 38.568728) scale(0.065 -0.065)">
       <use xlink:href="#Roboto-Light-30"/>
       <use xlink:href="#Roboto-Light-2e" transform="translate(55.419922 0)"/>
       <use xlink:href="#Roboto-Light-34" transform="translate(79.296875 0)"/>
      </g>
     </g>
    </g>
    <g id="ytick_6">
     <g id="line2d_22">
      <g>
       <use xlink:href="#m60c9be02bc" x="26.630226" y="5.954849" style="stroke: #000000; stroke-width: 0.3"/>
      </g>
     </g>
     <g id="text_23">
      <!-- 0.5 -->
      <g transform="translate(14.873507 8.392349) scale(0.065 -0.065)">
       <use xlink:href="#Roboto-Light-30"/>
       <use xlink:href="#Roboto-Light-2e" transform="translate(55.419922 0)"/>
       <use xlink:href="#Roboto-Light-35" transform="translate(79.296875 0)"/>
      </g>
     </g>
    </g>
    <g id="text_24">
     <!-- Probability density -->
     <g transform="translate(9.272726 111.457318) rotate(-90) scale(0.075 -0.075)">
      <defs>
       <path id="Roboto-Light-50" d="M 959 1853 
L 959 0 
L 575 0 
L 575 4550 
L 2125 4550 
Q 2834 4550 3245 4187 
Q 3656 3825 3656 3191 
Q 3656 2550 3261 2201 
Q 2866 1853 2116 1853 
L 959 1853 
z
M 959 2178 
L 2125 2178 
Q 2684 2178 2978 2443 
Q 3272 2709 3272 3184 
Q 3272 3656 2980 3936 
Q 2688 4216 2150 4222 
L 959 4222 
L 959 2178 
z
" transform="scale(0.015625)"/>
       <path id="Roboto-Light-6f" d="M 281 1741 
Q 281 2228 470 2618 
Q 659 3009 1004 3226 
Q 1350 3444 1788 3444 
Q 2463 3444 2881 2970 
Q 3300 2497 3300 1716 
L 3300 1638 
Q 3300 1147 3111 755 
Q 2922 363 2578 150 
Q 2234 -63 1794 -63 
Q 1122 -63 701 410 
Q 281 884 281 1666 
L 281 1741 
z
M 656 1638 
Q 656 1031 970 642 
Q 1284 253 1794 253 
Q 2300 253 2614 642 
Q 2928 1031 2928 1669 
L 2928 1741 
Q 2928 2128 2784 2450 
Q 2641 2772 2381 2948 
Q 2122 3125 1788 3125 
Q 1288 3125 972 2733 
Q 656 2341 656 1706 
L 656 1638 
z
" transform="scale(0.015625)"/>
       <path id="Roboto-Light-62" d="M 3209 1656 
Q 3209 866 2859 401 
Q 2509 -63 1919 -63 
Q 1213 -63 850 463 
L 834 0 
L 484 0 
L 484 4800 
L 856 4800 
L 856 2891 
Q 1213 3444 1913 3444 
Q 2513 3444 2861 2986 
Q 3209 2528 3209 1713 
L 3209 1656 
z
M 2834 1722 
Q 2834 2391 2575 2755 
Q 2316 3119 1844 3119 
Q 1484 3119 1234 2942 
Q 984 2766 856 2425 
L 856 900 
Q 1138 263 1850 263 
Q 2313 263 2573 628 
Q 2834 994 2834 1722 
z
" transform="scale(0.015625)"/>
       <path id="Roboto-Light-61" d="M 2622 0 
Q 2566 159 2550 472 
Q 2353 216 2048 76 
Q 1744 -63 1403 -63 
Q 916 -63 614 209 
Q 313 481 313 897 
Q 313 1391 723 1678 
Q 1134 1966 1869 1966 
L 2547 1966 
L 2547 2350 
Q 2547 2713 2323 2920 
Q 2100 3128 1672 3128 
Q 1281 3128 1025 2928 
Q 769 2728 769 2447 
L 394 2450 
Q 394 2853 769 3148 
Q 1144 3444 1691 3444 
Q 2256 3444 2582 3161 
Q 2909 2878 2919 2372 
L 2919 772 
Q 2919 281 3022 38 
L 3022 0 
L 2622 0 
z
M 1447 269 
Q 1822 269 2117 450 
Q 2413 631 2547 934 
L 2547 1678 
L 1878 1678 
Q 1319 1672 1003 1473 
Q 688 1275 688 928 
Q 688 644 898 456 
Q 1109 269 1447 269 
z
" transform="scale(0.015625)"/>
       <path id="Roboto-Light-6c" d="M 906 0 
L 531 0 
L 531 4800 
L 906 4800 
L 906 0 
z
" transform="scale(0.015625)"/>
       <path id="Roboto-Light-74" d="M 1069 4247 
L 1069 3381 
L 1769 3381 
L 1769 3075 
L 1069 3075 
L 1069 822 
Q 1069 541 1170 403 
Q 1272 266 1509 266 
Q 1603 266 1813 297 
L 1828 -9 
Q 1681 -63 1428 -63 
Q 1044 -63 869 160 
Q 694 384 694 819 
L 694 3075 
L 72 3075 
L 72 3381 
L 694 3381 
L 694 4247 
L 1069 4247 
z
" transform="scale(0.015625)"/>
       <path id="Roboto-Light-64" d="M 338 1722 
Q 338 2509 689 2976 
Q 1041 3444 1644 3444 
Q 2328 3444 2688 2903 
L 2688 4800 
L 3059 4800 
L 3059 0 
L 2709 0 
L 2694 450 
Q 2334 -63 1638 -63 
Q 1053 -63 695 407 
Q 338 878 338 1678 
L 338 1722 
z
M 716 1656 
Q 716 1009 975 636 
Q 1234 263 1706 263 
Q 2397 263 2688 872 
L 2688 2459 
Q 2397 3119 1713 3119 
Q 1241 3119 978 2748 
Q 716 2378 716 1656 
z
" transform="scale(0.015625)"/>
       <path id="Roboto-Light-73" d="M 2513 859 
Q 2513 1138 2289 1306 
Q 2066 1475 1616 1570 
Q 1166 1666 917 1789 
Q 669 1913 548 2091 
Q 428 2269 428 2522 
Q 428 2922 762 3183 
Q 1097 3444 1619 3444 
Q 2184 3444 2526 3164 
Q 2869 2884 2869 2434 
L 2494 2434 
Q 2494 2731 2245 2928 
Q 1997 3125 1619 3125 
Q 1250 3125 1026 2961 
Q 803 2797 803 2534 
Q 803 2281 989 2142 
Q 1175 2003 1667 1887 
Q 2159 1772 2404 1640 
Q 2650 1509 2769 1325 
Q 2888 1141 2888 878 
Q 2888 450 2542 193 
Q 2197 -63 1641 -63 
Q 1050 -63 683 223 
Q 316 509 316 947 
L 691 947 
Q 713 619 967 436 
Q 1222 253 1641 253 
Q 2031 253 2272 425 
Q 2513 597 2513 859 
z
" transform="scale(0.015625)"/>
      </defs>
      <use xlink:href="#Roboto-Light-50"/>
      <use xlink:href="#Roboto-Light-72" transform="translate(61.572266 0)"/>
      <use xlink:href="#Roboto-Light-6f" transform="translate(95.214844 0)"/>
      <use xlink:href="#Roboto-Light-62" transform="translate(151.220703 0)"/>
      <use xlink:href="#Roboto-Light-61" transform="translate(206.640625 0)"/>
      <use xlink:href="#Roboto-Light-62" transform="translate(260.205078 0)"/>
      <use xlink:href="#Roboto-Light-69" transform="translate(315.625 0)"/>
      <use xlink:href="#Roboto-Light-6c" transform="translate(338.037109 0)"/>
      <use xlink:href="#Roboto-Light-69" transform="translate(360.449219 0)"/>
      <use xlink:href="#Roboto-Light-74" transform="translate(382.861328 0)"/>
      <use xlink:href="#Roboto-Light-79" transform="translate(414.990234 0)"/>
      <use xlink:href="#Roboto-Light-20" transform="translate(462.5 0)"/>
      <use xlink:href="#Roboto-Light-64" transform="translate(486.816406 0)"/>
      <use xlink:href="#Roboto-Light-65" transform="translate(542.382812 0)"/>
      <use xlink:href="#Roboto-Light-6e" transform="translate(594.042969 0)"/>
      <use xlink:href="#Roboto-Light-73" transform="translate(648.974609 0)"/>
      <use xlink:href="#Roboto-Light-69" transform="translate(699.609375 0)"/>
      <use xlink:href="#Roboto-Light-74" transform="translate(722.021484 0)"/>
      <use xlink:href="#Roboto-Light-79" transform="translate(754.150391 0)"/>
     </g>
    </g>
   </g>
   <g id="legend_1">
    <g id="patch_5">
     <path d="M 246.328584 13.454849 
L 258.328584 13.454849 
L 258.328584 9.254849 
L 246.328584 9.254849 
z
" style="fill: #be185d; fill-opacity: 0.25; stroke: #be185d; stroke-width: 0.75; stroke-linejoin: miter"/>
    </g>
    <g id="text_25">
     <!-- Air source heat pump -->
     <g transform="translate(261.328584 13.454849) scale(0.06 -0.06)">
      <defs>
       <path id="Roboto-Light-41" d="M 3031 1275 
L 966 1275 
L 497 0 
L 94 0 
L 1816 4550 
L 2181 4550 
L 3903 0 
L 3503 0 
L 3031 1275 
z
M 1084 1603 
L 2909 1603 
L 1997 4081 
L 1084 1603 
z
" transform="scale(0.015625)"/>
       <path id="Roboto-Light-75" d="M 2663 428 
Q 2325 -63 1584 -63 
Q 1044 -63 762 251 
Q 481 566 475 1181 
L 475 3381 
L 847 3381 
L 847 1228 
Q 847 263 1628 263 
Q 2441 263 2656 934 
L 2656 3381 
L 3031 3381 
L 3031 0 
L 2669 0 
L 2663 428 
z
" transform="scale(0.015625)"/>
       <path id="Roboto-Light-68" d="M 859 2809 
Q 1044 3113 1331 3278 
Q 1619 3444 1959 3444 
Q 2503 3444 2768 3137 
Q 3034 2831 3038 2219 
L 3038 0 
L 2666 0 
L 2666 2222 
Q 2663 2675 2473 2897 
Q 2284 3119 1869 3119 
Q 1522 3119 1255 2901 
Q 988 2684 859 2316 
L 859 0 
L 488 0 
L 488 4800 
L 859 4800 
L 859 2809 
z
" transform="scale(0.015625)"/>
       <path id="Roboto-Light-70" d="M 3206 1656 
Q 3206 866 2856 401 
Q 2506 -63 1919 -63 
Q 1225 -63 856 425 
L 856 -1300 
L 484 -1300 
L 484 3381 
L 831 3381 
L 850 2903 
Q 1216 3444 1909 3444 
Q 2516 3444 2861 2984 
Q 3206 2525 3206 1709 
L 3206 1656 
z
M 2831 1722 
Q 2831 2369 2565 2744 
Q 2300 3119 1825 3119 
Q 1481 3119 1234 2953 
Q 988 2788 856 2472 
L 856 850 
Q 991 559 1241 406 
Q 1491 253 1831 253 
Q 2303 253 2567 629 
Q 2831 1006 2831 1722 
z
" transform="scale(0.015625)"/>
       <path id="Roboto-Light-6d" d="M 828 3381 
L 841 2831 
Q 1028 3138 1309 3291 
Q 1591 3444 1934 3444 
Q 2734 3444 2950 2788 
Q 3131 3103 3434 3273 
Q 3738 3444 4103 3444 
Q 5191 3444 5213 2256 
L 5213 0 
L 4838 0 
L 4838 2228 
Q 4834 2681 4642 2900 
Q 4450 3119 4016 3119 
Q 3613 3113 3334 2858 
Q 3056 2603 3025 2238 
L 3025 0 
L 2650 0 
L 2650 2256 
Q 2647 2691 2445 2905 
Q 2244 3119 1825 3119 
Q 1472 3119 1219 2917 
Q 966 2716 844 2319 
L 844 0 
L 469 0 
L 469 3381 
L 828 3381 
z
" transform="scale(0.015625)"/>
      </defs>
      <use xlink:href="#Roboto-Light-41"/>
      <use xlink:href="#Roboto-Light-69" transform="translate(62.451172 0)"/>
      <use xlink:href="#Roboto-Light-72" transform="translate(84.863281 0)"/>
      <use xlink:href="#Roboto-Light-20" transform="translate(118.505859 0)"/>
      <use xlink:href="#Roboto-Light-73" transform="translate(142.822266 0)"/>
      <use xlink:href="#Roboto-Light-6f" transform="translate(193.457031 0)"/>
      <use xlink:href="#Roboto-Light-75" transform="translate(249.462891 0)"/>
      <use xlink:href="#Roboto-Light-72" transform="translate(304.394531 0)"/>
      <use xlink:href="#Roboto-Light-63" transform="translate(338.037109 0)"/>
      <use xlink:href="#Roboto-Light-65" transform="translate(389.550781 0)"/>
      <use xlink:href="#Roboto-Light-20" transform="translate(441.210938 0)"/>
      <use xlink:href="#Roboto-Light-68" transform="translate(465.527344 0)"/>
      <use xlink:href="#Roboto-Light-65" transform="translate(520.410156 0)"/>
      <use xlink:href="#Roboto-Light-61" transform="translate(572.070312 0)"/>
      <use xlink:href="#Roboto-Light-74" transform="translate(625.634766 0)"/>
      <use xlink:href="#Roboto-Light-20" transform="translate(657.763672 0)"/>
      <use xlink:href="#Roboto-Light-70" transform="translate(682.080078 0)"/>
      <use xlink:href="#Roboto-Light-75" transform="translate(737.5 0)"/>
      <use xlink:href="#Roboto-Light-6d" transform="translate(792.431641 0)"/>
      <use xlink:href="#Roboto-Light-70" transform="translate(881.054688 0)"/>
     </g>
    </g>
    <g id="patch_6">
     <path d="M 246.328584 22.773599 
L 258.328584 22.773599 
L 258.328584 18.573599 
L 246.328584 18.573599 
z
" style="fill: #c2410c; fill-opacity: 0.25; stroke: #c2410c; stroke-width: 0.75; stroke-linejoin: miter"/>
    </g>
    <g id="text_26">
     <!-- Electric heater -->
     <g transform="translate(261.328584 22.773599) scale(0.06 -0.06)">
      <use xlink:href="#Roboto-Light-45"/>
      <use xlink:href="#Roboto-Light-6c" transform="translate(56.884766 0)"/>
      <use xlink:href="#Roboto-Light-65" transform="translate(79.296875 0)"/>
      <use xlink:href="#Roboto-Light-63" transform="translate(130.957031 0)"/>
      <use xlink:href="#Roboto-Light-74" transform="translate(182.470703 0)"/>
      <use xlink:href="#Roboto-Light-72" transform="translate(214.599609 0)"/>
      <use xlink:href="#Roboto-Light-69" transform="translate(248.242188 0)"/>
      <use xlink:href="#Roboto-Light-63" transform="translate(270.654297 0)"/>
      <use xlink:href="#Roboto-Light-20" transform="translate(322.167969 0)"/>
      <use xlink:href="#Roboto-Light-68" transform="translate(346.484375 0)"/>
      <use xlink:href="#Roboto-Light-65" transform="translate(401.367188 0)"/>
      <use xlink:href="#Roboto-Light-61" transform="translate(453.027344 0)"/>
      <use xlink:href="#Roboto-Light-74" transform="translate(506.591797 0)"/>
      <use xlink:href="#Roboto-Light-65" transform="translate(538.720703 0)"/>
      <use xlink:href="#Roboto-Light-72" transform="translate(590.380859 0)"/>
     </g>
    </g>
    <g id="patch_7">
     <path d="M 246.328584 32.092349 
L 258.328584 32.092349 
L 258.328584 27.892349 
L 246.328584 27.892349 
z
" style="fill: #a16207; fill-opacity: 0.25; stroke: #a16207; stroke-width: 0.75; stroke-linejoin: miter"/>
    </g>
    <g id="text_27">
     <!-- Ground source heat pump -->
     <g transform="translate(261.328584 32.092349) scale(0.06 -0.06)">
      <defs>
       <path id="Roboto-Light-47" d="M 3859 541 
Q 3659 256 3232 96 
Q 2806 -63 2278 -63 
Q 1744 -63 1328 193 
Q 913 450 684 919 
Q 456 1388 453 1994 
L 453 2569 
Q 453 3516 931 4064 
Q 1409 4613 2216 4613 
Q 2919 4613 3347 4255 
Q 3775 3897 3856 3269 
L 3472 3269 
Q 3388 3769 3064 4026 
Q 2741 4284 2219 4284 
Q 1581 4284 1209 3831 
Q 838 3378 838 2553 
L 838 2016 
Q 838 1497 1014 1098 
Q 1191 700 1520 481 
Q 1850 263 2278 263 
Q 2775 263 3131 419 
Q 3363 522 3475 659 
L 3475 1834 
L 2253 1834 
L 2253 2159 
L 3859 2159 
L 3859 541 
z
" transform="scale(0.015625)"/>
      </defs>
      <use xlink:href="#Roboto-Light-47"/>
      <use xlink:href="#Roboto-Light-72" transform="translate(68.359375 0)"/>
      <use xlink:href="#Roboto-Light-6f" transform="translate(102.001953 0)"/>
      <use xlink:href="#Roboto-Light-75" transform="translate(158.007812 0)"/>
      <use xlink:href="#Roboto-Light-6e" transform="translate(212.939453 0)"/>
      <use xlink:href="#Roboto-Light-64" transform="translate(267.871094 0)"/>
      <use xlink:href="#Roboto-Light-20" transform="translate(323.4375 0)"/>
      <use xlink:href="#Roboto-Light-73" transform="translate(347.753906 0)"/>
      <use xlink:href="#Roboto-Light-6f" transform="translate(398.388672 0)"/>
      <use xlink:href="#Roboto-Light-75" transform="translate(454.394531 0)"/>
      <use xlink:href="#Roboto-Light-72" transform="translate(509.326172 0)"/>
      <use xlink:href="#Roboto-Light-63" transform="translate(542.96875 0)"/>
      <use xlink:href="#Roboto-Light-65" transform="translate(594.482422 0)"/>
      <use xlink:href="#Roboto-Light-20" transform="translate(646.142578 0)"/>
      <use xlink:href="#Roboto-Light-68" transform="translate(670.458984 0)"/>
      <use xlink:href="#Roboto-Light-65" transform="translate(725.341797 0)"/>
      <use xlink:href="#Roboto-Light-61" transform="translate(777.001953 0)"/>
      <use xlink:href="#Roboto-Light-74" transform="translate(830.566406 0)"/>
      <use xlink:href="#Roboto-Light-20" transform="translate(862.695312 0)"/>
      <use xlink:href="#Roboto-Light-70" transform="translate(887.011719 0)"/>
      <use xlink:href="#Roboto-Light-75" transform="translate(942.431641 0)"/>
      <use xlink:href="#Roboto-Light-6d" transform="translate(997.363281 0)"/>
      <use xlink:href="#Roboto-Light-70" transform="translate(1085.986328 0)"/>
     </g>
    </g>
   </g>
  </g>
 </g>
 <defs>
  <clipPath id="p8d4c016bb7">
   <rect x="26.630226" y="5.954849" width="306.182734" height="150.881891"/>
  </clipPath>
 </defs>
</svg>
