<?xml version="1.0" encoding="utf-8" standalone="no"?>
<!DOCTYPE svg PUBLIC "-//W3C//DTD SVG 1.1//EN"
  "http://www.w3.org/Graphics/SVG/1.1/DTD/svg11.dtd">
<svg xmlns:xlink="http://www.w3.org/1999/xlink" width="340.15748pt" height="184.251969pt" viewBox="0 0 340.15748 184.251969" xmlns="http://www.w3.org/2000/svg" version="1.1">
 <metadata>
  <rdf:RDF xmlns:dc="http://purl.org/dc/elements/1.1/" xmlns:cc="http://creativecommons.org/ns#" xmlns:rdf="http://www.w3.org/1999/02/22-rdf-syntax-ns#">
   <cc:Work>
    <dc:type rdf:resource="http://purl.org/dc/dcmitype/StillImage"/>
    <dc:date>2025-07-17T16:47:14.723011</dc:date>
    <dc:format>image/svg+xml</dc:format>
    <dc:creator>
     <cc:Agent>
      <dc:title>Matplotlib v3.10.3, https://matplotlib.org/</dc:title>
     </cc:Agent>
    </dc:creator>
   </cc:Work>
  </rdf:RDF>
 </metadata>
 <defs>
  <style type="text/css">*{stroke-linejoin: round; stroke-linecap: butt}</style>
 </defs>
 <g id="figure_1">
  <g id="patch_1">
   <path d="M 0 184.251969 
L 340.15748 184.251969 
L 340.15748 0 
L 0 0 
L 0 184.251969 
z
" style="fill: none"/>
  </g>
  <g id="axes_1">
   <g id="patch_2">
    <path d="M 26.630226 156.83674 
L 332.812959 156.83674 
L 332.812959 5.954849 
L 26.630226 5.954849 
L 26.630226 156.83674 
z
" style="fill: none"/>
   </g>
   <g id="FillBetweenPolyCollection_1">
    <defs>
     <path id="m2a221acd4b" d="M 95.394788 -27.463278 
L 95.394788 -27.415228 
L 95.615344 -27.415228 
L 95.835901 -27.415228 
L 96.056457 -27.415228 
L 96.277013 -27.415228 
L 96.497569 -27.415228 
L 96.718125 -27.415228 
L 96.938681 -27.415228 
L 97.159237 -27.415228 
L 97.379793 -27.415228 
L 97.60035 -27.415228 
L 97.820906 -27.415228 
L 98.041462 -27.415228 
L 98.262018 -27.415228 
L 98.482574 -27.415228 
L 98.70313 -27.415228 
L 98.923686 -27.415228 
L 99.144243 -27.415228 
L 99.364799 -27.415228 
L 99.585355 -27.415228 
L 99.805911 -27.415228 
L 100.026467 -27.415228 
L 100.247023 -27.415228 
L 100.467579 -27.415228 
L 100.688136 -27.415228 
L 100.908692 -27.415228 
L 101.129248 -27.415228 
L 101.349804 -27.415228 
L 101.57036 -27.415228 
L 101.790916 -27.415228 
L 102.011472 -27.415228 
L 102.232028 -27.415228 
L 102.452585 -27.415228 
L 102.673141 -27.415228 
L 102.893697 -27.415228 
L 103.114253 -27.415228 
L 103.334809 -27.415228 
L 103.555365 -27.415228 
L 103.775921 -27.415228 
L 103.996478 -27.415228 
L 104.217034 -27.415228 
L 104.43759 -27.415228 
L 104.658146 -27.415228 
L 104.878702 -27.415228 
L 105.099258 -27.415228 
L 105.319814 -27.415228 
L 105.54037 -27.415228 
L 105.760927 -27.415228 
L 105.981483 -27.415228 
L 106.202039 -27.415228 
L 106.422595 -27.415228 
L 106.643151 -27.415228 
L 106.863707 -27.415228 
L 107.084263 -27.415228 
L 107.30482 -27.415228 
L 107.525376 -27.415228 
L 107.745932 -27.415228 
L 107.966488 -27.415228 
L 108.187044 -27.415228 
L 108.4076 -27.415228 
L 108.628156 -27.415228 
L 108.848713 -27.415228 
L 109.069269 -27.415228 
L 109.289825 -27.415228 
L 109.510381 -27.415228 
L 109.730937 -27.415228 
L 109.951493 -27.415228 
L 110.172049 -27.415228 
L 110.392605 -27.415228 
L 110.613162 -27.415228 
L 110.833718 -27.415228 
L 111.054274 -27.415228 
L 111.27483 -27.415228 
L 111.495386 -27.415228 
L 111.715942 -27.415228 
L 111.936498 -27.415228 
L 112.157055 -27.415228 
L 112.377611 -27.415228 
L 112.598167 -27.415228 
L 112.818723 -27.415228 
L 113.039279 -27.415228 
L 113.259835 -27.415228 
L 113.480391 -27.415228 
L 113.700947 -27.415228 
L 113.921504 -27.415228 
L 114.14206 -27.415228 
L 114.362616 -27.415228 
L 114.583172 -27.415228 
L 114.803728 -27.415228 
L 115.024284 -27.415228 
L 115.24484 -27.415228 
L 115.465397 -27.415228 
L 115.685953 -27.415228 
L 115.906509 -27.415228 
L 116.127065 -27.415228 
L 116.347621 -27.415228 
L 116.568177 -27.415228 
L 116.788733 -27.415228 
L 117.009289 -27.415228 
L 117.229846 -27.415228 
L 117.450402 -27.415228 
L 117.670958 -27.415228 
L 117.891514 -27.415228 
L 118.11207 -27.415228 
L 118.332626 -27.415228 
L 118.553182 -27.415228 
L 118.773739 -27.415228 
L 118.994295 -27.415228 
L 119.214851 -27.415228 
L 119.435407 -27.415228 
L 119.655963 -27.415228 
L 119.876519 -27.415228 
L 120.097075 -27.415228 
L 120.317632 -27.415228 
L 120.538188 -27.415228 
L 120.758744 -27.415228 
L 120.9793 -27.415228 
L 121.199856 -27.415228 
L 121.420412 -27.415228 
L 121.640968 -27.415228 
L 121.861524 -27.415228 
L 122.082081 -27.415228 
L 122.302637 -27.415228 
L 122.523193 -27.415228 
L 122.743749 -27.415228 
L 122.964305 -27.415228 
L 123.184861 -27.415228 
L 123.405417 -27.415228 
L 123.625974 -27.415228 
L 123.84653 -27.415228 
L 124.067086 -27.415228 
L 124.287642 -27.415228 
L 124.508198 -27.415228 
L 124.728754 -27.415228 
L 124.94931 -27.415228 
L 125.169866 -27.415228 
L 125.390423 -27.415228 
L 125.610979 -27.415228 
L 125.831535 -27.415228 
L 126.052091 -27.415228 
L 126.272647 -27.415228 
L 126.493203 -27.415228 
L 126.713759 -27.415228 
L 126.934316 -27.415228 
L 127.154872 -27.415228 
L 127.375428 -27.415228 
L 127.595984 -27.415228 
L 127.81654 -27.415228 
L 128.037096 -27.415228 
L 128.257652 -27.415228 
L 128.478208 -27.415228 
L 128.698765 -27.415228 
L 128.919321 -27.415228 
L 129.139877 -27.415228 
L 129.360433 -27.415228 
L 129.580989 -27.415228 
L 129.801545 -27.415228 
L 130.022101 -27.415228 
L 130.242658 -27.415228 
L 130.463214 -27.415228 
L 130.68377 -27.415228 
L 130.904326 -27.415228 
L 131.124882 -27.415228 
L 131.345438 -27.415228 
L 131.565994 -27.415228 
L 131.786551 -27.415228 
L 132.007107 -27.415228 
L 132.227663 -27.415228 
L 132.448219 -27.415228 
L 132.668775 -27.415228 
L 132.889331 -27.415228 
L 133.109887 -27.415228 
L 133.330443 -27.415228 
L 133.551 -27.415228 
L 133.771556 -27.415228 
L 133.992112 -27.415228 
L 134.212668 -27.415228 
L 134.433224 -27.415228 
L 134.65378 -27.415228 
L 134.874336 -27.415228 
L 135.094893 -27.415228 
L 135.315449 -27.415228 
L 135.536005 -27.415228 
L 135.756561 -27.415228 
L 135.977117 -27.415228 
L 136.197673 -27.415228 
L 136.418229 -27.415228 
L 136.638785 -27.415228 
L 136.859342 -27.415228 
L 137.079898 -27.415228 
L 137.300454 -27.415228 
L 137.52101 -27.415228 
L 137.741566 -27.415228 
L 137.962122 -27.415228 
L 138.182678 -27.415228 
L 138.403235 -27.415228 
L 138.623791 -27.415228 
L 138.844347 -27.415228 
L 139.064903 -27.415228 
L 139.285459 -27.415228 
L 139.285459 -27.49804 
L 139.285459 -27.49804 
L 139.064903 -27.559287 
L 138.844347 -27.658967 
L 138.623791 -27.816392 
L 138.403235 -28.057652 
L 138.182678 -28.416432 
L 137.962122 -28.934156 
L 137.741566 -29.659057 
L 137.52101 -30.643879 
L 137.300454 -31.941999 
L 137.079898 -33.602076 
L 136.859342 -35.661612 
L 136.638785 -38.14019 
L 136.418229 -41.033418 
L 136.197673 -44.308719 
L 135.977117 -47.903998 
L 135.756561 -51.729841 
L 135.536005 -55.675339 
L 135.315449 -59.61697 
L 135.094893 -63.429391 
L 134.874336 -66.996585 
L 134.65378 -70.22174 
L 134.433224 -73.034485 
L 134.212668 -75.394609 
L 133.992112 -77.292059 
L 133.771556 -78.743625 
L 133.551 -79.787238 
L 133.330443 -80.475011 
L 133.109887 -80.866191 
L 132.889331 -81.02094 
L 132.668775 -80.995549 
L 132.448219 -80.839317 
L 132.227663 -80.593019 
L 132.007107 -80.288672 
L 131.786551 -79.950211 
L 131.565994 -79.594695 
L 131.345438 -79.233694 
L 131.124882 -78.87465 
L 130.904326 -78.522054 
L 130.68377 -78.178396 
L 130.463214 -77.844871 
L 130.242658 -77.521888 
L 130.022101 -77.209399 
L 129.801545 -76.907116 
L 129.580989 -76.61464 
L 129.360433 -76.331521 
L 129.139877 -76.057303 
L 128.919321 -75.791533 
L 128.698765 -75.533774 
L 128.478208 -75.283609 
L 128.257652 -75.040653 
L 128.037096 -74.804548 
L 127.81654 -74.574975 
L 127.595984 -74.351639 
L 127.375428 -74.134272 
L 127.154872 -73.922617 
L 126.934316 -73.716422 
L 126.713759 -73.515439 
L 126.493203 -73.319425 
L 126.272647 -73.12815 
L 126.052091 -72.941401 
L 125.831535 -72.758993 
L 125.610979 -72.580766 
L 125.390423 -72.406578 
L 125.169866 -72.236295 
L 124.94931 -72.069784 
L 124.728754 -71.9069 
L 124.508198 -71.747488 
L 124.287642 -71.591393 
L 124.067086 -71.438464 
L 123.84653 -71.288571 
L 123.625974 -71.141607 
L 123.405417 -70.997492 
L 123.184861 -70.856162 
L 122.964305 -70.717555 
L 122.743749 -70.581602 
L 122.523193 -70.448214 
L 122.302637 -70.317283 
L 122.082081 -70.188692 
L 121.861524 -70.062326 
L 121.640968 -69.938089 
L 121.420412 -69.815912 
L 121.199856 -69.695755 
L 120.9793 -69.577598 
L 120.758744 -69.461425 
L 120.538188 -69.347212 
L 120.317632 -69.234909 
L 120.097075 -69.12444 
L 119.876519 -69.015708 
L 119.655963 -68.908612 
L 119.435407 -68.803063 
L 119.214851 -68.699002 
L 118.994295 -68.5964 
L 118.773739 -68.495261 
L 118.553182 -68.395601 
L 118.332626 -68.297434 
L 118.11207 -68.200748 
L 117.891514 -68.105501 
L 117.670958 -68.011617 
L 117.450402 -67.919003 
L 117.229846 -67.827565 
L 117.009289 -67.737228 
L 116.788733 -67.647955 
L 116.568177 -67.559747 
L 116.347621 -67.472633 
L 116.127065 -67.386657 
L 115.906509 -67.301849 
L 115.685953 -67.218211 
L 115.465397 -67.135703 
L 115.24484 -67.054251 
L 115.024284 -66.973758 
L 114.803728 -66.894131 
L 114.583172 -66.8153 
L 114.362616 -66.737235 
L 114.14206 -66.659952 
L 113.921504 -66.5835 
L 113.700947 -66.507939 
L 113.480391 -66.433321 
L 113.259835 -66.359661 
L 113.039279 -66.286931 
L 112.818723 -66.21506 
L 112.598167 -66.143949 
L 112.377611 -66.073497 
L 112.157055 -66.003626 
L 111.936498 -65.934303 
L 111.715942 -65.865541 
L 111.495386 -65.797398 
L 111.27483 -65.72995 
L 111.054274 -65.663271 
L 110.833718 -65.597399 
L 110.613162 -65.532328 
L 110.392605 -65.467999 
L 110.172049 -65.404315 
L 109.951493 -65.341165 
L 109.730937 -65.278456 
L 109.510381 -65.216131 
L 109.289825 -65.154188 
L 109.069269 -65.092678 
L 108.848713 -65.031684 
L 108.628156 -64.971301 
L 108.4076 -64.911601 
L 108.187044 -64.852609 
L 107.966488 -64.794295 
L 107.745932 -64.73658 
L 107.525376 -64.679348 
L 107.30482 -64.622486 
L 107.084263 -64.565903 
L 106.863707 -64.509564 
L 106.643151 -64.45349 
L 106.422595 -64.397755 
L 106.202039 -64.342463 
L 105.981483 -64.287717 
L 105.760927 -64.233587 
L 105.54037 -64.18009 
L 105.319814 -64.127176 
L 105.099258 -64.074736 
L 104.878702 -64.022621 
L 104.658146 -63.970657 
L 104.43759 -63.918655 
L 104.217034 -63.866389 
L 103.996478 -63.813532 
L 103.775921 -63.759523 
L 103.555365 -63.703359 
L 103.334809 -63.643284 
L 103.114253 -63.57637 
L 102.893697 -63.49798 
L 102.673141 -63.401123 
L 102.452585 -63.275739 
L 102.232028 -63.107997 
L 102.011472 -62.879726 
L 101.790916 -62.568153 
L 101.57036 -62.146158 
L 101.349804 -61.583246 
L 101.129248 -60.847379 
L 100.908692 -59.907709 
L 100.688136 -58.738049 
L 100.467579 -57.320767 
L 100.247023 -55.650547 
L 100.026467 -53.737406 
L 99.805911 -51.608306 
L 99.585355 -49.306896 
L 99.364799 -46.891143 
L 99.144243 -44.42904 
L 98.923686 -41.992864 
L 98.70313 -39.652814 
L 98.482574 -37.470941 
L 98.262018 -35.496236 
L 98.041462 -33.761518 
L 97.820906 -32.282418 
L 97.60035 -31.058366 
L 97.379793 -30.075196 
L 97.159237 -29.308754 
L 96.938681 -28.728862 
L 96.718125 -28.303039 
L 96.497569 -27.999563 
L 96.277013 -27.789657 
L 96.056457 -27.648748 
L 95.835901 -27.556946 
L 95.615344 -27.498899 
L 95.394788 -27.463278 
z
" style="stroke: #1d4ed8; stroke-width: 0.75"/>
    </defs>
    <g clip-path="url(#p922aa997c9)">
     <use xlink:href="#m2a221acd4b" x="0" y="184.251969" style="fill: #1d4ed8; fill-opacity: 0.25; stroke: #1d4ed8; stroke-width: 0.75"/>
    </g>
   </g>
   <g id="FillBetweenPolyCollection_2">
    <defs>
     <path id="m18e5160ef3" d="M 98.803893 -27.453634 
L 98.803893 -27.415228 
L 99.133621 -27.415228 
L 99.463349 -27.415228 
L 99.793077 -27.415228 
L 100.122805 -27.415228 
L 100.452533 -27.415228 
L 100.782261 -27.415228 
L 101.111989 -27.415228 
L 101.441717 -27.415228 
L 101.771445 -27.415228 
L 102.101173 -27.415228 
L 102.430901 -27.415228 
L 102.760628 -27.415228 
L 103.090356 -27.415228 
L 103.420084 -27.415228 
L 103.749812 -27.415228 
L 104.07954 -27.415228 
L 104.409268 -27.415228 
L 104.738996 -27.415228 
L 105.068724 -27.415228 
L 105.398452 -27.415228 
L 105.72818 -27.415228 
L 106.057908 -27.415228 
L 106.387636 -27.415228 
L 106.717364 -27.415228 
L 107.047092 -27.415228 
L 107.376819 -27.415228 
L 107.706547 -27.415228 
L 108.036275 -27.415228 
L 108.366003 -27.415228 
L 108.695731 -27.415228 
L 109.025459 -27.415228 
L 109.355187 -27.415228 
L 109.684915 -27.415228 
L 110.014643 -27.415228 
L 110.344371 -27.415228 
L 110.674099 -27.415228 
L 111.003827 -27.415228 
L 111.333555 -27.415228 
L 111.663283 -27.415228 
L 111.993011 -27.415228 
L 112.322738 -27.415228 
L 112.652466 -27.415228 
L 112.982194 -27.415228 
L 113.311922 -27.415228 
L 113.64165 -27.415228 
L 113.971378 -27.415228 
L 114.301106 -27.415228 
L 114.630834 -27.415228 
L 114.960562 -27.415228 
L 115.29029 -27.415228 
L 115.620018 -27.415228 
L 115.949746 -27.415228 
L 116.279474 -27.415228 
L 116.609202 -27.415228 
L 116.938929 -27.415228 
L 117.268657 -27.415228 
L 117.598385 -27.415228 
L 117.928113 -27.415228 
L 118.257841 -27.415228 
L 118.587569 -27.415228 
L 118.917297 -27.415228 
L 119.247025 -27.415228 
L 119.576753 -27.415228 
L 119.906481 -27.415228 
L 120.236209 -27.415228 
L 120.565937 -27.415228 
L 120.895665 -27.415228 
L 121.225393 -27.415228 
L 121.555121 -27.415228 
L 121.884848 -27.415228 
L 122.214576 -27.415228 
L 122.544304 -27.415228 
L 122.874032 -27.415228 
L 123.20376 -27.415228 
L 123.533488 -27.415228 
L 123.863216 -27.415228 
L 124.192944 -27.415228 
L 124.522672 -27.415228 
L 124.8524 -27.415228 
L 125.182128 -27.415228 
L 125.511856 -27.415228 
L 125.841584 -27.415228 
L 126.171312 -27.415228 
L 126.501039 -27.415228 
L 126.830767 -27.415228 
L 127.160495 -27.415228 
L 127.490223 -27.415228 
L 127.819951 -27.415228 
L 128.149679 -27.415228 
L 128.479407 -27.415228 
L 128.809135 -27.415228 
L 129.138863 -27.415228 
L 129.468591 -27.415228 
L 129.798319 -27.415228 
L 130.128047 -27.415228 
L 130.457775 -27.415228 
L 130.787503 -27.415228 
L 131.117231 -27.415228 
L 131.446958 -27.415228 
L 131.776686 -27.415228 
L 132.106414 -27.415228 
L 132.436142 -27.415228 
L 132.76587 -27.415228 
L 133.095598 -27.415228 
L 133.425326 -27.415228 
L 133.755054 -27.415228 
L 134.084782 -27.415228 
L 134.41451 -27.415228 
L 134.744238 -27.415228 
L 135.073966 -27.415228 
L 135.403694 -27.415228 
L 135.733422 -27.415228 
L 136.063149 -27.415228 
L 136.392877 -27.415228 
L 136.722605 -27.415228 
L 137.052333 -27.415228 
L 137.382061 -27.415228 
L 137.711789 -27.415228 
L 138.041517 -27.415228 
L 138.371245 -27.415228 
L 138.700973 -27.415228 
L 139.030701 -27.415228 
L 139.360429 -27.415228 
L 139.690157 -27.415228 
L 140.019885 -27.415228 
L 140.349613 -27.415228 
L 140.679341 -27.415228 
L 141.009068 -27.415228 
L 141.338796 -27.415228 
L 141.668524 -27.415228 
L 141.998252 -27.415228 
L 142.32798 -27.415228 
L 142.657708 -27.415228 
L 142.987436 -27.415228 
L 143.317164 -27.415228 
L 143.646892 -27.415228 
L 143.97662 -27.415228 
L 144.306348 -27.415228 
L 144.636076 -27.415228 
L 144.965804 -27.415228 
L 145.295532 -27.415228 
L 145.625259 -27.415228 
L 145.954987 -27.415228 
L 146.284715 -27.415228 
L 146.614443 -27.415228 
L 146.944171 -27.415228 
L 147.273899 -27.415228 
L 147.603627 -27.415228 
L 147.933355 -27.415228 
L 148.263083 -27.415228 
L 148.592811 -27.415228 
L 148.922539 -27.415228 
L 149.252267 -27.415228 
L 149.581995 -27.415228 
L 149.911723 -27.415228 
L 150.241451 -27.415228 
L 150.571178 -27.415228 
L 150.900906 -27.415228 
L 151.230634 -27.415228 
L 151.560362 -27.415228 
L 151.89009 -27.415228 
L 152.219818 -27.415228 
L 152.549546 -27.415228 
L 152.879274 -27.415228 
L 153.209002 -27.415228 
L 153.53873 -27.415228 
L 153.868458 -27.415228 
L 154.198186 -27.415228 
L 154.527914 -27.415228 
L 154.857642 -27.415228 
L 155.187369 -27.415228 
L 155.517097 -27.415228 
L 155.846825 -27.415228 
L 156.176553 -27.415228 
L 156.506281 -27.415228 
L 156.836009 -27.415228 
L 157.165737 -27.415228 
L 157.495465 -27.415228 
L 157.825193 -27.415228 
L 158.154921 -27.415228 
L 158.484649 -27.415228 
L 158.814377 -27.415228 
L 159.144105 -27.415228 
L 159.473833 -27.415228 
L 159.803561 -27.415228 
L 160.133288 -27.415228 
L 160.463016 -27.415228 
L 160.792744 -27.415228 
L 161.122472 -27.415228 
L 161.4522 -27.415228 
L 161.781928 -27.415228 
L 162.111656 -27.415228 
L 162.441384 -27.415228 
L 162.771112 -27.415228 
L 163.10084 -27.415228 
L 163.430568 -27.415228 
L 163.760296 -27.415228 
L 164.090024 -27.415228 
L 164.419752 -27.415228 
L 164.419752 -27.453661 
L 164.419752 -27.453661 
L 164.090024 -27.482535 
L 163.760296 -27.529812 
L 163.430568 -27.60489 
L 163.10084 -27.720526 
L 162.771112 -27.893267 
L 162.441384 -28.143543 
L 162.111656 -28.495238 
L 161.781928 -28.974565 
L 161.4522 -29.608172 
L 161.122472 -30.420497 
L 160.792744 -31.430591 
L 160.463016 -32.648783 
L 160.133288 -34.073715 
L 159.803561 -35.690294 
L 159.473833 -37.469087 
L 159.144105 -39.367459 
L 158.814377 -41.33248 
L 158.484649 -43.305283 
L 158.154921 -45.226314 
L 157.825193 -47.040662 
L 157.495465 -48.702711 
L 157.165737 -50.179455 
L 156.836009 -51.452091 
L 156.506281 -52.515835 
L 156.176553 -53.378214 
L 155.846825 -54.056289 
L 155.517097 -54.573373 
L 155.187369 -54.955788 
L 154.857642 -55.230063 
L 154.527914 -55.420836 
L 154.198186 -55.54953 
L 153.868458 -55.633744 
L 153.53873 -55.68722 
L 153.209002 -55.720189 
L 152.879274 -55.739933 
L 152.549546 -55.751419 
L 152.219818 -55.757897 
L 151.89009 -55.761419 
L 151.560362 -55.763241 
L 151.230634 -55.764116 
L 150.900906 -55.764492 
L 150.571178 -55.764634 
L 150.241451 -55.764695 
L 149.911723 -55.764755 
L 149.581995 -55.764839 
L 149.252267 -55.76494 
L 148.922539 -55.765031 
L 148.592811 -55.765084 
L 148.263083 -55.765082 
L 147.933355 -55.765026 
L 147.603627 -55.764936 
L 147.273899 -55.764846 
L 146.944171 -55.764787 
L 146.614443 -55.764782 
L 146.284715 -55.764831 
L 145.954987 -55.764918 
L 145.625259 -55.76501 
L 145.295532 -55.765075 
L 144.965804 -55.765089 
L 144.636076 -55.765047 
L 144.306348 -55.764964 
L 143.97662 -55.76487 
L 143.646892 -55.7648 
L 143.317164 -55.764777 
L 142.987436 -55.764812 
L 142.657708 -55.76489 
L 142.32798 -55.764984 
L 141.998252 -55.765061 
L 141.668524 -55.765091 
L 141.338796 -55.765065 
L 141.009068 -55.764991 
L 140.679341 -55.764897 
L 140.349613 -55.764816 
L 140.019885 -55.764778 
L 139.690157 -55.764796 
L 139.360429 -55.764864 
L 139.030701 -55.764957 
L 138.700973 -55.765042 
L 138.371245 -55.765088 
L 138.041517 -55.765078 
L 137.711789 -55.765017 
L 137.382061 -55.764925 
L 137.052333 -55.764837 
L 136.722605 -55.764784 
L 136.392877 -55.764785 
L 136.063149 -55.76484 
L 135.733422 -55.764928 
L 135.403694 -55.765019 
L 135.073966 -55.76508 
L 134.744238 -55.765087 
L 134.41451 -55.765039 
L 134.084782 -55.764954 
L 133.755054 -55.764861 
L 133.425326 -55.764794 
L 133.095598 -55.764778 
L 132.76587 -55.764819 
L 132.436142 -55.7649 
L 132.106414 -55.764994 
L 131.776686 -55.765067 
L 131.446958 -55.765091 
L 131.117231 -55.765059 
L 130.787503 -55.764981 
L 130.457775 -55.764887 
L 130.128047 -55.76481 
L 129.798319 -55.764777 
L 129.468591 -55.764801 
L 129.138863 -55.764873 
L 128.809135 -55.764967 
L 128.479407 -55.765049 
L 128.149679 -55.76509 
L 127.819951 -55.765074 
L 127.490223 -55.765007 
L 127.160495 -55.764915 
L 126.830767 -55.764829 
L 126.501039 -55.764781 
L 126.171312 -55.764788 
L 125.841584 -55.764848 
L 125.511856 -55.764939 
L 125.182128 -55.765028 
L 124.8524 -55.765083 
L 124.522672 -55.765084 
L 124.192944 -55.765031 
L 123.863216 -55.764943 
L 123.533488 -55.764851 
L 123.20376 -55.76479 
L 122.874032 -55.76478 
L 122.544304 -55.764826 
L 122.214576 -55.764911 
L 121.884848 -55.765004 
L 121.555121 -55.765072 
L 121.225393 -55.76509 
L 120.895665 -55.765052 
L 120.565937 -55.764971 
L 120.236209 -55.764877 
L 119.906481 -55.764803 
L 119.576753 -55.764777 
L 119.247025 -55.764807 
L 118.917297 -55.764883 
L 118.587569 -55.764978 
L 118.257841 -55.765056 
L 117.928113 -55.765091 
L 117.598385 -55.765069 
L 117.268657 -55.764998 
L 116.938929 -55.764904 
L 116.609202 -55.764821 
L 116.279474 -55.764779 
L 115.949746 -55.764793 
L 115.620018 -55.764857 
L 115.29029 -55.76495 
L 114.960562 -55.765036 
L 114.630834 -55.765085 
L 114.301106 -55.765078 
L 113.971378 -55.765016 
L 113.64165 -55.764917 
L 113.311922 -55.764806 
L 112.982194 -55.764702 
L 112.652466 -55.764593 
L 112.322738 -55.764418 
L 111.993011 -55.764036 
L 111.663283 -55.763183 
L 111.333555 -55.761403 
L 111.003827 -55.757926 
L 110.674099 -55.751479 
L 110.344371 -55.739996 
L 110.014643 -55.72022 
L 109.684915 -55.687188 
L 109.355187 -55.633628 
L 109.025459 -55.549321 
L 108.695731 -55.420532 
L 108.366003 -55.229658 
L 108.036275 -54.955259 
L 107.706547 -54.572675 
L 107.376819 -54.055351 
L 107.047092 -53.376947 
L 106.717364 -52.514146 
L 106.387636 -51.449902 
L 106.057908 -50.176723 
L 105.72818 -48.699442 
L 105.398452 -47.036917 
L 105.068724 -45.222206 
L 104.738996 -43.300964 
L 104.409268 -41.32812 
L 104.07954 -39.363231 
L 103.749812 -37.465138 
L 103.420084 -35.686741 
L 103.090356 -34.070631 
L 102.760628 -32.646197 
L 102.430901 -31.428493 
L 102.101173 -30.418852 
L 101.771445 -29.606923 
L 101.441717 -28.973646 
L 101.111989 -28.494582 
L 100.782261 -28.143089 
L 100.452533 -27.892962 
L 100.122805 -27.720327 
L 99.793077 -27.604764 
L 99.463349 -27.529735 
L 99.133621 -27.482489 
L 98.803893 -27.453634 
z
" style="stroke: #7e22ce; stroke-width: 0.75"/>
    </defs>
    <g clip-path="url(#p922aa997c9)">
     <use xlink:href="#m18e5160ef3" x="0" y="184.251969" style="fill: #7e22ce; fill-opacity: 0.25; stroke: #7e22ce; stroke-width: 0.75"/>
    </g>
   </g>
   <g id="patch_3">
    <path d="M 26.630226 156.83674 
L 26.630226 5.954849 
" style="fill: none; stroke: #000000; stroke-width: 0.3; stroke-linejoin: miter; stroke-linecap: square"/>
   </g>
   <g id="patch_4">
    <path d="M 26.630226 156.83674 
L 332.812959 156.83674 
" style="fill: none; stroke: #000000; stroke-width: 0.3; stroke-linejoin: miter; stroke-linecap: square"/>
   </g>
   <g id="matplotlib.axis_1">
    <g id="xtick_1">
     <g id="line2d_1">
      <defs>
       <path id="mc47f2345e3" d="M 0 0 
L 0 2 
" style="stroke: #000000; stroke-width: 0.3"/>
      </defs>
      <g>
       <use xlink:href="#mc47f2345e3" x="26.630226" y="156.83674" style="stroke: #000000; stroke-width: 0.3"/>
      </g>
     </g>
     <g id="text_1">
      <!-- 0 -->
      <g transform="translate(24.829015 165.71174) scale(0.065 -0.065)">
       <defs>
        <path id="Roboto-Light-30" d="M 3172 1897 
Q 3172 934 2819 435 
Q 2466 -63 1778 -63 
Q 1103 -63 743 426 
Q 384 916 375 1850 
L 375 2666 
Q 375 3625 731 4119 
Q 1088 4613 1772 4613 
Q 2447 4613 2803 4136 
Q 3159 3659 3172 2731 
L 3172 1897 
z
M 2797 2713 
Q 2797 3494 2542 3894 
Q 2288 4294 1772 4294 
Q 1266 4294 1009 3903 
Q 753 3513 747 2750 
L 747 1856 
Q 747 1078 1011 665 
Q 1275 253 1778 253 
Q 2278 253 2536 656 
Q 2794 1059 2797 1838 
L 2797 2713 
z
" transform="scale(0.015625)"/>
       </defs>
       <use xlink:href="#Roboto-Light-30"/>
      </g>
     </g>
    </g>
    <g id="xtick_2">
     <g id="line2d_2">
      <g>
       <use xlink:href="#mc47f2345e3" x="47.042408" y="156.83674" style="stroke: #000000; stroke-width: 0.3"/>
      </g>
     </g>
     <g id="text_2">
      <!-- 4 -->
      <g transform="translate(45.241197 165.71174) scale(0.065 -0.065)">
       <defs>
        <path id="Roboto-Light-34" d="M 2725 1466 
L 3434 1466 
L 3434 1150 
L 2725 1150 
L 2725 0 
L 2350 0 
L 2350 1150 
L 209 1150 
L 209 1363 
L 2316 4550 
L 2725 4550 
L 2725 1466 
z
M 669 1466 
L 2350 1466 
L 2350 4066 
L 2184 3778 
L 669 1466 
z
" transform="scale(0.015625)"/>
       </defs>
       <use xlink:href="#Roboto-Light-34"/>
      </g>
     </g>
    </g>
    <g id="xtick_3">
     <g id="line2d_3">
      <g>
       <use xlink:href="#mc47f2345e3" x="67.45459" y="156.83674" style="stroke: #000000; stroke-width: 0.3"/>
      </g>
     </g>
     <g id="text_3">
      <!-- 8 -->
      <g transform="translate(65.653379 165.71174) scale(0.065 -0.065)">
       <defs>
        <path id="Roboto-Light-38" d="M 3109 3378 
Q 3109 3025 2903 2745 
Q 2697 2466 2359 2334 
Q 2753 2200 2990 1900 
Q 3228 1600 3228 1206 
Q 3228 622 2831 279 
Q 2434 -63 1781 -63 
Q 1122 -63 726 278 
Q 331 619 331 1206 
Q 331 1594 559 1897 
Q 788 2200 1184 2334 
Q 847 2466 647 2745 
Q 447 3025 447 3378 
Q 447 3944 811 4278 
Q 1175 4613 1775 4613 
Q 2375 4613 2742 4275 
Q 3109 3938 3109 3378 
z
M 2853 1203 
Q 2853 1628 2550 1901 
Q 2247 2175 1775 2175 
Q 1303 2175 1003 1906 
Q 703 1638 703 1203 
Q 703 769 993 511 
Q 1284 253 1781 253 
Q 2266 253 2559 509 
Q 2853 766 2853 1203 
z
M 2734 3381 
Q 2734 3772 2464 4033 
Q 2194 4294 1775 4294 
Q 1350 4294 1086 4042 
Q 822 3791 822 3381 
Q 822 2981 1086 2737 
Q 1350 2494 1778 2494 
Q 2200 2494 2467 2739 
Q 2734 2984 2734 3381 
z
" transform="scale(0.015625)"/>
       </defs>
       <use xlink:href="#Roboto-Light-38"/>
      </g>
     </g>
    </g>
    <g id="xtick_4">
     <g id="line2d_4">
      <g>
       <use xlink:href="#mc47f2345e3" x="87.866773" y="156.83674" style="stroke: #000000; stroke-width: 0.3"/>
      </g>
     </g>
     <g id="text_4">
      <!-- 12 -->
      <g transform="translate(84.264351 165.71174) scale(0.065 -0.065)">
       <defs>
        <path id="Roboto-Light-31" d="M 2169 0 
L 1794 0 
L 1794 4100 
L 556 3641 
L 556 3991 
L 2106 4566 
L 2169 4566 
L 2169 0 
z
" transform="scale(0.015625)"/>
        <path id="Roboto-Light-32" d="M 3278 0 
L 428 0 
L 428 288 
L 1988 2056 
Q 2375 2503 2525 2793 
Q 2675 3084 2675 3359 
Q 2675 3791 2422 4042 
Q 2169 4294 1725 4294 
Q 1266 4294 983 4000 
Q 700 3706 700 3238 
L 328 3238 
Q 328 3622 501 3937 
Q 675 4253 995 4433 
Q 1316 4613 1725 4613 
Q 2350 4613 2701 4284 
Q 3053 3956 3053 3391 
Q 3053 3072 2854 2694 
Q 2656 2316 2156 1750 
L 888 316 
L 3278 316 
L 3278 0 
z
" transform="scale(0.015625)"/>
       </defs>
       <use xlink:href="#Roboto-Light-31"/>
       <use xlink:href="#Roboto-Light-32" transform="translate(55.419922 0)"/>
      </g>
     </g>
    </g>
    <g id="xtick_5">
     <g id="line2d_5">
      <g>
       <use xlink:href="#mc47f2345e3" x="108.278955" y="156.83674" style="stroke: #000000; stroke-width: 0.3"/>
      </g>
     </g>
     <g id="text_5">
      <!-- 16 -->
      <g transform="translate(104.676533 165.71174) scale(0.065 -0.065)">
       <defs>
        <path id="Roboto-Light-36" d="M 2634 4584 
L 2634 4256 
L 2591 4256 
Q 1775 4256 1306 3776 
Q 838 3297 788 2444 
Q 975 2703 1265 2845 
Q 1556 2988 1916 2988 
Q 2516 2988 2870 2573 
Q 3225 2159 3225 1491 
Q 3225 1047 3059 690 
Q 2894 334 2584 135 
Q 2275 -63 1878 -63 
Q 1225 -63 815 410 
Q 406 884 406 1634 
L 406 2009 
Q 406 3231 962 3901 
Q 1519 4572 2541 4584 
L 2634 4584 
z
M 1856 2666 
Q 1500 2666 1192 2455 
Q 884 2244 781 1919 
L 781 1600 
Q 781 1006 1086 631 
Q 1391 256 1878 256 
Q 2316 256 2586 603 
Q 2856 950 2856 1478 
Q 2856 2016 2586 2341 
Q 2316 2666 1856 2666 
z
" transform="scale(0.015625)"/>
       </defs>
       <use xlink:href="#Roboto-Light-31"/>
       <use xlink:href="#Roboto-Light-36" transform="translate(55.419922 0)"/>
      </g>
     </g>
    </g>
    <g id="xtick_6">
     <g id="line2d_6">
      <g>
       <use xlink:href="#mc47f2345e3" x="128.691137" y="156.83674" style="stroke: #000000; stroke-width: 0.3"/>
      </g>
     </g>
     <g id="text_6">
      <!-- 20 -->
      <g transform="translate(125.088715 165.71174) scale(0.065 -0.065)">
       <use xlink:href="#Roboto-Light-32"/>
       <use xlink:href="#Roboto-Light-30" transform="translate(55.419922 0)"/>
      </g>
     </g>
    </g>
    <g id="xtick_7">
     <g id="line2d_7">
      <g>
       <use xlink:href="#mc47f2345e3" x="149.103319" y="156.83674" style="stroke: #000000; stroke-width: 0.3"/>
      </g>
     </g>
     <g id="text_7">
      <!-- 24 -->
      <g transform="translate(145.500897 165.71174) scale(0.065 -0.065)">
       <use xlink:href="#Roboto-Light-32"/>
       <use xlink:href="#Roboto-Light-34" transform="translate(55.419922 0)"/>
      </g>
     </g>
    </g>
    <g id="xtick_8">
     <g id="line2d_8">
      <g>
       <use xlink:href="#mc47f2345e3" x="169.515501" y="156.83674" style="stroke: #000000; stroke-width: 0.3"/>
      </g>
     </g>
     <g id="text_8">
      <!-- 28 -->
      <g transform="translate(165.91308 165.71174) scale(0.065 -0.065)">
       <use xlink:href="#Roboto-Light-32"/>
       <use xlink:href="#Roboto-Light-38" transform="translate(55.419922 0)"/>
      </g>
     </g>
    </g>
    <g id="xtick_9">
     <g id="line2d_9">
      <g>
       <use xlink:href="#mc47f2345e3" x="189.927684" y="156.83674" style="stroke: #000000; stroke-width: 0.3"/>
      </g>
     </g>
     <g id="text_9">
      <!-- 32 -->
      <g transform="translate(186.325262 165.71174) scale(0.065 -0.065)">
       <defs>
        <path id="Roboto-Light-33" d="M 1259 2478 
L 1647 2478 
Q 1969 2478 2209 2592 
Q 2450 2706 2576 2904 
Q 2703 3103 2703 3363 
Q 2703 3800 2456 4047 
Q 2209 4294 1747 4294 
Q 1309 4294 1029 4036 
Q 750 3778 750 3356 
L 375 3356 
Q 375 3709 553 4001 
Q 731 4294 1047 4453 
Q 1363 4613 1747 4613 
Q 2366 4613 2722 4275 
Q 3078 3938 3078 3350 
Q 3078 3022 2870 2745 
Q 2663 2469 2300 2331 
Q 2725 2213 2944 1923 
Q 3163 1634 3163 1234 
Q 3163 650 2781 293 
Q 2400 -63 1763 -63 
Q 1356 -63 1017 100 
Q 678 263 492 555 
Q 306 847 306 1234 
L 681 1234 
Q 681 800 984 526 
Q 1288 253 1763 253 
Q 2247 253 2517 501 
Q 2788 750 2788 1222 
Q 2788 1678 2495 1918 
Q 2203 2159 1634 2159 
L 1259 2159 
L 1259 2478 
z
" transform="scale(0.015625)"/>
       </defs>
       <use xlink:href="#Roboto-Light-33"/>
       <use xlink:href="#Roboto-Light-32" transform="translate(55.419922 0)"/>
      </g>
     </g>
    </g>
    <g id="xtick_10">
     <g id="line2d_10">
      <g>
       <use xlink:href="#mc47f2345e3" x="210.339866" y="156.83674" style="stroke: #000000; stroke-width: 0.3"/>
      </g>
     </g>
     <g id="text_10">
      <!-- 36 -->
      <g transform="translate(206.737444 165.71174) scale(0.065 -0.065)">
       <use xlink:href="#Roboto-Light-33"/>
       <use xlink:href="#Roboto-Light-36" transform="translate(55.419922 0)"/>
      </g>
     </g>
    </g>
    <g id="xtick_11">
     <g id="line2d_11">
      <g>
       <use xlink:href="#mc47f2345e3" x="230.752048" y="156.83674" style="stroke: #000000; stroke-width: 0.3"/>
      </g>
     </g>
     <g id="text_11">
      <!-- 40 -->
      <g transform="translate(227.149626 165.71174) scale(0.065 -0.065)">
       <use xlink:href="#Roboto-Light-34"/>
       <use xlink:href="#Roboto-Light-30" transform="translate(55.419922 0)"/>
      </g>
     </g>
    </g>
    <g id="xtick_12">
     <g id="line2d_12">
      <g>
       <use xlink:href="#mc47f2345e3" x="251.16423" y="156.83674" style="stroke: #000000; stroke-width: 0.3"/>
      </g>
     </g>
     <g id="text_12">
      <!-- 44 -->
      <g transform="translate(247.561809 165.71174) scale(0.065 -0.065)">
       <use xlink:href="#Roboto-Light-34"/>
       <use xlink:href="#Roboto-Light-34" transform="translate(55.419922 0)"/>
      </g>
     </g>
    </g>
    <g id="xtick_13">
     <g id="line2d_13">
      <g>
       <use xlink:href="#mc47f2345e3" x="271.576413" y="156.83674" style="stroke: #000000; stroke-width: 0.3"/>
      </g>
     </g>
     <g id="text_13">
      <!-- 48 -->
      <g transform="translate(267.973991 165.71174) scale(0.065 -0.065)">
       <use xlink:href="#Roboto-Light-34"/>
       <use xlink:href="#Roboto-Light-38" transform="translate(55.419922 0)"/>
      </g>
     </g>
    </g>
    <g id="xtick_14">
     <g id="line2d_14">
      <g>
       <use xlink:href="#mc47f2345e3" x="291.988595" y="156.83674" style="stroke: #000000; stroke-width: 0.3"/>
      </g>
     </g>
     <g id="text_14">
      <!-- 52 -->
      <g transform="translate(288.386173 165.71174) scale(0.065 -0.065)">
       <defs>
        <path id="Roboto-Light-35" d="M 681 2331 
L 903 4550 
L 3178 4550 
L 3178 4203 
L 1225 4203 
L 1066 2666 
Q 1431 2916 1922 2916 
Q 2538 2916 2903 2516 
Q 3269 2116 3269 1450 
Q 3269 731 2912 334 
Q 2556 -63 1909 -63 
Q 1316 -63 947 268 
Q 578 600 525 1197 
L 884 1197 
Q 938 731 1200 492 
Q 1463 253 1909 253 
Q 2397 253 2645 562 
Q 2894 872 2894 1444 
Q 2894 1944 2616 2259 
Q 2338 2575 1856 2575 
Q 1591 2575 1394 2508 
Q 1197 2441 978 2247 
L 681 2331 
z
" transform="scale(0.015625)"/>
       </defs>
       <use xlink:href="#Roboto-Light-35"/>
       <use xlink:href="#Roboto-Light-32" transform="translate(55.419922 0)"/>
      </g>
     </g>
    </g>
    <g id="xtick_15">
     <g id="line2d_15">
      <g>
       <use xlink:href="#mc47f2345e3" x="312.400777" y="156.83674" style="stroke: #000000; stroke-width: 0.3"/>
      </g>
     </g>
     <g id="text_15">
      <!-- 56 -->
      <g transform="translate(308.798355 165.71174) scale(0.065 -0.065)">
       <use xlink:href="#Roboto-Light-35"/>
       <use xlink:href="#Roboto-Light-36" transform="translate(55.419922 0)"/>
      </g>
     </g>
    </g>
    <g id="xtick_16">
     <g id="line2d_16">
      <g>
       <use xlink:href="#mc47f2345e3" x="332.812959" y="156.83674" style="stroke: #000000; stroke-width: 0.3"/>
      </g>
     </g>
     <g id="text_16">
      <!-- 60 -->
      <g transform="translate(329.210537 165.71174) scale(0.065 -0.065)">
       <use xlink:href="#Roboto-Light-36"/>
       <use xlink:href="#Roboto-Light-30" transform="translate(55.419922 0)"/>
      </g>
     </g>
    </g>
    <g id="text_17">
     <!-- Exergy efficiency [%] -->
     <g transform="translate(146.568663 177.125803) scale(0.075 -0.075)">
      <defs>
       <path id="Roboto-Light-45" d="M 3088 2181 
L 959 2181 
L 959 325 
L 3406 325 
L 3406 0 
L 575 0 
L 575 4550 
L 3391 4550 
L 3391 4222 
L 959 4222 
L 959 2506 
L 3088 2506 
L 3088 2181 
z
" transform="scale(0.015625)"/>
       <path id="Roboto-Light-78" d="M 1550 2009 
L 2463 3381 
L 2906 3381 
L 1759 1722 
L 2956 0 
L 2516 0 
L 1553 1431 
L 591 0 
L 150 0 
L 1344 1722 
L 197 3381 
L 638 3381 
L 1550 2009 
z
" transform="scale(0.015625)"/>
       <path id="Roboto-Light-65" d="M 1797 -63 
Q 1366 -63 1017 150 
Q 669 363 475 742 
Q 281 1122 281 1594 
L 281 1728 
Q 281 2216 470 2606 
Q 659 2997 996 3220 
Q 1334 3444 1728 3444 
Q 2344 3444 2705 3023 
Q 3066 2603 3066 1875 
L 3066 1666 
L 653 1666 
L 653 1594 
Q 653 1019 983 636 
Q 1313 253 1813 253 
Q 2113 253 2342 362 
Q 2572 472 2759 713 
L 2994 534 
Q 2581 -63 1797 -63 
z
M 1728 3125 
Q 1306 3125 1017 2815 
Q 728 2506 666 1984 
L 2694 1984 
L 2694 2025 
Q 2678 2513 2415 2819 
Q 2153 3125 1728 3125 
z
" transform="scale(0.015625)"/>
       <path id="Roboto-Light-72" d="M 2050 3063 
Q 1931 3084 1797 3084 
Q 1447 3084 1205 2889 
Q 963 2694 859 2322 
L 859 0 
L 488 0 
L 488 3381 
L 853 3381 
L 859 2844 
Q 1156 3444 1813 3444 
Q 1969 3444 2059 3403 
L 2050 3063 
z
" transform="scale(0.015625)"/>
       <path id="Roboto-Light-67" d="M 338 1722 
Q 338 2516 689 2980 
Q 1041 3444 1644 3444 
Q 2334 3444 2694 2894 
L 2713 3381 
L 3063 3381 
L 3063 69 
Q 3063 -584 2697 -965 
Q 2331 -1347 1706 -1347 
Q 1353 -1347 1033 -1189 
Q 713 -1031 528 -769 
L 738 -544 
Q 1134 -1031 1681 -1031 
Q 2150 -1031 2412 -754 
Q 2675 -478 2684 13 
L 2684 438 
Q 2325 -63 1638 -63 
Q 1050 -63 694 406 
Q 338 875 338 1672 
L 338 1722 
z
M 716 1656 
Q 716 1009 975 636 
Q 1234 263 1706 263 
Q 2397 263 2684 881 
L 2684 2453 
Q 2553 2778 2306 2948 
Q 2059 3119 1713 3119 
Q 1241 3119 978 2748 
Q 716 2378 716 1656 
z
" transform="scale(0.015625)"/>
       <path id="Roboto-Light-79" d="M 1559 538 
L 2547 3381 
L 2950 3381 
L 1506 -575 
L 1431 -750 
Q 1153 -1366 572 -1366 
Q 438 -1366 284 -1322 
L 281 -1013 
L 475 -1031 
Q 750 -1031 920 -895 
Q 1091 -759 1209 -428 
L 1375 28 
L 100 3381 
L 509 3381 
L 1559 538 
z
" transform="scale(0.015625)"/>
       <path id="Roboto-Light-20" transform="scale(0.015625)"/>
       <path id="Roboto-Light-66" d="M 756 0 
L 756 3075 
L 197 3075 
L 197 3381 
L 756 3381 
L 756 3791 
Q 756 4309 1020 4587 
Q 1284 4866 1756 4866 
Q 1969 4866 2153 4813 
L 2125 4500 
Q 1969 4538 1784 4538 
Q 1475 4538 1303 4345 
Q 1131 4153 1131 3800 
L 1131 3381 
L 1938 3381 
L 1938 3075 
L 1131 3075 
L 1131 0 
L 756 0 
z
" transform="scale(0.015625)"/>
       <path id="Roboto-Light-69" d="M 906 0 
L 531 0 
L 531 3381 
L 906 3381 
L 906 0 
z
M 466 4359 
Q 466 4466 534 4539 
Q 603 4613 722 4613 
Q 841 4613 911 4539 
Q 981 4466 981 4359 
Q 981 4253 911 4181 
Q 841 4109 722 4109 
Q 603 4109 534 4181 
Q 466 4253 466 4359 
z
" transform="scale(0.015625)"/>
       <path id="Roboto-Light-63" d="M 1738 253 
Q 2128 253 2392 473 
Q 2656 694 2678 1044 
L 3038 1044 
Q 3022 734 2844 479 
Q 2666 225 2370 81 
Q 2075 -63 1738 -63 
Q 1072 -63 683 400 
Q 294 863 294 1644 
L 294 1756 
Q 294 2256 469 2640 
Q 644 3025 970 3234 
Q 1297 3444 1734 3444 
Q 2291 3444 2652 3112 
Q 3013 2781 3038 2241 
L 2678 2241 
Q 2653 2638 2392 2881 
Q 2131 3125 1734 3125 
Q 1228 3125 948 2759 
Q 669 2394 669 1734 
L 669 1625 
Q 669 978 948 615 
Q 1228 253 1738 253 
z
" transform="scale(0.015625)"/>
       <path id="Roboto-Light-6e" d="M 844 3381 
L 856 2803 
Q 1047 3116 1331 3280 
Q 1616 3444 1959 3444 
Q 2503 3444 2768 3137 
Q 3034 2831 3038 2219 
L 3038 0 
L 2666 0 
L 2666 2222 
Q 2663 2675 2473 2897 
Q 2284 3119 1869 3119 
Q 1522 3119 1255 2901 
Q 988 2684 859 2316 
L 859 0 
L 488 0 
L 488 3381 
L 844 3381 
z
" transform="scale(0.015625)"/>
       <path id="Roboto-Light-5b" d="M 1541 4881 
L 884 4881 
L 884 -656 
L 1541 -656 
L 1541 -975 
L 509 -975 
L 509 5200 
L 1541 5200 
L 1541 4881 
z
" transform="scale(0.015625)"/>
       <path id="Roboto-Light-25" d="M 341 3675 
Q 341 4081 592 4348 
Q 844 4616 1231 4616 
Q 1619 4616 1870 4348 
Q 2122 4081 2122 3656 
L 2122 3434 
Q 2122 3034 1873 2767 
Q 1625 2500 1238 2500 
Q 853 2500 597 2762 
Q 341 3025 341 3456 
L 341 3675 
z
M 644 3434 
Q 644 3144 805 2956 
Q 966 2769 1238 2769 
Q 1503 2769 1661 2958 
Q 1819 3147 1819 3447 
L 1819 3675 
Q 1819 3966 1656 4155 
Q 1494 4344 1231 4344 
Q 972 4344 808 4156 
Q 644 3969 644 3656 
L 644 3434 
z
M 2631 1116 
Q 2631 1522 2882 1787 
Q 3134 2053 3518 2053 
Q 3903 2053 4158 1789 
Q 4413 1525 4413 1094 
L 4413 872 
Q 4413 466 4161 200 
Q 3909 -66 3525 -66 
Q 3141 -66 2886 198 
Q 2631 463 2631 888 
L 2631 1116 
z
M 2931 872 
Q 2931 578 3092 390 
Q 3253 203 3525 203 
Q 3794 203 3951 392 
Q 4109 581 4109 888 
L 4109 1116 
Q 4109 1416 3948 1598 
Q 3788 1781 3519 1781 
Q 3256 1781 3093 1597 
Q 2931 1413 2931 1103 
L 2931 872 
z
M 1356 378 
L 1122 528 
L 3344 4084 
L 3578 3934 
L 1356 378 
z
" transform="scale(0.015625)"/>
       <path id="Roboto-Light-5d" d="M 0 5200 
L 1034 5200 
L 1034 -975 
L 0 -975 
L 0 -656 
L 659 -656 
L 659 4881 
L 0 4881 
L 0 5200 
z
" transform="scale(0.015625)"/>
      </defs>
      <use xlink:href="#Roboto-Light-45"/>
      <use xlink:href="#Roboto-Light-78" transform="translate(56.884766 0)"/>
      <use xlink:href="#Roboto-Light-65" transform="translate(105.517578 0)"/>
      <use xlink:href="#Roboto-Light-72" transform="translate(157.177734 0)"/>
      <use xlink:href="#Roboto-Light-67" transform="translate(190.820312 0)"/>
      <use xlink:href="#Roboto-Light-79" transform="translate(246.289062 0)"/>
      <use xlink:href="#Roboto-Light-20" transform="translate(293.798828 0)"/>
      <use xlink:href="#Roboto-Light-65" transform="translate(318.115234 0)"/>
      <use xlink:href="#Roboto-Light-66" transform="translate(369.775391 0)"/>
      <use xlink:href="#Roboto-Light-66" transform="translate(402.880859 0)"/>
      <use xlink:href="#Roboto-Light-69" transform="translate(435.986328 0)"/>
      <use xlink:href="#Roboto-Light-63" transform="translate(458.398438 0)"/>
      <use xlink:href="#Roboto-Light-69" transform="translate(509.912109 0)"/>
      <use xlink:href="#Roboto-Light-65" transform="translate(532.324219 0)"/>
      <use xlink:href="#Roboto-Light-6e" transform="translate(583.984375 0)"/>
      <use xlink:href="#Roboto-Light-63" transform="translate(638.916016 0)"/>
      <use xlink:href="#Roboto-Light-79" transform="translate(690.429688 0)"/>
      <use xlink:href="#Roboto-Light-20" transform="translate(737.939453 0)"/>
      <use xlink:href="#Roboto-Light-5b" transform="translate(762.255859 0)"/>
      <use xlink:href="#Roboto-Light-25" transform="translate(786.230469 0)"/>
      <use xlink:href="#Roboto-Light-5d" transform="translate(860.107422 0)"/>
     </g>
    </g>
   </g>
   <g id="matplotlib.axis_2">
    <g id="ytick_1">
     <g id="line2d_17">
      <defs>
       <path id="mf0e4726514" d="M 0 0 
L -2 0 
" style="stroke: #000000; stroke-width: 0.3"/>
      </defs>
      <g>
       <use xlink:href="#mf0e4726514" x="26.630226" y="156.83674" style="stroke: #000000; stroke-width: 0.3"/>
      </g>
     </g>
     <g id="text_18">
      <!-- 0.0 -->
      <g transform="translate(14.873507 159.27424) scale(0.065 -0.065)">
       <defs>
        <path id="Roboto-Light-2e" d="M 453 225 
Q 453 334 523 411 
Q 594 488 719 488 
Q 844 488 916 411 
Q 988 334 988 225 
Q 988 116 916 45 
Q 844 -25 719 -25 
Q 594 -25 523 45 
Q 453 116 453 225 
z
" transform="scale(0.015625)"/>
       </defs>
       <use xlink:href="#Roboto-Light-30"/>
       <use xlink:href="#Roboto-Light-2e" transform="translate(55.419922 0)"/>
       <use xlink:href="#Roboto-Light-30" transform="translate(79.296875 0)"/>
      </g>
     </g>
    </g>
    <g id="ytick_2">
     <g id="line2d_18">
      <g>
       <use xlink:href="#mf0e4726514" x="26.630226" y="126.660362" style="stroke: #000000; stroke-width: 0.3"/>
      </g>
     </g>
     <g id="text_19">
      <!-- 0.1 -->
      <g transform="translate(14.873507 129.097862) scale(0.065 -0.065)">
       <use xlink:href="#Roboto-Light-30"/>
       <use xlink:href="#Roboto-Light-2e" transform="translate(55.419922 0)"/>
       <use xlink:href="#Roboto-Light-31" transform="translate(79.296875 0)"/>
      </g>
     </g>
    </g>
    <g id="ytick_3">
     <g id="line2d_19">
      <g>
       <use xlink:href="#mf0e4726514" x="26.630226" y="96.483984" style="stroke: #000000; stroke-width: 0.3"/>
      </g>
     </g>
     <g id="text_20">
      <!-- 0.2 -->
      <g transform="translate(14.873507 98.921484) scale(0.065 -0.065)">
       <use xlink:href="#Roboto-Light-30"/>
       <use xlink:href="#Roboto-Light-2e" transform="translate(55.419922 0)"/>
       <use xlink:href="#Roboto-Light-32" transform="translate(79.296875 0)"/>
      </g>
     </g>
    </g>
    <g id="ytick_4">
     <g id="line2d_20">
      <g>
       <use xlink:href="#mf0e4726514" x="26.630226" y="66.307606" style="stroke: #000000; stroke-width: 0.3"/>
      </g>
     </g>
     <g id="text_21">
      <!-- 0.3 -->
      <g transform="translate(14.873507 68.745106) scale(0.065 -0.065)">
       <use xlink:href="#Roboto-Light-30"/>
       <use xlink:href="#Roboto-Light-2e" transform="translate(55.419922 0)"/>
       <use xlink:href="#Roboto-Light-33" transform="translate(79.296875 0)"/>
      </g>
     </g>
    </g>
    <g id="ytick_5">
     <g id="line2d_21">
      <g>
       <use xlink:href="#mf0e4726514" x="26.630226" y="36.131228" style="stroke: #000000; stroke-width: 0.3"/>
      </g>
     </g>
     <g id="text_22">
      <!-- 0.4 -->
      <g transform="translate(14.873507 38.568728) scale(0.065 -0.065)">
       <use xlink:href="#Roboto-Light-30"/>
       <use xlink:href="#Roboto-Light-2e" transform="translate(55.419922 0)"/>
       <use xlink:href="#Roboto-Light-34" transform="translate(79.296875 0)"/>
      </g>
     </g>
    </g>
    <g id="ytick_6">
     <g id="line2d_22">
      <g>
       <use xlink:href="#mf0e4726514" x="26.630226" y="5.954849" style="stroke: #000000; stroke-width: 0.3"/>
      </g>
     </g>
     <g id="text_23">
      <!-- 0.5 -->
      <g transform="translate(14.873507 8.392349) scale(0.065 -0.065)">
       <use xlink:href="#Roboto-Light-30"/>
       <use xlink:href="#Roboto-Light-2e" transform="translate(55.419922 0)"/>
       <use xlink:href="#Roboto-Light-35" transform="translate(79.296875 0)"/>
      </g>
     </g>
    </g>
    <g id="text_24">
     <!-- Probability density -->
     <g transform="translate(9.272726 111.457318) rotate(-90) scale(0.075 -0.075)">
      <defs>
       <path id="Roboto-Light-50" d="M 959 1853 
L 959 0 
L 575 0 
L 575 4550 
L 2125 4550 
Q 2834 4550 3245 4187 
Q 3656 3825 3656 3191 
Q 3656 2550 3261 2201 
Q 2866 1853 2116 1853 
L 959 1853 
z
M 959 2178 
L 2125 2178 
Q 2684 2178 2978 2443 
Q 3272 2709 3272 3184 
Q 3272 3656 2980 3936 
Q 2688 4216 2150 4222 
L 959 4222 
L 959 2178 
z
" transform="scale(0.015625)"/>
       <path id="Roboto-Light-6f" d="M 281 1741 
Q 281 2228 470 2618 
Q 659 3009 1004 3226 
Q 1350 3444 1788 3444 
Q 2463 3444 2881 2970 
Q 3300 2497 3300 1716 
L 3300 1638 
Q 3300 1147 3111 755 
Q 2922 363 2578 150 
Q 2234 -63 1794 -63 
Q 1122 -63 701 410 
Q 281 884 281 1666 
L 281 1741 
z
M 656 1638 
Q 656 1031 970 642 
Q 1284 253 1794 253 
Q 2300 253 2614 642 
Q 2928 1031 2928 1669 
L 2928 1741 
Q 2928 2128 2784 2450 
Q 2641 2772 2381 2948 
Q 2122 3125 1788 3125 
Q 1288 3125 972 2733 
Q 656 2341 656 1706 
L 656 1638 
z
" transform="scale(0.015625)"/>
       <path id="Roboto-Light-62" d="M 3209 1656 
Q 3209 866 2859 401 
Q 2509 -63 1919 -63 
Q 1213 -63 850 463 
L 834 0 
L 484 0 
L 484 4800 
L 856 4800 
L 856 2891 
Q 1213 3444 1913 3444 
Q 2513 3444 2861 2986 
Q 3209 2528 3209 1713 
L 3209 1656 
z
M 2834 1722 
Q 2834 2391 2575 2755 
Q 2316 3119 1844 3119 
Q 1484 3119 1234 2942 
Q 984 2766 856 2425 
L 856 900 
Q 1138 263 1850 263 
Q 2313 263 2573 628 
Q 2834 994 2834 1722 
z
" transform="scale(0.015625)"/>
       <path id="Roboto-Light-61" d="M 2622 0 
Q 2566 159 2550 472 
Q 2353 216 2048 76 
Q 1744 -63 1403 -63 
Q 916 -63 614 209 
Q 313 481 313 897 
Q 313 1391 723 1678 
Q 1134 1966 1869 1966 
L 2547 1966 
L 2547 2350 
Q 2547 2713 2323 2920 
Q 2100 3128 1672 3128 
Q 1281 3128 1025 2928 
Q 769 2728 769 2447 
L 394 2450 
Q 394 2853 769 3148 
Q 1144 3444 1691 3444 
Q 2256 3444 2582 3161 
Q 2909 2878 2919 2372 
L 2919 772 
Q 2919 281 3022 38 
L 3022 0 
L 2622 0 
z
M 1447 269 
Q 1822 269 2117 450 
Q 2413 631 2547 934 
L 2547 1678 
L 1878 1678 
Q 1319 1672 1003 1473 
Q 688 1275 688 928 
Q 688 644 898 456 
Q 1109 269 1447 269 
z
" transform="scale(0.015625)"/>
       <path id="Roboto-Light-6c" d="M 906 0 
L 531 0 
L 531 4800 
L 906 4800 
L 906 0 
z
" transform="scale(0.015625)"/>
       <path id="Roboto-Light-74" d="M 1069 4247 
L 1069 3381 
L 1769 3381 
L 1769 3075 
L 1069 3075 
L 1069 822 
Q 1069 541 1170 403 
Q 1272 266 1509 266 
Q 1603 266 1813 297 
L 1828 -9 
Q 1681 -63 1428 -63 
Q 1044 -63 869 160 
Q 694 384 694 819 
L 694 3075 
L 72 3075 
L 72 3381 
L 694 3381 
L 694 4247 
L 1069 4247 
z
" transform="scale(0.015625)"/>
       <path id="Roboto-Light-64" d="M 338 1722 
Q 338 2509 689 2976 
Q 1041 3444 1644 3444 
Q 2328 3444 2688 2903 
L 2688 4800 
L 3059 4800 
L 3059 0 
L 2709 0 
L 2694 450 
Q 2334 -63 1638 -63 
Q 1053 -63 695 407 
Q 338 878 338 1678 
L 338 1722 
z
M 716 1656 
Q 716 1009 975 636 
Q 1234 263 1706 263 
Q 2397 263 2688 872 
L 2688 2459 
Q 2397 3119 1713 3119 
Q 1241 3119 978 2748 
Q 716 2378 716 1656 
z
" transform="scale(0.015625)"/>
       <path id="Roboto-Light-73" d="M 2513 859 
Q 2513 1138 2289 1306 
Q 2066 1475 1616 1570 
Q 1166 1666 917 1789 
Q 669 1913 548 2091 
Q 428 2269 428 2522 
Q 428 2922 762 3183 
Q 1097 3444 1619 3444 
Q 2184 3444 2526 3164 
Q 2869 2884 2869 2434 
L 2494 2434 
Q 2494 2731 2245 2928 
Q 1997 3125 1619 3125 
Q 1250 3125 1026 2961 
Q 803 2797 803 2534 
Q 803 2281 989 2142 
Q 1175 2003 1667 1887 
Q 2159 1772 2404 1640 
Q 2650 1509 2769 1325 
Q 2888 1141 2888 878 
Q 2888 450 2542 193 
Q 2197 -63 1641 -63 
Q 1050 -63 683 223 
Q 316 509 316 947 
L 691 947 
Q 713 619 967 436 
Q 1222 253 1641 253 
Q 2031 253 2272 425 
Q 2513 597 2513 859 
z
" transform="scale(0.015625)"/>
      </defs>
      <use xlink:href="#Roboto-Light-50"/>
      <use xlink:href="#Roboto-Light-72" transform="translate(61.572266 0)"/>
      <use xlink:href="#Roboto-Light-6f" transform="translate(95.214844 0)"/>
      <use xlink:href="#Roboto-Light-62" transform="translate(151.220703 0)"/>
      <use xlink:href="#Roboto-Light-61" transform="translate(206.640625 0)"/>
      <use xlink:href="#Roboto-Light-62" transform="translate(260.205078 0)"/>
      <use xlink:href="#Roboto-Light-69" transform="translate(315.625 0)"/>
      <use xlink:href="#Roboto-Light-6c" transform="translate(338.037109 0)"/>
      <use xlink:href="#Roboto-Light-69" transform="translate(360.449219 0)"/>
      <use xlink:href="#Roboto-Light-74" transform="translate(382.861328 0)"/>
      <use xlink:href="#Roboto-Light-79" transform="translate(414.990234 0)"/>
      <use xlink:href="#Roboto-Light-20" transform="translate(462.5 0)"/>
      <use xlink:href="#Roboto-Light-64" transform="translate(486.816406 0)"/>
      <use xlink:href="#Roboto-Light-65" transform="translate(542.382812 0)"/>
      <use xlink:href="#Roboto-Light-6e" transform="translate(594.042969 0)"/>
      <use xlink:href="#Roboto-Light-73" transform="translate(648.974609 0)"/>
      <use xlink:href="#Roboto-Light-69" transform="translate(699.609375 0)"/>
      <use xlink:href="#Roboto-Light-74" transform="translate(722.021484 0)"/>
      <use xlink:href="#Roboto-Light-79" transform="translate(754.150391 0)"/>
     </g>
    </g>
   </g>
   <g id="legend_1">
    <g id="patch_5">
     <path d="M 246.328584 13.454849 
L 258.328584 13.454849 
L 258.328584 9.254849 
L 246.328584 9.254849 
z
" style="fill: #1d4ed8; fill-opacity: 0.25; stroke: #1d4ed8; stroke-width: 0.75; stroke-linejoin: miter"/>
    </g>
    <g id="text_25">
     <!-- Air source heat pump -->
     <g transform="translate(261.328584 13.454849) scale(0.06 -0.06)">
      <defs>
       <path id="Roboto-Light-41" d="M 3031 1275 
L 966 1275 
L 497 0 
L 94 0 
L 1816 4550 
L 2181 4550 
L 3903 0 
L 3503 0 
L 3031 1275 
z
M 1084 1603 
L 2909 1603 
L 1997 4081 
L 1084 1603 
z
" transform="scale(0.015625)"/>
       <path id="Roboto-Light-75" d="M 2663 428 
Q 2325 -63 1584 -63 
Q 1044 -63 762 251 
Q 481 566 475 1181 
L 475 3381 
L 847 3381 
L 847 1228 
Q 847 263 1628 263 
Q 2441 263 2656 934 
L 2656 3381 
L 3031 3381 
L 3031 0 
L 2669 0 
L 2663 428 
z
" transform="scale(0.015625)"/>
       <path id="Roboto-Light-68" d="M 859 2809 
Q 1044 3113 1331 3278 
Q 1619 3444 1959 3444 
Q 2503 3444 2768 3137 
Q 3034 2831 3038 2219 
L 3038 0 
L 2666 0 
L 2666 2222 
Q 2663 2675 2473 2897 
Q 2284 3119 1869 3119 
Q 1522 3119 1255 2901 
Q 988 2684 859 2316 
L 859 0 
L 488 0 
L 488 4800 
L 859 4800 
L 859 2809 
z
" transform="scale(0.015625)"/>
       <path id="Roboto-Light-70" d="M 3206 1656 
Q 3206 866 2856 401 
Q 2506 -63 1919 -63 
Q 1225 -63 856 425 
L 856 -1300 
L 484 -1300 
L 484 3381 
L 831 3381 
L 850 2903 
Q 1216 3444 1909 3444 
Q 2516 3444 2861 2984 
Q 3206 2525 3206 1709 
L 3206 1656 
z
M 2831 1722 
Q 2831 2369 2565 2744 
Q 2300 3119 1825 3119 
Q 1481 3119 1234 2953 
Q 988 2788 856 2472 
L 856 850 
Q 991 559 1241 406 
Q 1491 253 1831 253 
Q 2303 253 2567 629 
Q 2831 1006 2831 1722 
z
" transform="scale(0.015625)"/>
       <path id="Roboto-Light-6d" d="M 828 3381 
L 841 2831 
Q 1028 3138 1309 3291 
Q 1591 3444 1934 3444 
Q 2734 3444 2950 2788 
Q 3131 3103 3434 3273 
Q 3738 3444 4103 3444 
Q 5191 3444 5213 2256 
L 5213 0 
L 4838 0 
L 4838 2228 
Q 4834 2681 4642 2900 
Q 4450 3119 4016 3119 
Q 3613 3113 3334 2858 
Q 3056 2603 3025 2238 
L 3025 0 
L 2650 0 
L 2650 2256 
Q 2647 2691 2445 2905 
Q 2244 3119 1825 3119 
Q 1472 3119 1219 2917 
Q 966 2716 844 2319 
L 844 0 
L 469 0 
L 469 3381 
L 828 3381 
z
" transform="scale(0.015625)"/>
      </defs>
      <use xlink:href="#Roboto-Light-41"/>
      <use xlink:href="#Roboto-Light-69" transform="translate(62.451172 0)"/>
      <use xlink:href="#Roboto-Light-72" transform="translate(84.863281 0)"/>
      <use xlink:href="#Roboto-Light-20" transform="translate(118.505859 0)"/>
      <use xlink:href="#Roboto-Light-73" transform="translate(142.822266 0)"/>
      <use xlink:href="#Roboto-Light-6f" transform="translate(193.457031 0)"/>
      <use xlink:href="#Roboto-Light-75" transform="translate(249.462891 0)"/>
      <use xlink:href="#Roboto-Light-72" transform="translate(304.394531 0)"/>
      <use xlink:href="#Roboto-Light-63" transform="translate(338.037109 0)"/>
      <use xlink:href="#Roboto-Light-65" transform="translate(389.550781 0)"/>
      <use xlink:href="#Roboto-Light-20" transform="translate(441.210938 0)"/>
      <use xlink:href="#Roboto-Light-68" transform="translate(465.527344 0)"/>
      <use xlink:href="#Roboto-Light-65" transform="translate(520.410156 0)"/>
      <use xlink:href="#Roboto-Light-61" transform="translate(572.070312 0)"/>
      <use xlink:href="#Roboto-Light-74" transform="translate(625.634766 0)"/>
      <use xlink:href="#Roboto-Light-20" transform="translate(657.763672 0)"/>
      <use xlink:href="#Roboto-Light-70" transform="translate(682.080078 0)"/>
      <use xlink:href="#Roboto-Light-75" transform="translate(737.5 0)"/>
      <use xlink:href="#Roboto-Light-6d" transform="translate(792.431641 0)"/>
      <use xlink:href="#Roboto-Light-70" transform="translate(881.054688 0)"/>
     </g>
    </g>
    <g id="patch_6">
     <path d="M 246.328584 22.773599 
L 258.328584 22.773599 
L 258.328584 18.573599 
L 246.328584 18.573599 
z
" style="fill: #7e22ce; fill-opacity: 0.25; stroke: #7e22ce; stroke-width: 0.75; stroke-linejoin: miter"/>
    </g>
    <g id="text_26">
     <!-- Ground source heat pump -->
     <g transform="translate(261.328584 22.773599) scale(0.06 -0.06)">
      <defs>
       <path id="Roboto-Light-47" d="M 3859 541 
Q 3659 256 3232 96 
Q 2806 -63 2278 -63 
Q 1744 -63 1328 193 
Q 913 450 684 919 
Q 456 1388 453 1994 
L 453 2569 
Q 453 3516 931 4064 
Q 1409 4613 2216 4613 
Q 2919 4613 3347 4255 
Q 3775 3897 3856 3269 
L 3472 3269 
Q 3388 3769 3064 4026 
Q 2741 4284 2219 4284 
Q 1581 4284 1209 3831 
Q 838 3378 838 2553 
L 838 2016 
Q 838 1497 1014 1098 
Q 1191 700 1520 481 
Q 1850 263 2278 263 
Q 2775 263 3131 419 
Q 3363 522 3475 659 
L 3475 1834 
L 2253 1834 
L 2253 2159 
L 3859 2159 
L 3859 541 
z
" transform="scale(0.015625)"/>
      </defs>
      <use xlink:href="#Roboto-Light-47"/>
      <use xlink:href="#Roboto-Light-72" transform="translate(68.359375 0)"/>
      <use xlink:href="#Roboto-Light-6f" transform="translate(102.001953 0)"/>
      <use xlink:href="#Roboto-Light-75" transform="translate(158.007812 0)"/>
      <use xlink:href="#Roboto-Light-6e" transform="translate(212.939453 0)"/>
      <use xlink:href="#Roboto-Light-64" transform="translate(267.871094 0)"/>
      <use xlink:href="#Roboto-Light-20" transform="translate(323.4375 0)"/>
      <use xlink:href="#Roboto-Light-73" transform="translate(347.753906 0)"/>
      <use xlink:href="#Roboto-Light-6f" transform="translate(398.388672 0)"/>
      <use xlink:href="#Roboto-Light-75" transform="translate(454.394531 0)"/>
      <use xlink:href="#Roboto-Light-72" transform="translate(509.326172 0)"/>
      <use xlink:href="#Roboto-Light-63" transform="translate(542.96875 0)"/>
      <use xlink:href="#Roboto-Light-65" transform="translate(594.482422 0)"/>
      <use xlink:href="#Roboto-Light-20" transform="translate(646.142578 0)"/>
      <use xlink:href="#Roboto-Light-68" transform="translate(670.458984 0)"/>
      <use xlink:href="#Roboto-Light-65" transform="translate(725.341797 0)"/>
      <use xlink:href="#Roboto-Light-61" transform="translate(777.001953 0)"/>
      <use xlink:href="#Roboto-Light-74" transform="translate(830.566406 0)"/>
      <use xlink:href="#Roboto-Light-20" transform="translate(862.695312 0)"/>
      <use xlink:href="#Roboto-Light-70" transform="translate(887.011719 0)"/>
      <use xlink:href="#Roboto-Light-75" transform="translate(942.431641 0)"/>
      <use xlink:href="#Roboto-Light-6d" transform="translate(997.363281 0)"/>
      <use xlink:href="#Roboto-Light-70" transform="translate(1085.986328 0)"/>
     </g>
    </g>
   </g>
  </g>
 </g>
 <defs>
  <clipPath id="p922aa997c9">
   <rect x="26.630226" y="5.954849" width="306.182734" height="150.881891"/>
  </clipPath>
 </defs>
</svg>
