<?xml version="1.0" encoding="utf-8" standalone="no"?>
<!DOCTYPE svg PUBLIC "-//W3C//DTD SVG 1.1//EN"
  "http://www.w3.org/Graphics/SVG/1.1/DTD/svg11.dtd">
<svg xmlns:xlink="http://www.w3.org/1999/xlink" width="340.15748pt" height="184.251969pt" viewBox="0 0 340.15748 184.251969" xmlns="http://www.w3.org/2000/svg" version="1.1">
 <metadata>
  <rdf:RDF xmlns:dc="http://purl.org/dc/elements/1.1/" xmlns:cc="http://creativecommons.org/ns#" xmlns:rdf="http://www.w3.org/1999/02/22-rdf-syntax-ns#">
   <cc:Work>
    <dc:type rdf:resource="http://purl.org/dc/dcmitype/StillImage"/>
    <dc:date>2025-07-17T16:46:36.600059</dc:date>
    <dc:format>image/svg+xml</dc:format>
    <dc:creator>
     <cc:Agent>
      <dc:title>Matplotlib v3.10.3, https://matplotlib.org/</dc:title>
     </cc:Agent>
    </dc:creator>
   </cc:Work>
  </rdf:RDF>
 </metadata>
 <defs>
  <style type="text/css">*{stroke-linejoin: round; stroke-linecap: butt}</style>
 </defs>
 <g id="figure_1">
  <g id="patch_1">
   <path d="M 0 184.251969 
L 340.15748 184.251969 
L 340.15748 0 
L 0 0 
L 0 184.251969 
z
" style="fill: none"/>
  </g>
  <g id="axes_1">
   <g id="patch_2">
    <path d="M 26.630226 156.83674 
L 332.812959 156.83674 
L 332.812959 5.954849 
L 26.630226 5.954849 
L 26.630226 156.83674 
z
" style="fill: none"/>
   </g>
   <g id="FillBetweenPolyCollection_1">
    <defs>
     <path id="md437488c76" d="M 95.652338 -27.48368 
L 95.652338 -27.415228 
L 95.770722 -27.415228 
L 95.889106 -27.415228 
L 96.007489 -27.415228 
L 96.125873 -27.415228 
L 96.244257 -27.415228 
L 96.362641 -27.415228 
L 96.481025 -27.415228 
L 96.599408 -27.415228 
L 96.717792 -27.415228 
L 96.836176 -27.415228 
L 96.95456 -27.415228 
L 97.072944 -27.415228 
L 97.191327 -27.415228 
L 97.309711 -27.415228 
L 97.428095 -27.415228 
L 97.546479 -27.415228 
L 97.664863 -27.415228 
L 97.783247 -27.415228 
L 97.90163 -27.415228 
L 98.020014 -27.415228 
L 98.138398 -27.415228 
L 98.256782 -27.415228 
L 98.375166 -27.415228 
L 98.493549 -27.415228 
L 98.611933 -27.415228 
L 98.730317 -27.415228 
L 98.848701 -27.415228 
L 98.967085 -27.415228 
L 99.085468 -27.415228 
L 99.203852 -27.415228 
L 99.322236 -27.415228 
L 99.44062 -27.415228 
L 99.559004 -27.415228 
L 99.677387 -27.415228 
L 99.795771 -27.415228 
L 99.914155 -27.415228 
L 100.032539 -27.415228 
L 100.150923 -27.415228 
L 100.269306 -27.415228 
L 100.38769 -27.415228 
L 100.506074 -27.415228 
L 100.624458 -27.415228 
L 100.742842 -27.415228 
L 100.861225 -27.415228 
L 100.979609 -27.415228 
L 101.097993 -27.415228 
L 101.216377 -27.415228 
L 101.334761 -27.415228 
L 101.453145 -27.415228 
L 101.571528 -27.415228 
L 101.689912 -27.415228 
L 101.808296 -27.415228 
L 101.92668 -27.415228 
L 102.045064 -27.415228 
L 102.163447 -27.415228 
L 102.281831 -27.415228 
L 102.400215 -27.415228 
L 102.518599 -27.415228 
L 102.636983 -27.415228 
L 102.755366 -27.415228 
L 102.87375 -27.415228 
L 102.992134 -27.415228 
L 103.110518 -27.415228 
L 103.228902 -27.415228 
L 103.347285 -27.415228 
L 103.465669 -27.415228 
L 103.584053 -27.415228 
L 103.702437 -27.415228 
L 103.820821 -27.415228 
L 103.939204 -27.415228 
L 104.057588 -27.415228 
L 104.175972 -27.415228 
L 104.294356 -27.415228 
L 104.41274 -27.415228 
L 104.531123 -27.415228 
L 104.649507 -27.415228 
L 104.767891 -27.415228 
L 104.886275 -27.415228 
L 105.004659 -27.415228 
L 105.123043 -27.415228 
L 105.241426 -27.415228 
L 105.35981 -27.415228 
L 105.478194 -27.415228 
L 105.596578 -27.415228 
L 105.714962 -27.415228 
L 105.833345 -27.415228 
L 105.951729 -27.415228 
L 106.070113 -27.415228 
L 106.188497 -27.415228 
L 106.306881 -27.415228 
L 106.425264 -27.415228 
L 106.543648 -27.415228 
L 106.662032 -27.415228 
L 106.780416 -27.415228 
L 106.8988 -27.415228 
L 107.017183 -27.415228 
L 107.135567 -27.415228 
L 107.253951 -27.415228 
L 107.372335 -27.415228 
L 107.490719 -27.415228 
L 107.609102 -27.415228 
L 107.727486 -27.415228 
L 107.84587 -27.415228 
L 107.964254 -27.415228 
L 108.082638 -27.415228 
L 108.201022 -27.415228 
L 108.319405 -27.415228 
L 108.437789 -27.415228 
L 108.556173 -27.415228 
L 108.674557 -27.415228 
L 108.792941 -27.415228 
L 108.911324 -27.415228 
L 109.029708 -27.415228 
L 109.148092 -27.415228 
L 109.266476 -27.415228 
L 109.38486 -27.415228 
L 109.503243 -27.415228 
L 109.621627 -27.415228 
L 109.740011 -27.415228 
L 109.858395 -27.415228 
L 109.976779 -27.415228 
L 110.095162 -27.415228 
L 110.213546 -27.415228 
L 110.33193 -27.415228 
L 110.450314 -27.415228 
L 110.568698 -27.415228 
L 110.687081 -27.415228 
L 110.805465 -27.415228 
L 110.923849 -27.415228 
L 111.042233 -27.415228 
L 111.160617 -27.415228 
L 111.279 -27.415228 
L 111.397384 -27.415228 
L 111.515768 -27.415228 
L 111.634152 -27.415228 
L 111.752536 -27.415228 
L 111.87092 -27.415228 
L 111.989303 -27.415228 
L 112.107687 -27.415228 
L 112.226071 -27.415228 
L 112.344455 -27.415228 
L 112.462839 -27.415228 
L 112.581222 -27.415228 
L 112.699606 -27.415228 
L 112.81799 -27.415228 
L 112.936374 -27.415228 
L 113.054758 -27.415228 
L 113.173141 -27.415228 
L 113.291525 -27.415228 
L 113.409909 -27.415228 
L 113.528293 -27.415228 
L 113.646677 -27.415228 
L 113.76506 -27.415228 
L 113.883444 -27.415228 
L 114.001828 -27.415228 
L 114.120212 -27.415228 
L 114.238596 -27.415228 
L 114.356979 -27.415228 
L 114.475363 -27.415228 
L 114.593747 -27.415228 
L 114.712131 -27.415228 
L 114.830515 -27.415228 
L 114.948898 -27.415228 
L 115.067282 -27.415228 
L 115.185666 -27.415228 
L 115.30405 -27.415228 
L 115.422434 -27.415228 
L 115.540818 -27.415228 
L 115.659201 -27.415228 
L 115.777585 -27.415228 
L 115.895969 -27.415228 
L 116.014353 -27.415228 
L 116.132737 -27.415228 
L 116.25112 -27.415228 
L 116.369504 -27.415228 
L 116.487888 -27.415228 
L 116.606272 -27.415228 
L 116.724656 -27.415228 
L 116.843039 -27.415228 
L 116.961423 -27.415228 
L 117.079807 -27.415228 
L 117.198191 -27.415228 
L 117.316575 -27.415228 
L 117.434958 -27.415228 
L 117.553342 -27.415228 
L 117.671726 -27.415228 
L 117.79011 -27.415228 
L 117.908494 -27.415228 
L 118.026877 -27.415228 
L 118.145261 -27.415228 
L 118.263645 -27.415228 
L 118.382029 -27.415228 
L 118.500413 -27.415228 
L 118.618796 -27.415228 
L 118.73718 -27.415228 
L 118.855564 -27.415228 
L 118.973948 -27.415228 
L 119.092332 -27.415228 
L 119.210716 -27.415228 
L 119.210716 -27.646784 
L 119.210716 -27.646784 
L 119.092332 -27.818296 
L 118.973948 -28.09745 
L 118.855564 -28.53821 
L 118.73718 -29.213295 
L 118.618796 -30.216282 
L 118.500413 -31.661683 
L 118.382029 -33.681966 
L 118.263645 -36.420598 
L 118.145261 -40.020684 
L 118.026877 -44.609496 
L 117.908494 -50.280154 
L 117.79011 -57.072727 
L 117.671726 -64.95774 
L 117.553342 -73.825377 
L 117.434958 -83.483226 
L 117.316575 -93.664282 
L 117.198191 -104.045231 
L 117.079807 -114.273138 
L 116.961423 -123.996974 
L 116.843039 -132.899421 
L 116.724656 -140.724237 
L 116.606272 -147.29537 
L 116.487888 -152.525544 
L 116.369504 -156.414027 
L 116.25112 -159.03509 
L 116.132737 -160.520018 
L 116.014353 -161.036138 
L 115.895969 -160.766193 
L 115.777585 -159.890671 
L 115.659201 -158.574659 
L 115.540818 -156.959732 
L 115.422434 -155.160477 
L 115.30405 -153.264692 
L 115.185666 -151.336083 
L 115.067282 -149.418278 
L 114.948898 -147.539228 
L 114.830515 -145.715346 
L 114.712131 -143.955021 
L 114.593747 -142.261375 
L 114.475363 -140.634281 
L 114.356979 -139.071757 
L 114.238596 -137.570877 
L 114.120212 -136.128324 
L 114.001828 -134.740714 
L 113.883444 -133.404761 
L 113.76506 -132.117361 
L 113.646677 -130.875625 
L 113.528293 -129.676881 
L 113.409909 -128.518669 
L 113.291525 -127.398727 
L 113.173141 -126.31497 
L 113.054758 -125.26547 
L 112.936374 -124.248437 
L 112.81799 -123.262201 
L 112.699606 -122.305206 
L 112.581222 -121.375999 
L 112.462839 -120.473235 
L 112.344455 -119.59567 
L 112.226071 -118.742155 
L 112.107687 -117.911624 
L 111.989303 -117.103078 
L 111.87092 -116.315567 
L 111.752536 -115.548181 
L 111.634152 -114.800041 
L 111.515768 -114.070312 
L 111.397384 -113.358211 
L 111.279 -112.66302 
L 111.160617 -111.984089 
L 111.042233 -111.320832 
L 110.923849 -110.672706 
L 110.805465 -110.03919 
L 110.687081 -109.419759 
L 110.568698 -108.81388 
L 110.450314 -108.221006 
L 110.33193 -107.640602 
L 110.213546 -107.072165 
L 110.095162 -106.515254 
L 109.976779 -105.969498 
L 109.858395 -105.434593 
L 109.740011 -104.91028 
L 109.621627 -104.396312 
L 109.503243 -103.892414 
L 109.38486 -103.398264 
L 109.266476 -102.913489 
L 109.148092 -102.437682 
L 109.029708 -101.97044 
L 108.911324 -101.511403 
L 108.792941 -101.060291 
L 108.674557 -100.616917 
L 108.556173 -100.181173 
L 108.437789 -99.753001 
L 108.319405 -99.332339 
L 108.201022 -98.919077 
L 108.082638 -98.513021 
L 107.964254 -98.11389 
L 107.84587 -97.721332 
L 107.727486 -97.334974 
L 107.609102 -96.954475 
L 107.490719 -96.579579 
L 107.372335 -96.210145 
L 107.253951 -95.846149 
L 107.135567 -95.487654 
L 107.017183 -95.134757 
L 106.8988 -94.787525 
L 106.780416 -94.445937 
L 106.662032 -94.109853 
L 106.543648 -93.779009 
L 106.425264 -93.45305 
L 106.306881 -93.131591 
L 106.188497 -92.814278 
L 106.070113 -92.500859 
L 105.951729 -92.191221 
L 105.833345 -91.885399 
L 105.714962 -91.583546 
L 105.596578 -91.285878 
L 105.478194 -90.9926 
L 105.35981 -90.703834 
L 105.241426 -90.419566 
L 105.123043 -90.139623 
L 105.004659 -89.863694 
L 104.886275 -89.591373 
L 104.767891 -89.32224 
L 104.649507 -89.055931 
L 104.531123 -88.792212 
L 104.41274 -88.531017 
L 104.294356 -88.272451 
L 104.175972 -88.016757 
L 104.057588 -87.764254 
L 103.939204 -87.515252 
L 103.820821 -87.269973 
L 103.702437 -87.02849 
L 103.584053 -86.790695 
L 103.465669 -86.556308 
L 103.347285 -86.324915 
L 103.228902 -86.096047 
L 103.110518 -85.869261 
L 102.992134 -85.644219 
L 102.87375 -85.420754 
L 102.755366 -85.19889 
L 102.636983 -84.978839 
L 102.518599 -84.760945 
L 102.400215 -84.545618 
L 102.281831 -84.33324 
L 102.163447 -84.124088 
L 102.045064 -83.918268 
L 101.92668 -83.715688 
L 101.808296 -83.516061 
L 101.689912 -83.318953 
L 101.571528 -83.123854 
L 101.453145 -82.930264 
L 101.334761 -82.737779 
L 101.216377 -82.54616 
L 101.097993 -82.35537 
L 100.979609 -82.165573 
L 100.861225 -81.977101 
L 100.742842 -81.790372 
L 100.624458 -81.605795 
L 100.506074 -81.423649 
L 100.38769 -81.243945 
L 100.269306 -81.066276 
L 100.150923 -80.88964 
L 100.032539 -80.712198 
L 99.914155 -80.530951 
L 99.795771 -80.341274 
L 99.677387 -80.136288 
L 99.559004 -79.906049 
L 99.44062 -79.636584 
L 99.322236 -79.308888 
L 99.203852 -78.89803 
L 99.085468 -78.372658 
L 98.967085 -77.695197 
L 98.848701 -76.823053 
L 98.730317 -75.711074 
L 98.611933 -74.315332 
L 98.493549 -72.598046 
L 98.375166 -70.533166 
L 98.256782 -68.111873 
L 98.138398 -65.347052 
L 98.020014 -62.275815 
L 97.90163 -58.959326 
L 97.783247 -55.479584 
L 97.664863 -51.933368 
L 97.546479 -48.424046 
L 97.428095 -45.0524 
L 97.309711 -41.907811 
L 97.191327 -39.061081 
L 97.072944 -36.559828 
L 96.95456 -34.426909 
L 96.836176 -32.661771 
L 96.717792 -31.244163 
L 96.599408 -30.139327 
L 96.481025 -29.303737 
L 96.362641 -28.690486 
L 96.244257 -28.253742 
L 96.125873 -27.951917 
L 96.007489 -27.749513 
L 95.889106 -27.617803 
L 95.770722 -27.534637 
L 95.652338 -27.48368 
z
" style="stroke: #be185d; stroke-width: 0.75"/>
    </defs>
    <g clip-path="url(#pefdb4879c8)">
     <use xlink:href="#md437488c76" x="0" y="184.251969" style="fill: #be185d; fill-opacity: 0.25; stroke: #be185d; stroke-width: 0.75"/>
    </g>
   </g>
   <g id="FillBetweenPolyCollection_2">
    <defs>
     <path id="mb186076d54" d="M 127.630064 -27.602649 
L 127.630064 -27.415228 
L 127.698981 -27.415228 
L 127.767897 -27.415228 
L 127.836813 -27.415228 
L 127.90573 -27.415228 
L 127.974646 -27.415228 
L 128.043562 -27.415228 
L 128.112479 -27.415228 
L 128.181395 -27.415228 
L 128.250311 -27.415228 
L 128.319228 -27.415228 
L 128.388144 -27.415228 
L 128.45706 -27.415228 
L 128.525977 -27.415228 
L 128.594893 -27.415228 
L 128.663809 -27.415228 
L 128.732726 -27.415228 
L 128.801642 -27.415228 
L 128.870558 -27.415228 
L 128.939475 -27.415228 
L 129.008391 -27.415228 
L 129.077307 -27.415228 
L 129.146224 -27.415228 
L 129.21514 -27.415228 
L 129.284056 -27.415228 
L 129.352973 -27.415228 
L 129.421889 -27.415228 
L 129.490805 -27.415228 
L 129.559722 -27.415228 
L 129.628638 -27.415228 
L 129.697554 -27.415228 
L 129.766471 -27.415228 
L 129.835387 -27.415228 
L 129.904303 -27.415228 
L 129.97322 -27.415228 
L 130.042136 -27.415228 
L 130.111052 -27.415228 
L 130.179969 -27.415228 
L 130.248885 -27.415228 
L 130.317801 -27.415228 
L 130.386718 -27.415228 
L 130.455634 -27.415228 
L 130.52455 -27.415228 
L 130.593467 -27.415228 
L 130.662383 -27.415228 
L 130.731299 -27.415228 
L 130.800216 -27.415228 
L 130.869132 -27.415228 
L 130.938048 -27.415228 
L 131.006965 -27.415228 
L 131.075881 -27.415228 
L 131.144797 -27.415228 
L 131.213714 -27.415228 
L 131.28263 -27.415228 
L 131.351546 -27.415228 
L 131.420463 -27.415228 
L 131.489379 -27.415228 
L 131.558295 -27.415228 
L 131.627212 -27.415228 
L 131.696128 -27.415228 
L 131.765044 -27.415228 
L 131.833961 -27.415228 
L 131.902877 -27.415228 
L 131.971793 -27.415228 
L 132.04071 -27.415228 
L 132.109626 -27.415228 
L 132.178542 -27.415228 
L 132.247459 -27.415228 
L 132.316375 -27.415228 
L 132.385291 -27.415228 
L 132.454208 -27.415228 
L 132.523124 -27.415228 
L 132.59204 -27.415228 
L 132.660957 -27.415228 
L 132.729873 -27.415228 
L 132.798789 -27.415228 
L 132.867706 -27.415228 
L 132.936622 -27.415228 
L 133.005538 -27.415228 
L 133.074455 -27.415228 
L 133.143371 -27.415228 
L 133.212287 -27.415228 
L 133.281204 -27.415228 
L 133.35012 -27.415228 
L 133.419036 -27.415228 
L 133.487953 -27.415228 
L 133.556869 -27.415228 
L 133.625785 -27.415228 
L 133.694702 -27.415228 
L 133.763618 -27.415228 
L 133.832534 -27.415228 
L 133.901451 -27.415228 
L 133.970367 -27.415228 
L 134.039283 -27.415228 
L 134.1082 -27.415228 
L 134.177116 -27.415228 
L 134.246032 -27.415228 
L 134.314949 -27.415228 
L 134.383865 -27.415228 
L 134.452781 -27.415228 
L 134.521698 -27.415228 
L 134.590614 -27.415228 
L 134.65953 -27.415228 
L 134.728447 -27.415228 
L 134.797363 -27.415228 
L 134.866279 -27.415228 
L 134.935196 -27.415228 
L 135.004112 -27.415228 
L 135.073028 -27.415228 
L 135.141945 -27.415228 
L 135.210861 -27.415228 
L 135.279777 -27.415228 
L 135.348694 -27.415228 
L 135.41761 -27.415228 
L 135.486526 -27.415228 
L 135.555443 -27.415228 
L 135.624359 -27.415228 
L 135.693275 -27.415228 
L 135.762192 -27.415228 
L 135.831108 -27.415228 
L 135.900024 -27.415228 
L 135.968941 -27.415228 
L 136.037857 -27.415228 
L 136.106773 -27.415228 
L 136.17569 -27.415228 
L 136.244606 -27.415228 
L 136.313522 -27.415228 
L 136.382439 -27.415228 
L 136.451355 -27.415228 
L 136.520271 -27.415228 
L 136.589188 -27.415228 
L 136.658104 -27.415228 
L 136.72702 -27.415228 
L 136.795937 -27.415228 
L 136.864853 -27.415228 
L 136.933769 -27.415228 
L 137.002686 -27.415228 
L 137.071602 -27.415228 
L 137.140518 -27.415228 
L 137.209435 -27.415228 
L 137.278351 -27.415228 
L 137.347267 -27.415228 
L 137.416184 -27.415228 
L 137.4851 -27.415228 
L 137.554016 -27.415228 
L 137.622933 -27.415228 
L 137.691849 -27.415228 
L 137.760765 -27.415228 
L 137.829682 -27.415228 
L 137.898598 -27.415228 
L 137.967514 -27.415228 
L 138.036431 -27.415228 
L 138.105347 -27.415228 
L 138.174263 -27.415228 
L 138.24318 -27.415228 
L 138.312096 -27.415228 
L 138.381012 -27.415228 
L 138.449929 -27.415228 
L 138.518845 -27.415228 
L 138.587761 -27.415228 
L 138.656678 -27.415228 
L 138.725594 -27.415228 
L 138.79451 -27.415228 
L 138.863427 -27.415228 
L 138.932343 -27.415228 
L 139.001259 -27.415228 
L 139.070176 -27.415228 
L 139.139092 -27.415228 
L 139.208008 -27.415228 
L 139.276925 -27.415228 
L 139.345841 -27.415228 
L 139.414757 -27.415228 
L 139.483674 -27.415228 
L 139.55259 -27.415228 
L 139.621506 -27.415228 
L 139.690423 -27.415228 
L 139.759339 -27.415228 
L 139.828255 -27.415228 
L 139.897172 -27.415228 
L 139.966088 -27.415228 
L 140.035004 -27.415228 
L 140.103921 -27.415228 
L 140.172837 -27.415228 
L 140.241753 -27.415228 
L 140.31067 -27.415228 
L 140.379586 -27.415228 
L 140.448502 -27.415228 
L 140.517419 -27.415228 
L 140.586335 -27.415228 
L 140.655251 -27.415228 
L 140.724168 -27.415228 
L 140.793084 -27.415228 
L 140.862 -27.415228 
L 140.930917 -27.415228 
L 140.999833 -27.415228 
L 141.068749 -27.415228 
L 141.137666 -27.415228 
L 141.206582 -27.415228 
L 141.275498 -27.415228 
L 141.344415 -27.415228 
L 141.344415 -27.595628 
L 141.344415 -27.595628 
L 141.275498 -27.731163 
L 141.206582 -27.953082 
L 141.137666 -28.305506 
L 141.068749 -28.848328 
L 140.999833 -29.659242 
L 140.930917 -30.834181 
L 140.862 -32.485312 
L 140.793084 -34.735779 
L 140.724168 -37.710803 
L 140.655251 -41.525288 
L 140.586335 -46.268911 
L 140.517419 -51.99048 
L 140.448502 -58.683973 
L 140.379586 -66.278938 
L 140.31067 -74.637611 
L 140.241753 -83.560206 
L 140.172837 -92.798509 
L 140.103921 -102.076332 
L 140.035004 -111.114076 
L 139.966088 -119.653784 
L 139.897172 -127.480982 
L 139.828255 -134.440274 
L 139.759339 -140.442878 
L 139.690423 -145.46584 
L 139.621506 -149.544058 
L 139.55259 -152.757292 
L 139.483674 -155.214783 
L 139.414757 -157.040003 
L 139.345841 -158.357484 
L 139.276925 -159.282924 
L 139.208008 -159.916935 
L 139.139092 -160.342165 
L 139.070176 -160.623112 
L 139.001259 -160.80777 
L 138.932343 -160.930283 
L 138.863427 -161.013935 
L 138.79451 -161.073983 
L 138.725594 -161.120085 
L 138.656678 -161.158187 
L 138.587761 -161.191886 
L 138.518845 -161.223333 
L 138.449929 -161.253798 
L 138.381012 -161.283991 
L 138.312096 -161.314246 
L 138.24318 -161.344641 
L 138.174263 -161.375096 
L 138.105347 -161.405462 
L 138.036431 -161.435607 
L 137.967514 -161.465475 
L 137.898598 -161.495114 
L 137.829682 -161.52466 
L 137.760765 -161.554291 
L 137.691849 -161.584165 
L 137.622933 -161.614364 
L 137.554016 -161.644864 
L 137.4851 -161.675548 
L 137.416184 -161.706243 
L 137.347267 -161.736784 
L 137.278351 -161.767072 
L 137.209435 -161.797107 
L 137.140518 -161.826992 
L 137.071602 -161.856891 
L 137.002686 -161.886972 
L 136.933769 -161.917353 
L 136.864853 -161.948051 
L 136.795937 -161.978985 
L 136.72702 -162.009999 
L 136.658104 -162.040922 
L 136.589188 -162.071625 
L 136.520271 -162.10207 
L 136.451355 -162.13232 
L 136.382439 -162.162519 
L 136.313522 -162.192841 
L 136.244606 -162.223422 
L 136.17569 -162.254321 
L 136.106773 -162.285492 
L 136.037857 -162.316804 
L 135.968941 -162.348087 
L 135.900024 -162.379194 
L 135.831108 -162.41005 
L 135.762192 -162.440684 
L 135.693275 -162.471213 
L 135.624359 -162.501804 
L 135.555443 -162.53261 
L 135.486526 -162.563719 
L 135.41761 -162.595123 
L 135.348694 -162.626717 
L 135.279777 -162.65834 
L 135.210861 -162.689835 
L 135.141945 -162.721101 
L 135.073028 -162.75213 
L 135.004112 -162.783011 
L 134.935196 -162.813899 
L 134.866279 -162.844954 
L 134.797363 -162.876289 
L 134.728447 -162.907927 
L 134.65953 -162.939792 
L 134.590614 -162.971741 
L 134.521698 -163.00361 
L 134.452781 -163.035278 
L 134.383865 -163.066707 
L 134.314949 -163.097958 
L 134.246032 -163.129166 
L 134.177116 -163.160494 
L 134.1082 -163.192072 
L 134.039283 -163.223951 
L 133.970367 -163.256085 
L 133.901451 -163.288348 
L 133.832534 -163.320578 
L 133.763618 -163.35264 
L 133.694702 -163.38447 
L 133.625785 -163.416102 
L 133.556869 -163.44765 
L 133.487953 -163.479274 
L 133.419036 -163.511114 
L 133.35012 -163.543245 
L 133.281204 -163.575648 
L 133.212287 -163.608217 
L 133.143371 -163.640798 
L 133.074455 -163.673245 
L 133.005538 -163.705475 
L 132.936622 -163.737494 
L 132.867706 -163.769398 
L 132.798789 -163.801337 
L 132.729873 -163.833458 
L 132.660957 -163.865855 
L 132.59204 -163.898533 
L 132.523124 -163.931405 
L 132.454208 -163.964329 
L 132.385291 -163.997154 
L 132.316375 -164.029779 
L 132.247459 -164.06219 
L 132.178542 -164.094461 
L 132.109626 -164.126732 
L 132.04071 -164.159153 
L 131.971793 -164.191831 
L 131.902877 -164.224791 
L 131.833961 -164.257968 
L 131.765044 -164.291229 
L 131.696128 -164.324425 
L 131.627212 -164.357442 
L 131.558295 -164.390245 
L 131.489379 -164.422893 
L 131.420463 -164.45551 
L 131.351546 -164.488247 
L 131.28263 -164.521221 
L 131.213714 -164.554474 
L 131.144797 -164.58796 
L 131.075881 -164.621557 
L 131.006965 -164.655117 
L 130.938048 -164.688519 
L 130.869132 -164.721708 
L 130.800216 -164.754719 
L 130.731299 -164.78765 
L 130.662383 -164.820615 
L 130.593467 -164.853666 
L 130.52455 -164.886708 
L 130.455634 -164.919404 
L 130.386718 -164.951046 
L 130.317801 -164.980359 
L 130.248885 -165.005149 
L 130.179969 -165.021709 
L 130.111052 -165.023868 
L 130.042136 -165.001568 
L 129.97322 -164.938908 
L 129.904303 -164.811631 
L 129.835387 -164.584191 
L 129.766471 -164.206659 
L 129.697554 -163.611969 
L 129.628638 -162.714198 
L 129.559722 -161.408741 
L 129.490805 -159.575266 
L 129.421889 -157.084175 
L 129.352973 -153.806859 
L 129.284056 -149.629362 
L 129.21514 -144.468236 
L 129.146224 -138.286555 
L 129.077307 -131.107464 
L 129.008391 -123.022538 
L 128.939475 -114.192669 
L 128.870558 -104.840296 
L 128.801642 -95.233244 
L 128.732726 -85.662046 
L 128.663809 -76.413897 
L 128.594893 -67.747106 
L 128.525977 -59.869785 
L 128.45706 -52.925676 
L 128.388144 -46.988597 
L 128.319228 -42.065391 
L 128.250311 -38.105873 
L 128.181395 -35.017314 
L 128.112479 -32.680688 
L 128.043562 -30.966169 
L 127.974646 -29.746014 
L 127.90573 -28.903827 
L 127.836813 -28.34003 
L 127.767897 -27.973966 
L 127.698981 -27.743445 
L 127.630064 -27.602649 
z
" style="stroke: #c2410c; stroke-width: 0.75"/>
    </defs>
    <g clip-path="url(#pefdb4879c8)">
     <use xlink:href="#mb186076d54" x="0" y="184.251969" style="fill: #c2410c; fill-opacity: 0.25; stroke: #c2410c; stroke-width: 0.75"/>
    </g>
   </g>
   <g id="FillBetweenPolyCollection_3">
    <defs>
     <path id="m459e8f1ec6" d="M 188.748657 -27.459827 
L 188.748657 -27.415228 
L 189.032797 -27.415228 
L 189.316937 -27.415228 
L 189.601076 -27.415228 
L 189.885216 -27.415228 
L 190.169356 -27.415228 
L 190.453495 -27.415228 
L 190.737635 -27.415228 
L 191.021775 -27.415228 
L 191.305915 -27.415228 
L 191.590054 -27.415228 
L 191.874194 -27.415228 
L 192.158334 -27.415228 
L 192.442474 -27.415228 
L 192.726613 -27.415228 
L 193.010753 -27.415228 
L 193.294893 -27.415228 
L 193.579032 -27.415228 
L 193.863172 -27.415228 
L 194.147312 -27.415228 
L 194.431452 -27.415228 
L 194.715591 -27.415228 
L 194.999731 -27.415228 
L 195.283871 -27.415228 
L 195.568011 -27.415228 
L 195.85215 -27.415228 
L 196.13629 -27.415228 
L 196.42043 -27.415228 
L 196.70457 -27.415228 
L 196.988709 -27.415228 
L 197.272849 -27.415228 
L 197.556989 -27.415228 
L 197.841128 -27.415228 
L 198.125268 -27.415228 
L 198.409408 -27.415228 
L 198.693548 -27.415228 
L 198.977687 -27.415228 
L 199.261827 -27.415228 
L 199.545967 -27.415228 
L 199.830107 -27.415228 
L 200.114246 -27.415228 
L 200.398386 -27.415228 
L 200.682526 -27.415228 
L 200.966665 -27.415228 
L 201.250805 -27.415228 
L 201.534945 -27.415228 
L 201.819085 -27.415228 
L 202.103224 -27.415228 
L 202.387364 -27.415228 
L 202.671504 -27.415228 
L 202.955644 -27.415228 
L 203.239783 -27.415228 
L 203.523923 -27.415228 
L 203.808063 -27.415228 
L 204.092203 -27.415228 
L 204.376342 -27.415228 
L 204.660482 -27.415228 
L 204.944622 -27.415228 
L 205.228761 -27.415228 
L 205.512901 -27.415228 
L 205.797041 -27.415228 
L 206.081181 -27.415228 
L 206.36532 -27.415228 
L 206.64946 -27.415228 
L 206.9336 -27.415228 
L 207.21774 -27.415228 
L 207.501879 -27.415228 
L 207.786019 -27.415228 
L 208.070159 -27.415228 
L 208.354298 -27.415228 
L 208.638438 -27.415228 
L 208.922578 -27.415228 
L 209.206718 -27.415228 
L 209.490857 -27.415228 
L 209.774997 -27.415228 
L 210.059137 -27.415228 
L 210.343277 -27.415228 
L 210.627416 -27.415228 
L 210.911556 -27.415228 
L 211.195696 -27.415228 
L 211.479836 -27.415228 
L 211.763975 -27.415228 
L 212.048115 -27.415228 
L 212.332255 -27.415228 
L 212.616394 -27.415228 
L 212.900534 -27.415228 
L 213.184674 -27.415228 
L 213.468814 -27.415228 
L 213.752953 -27.415228 
L 214.037093 -27.415228 
L 214.321233 -27.415228 
L 214.605373 -27.415228 
L 214.889512 -27.415228 
L 215.173652 -27.415228 
L 215.457792 -27.415228 
L 215.741931 -27.415228 
L 216.026071 -27.415228 
L 216.310211 -27.415228 
L 216.594351 -27.415228 
L 216.87849 -27.415228 
L 217.16263 -27.415228 
L 217.44677 -27.415228 
L 217.73091 -27.415228 
L 218.015049 -27.415228 
L 218.299189 -27.415228 
L 218.583329 -27.415228 
L 218.867469 -27.415228 
L 219.151608 -27.415228 
L 219.435748 -27.415228 
L 219.719888 -27.415228 
L 220.004027 -27.415228 
L 220.288167 -27.415228 
L 220.572307 -27.415228 
L 220.856447 -27.415228 
L 221.140586 -27.415228 
L 221.424726 -27.415228 
L 221.708866 -27.415228 
L 221.993006 -27.415228 
L 222.277145 -27.415228 
L 222.561285 -27.415228 
L 222.845425 -27.415228 
L 223.129564 -27.415228 
L 223.413704 -27.415228 
L 223.697844 -27.415228 
L 223.981984 -27.415228 
L 224.266123 -27.415228 
L 224.550263 -27.415228 
L 224.834403 -27.415228 
L 225.118543 -27.415228 
L 225.402682 -27.415228 
L 225.686822 -27.415228 
L 225.970962 -27.415228 
L 226.255101 -27.415228 
L 226.539241 -27.415228 
L 226.823381 -27.415228 
L 227.107521 -27.415228 
L 227.39166 -27.415228 
L 227.6758 -27.415228 
L 227.95994 -27.415228 
L 228.24408 -27.415228 
L 228.528219 -27.415228 
L 228.812359 -27.415228 
L 229.096499 -27.415228 
L 229.380639 -27.415228 
L 229.664778 -27.415228 
L 229.948918 -27.415228 
L 230.233058 -27.415228 
L 230.517197 -27.415228 
L 230.801337 -27.415228 
L 231.085477 -27.415228 
L 231.369617 -27.415228 
L 231.653756 -27.415228 
L 231.937896 -27.415228 
L 232.222036 -27.415228 
L 232.506176 -27.415228 
L 232.790315 -27.415228 
L 233.074455 -27.415228 
L 233.358595 -27.415228 
L 233.642734 -27.415228 
L 233.926874 -27.415228 
L 234.211014 -27.415228 
L 234.495154 -27.415228 
L 234.779293 -27.415228 
L 235.063433 -27.415228 
L 235.347573 -27.415228 
L 235.631713 -27.415228 
L 235.915852 -27.415228 
L 236.199992 -27.415228 
L 236.484132 -27.415228 
L 236.768272 -27.415228 
L 237.052411 -27.415228 
L 237.336551 -27.415228 
L 237.620691 -27.415228 
L 237.90483 -27.415228 
L 238.18897 -27.415228 
L 238.47311 -27.415228 
L 238.75725 -27.415228 
L 239.041389 -27.415228 
L 239.325529 -27.415228 
L 239.609669 -27.415228 
L 239.893809 -27.415228 
L 240.177948 -27.415228 
L 240.462088 -27.415228 
L 240.746228 -27.415228 
L 241.030367 -27.415228 
L 241.314507 -27.415228 
L 241.598647 -27.415228 
L 241.882787 -27.415228 
L 242.166926 -27.415228 
L 242.451066 -27.415228 
L 242.735206 -27.415228 
L 243.019346 -27.415228 
L 243.303485 -27.415228 
L 243.587625 -27.415228 
L 243.871765 -27.415228 
L 244.155905 -27.415228 
L 244.440044 -27.415228 
L 244.724184 -27.415228 
L 245.008324 -27.415228 
L 245.292463 -27.415228 
L 245.292463 -27.459796 
L 245.292463 -27.459796 
L 245.008324 -27.49328 
L 244.724184 -27.548106 
L 244.440044 -27.635173 
L 244.155905 -27.769278 
L 243.871765 -27.969611 
L 243.587625 -28.259869 
L 243.303485 -28.667756 
L 243.019346 -29.223683 
L 242.735206 -29.958565 
L 242.451066 -30.900762 
L 242.166926 -32.072393 
L 241.882787 -33.485468 
L 241.598647 -35.138442 
L 241.314507 -37.013846 
L 241.030367 -39.077575 
L 240.746228 -41.280203 
L 240.462088 -43.560345 
L 240.177948 -45.849717 
L 239.893809 -48.079209 
L 239.609669 -50.185077 
L 239.325529 -52.114342 
L 239.041389 -53.828643 
L 238.75725 -55.306095 
L 238.47311 -56.541089 
L 238.18897 -57.542321 
L 237.90483 -58.329569 
L 237.620691 -58.929894 
L 237.336551 -59.373861 
L 237.052411 -59.692285 
L 236.768272 -59.913784 
L 236.484132 -60.063236 
L 236.199992 -60.161069 
L 235.915852 -60.223223 
L 235.631713 -60.261554 
L 235.347573 -60.284504 
L 235.063433 -60.297829 
L 234.779293 -60.305311 
L 234.495154 -60.309345 
L 234.211014 -60.311411 
L 233.926874 -60.3124 
L 233.642734 -60.312844 
L 233.358595 -60.313047 
L 233.074455 -60.313173 
L 232.790315 -60.313295 
L 232.506176 -60.313423 
L 232.222036 -60.313538 
L 231.937896 -60.31361 
L 231.653756 -60.313618 
L 231.369617 -60.313561 
L 231.085477 -60.313461 
L 230.801337 -60.313354 
L 230.517197 -60.313279 
L 230.233058 -60.313263 
L 229.948918 -60.313312 
L 229.664778 -60.313408 
L 229.380639 -60.313517 
L 229.096499 -60.313599 
L 228.812359 -60.313625 
L 228.528219 -60.313585 
L 228.24408 -60.313494 
L 227.95994 -60.313384 
L 227.6758 -60.313296 
L 227.39166 -60.313261 
L 227.107521 -60.313291 
L 226.823381 -60.313376 
L 226.539241 -60.313486 
L 226.255101 -60.313579 
L 225.970962 -60.313624 
L 225.686822 -60.313603 
L 225.402682 -60.313524 
L 225.118543 -60.313416 
L 224.834403 -60.313318 
L 224.550263 -60.313264 
L 224.266123 -60.313275 
L 223.981984 -60.313347 
L 223.697844 -60.313453 
L 223.413704 -60.313556 
L 223.129564 -60.313617 
L 222.845425 -60.313616 
L 222.561285 -60.313552 
L 222.277145 -60.313449 
L 221.993006 -60.313343 
L 221.708866 -60.313274 
L 221.424726 -60.313265 
L 221.140586 -60.313321 
L 220.856447 -60.31342 
L 220.572307 -60.313528 
L 220.288167 -60.313605 
L 220.004027 -60.313623 
L 219.719888 -60.313577 
L 219.435748 -60.313481 
L 219.151608 -60.313372 
L 218.867469 -60.313289 
L 218.583329 -60.313261 
L 218.299189 -60.313298 
L 218.015049 -60.313388 
L 217.73091 -60.313498 
L 217.44677 -60.313587 
L 217.16263 -60.313625 
L 216.87849 -60.313597 
L 216.594351 -60.313513 
L 216.310211 -60.313404 
L 216.026071 -60.313309 
L 215.741931 -60.313262 
L 215.457792 -60.313281 
L 215.173652 -60.313358 
L 214.889512 -60.313466 
L 214.605373 -60.313565 
L 214.321233 -60.31362 
L 214.037093 -60.313612 
L 213.752953 -60.313542 
L 213.468814 -60.313436 
L 213.184674 -60.313333 
L 212.900534 -60.313269 
L 212.616394 -60.313268 
L 212.332255 -60.31333 
L 212.048115 -60.313433 
L 211.763975 -60.313539 
L 211.479836 -60.31361 
L 211.195696 -60.313621 
L 210.911556 -60.313568 
L 210.627416 -60.313469 
L 210.343277 -60.313361 
L 210.059137 -60.313282 
L 209.774997 -60.313262 
L 209.490857 -60.313306 
L 209.206718 -60.3134 
L 208.922578 -60.313509 
L 208.638438 -60.313595 
L 208.354298 -60.313625 
L 208.070159 -60.31359 
L 207.786019 -60.313501 
L 207.501879 -60.313392 
L 207.21774 -60.313301 
L 206.9336 -60.313261 
L 206.64946 -60.313287 
L 206.36532 -60.313369 
L 206.081181 -60.313478 
L 205.797041 -60.313574 
L 205.512901 -60.313623 
L 205.228761 -60.313607 
L 204.944622 -60.313531 
L 204.660482 -60.313424 
L 204.376342 -60.313323 
L 204.092203 -60.313266 
L 203.808063 -60.313272 
L 203.523923 -60.31334 
L 203.239783 -60.313445 
L 202.955644 -60.313549 
L 202.671504 -60.313614 
L 202.387364 -60.313617 
L 202.103224 -60.313556 
L 201.819085 -60.31345 
L 201.534945 -60.313333 
L 201.250805 -60.313235 
L 200.966665 -60.313166 
L 200.682526 -60.313094 
L 200.398386 -60.312929 
L 200.114246 -60.312494 
L 199.830107 -60.311479 
L 199.545967 -60.309364 
L 199.261827 -60.305277 
L 198.977687 -60.297759 
L 198.693548 -60.284431 
L 198.409408 -60.261519 
L 198.125268 -60.22326 
L 197.841128 -60.161204 
L 197.556989 -60.063478 
L 197.272849 -59.914137 
L 196.988709 -59.692756 
L 196.70457 -59.374475 
L 196.42043 -58.930704 
L 196.13629 -58.330657 
L 195.85215 -57.54379 
L 195.568011 -56.543049 
L 195.283871 -55.308634 
L 194.999731 -53.831813 
L 194.715591 -52.118136 
L 194.431452 -50.189423 
L 194.147312 -48.083976 
L 193.863172 -45.85473 
L 193.579032 -43.565404 
L 193.294893 -41.28511 
L 193.010753 -39.082157 
L 192.726613 -37.017969 
L 192.442474 -35.142022 
L 192.158334 -33.48847 
L 191.874194 -32.074827 
L 191.590054 -30.902671 
L 191.305915 -29.960015 
L 191.021775 -29.22475 
L 190.737635 -28.668518 
L 190.453495 -28.260396 
L 190.169356 -27.969965 
L 189.885216 -27.769508 
L 189.601076 -27.635319 
L 189.316937 -27.548196 
L 189.032797 -27.493334 
L 188.748657 -27.459827 
z
" style="stroke: #a16207; stroke-width: 0.75"/>
    </defs>
    <g clip-path="url(#pefdb4879c8)">
     <use xlink:href="#m459e8f1ec6" x="0" y="184.251969" style="fill: #a16207; fill-opacity: 0.25; stroke: #a16207; stroke-width: 0.75"/>
    </g>
   </g>
   <g id="patch_3">
    <path d="M 26.630226 156.83674 
L 26.630226 5.954849 
" style="fill: none; stroke: #000000; stroke-width: 0.3; stroke-linejoin: miter; stroke-linecap: square"/>
   </g>
   <g id="patch_4">
    <path d="M 26.630226 156.83674 
L 332.812959 156.83674 
" style="fill: none; stroke: #000000; stroke-width: 0.3; stroke-linejoin: miter; stroke-linecap: square"/>
   </g>
   <g id="matplotlib.axis_1">
    <g id="xtick_1">
     <g id="line2d_1">
      <defs>
       <path id="mee1db9cfc4" d="M 0 0 
L 0 2 
" style="stroke: #000000; stroke-width: 0.3"/>
      </defs>
      <g>
       <use xlink:href="#mee1db9cfc4" x="26.630226" y="156.83674" style="stroke: #000000; stroke-width: 0.3"/>
      </g>
     </g>
     <g id="text_1">
      <!-- 0 -->
      <g transform="translate(24.829015 165.71174) scale(0.065 -0.065)">
       <defs>
        <path id="Roboto-Light-30" d="M 3172 1897 
Q 3172 934 2819 435 
Q 2466 -63 1778 -63 
Q 1103 -63 743 426 
Q 384 916 375 1850 
L 375 2666 
Q 375 3625 731 4119 
Q 1088 4613 1772 4613 
Q 2447 4613 2803 4136 
Q 3159 3659 3172 2731 
L 3172 1897 
z
M 2797 2713 
Q 2797 3494 2542 3894 
Q 2288 4294 1772 4294 
Q 1266 4294 1009 3903 
Q 753 3513 747 2750 
L 747 1856 
Q 747 1078 1011 665 
Q 1275 253 1778 253 
Q 2278 253 2536 656 
Q 2794 1059 2797 1838 
L 2797 2713 
z
" transform="scale(0.015625)"/>
       </defs>
       <use xlink:href="#Roboto-Light-30"/>
      </g>
     </g>
    </g>
    <g id="xtick_2">
     <g id="line2d_2">
      <g>
       <use xlink:href="#mee1db9cfc4" x="47.042408" y="156.83674" style="stroke: #000000; stroke-width: 0.3"/>
      </g>
     </g>
     <g id="text_2">
      <!-- 4 -->
      <g transform="translate(45.241197 165.71174) scale(0.065 -0.065)">
       <defs>
        <path id="Roboto-Light-34" d="M 2725 1466 
L 3434 1466 
L 3434 1150 
L 2725 1150 
L 2725 0 
L 2350 0 
L 2350 1150 
L 209 1150 
L 209 1363 
L 2316 4550 
L 2725 4550 
L 2725 1466 
z
M 669 1466 
L 2350 1466 
L 2350 4066 
L 2184 3778 
L 669 1466 
z
" transform="scale(0.015625)"/>
       </defs>
       <use xlink:href="#Roboto-Light-34"/>
      </g>
     </g>
    </g>
    <g id="xtick_3">
     <g id="line2d_3">
      <g>
       <use xlink:href="#mee1db9cfc4" x="67.45459" y="156.83674" style="stroke: #000000; stroke-width: 0.3"/>
      </g>
     </g>
     <g id="text_3">
      <!-- 8 -->
      <g transform="translate(65.653379 165.71174) scale(0.065 -0.065)">
       <defs>
        <path id="Roboto-Light-38" d="M 3109 3378 
Q 3109 3025 2903 2745 
Q 2697 2466 2359 2334 
Q 2753 2200 2990 1900 
Q 3228 1600 3228 1206 
Q 3228 622 2831 279 
Q 2434 -63 1781 -63 
Q 1122 -63 726 278 
Q 331 619 331 1206 
Q 331 1594 559 1897 
Q 788 2200 1184 2334 
Q 847 2466 647 2745 
Q 447 3025 447 3378 
Q 447 3944 811 4278 
Q 1175 4613 1775 4613 
Q 2375 4613 2742 4275 
Q 3109 3938 3109 3378 
z
M 2853 1203 
Q 2853 1628 2550 1901 
Q 2247 2175 1775 2175 
Q 1303 2175 1003 1906 
Q 703 1638 703 1203 
Q 703 769 993 511 
Q 1284 253 1781 253 
Q 2266 253 2559 509 
Q 2853 766 2853 1203 
z
M 2734 3381 
Q 2734 3772 2464 4033 
Q 2194 4294 1775 4294 
Q 1350 4294 1086 4042 
Q 822 3791 822 3381 
Q 822 2981 1086 2737 
Q 1350 2494 1778 2494 
Q 2200 2494 2467 2739 
Q 2734 2984 2734 3381 
z
" transform="scale(0.015625)"/>
       </defs>
       <use xlink:href="#Roboto-Light-38"/>
      </g>
     </g>
    </g>
    <g id="xtick_4">
     <g id="line2d_4">
      <g>
       <use xlink:href="#mee1db9cfc4" x="87.866773" y="156.83674" style="stroke: #000000; stroke-width: 0.3"/>
      </g>
     </g>
     <g id="text_4">
      <!-- 12 -->
      <g transform="translate(84.264351 165.71174) scale(0.065 -0.065)">
       <defs>
        <path id="Roboto-Light-31" d="M 2169 0 
L 1794 0 
L 1794 4100 
L 556 3641 
L 556 3991 
L 2106 4566 
L 2169 4566 
L 2169 0 
z
" transform="scale(0.015625)"/>
        <path id="Roboto-Light-32" d="M 3278 0 
L 428 0 
L 428 288 
L 1988 2056 
Q 2375 2503 2525 2793 
Q 2675 3084 2675 3359 
Q 2675 3791 2422 4042 
Q 2169 4294 1725 4294 
Q 1266 4294 983 4000 
Q 700 3706 700 3238 
L 328 3238 
Q 328 3622 501 3937 
Q 675 4253 995 4433 
Q 1316 4613 1725 4613 
Q 2350 4613 2701 4284 
Q 3053 3956 3053 3391 
Q 3053 3072 2854 2694 
Q 2656 2316 2156 1750 
L 888 316 
L 3278 316 
L 3278 0 
z
" transform="scale(0.015625)"/>
       </defs>
       <use xlink:href="#Roboto-Light-31"/>
       <use xlink:href="#Roboto-Light-32" transform="translate(55.419922 0)"/>
      </g>
     </g>
    </g>
    <g id="xtick_5">
     <g id="line2d_5">
      <g>
       <use xlink:href="#mee1db9cfc4" x="108.278955" y="156.83674" style="stroke: #000000; stroke-width: 0.3"/>
      </g>
     </g>
     <g id="text_5">
      <!-- 16 -->
      <g transform="translate(104.676533 165.71174) scale(0.065 -0.065)">
       <defs>
        <path id="Roboto-Light-36" d="M 2634 4584 
L 2634 4256 
L 2591 4256 
Q 1775 4256 1306 3776 
Q 838 3297 788 2444 
Q 975 2703 1265 2845 
Q 1556 2988 1916 2988 
Q 2516 2988 2870 2573 
Q 3225 2159 3225 1491 
Q 3225 1047 3059 690 
Q 2894 334 2584 135 
Q 2275 -63 1878 -63 
Q 1225 -63 815 410 
Q 406 884 406 1634 
L 406 2009 
Q 406 3231 962 3901 
Q 1519 4572 2541 4584 
L 2634 4584 
z
M 1856 2666 
Q 1500 2666 1192 2455 
Q 884 2244 781 1919 
L 781 1600 
Q 781 1006 1086 631 
Q 1391 256 1878 256 
Q 2316 256 2586 603 
Q 2856 950 2856 1478 
Q 2856 2016 2586 2341 
Q 2316 2666 1856 2666 
z
" transform="scale(0.015625)"/>
       </defs>
       <use xlink:href="#Roboto-Light-31"/>
       <use xlink:href="#Roboto-Light-36" transform="translate(55.419922 0)"/>
      </g>
     </g>
    </g>
    <g id="xtick_6">
     <g id="line2d_6">
      <g>
       <use xlink:href="#mee1db9cfc4" x="128.691137" y="156.83674" style="stroke: #000000; stroke-width: 0.3"/>
      </g>
     </g>
     <g id="text_6">
      <!-- 20 -->
      <g transform="translate(125.088715 165.71174) scale(0.065 -0.065)">
       <use xlink:href="#Roboto-Light-32"/>
       <use xlink:href="#Roboto-Light-30" transform="translate(55.419922 0)"/>
      </g>
     </g>
    </g>
    <g id="xtick_7">
     <g id="line2d_7">
      <g>
       <use xlink:href="#mee1db9cfc4" x="149.103319" y="156.83674" style="stroke: #000000; stroke-width: 0.3"/>
      </g>
     </g>
     <g id="text_7">
      <!-- 24 -->
      <g transform="translate(145.500897 165.71174) scale(0.065 -0.065)">
       <use xlink:href="#Roboto-Light-32"/>
       <use xlink:href="#Roboto-Light-34" transform="translate(55.419922 0)"/>
      </g>
     </g>
    </g>
    <g id="xtick_8">
     <g id="line2d_8">
      <g>
       <use xlink:href="#mee1db9cfc4" x="169.515501" y="156.83674" style="stroke: #000000; stroke-width: 0.3"/>
      </g>
     </g>
     <g id="text_8">
      <!-- 28 -->
      <g transform="translate(165.91308 165.71174) scale(0.065 -0.065)">
       <use xlink:href="#Roboto-Light-32"/>
       <use xlink:href="#Roboto-Light-38" transform="translate(55.419922 0)"/>
      </g>
     </g>
    </g>
    <g id="xtick_9">
     <g id="line2d_9">
      <g>
       <use xlink:href="#mee1db9cfc4" x="189.927684" y="156.83674" style="stroke: #000000; stroke-width: 0.3"/>
      </g>
     </g>
     <g id="text_9">
      <!-- 32 -->
      <g transform="translate(186.325262 165.71174) scale(0.065 -0.065)">
       <defs>
        <path id="Roboto-Light-33" d="M 1259 2478 
L 1647 2478 
Q 1969 2478 2209 2592 
Q 2450 2706 2576 2904 
Q 2703 3103 2703 3363 
Q 2703 3800 2456 4047 
Q 2209 4294 1747 4294 
Q 1309 4294 1029 4036 
Q 750 3778 750 3356 
L 375 3356 
Q 375 3709 553 4001 
Q 731 4294 1047 4453 
Q 1363 4613 1747 4613 
Q 2366 4613 2722 4275 
Q 3078 3938 3078 3350 
Q 3078 3022 2870 2745 
Q 2663 2469 2300 2331 
Q 2725 2213 2944 1923 
Q 3163 1634 3163 1234 
Q 3163 650 2781 293 
Q 2400 -63 1763 -63 
Q 1356 -63 1017 100 
Q 678 263 492 555 
Q 306 847 306 1234 
L 681 1234 
Q 681 800 984 526 
Q 1288 253 1763 253 
Q 2247 253 2517 501 
Q 2788 750 2788 1222 
Q 2788 1678 2495 1918 
Q 2203 2159 1634 2159 
L 1259 2159 
L 1259 2478 
z
" transform="scale(0.015625)"/>
       </defs>
       <use xlink:href="#Roboto-Light-33"/>
       <use xlink:href="#Roboto-Light-32" transform="translate(55.419922 0)"/>
      </g>
     </g>
    </g>
    <g id="xtick_10">
     <g id="line2d_10">
      <g>
       <use xlink:href="#mee1db9cfc4" x="210.339866" y="156.83674" style="stroke: #000000; stroke-width: 0.3"/>
      </g>
     </g>
     <g id="text_10">
      <!-- 36 -->
      <g transform="translate(206.737444 165.71174) scale(0.065 -0.065)">
       <use xlink:href="#Roboto-Light-33"/>
       <use xlink:href="#Roboto-Light-36" transform="translate(55.419922 0)"/>
      </g>
     </g>
    </g>
    <g id="xtick_11">
     <g id="line2d_11">
      <g>
       <use xlink:href="#mee1db9cfc4" x="230.752048" y="156.83674" style="stroke: #000000; stroke-width: 0.3"/>
      </g>
     </g>
     <g id="text_11">
      <!-- 40 -->
      <g transform="translate(227.149626 165.71174) scale(0.065 -0.065)">
       <use xlink:href="#Roboto-Light-34"/>
       <use xlink:href="#Roboto-Light-30" transform="translate(55.419922 0)"/>
      </g>
     </g>
    </g>
    <g id="xtick_12">
     <g id="line2d_12">
      <g>
       <use xlink:href="#mee1db9cfc4" x="251.16423" y="156.83674" style="stroke: #000000; stroke-width: 0.3"/>
      </g>
     </g>
     <g id="text_12">
      <!-- 44 -->
      <g transform="translate(247.561809 165.71174) scale(0.065 -0.065)">
       <use xlink:href="#Roboto-Light-34"/>
       <use xlink:href="#Roboto-Light-34" transform="translate(55.419922 0)"/>
      </g>
     </g>
    </g>
    <g id="xtick_13">
     <g id="line2d_13">
      <g>
       <use xlink:href="#mee1db9cfc4" x="271.576413" y="156.83674" style="stroke: #000000; stroke-width: 0.3"/>
      </g>
     </g>
     <g id="text_13">
      <!-- 48 -->
      <g transform="translate(267.973991 165.71174) scale(0.065 -0.065)">
       <use xlink:href="#Roboto-Light-34"/>
       <use xlink:href="#Roboto-Light-38" transform="translate(55.419922 0)"/>
      </g>
     </g>
    </g>
    <g id="xtick_14">
     <g id="line2d_14">
      <g>
       <use xlink:href="#mee1db9cfc4" x="291.988595" y="156.83674" style="stroke: #000000; stroke-width: 0.3"/>
      </g>
     </g>
     <g id="text_14">
      <!-- 52 -->
      <g transform="translate(288.386173 165.71174) scale(0.065 -0.065)">
       <defs>
        <path id="Roboto-Light-35" d="M 681 2331 
L 903 4550 
L 3178 4550 
L 3178 4203 
L 1225 4203 
L 1066 2666 
Q 1431 2916 1922 2916 
Q 2538 2916 2903 2516 
Q 3269 2116 3269 1450 
Q 3269 731 2912 334 
Q 2556 -63 1909 -63 
Q 1316 -63 947 268 
Q 578 600 525 1197 
L 884 1197 
Q 938 731 1200 492 
Q 1463 253 1909 253 
Q 2397 253 2645 562 
Q 2894 872 2894 1444 
Q 2894 1944 2616 2259 
Q 2338 2575 1856 2575 
Q 1591 2575 1394 2508 
Q 1197 2441 978 2247 
L 681 2331 
z
" transform="scale(0.015625)"/>
       </defs>
       <use xlink:href="#Roboto-Light-35"/>
       <use xlink:href="#Roboto-Light-32" transform="translate(55.419922 0)"/>
      </g>
     </g>
    </g>
    <g id="xtick_15">
     <g id="line2d_15">
      <g>
       <use xlink:href="#mee1db9cfc4" x="312.400777" y="156.83674" style="stroke: #000000; stroke-width: 0.3"/>
      </g>
     </g>
     <g id="text_15">
      <!-- 56 -->
      <g transform="translate(308.798355 165.71174) scale(0.065 -0.065)">
       <use xlink:href="#Roboto-Light-35"/>
       <use xlink:href="#Roboto-Light-36" transform="translate(55.419922 0)"/>
      </g>
     </g>
    </g>
    <g id="xtick_16">
     <g id="line2d_16">
      <g>
       <use xlink:href="#mee1db9cfc4" x="332.812959" y="156.83674" style="stroke: #000000; stroke-width: 0.3"/>
      </g>
     </g>
     <g id="text_16">
      <!-- 60 -->
      <g transform="translate(329.210537 165.71174) scale(0.065 -0.065)">
       <use xlink:href="#Roboto-Light-36"/>
       <use xlink:href="#Roboto-Light-30" transform="translate(55.419922 0)"/>
      </g>
     </g>
    </g>
    <g id="text_17">
     <!-- Exergy efficiency [%] -->
     <g transform="translate(146.568663 177.125803) scale(0.075 -0.075)">
      <defs>
       <path id="Roboto-Light-45" d="M 3088 2181 
L 959 2181 
L 959 325 
L 3406 325 
L 3406 0 
L 575 0 
L 575 4550 
L 3391 4550 
L 3391 4222 
L 959 4222 
L 959 2506 
L 3088 2506 
L 3088 2181 
z
" transform="scale(0.015625)"/>
       <path id="Roboto-Light-78" d="M 1550 2009 
L 2463 3381 
L 2906 3381 
L 1759 1722 
L 2956 0 
L 2516 0 
L 1553 1431 
L 591 0 
L 150 0 
L 1344 1722 
L 197 3381 
L 638 3381 
L 1550 2009 
z
" transform="scale(0.015625)"/>
       <path id="Roboto-Light-65" d="M 1797 -63 
Q 1366 -63 1017 150 
Q 669 363 475 742 
Q 281 1122 281 1594 
L 281 1728 
Q 281 2216 470 2606 
Q 659 2997 996 3220 
Q 1334 3444 1728 3444 
Q 2344 3444 2705 3023 
Q 3066 2603 3066 1875 
L 3066 1666 
L 653 1666 
L 653 1594 
Q 653 1019 983 636 
Q 1313 253 1813 253 
Q 2113 253 2342 362 
Q 2572 472 2759 713 
L 2994 534 
Q 2581 -63 1797 -63 
z
M 1728 3125 
Q 1306 3125 1017 2815 
Q 728 2506 666 1984 
L 2694 1984 
L 2694 2025 
Q 2678 2513 2415 2819 
Q 2153 3125 1728 3125 
z
" transform="scale(0.015625)"/>
       <path id="Roboto-Light-72" d="M 2050 3063 
Q 1931 3084 1797 3084 
Q 1447 3084 1205 2889 
Q 963 2694 859 2322 
L 859 0 
L 488 0 
L 488 3381 
L 853 3381 
L 859 2844 
Q 1156 3444 1813 3444 
Q 1969 3444 2059 3403 
L 2050 3063 
z
" transform="scale(0.015625)"/>
       <path id="Roboto-Light-67" d="M 338 1722 
Q 338 2516 689 2980 
Q 1041 3444 1644 3444 
Q 2334 3444 2694 2894 
L 2713 3381 
L 3063 3381 
L 3063 69 
Q 3063 -584 2697 -965 
Q 2331 -1347 1706 -1347 
Q 1353 -1347 1033 -1189 
Q 713 -1031 528 -769 
L 738 -544 
Q 1134 -1031 1681 -1031 
Q 2150 -1031 2412 -754 
Q 2675 -478 2684 13 
L 2684 438 
Q 2325 -63 1638 -63 
Q 1050 -63 694 406 
Q 338 875 338 1672 
L 338 1722 
z
M 716 1656 
Q 716 1009 975 636 
Q 1234 263 1706 263 
Q 2397 263 2684 881 
L 2684 2453 
Q 2553 2778 2306 2948 
Q 2059 3119 1713 3119 
Q 1241 3119 978 2748 
Q 716 2378 716 1656 
z
" transform="scale(0.015625)"/>
       <path id="Roboto-Light-79" d="M 1559 538 
L 2547 3381 
L 2950 3381 
L 1506 -575 
L 1431 -750 
Q 1153 -1366 572 -1366 
Q 438 -1366 284 -1322 
L 281 -1013 
L 475 -1031 
Q 750 -1031 920 -895 
Q 1091 -759 1209 -428 
L 1375 28 
L 100 3381 
L 509 3381 
L 1559 538 
z
" transform="scale(0.015625)"/>
       <path id="Roboto-Light-20" transform="scale(0.015625)"/>
       <path id="Roboto-Light-66" d="M 756 0 
L 756 3075 
L 197 3075 
L 197 3381 
L 756 3381 
L 756 3791 
Q 756 4309 1020 4587 
Q 1284 4866 1756 4866 
Q 1969 4866 2153 4813 
L 2125 4500 
Q 1969 4538 1784 4538 
Q 1475 4538 1303 4345 
Q 1131 4153 1131 3800 
L 1131 3381 
L 1938 3381 
L 1938 3075 
L 1131 3075 
L 1131 0 
L 756 0 
z
" transform="scale(0.015625)"/>
       <path id="Roboto-Light-69" d="M 906 0 
L 531 0 
L 531 3381 
L 906 3381 
L 906 0 
z
M 466 4359 
Q 466 4466 534 4539 
Q 603 4613 722 4613 
Q 841 4613 911 4539 
Q 981 4466 981 4359 
Q 981 4253 911 4181 
Q 841 4109 722 4109 
Q 603 4109 534 4181 
Q 466 4253 466 4359 
z
" transform="scale(0.015625)"/>
       <path id="Roboto-Light-63" d="M 1738 253 
Q 2128 253 2392 473 
Q 2656 694 2678 1044 
L 3038 1044 
Q 3022 734 2844 479 
Q 2666 225 2370 81 
Q 2075 -63 1738 -63 
Q 1072 -63 683 400 
Q 294 863 294 1644 
L 294 1756 
Q 294 2256 469 2640 
Q 644 3025 970 3234 
Q 1297 3444 1734 3444 
Q 2291 3444 2652 3112 
Q 3013 2781 3038 2241 
L 2678 2241 
Q 2653 2638 2392 2881 
Q 2131 3125 1734 3125 
Q 1228 3125 948 2759 
Q 669 2394 669 1734 
L 669 1625 
Q 669 978 948 615 
Q 1228 253 1738 253 
z
" transform="scale(0.015625)"/>
       <path id="Roboto-Light-6e" d="M 844 3381 
L 856 2803 
Q 1047 3116 1331 3280 
Q 1616 3444 1959 3444 
Q 2503 3444 2768 3137 
Q 3034 2831 3038 2219 
L 3038 0 
L 2666 0 
L 2666 2222 
Q 2663 2675 2473 2897 
Q 2284 3119 1869 3119 
Q 1522 3119 1255 2901 
Q 988 2684 859 2316 
L 859 0 
L 488 0 
L 488 3381 
L 844 3381 
z
" transform="scale(0.015625)"/>
       <path id="Roboto-Light-5b" d="M 1541 4881 
L 884 4881 
L 884 -656 
L 1541 -656 
L 1541 -975 
L 509 -975 
L 509 5200 
L 1541 5200 
L 1541 4881 
z
" transform="scale(0.015625)"/>
       <path id="Roboto-Light-25" d="M 341 3675 
Q 341 4081 592 4348 
Q 844 4616 1231 4616 
Q 1619 4616 1870 4348 
Q 2122 4081 2122 3656 
L 2122 3434 
Q 2122 3034 1873 2767 
Q 1625 2500 1238 2500 
Q 853 2500 597 2762 
Q 341 3025 341 3456 
L 341 3675 
z
M 644 3434 
Q 644 3144 805 2956 
Q 966 2769 1238 2769 
Q 1503 2769 1661 2958 
Q 1819 3147 1819 3447 
L 1819 3675 
Q 1819 3966 1656 4155 
Q 1494 4344 1231 4344 
Q 972 4344 808 4156 
Q 644 3969 644 3656 
L 644 3434 
z
M 2631 1116 
Q 2631 1522 2882 1787 
Q 3134 2053 3518 2053 
Q 3903 2053 4158 1789 
Q 4413 1525 4413 1094 
L 4413 872 
Q 4413 466 4161 200 
Q 3909 -66 3525 -66 
Q 3141 -66 2886 198 
Q 2631 463 2631 888 
L 2631 1116 
z
M 2931 872 
Q 2931 578 3092 390 
Q 3253 203 3525 203 
Q 3794 203 3951 392 
Q 4109 581 4109 888 
L 4109 1116 
Q 4109 1416 3948 1598 
Q 3788 1781 3519 1781 
Q 3256 1781 3093 1597 
Q 2931 1413 2931 1103 
L 2931 872 
z
M 1356 378 
L 1122 528 
L 3344 4084 
L 3578 3934 
L 1356 378 
z
" transform="scale(0.015625)"/>
       <path id="Roboto-Light-5d" d="M 0 5200 
L 1034 5200 
L 1034 -975 
L 0 -975 
L 0 -656 
L 659 -656 
L 659 4881 
L 0 4881 
L 0 5200 
z
" transform="scale(0.015625)"/>
      </defs>
      <use xlink:href="#Roboto-Light-45"/>
      <use xlink:href="#Roboto-Light-78" transform="translate(56.884766 0)"/>
      <use xlink:href="#Roboto-Light-65" transform="translate(105.517578 0)"/>
      <use xlink:href="#Roboto-Light-72" transform="translate(157.177734 0)"/>
      <use xlink:href="#Roboto-Light-67" transform="translate(190.820312 0)"/>
      <use xlink:href="#Roboto-Light-79" transform="translate(246.289062 0)"/>
      <use xlink:href="#Roboto-Light-20" transform="translate(293.798828 0)"/>
      <use xlink:href="#Roboto-Light-65" transform="translate(318.115234 0)"/>
      <use xlink:href="#Roboto-Light-66" transform="translate(369.775391 0)"/>
      <use xlink:href="#Roboto-Light-66" transform="translate(402.880859 0)"/>
      <use xlink:href="#Roboto-Light-69" transform="translate(435.986328 0)"/>
      <use xlink:href="#Roboto-Light-63" transform="translate(458.398438 0)"/>
      <use xlink:href="#Roboto-Light-69" transform="translate(509.912109 0)"/>
      <use xlink:href="#Roboto-Light-65" transform="translate(532.324219 0)"/>
      <use xlink:href="#Roboto-Light-6e" transform="translate(583.984375 0)"/>
      <use xlink:href="#Roboto-Light-63" transform="translate(638.916016 0)"/>
      <use xlink:href="#Roboto-Light-79" transform="translate(690.429688 0)"/>
      <use xlink:href="#Roboto-Light-20" transform="translate(737.939453 0)"/>
      <use xlink:href="#Roboto-Light-5b" transform="translate(762.255859 0)"/>
      <use xlink:href="#Roboto-Light-25" transform="translate(786.230469 0)"/>
      <use xlink:href="#Roboto-Light-5d" transform="translate(860.107422 0)"/>
     </g>
    </g>
   </g>
   <g id="matplotlib.axis_2">
    <g id="ytick_1">
     <g id="line2d_17">
      <defs>
       <path id="m77a155392b" d="M 0 0 
L -2 0 
" style="stroke: #000000; stroke-width: 0.3"/>
      </defs>
      <g>
       <use xlink:href="#m77a155392b" x="26.630226" y="156.83674" style="stroke: #000000; stroke-width: 0.3"/>
      </g>
     </g>
     <g id="text_18">
      <!-- 0.0 -->
      <g transform="translate(14.873507 159.27424) scale(0.065 -0.065)">
       <defs>
        <path id="Roboto-Light-2e" d="M 453 225 
Q 453 334 523 411 
Q 594 488 719 488 
Q 844 488 916 411 
Q 988 334 988 225 
Q 988 116 916 45 
Q 844 -25 719 -25 
Q 594 -25 523 45 
Q 453 116 453 225 
z
" transform="scale(0.015625)"/>
       </defs>
       <use xlink:href="#Roboto-Light-30"/>
       <use xlink:href="#Roboto-Light-2e" transform="translate(55.419922 0)"/>
       <use xlink:href="#Roboto-Light-30" transform="translate(79.296875 0)"/>
      </g>
     </g>
    </g>
    <g id="ytick_2">
     <g id="line2d_18">
      <g>
       <use xlink:href="#m77a155392b" x="26.630226" y="126.660362" style="stroke: #000000; stroke-width: 0.3"/>
      </g>
     </g>
     <g id="text_19">
      <!-- 0.1 -->
      <g transform="translate(14.873507 129.097862) scale(0.065 -0.065)">
       <use xlink:href="#Roboto-Light-30"/>
       <use xlink:href="#Roboto-Light-2e" transform="translate(55.419922 0)"/>
       <use xlink:href="#Roboto-Light-31" transform="translate(79.296875 0)"/>
      </g>
     </g>
    </g>
    <g id="ytick_3">
     <g id="line2d_19">
      <g>
       <use xlink:href="#m77a155392b" x="26.630226" y="96.483984" style="stroke: #000000; stroke-width: 0.3"/>
      </g>
     </g>
     <g id="text_20">
      <!-- 0.2 -->
      <g transform="translate(14.873507 98.921484) scale(0.065 -0.065)">
       <use xlink:href="#Roboto-Light-30"/>
       <use xlink:href="#Roboto-Light-2e" transform="translate(55.419922 0)"/>
       <use xlink:href="#Roboto-Light-32" transform="translate(79.296875 0)"/>
      </g>
     </g>
    </g>
    <g id="ytick_4">
     <g id="line2d_20">
      <g>
       <use xlink:href="#m77a155392b" x="26.630226" y="66.307606" style="stroke: #000000; stroke-width: 0.3"/>
      </g>
     </g>
     <g id="text_21">
      <!-- 0.3 -->
      <g transform="translate(14.873507 68.745106) scale(0.065 -0.065)">
       <use xlink:href="#Roboto-Light-30"/>
       <use xlink:href="#Roboto-Light-2e" transform="translate(55.419922 0)"/>
       <use xlink:href="#Roboto-Light-33" transform="translate(79.296875 0)"/>
      </g>
     </g>
    </g>
    <g id="ytick_5">
     <g id="line2d_21">
      <g>
       <use xlink:href="#m77a155392b" x="26.630226" y="36.131228" style="stroke: #000000; stroke-width: 0.3"/>
      </g>
     </g>
     <g id="text_22">
      <!-- 0.4 -->
      <g transform="translate(14.873507 38.568728) scale(0.065 -0.065)">
       <use xlink:href="#Roboto-Light-30"/>
       <use xlink:href="#Roboto-Light-2e" transform="translate(55.419922 0)"/>
       <use xlink:href="#Roboto-Light-34" transform="translate(79.296875 0)"/>
      </g>
     </g>
    </g>
    <g id="ytick_6">
     <g id="line2d_22">
      <g>
       <use xlink:href="#m77a155392b" x="26.630226" y="5.954849" style="stroke: #000000; stroke-width: 0.3"/>
      </g>
     </g>
     <g id="text_23">
      <!-- 0.5 -->
      <g transform="translate(14.873507 8.392349) scale(0.065 -0.065)">
       <use xlink:href="#Roboto-Light-30"/>
       <use xlink:href="#Roboto-Light-2e" transform="translate(55.419922 0)"/>
       <use xlink:href="#Roboto-Light-35" transform="translate(79.296875 0)"/>
      </g>
     </g>
    </g>
    <g id="text_24">
     <!-- Probability density -->
     <g transform="translate(9.272726 111.457318) rotate(-90) scale(0.075 -0.075)">
      <defs>
       <path id="Roboto-Light-50" d="M 959 1853 
L 959 0 
L 575 0 
L 575 4550 
L 2125 4550 
Q 2834 4550 3245 4187 
Q 3656 3825 3656 3191 
Q 3656 2550 3261 2201 
Q 2866 1853 2116 1853 
L 959 1853 
z
M 959 2178 
L 2125 2178 
Q 2684 2178 2978 2443 
Q 3272 2709 3272 3184 
Q 3272 3656 2980 3936 
Q 2688 4216 2150 4222 
L 959 4222 
L 959 2178 
z
" transform="scale(0.015625)"/>
       <path id="Roboto-Light-6f" d="M 281 1741 
Q 281 2228 470 2618 
Q 659 3009 1004 3226 
Q 1350 3444 1788 3444 
Q 2463 3444 2881 2970 
Q 3300 2497 3300 1716 
L 3300 1638 
Q 3300 1147 3111 755 
Q 2922 363 2578 150 
Q 2234 -63 1794 -63 
Q 1122 -63 701 410 
Q 281 884 281 1666 
L 281 1741 
z
M 656 1638 
Q 656 1031 970 642 
Q 1284 253 1794 253 
Q 2300 253 2614 642 
Q 2928 1031 2928 1669 
L 2928 1741 
Q 2928 2128 2784 2450 
Q 2641 2772 2381 2948 
Q 2122 3125 1788 3125 
Q 1288 3125 972 2733 
Q 656 2341 656 1706 
L 656 1638 
z
" transform="scale(0.015625)"/>
       <path id="Roboto-Light-62" d="M 3209 1656 
Q 3209 866 2859 401 
Q 2509 -63 1919 -63 
Q 1213 -63 850 463 
L 834 0 
L 484 0 
L 484 4800 
L 856 4800 
L 856 2891 
Q 1213 3444 1913 3444 
Q 2513 3444 2861 2986 
Q 3209 2528 3209 1713 
L 3209 1656 
z
M 2834 1722 
Q 2834 2391 2575 2755 
Q 2316 3119 1844 3119 
Q 1484 3119 1234 2942 
Q 984 2766 856 2425 
L 856 900 
Q 1138 263 1850 263 
Q 2313 263 2573 628 
Q 2834 994 2834 1722 
z
" transform="scale(0.015625)"/>
       <path id="Roboto-Light-61" d="M 2622 0 
Q 2566 159 2550 472 
Q 2353 216 2048 76 
Q 1744 -63 1403 -63 
Q 916 -63 614 209 
Q 313 481 313 897 
Q 313 1391 723 1678 
Q 1134 1966 1869 1966 
L 2547 1966 
L 2547 2350 
Q 2547 2713 2323 2920 
Q 2100 3128 1672 3128 
Q 1281 3128 1025 2928 
Q 769 2728 769 2447 
L 394 2450 
Q 394 2853 769 3148 
Q 1144 3444 1691 3444 
Q 2256 3444 2582 3161 
Q 2909 2878 2919 2372 
L 2919 772 
Q 2919 281 3022 38 
L 3022 0 
L 2622 0 
z
M 1447 269 
Q 1822 269 2117 450 
Q 2413 631 2547 934 
L 2547 1678 
L 1878 1678 
Q 1319 1672 1003 1473 
Q 688 1275 688 928 
Q 688 644 898 456 
Q 1109 269 1447 269 
z
" transform="scale(0.015625)"/>
       <path id="Roboto-Light-6c" d="M 906 0 
L 531 0 
L 531 4800 
L 906 4800 
L 906 0 
z
" transform="scale(0.015625)"/>
       <path id="Roboto-Light-74" d="M 1069 4247 
L 1069 3381 
L 1769 3381 
L 1769 3075 
L 1069 3075 
L 1069 822 
Q 1069 541 1170 403 
Q 1272 266 1509 266 
Q 1603 266 1813 297 
L 1828 -9 
Q 1681 -63 1428 -63 
Q 1044 -63 869 160 
Q 694 384 694 819 
L 694 3075 
L 72 3075 
L 72 3381 
L 694 3381 
L 694 4247 
L 1069 4247 
z
" transform="scale(0.015625)"/>
       <path id="Roboto-Light-64" d="M 338 1722 
Q 338 2509 689 2976 
Q 1041 3444 1644 3444 
Q 2328 3444 2688 2903 
L 2688 4800 
L 3059 4800 
L 3059 0 
L 2709 0 
L 2694 450 
Q 2334 -63 1638 -63 
Q 1053 -63 695 407 
Q 338 878 338 1678 
L 338 1722 
z
M 716 1656 
Q 716 1009 975 636 
Q 1234 263 1706 263 
Q 2397 263 2688 872 
L 2688 2459 
Q 2397 3119 1713 3119 
Q 1241 3119 978 2748 
Q 716 2378 716 1656 
z
" transform="scale(0.015625)"/>
       <path id="Roboto-Light-73" d="M 2513 859 
Q 2513 1138 2289 1306 
Q 2066 1475 1616 1570 
Q 1166 1666 917 1789 
Q 669 1913 548 2091 
Q 428 2269 428 2522 
Q 428 2922 762 3183 
Q 1097 3444 1619 3444 
Q 2184 3444 2526 3164 
Q 2869 2884 2869 2434 
L 2494 2434 
Q 2494 2731 2245 2928 
Q 1997 3125 1619 3125 
Q 1250 3125 1026 2961 
Q 803 2797 803 2534 
Q 803 2281 989 2142 
Q 1175 2003 1667 1887 
Q 2159 1772 2404 1640 
Q 2650 1509 2769 1325 
Q 2888 1141 2888 878 
Q 2888 450 2542 193 
Q 2197 -63 1641 -63 
Q 1050 -63 683 223 
Q 316 509 316 947 
L 691 947 
Q 713 619 967 436 
Q 1222 253 1641 253 
Q 2031 253 2272 425 
Q 2513 597 2513 859 
z
" transform="scale(0.015625)"/>
      </defs>
      <use xlink:href="#Roboto-Light-50"/>
      <use xlink:href="#Roboto-Light-72" transform="translate(61.572266 0)"/>
      <use xlink:href="#Roboto-Light-6f" transform="translate(95.214844 0)"/>
      <use xlink:href="#Roboto-Light-62" transform="translate(151.220703 0)"/>
      <use xlink:href="#Roboto-Light-61" transform="translate(206.640625 0)"/>
      <use xlink:href="#Roboto-Light-62" transform="translate(260.205078 0)"/>
      <use xlink:href="#Roboto-Light-69" transform="translate(315.625 0)"/>
      <use xlink:href="#Roboto-Light-6c" transform="translate(338.037109 0)"/>
      <use xlink:href="#Roboto-Light-69" transform="translate(360.449219 0)"/>
      <use xlink:href="#Roboto-Light-74" transform="translate(382.861328 0)"/>
      <use xlink:href="#Roboto-Light-79" transform="translate(414.990234 0)"/>
      <use xlink:href="#Roboto-Light-20" transform="translate(462.5 0)"/>
      <use xlink:href="#Roboto-Light-64" transform="translate(486.816406 0)"/>
      <use xlink:href="#Roboto-Light-65" transform="translate(542.382812 0)"/>
      <use xlink:href="#Roboto-Light-6e" transform="translate(594.042969 0)"/>
      <use xlink:href="#Roboto-Light-73" transform="translate(648.974609 0)"/>
      <use xlink:href="#Roboto-Light-69" transform="translate(699.609375 0)"/>
      <use xlink:href="#Roboto-Light-74" transform="translate(722.021484 0)"/>
      <use xlink:href="#Roboto-Light-79" transform="translate(754.150391 0)"/>
     </g>
    </g>
   </g>
   <g id="legend_1">
    <g id="patch_5">
     <path d="M 246.328584 13.454849 
L 258.328584 13.454849 
L 258.328584 9.254849 
L 246.328584 9.254849 
z
" style="fill: #be185d; fill-opacity: 0.25; stroke: #be185d; stroke-width: 0.75; stroke-linejoin: miter"/>
    </g>
    <g id="text_25">
     <!-- Air source heat pump -->
     <g transform="translate(261.328584 13.454849) scale(0.06 -0.06)">
      <defs>
       <path id="Roboto-Light-41" d="M 3031 1275 
L 966 1275 
L 497 0 
L 94 0 
L 1816 4550 
L 2181 4550 
L 3903 0 
L 3503 0 
L 3031 1275 
z
M 1084 1603 
L 2909 1603 
L 1997 4081 
L 1084 1603 
z
" transform="scale(0.015625)"/>
       <path id="Roboto-Light-75" d="M 2663 428 
Q 2325 -63 1584 -63 
Q 1044 -63 762 251 
Q 481 566 475 1181 
L 475 3381 
L 847 3381 
L 847 1228 
Q 847 263 1628 263 
Q 2441 263 2656 934 
L 2656 3381 
L 3031 3381 
L 3031 0 
L 2669 0 
L 2663 428 
z
" transform="scale(0.015625)"/>
       <path id="Roboto-Light-68" d="M 859 2809 
Q 1044 3113 1331 3278 
Q 1619 3444 1959 3444 
Q 2503 3444 2768 3137 
Q 3034 2831 3038 2219 
L 3038 0 
L 2666 0 
L 2666 2222 
Q 2663 2675 2473 2897 
Q 2284 3119 1869 3119 
Q 1522 3119 1255 2901 
Q 988 2684 859 2316 
L 859 0 
L 488 0 
L 488 4800 
L 859 4800 
L 859 2809 
z
" transform="scale(0.015625)"/>
       <path id="Roboto-Light-70" d="M 3206 1656 
Q 3206 866 2856 401 
Q 2506 -63 1919 -63 
Q 1225 -63 856 425 
L 856 -1300 
L 484 -1300 
L 484 3381 
L 831 3381 
L 850 2903 
Q 1216 3444 1909 3444 
Q 2516 3444 2861 2984 
Q 3206 2525 3206 1709 
L 3206 1656 
z
M 2831 1722 
Q 2831 2369 2565 2744 
Q 2300 3119 1825 3119 
Q 1481 3119 1234 2953 
Q 988 2788 856 2472 
L 856 850 
Q 991 559 1241 406 
Q 1491 253 1831 253 
Q 2303 253 2567 629 
Q 2831 1006 2831 1722 
z
" transform="scale(0.015625)"/>
       <path id="Roboto-Light-6d" d="M 828 3381 
L 841 2831 
Q 1028 3138 1309 3291 
Q 1591 3444 1934 3444 
Q 2734 3444 2950 2788 
Q 3131 3103 3434 3273 
Q 3738 3444 4103 3444 
Q 5191 3444 5213 2256 
L 5213 0 
L 4838 0 
L 4838 2228 
Q 4834 2681 4642 2900 
Q 4450 3119 4016 3119 
Q 3613 3113 3334 2858 
Q 3056 2603 3025 2238 
L 3025 0 
L 2650 0 
L 2650 2256 
Q 2647 2691 2445 2905 
Q 2244 3119 1825 3119 
Q 1472 3119 1219 2917 
Q 966 2716 844 2319 
L 844 0 
L 469 0 
L 469 3381 
L 828 3381 
z
" transform="scale(0.015625)"/>
      </defs>
      <use xlink:href="#Roboto-Light-41"/>
      <use xlink:href="#Roboto-Light-69" transform="translate(62.451172 0)"/>
      <use xlink:href="#Roboto-Light-72" transform="translate(84.863281 0)"/>
      <use xlink:href="#Roboto-Light-20" transform="translate(118.505859 0)"/>
      <use xlink:href="#Roboto-Light-73" transform="translate(142.822266 0)"/>
      <use xlink:href="#Roboto-Light-6f" transform="translate(193.457031 0)"/>
      <use xlink:href="#Roboto-Light-75" transform="translate(249.462891 0)"/>
      <use xlink:href="#Roboto-Light-72" transform="translate(304.394531 0)"/>
      <use xlink:href="#Roboto-Light-63" transform="translate(338.037109 0)"/>
      <use xlink:href="#Roboto-Light-65" transform="translate(389.550781 0)"/>
      <use xlink:href="#Roboto-Light-20" transform="translate(441.210938 0)"/>
      <use xlink:href="#Roboto-Light-68" transform="translate(465.527344 0)"/>
      <use xlink:href="#Roboto-Light-65" transform="translate(520.410156 0)"/>
      <use xlink:href="#Roboto-Light-61" transform="translate(572.070312 0)"/>
      <use xlink:href="#Roboto-Light-74" transform="translate(625.634766 0)"/>
      <use xlink:href="#Roboto-Light-20" transform="translate(657.763672 0)"/>
      <use xlink:href="#Roboto-Light-70" transform="translate(682.080078 0)"/>
      <use xlink:href="#Roboto-Light-75" transform="translate(737.5 0)"/>
      <use xlink:href="#Roboto-Light-6d" transform="translate(792.431641 0)"/>
      <use xlink:href="#Roboto-Light-70" transform="translate(881.054688 0)"/>
     </g>
    </g>
    <g id="patch_6">
     <path d="M 246.328584 22.773599 
L 258.328584 22.773599 
L 258.328584 18.573599 
L 246.328584 18.573599 
z
" style="fill: #c2410c; fill-opacity: 0.25; stroke: #c2410c; stroke-width: 0.75; stroke-linejoin: miter"/>
    </g>
    <g id="text_26">
     <!-- Electric heater -->
     <g transform="translate(261.328584 22.773599) scale(0.06 -0.06)">
      <use xlink:href="#Roboto-Light-45"/>
      <use xlink:href="#Roboto-Light-6c" transform="translate(56.884766 0)"/>
      <use xlink:href="#Roboto-Light-65" transform="translate(79.296875 0)"/>
      <use xlink:href="#Roboto-Light-63" transform="translate(130.957031 0)"/>
      <use xlink:href="#Roboto-Light-74" transform="translate(182.470703 0)"/>
      <use xlink:href="#Roboto-Light-72" transform="translate(214.599609 0)"/>
      <use xlink:href="#Roboto-Light-69" transform="translate(248.242188 0)"/>
      <use xlink:href="#Roboto-Light-63" transform="translate(270.654297 0)"/>
      <use xlink:href="#Roboto-Light-20" transform="translate(322.167969 0)"/>
      <use xlink:href="#Roboto-Light-68" transform="translate(346.484375 0)"/>
      <use xlink:href="#Roboto-Light-65" transform="translate(401.367188 0)"/>
      <use xlink:href="#Roboto-Light-61" transform="translate(453.027344 0)"/>
      <use xlink:href="#Roboto-Light-74" transform="translate(506.591797 0)"/>
      <use xlink:href="#Roboto-Light-65" transform="translate(538.720703 0)"/>
      <use xlink:href="#Roboto-Light-72" transform="translate(590.380859 0)"/>
     </g>
    </g>
    <g id="patch_7">
     <path d="M 246.328584 32.092349 
L 258.328584 32.092349 
L 258.328584 27.892349 
L 246.328584 27.892349 
z
" style="fill: #a16207; fill-opacity: 0.25; stroke: #a16207; stroke-width: 0.75; stroke-linejoin: miter"/>
    </g>
    <g id="text_27">
     <!-- Ground source heat pump -->
     <g transform="translate(261.328584 32.092349) scale(0.06 -0.06)">
      <defs>
       <path id="Roboto-Light-47" d="M 3859 541 
Q 3659 256 3232 96 
Q 2806 -63 2278 -63 
Q 1744 -63 1328 193 
Q 913 450 684 919 
Q 456 1388 453 1994 
L 453 2569 
Q 453 3516 931 4064 
Q 1409 4613 2216 4613 
Q 2919 4613 3347 4255 
Q 3775 3897 3856 3269 
L 3472 3269 
Q 3388 3769 3064 4026 
Q 2741 4284 2219 4284 
Q 1581 4284 1209 3831 
Q 838 3378 838 2553 
L 838 2016 
Q 838 1497 1014 1098 
Q 1191 700 1520 481 
Q 1850 263 2278 263 
Q 2775 263 3131 419 
Q 3363 522 3475 659 
L 3475 1834 
L 2253 1834 
L 2253 2159 
L 3859 2159 
L 3859 541 
z
" transform="scale(0.015625)"/>
      </defs>
      <use xlink:href="#Roboto-Light-47"/>
      <use xlink:href="#Roboto-Light-72" transform="translate(68.359375 0)"/>
      <use xlink:href="#Roboto-Light-6f" transform="translate(102.001953 0)"/>
      <use xlink:href="#Roboto-Light-75" transform="translate(158.007812 0)"/>
      <use xlink:href="#Roboto-Light-6e" transform="translate(212.939453 0)"/>
      <use xlink:href="#Roboto-Light-64" transform="translate(267.871094 0)"/>
      <use xlink:href="#Roboto-Light-20" transform="translate(323.4375 0)"/>
      <use xlink:href="#Roboto-Light-73" transform="translate(347.753906 0)"/>
      <use xlink:href="#Roboto-Light-6f" transform="translate(398.388672 0)"/>
      <use xlink:href="#Roboto-Light-75" transform="translate(454.394531 0)"/>
      <use xlink:href="#Roboto-Light-72" transform="translate(509.326172 0)"/>
      <use xlink:href="#Roboto-Light-63" transform="translate(542.96875 0)"/>
      <use xlink:href="#Roboto-Light-65" transform="translate(594.482422 0)"/>
      <use xlink:href="#Roboto-Light-20" transform="translate(646.142578 0)"/>
      <use xlink:href="#Roboto-Light-68" transform="translate(670.458984 0)"/>
      <use xlink:href="#Roboto-Light-65" transform="translate(725.341797 0)"/>
      <use xlink:href="#Roboto-Light-61" transform="translate(777.001953 0)"/>
      <use xlink:href="#Roboto-Light-74" transform="translate(830.566406 0)"/>
      <use xlink:href="#Roboto-Light-20" transform="translate(862.695312 0)"/>
      <use xlink:href="#Roboto-Light-70" transform="translate(887.011719 0)"/>
      <use xlink:href="#Roboto-Light-75" transform="translate(942.431641 0)"/>
      <use xlink:href="#Roboto-Light-6d" transform="translate(997.363281 0)"/>
      <use xlink:href="#Roboto-Light-70" transform="translate(1085.986328 0)"/>
     </g>
    </g>
   </g>
  </g>
 </g>
 <defs>
  <clipPath id="pefdb4879c8">
   <rect x="26.630226" y="5.954849" width="306.182734" height="150.881891"/>
  </clipPath>
 </defs>
</svg>
