<?xml version="1.0" encoding="utf-8" standalone="no"?>
<!DOCTYPE svg PUBLIC "-//W3C//DTD SVG 1.1//EN"
  "http://www.w3.org/Graphics/SVG/1.1/DTD/svg11.dtd">
<svg xmlns:xlink="http://www.w3.org/1999/xlink" width="283.464567pt" height="141.732283pt" viewBox="0 0 283.464567 141.732283" xmlns="http://www.w3.org/2000/svg" version="1.1">
 <metadata>
  <rdf:RDF xmlns:dc="http://purl.org/dc/elements/1.1/" xmlns:cc="http://creativecommons.org/ns#" xmlns:rdf="http://www.w3.org/1999/02/22-rdf-syntax-ns#">
   <cc:Work>
    <dc:type rdf:resource="http://purl.org/dc/dcmitype/StillImage"/>
    <dc:date>2025-07-29T15:28:56.505626</dc:date>
    <dc:format>image/svg+xml</dc:format>
    <dc:creator>
     <cc:Agent>
      <dc:title>Matplotlib v3.10.3, https://matplotlib.org/</dc:title>
     </cc:Agent>
    </dc:creator>
   </cc:Work>
  </rdf:RDF>
 </metadata>
 <defs>
  <style type="text/css">*{stroke-linejoin: round; stroke-linecap: butt}</style>
 </defs>
 <g id="figure_1">
  <g id="patch_1">
   <path d="M 0 141.732283 
L 283.464567 141.732283 
L 283.464567 0 
L 0 0 
L 0 141.732283 
z
" style="fill: none"/>
  </g>
  <g id="axes_1">
   <g id="patch_2">
    <path d="M 27.603088 114.26983 
L 277.271692 114.26983 
L 277.271692 5.410836 
L 27.603088 5.410836 
L 27.603088 114.26983 
z
" style="fill: none"/>
   </g>
   <g id="FillBetweenPolyCollection_1">
    <defs>
     <path id="mcf4522df5a" d="M 148.554949 -27.462494 
L 148.554949 -27.462454 
L 148.812554 -27.462454 
L 149.070158 -27.462454 
L 149.327762 -27.462454 
L 149.585366 -27.462454 
L 149.842971 -27.462454 
L 150.100575 -27.462454 
L 150.358179 -27.462454 
L 150.615783 -27.462454 
L 150.873387 -27.462454 
L 151.130992 -27.462454 
L 151.388596 -27.462454 
L 151.6462 -27.462454 
L 151.903804 -27.462454 
L 152.161409 -27.462454 
L 152.419013 -27.462454 
L 152.676617 -27.462454 
L 152.934221 -27.462454 
L 153.191825 -27.462454 
L 153.44943 -27.462454 
L 153.707034 -27.462454 
L 153.964638 -27.462454 
L 154.222242 -27.462454 
L 154.479847 -27.462454 
L 154.737451 -27.462454 
L 154.995055 -27.462454 
L 155.252659 -27.462454 
L 155.510263 -27.462454 
L 155.767868 -27.462454 
L 156.025472 -27.462454 
L 156.283076 -27.462454 
L 156.54068 -27.462454 
L 156.798285 -27.462454 
L 157.055889 -27.462454 
L 157.313493 -27.462454 
L 157.571097 -27.462454 
L 157.828701 -27.462454 
L 158.086306 -27.462454 
L 158.34391 -27.462454 
L 158.601514 -27.462454 
L 158.859118 -27.462454 
L 159.116723 -27.462454 
L 159.374327 -27.462454 
L 159.631931 -27.462454 
L 159.889535 -27.462454 
L 160.147139 -27.462454 
L 160.404744 -27.462454 
L 160.662348 -27.462454 
L 160.919952 -27.462454 
L 161.177556 -27.462454 
L 161.43516 -27.462454 
L 161.692765 -27.462454 
L 161.950369 -27.462454 
L 162.207973 -27.462454 
L 162.465577 -27.462454 
L 162.723182 -27.462454 
L 162.980786 -27.462454 
L 163.23839 -27.462454 
L 163.495994 -27.462454 
L 163.753598 -27.462454 
L 164.011203 -27.462454 
L 164.268807 -27.462454 
L 164.526411 -27.462454 
L 164.784015 -27.462454 
L 165.04162 -27.462454 
L 165.299224 -27.462454 
L 165.556828 -27.462454 
L 165.814432 -27.462454 
L 166.072036 -27.462454 
L 166.329641 -27.462454 
L 166.587245 -27.462454 
L 166.844849 -27.462454 
L 167.102453 -27.462454 
L 167.360058 -27.462454 
L 167.617662 -27.462454 
L 167.875266 -27.462454 
L 168.13287 -27.462454 
L 168.390474 -27.462454 
L 168.648079 -27.462454 
L 168.905683 -27.462454 
L 169.163287 -27.462454 
L 169.420891 -27.462454 
L 169.678496 -27.462454 
L 169.9361 -27.462454 
L 170.193704 -27.462454 
L 170.451308 -27.462454 
L 170.708912 -27.462454 
L 170.966517 -27.462454 
L 171.224121 -27.462454 
L 171.481725 -27.462454 
L 171.739329 -27.462454 
L 171.996933 -27.462454 
L 172.254538 -27.462454 
L 172.512142 -27.462454 
L 172.769746 -27.462454 
L 173.02735 -27.462454 
L 173.284955 -27.462454 
L 173.542559 -27.462454 
L 173.800163 -27.462454 
L 174.057767 -27.462454 
L 174.315371 -27.462454 
L 174.572976 -27.462454 
L 174.83058 -27.462454 
L 175.088184 -27.462454 
L 175.345788 -27.462454 
L 175.603393 -27.462454 
L 175.860997 -27.462454 
L 176.118601 -27.462454 
L 176.376205 -27.462454 
L 176.633809 -27.462454 
L 176.891414 -27.462454 
L 177.149018 -27.462454 
L 177.406622 -27.462454 
L 177.664226 -27.462454 
L 177.921831 -27.462454 
L 178.179435 -27.462454 
L 178.437039 -27.462454 
L 178.694643 -27.462454 
L 178.952247 -27.462454 
L 179.209852 -27.462454 
L 179.467456 -27.462454 
L 179.72506 -27.462454 
L 179.982664 -27.462454 
L 180.240269 -27.462454 
L 180.497873 -27.462454 
L 180.755477 -27.462454 
L 181.013081 -27.462454 
L 181.270685 -27.462454 
L 181.52829 -27.462454 
L 181.785894 -27.462454 
L 182.043498 -27.462454 
L 182.301102 -27.462454 
L 182.558706 -27.462454 
L 182.816311 -27.462454 
L 183.073915 -27.462454 
L 183.331519 -27.462454 
L 183.589123 -27.462454 
L 183.846728 -27.462454 
L 184.104332 -27.462454 
L 184.361936 -27.462454 
L 184.61954 -27.462454 
L 184.877144 -27.462454 
L 185.134749 -27.462454 
L 185.392353 -27.462454 
L 185.649957 -27.462454 
L 185.907561 -27.462454 
L 186.165166 -27.462454 
L 186.42277 -27.462454 
L 186.680374 -27.462454 
L 186.937978 -27.462454 
L 187.195582 -27.462454 
L 187.453187 -27.462454 
L 187.710791 -27.462454 
L 187.968395 -27.462454 
L 188.225999 -27.462454 
L 188.483604 -27.462454 
L 188.741208 -27.462454 
L 188.998812 -27.462454 
L 189.256416 -27.462454 
L 189.51402 -27.462454 
L 189.771625 -27.462454 
L 190.029229 -27.462454 
L 190.286833 -27.462454 
L 190.544437 -27.462454 
L 190.802042 -27.462454 
L 191.059646 -27.462454 
L 191.31725 -27.462454 
L 191.574854 -27.462454 
L 191.832458 -27.462454 
L 192.090063 -27.462454 
L 192.347667 -27.462454 
L 192.605271 -27.462454 
L 192.862875 -27.462454 
L 193.12048 -27.462454 
L 193.378084 -27.462454 
L 193.635688 -27.462454 
L 193.893292 -27.462454 
L 194.150896 -27.462454 
L 194.408501 -27.462454 
L 194.666105 -27.462454 
L 194.923709 -27.462454 
L 195.181313 -27.462454 
L 195.438917 -27.462454 
L 195.696522 -27.462454 
L 195.954126 -27.462454 
L 196.21173 -27.462454 
L 196.469334 -27.462454 
L 196.726939 -27.462454 
L 196.984543 -27.462454 
L 197.242147 -27.462454 
L 197.499751 -27.462454 
L 197.757355 -27.462454 
L 198.01496 -27.462454 
L 198.272564 -27.462454 
L 198.530168 -27.462454 
L 198.787772 -27.462454 
L 199.045377 -27.462454 
L 199.302981 -27.462454 
L 199.560585 -27.462454 
L 199.818189 -27.462454 
L 199.818189 -27.469771 
L 199.818189 -27.469771 
L 199.560585 -27.481941 
L 199.302981 -27.510715 
L 199.045377 -27.573712 
L 198.787772 -27.701495 
L 198.530168 -27.941781 
L 198.272564 -28.360939 
L 198.01496 -29.039807 
L 197.757355 -30.061682 
L 197.499751 -31.493132 
L 197.242147 -33.362272 
L 196.984543 -35.642239 
L 196.726939 -38.247479 
L 196.469334 -41.046173 
L 196.21173 -43.885408 
L 195.954126 -46.620286 
L 195.696522 -49.137149 
L 195.438917 -51.364953 
L 195.181313 -53.274758 
L 194.923709 -54.871604 
L 194.666105 -56.18376 
L 194.408501 -57.252388 
L 194.150896 -58.122493 
L 193.893292 -58.835398 
L 193.635688 -59.423566 
L 193.378084 -59.908895 
L 193.12048 -60.304648 
L 192.862875 -60.619536 
L 192.605271 -60.861577 
L 192.347667 -61.039998 
L 192.090063 -61.16509 
L 191.832458 -61.247135 
L 191.574854 -61.29562 
L 191.31725 -61.31912 
L 191.059646 -61.32554 
L 190.802042 -61.322315 
L 190.544437 -61.316552 
L 190.286833 -61.315281 
L 190.029229 -61.325673 
L 189.771625 -61.354624 
L 189.51402 -61.407186 
L 189.256416 -61.484103 
L 188.998812 -61.57973 
L 188.741208 -61.681903 
L 188.483604 -61.774518 
L 188.225999 -61.842065 
L 187.968395 -61.874229 
L 187.710791 -61.86854 
L 187.453187 -61.830048 
L 187.195582 -61.768412 
L 186.937978 -61.693984 
L 186.680374 -61.614871 
L 186.42277 -61.536447 
L 186.165166 -61.463385 
L 185.907561 -61.402579 
L 185.649957 -61.364483 
L 185.392353 -61.361051 
L 185.134749 -61.400666 
L 184.877144 -61.482693 
L 184.61954 -61.594975 
L 184.361936 -61.716175 
L 184.104332 -61.822115 
L 183.846728 -61.89313 
L 183.589123 -61.919168 
L 183.331519 -61.900886 
L 183.073915 -61.847305 
L 182.816311 -61.772044 
L 182.558706 -61.690162 
L 182.301102 -61.616328 
L 182.043498 -61.563696 
L 181.785894 -61.542462 
L 181.52829 -61.557874 
L 181.270685 -61.608613 
L 181.013081 -61.686839 
L 180.755477 -61.780369 
L 180.497873 -61.876089 
L 180.240269 -61.962942 
L 179.982664 -62.03322 
L 179.72506 -62.082169 
L 179.467456 -62.106857 
L 179.209852 -62.105469 
L 178.952247 -62.077474 
L 178.694643 -62.024442 
L 178.437039 -61.950911 
L 178.179435 -61.864848 
L 177.921831 -61.77746 
L 177.664226 -61.702163 
L 177.406622 -61.652533 
L 177.149018 -61.639351 
L 176.891414 -61.667434 
L 176.633809 -61.73347 
L 176.376205 -61.826104 
L 176.118601 -61.928679 
L 175.860997 -62.023719 
L 175.603393 -62.097289 
L 175.345788 -62.141412 
L 175.088184 -62.154008 
L 174.83058 -62.137378 
L 174.572976 -62.096994 
L 174.315371 -62.041578 
L 174.057767 -61.983811 
L 173.800163 -61.939873 
L 173.542559 -61.926524 
L 173.284955 -61.956167 
L 173.02735 -62.032096 
L 172.769746 -62.146354 
L 172.512142 -62.281338 
L 172.254538 -62.4144 
L 171.996933 -62.523498 
L 171.739329 -62.591992 
L 171.481725 -62.611518 
L 171.224121 -62.582782 
L 170.966517 -62.514647 
L 170.708912 -62.422018 
L 170.451308 -62.322953 
L 170.193704 -62.23546 
L 169.9361 -62.17447 
L 169.678496 -62.149612 
L 169.420891 -62.164321 
L 169.163287 -62.216465 
L 168.905683 -62.300064 
L 168.648079 -62.407108 
L 168.390474 -62.528567 
L 168.13287 -62.654374 
L 167.875266 -62.773127 
L 167.617662 -62.872589 
L 167.360058 -62.941292 
L 167.102453 -62.970228 
L 166.844849 -62.952667 
L 166.587245 -62.880634 
L 166.329641 -62.738375 
L 166.072036 -62.495324 
L 165.814432 -62.102257 
L 165.556828 -61.493922 
L 165.299224 -60.599328 
L 165.04162 -59.357946 
L 164.784015 -57.737345 
L 164.526411 -55.74645 
L 164.268807 -53.439568 
L 164.011203 -50.909444 
L 163.753598 -48.271535 
L 163.495994 -45.644547 
L 163.23839 -43.132855 
L 162.980786 -40.814793 
L 162.723182 -38.738195 
L 162.465577 -36.922277 
L 162.207973 -35.363653 
L 161.950369 -34.043975 
L 161.692765 -32.937118 
L 161.43516 -32.014623 
L 161.177556 -31.249016 
L 160.919952 -30.615353 
L 160.662348 -30.091685 
L 160.404744 -29.659094 
L 160.147139 -29.301644 
L 159.889535 -29.006289 
L 159.631931 -28.762639 
L 159.374327 -28.562512 
L 159.116723 -28.399302 
L 158.859118 -28.267318 
L 158.601514 -28.161232 
L 158.34391 -28.075766 
L 158.086306 -28.005658 
L 157.828701 -27.945908 
L 157.571097 -27.89221 
L 157.313493 -27.841434 
L 157.055889 -27.791926 
L 156.798285 -27.743496 
L 156.54068 -27.697041 
L 156.283076 -27.653933 
L 156.025472 -27.61542 
L 155.767868 -27.582228 
L 155.510263 -27.554476 
L 155.252659 -27.531837 
L 154.995055 -27.513782 
L 154.737451 -27.499773 
L 154.479847 -27.489328 
L 154.222242 -27.481986 
L 153.964638 -27.477254 
L 153.707034 -27.474574 
L 153.44943 -27.473356 
L 153.191825 -27.473025 
L 152.934221 -27.473085 
L 152.676617 -27.473162 
L 152.419013 -27.473025 
L 152.161409 -27.472576 
L 151.903804 -27.471823 
L 151.6462 -27.470832 
L 151.388596 -27.469691 
L 151.130992 -27.468483 
L 150.873387 -27.467277 
L 150.615783 -27.466138 
L 150.358179 -27.465122 
L 150.100575 -27.464274 
L 149.842971 -27.463617 
L 149.585366 -27.463146 
L 149.327762 -27.462837 
L 149.070158 -27.46265 
L 148.812554 -27.462546 
L 148.554949 -27.462494 
z
" style="stroke: #4338ca; stroke-width: 0.75"/>
    </defs>
    <g clip-path="url(#pd9f7795a57)">
     <use xlink:href="#mcf4522df5a" x="0" y="141.732283" style="fill: #4338ca; fill-opacity: 0.25; stroke: #4338ca; stroke-width: 0.75"/>
    </g>
   </g>
   <g id="patch_3">
    <path d="M 27.603088 114.26983 
L 27.603088 5.410836 
" style="fill: none; stroke: #000000; stroke-width: 0.3; stroke-linejoin: miter; stroke-linecap: square"/>
   </g>
   <g id="patch_4">
    <path d="M 27.603088 114.26983 
L 277.271692 114.26983 
" style="fill: none; stroke: #000000; stroke-width: 0.3; stroke-linejoin: miter; stroke-linecap: square"/>
   </g>
   <g id="matplotlib.axis_1">
    <g id="xtick_1">
     <g id="line2d_1">
      <defs>
       <path id="m4cddb67181" d="M 0 0 
L 0 2 
" style="stroke: #000000; stroke-width: 0.3"/>
      </defs>
      <g>
       <use xlink:href="#m4cddb67181" x="27.603088" y="114.26983" style="stroke: #000000; stroke-width: 0.3"/>
      </g>
     </g>
     <g id="text_1">
      <!-- 0 -->
      <g transform="translate(25.663323 123.51983) scale(0.07 -0.07)">
       <defs>
        <path id="Roboto-Light-30" d="M 3172 1897 
Q 3172 934 2819 435 
Q 2466 -63 1778 -63 
Q 1103 -63 743 426 
Q 384 916 375 1850 
L 375 2666 
Q 375 3625 731 4119 
Q 1088 4613 1772 4613 
Q 2447 4613 2803 4136 
Q 3159 3659 3172 2731 
L 3172 1897 
z
M 2797 2713 
Q 2797 3494 2542 3894 
Q 2288 4294 1772 4294 
Q 1266 4294 1009 3903 
Q 753 3513 747 2750 
L 747 1856 
Q 747 1078 1011 665 
Q 1275 253 1778 253 
Q 2278 253 2536 656 
Q 2794 1059 2797 1838 
L 2797 2713 
z
" transform="scale(0.015625)"/>
       </defs>
       <use xlink:href="#Roboto-Light-30"/>
      </g>
     </g>
    </g>
    <g id="xtick_2">
     <g id="line2d_2">
      <g>
       <use xlink:href="#m4cddb67181" x="77.536809" y="114.26983" style="stroke: #000000; stroke-width: 0.3"/>
      </g>
     </g>
     <g id="text_2">
      <!-- 3 -->
      <g transform="translate(75.597043 123.51983) scale(0.07 -0.07)">
       <defs>
        <path id="Roboto-Light-33" d="M 1259 2478 
L 1647 2478 
Q 1969 2478 2209 2592 
Q 2450 2706 2576 2904 
Q 2703 3103 2703 3363 
Q 2703 3800 2456 4047 
Q 2209 4294 1747 4294 
Q 1309 4294 1029 4036 
Q 750 3778 750 3356 
L 375 3356 
Q 375 3709 553 4001 
Q 731 4294 1047 4453 
Q 1363 4613 1747 4613 
Q 2366 4613 2722 4275 
Q 3078 3938 3078 3350 
Q 3078 3022 2870 2745 
Q 2663 2469 2300 2331 
Q 2725 2213 2944 1923 
Q 3163 1634 3163 1234 
Q 3163 650 2781 293 
Q 2400 -63 1763 -63 
Q 1356 -63 1017 100 
Q 678 263 492 555 
Q 306 847 306 1234 
L 681 1234 
Q 681 800 984 526 
Q 1288 253 1763 253 
Q 2247 253 2517 501 
Q 2788 750 2788 1222 
Q 2788 1678 2495 1918 
Q 2203 2159 1634 2159 
L 1259 2159 
L 1259 2478 
z
" transform="scale(0.015625)"/>
       </defs>
       <use xlink:href="#Roboto-Light-33"/>
      </g>
     </g>
    </g>
    <g id="xtick_3">
     <g id="line2d_3">
      <g>
       <use xlink:href="#m4cddb67181" x="127.47053" y="114.26983" style="stroke: #000000; stroke-width: 0.3"/>
      </g>
     </g>
     <g id="text_3">
      <!-- 6 -->
      <g transform="translate(125.530764 123.51983) scale(0.07 -0.07)">
       <defs>
        <path id="Roboto-Light-36" d="M 2634 4584 
L 2634 4256 
L 2591 4256 
Q 1775 4256 1306 3776 
Q 838 3297 788 2444 
Q 975 2703 1265 2845 
Q 1556 2988 1916 2988 
Q 2516 2988 2870 2573 
Q 3225 2159 3225 1491 
Q 3225 1047 3059 690 
Q 2894 334 2584 135 
Q 2275 -63 1878 -63 
Q 1225 -63 815 410 
Q 406 884 406 1634 
L 406 2009 
Q 406 3231 962 3901 
Q 1519 4572 2541 4584 
L 2634 4584 
z
M 1856 2666 
Q 1500 2666 1192 2455 
Q 884 2244 781 1919 
L 781 1600 
Q 781 1006 1086 631 
Q 1391 256 1878 256 
Q 2316 256 2586 603 
Q 2856 950 2856 1478 
Q 2856 2016 2586 2341 
Q 2316 2666 1856 2666 
z
" transform="scale(0.015625)"/>
       </defs>
       <use xlink:href="#Roboto-Light-36"/>
      </g>
     </g>
    </g>
    <g id="xtick_4">
     <g id="line2d_4">
      <g>
       <use xlink:href="#m4cddb67181" x="177.404251" y="114.26983" style="stroke: #000000; stroke-width: 0.3"/>
      </g>
     </g>
     <g id="text_4">
      <!-- 9 -->
      <g transform="translate(175.464485 123.51983) scale(0.07 -0.07)">
       <defs>
        <path id="Roboto-Light-39" d="M 2763 2106 
Q 2563 1813 2266 1652 
Q 1969 1491 1622 1491 
Q 1234 1491 937 1691 
Q 641 1891 478 2244 
Q 316 2597 316 3016 
Q 316 3466 489 3834 
Q 663 4203 973 4408 
Q 1284 4613 1691 4613 
Q 2375 4613 2756 4133 
Q 3138 3653 3138 2772 
L 3138 2434 
Q 3138 1203 2613 584 
Q 2088 -34 1009 -34 
L 941 -34 
L 944 291 
L 1075 291 
Q 1891 303 2316 753 
Q 2741 1203 2763 2106 
z
M 1669 1813 
Q 2044 1813 2342 2036 
Q 2641 2259 2766 2616 
L 2766 2831 
Q 2766 3525 2477 3908 
Q 2188 4291 1697 4291 
Q 1253 4291 968 3933 
Q 684 3575 684 3031 
Q 684 2509 957 2161 
Q 1231 1813 1669 1813 
z
" transform="scale(0.015625)"/>
       </defs>
       <use xlink:href="#Roboto-Light-39"/>
      </g>
     </g>
    </g>
    <g id="xtick_5">
     <g id="line2d_5">
      <g>
       <use xlink:href="#m4cddb67181" x="227.337971" y="114.26983" style="stroke: #000000; stroke-width: 0.3"/>
      </g>
     </g>
     <g id="text_5">
      <!-- 12 -->
      <g transform="translate(223.45844 123.51983) scale(0.07 -0.07)">
       <defs>
        <path id="Roboto-Light-31" d="M 2169 0 
L 1794 0 
L 1794 4100 
L 556 3641 
L 556 3991 
L 2106 4566 
L 2169 4566 
L 2169 0 
z
" transform="scale(0.015625)"/>
        <path id="Roboto-Light-32" d="M 3278 0 
L 428 0 
L 428 288 
L 1988 2056 
Q 2375 2503 2525 2793 
Q 2675 3084 2675 3359 
Q 2675 3791 2422 4042 
Q 2169 4294 1725 4294 
Q 1266 4294 983 4000 
Q 700 3706 700 3238 
L 328 3238 
Q 328 3622 501 3937 
Q 675 4253 995 4433 
Q 1316 4613 1725 4613 
Q 2350 4613 2701 4284 
Q 3053 3956 3053 3391 
Q 3053 3072 2854 2694 
Q 2656 2316 2156 1750 
L 888 316 
L 3278 316 
L 3278 0 
z
" transform="scale(0.015625)"/>
       </defs>
       <use xlink:href="#Roboto-Light-31"/>
       <use xlink:href="#Roboto-Light-32" transform="translate(55.419922 0)"/>
      </g>
     </g>
    </g>
    <g id="xtick_6">
     <g id="line2d_6">
      <g>
       <use xlink:href="#m4cddb67181" x="277.271692" y="114.26983" style="stroke: #000000; stroke-width: 0.3"/>
      </g>
     </g>
     <g id="text_6">
      <!-- 15 -->
      <g transform="translate(273.392161 123.51983) scale(0.07 -0.07)">
       <defs>
        <path id="Roboto-Light-35" d="M 681 2331 
L 903 4550 
L 3178 4550 
L 3178 4203 
L 1225 4203 
L 1066 2666 
Q 1431 2916 1922 2916 
Q 2538 2916 2903 2516 
Q 3269 2116 3269 1450 
Q 3269 731 2912 334 
Q 2556 -63 1909 -63 
Q 1316 -63 947 268 
Q 578 600 525 1197 
L 884 1197 
Q 938 731 1200 492 
Q 1463 253 1909 253 
Q 2397 253 2645 562 
Q 2894 872 2894 1444 
Q 2894 1944 2616 2259 
Q 2338 2575 1856 2575 
Q 1591 2575 1394 2508 
Q 1197 2441 978 2247 
L 681 2331 
z
" transform="scale(0.015625)"/>
       </defs>
       <use xlink:href="#Roboto-Light-31"/>
       <use xlink:href="#Roboto-Light-35" transform="translate(55.419922 0)"/>
      </g>
     </g>
    </g>
    <g id="text_7">
     <!-- Exergy efficiency [%] -->
     <g transform="translate(119.28446 135.035455) scale(0.075 -0.075)">
      <defs>
       <path id="Roboto-Light-45" d="M 3088 2181 
L 959 2181 
L 959 325 
L 3406 325 
L 3406 0 
L 575 0 
L 575 4550 
L 3391 4550 
L 3391 4222 
L 959 4222 
L 959 2506 
L 3088 2506 
L 3088 2181 
z
" transform="scale(0.015625)"/>
       <path id="Roboto-Light-78" d="M 1550 2009 
L 2463 3381 
L 2906 3381 
L 1759 1722 
L 2956 0 
L 2516 0 
L 1553 1431 
L 591 0 
L 150 0 
L 1344 1722 
L 197 3381 
L 638 3381 
L 1550 2009 
z
" transform="scale(0.015625)"/>
       <path id="Roboto-Light-65" d="M 1797 -63 
Q 1366 -63 1017 150 
Q 669 363 475 742 
Q 281 1122 281 1594 
L 281 1728 
Q 281 2216 470 2606 
Q 659 2997 996 3220 
Q 1334 3444 1728 3444 
Q 2344 3444 2705 3023 
Q 3066 2603 3066 1875 
L 3066 1666 
L 653 1666 
L 653 1594 
Q 653 1019 983 636 
Q 1313 253 1813 253 
Q 2113 253 2342 362 
Q 2572 472 2759 713 
L 2994 534 
Q 2581 -63 1797 -63 
z
M 1728 3125 
Q 1306 3125 1017 2815 
Q 728 2506 666 1984 
L 2694 1984 
L 2694 2025 
Q 2678 2513 2415 2819 
Q 2153 3125 1728 3125 
z
" transform="scale(0.015625)"/>
       <path id="Roboto-Light-72" d="M 2050 3063 
Q 1931 3084 1797 3084 
Q 1447 3084 1205 2889 
Q 963 2694 859 2322 
L 859 0 
L 488 0 
L 488 3381 
L 853 3381 
L 859 2844 
Q 1156 3444 1813 3444 
Q 1969 3444 2059 3403 
L 2050 3063 
z
" transform="scale(0.015625)"/>
       <path id="Roboto-Light-67" d="M 338 1722 
Q 338 2516 689 2980 
Q 1041 3444 1644 3444 
Q 2334 3444 2694 2894 
L 2713 3381 
L 3063 3381 
L 3063 69 
Q 3063 -584 2697 -965 
Q 2331 -1347 1706 -1347 
Q 1353 -1347 1033 -1189 
Q 713 -1031 528 -769 
L 738 -544 
Q 1134 -1031 1681 -1031 
Q 2150 -1031 2412 -754 
Q 2675 -478 2684 13 
L 2684 438 
Q 2325 -63 1638 -63 
Q 1050 -63 694 406 
Q 338 875 338 1672 
L 338 1722 
z
M 716 1656 
Q 716 1009 975 636 
Q 1234 263 1706 263 
Q 2397 263 2684 881 
L 2684 2453 
Q 2553 2778 2306 2948 
Q 2059 3119 1713 3119 
Q 1241 3119 978 2748 
Q 716 2378 716 1656 
z
" transform="scale(0.015625)"/>
       <path id="Roboto-Light-79" d="M 1559 538 
L 2547 3381 
L 2950 3381 
L 1506 -575 
L 1431 -750 
Q 1153 -1366 572 -1366 
Q 438 -1366 284 -1322 
L 281 -1013 
L 475 -1031 
Q 750 -1031 920 -895 
Q 1091 -759 1209 -428 
L 1375 28 
L 100 3381 
L 509 3381 
L 1559 538 
z
" transform="scale(0.015625)"/>
       <path id="Roboto-Light-20" transform="scale(0.015625)"/>
       <path id="Roboto-Light-66" d="M 756 0 
L 756 3075 
L 197 3075 
L 197 3381 
L 756 3381 
L 756 3791 
Q 756 4309 1020 4587 
Q 1284 4866 1756 4866 
Q 1969 4866 2153 4813 
L 2125 4500 
Q 1969 4538 1784 4538 
Q 1475 4538 1303 4345 
Q 1131 4153 1131 3800 
L 1131 3381 
L 1938 3381 
L 1938 3075 
L 1131 3075 
L 1131 0 
L 756 0 
z
" transform="scale(0.015625)"/>
       <path id="Roboto-Light-69" d="M 906 0 
L 531 0 
L 531 3381 
L 906 3381 
L 906 0 
z
M 466 4359 
Q 466 4466 534 4539 
Q 603 4613 722 4613 
Q 841 4613 911 4539 
Q 981 4466 981 4359 
Q 981 4253 911 4181 
Q 841 4109 722 4109 
Q 603 4109 534 4181 
Q 466 4253 466 4359 
z
" transform="scale(0.015625)"/>
       <path id="Roboto-Light-63" d="M 1738 253 
Q 2128 253 2392 473 
Q 2656 694 2678 1044 
L 3038 1044 
Q 3022 734 2844 479 
Q 2666 225 2370 81 
Q 2075 -63 1738 -63 
Q 1072 -63 683 400 
Q 294 863 294 1644 
L 294 1756 
Q 294 2256 469 2640 
Q 644 3025 970 3234 
Q 1297 3444 1734 3444 
Q 2291 3444 2652 3112 
Q 3013 2781 3038 2241 
L 2678 2241 
Q 2653 2638 2392 2881 
Q 2131 3125 1734 3125 
Q 1228 3125 948 2759 
Q 669 2394 669 1734 
L 669 1625 
Q 669 978 948 615 
Q 1228 253 1738 253 
z
" transform="scale(0.015625)"/>
       <path id="Roboto-Light-6e" d="M 844 3381 
L 856 2803 
Q 1047 3116 1331 3280 
Q 1616 3444 1959 3444 
Q 2503 3444 2768 3137 
Q 3034 2831 3038 2219 
L 3038 0 
L 2666 0 
L 2666 2222 
Q 2663 2675 2473 2897 
Q 2284 3119 1869 3119 
Q 1522 3119 1255 2901 
Q 988 2684 859 2316 
L 859 0 
L 488 0 
L 488 3381 
L 844 3381 
z
" transform="scale(0.015625)"/>
       <path id="Roboto-Light-5b" d="M 1541 4881 
L 884 4881 
L 884 -656 
L 1541 -656 
L 1541 -975 
L 509 -975 
L 509 5200 
L 1541 5200 
L 1541 4881 
z
" transform="scale(0.015625)"/>
       <path id="Roboto-Light-25" d="M 341 3675 
Q 341 4081 592 4348 
Q 844 4616 1231 4616 
Q 1619 4616 1870 4348 
Q 2122 4081 2122 3656 
L 2122 3434 
Q 2122 3034 1873 2767 
Q 1625 2500 1238 2500 
Q 853 2500 597 2762 
Q 341 3025 341 3456 
L 341 3675 
z
M 644 3434 
Q 644 3144 805 2956 
Q 966 2769 1238 2769 
Q 1503 2769 1661 2958 
Q 1819 3147 1819 3447 
L 1819 3675 
Q 1819 3966 1656 4155 
Q 1494 4344 1231 4344 
Q 972 4344 808 4156 
Q 644 3969 644 3656 
L 644 3434 
z
M 2631 1116 
Q 2631 1522 2882 1787 
Q 3134 2053 3518 2053 
Q 3903 2053 4158 1789 
Q 4413 1525 4413 1094 
L 4413 872 
Q 4413 466 4161 200 
Q 3909 -66 3525 -66 
Q 3141 -66 2886 198 
Q 2631 463 2631 888 
L 2631 1116 
z
M 2931 872 
Q 2931 578 3092 390 
Q 3253 203 3525 203 
Q 3794 203 3951 392 
Q 4109 581 4109 888 
L 4109 1116 
Q 4109 1416 3948 1598 
Q 3788 1781 3519 1781 
Q 3256 1781 3093 1597 
Q 2931 1413 2931 1103 
L 2931 872 
z
M 1356 378 
L 1122 528 
L 3344 4084 
L 3578 3934 
L 1356 378 
z
" transform="scale(0.015625)"/>
       <path id="Roboto-Light-5d" d="M 0 5200 
L 1034 5200 
L 1034 -975 
L 0 -975 
L 0 -656 
L 659 -656 
L 659 4881 
L 0 4881 
L 0 5200 
z
" transform="scale(0.015625)"/>
      </defs>
      <use xlink:href="#Roboto-Light-45"/>
      <use xlink:href="#Roboto-Light-78" transform="translate(56.884766 0)"/>
      <use xlink:href="#Roboto-Light-65" transform="translate(105.517578 0)"/>
      <use xlink:href="#Roboto-Light-72" transform="translate(157.177734 0)"/>
      <use xlink:href="#Roboto-Light-67" transform="translate(190.820312 0)"/>
      <use xlink:href="#Roboto-Light-79" transform="translate(246.289062 0)"/>
      <use xlink:href="#Roboto-Light-20" transform="translate(293.798828 0)"/>
      <use xlink:href="#Roboto-Light-65" transform="translate(318.115234 0)"/>
      <use xlink:href="#Roboto-Light-66" transform="translate(369.775391 0)"/>
      <use xlink:href="#Roboto-Light-66" transform="translate(402.880859 0)"/>
      <use xlink:href="#Roboto-Light-69" transform="translate(435.986328 0)"/>
      <use xlink:href="#Roboto-Light-63" transform="translate(458.398438 0)"/>
      <use xlink:href="#Roboto-Light-69" transform="translate(509.912109 0)"/>
      <use xlink:href="#Roboto-Light-65" transform="translate(532.324219 0)"/>
      <use xlink:href="#Roboto-Light-6e" transform="translate(583.984375 0)"/>
      <use xlink:href="#Roboto-Light-63" transform="translate(638.916016 0)"/>
      <use xlink:href="#Roboto-Light-79" transform="translate(690.429688 0)"/>
      <use xlink:href="#Roboto-Light-20" transform="translate(737.939453 0)"/>
      <use xlink:href="#Roboto-Light-5b" transform="translate(762.255859 0)"/>
      <use xlink:href="#Roboto-Light-25" transform="translate(786.230469 0)"/>
      <use xlink:href="#Roboto-Light-5d" transform="translate(860.107422 0)"/>
     </g>
    </g>
   </g>
   <g id="matplotlib.axis_2">
    <g id="ytick_1">
     <g id="line2d_7">
      <defs>
       <path id="m1e9f7a2af2" d="M 0 0 
L -2 0 
" style="stroke: #000000; stroke-width: 0.3"/>
      </defs>
      <g>
       <use xlink:href="#m1e9f7a2af2" x="27.603088" y="114.26983" style="stroke: #000000; stroke-width: 0.3"/>
      </g>
     </g>
     <g id="text_8">
      <!-- 0.0 -->
      <g transform="translate(15.172776 116.89483) scale(0.07 -0.07)">
       <defs>
        <path id="Roboto-Light-2e" d="M 453 225 
Q 453 334 523 411 
Q 594 488 719 488 
Q 844 488 916 411 
Q 988 334 988 225 
Q 988 116 916 45 
Q 844 -25 719 -25 
Q 594 -25 523 45 
Q 453 116 453 225 
z
" transform="scale(0.015625)"/>
       </defs>
       <use xlink:href="#Roboto-Light-30"/>
       <use xlink:href="#Roboto-Light-2e" transform="translate(55.419922 0)"/>
       <use xlink:href="#Roboto-Light-30" transform="translate(79.296875 0)"/>
      </g>
     </g>
    </g>
    <g id="ytick_2">
     <g id="line2d_8">
      <g>
       <use xlink:href="#m1e9f7a2af2" x="27.603088" y="87.055081" style="stroke: #000000; stroke-width: 0.3"/>
      </g>
     </g>
     <g id="text_9">
      <!-- 0.4 -->
      <g transform="translate(15.172776 89.680081) scale(0.07 -0.07)">
       <defs>
        <path id="Roboto-Light-34" d="M 2725 1466 
L 3434 1466 
L 3434 1150 
L 2725 1150 
L 2725 0 
L 2350 0 
L 2350 1150 
L 209 1150 
L 209 1363 
L 2316 4550 
L 2725 4550 
L 2725 1466 
z
M 669 1466 
L 2350 1466 
L 2350 4066 
L 2184 3778 
L 669 1466 
z
" transform="scale(0.015625)"/>
       </defs>
       <use xlink:href="#Roboto-Light-30"/>
       <use xlink:href="#Roboto-Light-2e" transform="translate(55.419922 0)"/>
       <use xlink:href="#Roboto-Light-34" transform="translate(79.296875 0)"/>
      </g>
     </g>
    </g>
    <g id="ytick_3">
     <g id="line2d_9">
      <g>
       <use xlink:href="#m1e9f7a2af2" x="27.603088" y="59.840333" style="stroke: #000000; stroke-width: 0.3"/>
      </g>
     </g>
     <g id="text_10">
      <!-- 0.8 -->
      <g transform="translate(15.172776 62.465333) scale(0.07 -0.07)">
       <defs>
        <path id="Roboto-Light-38" d="M 3109 3378 
Q 3109 3025 2903 2745 
Q 2697 2466 2359 2334 
Q 2753 2200 2990 1900 
Q 3228 1600 3228 1206 
Q 3228 622 2831 279 
Q 2434 -63 1781 -63 
Q 1122 -63 726 278 
Q 331 619 331 1206 
Q 331 1594 559 1897 
Q 788 2200 1184 2334 
Q 847 2466 647 2745 
Q 447 3025 447 3378 
Q 447 3944 811 4278 
Q 1175 4613 1775 4613 
Q 2375 4613 2742 4275 
Q 3109 3938 3109 3378 
z
M 2853 1203 
Q 2853 1628 2550 1901 
Q 2247 2175 1775 2175 
Q 1303 2175 1003 1906 
Q 703 1638 703 1203 
Q 703 769 993 511 
Q 1284 253 1781 253 
Q 2266 253 2559 509 
Q 2853 766 2853 1203 
z
M 2734 3381 
Q 2734 3772 2464 4033 
Q 2194 4294 1775 4294 
Q 1350 4294 1086 4042 
Q 822 3791 822 3381 
Q 822 2981 1086 2737 
Q 1350 2494 1778 2494 
Q 2200 2494 2467 2739 
Q 2734 2984 2734 3381 
z
" transform="scale(0.015625)"/>
       </defs>
       <use xlink:href="#Roboto-Light-30"/>
       <use xlink:href="#Roboto-Light-2e" transform="translate(55.419922 0)"/>
       <use xlink:href="#Roboto-Light-38" transform="translate(79.296875 0)"/>
      </g>
     </g>
    </g>
    <g id="ytick_4">
     <g id="line2d_10">
      <g>
       <use xlink:href="#m1e9f7a2af2" x="27.603088" y="32.625584" style="stroke: #000000; stroke-width: 0.3"/>
      </g>
     </g>
     <g id="text_11">
      <!-- 1.2 -->
      <g transform="translate(15.172776 35.250584) scale(0.07 -0.07)">
       <use xlink:href="#Roboto-Light-31"/>
       <use xlink:href="#Roboto-Light-2e" transform="translate(55.419922 0)"/>
       <use xlink:href="#Roboto-Light-32" transform="translate(79.296875 0)"/>
      </g>
     </g>
    </g>
    <g id="ytick_5">
     <g id="line2d_11">
      <g>
       <use xlink:href="#m1e9f7a2af2" x="27.603088" y="5.410836" style="stroke: #000000; stroke-width: 0.3"/>
      </g>
     </g>
     <g id="text_12">
      <!-- 1.6 -->
      <g transform="translate(15.172776 8.035836) scale(0.07 -0.07)">
       <use xlink:href="#Roboto-Light-31"/>
       <use xlink:href="#Roboto-Light-2e" transform="translate(55.419922 0)"/>
       <use xlink:href="#Roboto-Light-36" transform="translate(79.296875 0)"/>
      </g>
     </g>
    </g>
    <g id="text_13">
     <!-- Probability density -->
     <g transform="translate(9.571994 89.901856) rotate(-90) scale(0.075 -0.075)">
      <defs>
       <path id="Roboto-Light-50" d="M 959 1853 
L 959 0 
L 575 0 
L 575 4550 
L 2125 4550 
Q 2834 4550 3245 4187 
Q 3656 3825 3656 3191 
Q 3656 2550 3261 2201 
Q 2866 1853 2116 1853 
L 959 1853 
z
M 959 2178 
L 2125 2178 
Q 2684 2178 2978 2443 
Q 3272 2709 3272 3184 
Q 3272 3656 2980 3936 
Q 2688 4216 2150 4222 
L 959 4222 
L 959 2178 
z
" transform="scale(0.015625)"/>
       <path id="Roboto-Light-6f" d="M 281 1741 
Q 281 2228 470 2618 
Q 659 3009 1004 3226 
Q 1350 3444 1788 3444 
Q 2463 3444 2881 2970 
Q 3300 2497 3300 1716 
L 3300 1638 
Q 3300 1147 3111 755 
Q 2922 363 2578 150 
Q 2234 -63 1794 -63 
Q 1122 -63 701 410 
Q 281 884 281 1666 
L 281 1741 
z
M 656 1638 
Q 656 1031 970 642 
Q 1284 253 1794 253 
Q 2300 253 2614 642 
Q 2928 1031 2928 1669 
L 2928 1741 
Q 2928 2128 2784 2450 
Q 2641 2772 2381 2948 
Q 2122 3125 1788 3125 
Q 1288 3125 972 2733 
Q 656 2341 656 1706 
L 656 1638 
z
" transform="scale(0.015625)"/>
       <path id="Roboto-Light-62" d="M 3209 1656 
Q 3209 866 2859 401 
Q 2509 -63 1919 -63 
Q 1213 -63 850 463 
L 834 0 
L 484 0 
L 484 4800 
L 856 4800 
L 856 2891 
Q 1213 3444 1913 3444 
Q 2513 3444 2861 2986 
Q 3209 2528 3209 1713 
L 3209 1656 
z
M 2834 1722 
Q 2834 2391 2575 2755 
Q 2316 3119 1844 3119 
Q 1484 3119 1234 2942 
Q 984 2766 856 2425 
L 856 900 
Q 1138 263 1850 263 
Q 2313 263 2573 628 
Q 2834 994 2834 1722 
z
" transform="scale(0.015625)"/>
       <path id="Roboto-Light-61" d="M 2622 0 
Q 2566 159 2550 472 
Q 2353 216 2048 76 
Q 1744 -63 1403 -63 
Q 916 -63 614 209 
Q 313 481 313 897 
Q 313 1391 723 1678 
Q 1134 1966 1869 1966 
L 2547 1966 
L 2547 2350 
Q 2547 2713 2323 2920 
Q 2100 3128 1672 3128 
Q 1281 3128 1025 2928 
Q 769 2728 769 2447 
L 394 2450 
Q 394 2853 769 3148 
Q 1144 3444 1691 3444 
Q 2256 3444 2582 3161 
Q 2909 2878 2919 2372 
L 2919 772 
Q 2919 281 3022 38 
L 3022 0 
L 2622 0 
z
M 1447 269 
Q 1822 269 2117 450 
Q 2413 631 2547 934 
L 2547 1678 
L 1878 1678 
Q 1319 1672 1003 1473 
Q 688 1275 688 928 
Q 688 644 898 456 
Q 1109 269 1447 269 
z
" transform="scale(0.015625)"/>
       <path id="Roboto-Light-6c" d="M 906 0 
L 531 0 
L 531 4800 
L 906 4800 
L 906 0 
z
" transform="scale(0.015625)"/>
       <path id="Roboto-Light-74" d="M 1069 4247 
L 1069 3381 
L 1769 3381 
L 1769 3075 
L 1069 3075 
L 1069 822 
Q 1069 541 1170 403 
Q 1272 266 1509 266 
Q 1603 266 1813 297 
L 1828 -9 
Q 1681 -63 1428 -63 
Q 1044 -63 869 160 
Q 694 384 694 819 
L 694 3075 
L 72 3075 
L 72 3381 
L 694 3381 
L 694 4247 
L 1069 4247 
z
" transform="scale(0.015625)"/>
       <path id="Roboto-Light-64" d="M 338 1722 
Q 338 2509 689 2976 
Q 1041 3444 1644 3444 
Q 2328 3444 2688 2903 
L 2688 4800 
L 3059 4800 
L 3059 0 
L 2709 0 
L 2694 450 
Q 2334 -63 1638 -63 
Q 1053 -63 695 407 
Q 338 878 338 1678 
L 338 1722 
z
M 716 1656 
Q 716 1009 975 636 
Q 1234 263 1706 263 
Q 2397 263 2688 872 
L 2688 2459 
Q 2397 3119 1713 3119 
Q 1241 3119 978 2748 
Q 716 2378 716 1656 
z
" transform="scale(0.015625)"/>
       <path id="Roboto-Light-73" d="M 2513 859 
Q 2513 1138 2289 1306 
Q 2066 1475 1616 1570 
Q 1166 1666 917 1789 
Q 669 1913 548 2091 
Q 428 2269 428 2522 
Q 428 2922 762 3183 
Q 1097 3444 1619 3444 
Q 2184 3444 2526 3164 
Q 2869 2884 2869 2434 
L 2494 2434 
Q 2494 2731 2245 2928 
Q 1997 3125 1619 3125 
Q 1250 3125 1026 2961 
Q 803 2797 803 2534 
Q 803 2281 989 2142 
Q 1175 2003 1667 1887 
Q 2159 1772 2404 1640 
Q 2650 1509 2769 1325 
Q 2888 1141 2888 878 
Q 2888 450 2542 193 
Q 2197 -63 1641 -63 
Q 1050 -63 683 223 
Q 316 509 316 947 
L 691 947 
Q 713 619 967 436 
Q 1222 253 1641 253 
Q 2031 253 2272 425 
Q 2513 597 2513 859 
z
" transform="scale(0.015625)"/>
      </defs>
      <use xlink:href="#Roboto-Light-50"/>
      <use xlink:href="#Roboto-Light-72" transform="translate(61.572266 0)"/>
      <use xlink:href="#Roboto-Light-6f" transform="translate(95.214844 0)"/>
      <use xlink:href="#Roboto-Light-62" transform="translate(151.220703 0)"/>
      <use xlink:href="#Roboto-Light-61" transform="translate(206.640625 0)"/>
      <use xlink:href="#Roboto-Light-62" transform="translate(260.205078 0)"/>
      <use xlink:href="#Roboto-Light-69" transform="translate(315.625 0)"/>
      <use xlink:href="#Roboto-Light-6c" transform="translate(338.037109 0)"/>
      <use xlink:href="#Roboto-Light-69" transform="translate(360.449219 0)"/>
      <use xlink:href="#Roboto-Light-74" transform="translate(382.861328 0)"/>
      <use xlink:href="#Roboto-Light-79" transform="translate(414.990234 0)"/>
      <use xlink:href="#Roboto-Light-20" transform="translate(462.5 0)"/>
      <use xlink:href="#Roboto-Light-64" transform="translate(486.816406 0)"/>
      <use xlink:href="#Roboto-Light-65" transform="translate(542.382812 0)"/>
      <use xlink:href="#Roboto-Light-6e" transform="translate(594.042969 0)"/>
      <use xlink:href="#Roboto-Light-73" transform="translate(648.974609 0)"/>
      <use xlink:href="#Roboto-Light-69" transform="translate(699.609375 0)"/>
      <use xlink:href="#Roboto-Light-74" transform="translate(722.021484 0)"/>
      <use xlink:href="#Roboto-Light-79" transform="translate(754.150391 0)"/>
     </g>
    </g>
   </g>
  </g>
 </g>
 <defs>
  <clipPath id="pd9f7795a57">
   <rect x="27.603088" y="5.410836" width="249.668604" height="108.858994"/>
  </clipPath>
 </defs>
</svg>
