<?xml version="1.0" encoding="utf-8" standalone="no"?>
<!DOCTYPE svg PUBLIC "-//W3C//DTD SVG 1.1//EN"
  "http://www.w3.org/Graphics/SVG/1.1/DTD/svg11.dtd">
<svg xmlns:xlink="http://www.w3.org/1999/xlink" width="283.464567pt" height="141.732283pt" viewBox="0 0 283.464567 141.732283" xmlns="http://www.w3.org/2000/svg" version="1.1">
 <metadata>
  <rdf:RDF xmlns:dc="http://purl.org/dc/elements/1.1/" xmlns:cc="http://creativecommons.org/ns#" xmlns:rdf="http://www.w3.org/1999/02/22-rdf-syntax-ns#">
   <cc:Work>
    <dc:type rdf:resource="http://purl.org/dc/dcmitype/StillImage"/>
    <dc:date>2025-07-29T15:28:58.798654</dc:date>
    <dc:format>image/svg+xml</dc:format>
    <dc:creator>
     <cc:Agent>
      <dc:title>Matplotlib v3.10.3, https://matplotlib.org/</dc:title>
     </cc:Agent>
    </dc:creator>
   </cc:Work>
  </rdf:RDF>
 </metadata>
 <defs>
  <style type="text/css">*{stroke-linejoin: round; stroke-linecap: butt}</style>
 </defs>
 <g id="figure_1">
  <g id="patch_1">
   <path d="M 0 141.732283 
L 283.464567 141.732283 
L 283.464567 0 
L 0 0 
L 0 141.732283 
z
" style="fill: none"/>
  </g>
  <g id="axes_1">
   <g id="patch_2">
    <path d="M 27.603088 114.26983 
L 277.271692 114.26983 
L 277.271692 5.410836 
L 27.603088 5.410836 
L 27.603088 114.26983 
z
" style="fill: none"/>
   </g>
   <g id="FillBetweenPolyCollection_1">
    <defs>
     <path id="m2fefc34218" d="M 151.5081 -27.462513 
L 151.5081 -27.462454 
L 151.750739 -27.462454 
L 151.993379 -27.462454 
L 152.236019 -27.462454 
L 152.478659 -27.462454 
L 152.721298 -27.462454 
L 152.963938 -27.462454 
L 153.206578 -27.462454 
L 153.449218 -27.462454 
L 153.691858 -27.462454 
L 153.934497 -27.462454 
L 154.177137 -27.462454 
L 154.419777 -27.462454 
L 154.662417 -27.462454 
L 154.905056 -27.462454 
L 155.147696 -27.462454 
L 155.390336 -27.462454 
L 155.632976 -27.462454 
L 155.875615 -27.462454 
L 156.118255 -27.462454 
L 156.360895 -27.462454 
L 156.603535 -27.462454 
L 156.846174 -27.462454 
L 157.088814 -27.462454 
L 157.331454 -27.462454 
L 157.574094 -27.462454 
L 157.816733 -27.462454 
L 158.059373 -27.462454 
L 158.302013 -27.462454 
L 158.544653 -27.462454 
L 158.787292 -27.462454 
L 159.029932 -27.462454 
L 159.272572 -27.462454 
L 159.515212 -27.462454 
L 159.757851 -27.462454 
L 160.000491 -27.462454 
L 160.243131 -27.462454 
L 160.485771 -27.462454 
L 160.728411 -27.462454 
L 160.97105 -27.462454 
L 161.21369 -27.462454 
L 161.45633 -27.462454 
L 161.69897 -27.462454 
L 161.941609 -27.462454 
L 162.184249 -27.462454 
L 162.426889 -27.462454 
L 162.669529 -27.462454 
L 162.912168 -27.462454 
L 163.154808 -27.462454 
L 163.397448 -27.462454 
L 163.640088 -27.462454 
L 163.882727 -27.462454 
L 164.125367 -27.462454 
L 164.368007 -27.462454 
L 164.610647 -27.462454 
L 164.853286 -27.462454 
L 165.095926 -27.462454 
L 165.338566 -27.462454 
L 165.581206 -27.462454 
L 165.823845 -27.462454 
L 166.066485 -27.462454 
L 166.309125 -27.462454 
L 166.551765 -27.462454 
L 166.794404 -27.462454 
L 167.037044 -27.462454 
L 167.279684 -27.462454 
L 167.522324 -27.462454 
L 167.764963 -27.462454 
L 168.007603 -27.462454 
L 168.250243 -27.462454 
L 168.492883 -27.462454 
L 168.735523 -27.462454 
L 168.978162 -27.462454 
L 169.220802 -27.462454 
L 169.463442 -27.462454 
L 169.706082 -27.462454 
L 169.948721 -27.462454 
L 170.191361 -27.462454 
L 170.434001 -27.462454 
L 170.676641 -27.462454 
L 170.91928 -27.462454 
L 171.16192 -27.462454 
L 171.40456 -27.462454 
L 171.6472 -27.462454 
L 171.889839 -27.462454 
L 172.132479 -27.462454 
L 172.375119 -27.462454 
L 172.617759 -27.462454 
L 172.860398 -27.462454 
L 173.103038 -27.462454 
L 173.345678 -27.462454 
L 173.588318 -27.462454 
L 173.830957 -27.462454 
L 174.073597 -27.462454 
L 174.316237 -27.462454 
L 174.558877 -27.462454 
L 174.801516 -27.462454 
L 175.044156 -27.462454 
L 175.286796 -27.462454 
L 175.529436 -27.462454 
L 175.772075 -27.462454 
L 176.014715 -27.462454 
L 176.257355 -27.462454 
L 176.499995 -27.462454 
L 176.742635 -27.462454 
L 176.985274 -27.462454 
L 177.227914 -27.462454 
L 177.470554 -27.462454 
L 177.713194 -27.462454 
L 177.955833 -27.462454 
L 178.198473 -27.462454 
L 178.441113 -27.462454 
L 178.683753 -27.462454 
L 178.926392 -27.462454 
L 179.169032 -27.462454 
L 179.411672 -27.462454 
L 179.654312 -27.462454 
L 179.896951 -27.462454 
L 180.139591 -27.462454 
L 180.382231 -27.462454 
L 180.624871 -27.462454 
L 180.86751 -27.462454 
L 181.11015 -27.462454 
L 181.35279 -27.462454 
L 181.59543 -27.462454 
L 181.838069 -27.462454 
L 182.080709 -27.462454 
L 182.323349 -27.462454 
L 182.565989 -27.462454 
L 182.808628 -27.462454 
L 183.051268 -27.462454 
L 183.293908 -27.462454 
L 183.536548 -27.462454 
L 183.779187 -27.462454 
L 184.021827 -27.462454 
L 184.264467 -27.462454 
L 184.507107 -27.462454 
L 184.749747 -27.462454 
L 184.992386 -27.462454 
L 185.235026 -27.462454 
L 185.477666 -27.462454 
L 185.720306 -27.462454 
L 185.962945 -27.462454 
L 186.205585 -27.462454 
L 186.448225 -27.462454 
L 186.690865 -27.462454 
L 186.933504 -27.462454 
L 187.176144 -27.462454 
L 187.418784 -27.462454 
L 187.661424 -27.462454 
L 187.904063 -27.462454 
L 188.146703 -27.462454 
L 188.389343 -27.462454 
L 188.631983 -27.462454 
L 188.874622 -27.462454 
L 189.117262 -27.462454 
L 189.359902 -27.462454 
L 189.602542 -27.462454 
L 189.845181 -27.462454 
L 190.087821 -27.462454 
L 190.330461 -27.462454 
L 190.573101 -27.462454 
L 190.81574 -27.462454 
L 191.05838 -27.462454 
L 191.30102 -27.462454 
L 191.54366 -27.462454 
L 191.7863 -27.462454 
L 192.028939 -27.462454 
L 192.271579 -27.462454 
L 192.514219 -27.462454 
L 192.756859 -27.462454 
L 192.999498 -27.462454 
L 193.242138 -27.462454 
L 193.484778 -27.462454 
L 193.727418 -27.462454 
L 193.970057 -27.462454 
L 194.212697 -27.462454 
L 194.455337 -27.462454 
L 194.697977 -27.462454 
L 194.940616 -27.462454 
L 195.183256 -27.462454 
L 195.425896 -27.462454 
L 195.668536 -27.462454 
L 195.911175 -27.462454 
L 196.153815 -27.462454 
L 196.396455 -27.462454 
L 196.639095 -27.462454 
L 196.881734 -27.462454 
L 197.124374 -27.462454 
L 197.367014 -27.462454 
L 197.609654 -27.462454 
L 197.852293 -27.462454 
L 198.094933 -27.462454 
L 198.337573 -27.462454 
L 198.580213 -27.462454 
L 198.822852 -27.462454 
L 199.065492 -27.462454 
L 199.308132 -27.462454 
L 199.550772 -27.462454 
L 199.793412 -27.462454 
L 199.793412 -27.468517 
L 199.793412 -27.468517 
L 199.550772 -27.478205 
L 199.308132 -27.500718 
L 199.065492 -27.54945 
L 198.822852 -27.647759 
L 198.580213 -27.832699 
L 198.337573 -28.157326 
L 198.094933 -28.689405 
L 197.852293 -29.504438 
L 197.609654 -30.672391 
L 197.367014 -32.240059 
L 197.124374 -34.213844 
L 196.881734 -36.54916 
L 196.639095 -39.15147 
L 196.396455 -41.890229 
L 196.153815 -44.622126 
L 195.911175 -47.216546 
L 195.668536 -49.575663 
L 195.425896 -51.644208 
L 195.183256 -53.408107 
L 194.940616 -54.884867 
L 194.697977 -56.110299 
L 194.455337 -57.125939 
L 194.212697 -57.969949 
L 193.970057 -58.672591 
L 193.727418 -59.255884 
L 193.484778 -59.736066 
L 193.242138 -60.126916 
L 192.999498 -60.442032 
L 192.756859 -60.694993 
L 192.514219 -60.897711 
L 192.271579 -61.05843 
L 192.028939 -61.181076 
L 191.7863 -61.266721 
L 191.54366 -61.316511 
L 191.30102 -61.334438 
L 191.05838 -61.32848 
L 190.81574 -61.309683 
L 190.573101 -61.28995 
L 190.330461 -61.279766 
L 190.087821 -61.286697 
L 189.845181 -61.314664 
L 189.602542 -61.36352 
L 189.359902 -61.428749 
L 189.117262 -61.501644 
L 188.874622 -61.570635 
L 188.631983 -61.623959 
L 188.389343 -61.653064 
L 188.146703 -61.655571 
L 187.904063 -61.636672 
L 187.661424 -61.60836 
L 187.418784 -61.5865 
L 187.176144 -61.586297 
L 186.933504 -61.617255 
L 186.690865 -61.679194 
L 186.448225 -61.761012 
L 186.205585 -61.843223 
L 185.962945 -61.903825 
L 185.720306 -61.925465 
L 185.477666 -61.901064 
L 185.235026 -61.835647 
L 184.992386 -61.743836 
L 184.749747 -61.644364 
L 184.507107 -61.554051 
L 184.264467 -61.483655 
L 184.021827 -61.436874 
L 183.779187 -61.412348 
L 183.536548 -61.407196 
L 183.293908 -61.420136 
L 183.051268 -61.452609 
L 182.808628 -61.507484 
L 182.565989 -61.58616 
L 182.323349 -61.685628 
L 182.080709 -61.796996 
L 181.838069 -61.906304 
L 181.59543 -61.997536 
L 181.35279 -62.056957 
L 181.11015 -62.077265 
L 180.86751 -62.059889 
L 180.624871 -62.014295 
L 180.382231 -61.954419 
L 180.139591 -61.893765 
L 179.896951 -61.841427 
L 179.654312 -61.800717 
L 179.411672 -61.770537 
L 179.169032 -61.748215 
L 178.926392 -61.731996 
L 178.683753 -61.722012 
L 178.441113 -61.719674 
L 178.198473 -61.72637 
L 177.955833 -61.742484 
L 177.713194 -61.767347 
L 177.470554 -61.799926 
L 177.227914 -61.83956 
L 176.985274 -61.885951 
L 176.742635 -61.938165 
L 176.499995 -61.993121 
L 176.257355 -62.044633 
L 176.014715 -62.084012 
L 175.772075 -62.102555 
L 175.529436 -62.095158 
L 175.286796 -62.063494 
L 175.044156 -62.017002 
L 174.801516 -61.970727 
L 174.558877 -61.940542 
L 174.316237 -61.937705 
L 174.073597 -61.965304 
L 173.830957 -62.01823 
L 173.588318 -62.086425 
L 173.345678 -62.159308 
L 173.103038 -62.228872 
L 172.860398 -62.29015 
L 172.617759 -62.339708 
L 172.375119 -62.374066 
L 172.132479 -62.389712 
L 171.889839 -62.384918 
L 171.6472 -62.362164 
L 171.40456 -62.329391 
L 171.16192 -62.298955 
L 170.91928 -62.28428 
L 170.676641 -62.295386 
L 170.434001 -62.335006 
L 170.191361 -62.396941 
L 169.948721 -62.467527 
L 169.706082 -62.52998 
L 169.463442 -62.570193 
L 169.220802 -62.581769 
L 168.978162 -62.568189 
L 168.735523 -62.541083 
L 168.492883 -62.515303 
L 168.250243 -62.502985 
L 168.007603 -62.509299 
L 167.764963 -62.531696 
L 167.522324 -62.5626 
L 167.279684 -62.593693 
L 167.037044 -62.619065 
L 166.794404 -62.634938 
L 166.551765 -62.635204 
L 166.309125 -62.603919 
L 166.066485 -62.507552 
L 165.823845 -62.290644 
L 165.581206 -61.878248 
L 165.338566 -61.186676 
L 165.095926 -60.141089 
L 164.853286 -58.695264 
L 164.610647 -56.84714 
L 164.368007 -54.644559 
L 164.125367 -52.179041 
L 163.882727 -49.569648 
L 163.640088 -46.94217 
L 163.397448 -44.409572 
L 163.154808 -42.058175 
L 162.912168 -39.941454 
L 162.669529 -38.081033 
L 162.426889 -36.472881 
L 162.184249 -35.096126 
L 161.941609 -33.922002 
L 161.69897 -32.921024 
L 161.45633 -32.067399 
L 161.21369 -31.340637 
L 160.97105 -30.725067 
L 160.728411 -30.208238 
L 160.485771 -29.779156 
L 160.243131 -29.426944 
L 160.000491 -29.140212 
L 159.757851 -28.907136 
L 159.515212 -28.716094 
L 159.272572 -28.556572 
L 159.029932 -28.42003 
L 158.787292 -28.300397 
L 158.544653 -28.194027 
L 158.302013 -28.099164 
L 158.059373 -28.015123 
L 157.816733 -27.941519 
L 157.574094 -27.877745 
L 157.331454 -27.822784 
L 157.088814 -27.775261 
L 156.846174 -27.733631 
L 156.603535 -27.696417 
L 156.360895 -27.662434 
L 156.118255 -27.630968 
L 155.875615 -27.601833 
L 155.632976 -27.575288 
L 155.390336 -27.551809 
L 155.147696 -27.531814 
L 154.905056 -27.515447 
L 154.662417 -27.5025 
L 154.419777 -27.492483 
L 154.177137 -27.484789 
L 153.934497 -27.478846 
L 153.691858 -27.474222 
L 153.449218 -27.470633 
L 153.206578 -27.467903 
L 152.963938 -27.465905 
L 152.721298 -27.464518 
L 152.478659 -27.463615 
L 152.236019 -27.463065 
L 151.993379 -27.462755 
L 151.750739 -27.462592 
L 151.5081 -27.462513 
z
" style="stroke: #4338ca; stroke-width: 0.75"/>
    </defs>
    <g clip-path="url(#p4946b18cd0)">
     <use xlink:href="#m2fefc34218" x="0" y="141.732283" style="fill: #4338ca; fill-opacity: 0.25; stroke: #4338ca; stroke-width: 0.75"/>
    </g>
   </g>
   <g id="patch_3">
    <path d="M 27.603088 114.26983 
L 27.603088 5.410836 
" style="fill: none; stroke: #000000; stroke-width: 0.3; stroke-linejoin: miter; stroke-linecap: square"/>
   </g>
   <g id="patch_4">
    <path d="M 27.603088 114.26983 
L 277.271692 114.26983 
" style="fill: none; stroke: #000000; stroke-width: 0.3; stroke-linejoin: miter; stroke-linecap: square"/>
   </g>
   <g id="matplotlib.axis_1">
    <g id="xtick_1">
     <g id="line2d_1">
      <defs>
       <path id="m14e39c5042" d="M 0 0 
L 0 2 
" style="stroke: #000000; stroke-width: 0.3"/>
      </defs>
      <g>
       <use xlink:href="#m14e39c5042" x="27.603088" y="114.26983" style="stroke: #000000; stroke-width: 0.3"/>
      </g>
     </g>
     <g id="text_1">
      <!-- 0 -->
      <g transform="translate(25.663323 123.51983) scale(0.07 -0.07)">
       <defs>
        <path id="Roboto-Light-30" d="M 3172 1897 
Q 3172 934 2819 435 
Q 2466 -63 1778 -63 
Q 1103 -63 743 426 
Q 384 916 375 1850 
L 375 2666 
Q 375 3625 731 4119 
Q 1088 4613 1772 4613 
Q 2447 4613 2803 4136 
Q 3159 3659 3172 2731 
L 3172 1897 
z
M 2797 2713 
Q 2797 3494 2542 3894 
Q 2288 4294 1772 4294 
Q 1266 4294 1009 3903 
Q 753 3513 747 2750 
L 747 1856 
Q 747 1078 1011 665 
Q 1275 253 1778 253 
Q 2278 253 2536 656 
Q 2794 1059 2797 1838 
L 2797 2713 
z
" transform="scale(0.015625)"/>
       </defs>
       <use xlink:href="#Roboto-Light-30"/>
      </g>
     </g>
    </g>
    <g id="xtick_2">
     <g id="line2d_2">
      <g>
       <use xlink:href="#m14e39c5042" x="77.536809" y="114.26983" style="stroke: #000000; stroke-width: 0.3"/>
      </g>
     </g>
     <g id="text_2">
      <!-- 3 -->
      <g transform="translate(75.597043 123.51983) scale(0.07 -0.07)">
       <defs>
        <path id="Roboto-Light-33" d="M 1259 2478 
L 1647 2478 
Q 1969 2478 2209 2592 
Q 2450 2706 2576 2904 
Q 2703 3103 2703 3363 
Q 2703 3800 2456 4047 
Q 2209 4294 1747 4294 
Q 1309 4294 1029 4036 
Q 750 3778 750 3356 
L 375 3356 
Q 375 3709 553 4001 
Q 731 4294 1047 4453 
Q 1363 4613 1747 4613 
Q 2366 4613 2722 4275 
Q 3078 3938 3078 3350 
Q 3078 3022 2870 2745 
Q 2663 2469 2300 2331 
Q 2725 2213 2944 1923 
Q 3163 1634 3163 1234 
Q 3163 650 2781 293 
Q 2400 -63 1763 -63 
Q 1356 -63 1017 100 
Q 678 263 492 555 
Q 306 847 306 1234 
L 681 1234 
Q 681 800 984 526 
Q 1288 253 1763 253 
Q 2247 253 2517 501 
Q 2788 750 2788 1222 
Q 2788 1678 2495 1918 
Q 2203 2159 1634 2159 
L 1259 2159 
L 1259 2478 
z
" transform="scale(0.015625)"/>
       </defs>
       <use xlink:href="#Roboto-Light-33"/>
      </g>
     </g>
    </g>
    <g id="xtick_3">
     <g id="line2d_3">
      <g>
       <use xlink:href="#m14e39c5042" x="127.47053" y="114.26983" style="stroke: #000000; stroke-width: 0.3"/>
      </g>
     </g>
     <g id="text_3">
      <!-- 6 -->
      <g transform="translate(125.530764 123.51983) scale(0.07 -0.07)">
       <defs>
        <path id="Roboto-Light-36" d="M 2634 4584 
L 2634 4256 
L 2591 4256 
Q 1775 4256 1306 3776 
Q 838 3297 788 2444 
Q 975 2703 1265 2845 
Q 1556 2988 1916 2988 
Q 2516 2988 2870 2573 
Q 3225 2159 3225 1491 
Q 3225 1047 3059 690 
Q 2894 334 2584 135 
Q 2275 -63 1878 -63 
Q 1225 -63 815 410 
Q 406 884 406 1634 
L 406 2009 
Q 406 3231 962 3901 
Q 1519 4572 2541 4584 
L 2634 4584 
z
M 1856 2666 
Q 1500 2666 1192 2455 
Q 884 2244 781 1919 
L 781 1600 
Q 781 1006 1086 631 
Q 1391 256 1878 256 
Q 2316 256 2586 603 
Q 2856 950 2856 1478 
Q 2856 2016 2586 2341 
Q 2316 2666 1856 2666 
z
" transform="scale(0.015625)"/>
       </defs>
       <use xlink:href="#Roboto-Light-36"/>
      </g>
     </g>
    </g>
    <g id="xtick_4">
     <g id="line2d_4">
      <g>
       <use xlink:href="#m14e39c5042" x="177.404251" y="114.26983" style="stroke: #000000; stroke-width: 0.3"/>
      </g>
     </g>
     <g id="text_4">
      <!-- 9 -->
      <g transform="translate(175.464485 123.51983) scale(0.07 -0.07)">
       <defs>
        <path id="Roboto-Light-39" d="M 2763 2106 
Q 2563 1813 2266 1652 
Q 1969 1491 1622 1491 
Q 1234 1491 937 1691 
Q 641 1891 478 2244 
Q 316 2597 316 3016 
Q 316 3466 489 3834 
Q 663 4203 973 4408 
Q 1284 4613 1691 4613 
Q 2375 4613 2756 4133 
Q 3138 3653 3138 2772 
L 3138 2434 
Q 3138 1203 2613 584 
Q 2088 -34 1009 -34 
L 941 -34 
L 944 291 
L 1075 291 
Q 1891 303 2316 753 
Q 2741 1203 2763 2106 
z
M 1669 1813 
Q 2044 1813 2342 2036 
Q 2641 2259 2766 2616 
L 2766 2831 
Q 2766 3525 2477 3908 
Q 2188 4291 1697 4291 
Q 1253 4291 968 3933 
Q 684 3575 684 3031 
Q 684 2509 957 2161 
Q 1231 1813 1669 1813 
z
" transform="scale(0.015625)"/>
       </defs>
       <use xlink:href="#Roboto-Light-39"/>
      </g>
     </g>
    </g>
    <g id="xtick_5">
     <g id="line2d_5">
      <g>
       <use xlink:href="#m14e39c5042" x="227.337971" y="114.26983" style="stroke: #000000; stroke-width: 0.3"/>
      </g>
     </g>
     <g id="text_5">
      <!-- 12 -->
      <g transform="translate(223.45844 123.51983) scale(0.07 -0.07)">
       <defs>
        <path id="Roboto-Light-31" d="M 2169 0 
L 1794 0 
L 1794 4100 
L 556 3641 
L 556 3991 
L 2106 4566 
L 2169 4566 
L 2169 0 
z
" transform="scale(0.015625)"/>
        <path id="Roboto-Light-32" d="M 3278 0 
L 428 0 
L 428 288 
L 1988 2056 
Q 2375 2503 2525 2793 
Q 2675 3084 2675 3359 
Q 2675 3791 2422 4042 
Q 2169 4294 1725 4294 
Q 1266 4294 983 4000 
Q 700 3706 700 3238 
L 328 3238 
Q 328 3622 501 3937 
Q 675 4253 995 4433 
Q 1316 4613 1725 4613 
Q 2350 4613 2701 4284 
Q 3053 3956 3053 3391 
Q 3053 3072 2854 2694 
Q 2656 2316 2156 1750 
L 888 316 
L 3278 316 
L 3278 0 
z
" transform="scale(0.015625)"/>
       </defs>
       <use xlink:href="#Roboto-Light-31"/>
       <use xlink:href="#Roboto-Light-32" transform="translate(55.419922 0)"/>
      </g>
     </g>
    </g>
    <g id="xtick_6">
     <g id="line2d_6">
      <g>
       <use xlink:href="#m14e39c5042" x="277.271692" y="114.26983" style="stroke: #000000; stroke-width: 0.3"/>
      </g>
     </g>
     <g id="text_6">
      <!-- 15 -->
      <g transform="translate(273.392161 123.51983) scale(0.07 -0.07)">
       <defs>
        <path id="Roboto-Light-35" d="M 681 2331 
L 903 4550 
L 3178 4550 
L 3178 4203 
L 1225 4203 
L 1066 2666 
Q 1431 2916 1922 2916 
Q 2538 2916 2903 2516 
Q 3269 2116 3269 1450 
Q 3269 731 2912 334 
Q 2556 -63 1909 -63 
Q 1316 -63 947 268 
Q 578 600 525 1197 
L 884 1197 
Q 938 731 1200 492 
Q 1463 253 1909 253 
Q 2397 253 2645 562 
Q 2894 872 2894 1444 
Q 2894 1944 2616 2259 
Q 2338 2575 1856 2575 
Q 1591 2575 1394 2508 
Q 1197 2441 978 2247 
L 681 2331 
z
" transform="scale(0.015625)"/>
       </defs>
       <use xlink:href="#Roboto-Light-31"/>
       <use xlink:href="#Roboto-Light-35" transform="translate(55.419922 0)"/>
      </g>
     </g>
    </g>
    <g id="text_7">
     <!-- Exergy efficiency [%] -->
     <g transform="translate(119.28446 135.035455) scale(0.075 -0.075)">
      <defs>
       <path id="Roboto-Light-45" d="M 3088 2181 
L 959 2181 
L 959 325 
L 3406 325 
L 3406 0 
L 575 0 
L 575 4550 
L 3391 4550 
L 3391 4222 
L 959 4222 
L 959 2506 
L 3088 2506 
L 3088 2181 
z
" transform="scale(0.015625)"/>
       <path id="Roboto-Light-78" d="M 1550 2009 
L 2463 3381 
L 2906 3381 
L 1759 1722 
L 2956 0 
L 2516 0 
L 1553 1431 
L 591 0 
L 150 0 
L 1344 1722 
L 197 3381 
L 638 3381 
L 1550 2009 
z
" transform="scale(0.015625)"/>
       <path id="Roboto-Light-65" d="M 1797 -63 
Q 1366 -63 1017 150 
Q 669 363 475 742 
Q 281 1122 281 1594 
L 281 1728 
Q 281 2216 470 2606 
Q 659 2997 996 3220 
Q 1334 3444 1728 3444 
Q 2344 3444 2705 3023 
Q 3066 2603 3066 1875 
L 3066 1666 
L 653 1666 
L 653 1594 
Q 653 1019 983 636 
Q 1313 253 1813 253 
Q 2113 253 2342 362 
Q 2572 472 2759 713 
L 2994 534 
Q 2581 -63 1797 -63 
z
M 1728 3125 
Q 1306 3125 1017 2815 
Q 728 2506 666 1984 
L 2694 1984 
L 2694 2025 
Q 2678 2513 2415 2819 
Q 2153 3125 1728 3125 
z
" transform="scale(0.015625)"/>
       <path id="Roboto-Light-72" d="M 2050 3063 
Q 1931 3084 1797 3084 
Q 1447 3084 1205 2889 
Q 963 2694 859 2322 
L 859 0 
L 488 0 
L 488 3381 
L 853 3381 
L 859 2844 
Q 1156 3444 1813 3444 
Q 1969 3444 2059 3403 
L 2050 3063 
z
" transform="scale(0.015625)"/>
       <path id="Roboto-Light-67" d="M 338 1722 
Q 338 2516 689 2980 
Q 1041 3444 1644 3444 
Q 2334 3444 2694 2894 
L 2713 3381 
L 3063 3381 
L 3063 69 
Q 3063 -584 2697 -965 
Q 2331 -1347 1706 -1347 
Q 1353 -1347 1033 -1189 
Q 713 -1031 528 -769 
L 738 -544 
Q 1134 -1031 1681 -1031 
Q 2150 -1031 2412 -754 
Q 2675 -478 2684 13 
L 2684 438 
Q 2325 -63 1638 -63 
Q 1050 -63 694 406 
Q 338 875 338 1672 
L 338 1722 
z
M 716 1656 
Q 716 1009 975 636 
Q 1234 263 1706 263 
Q 2397 263 2684 881 
L 2684 2453 
Q 2553 2778 2306 2948 
Q 2059 3119 1713 3119 
Q 1241 3119 978 2748 
Q 716 2378 716 1656 
z
" transform="scale(0.015625)"/>
       <path id="Roboto-Light-79" d="M 1559 538 
L 2547 3381 
L 2950 3381 
L 1506 -575 
L 1431 -750 
Q 1153 -1366 572 -1366 
Q 438 -1366 284 -1322 
L 281 -1013 
L 475 -1031 
Q 750 -1031 920 -895 
Q 1091 -759 1209 -428 
L 1375 28 
L 100 3381 
L 509 3381 
L 1559 538 
z
" transform="scale(0.015625)"/>
       <path id="Roboto-Light-20" transform="scale(0.015625)"/>
       <path id="Roboto-Light-66" d="M 756 0 
L 756 3075 
L 197 3075 
L 197 3381 
L 756 3381 
L 756 3791 
Q 756 4309 1020 4587 
Q 1284 4866 1756 4866 
Q 1969 4866 2153 4813 
L 2125 4500 
Q 1969 4538 1784 4538 
Q 1475 4538 1303 4345 
Q 1131 4153 1131 3800 
L 1131 3381 
L 1938 3381 
L 1938 3075 
L 1131 3075 
L 1131 0 
L 756 0 
z
" transform="scale(0.015625)"/>
       <path id="Roboto-Light-69" d="M 906 0 
L 531 0 
L 531 3381 
L 906 3381 
L 906 0 
z
M 466 4359 
Q 466 4466 534 4539 
Q 603 4613 722 4613 
Q 841 4613 911 4539 
Q 981 4466 981 4359 
Q 981 4253 911 4181 
Q 841 4109 722 4109 
Q 603 4109 534 4181 
Q 466 4253 466 4359 
z
" transform="scale(0.015625)"/>
       <path id="Roboto-Light-63" d="M 1738 253 
Q 2128 253 2392 473 
Q 2656 694 2678 1044 
L 3038 1044 
Q 3022 734 2844 479 
Q 2666 225 2370 81 
Q 2075 -63 1738 -63 
Q 1072 -63 683 400 
Q 294 863 294 1644 
L 294 1756 
Q 294 2256 469 2640 
Q 644 3025 970 3234 
Q 1297 3444 1734 3444 
Q 2291 3444 2652 3112 
Q 3013 2781 3038 2241 
L 2678 2241 
Q 2653 2638 2392 2881 
Q 2131 3125 1734 3125 
Q 1228 3125 948 2759 
Q 669 2394 669 1734 
L 669 1625 
Q 669 978 948 615 
Q 1228 253 1738 253 
z
" transform="scale(0.015625)"/>
       <path id="Roboto-Light-6e" d="M 844 3381 
L 856 2803 
Q 1047 3116 1331 3280 
Q 1616 3444 1959 3444 
Q 2503 3444 2768 3137 
Q 3034 2831 3038 2219 
L 3038 0 
L 2666 0 
L 2666 2222 
Q 2663 2675 2473 2897 
Q 2284 3119 1869 3119 
Q 1522 3119 1255 2901 
Q 988 2684 859 2316 
L 859 0 
L 488 0 
L 488 3381 
L 844 3381 
z
" transform="scale(0.015625)"/>
       <path id="Roboto-Light-5b" d="M 1541 4881 
L 884 4881 
L 884 -656 
L 1541 -656 
L 1541 -975 
L 509 -975 
L 509 5200 
L 1541 5200 
L 1541 4881 
z
" transform="scale(0.015625)"/>
       <path id="Roboto-Light-25" d="M 341 3675 
Q 341 4081 592 4348 
Q 844 4616 1231 4616 
Q 1619 4616 1870 4348 
Q 2122 4081 2122 3656 
L 2122 3434 
Q 2122 3034 1873 2767 
Q 1625 2500 1238 2500 
Q 853 2500 597 2762 
Q 341 3025 341 3456 
L 341 3675 
z
M 644 3434 
Q 644 3144 805 2956 
Q 966 2769 1238 2769 
Q 1503 2769 1661 2958 
Q 1819 3147 1819 3447 
L 1819 3675 
Q 1819 3966 1656 4155 
Q 1494 4344 1231 4344 
Q 972 4344 808 4156 
Q 644 3969 644 3656 
L 644 3434 
z
M 2631 1116 
Q 2631 1522 2882 1787 
Q 3134 2053 3518 2053 
Q 3903 2053 4158 1789 
Q 4413 1525 4413 1094 
L 4413 872 
Q 4413 466 4161 200 
Q 3909 -66 3525 -66 
Q 3141 -66 2886 198 
Q 2631 463 2631 888 
L 2631 1116 
z
M 2931 872 
Q 2931 578 3092 390 
Q 3253 203 3525 203 
Q 3794 203 3951 392 
Q 4109 581 4109 888 
L 4109 1116 
Q 4109 1416 3948 1598 
Q 3788 1781 3519 1781 
Q 3256 1781 3093 1597 
Q 2931 1413 2931 1103 
L 2931 872 
z
M 1356 378 
L 1122 528 
L 3344 4084 
L 3578 3934 
L 1356 378 
z
" transform="scale(0.015625)"/>
       <path id="Roboto-Light-5d" d="M 0 5200 
L 1034 5200 
L 1034 -975 
L 0 -975 
L 0 -656 
L 659 -656 
L 659 4881 
L 0 4881 
L 0 5200 
z
" transform="scale(0.015625)"/>
      </defs>
      <use xlink:href="#Roboto-Light-45"/>
      <use xlink:href="#Roboto-Light-78" transform="translate(56.884766 0)"/>
      <use xlink:href="#Roboto-Light-65" transform="translate(105.517578 0)"/>
      <use xlink:href="#Roboto-Light-72" transform="translate(157.177734 0)"/>
      <use xlink:href="#Roboto-Light-67" transform="translate(190.820312 0)"/>
      <use xlink:href="#Roboto-Light-79" transform="translate(246.289062 0)"/>
      <use xlink:href="#Roboto-Light-20" transform="translate(293.798828 0)"/>
      <use xlink:href="#Roboto-Light-65" transform="translate(318.115234 0)"/>
      <use xlink:href="#Roboto-Light-66" transform="translate(369.775391 0)"/>
      <use xlink:href="#Roboto-Light-66" transform="translate(402.880859 0)"/>
      <use xlink:href="#Roboto-Light-69" transform="translate(435.986328 0)"/>
      <use xlink:href="#Roboto-Light-63" transform="translate(458.398438 0)"/>
      <use xlink:href="#Roboto-Light-69" transform="translate(509.912109 0)"/>
      <use xlink:href="#Roboto-Light-65" transform="translate(532.324219 0)"/>
      <use xlink:href="#Roboto-Light-6e" transform="translate(583.984375 0)"/>
      <use xlink:href="#Roboto-Light-63" transform="translate(638.916016 0)"/>
      <use xlink:href="#Roboto-Light-79" transform="translate(690.429688 0)"/>
      <use xlink:href="#Roboto-Light-20" transform="translate(737.939453 0)"/>
      <use xlink:href="#Roboto-Light-5b" transform="translate(762.255859 0)"/>
      <use xlink:href="#Roboto-Light-25" transform="translate(786.230469 0)"/>
      <use xlink:href="#Roboto-Light-5d" transform="translate(860.107422 0)"/>
     </g>
    </g>
   </g>
   <g id="matplotlib.axis_2">
    <g id="ytick_1">
     <g id="line2d_7">
      <defs>
       <path id="mbd5317f55a" d="M 0 0 
L -2 0 
" style="stroke: #000000; stroke-width: 0.3"/>
      </defs>
      <g>
       <use xlink:href="#mbd5317f55a" x="27.603088" y="114.26983" style="stroke: #000000; stroke-width: 0.3"/>
      </g>
     </g>
     <g id="text_8">
      <!-- 0.0 -->
      <g transform="translate(15.172776 116.89483) scale(0.07 -0.07)">
       <defs>
        <path id="Roboto-Light-2e" d="M 453 225 
Q 453 334 523 411 
Q 594 488 719 488 
Q 844 488 916 411 
Q 988 334 988 225 
Q 988 116 916 45 
Q 844 -25 719 -25 
Q 594 -25 523 45 
Q 453 116 453 225 
z
" transform="scale(0.015625)"/>
       </defs>
       <use xlink:href="#Roboto-Light-30"/>
       <use xlink:href="#Roboto-Light-2e" transform="translate(55.419922 0)"/>
       <use xlink:href="#Roboto-Light-30" transform="translate(79.296875 0)"/>
      </g>
     </g>
    </g>
    <g id="ytick_2">
     <g id="line2d_8">
      <g>
       <use xlink:href="#mbd5317f55a" x="27.603088" y="87.055081" style="stroke: #000000; stroke-width: 0.3"/>
      </g>
     </g>
     <g id="text_9">
      <!-- 0.4 -->
      <g transform="translate(15.172776 89.680081) scale(0.07 -0.07)">
       <defs>
        <path id="Roboto-Light-34" d="M 2725 1466 
L 3434 1466 
L 3434 1150 
L 2725 1150 
L 2725 0 
L 2350 0 
L 2350 1150 
L 209 1150 
L 209 1363 
L 2316 4550 
L 2725 4550 
L 2725 1466 
z
M 669 1466 
L 2350 1466 
L 2350 4066 
L 2184 3778 
L 669 1466 
z
" transform="scale(0.015625)"/>
       </defs>
       <use xlink:href="#Roboto-Light-30"/>
       <use xlink:href="#Roboto-Light-2e" transform="translate(55.419922 0)"/>
       <use xlink:href="#Roboto-Light-34" transform="translate(79.296875 0)"/>
      </g>
     </g>
    </g>
    <g id="ytick_3">
     <g id="line2d_9">
      <g>
       <use xlink:href="#mbd5317f55a" x="27.603088" y="59.840333" style="stroke: #000000; stroke-width: 0.3"/>
      </g>
     </g>
     <g id="text_10">
      <!-- 0.8 -->
      <g transform="translate(15.172776 62.465333) scale(0.07 -0.07)">
       <defs>
        <path id="Roboto-Light-38" d="M 3109 3378 
Q 3109 3025 2903 2745 
Q 2697 2466 2359 2334 
Q 2753 2200 2990 1900 
Q 3228 1600 3228 1206 
Q 3228 622 2831 279 
Q 2434 -63 1781 -63 
Q 1122 -63 726 278 
Q 331 619 331 1206 
Q 331 1594 559 1897 
Q 788 2200 1184 2334 
Q 847 2466 647 2745 
Q 447 3025 447 3378 
Q 447 3944 811 4278 
Q 1175 4613 1775 4613 
Q 2375 4613 2742 4275 
Q 3109 3938 3109 3378 
z
M 2853 1203 
Q 2853 1628 2550 1901 
Q 2247 2175 1775 2175 
Q 1303 2175 1003 1906 
Q 703 1638 703 1203 
Q 703 769 993 511 
Q 1284 253 1781 253 
Q 2266 253 2559 509 
Q 2853 766 2853 1203 
z
M 2734 3381 
Q 2734 3772 2464 4033 
Q 2194 4294 1775 4294 
Q 1350 4294 1086 4042 
Q 822 3791 822 3381 
Q 822 2981 1086 2737 
Q 1350 2494 1778 2494 
Q 2200 2494 2467 2739 
Q 2734 2984 2734 3381 
z
" transform="scale(0.015625)"/>
       </defs>
       <use xlink:href="#Roboto-Light-30"/>
       <use xlink:href="#Roboto-Light-2e" transform="translate(55.419922 0)"/>
       <use xlink:href="#Roboto-Light-38" transform="translate(79.296875 0)"/>
      </g>
     </g>
    </g>
    <g id="ytick_4">
     <g id="line2d_10">
      <g>
       <use xlink:href="#mbd5317f55a" x="27.603088" y="32.625584" style="stroke: #000000; stroke-width: 0.3"/>
      </g>
     </g>
     <g id="text_11">
      <!-- 1.2 -->
      <g transform="translate(15.172776 35.250584) scale(0.07 -0.07)">
       <use xlink:href="#Roboto-Light-31"/>
       <use xlink:href="#Roboto-Light-2e" transform="translate(55.419922 0)"/>
       <use xlink:href="#Roboto-Light-32" transform="translate(79.296875 0)"/>
      </g>
     </g>
    </g>
    <g id="ytick_5">
     <g id="line2d_11">
      <g>
       <use xlink:href="#mbd5317f55a" x="27.603088" y="5.410836" style="stroke: #000000; stroke-width: 0.3"/>
      </g>
     </g>
     <g id="text_12">
      <!-- 1.6 -->
      <g transform="translate(15.172776 8.035836) scale(0.07 -0.07)">
       <use xlink:href="#Roboto-Light-31"/>
       <use xlink:href="#Roboto-Light-2e" transform="translate(55.419922 0)"/>
       <use xlink:href="#Roboto-Light-36" transform="translate(79.296875 0)"/>
      </g>
     </g>
    </g>
    <g id="text_13">
     <!-- Probability density -->
     <g transform="translate(9.571994 89.901856) rotate(-90) scale(0.075 -0.075)">
      <defs>
       <path id="Roboto-Light-50" d="M 959 1853 
L 959 0 
L 575 0 
L 575 4550 
L 2125 4550 
Q 2834 4550 3245 4187 
Q 3656 3825 3656 3191 
Q 3656 2550 3261 2201 
Q 2866 1853 2116 1853 
L 959 1853 
z
M 959 2178 
L 2125 2178 
Q 2684 2178 2978 2443 
Q 3272 2709 3272 3184 
Q 3272 3656 2980 3936 
Q 2688 4216 2150 4222 
L 959 4222 
L 959 2178 
z
" transform="scale(0.015625)"/>
       <path id="Roboto-Light-6f" d="M 281 1741 
Q 281 2228 470 2618 
Q 659 3009 1004 3226 
Q 1350 3444 1788 3444 
Q 2463 3444 2881 2970 
Q 3300 2497 3300 1716 
L 3300 1638 
Q 3300 1147 3111 755 
Q 2922 363 2578 150 
Q 2234 -63 1794 -63 
Q 1122 -63 701 410 
Q 281 884 281 1666 
L 281 1741 
z
M 656 1638 
Q 656 1031 970 642 
Q 1284 253 1794 253 
Q 2300 253 2614 642 
Q 2928 1031 2928 1669 
L 2928 1741 
Q 2928 2128 2784 2450 
Q 2641 2772 2381 2948 
Q 2122 3125 1788 3125 
Q 1288 3125 972 2733 
Q 656 2341 656 1706 
L 656 1638 
z
" transform="scale(0.015625)"/>
       <path id="Roboto-Light-62" d="M 3209 1656 
Q 3209 866 2859 401 
Q 2509 -63 1919 -63 
Q 1213 -63 850 463 
L 834 0 
L 484 0 
L 484 4800 
L 856 4800 
L 856 2891 
Q 1213 3444 1913 3444 
Q 2513 3444 2861 2986 
Q 3209 2528 3209 1713 
L 3209 1656 
z
M 2834 1722 
Q 2834 2391 2575 2755 
Q 2316 3119 1844 3119 
Q 1484 3119 1234 2942 
Q 984 2766 856 2425 
L 856 900 
Q 1138 263 1850 263 
Q 2313 263 2573 628 
Q 2834 994 2834 1722 
z
" transform="scale(0.015625)"/>
       <path id="Roboto-Light-61" d="M 2622 0 
Q 2566 159 2550 472 
Q 2353 216 2048 76 
Q 1744 -63 1403 -63 
Q 916 -63 614 209 
Q 313 481 313 897 
Q 313 1391 723 1678 
Q 1134 1966 1869 1966 
L 2547 1966 
L 2547 2350 
Q 2547 2713 2323 2920 
Q 2100 3128 1672 3128 
Q 1281 3128 1025 2928 
Q 769 2728 769 2447 
L 394 2450 
Q 394 2853 769 3148 
Q 1144 3444 1691 3444 
Q 2256 3444 2582 3161 
Q 2909 2878 2919 2372 
L 2919 772 
Q 2919 281 3022 38 
L 3022 0 
L 2622 0 
z
M 1447 269 
Q 1822 269 2117 450 
Q 2413 631 2547 934 
L 2547 1678 
L 1878 1678 
Q 1319 1672 1003 1473 
Q 688 1275 688 928 
Q 688 644 898 456 
Q 1109 269 1447 269 
z
" transform="scale(0.015625)"/>
       <path id="Roboto-Light-6c" d="M 906 0 
L 531 0 
L 531 4800 
L 906 4800 
L 906 0 
z
" transform="scale(0.015625)"/>
       <path id="Roboto-Light-74" d="M 1069 4247 
L 1069 3381 
L 1769 3381 
L 1769 3075 
L 1069 3075 
L 1069 822 
Q 1069 541 1170 403 
Q 1272 266 1509 266 
Q 1603 266 1813 297 
L 1828 -9 
Q 1681 -63 1428 -63 
Q 1044 -63 869 160 
Q 694 384 694 819 
L 694 3075 
L 72 3075 
L 72 3381 
L 694 3381 
L 694 4247 
L 1069 4247 
z
" transform="scale(0.015625)"/>
       <path id="Roboto-Light-64" d="M 338 1722 
Q 338 2509 689 2976 
Q 1041 3444 1644 3444 
Q 2328 3444 2688 2903 
L 2688 4800 
L 3059 4800 
L 3059 0 
L 2709 0 
L 2694 450 
Q 2334 -63 1638 -63 
Q 1053 -63 695 407 
Q 338 878 338 1678 
L 338 1722 
z
M 716 1656 
Q 716 1009 975 636 
Q 1234 263 1706 263 
Q 2397 263 2688 872 
L 2688 2459 
Q 2397 3119 1713 3119 
Q 1241 3119 978 2748 
Q 716 2378 716 1656 
z
" transform="scale(0.015625)"/>
       <path id="Roboto-Light-73" d="M 2513 859 
Q 2513 1138 2289 1306 
Q 2066 1475 1616 1570 
Q 1166 1666 917 1789 
Q 669 1913 548 2091 
Q 428 2269 428 2522 
Q 428 2922 762 3183 
Q 1097 3444 1619 3444 
Q 2184 3444 2526 3164 
Q 2869 2884 2869 2434 
L 2494 2434 
Q 2494 2731 2245 2928 
Q 1997 3125 1619 3125 
Q 1250 3125 1026 2961 
Q 803 2797 803 2534 
Q 803 2281 989 2142 
Q 1175 2003 1667 1887 
Q 2159 1772 2404 1640 
Q 2650 1509 2769 1325 
Q 2888 1141 2888 878 
Q 2888 450 2542 193 
Q 2197 -63 1641 -63 
Q 1050 -63 683 223 
Q 316 509 316 947 
L 691 947 
Q 713 619 967 436 
Q 1222 253 1641 253 
Q 2031 253 2272 425 
Q 2513 597 2513 859 
z
" transform="scale(0.015625)"/>
      </defs>
      <use xlink:href="#Roboto-Light-50"/>
      <use xlink:href="#Roboto-Light-72" transform="translate(61.572266 0)"/>
      <use xlink:href="#Roboto-Light-6f" transform="translate(95.214844 0)"/>
      <use xlink:href="#Roboto-Light-62" transform="translate(151.220703 0)"/>
      <use xlink:href="#Roboto-Light-61" transform="translate(206.640625 0)"/>
      <use xlink:href="#Roboto-Light-62" transform="translate(260.205078 0)"/>
      <use xlink:href="#Roboto-Light-69" transform="translate(315.625 0)"/>
      <use xlink:href="#Roboto-Light-6c" transform="translate(338.037109 0)"/>
      <use xlink:href="#Roboto-Light-69" transform="translate(360.449219 0)"/>
      <use xlink:href="#Roboto-Light-74" transform="translate(382.861328 0)"/>
      <use xlink:href="#Roboto-Light-79" transform="translate(414.990234 0)"/>
      <use xlink:href="#Roboto-Light-20" transform="translate(462.5 0)"/>
      <use xlink:href="#Roboto-Light-64" transform="translate(486.816406 0)"/>
      <use xlink:href="#Roboto-Light-65" transform="translate(542.382812 0)"/>
      <use xlink:href="#Roboto-Light-6e" transform="translate(594.042969 0)"/>
      <use xlink:href="#Roboto-Light-73" transform="translate(648.974609 0)"/>
      <use xlink:href="#Roboto-Light-69" transform="translate(699.609375 0)"/>
      <use xlink:href="#Roboto-Light-74" transform="translate(722.021484 0)"/>
      <use xlink:href="#Roboto-Light-79" transform="translate(754.150391 0)"/>
     </g>
    </g>
   </g>
  </g>
 </g>
 <defs>
  <clipPath id="p4946b18cd0">
   <rect x="27.603088" y="5.410836" width="249.668604" height="108.858994"/>
  </clipPath>
 </defs>
</svg>
