<?xml version="1.0" encoding="utf-8" standalone="no"?>
<!DOCTYPE svg PUBLIC "-//W3C//DTD SVG 1.1//EN"
  "http://www.w3.org/Graphics/SVG/1.1/DTD/svg11.dtd">
<svg xmlns:xlink="http://www.w3.org/1999/xlink" width="340.15748pt" height="226.771654pt" viewBox="0 0 340.15748 226.771654" xmlns="http://www.w3.org/2000/svg" version="1.1">
 <metadata>
  <rdf:RDF xmlns:dc="http://purl.org/dc/elements/1.1/" xmlns:cc="http://creativecommons.org/ns#" xmlns:rdf="http://www.w3.org/1999/02/22-rdf-syntax-ns#">
   <cc:Work>
    <dc:type rdf:resource="http://purl.org/dc/dcmitype/StillImage"/>
    <dc:date>2025-09-12T10:16:40.191167</dc:date>
    <dc:format>image/svg+xml</dc:format>
    <dc:creator>
     <cc:Agent>
      <dc:title>Matplotlib v3.10.3, https://matplotlib.org/</dc:title>
     </cc:Agent>
    </dc:creator>
   </cc:Work>
  </rdf:RDF>
 </metadata>
 <defs>
  <style type="text/css">*{stroke-linejoin: round; stroke-linecap: butt}</style>
 </defs>
 <g id="figure_1">
  <g id="patch_1">
   <path d="M 0 226.771654 
L 340.15748 226.771654 
L 340.15748 0 
L 0 0 
L 0 226.771654 
z
" style="fill: none"/>
  </g>
  <g id="axes_1">
   <g id="patch_2">
    <path d="M 34.015748 215.433071 
L 157.322835 215.433071 
L 157.322835 27.212598 
L 34.015748 27.212598 
L 34.015748 215.433071 
z
" style="fill: none"/>
   </g>
   <g id="patch_3">
    <path d="M 56.435218 215.433071 
L 90.064424 215.433071 
L 90.064424 105.008968 
L 56.435218 105.008968 
z
" clip-path="url(#p7a05805b09)" style="fill: #868e96"/>
   </g>
   <g id="patch_4">
    <path d="M 101.274159 215.433071 
L 134.903364 215.433071 
L 134.903364 41.341016 
L 101.274159 41.341016 
z
" clip-path="url(#p7a05805b09)" style="fill: #fa5252"/>
   </g>
   <g id="patch_5">
    <path d="M 34.015748 215.433071 
L 34.015748 27.212598 
" style="fill: none; stroke: #000000; stroke-width: 0.3; stroke-linejoin: miter; stroke-linecap: square"/>
   </g>
   <g id="patch_6">
    <path d="M 34.015748 215.433071 
L 157.322835 215.433071 
" style="fill: none; stroke: #000000; stroke-width: 0.3; stroke-linejoin: miter; stroke-linecap: square"/>
   </g>
   <g id="matplotlib.axis_1">
    <g id="xtick_1">
     <g id="line2d_1"/>
    </g>
    <g id="xtick_2">
     <g id="line2d_2"/>
    </g>
   </g>
   <g id="matplotlib.axis_2">
    <g id="ytick_1">
     <g id="line2d_3">
      <defs>
       <path id="m5f7842d17d" d="M 0 0 
L -2.5 0 
" style="stroke: #000000; stroke-width: 0.5"/>
      </defs>
      <g>
       <use xlink:href="#m5f7842d17d" x="34.015748" y="215.433071" style="stroke: #000000; stroke-width: 0.5"/>
      </g>
     </g>
     <g id="text_1">
      <!-- 0 -->
      <g transform="translate(23.081998 218.433071) scale(0.08 -0.08)">
       <defs>
        <path id="Roboto-Light-30" d="M 3172 1897 
Q 3172 934 2819 435 
Q 2466 -63 1778 -63 
Q 1103 -63 743 426 
Q 384 916 375 1850 
L 375 2666 
Q 375 3625 731 4119 
Q 1088 4613 1772 4613 
Q 2447 4613 2803 4136 
Q 3159 3659 3172 2731 
L 3172 1897 
z
M 2797 2713 
Q 2797 3494 2542 3894 
Q 2288 4294 1772 4294 
Q 1266 4294 1009 3903 
Q 753 3513 747 2750 
L 747 1856 
Q 747 1078 1011 665 
Q 1275 253 1778 253 
Q 2278 253 2536 656 
Q 2794 1059 2797 1838 
L 2797 2713 
z
" transform="scale(0.015625)"/>
       </defs>
       <use xlink:href="#Roboto-Light-30"/>
      </g>
     </g>
    </g>
    <g id="ytick_2">
     <g id="line2d_4">
      <g>
       <use xlink:href="#m5f7842d17d" x="34.015748" y="184.062992" style="stroke: #000000; stroke-width: 0.5"/>
      </g>
     </g>
     <g id="text_2">
      <!-- 5 -->
      <g transform="translate(23.081998 187.062992) scale(0.08 -0.08)">
       <defs>
        <path id="Roboto-Light-35" d="M 681 2331 
L 903 4550 
L 3178 4550 
L 3178 4203 
L 1225 4203 
L 1066 2666 
Q 1431 2916 1922 2916 
Q 2538 2916 2903 2516 
Q 3269 2116 3269 1450 
Q 3269 731 2912 334 
Q 2556 -63 1909 -63 
Q 1316 -63 947 268 
Q 578 600 525 1197 
L 884 1197 
Q 938 731 1200 492 
Q 1463 253 1909 253 
Q 2397 253 2645 562 
Q 2894 872 2894 1444 
Q 2894 1944 2616 2259 
Q 2338 2575 1856 2575 
Q 1591 2575 1394 2508 
Q 1197 2441 978 2247 
L 681 2331 
z
" transform="scale(0.015625)"/>
       </defs>
       <use xlink:href="#Roboto-Light-35"/>
      </g>
     </g>
    </g>
    <g id="ytick_3">
     <g id="line2d_5">
      <g>
       <use xlink:href="#m5f7842d17d" x="34.015748" y="152.692913" style="stroke: #000000; stroke-width: 0.5"/>
      </g>
     </g>
     <g id="text_3">
      <!-- 10 -->
      <g transform="translate(18.648248 155.692913) scale(0.08 -0.08)">
       <defs>
        <path id="Roboto-Light-31" d="M 2169 0 
L 1794 0 
L 1794 4100 
L 556 3641 
L 556 3991 
L 2106 4566 
L 2169 4566 
L 2169 0 
z
" transform="scale(0.015625)"/>
       </defs>
       <use xlink:href="#Roboto-Light-31"/>
       <use xlink:href="#Roboto-Light-30" transform="translate(55.419922 0)"/>
      </g>
     </g>
    </g>
    <g id="ytick_4">
     <g id="line2d_6">
      <g>
       <use xlink:href="#m5f7842d17d" x="34.015748" y="121.322835" style="stroke: #000000; stroke-width: 0.5"/>
      </g>
     </g>
     <g id="text_4">
      <!-- 15 -->
      <g transform="translate(18.648248 124.322835) scale(0.08 -0.08)">
       <use xlink:href="#Roboto-Light-31"/>
       <use xlink:href="#Roboto-Light-35" transform="translate(55.419922 0)"/>
      </g>
     </g>
    </g>
    <g id="ytick_5">
     <g id="line2d_7">
      <g>
       <use xlink:href="#m5f7842d17d" x="34.015748" y="89.952756" style="stroke: #000000; stroke-width: 0.5"/>
      </g>
     </g>
     <g id="text_5">
      <!-- 20 -->
      <g transform="translate(18.648248 92.952756) scale(0.08 -0.08)">
       <defs>
        <path id="Roboto-Light-32" d="M 3278 0 
L 428 0 
L 428 288 
L 1988 2056 
Q 2375 2503 2525 2793 
Q 2675 3084 2675 3359 
Q 2675 3791 2422 4042 
Q 2169 4294 1725 4294 
Q 1266 4294 983 4000 
Q 700 3706 700 3238 
L 328 3238 
Q 328 3622 501 3937 
Q 675 4253 995 4433 
Q 1316 4613 1725 4613 
Q 2350 4613 2701 4284 
Q 3053 3956 3053 3391 
Q 3053 3072 2854 2694 
Q 2656 2316 2156 1750 
L 888 316 
L 3278 316 
L 3278 0 
z
" transform="scale(0.015625)"/>
       </defs>
       <use xlink:href="#Roboto-Light-32"/>
       <use xlink:href="#Roboto-Light-30" transform="translate(55.419922 0)"/>
      </g>
     </g>
    </g>
    <g id="ytick_6">
     <g id="line2d_8">
      <g>
       <use xlink:href="#m5f7842d17d" x="34.015748" y="58.582677" style="stroke: #000000; stroke-width: 0.5"/>
      </g>
     </g>
     <g id="text_6">
      <!-- 25 -->
      <g transform="translate(18.648248 61.582677) scale(0.08 -0.08)">
       <use xlink:href="#Roboto-Light-32"/>
       <use xlink:href="#Roboto-Light-35" transform="translate(55.419922 0)"/>
      </g>
     </g>
    </g>
    <g id="ytick_7">
     <g id="line2d_9">
      <g>
       <use xlink:href="#m5f7842d17d" x="34.015748" y="27.212598" style="stroke: #000000; stroke-width: 0.5"/>
      </g>
     </g>
     <g id="text_7">
      <!-- 30 -->
      <g transform="translate(18.648248 30.212598) scale(0.08 -0.08)">
       <defs>
        <path id="Roboto-Light-33" d="M 1259 2478 
L 1647 2478 
Q 1969 2478 2209 2592 
Q 2450 2706 2576 2904 
Q 2703 3103 2703 3363 
Q 2703 3800 2456 4047 
Q 2209 4294 1747 4294 
Q 1309 4294 1029 4036 
Q 750 3778 750 3356 
L 375 3356 
Q 375 3709 553 4001 
Q 731 4294 1047 4453 
Q 1363 4613 1747 4613 
Q 2366 4613 2722 4275 
Q 3078 3938 3078 3350 
Q 3078 3022 2870 2745 
Q 2663 2469 2300 2331 
Q 2725 2213 2944 1923 
Q 3163 1634 3163 1234 
Q 3163 650 2781 293 
Q 2400 -63 1763 -63 
Q 1356 -63 1017 100 
Q 678 263 492 555 
Q 306 847 306 1234 
L 681 1234 
Q 681 800 984 526 
Q 1288 253 1763 253 
Q 2247 253 2517 501 
Q 2788 750 2788 1222 
Q 2788 1678 2495 1918 
Q 2203 2159 1634 2159 
L 1259 2159 
L 1259 2478 
z
" transform="scale(0.015625)"/>
       </defs>
       <use xlink:href="#Roboto-Light-33"/>
       <use xlink:href="#Roboto-Light-30" transform="translate(55.419922 0)"/>
      </g>
     </g>
    </g>
    <g id="text_8">
     <!-- Service hot water energy rate ($Q_{w,serv}$) [kW] -->
     <g transform="translate(10.308248 204.257835) rotate(-90) scale(0.09 -0.09)">
      <defs>
       <path id="Roboto-Light-53" d="M 3150 1119 
Q 3150 1497 2884 1717 
Q 2619 1938 1912 2136 
Q 1206 2334 881 2569 
Q 419 2900 419 3438 
Q 419 3959 848 4286 
Q 1278 4613 1947 4613 
Q 2400 4613 2758 4438 
Q 3116 4263 3312 3950 
Q 3509 3638 3509 3253 
L 3122 3253 
Q 3122 3719 2803 4001 
Q 2484 4284 1947 4284 
Q 1425 4284 1115 4051 
Q 806 3819 806 3444 
Q 806 3097 1084 2878 
Q 1363 2659 1975 2492 
Q 2588 2325 2903 2145 
Q 3219 1966 3378 1716 
Q 3538 1466 3538 1125 
Q 3538 588 3108 262 
Q 2678 -63 1975 -63 
Q 1494 -63 1092 109 
Q 691 281 483 590 
Q 275 900 275 1300 
L 659 1300 
Q 659 819 1018 541 
Q 1378 263 1975 263 
Q 2506 263 2828 497 
Q 3150 731 3150 1119 
z
" transform="scale(0.015625)"/>
       <path id="Roboto-Light-65" d="M 1797 -63 
Q 1366 -63 1017 150 
Q 669 363 475 742 
Q 281 1122 281 1594 
L 281 1728 
Q 281 2216 470 2606 
Q 659 2997 996 3220 
Q 1334 3444 1728 3444 
Q 2344 3444 2705 3023 
Q 3066 2603 3066 1875 
L 3066 1666 
L 653 1666 
L 653 1594 
Q 653 1019 983 636 
Q 1313 253 1813 253 
Q 2113 253 2342 362 
Q 2572 472 2759 713 
L 2994 534 
Q 2581 -63 1797 -63 
z
M 1728 3125 
Q 1306 3125 1017 2815 
Q 728 2506 666 1984 
L 2694 1984 
L 2694 2025 
Q 2678 2513 2415 2819 
Q 2153 3125 1728 3125 
z
" transform="scale(0.015625)"/>
       <path id="Roboto-Light-72" d="M 2050 3063 
Q 1931 3084 1797 3084 
Q 1447 3084 1205 2889 
Q 963 2694 859 2322 
L 859 0 
L 488 0 
L 488 3381 
L 853 3381 
L 859 2844 
Q 1156 3444 1813 3444 
Q 1969 3444 2059 3403 
L 2050 3063 
z
" transform="scale(0.015625)"/>
       <path id="Roboto-Light-76" d="M 1541 516 
L 2569 3381 
L 2953 3381 
L 1691 0 
L 1388 0 
L 119 3381 
L 503 3381 
L 1541 516 
z
" transform="scale(0.015625)"/>
       <path id="Roboto-Light-69" d="M 906 0 
L 531 0 
L 531 3381 
L 906 3381 
L 906 0 
z
M 466 4359 
Q 466 4466 534 4539 
Q 603 4613 722 4613 
Q 841 4613 911 4539 
Q 981 4466 981 4359 
Q 981 4253 911 4181 
Q 841 4109 722 4109 
Q 603 4109 534 4181 
Q 466 4253 466 4359 
z
" transform="scale(0.015625)"/>
       <path id="Roboto-Light-63" d="M 1738 253 
Q 2128 253 2392 473 
Q 2656 694 2678 1044 
L 3038 1044 
Q 3022 734 2844 479 
Q 2666 225 2370 81 
Q 2075 -63 1738 -63 
Q 1072 -63 683 400 
Q 294 863 294 1644 
L 294 1756 
Q 294 2256 469 2640 
Q 644 3025 970 3234 
Q 1297 3444 1734 3444 
Q 2291 3444 2652 3112 
Q 3013 2781 3038 2241 
L 2678 2241 
Q 2653 2638 2392 2881 
Q 2131 3125 1734 3125 
Q 1228 3125 948 2759 
Q 669 2394 669 1734 
L 669 1625 
Q 669 978 948 615 
Q 1228 253 1738 253 
z
" transform="scale(0.015625)"/>
       <path id="Roboto-Light-20" transform="scale(0.015625)"/>
       <path id="Roboto-Light-68" d="M 859 2809 
Q 1044 3113 1331 3278 
Q 1619 3444 1959 3444 
Q 2503 3444 2768 3137 
Q 3034 2831 3038 2219 
L 3038 0 
L 2666 0 
L 2666 2222 
Q 2663 2675 2473 2897 
Q 2284 3119 1869 3119 
Q 1522 3119 1255 2901 
Q 988 2684 859 2316 
L 859 0 
L 488 0 
L 488 4800 
L 859 4800 
L 859 2809 
z
" transform="scale(0.015625)"/>
       <path id="Roboto-Light-6f" d="M 281 1741 
Q 281 2228 470 2618 
Q 659 3009 1004 3226 
Q 1350 3444 1788 3444 
Q 2463 3444 2881 2970 
Q 3300 2497 3300 1716 
L 3300 1638 
Q 3300 1147 3111 755 
Q 2922 363 2578 150 
Q 2234 -63 1794 -63 
Q 1122 -63 701 410 
Q 281 884 281 1666 
L 281 1741 
z
M 656 1638 
Q 656 1031 970 642 
Q 1284 253 1794 253 
Q 2300 253 2614 642 
Q 2928 1031 2928 1669 
L 2928 1741 
Q 2928 2128 2784 2450 
Q 2641 2772 2381 2948 
Q 2122 3125 1788 3125 
Q 1288 3125 972 2733 
Q 656 2341 656 1706 
L 656 1638 
z
" transform="scale(0.015625)"/>
       <path id="Roboto-Light-74" d="M 1069 4247 
L 1069 3381 
L 1769 3381 
L 1769 3075 
L 1069 3075 
L 1069 822 
Q 1069 541 1170 403 
Q 1272 266 1509 266 
Q 1603 266 1813 297 
L 1828 -9 
Q 1681 -63 1428 -63 
Q 1044 -63 869 160 
Q 694 384 694 819 
L 694 3075 
L 72 3075 
L 72 3381 
L 694 3381 
L 694 4247 
L 1069 4247 
z
" transform="scale(0.015625)"/>
       <path id="Roboto-Light-77" d="M 1297 778 
L 1353 488 
L 1428 794 
L 2241 3381 
L 2559 3381 
L 3363 816 
L 3450 459 
L 3522 788 
L 4216 3381 
L 4603 3381 
L 3619 0 
L 3300 0 
L 2431 2681 
L 2391 2866 
L 2350 2678 
L 1497 0 
L 1178 0 
L 197 3381 
L 581 3381 
L 1297 778 
z
" transform="scale(0.015625)"/>
       <path id="Roboto-Light-61" d="M 2622 0 
Q 2566 159 2550 472 
Q 2353 216 2048 76 
Q 1744 -63 1403 -63 
Q 916 -63 614 209 
Q 313 481 313 897 
Q 313 1391 723 1678 
Q 1134 1966 1869 1966 
L 2547 1966 
L 2547 2350 
Q 2547 2713 2323 2920 
Q 2100 3128 1672 3128 
Q 1281 3128 1025 2928 
Q 769 2728 769 2447 
L 394 2450 
Q 394 2853 769 3148 
Q 1144 3444 1691 3444 
Q 2256 3444 2582 3161 
Q 2909 2878 2919 2372 
L 2919 772 
Q 2919 281 3022 38 
L 3022 0 
L 2622 0 
z
M 1447 269 
Q 1822 269 2117 450 
Q 2413 631 2547 934 
L 2547 1678 
L 1878 1678 
Q 1319 1672 1003 1473 
Q 688 1275 688 928 
Q 688 644 898 456 
Q 1109 269 1447 269 
z
" transform="scale(0.015625)"/>
       <path id="Roboto-Light-6e" d="M 844 3381 
L 856 2803 
Q 1047 3116 1331 3280 
Q 1616 3444 1959 3444 
Q 2503 3444 2768 3137 
Q 3034 2831 3038 2219 
L 3038 0 
L 2666 0 
L 2666 2222 
Q 2663 2675 2473 2897 
Q 2284 3119 1869 3119 
Q 1522 3119 1255 2901 
Q 988 2684 859 2316 
L 859 0 
L 488 0 
L 488 3381 
L 844 3381 
z
" transform="scale(0.015625)"/>
       <path id="Roboto-Light-67" d="M 338 1722 
Q 338 2516 689 2980 
Q 1041 3444 1644 3444 
Q 2334 3444 2694 2894 
L 2713 3381 
L 3063 3381 
L 3063 69 
Q 3063 -584 2697 -965 
Q 2331 -1347 1706 -1347 
Q 1353 -1347 1033 -1189 
Q 713 -1031 528 -769 
L 738 -544 
Q 1134 -1031 1681 -1031 
Q 2150 -1031 2412 -754 
Q 2675 -478 2684 13 
L 2684 438 
Q 2325 -63 1638 -63 
Q 1050 -63 694 406 
Q 338 875 338 1672 
L 338 1722 
z
M 716 1656 
Q 716 1009 975 636 
Q 1234 263 1706 263 
Q 2397 263 2684 881 
L 2684 2453 
Q 2553 2778 2306 2948 
Q 2059 3119 1713 3119 
Q 1241 3119 978 2748 
Q 716 2378 716 1656 
z
" transform="scale(0.015625)"/>
       <path id="Roboto-Light-79" d="M 1559 538 
L 2547 3381 
L 2950 3381 
L 1506 -575 
L 1431 -750 
Q 1153 -1366 572 -1366 
Q 438 -1366 284 -1322 
L 281 -1013 
L 475 -1031 
Q 750 -1031 920 -895 
Q 1091 -759 1209 -428 
L 1375 28 
L 100 3381 
L 509 3381 
L 1559 538 
z
" transform="scale(0.015625)"/>
       <path id="Roboto-Light-28" d="M 438 1838 
Q 438 2519 613 3161 
Q 788 3803 1125 4336 
Q 1463 4869 1850 5100 
L 1941 4847 
Q 1734 4700 1531 4419 
Q 1328 4138 1168 3750 
Q 1009 3363 911 2880 
Q 813 2397 813 1784 
Q 813 1131 961 528 
Q 1109 -75 1368 -536 
Q 1628 -997 1941 -1228 
L 1850 -1469 
Q 1453 -1231 1115 -701 
Q 778 -172 608 464 
Q 438 1100 438 1838 
z
" transform="scale(0.015625)"/>
       <path id="Roboto-LightItalic-51" d="M 2659 156 
L 3334 -572 
L 3050 -794 
L 2294 6 
Q 2025 -59 1781 -59 
Q 1366 -56 1053 141 
Q 741 338 567 708 
Q 394 1078 375 1534 
Q 363 1791 397 2028 
L 466 2494 
Q 559 3122 856 3622 
Q 1153 4122 1581 4372 
Q 2009 4622 2525 4613 
Q 3163 4600 3538 4172 
Q 3913 3744 3941 3019 
Q 3950 2750 3913 2494 
L 3831 1956 
Q 3597 659 2659 156 
z
M 3538 2525 
Q 3563 2722 3566 2928 
Q 3566 3313 3444 3628 
Q 3322 3944 3083 4106 
Q 2844 4269 2506 4278 
Q 1875 4294 1436 3823 
Q 997 3353 859 2556 
Q 750 1916 750 1628 
Q 750 1013 1023 648 
Q 1297 284 1806 272 
Q 2469 256 2906 747 
Q 3344 1238 3469 2072 
L 3538 2525 
z
" transform="scale(0.015625)"/>
       <path id="Roboto-LightItalic-77" d="M 1069 778 
L 1069 513 
L 1191 803 
L 2425 3381 
L 2744 3381 
L 3078 797 
L 3097 478 
L 3225 800 
L 4344 3381 
L 4741 3381 
L 3197 0 
L 2878 0 
L 2506 2681 
L 2503 2869 
L 2431 2678 
L 1138 0 
L 819 0 
L 459 3381 
L 809 3384 
L 1069 778 
z
" transform="scale(0.015625)"/>
       <path id="Roboto-Light-2c" d="M 409 -850 
L 188 -688 
Q 472 -306 481 103 
L 481 588 
L 847 588 
L 847 197 
Q 847 -453 409 -850 
z
" transform="scale(0.015625)"/>
       <path id="Roboto-LightItalic-73" d="M 2281 881 
Q 2331 1313 1756 1506 
L 1219 1666 
Q 478 1916 519 2500 
Q 541 2922 908 3186 
Q 1275 3450 1781 3444 
Q 2278 3438 2587 3164 
Q 2897 2891 2875 2434 
L 2506 2434 
Q 2525 2738 2317 2928 
Q 2109 3119 1766 3125 
Q 1409 3125 1165 2958 
Q 922 2791 891 2516 
Q 844 2113 1384 1950 
L 1775 1838 
L 1984 1766 
Q 2691 1500 2650 900 
Q 2625 494 2298 233 
Q 1972 -28 1456 -59 
L 1328 -63 
Q 988 -56 713 70 
Q 438 197 291 425 
Q 144 653 163 950 
L 534 947 
Q 534 628 750 443 
Q 966 259 1344 253 
Q 1719 253 1981 423 
Q 2244 594 2281 881 
z
" transform="scale(0.015625)"/>
       <path id="Roboto-LightItalic-65" d="M 1484 -63 
Q 1078 -56 781 164 
Q 484 384 345 764 
Q 206 1144 247 1584 
L 256 1691 
Q 300 2159 534 2582 
Q 769 3006 1128 3229 
Q 1488 3453 1897 3444 
Q 2275 3438 2536 3238 
Q 2797 3038 2915 2681 
Q 3034 2325 2991 1894 
L 2966 1666 
L 625 1666 
L 616 1591 
Q 569 1250 666 939 
Q 763 628 983 445 
Q 1203 263 1513 256 
Q 1813 247 2053 372 
Q 2294 497 2497 706 
L 2716 528 
Q 2488 234 2173 82 
Q 1859 -69 1484 -63 
z
M 1878 3125 
Q 1472 3141 1150 2837 
Q 828 2534 666 1984 
L 2628 1981 
L 2638 2028 
Q 2694 2472 2481 2792 
Q 2269 3113 1878 3125 
z
" transform="scale(0.015625)"/>
       <path id="Roboto-LightItalic-72" d="M 2209 3066 
Q 2088 3091 1963 3094 
Q 1606 3094 1309 2876 
Q 1013 2659 913 2325 
L 513 0 
L 144 0 
L 731 3381 
L 1097 3381 
L 984 2844 
Q 1169 3144 1430 3300 
Q 1691 3456 2003 3450 
Q 2113 3450 2259 3406 
L 2209 3066 
z
" transform="scale(0.015625)"/>
       <path id="Roboto-LightItalic-76" d="M 1275 528 
L 2719 3381 
L 3113 3381 
L 1359 0 
L 1056 0 
L 353 3381 
L 722 3381 
L 1275 528 
z
" transform="scale(0.015625)"/>
       <path id="Roboto-Light-29" d="M 1606 1791 
Q 1606 1103 1436 467 
Q 1266 -169 931 -697 
Q 597 -1225 194 -1469 
L 103 -1228 
Q 409 -1009 670 -550 
Q 931 -91 1081 520 
Q 1231 1131 1231 1847 
Q 1231 2494 1081 3095 
Q 931 3697 667 4170 
Q 403 4644 103 4859 
L 194 5100 
Q 588 4859 922 4331 
Q 1256 3803 1431 3159 
Q 1606 2516 1606 1791 
z
" transform="scale(0.015625)"/>
       <path id="Roboto-Light-5b" d="M 1541 4881 
L 884 4881 
L 884 -656 
L 1541 -656 
L 1541 -975 
L 509 -975 
L 509 5200 
L 1541 5200 
L 1541 4881 
z
" transform="scale(0.015625)"/>
       <path id="Roboto-Light-6b" d="M 1291 1703 
L 863 1291 
L 863 0 
L 488 0 
L 488 4800 
L 863 4800 
L 863 1728 
L 1216 2109 
L 2509 3381 
L 2981 3381 
L 1547 1956 
L 3106 0 
L 2659 0 
L 1291 1703 
z
" transform="scale(0.015625)"/>
       <path id="Roboto-Light-57" d="M 1416 1228 
L 1556 522 
L 1728 1197 
L 2716 4550 
L 3063 4550 
L 4038 1197 
L 4206 516 
L 4356 1228 
L 5178 4550 
L 5572 4550 
L 4406 0 
L 4038 0 
L 3006 3559 
L 2891 4009 
L 2778 3559 
L 1722 0 
L 1353 0 
L 191 4550 
L 584 4550 
L 1416 1228 
z
" transform="scale(0.015625)"/>
       <path id="Roboto-Light-5d" d="M 0 5200 
L 1034 5200 
L 1034 -975 
L 0 -975 
L 0 -656 
L 659 -656 
L 659 4881 
L 0 4881 
L 0 5200 
z
" transform="scale(0.015625)"/>
      </defs>
      <use xlink:href="#Roboto-Light-53" transform="translate(0 0.75)"/>
      <use xlink:href="#Roboto-Light-65" transform="translate(59.228516 0.75)"/>
      <use xlink:href="#Roboto-Light-72" transform="translate(110.888672 0.75)"/>
      <use xlink:href="#Roboto-Light-76" transform="translate(144.53125 0.75)"/>
      <use xlink:href="#Roboto-Light-69" transform="translate(192.626953 0.75)"/>
      <use xlink:href="#Roboto-Light-63" transform="translate(215.039062 0.75)"/>
      <use xlink:href="#Roboto-Light-65" transform="translate(266.552734 0.75)"/>
      <use xlink:href="#Roboto-Light-20" transform="translate(318.212891 0.75)"/>
      <use xlink:href="#Roboto-Light-68" transform="translate(342.529297 0.75)"/>
      <use xlink:href="#Roboto-Light-6f" transform="translate(397.412109 0.75)"/>
      <use xlink:href="#Roboto-Light-74" transform="translate(453.417969 0.75)"/>
      <use xlink:href="#Roboto-Light-20" transform="translate(485.546875 0.75)"/>
      <use xlink:href="#Roboto-Light-77" transform="translate(509.863281 0.75)"/>
      <use xlink:href="#Roboto-Light-61" transform="translate(585.253906 0.75)"/>
      <use xlink:href="#Roboto-Light-74" transform="translate(638.818359 0.75)"/>
      <use xlink:href="#Roboto-Light-65" transform="translate(670.947266 0.75)"/>
      <use xlink:href="#Roboto-Light-72" transform="translate(722.607422 0.75)"/>
      <use xlink:href="#Roboto-Light-20" transform="translate(756.25 0.75)"/>
      <use xlink:href="#Roboto-Light-65" transform="translate(780.566406 0.75)"/>
      <use xlink:href="#Roboto-Light-6e" transform="translate(832.226562 0.75)"/>
      <use xlink:href="#Roboto-Light-65" transform="translate(887.158203 0.75)"/>
      <use xlink:href="#Roboto-Light-72" transform="translate(938.818359 0.75)"/>
      <use xlink:href="#Roboto-Light-67" transform="translate(972.460938 0.75)"/>
      <use xlink:href="#Roboto-Light-79" transform="translate(1027.929688 0.75)"/>
      <use xlink:href="#Roboto-Light-20" transform="translate(1075.439453 0.75)"/>
      <use xlink:href="#Roboto-Light-72" transform="translate(1099.755859 0.75)"/>
      <use xlink:href="#Roboto-Light-61" transform="translate(1133.398438 0.75)"/>
      <use xlink:href="#Roboto-Light-74" transform="translate(1186.962891 0.75)"/>
      <use xlink:href="#Roboto-Light-65" transform="translate(1219.091797 0.75)"/>
      <use xlink:href="#Roboto-Light-20" transform="translate(1270.751953 0.75)"/>
      <use xlink:href="#Roboto-Light-28" transform="translate(1295.068359 0.75)"/>
      <use xlink:href="#Roboto-LightItalic-51" transform="translate(1326.953125 0.75)"/>
      <use xlink:href="#Roboto-LightItalic-77" transform="translate(1393.066406 -15.098438) scale(0.7)"/>
      <use xlink:href="#Roboto-Light-2c" transform="translate(1444.609375 -15.098438) scale(0.7)"/>
      <use xlink:href="#Roboto-LightItalic-73" transform="translate(1470.114258 -15.098438) scale(0.7)"/>
      <use xlink:href="#Roboto-LightItalic-65" transform="translate(1504.84082 -15.098438) scale(0.7)"/>
      <use xlink:href="#Roboto-LightItalic-72" transform="translate(1540.250977 -15.098438) scale(0.7)"/>
      <use xlink:href="#Roboto-LightItalic-76" transform="translate(1563.424805 -15.098438) scale(0.7)"/>
      <use xlink:href="#Roboto-Light-29" transform="translate(1599.049609 0.75)"/>
      <use xlink:href="#Roboto-Light-20" transform="translate(1631.617969 0.75)"/>
      <use xlink:href="#Roboto-Light-5b" transform="translate(1655.934375 0.75)"/>
      <use xlink:href="#Roboto-Light-6b" transform="translate(1679.908984 0.75)"/>
      <use xlink:href="#Roboto-Light-57" transform="translate(1728.883594 0.75)"/>
      <use xlink:href="#Roboto-Light-5d" transform="translate(1818.532031 0.75)"/>
     </g>
    </g>
   </g>
  </g>
  <g id="axes_2">
   <g id="patch_7">
    <path d="M 206.645669 215.433071 
L 329.952756 215.433071 
L 329.952756 27.212598 
L 206.645669 27.212598 
L 206.645669 215.433071 
z
" style="fill: none"/>
   </g>
   <g id="patch_8">
    <path d="M 229.06514 215.433071 
L 262.694345 215.433071 
L 262.694345 141.572807 
L 229.06514 141.572807 
z
" clip-path="url(#p30bd933144)" style="fill: #868e96"/>
   </g>
   <g id="patch_9">
    <path d="M 273.90408 215.433071 
L 307.533286 215.433071 
L 307.533286 27.616129 
L 273.90408 27.616129 
z
" clip-path="url(#p30bd933144)" style="fill: #fa5252"/>
   </g>
   <g id="patch_10">
    <path d="M 206.645669 215.433071 
L 206.645669 27.212598 
" style="fill: none; stroke: #000000; stroke-width: 0.3; stroke-linejoin: miter; stroke-linecap: square"/>
   </g>
   <g id="patch_11">
    <path d="M 206.645669 215.433071 
L 329.952756 215.433071 
" style="fill: none; stroke: #000000; stroke-width: 0.3; stroke-linejoin: miter; stroke-linecap: square"/>
   </g>
   <g id="matplotlib.axis_3">
    <g id="xtick_3">
     <g id="line2d_10"/>
    </g>
    <g id="xtick_4">
     <g id="line2d_11"/>
    </g>
   </g>
   <g id="matplotlib.axis_4">
    <g id="ytick_8">
     <g id="line2d_12">
      <g>
       <use xlink:href="#m5f7842d17d" x="206.645669" y="215.433071" style="stroke: #000000; stroke-width: 0.5"/>
      </g>
     </g>
     <g id="text_9">
      <!-- 0.0 -->
      <g transform="translate(189.368169 218.433071) scale(0.08 -0.08)">
       <defs>
        <path id="Roboto-Light-2e" d="M 453 225 
Q 453 334 523 411 
Q 594 488 719 488 
Q 844 488 916 411 
Q 988 334 988 225 
Q 988 116 916 45 
Q 844 -25 719 -25 
Q 594 -25 523 45 
Q 453 116 453 225 
z
" transform="scale(0.015625)"/>
       </defs>
       <use xlink:href="#Roboto-Light-30"/>
       <use xlink:href="#Roboto-Light-2e" transform="translate(55.419922 0)"/>
       <use xlink:href="#Roboto-Light-30" transform="translate(79.296875 0)"/>
      </g>
     </g>
    </g>
    <g id="ytick_9">
     <g id="line2d_13">
      <g>
       <use xlink:href="#m5f7842d17d" x="206.645669" y="177.788976" style="stroke: #000000; stroke-width: 0.5"/>
      </g>
     </g>
     <g id="text_10">
      <!-- 0.5 -->
      <g transform="translate(189.368169 180.788976) scale(0.08 -0.08)">
       <use xlink:href="#Roboto-Light-30"/>
       <use xlink:href="#Roboto-Light-2e" transform="translate(55.419922 0)"/>
       <use xlink:href="#Roboto-Light-35" transform="translate(79.296875 0)"/>
      </g>
     </g>
    </g>
    <g id="ytick_10">
     <g id="line2d_14">
      <g>
       <use xlink:href="#m5f7842d17d" x="206.645669" y="140.144882" style="stroke: #000000; stroke-width: 0.5"/>
      </g>
     </g>
     <g id="text_11">
      <!-- 1.0 -->
      <g transform="translate(189.368169 143.144882) scale(0.08 -0.08)">
       <use xlink:href="#Roboto-Light-31"/>
       <use xlink:href="#Roboto-Light-2e" transform="translate(55.419922 0)"/>
       <use xlink:href="#Roboto-Light-30" transform="translate(79.296875 0)"/>
      </g>
     </g>
    </g>
    <g id="ytick_11">
     <g id="line2d_15">
      <g>
       <use xlink:href="#m5f7842d17d" x="206.645669" y="102.500787" style="stroke: #000000; stroke-width: 0.5"/>
      </g>
     </g>
     <g id="text_12">
      <!-- 1.5 -->
      <g transform="translate(189.368169 105.500787) scale(0.08 -0.08)">
       <use xlink:href="#Roboto-Light-31"/>
       <use xlink:href="#Roboto-Light-2e" transform="translate(55.419922 0)"/>
       <use xlink:href="#Roboto-Light-35" transform="translate(79.296875 0)"/>
      </g>
     </g>
    </g>
    <g id="ytick_12">
     <g id="line2d_16">
      <g>
       <use xlink:href="#m5f7842d17d" x="206.645669" y="64.856693" style="stroke: #000000; stroke-width: 0.5"/>
      </g>
     </g>
     <g id="text_13">
      <!-- 2.0 -->
      <g transform="translate(189.368169 67.856693) scale(0.08 -0.08)">
       <use xlink:href="#Roboto-Light-32"/>
       <use xlink:href="#Roboto-Light-2e" transform="translate(55.419922 0)"/>
       <use xlink:href="#Roboto-Light-30" transform="translate(79.296875 0)"/>
      </g>
     </g>
    </g>
    <g id="ytick_13">
     <g id="line2d_17">
      <g>
       <use xlink:href="#m5f7842d17d" x="206.645669" y="27.212598" style="stroke: #000000; stroke-width: 0.5"/>
      </g>
     </g>
     <g id="text_14">
      <!-- 2.5 -->
      <g transform="translate(189.368169 30.212598) scale(0.08 -0.08)">
       <use xlink:href="#Roboto-Light-32"/>
       <use xlink:href="#Roboto-Light-2e" transform="translate(55.419922 0)"/>
       <use xlink:href="#Roboto-Light-35" transform="translate(79.296875 0)"/>
      </g>
     </g>
    </g>
    <g id="text_15">
     <!-- Service hot water exergy rate ($X_{w,serv}$) [kW] -->
     <g transform="translate(181.028169 203.672835) rotate(-90) scale(0.09 -0.09)">
      <defs>
       <path id="Roboto-Light-78" d="M 1550 2009 
L 2463 3381 
L 2906 3381 
L 1759 1722 
L 2956 0 
L 2516 0 
L 1553 1431 
L 591 0 
L 150 0 
L 1344 1722 
L 197 3381 
L 638 3381 
L 1550 2009 
z
" transform="scale(0.015625)"/>
       <path id="Roboto-LightItalic-58" d="M 2006 2631 
L 3547 4550 
L 4022 4550 
L 2197 2288 
L 3334 0 
L 2903 0 
L 1931 1981 
L 331 0 
L -141 0 
L 1744 2325 
L 638 4550 
L 1069 4550 
L 2006 2631 
z
" transform="scale(0.015625)"/>
      </defs>
      <use xlink:href="#Roboto-Light-53" transform="translate(0 0.75)"/>
      <use xlink:href="#Roboto-Light-65" transform="translate(59.228516 0.75)"/>
      <use xlink:href="#Roboto-Light-72" transform="translate(110.888672 0.75)"/>
      <use xlink:href="#Roboto-Light-76" transform="translate(144.53125 0.75)"/>
      <use xlink:href="#Roboto-Light-69" transform="translate(192.626953 0.75)"/>
      <use xlink:href="#Roboto-Light-63" transform="translate(215.039062 0.75)"/>
      <use xlink:href="#Roboto-Light-65" transform="translate(266.552734 0.75)"/>
      <use xlink:href="#Roboto-Light-20" transform="translate(318.212891 0.75)"/>
      <use xlink:href="#Roboto-Light-68" transform="translate(342.529297 0.75)"/>
      <use xlink:href="#Roboto-Light-6f" transform="translate(397.412109 0.75)"/>
      <use xlink:href="#Roboto-Light-74" transform="translate(453.417969 0.75)"/>
      <use xlink:href="#Roboto-Light-20" transform="translate(485.546875 0.75)"/>
      <use xlink:href="#Roboto-Light-77" transform="translate(509.863281 0.75)"/>
      <use xlink:href="#Roboto-Light-61" transform="translate(585.253906 0.75)"/>
      <use xlink:href="#Roboto-Light-74" transform="translate(638.818359 0.75)"/>
      <use xlink:href="#Roboto-Light-65" transform="translate(670.947266 0.75)"/>
      <use xlink:href="#Roboto-Light-72" transform="translate(722.607422 0.75)"/>
      <use xlink:href="#Roboto-Light-20" transform="translate(756.25 0.75)"/>
      <use xlink:href="#Roboto-Light-65" transform="translate(780.566406 0.75)"/>
      <use xlink:href="#Roboto-Light-78" transform="translate(832.226562 0.75)"/>
      <use xlink:href="#Roboto-Light-65" transform="translate(880.859375 0.75)"/>
      <use xlink:href="#Roboto-Light-72" transform="translate(932.519531 0.75)"/>
      <use xlink:href="#Roboto-Light-67" transform="translate(966.162109 0.75)"/>
      <use xlink:href="#Roboto-Light-79" transform="translate(1021.630859 0.75)"/>
      <use xlink:href="#Roboto-Light-20" transform="translate(1069.140625 0.75)"/>
      <use xlink:href="#Roboto-Light-72" transform="translate(1093.457031 0.75)"/>
      <use xlink:href="#Roboto-Light-61" transform="translate(1127.099609 0.75)"/>
      <use xlink:href="#Roboto-Light-74" transform="translate(1180.664062 0.75)"/>
      <use xlink:href="#Roboto-Light-65" transform="translate(1212.792969 0.75)"/>
      <use xlink:href="#Roboto-Light-20" transform="translate(1264.453125 0.75)"/>
      <use xlink:href="#Roboto-Light-28" transform="translate(1288.769531 0.75)"/>
      <use xlink:href="#Roboto-LightItalic-58" transform="translate(1320.654297 0.75)"/>
      <use xlink:href="#Roboto-LightItalic-77" transform="translate(1380.46875 -15.098438) scale(0.7)"/>
      <use xlink:href="#Roboto-Light-2c" transform="translate(1432.011719 -15.098438) scale(0.7)"/>
      <use xlink:href="#Roboto-LightItalic-73" transform="translate(1457.516602 -15.098438) scale(0.7)"/>
      <use xlink:href="#Roboto-LightItalic-65" transform="translate(1492.243164 -15.098438) scale(0.7)"/>
      <use xlink:href="#Roboto-LightItalic-72" transform="translate(1527.65332 -15.098438) scale(0.7)"/>
      <use xlink:href="#Roboto-LightItalic-76" transform="translate(1550.827148 -15.098438) scale(0.7)"/>
      <use xlink:href="#Roboto-Light-29" transform="translate(1586.451953 0.75)"/>
      <use xlink:href="#Roboto-Light-20" transform="translate(1619.020313 0.75)"/>
      <use xlink:href="#Roboto-Light-5b" transform="translate(1643.336719 0.75)"/>
      <use xlink:href="#Roboto-Light-6b" transform="translate(1667.311328 0.75)"/>
      <use xlink:href="#Roboto-Light-57" transform="translate(1716.285938 0.75)"/>
      <use xlink:href="#Roboto-Light-5d" transform="translate(1805.934375 0.75)"/>
     </g>
    </g>
   </g>
  </g>
  <g id="legend_1">
   <g id="patch_12">
    <path d="M 57.729326 11.72006 
L 68.979326 11.72006 
L 68.979326 6.47006 
L 57.729326 6.47006 
z
" style="fill: #868e96"/>
   </g>
   <g id="text_16">
    <!-- Max. energy efficiency point -->
    <g transform="translate(71.229326 11.72006) scale(0.075 -0.075)">
     <defs>
      <path id="Roboto-Light-4d" d="M 1084 4550 
L 2763 534 
L 4447 4550 
L 4959 4550 
L 4959 0 
L 4575 0 
L 4575 1981 
L 4606 4013 
L 2913 0 
L 2616 0 
L 928 3997 
L 959 1994 
L 959 0 
L 575 0 
L 575 4550 
L 1084 4550 
z
" transform="scale(0.015625)"/>
      <path id="Roboto-Light-66" d="M 756 0 
L 756 3075 
L 197 3075 
L 197 3381 
L 756 3381 
L 756 3791 
Q 756 4309 1020 4587 
Q 1284 4866 1756 4866 
Q 1969 4866 2153 4813 
L 2125 4500 
Q 1969 4538 1784 4538 
Q 1475 4538 1303 4345 
Q 1131 4153 1131 3800 
L 1131 3381 
L 1938 3381 
L 1938 3075 
L 1131 3075 
L 1131 0 
L 756 0 
z
" transform="scale(0.015625)"/>
      <path id="Roboto-Light-70" d="M 3206 1656 
Q 3206 866 2856 401 
Q 2506 -63 1919 -63 
Q 1225 -63 856 425 
L 856 -1300 
L 484 -1300 
L 484 3381 
L 831 3381 
L 850 2903 
Q 1216 3444 1909 3444 
Q 2516 3444 2861 2984 
Q 3206 2525 3206 1709 
L 3206 1656 
z
M 2831 1722 
Q 2831 2369 2565 2744 
Q 2300 3119 1825 3119 
Q 1481 3119 1234 2953 
Q 988 2788 856 2472 
L 856 850 
Q 991 559 1241 406 
Q 1491 253 1831 253 
Q 2303 253 2567 629 
Q 2831 1006 2831 1722 
z
" transform="scale(0.015625)"/>
     </defs>
     <use xlink:href="#Roboto-Light-4d"/>
     <use xlink:href="#Roboto-Light-61" transform="translate(86.523438 0)"/>
     <use xlink:href="#Roboto-Light-78" transform="translate(140.087891 0)"/>
     <use xlink:href="#Roboto-Light-2e" transform="translate(188.720703 0)"/>
     <use xlink:href="#Roboto-Light-20" transform="translate(212.597656 0)"/>
     <use xlink:href="#Roboto-Light-65" transform="translate(236.914062 0)"/>
     <use xlink:href="#Roboto-Light-6e" transform="translate(288.574219 0)"/>
     <use xlink:href="#Roboto-Light-65" transform="translate(343.505859 0)"/>
     <use xlink:href="#Roboto-Light-72" transform="translate(395.166016 0)"/>
     <use xlink:href="#Roboto-Light-67" transform="translate(428.808594 0)"/>
     <use xlink:href="#Roboto-Light-79" transform="translate(484.277344 0)"/>
     <use xlink:href="#Roboto-Light-20" transform="translate(531.787109 0)"/>
     <use xlink:href="#Roboto-Light-65" transform="translate(556.103516 0)"/>
     <use xlink:href="#Roboto-Light-66" transform="translate(607.763672 0)"/>
     <use xlink:href="#Roboto-Light-66" transform="translate(640.869141 0)"/>
     <use xlink:href="#Roboto-Light-69" transform="translate(673.974609 0)"/>
     <use xlink:href="#Roboto-Light-63" transform="translate(696.386719 0)"/>
     <use xlink:href="#Roboto-Light-69" transform="translate(747.900391 0)"/>
     <use xlink:href="#Roboto-Light-65" transform="translate(770.3125 0)"/>
     <use xlink:href="#Roboto-Light-6e" transform="translate(821.972656 0)"/>
     <use xlink:href="#Roboto-Light-63" transform="translate(876.904297 0)"/>
     <use xlink:href="#Roboto-Light-79" transform="translate(928.417969 0)"/>
     <use xlink:href="#Roboto-Light-20" transform="translate(975.927734 0)"/>
     <use xlink:href="#Roboto-Light-70" transform="translate(1000.244141 0)"/>
     <use xlink:href="#Roboto-Light-6f" transform="translate(1055.664062 0)"/>
     <use xlink:href="#Roboto-Light-69" transform="translate(1111.669922 0)"/>
     <use xlink:href="#Roboto-Light-6e" transform="translate(1134.082031 0)"/>
     <use xlink:href="#Roboto-Light-74" transform="translate(1189.013672 0)"/>
    </g>
   </g>
   <g id="patch_13">
    <path d="M 177.814873 11.72006 
L 189.064873 11.72006 
L 189.064873 6.47006 
L 177.814873 6.47006 
z
" style="fill: #fa5252"/>
   </g>
   <g id="text_17">
    <!-- Max. exergy efficiency point -->
    <g transform="translate(191.314873 11.72006) scale(0.075 -0.075)">
     <use xlink:href="#Roboto-Light-4d"/>
     <use xlink:href="#Roboto-Light-61" transform="translate(86.523438 0)"/>
     <use xlink:href="#Roboto-Light-78" transform="translate(140.087891 0)"/>
     <use xlink:href="#Roboto-Light-2e" transform="translate(188.720703 0)"/>
     <use xlink:href="#Roboto-Light-20" transform="translate(212.597656 0)"/>
     <use xlink:href="#Roboto-Light-65" transform="translate(236.914062 0)"/>
     <use xlink:href="#Roboto-Light-78" transform="translate(288.574219 0)"/>
     <use xlink:href="#Roboto-Light-65" transform="translate(337.207031 0)"/>
     <use xlink:href="#Roboto-Light-72" transform="translate(388.867188 0)"/>
     <use xlink:href="#Roboto-Light-67" transform="translate(422.509766 0)"/>
     <use xlink:href="#Roboto-Light-79" transform="translate(477.978516 0)"/>
     <use xlink:href="#Roboto-Light-20" transform="translate(525.488281 0)"/>
     <use xlink:href="#Roboto-Light-65" transform="translate(549.804688 0)"/>
     <use xlink:href="#Roboto-Light-66" transform="translate(601.464844 0)"/>
     <use xlink:href="#Roboto-Light-66" transform="translate(634.570312 0)"/>
     <use xlink:href="#Roboto-Light-69" transform="translate(667.675781 0)"/>
     <use xlink:href="#Roboto-Light-63" transform="translate(690.087891 0)"/>
     <use xlink:href="#Roboto-Light-69" transform="translate(741.601562 0)"/>
     <use xlink:href="#Roboto-Light-65" transform="translate(764.013672 0)"/>
     <use xlink:href="#Roboto-Light-6e" transform="translate(815.673828 0)"/>
     <use xlink:href="#Roboto-Light-63" transform="translate(870.605469 0)"/>
     <use xlink:href="#Roboto-Light-79" transform="translate(922.119141 0)"/>
     <use xlink:href="#Roboto-Light-20" transform="translate(969.628906 0)"/>
     <use xlink:href="#Roboto-Light-70" transform="translate(993.945312 0)"/>
     <use xlink:href="#Roboto-Light-6f" transform="translate(1049.365234 0)"/>
     <use xlink:href="#Roboto-Light-69" transform="translate(1105.371094 0)"/>
     <use xlink:href="#Roboto-Light-6e" transform="translate(1127.783203 0)"/>
     <use xlink:href="#Roboto-Light-74" transform="translate(1182.714844 0)"/>
    </g>
   </g>
  </g>
 </g>
 <defs>
  <clipPath id="p7a05805b09">
   <rect x="34.015748" y="27.212598" width="123.307087" height="188.220472"/>
  </clipPath>
  <clipPath id="p30bd933144">
   <rect x="206.645669" y="27.212598" width="123.307087" height="188.220472"/>
  </clipPath>
 </defs>
</svg>
