<?xml version="1.0" encoding="utf-8" standalone="no"?>
<!DOCTYPE svg PUBLIC "-//W3C//DTD SVG 1.1//EN"
  "http://www.w3.org/Graphics/SVG/1.1/DTD/svg11.dtd">
<svg xmlns:xlink="http://www.w3.org/1999/xlink" width="481.889764pt" height="255.11811pt" viewBox="0 0 481.889764 255.11811" xmlns="http://www.w3.org/2000/svg" version="1.1">
 <metadata>
  <rdf:RDF xmlns:dc="http://purl.org/dc/elements/1.1/" xmlns:cc="http://creativecommons.org/ns#" xmlns:rdf="http://www.w3.org/1999/02/22-rdf-syntax-ns#">
   <cc:Work>
    <dc:type rdf:resource="http://purl.org/dc/dcmitype/StillImage"/>
    <dc:date>2025-08-31T18:11:47.300745</dc:date>
    <dc:format>image/svg+xml</dc:format>
    <dc:creator>
     <cc:Agent>
      <dc:title>Matplotlib v3.10.3, https://matplotlib.org/</dc:title>
     </cc:Agent>
    </dc:creator>
   </cc:Work>
  </rdf:RDF>
 </metadata>
 <defs>
  <style type="text/css">*{stroke-linejoin: round; stroke-linecap: butt}</style>
 </defs>
 <g id="figure_1">
  <g id="patch_1">
   <path d="M 0 255.11811 
L 481.889764 255.11811 
L 481.889764 0 
L 0 0 
L 0 255.11811 
z
" style="fill: none"/>
  </g>
  <g id="axes_1">
   <g id="patch_2">
    <path d="M 47.411391 214.294433 
L 426.198356 214.294433 
L 426.198356 7.800003 
L 47.411391 7.800003 
L 47.411391 214.294433 
z
" style="fill: none"/>
   </g>
   <g id="line2d_1">
    <path d="M 47.411391 187.745641 
L 51.237522 183.14395 
L 55.063653 178.616208 
L 58.889784 174.161957 
L 62.715915 169.780747 
L 66.542046 165.472134 
L 70.368177 161.23568 
L 74.194308 157.070955 
L 78.020439 152.977533 
L 81.846569 148.954995 
L 85.6727 145.002929 
L 89.498831 141.120929 
L 93.324962 137.308594 
L 97.151093 133.565528 
L 100.977224 129.891343 
L 104.803355 126.285656 
L 108.629486 122.748088 
L 112.455617 119.278269 
L 116.281748 115.875832 
L 120.107879 112.540415 
L 123.93401 109.271662 
L 127.760141 106.069225 
L 131.586272 102.932757 
L 135.412403 99.861918 
L 139.238534 96.856375 
L 143.064665 93.915797 
L 146.890796 91.03986 
L 150.716927 88.228244 
L 154.543058 85.480635 
L 158.369189 82.796722 
L 162.19532 80.176201 
L 166.021451 77.618771 
L 169.847582 75.124137 
L 173.673713 72.692007 
L 177.499844 70.322096 
L 181.325975 68.014121 
L 185.152106 65.767806 
L 188.978237 63.582877 
L 192.804368 61.459065 
L 196.630498 59.396108 
L 200.456629 57.393744 
L 204.28276 55.451718 
L 208.108891 53.56978 
L 211.935022 51.747682 
L 215.761153 49.985181 
L 219.587284 48.282037 
L 223.413415 46.638017 
L 227.239546 45.05289 
L 231.065677 43.526428 
L 234.891808 42.058409 
L 238.717939 40.648615 
L 242.54407 39.296828 
L 246.370201 38.00284 
L 250.196332 36.766442 
L 254.022463 35.58743 
L 257.848594 34.465605 
L 261.674725 33.40077 
L 265.500856 32.392733 
L 269.326987 31.441306 
L 273.153118 30.546302 
L 276.979249 29.70754 
L 280.80538 28.924842 
L 284.631511 28.198033 
L 288.457642 27.526943 
L 292.283773 26.911403 
L 296.109904 26.351249 
L 299.936035 25.846321 
L 303.762166 25.396462 
L 307.588297 25.001516 
L 311.414427 24.661334 
L 315.240558 24.375768 
L 319.066689 24.144674 
L 322.89282 23.967912 
L 326.718951 23.845343 
L 330.545082 23.776834 
L 334.371213 23.762253 
L 338.197344 23.801472 
L 342.023475 23.894367 
L 345.849606 24.040816 
L 349.675737 24.2407 
L 353.501868 24.493905 
L 357.327999 24.800318 
L 361.15413 25.159829 
L 364.980261 25.572333 
L 368.806392 26.037726 
L 372.632523 26.555908 
L 376.458654 27.126783 
L 380.284785 27.750256 
L 384.110916 28.426237 
L 387.937047 29.154636 
L 391.763178 29.935369 
L 395.589309 30.768353 
L 399.41544 31.653509 
L 403.241571 32.590762 
L 407.067702 33.580036 
L 410.893833 34.621262 
L 414.719964 35.714372 
L 418.546095 36.859301 
L 422.372226 38.055987 
L 426.198356 39.304371 
" clip-path="url(#pe0159339a6)" style="fill: none; stroke: #82c91e; stroke-linecap: square"/>
   </g>
   <g id="line2d_2">
    <path d="M 334.371213 214.294433 
L 334.371213 23.762253 
" clip-path="url(#pe0159339a6)" style="fill: none; stroke-dasharray: 0.5,0.625; stroke-dashoffset: 0; stroke: #82c91e; stroke-width: 0.5"/>
   </g>
   <g id="patch_3">
    <path d="M 47.411391 214.294433 
L 47.411391 7.800003 
" style="fill: none; stroke: #82c91e; stroke-width: 0.3; stroke-linejoin: miter; stroke-linecap: square"/>
   </g>
   <g id="patch_4">
    <path d="M 47.411391 214.294433 
L 426.198356 214.294433 
" style="fill: none; stroke: #000000; stroke-width: 0.3; stroke-linejoin: miter; stroke-linecap: square"/>
   </g>
   <g id="matplotlib.axis_1">
    <g id="xtick_1">
     <g id="line2d_3">
      <defs>
       <path id="m6ab8775918" d="M 0 0 
L 0 2 
" style="stroke: #000000; stroke-width: 0.3"/>
      </defs>
      <g>
       <use xlink:href="#m6ab8775918" x="47.411391" y="214.294433" style="stroke: #000000; stroke-width: 0.3"/>
      </g>
     </g>
     <g id="text_1">
      <!-- −20 -->
      <g transform="translate(38.178266 228.544433) scale(0.11 -0.11)">
       <defs>
        <path id="Roboto-Light-2212" d="M 3125 2144 
L 516 2144 
L 516 2463 
L 3125 2463 
L 3125 2144 
z
" transform="scale(0.015625)"/>
        <path id="Roboto-Light-32" d="M 3278 0 
L 428 0 
L 428 288 
L 1988 2056 
Q 2375 2503 2525 2793 
Q 2675 3084 2675 3359 
Q 2675 3791 2422 4042 
Q 2169 4294 1725 4294 
Q 1266 4294 983 4000 
Q 700 3706 700 3238 
L 328 3238 
Q 328 3622 501 3937 
Q 675 4253 995 4433 
Q 1316 4613 1725 4613 
Q 2350 4613 2701 4284 
Q 3053 3956 3053 3391 
Q 3053 3072 2854 2694 
Q 2656 2316 2156 1750 
L 888 316 
L 3278 316 
L 3278 0 
z
" transform="scale(0.015625)"/>
        <path id="Roboto-Light-30" d="M 3172 1897 
Q 3172 934 2819 435 
Q 2466 -63 1778 -63 
Q 1103 -63 743 426 
Q 384 916 375 1850 
L 375 2666 
Q 375 3625 731 4119 
Q 1088 4613 1772 4613 
Q 2447 4613 2803 4136 
Q 3159 3659 3172 2731 
L 3172 1897 
z
M 2797 2713 
Q 2797 3494 2542 3894 
Q 2288 4294 1772 4294 
Q 1266 4294 1009 3903 
Q 753 3513 747 2750 
L 747 1856 
Q 747 1078 1011 665 
Q 1275 253 1778 253 
Q 2278 253 2536 656 
Q 2794 1059 2797 1838 
L 2797 2713 
z
" transform="scale(0.015625)"/>
       </defs>
       <use xlink:href="#Roboto-Light-2212"/>
       <use xlink:href="#Roboto-Light-32" transform="translate(57.03125 0)"/>
       <use xlink:href="#Roboto-Light-30" transform="translate(112.451172 0)"/>
      </g>
     </g>
    </g>
    <g id="xtick_2">
     <g id="line2d_4">
      <g>
       <use xlink:href="#m6ab8775918" x="110.542552" y="214.294433" style="stroke: #000000; stroke-width: 0.3"/>
      </g>
     </g>
     <g id="text_2">
      <!-- −15 -->
      <g transform="translate(101.309427 228.544433) scale(0.11 -0.11)">
       <defs>
        <path id="Roboto-Light-31" d="M 2169 0 
L 1794 0 
L 1794 4100 
L 556 3641 
L 556 3991 
L 2106 4566 
L 2169 4566 
L 2169 0 
z
" transform="scale(0.015625)"/>
        <path id="Roboto-Light-35" d="M 681 2331 
L 903 4550 
L 3178 4550 
L 3178 4203 
L 1225 4203 
L 1066 2666 
Q 1431 2916 1922 2916 
Q 2538 2916 2903 2516 
Q 3269 2116 3269 1450 
Q 3269 731 2912 334 
Q 2556 -63 1909 -63 
Q 1316 -63 947 268 
Q 578 600 525 1197 
L 884 1197 
Q 938 731 1200 492 
Q 1463 253 1909 253 
Q 2397 253 2645 562 
Q 2894 872 2894 1444 
Q 2894 1944 2616 2259 
Q 2338 2575 1856 2575 
Q 1591 2575 1394 2508 
Q 1197 2441 978 2247 
L 681 2331 
z
" transform="scale(0.015625)"/>
       </defs>
       <use xlink:href="#Roboto-Light-2212"/>
       <use xlink:href="#Roboto-Light-31" transform="translate(57.03125 0)"/>
       <use xlink:href="#Roboto-Light-35" transform="translate(112.451172 0)"/>
      </g>
     </g>
    </g>
    <g id="xtick_3">
     <g id="line2d_5">
      <g>
       <use xlink:href="#m6ab8775918" x="173.673713" y="214.294433" style="stroke: #000000; stroke-width: 0.3"/>
      </g>
     </g>
     <g id="text_3">
      <!-- −10 -->
      <g transform="translate(164.440588 228.544433) scale(0.11 -0.11)">
       <use xlink:href="#Roboto-Light-2212"/>
       <use xlink:href="#Roboto-Light-31" transform="translate(57.03125 0)"/>
       <use xlink:href="#Roboto-Light-30" transform="translate(112.451172 0)"/>
      </g>
     </g>
    </g>
    <g id="xtick_4">
     <g id="line2d_6">
      <g>
       <use xlink:href="#m6ab8775918" x="236.804874" y="214.294433" style="stroke: #000000; stroke-width: 0.3"/>
      </g>
     </g>
     <g id="text_4">
      <!-- −5 -->
      <g transform="translate(230.619952 228.544433) scale(0.11 -0.11)">
       <use xlink:href="#Roboto-Light-2212"/>
       <use xlink:href="#Roboto-Light-35" transform="translate(57.03125 0)"/>
      </g>
     </g>
    </g>
    <g id="xtick_5">
     <g id="line2d_7">
      <g>
       <use xlink:href="#m6ab8775918" x="299.936035" y="214.294433" style="stroke: #000000; stroke-width: 0.3"/>
      </g>
     </g>
     <g id="text_5">
      <!-- 0 -->
      <g transform="translate(296.887831 228.544433) scale(0.11 -0.11)">
       <use xlink:href="#Roboto-Light-30"/>
      </g>
     </g>
    </g>
    <g id="xtick_6">
     <g id="line2d_8">
      <g>
       <use xlink:href="#m6ab8775918" x="363.067196" y="214.294433" style="stroke: #000000; stroke-width: 0.3"/>
      </g>
     </g>
     <g id="text_6">
      <!-- 5 -->
      <g transform="translate(360.018992 228.544433) scale(0.11 -0.11)">
       <use xlink:href="#Roboto-Light-35"/>
      </g>
     </g>
    </g>
    <g id="xtick_7">
     <g id="line2d_9">
      <g>
       <use xlink:href="#m6ab8775918" x="426.198356" y="214.294433" style="stroke: #000000; stroke-width: 0.3"/>
      </g>
     </g>
     <g id="text_7">
      <!-- 10 -->
      <g transform="translate(420.10195 228.544433) scale(0.11 -0.11)">
       <use xlink:href="#Roboto-Light-31"/>
       <use xlink:href="#Roboto-Light-30" transform="translate(55.419922 0)"/>
      </g>
     </g>
    </g>
    <g id="text_8">
     <!-- Environmental temperature [°C] -->
     <g transform="translate(154.691124 246.528808) scale(0.12 -0.12)">
      <defs>
       <path id="Roboto-Light-45" d="M 3088 2181 
L 959 2181 
L 959 325 
L 3406 325 
L 3406 0 
L 575 0 
L 575 4550 
L 3391 4550 
L 3391 4222 
L 959 4222 
L 959 2506 
L 3088 2506 
L 3088 2181 
z
" transform="scale(0.015625)"/>
       <path id="Roboto-Light-6e" d="M 844 3381 
L 856 2803 
Q 1047 3116 1331 3280 
Q 1616 3444 1959 3444 
Q 2503 3444 2768 3137 
Q 3034 2831 3038 2219 
L 3038 0 
L 2666 0 
L 2666 2222 
Q 2663 2675 2473 2897 
Q 2284 3119 1869 3119 
Q 1522 3119 1255 2901 
Q 988 2684 859 2316 
L 859 0 
L 488 0 
L 488 3381 
L 844 3381 
z
" transform="scale(0.015625)"/>
       <path id="Roboto-Light-76" d="M 1541 516 
L 2569 3381 
L 2953 3381 
L 1691 0 
L 1388 0 
L 119 3381 
L 503 3381 
L 1541 516 
z
" transform="scale(0.015625)"/>
       <path id="Roboto-Light-69" d="M 906 0 
L 531 0 
L 531 3381 
L 906 3381 
L 906 0 
z
M 466 4359 
Q 466 4466 534 4539 
Q 603 4613 722 4613 
Q 841 4613 911 4539 
Q 981 4466 981 4359 
Q 981 4253 911 4181 
Q 841 4109 722 4109 
Q 603 4109 534 4181 
Q 466 4253 466 4359 
z
" transform="scale(0.015625)"/>
       <path id="Roboto-Light-72" d="M 2050 3063 
Q 1931 3084 1797 3084 
Q 1447 3084 1205 2889 
Q 963 2694 859 2322 
L 859 0 
L 488 0 
L 488 3381 
L 853 3381 
L 859 2844 
Q 1156 3444 1813 3444 
Q 1969 3444 2059 3403 
L 2050 3063 
z
" transform="scale(0.015625)"/>
       <path id="Roboto-Light-6f" d="M 281 1741 
Q 281 2228 470 2618 
Q 659 3009 1004 3226 
Q 1350 3444 1788 3444 
Q 2463 3444 2881 2970 
Q 3300 2497 3300 1716 
L 3300 1638 
Q 3300 1147 3111 755 
Q 2922 363 2578 150 
Q 2234 -63 1794 -63 
Q 1122 -63 701 410 
Q 281 884 281 1666 
L 281 1741 
z
M 656 1638 
Q 656 1031 970 642 
Q 1284 253 1794 253 
Q 2300 253 2614 642 
Q 2928 1031 2928 1669 
L 2928 1741 
Q 2928 2128 2784 2450 
Q 2641 2772 2381 2948 
Q 2122 3125 1788 3125 
Q 1288 3125 972 2733 
Q 656 2341 656 1706 
L 656 1638 
z
" transform="scale(0.015625)"/>
       <path id="Roboto-Light-6d" d="M 828 3381 
L 841 2831 
Q 1028 3138 1309 3291 
Q 1591 3444 1934 3444 
Q 2734 3444 2950 2788 
Q 3131 3103 3434 3273 
Q 3738 3444 4103 3444 
Q 5191 3444 5213 2256 
L 5213 0 
L 4838 0 
L 4838 2228 
Q 4834 2681 4642 2900 
Q 4450 3119 4016 3119 
Q 3613 3113 3334 2858 
Q 3056 2603 3025 2238 
L 3025 0 
L 2650 0 
L 2650 2256 
Q 2647 2691 2445 2905 
Q 2244 3119 1825 3119 
Q 1472 3119 1219 2917 
Q 966 2716 844 2319 
L 844 0 
L 469 0 
L 469 3381 
L 828 3381 
z
" transform="scale(0.015625)"/>
       <path id="Roboto-Light-65" d="M 1797 -63 
Q 1366 -63 1017 150 
Q 669 363 475 742 
Q 281 1122 281 1594 
L 281 1728 
Q 281 2216 470 2606 
Q 659 2997 996 3220 
Q 1334 3444 1728 3444 
Q 2344 3444 2705 3023 
Q 3066 2603 3066 1875 
L 3066 1666 
L 653 1666 
L 653 1594 
Q 653 1019 983 636 
Q 1313 253 1813 253 
Q 2113 253 2342 362 
Q 2572 472 2759 713 
L 2994 534 
Q 2581 -63 1797 -63 
z
M 1728 3125 
Q 1306 3125 1017 2815 
Q 728 2506 666 1984 
L 2694 1984 
L 2694 2025 
Q 2678 2513 2415 2819 
Q 2153 3125 1728 3125 
z
" transform="scale(0.015625)"/>
       <path id="Roboto-Light-74" d="M 1069 4247 
L 1069 3381 
L 1769 3381 
L 1769 3075 
L 1069 3075 
L 1069 822 
Q 1069 541 1170 403 
Q 1272 266 1509 266 
Q 1603 266 1813 297 
L 1828 -9 
Q 1681 -63 1428 -63 
Q 1044 -63 869 160 
Q 694 384 694 819 
L 694 3075 
L 72 3075 
L 72 3381 
L 694 3381 
L 694 4247 
L 1069 4247 
z
" transform="scale(0.015625)"/>
       <path id="Roboto-Light-61" d="M 2622 0 
Q 2566 159 2550 472 
Q 2353 216 2048 76 
Q 1744 -63 1403 -63 
Q 916 -63 614 209 
Q 313 481 313 897 
Q 313 1391 723 1678 
Q 1134 1966 1869 1966 
L 2547 1966 
L 2547 2350 
Q 2547 2713 2323 2920 
Q 2100 3128 1672 3128 
Q 1281 3128 1025 2928 
Q 769 2728 769 2447 
L 394 2450 
Q 394 2853 769 3148 
Q 1144 3444 1691 3444 
Q 2256 3444 2582 3161 
Q 2909 2878 2919 2372 
L 2919 772 
Q 2919 281 3022 38 
L 3022 0 
L 2622 0 
z
M 1447 269 
Q 1822 269 2117 450 
Q 2413 631 2547 934 
L 2547 1678 
L 1878 1678 
Q 1319 1672 1003 1473 
Q 688 1275 688 928 
Q 688 644 898 456 
Q 1109 269 1447 269 
z
" transform="scale(0.015625)"/>
       <path id="Roboto-Light-6c" d="M 906 0 
L 531 0 
L 531 4800 
L 906 4800 
L 906 0 
z
" transform="scale(0.015625)"/>
       <path id="Roboto-Light-20" transform="scale(0.015625)"/>
       <path id="Roboto-Light-70" d="M 3206 1656 
Q 3206 866 2856 401 
Q 2506 -63 1919 -63 
Q 1225 -63 856 425 
L 856 -1300 
L 484 -1300 
L 484 3381 
L 831 3381 
L 850 2903 
Q 1216 3444 1909 3444 
Q 2516 3444 2861 2984 
Q 3206 2525 3206 1709 
L 3206 1656 
z
M 2831 1722 
Q 2831 2369 2565 2744 
Q 2300 3119 1825 3119 
Q 1481 3119 1234 2953 
Q 988 2788 856 2472 
L 856 850 
Q 991 559 1241 406 
Q 1491 253 1831 253 
Q 2303 253 2567 629 
Q 2831 1006 2831 1722 
z
" transform="scale(0.015625)"/>
       <path id="Roboto-Light-75" d="M 2663 428 
Q 2325 -63 1584 -63 
Q 1044 -63 762 251 
Q 481 566 475 1181 
L 475 3381 
L 847 3381 
L 847 1228 
Q 847 263 1628 263 
Q 2441 263 2656 934 
L 2656 3381 
L 3031 3381 
L 3031 0 
L 2669 0 
L 2663 428 
z
" transform="scale(0.015625)"/>
       <path id="Roboto-Light-5b" d="M 1541 4881 
L 884 4881 
L 884 -656 
L 1541 -656 
L 1541 -975 
L 509 -975 
L 509 5200 
L 1541 5200 
L 1541 4881 
z
" transform="scale(0.015625)"/>
       <path id="Roboto-Light-b0" d="M 1969 3831 
Q 1969 3506 1747 3284 
Q 1525 3063 1213 3063 
Q 897 3063 672 3286 
Q 447 3509 447 3831 
Q 447 4153 675 4383 
Q 903 4613 1212 4613 
Q 1522 4613 1745 4383 
Q 1969 4153 1969 3831 
z
M 728 3831 
Q 728 3622 867 3484 
Q 1006 3347 1212 3347 
Q 1419 3347 1553 3484 
Q 1688 3622 1688 3831 
Q 1688 4047 1553 4187 
Q 1419 4328 1213 4328 
Q 1009 4328 868 4187 
Q 728 4047 728 3831 
z
" transform="scale(0.015625)"/>
       <path id="Roboto-Light-43" d="M 3797 1419 
Q 3719 700 3283 318 
Q 2847 -63 2122 -63 
Q 1616 -63 1227 190 
Q 838 444 625 908 
Q 413 1372 409 1969 
L 409 2559 
Q 409 3166 621 3634 
Q 834 4103 1232 4358 
Q 1631 4613 2150 4613 
Q 2881 4613 3304 4217 
Q 3728 3822 3797 3125 
L 3409 3125 
Q 3266 4284 2150 4284 
Q 1531 4284 1164 3821 
Q 797 3359 797 2544 
L 797 1988 
Q 797 1200 1155 731 
Q 1513 263 2122 263 
Q 2725 263 3031 552 
Q 3338 841 3409 1419 
L 3797 1419 
z
" transform="scale(0.015625)"/>
       <path id="Roboto-Light-5d" d="M 0 5200 
L 1034 5200 
L 1034 -975 
L 0 -975 
L 0 -656 
L 659 -656 
L 659 4881 
L 0 4881 
L 0 5200 
z
" transform="scale(0.015625)"/>
      </defs>
      <use xlink:href="#Roboto-Light-45"/>
      <use xlink:href="#Roboto-Light-6e" transform="translate(56.884766 0)"/>
      <use xlink:href="#Roboto-Light-76" transform="translate(111.816406 0)"/>
      <use xlink:href="#Roboto-Light-69" transform="translate(159.912109 0)"/>
      <use xlink:href="#Roboto-Light-72" transform="translate(182.324219 0)"/>
      <use xlink:href="#Roboto-Light-6f" transform="translate(215.966797 0)"/>
      <use xlink:href="#Roboto-Light-6e" transform="translate(271.972656 0)"/>
      <use xlink:href="#Roboto-Light-6d" transform="translate(326.904297 0)"/>
      <use xlink:href="#Roboto-Light-65" transform="translate(415.527344 0)"/>
      <use xlink:href="#Roboto-Light-6e" transform="translate(467.1875 0)"/>
      <use xlink:href="#Roboto-Light-74" transform="translate(522.119141 0)"/>
      <use xlink:href="#Roboto-Light-61" transform="translate(554.248047 0)"/>
      <use xlink:href="#Roboto-Light-6c" transform="translate(607.8125 0)"/>
      <use xlink:href="#Roboto-Light-20" transform="translate(630.224609 0)"/>
      <use xlink:href="#Roboto-Light-74" transform="translate(654.541016 0)"/>
      <use xlink:href="#Roboto-Light-65" transform="translate(686.669922 0)"/>
      <use xlink:href="#Roboto-Light-6d" transform="translate(738.330078 0)"/>
      <use xlink:href="#Roboto-Light-70" transform="translate(826.953125 0)"/>
      <use xlink:href="#Roboto-Light-65" transform="translate(882.373047 0)"/>
      <use xlink:href="#Roboto-Light-72" transform="translate(934.033203 0)"/>
      <use xlink:href="#Roboto-Light-61" transform="translate(967.675781 0)"/>
      <use xlink:href="#Roboto-Light-74" transform="translate(1021.240234 0)"/>
      <use xlink:href="#Roboto-Light-75" transform="translate(1053.369141 0)"/>
      <use xlink:href="#Roboto-Light-72" transform="translate(1108.300781 0)"/>
      <use xlink:href="#Roboto-Light-65" transform="translate(1141.943359 0)"/>
      <use xlink:href="#Roboto-Light-20" transform="translate(1193.603516 0)"/>
      <use xlink:href="#Roboto-Light-5b" transform="translate(1217.919922 0)"/>
      <use xlink:href="#Roboto-Light-b0" transform="translate(1241.894531 0)"/>
      <use xlink:href="#Roboto-Light-43" transform="translate(1279.6875 0)"/>
      <use xlink:href="#Roboto-Light-5d" transform="translate(1344.628906 0)"/>
     </g>
    </g>
   </g>
   <g id="matplotlib.axis_2">
    <g id="ytick_1">
     <g id="line2d_10">
      <defs>
       <path id="m054eb5ce5a" d="M 0 0 
L -2 0 
" style="stroke: #82c91e; stroke-width: 0.3"/>
      </defs>
      <g>
       <use xlink:href="#m054eb5ce5a" x="47.411391" y="214.294433" style="fill: #82c91e; stroke: #82c91e; stroke-width: 0.3"/>
      </g>
     </g>
     <g id="text_9">
      <!-- 250 -->
      <g style="fill: #82c91e" transform="translate(23.122172 218.419433) scale(0.11 -0.11)">
       <use xlink:href="#Roboto-Light-32"/>
       <use xlink:href="#Roboto-Light-35" transform="translate(55.419922 0)"/>
       <use xlink:href="#Roboto-Light-30" transform="translate(110.839844 0)"/>
      </g>
     </g>
    </g>
    <g id="ytick_2">
     <g id="line2d_11">
      <g>
       <use xlink:href="#m054eb5ce5a" x="47.411391" y="172.995547" style="fill: #82c91e; stroke: #82c91e; stroke-width: 0.3"/>
      </g>
     </g>
     <g id="text_10">
      <!-- 300 -->
      <g style="fill: #82c91e" transform="translate(23.122172 177.120547) scale(0.11 -0.11)">
       <defs>
        <path id="Roboto-Light-33" d="M 1259 2478 
L 1647 2478 
Q 1969 2478 2209 2592 
Q 2450 2706 2576 2904 
Q 2703 3103 2703 3363 
Q 2703 3800 2456 4047 
Q 2209 4294 1747 4294 
Q 1309 4294 1029 4036 
Q 750 3778 750 3356 
L 375 3356 
Q 375 3709 553 4001 
Q 731 4294 1047 4453 
Q 1363 4613 1747 4613 
Q 2366 4613 2722 4275 
Q 3078 3938 3078 3350 
Q 3078 3022 2870 2745 
Q 2663 2469 2300 2331 
Q 2725 2213 2944 1923 
Q 3163 1634 3163 1234 
Q 3163 650 2781 293 
Q 2400 -63 1763 -63 
Q 1356 -63 1017 100 
Q 678 263 492 555 
Q 306 847 306 1234 
L 681 1234 
Q 681 800 984 526 
Q 1288 253 1763 253 
Q 2247 253 2517 501 
Q 2788 750 2788 1222 
Q 2788 1678 2495 1918 
Q 2203 2159 1634 2159 
L 1259 2159 
L 1259 2478 
z
" transform="scale(0.015625)"/>
       </defs>
       <use xlink:href="#Roboto-Light-33"/>
       <use xlink:href="#Roboto-Light-30" transform="translate(55.419922 0)"/>
       <use xlink:href="#Roboto-Light-30" transform="translate(110.839844 0)"/>
      </g>
     </g>
    </g>
    <g id="ytick_3">
     <g id="line2d_12">
      <g>
       <use xlink:href="#m054eb5ce5a" x="47.411391" y="131.696661" style="fill: #82c91e; stroke: #82c91e; stroke-width: 0.3"/>
      </g>
     </g>
     <g id="text_11">
      <!-- 350 -->
      <g style="fill: #82c91e" transform="translate(23.122172 135.821661) scale(0.11 -0.11)">
       <use xlink:href="#Roboto-Light-33"/>
       <use xlink:href="#Roboto-Light-35" transform="translate(55.419922 0)"/>
       <use xlink:href="#Roboto-Light-30" transform="translate(110.839844 0)"/>
      </g>
     </g>
    </g>
    <g id="ytick_4">
     <g id="line2d_13">
      <g>
       <use xlink:href="#m054eb5ce5a" x="47.411391" y="90.397775" style="fill: #82c91e; stroke: #82c91e; stroke-width: 0.3"/>
      </g>
     </g>
     <g id="text_12">
      <!-- 400 -->
      <g style="fill: #82c91e" transform="translate(23.122172 94.522775) scale(0.11 -0.11)">
       <defs>
        <path id="Roboto-Light-34" d="M 2725 1466 
L 3434 1466 
L 3434 1150 
L 2725 1150 
L 2725 0 
L 2350 0 
L 2350 1150 
L 209 1150 
L 209 1363 
L 2316 4550 
L 2725 4550 
L 2725 1466 
z
M 669 1466 
L 2350 1466 
L 2350 4066 
L 2184 3778 
L 669 1466 
z
" transform="scale(0.015625)"/>
       </defs>
       <use xlink:href="#Roboto-Light-34"/>
       <use xlink:href="#Roboto-Light-30" transform="translate(55.419922 0)"/>
       <use xlink:href="#Roboto-Light-30" transform="translate(110.839844 0)"/>
      </g>
     </g>
    </g>
    <g id="ytick_5">
     <g id="line2d_14">
      <g>
       <use xlink:href="#m054eb5ce5a" x="47.411391" y="49.098889" style="fill: #82c91e; stroke: #82c91e; stroke-width: 0.3"/>
      </g>
     </g>
     <g id="text_13">
      <!-- 450 -->
      <g style="fill: #82c91e" transform="translate(23.122172 53.223889) scale(0.11 -0.11)">
       <use xlink:href="#Roboto-Light-34"/>
       <use xlink:href="#Roboto-Light-35" transform="translate(55.419922 0)"/>
       <use xlink:href="#Roboto-Light-30" transform="translate(110.839844 0)"/>
      </g>
     </g>
    </g>
    <g id="ytick_6">
     <g id="line2d_15">
      <g>
       <use xlink:href="#m054eb5ce5a" x="47.411391" y="7.800003" style="fill: #82c91e; stroke: #82c91e; stroke-width: 0.3"/>
      </g>
     </g>
     <g id="text_14">
      <!-- 500 -->
      <g style="fill: #82c91e" transform="translate(23.122172 11.925003) scale(0.11 -0.11)">
       <use xlink:href="#Roboto-Light-35"/>
       <use xlink:href="#Roboto-Light-30" transform="translate(55.419922 0)"/>
       <use xlink:href="#Roboto-Light-30" transform="translate(110.839844 0)"/>
      </g>
     </g>
    </g>
    <g id="text_15">
     <!-- System energy efficiency [%] -->
     <g style="fill: #82c91e" transform="translate(14.560922 185.402218) rotate(-90) scale(0.12 -0.12)">
      <defs>
       <path id="Roboto-Light-53" d="M 3150 1119 
Q 3150 1497 2884 1717 
Q 2619 1938 1912 2136 
Q 1206 2334 881 2569 
Q 419 2900 419 3438 
Q 419 3959 848 4286 
Q 1278 4613 1947 4613 
Q 2400 4613 2758 4438 
Q 3116 4263 3312 3950 
Q 3509 3638 3509 3253 
L 3122 3253 
Q 3122 3719 2803 4001 
Q 2484 4284 1947 4284 
Q 1425 4284 1115 4051 
Q 806 3819 806 3444 
Q 806 3097 1084 2878 
Q 1363 2659 1975 2492 
Q 2588 2325 2903 2145 
Q 3219 1966 3378 1716 
Q 3538 1466 3538 1125 
Q 3538 588 3108 262 
Q 2678 -63 1975 -63 
Q 1494 -63 1092 109 
Q 691 281 483 590 
Q 275 900 275 1300 
L 659 1300 
Q 659 819 1018 541 
Q 1378 263 1975 263 
Q 2506 263 2828 497 
Q 3150 731 3150 1119 
z
" transform="scale(0.015625)"/>
       <path id="Roboto-Light-79" d="M 1559 538 
L 2547 3381 
L 2950 3381 
L 1506 -575 
L 1431 -750 
Q 1153 -1366 572 -1366 
Q 438 -1366 284 -1322 
L 281 -1013 
L 475 -1031 
Q 750 -1031 920 -895 
Q 1091 -759 1209 -428 
L 1375 28 
L 100 3381 
L 509 3381 
L 1559 538 
z
" transform="scale(0.015625)"/>
       <path id="Roboto-Light-73" d="M 2513 859 
Q 2513 1138 2289 1306 
Q 2066 1475 1616 1570 
Q 1166 1666 917 1789 
Q 669 1913 548 2091 
Q 428 2269 428 2522 
Q 428 2922 762 3183 
Q 1097 3444 1619 3444 
Q 2184 3444 2526 3164 
Q 2869 2884 2869 2434 
L 2494 2434 
Q 2494 2731 2245 2928 
Q 1997 3125 1619 3125 
Q 1250 3125 1026 2961 
Q 803 2797 803 2534 
Q 803 2281 989 2142 
Q 1175 2003 1667 1887 
Q 2159 1772 2404 1640 
Q 2650 1509 2769 1325 
Q 2888 1141 2888 878 
Q 2888 450 2542 193 
Q 2197 -63 1641 -63 
Q 1050 -63 683 223 
Q 316 509 316 947 
L 691 947 
Q 713 619 967 436 
Q 1222 253 1641 253 
Q 2031 253 2272 425 
Q 2513 597 2513 859 
z
" transform="scale(0.015625)"/>
       <path id="Roboto-Light-67" d="M 338 1722 
Q 338 2516 689 2980 
Q 1041 3444 1644 3444 
Q 2334 3444 2694 2894 
L 2713 3381 
L 3063 3381 
L 3063 69 
Q 3063 -584 2697 -965 
Q 2331 -1347 1706 -1347 
Q 1353 -1347 1033 -1189 
Q 713 -1031 528 -769 
L 738 -544 
Q 1134 -1031 1681 -1031 
Q 2150 -1031 2412 -754 
Q 2675 -478 2684 13 
L 2684 438 
Q 2325 -63 1638 -63 
Q 1050 -63 694 406 
Q 338 875 338 1672 
L 338 1722 
z
M 716 1656 
Q 716 1009 975 636 
Q 1234 263 1706 263 
Q 2397 263 2684 881 
L 2684 2453 
Q 2553 2778 2306 2948 
Q 2059 3119 1713 3119 
Q 1241 3119 978 2748 
Q 716 2378 716 1656 
z
" transform="scale(0.015625)"/>
       <path id="Roboto-Light-66" d="M 756 0 
L 756 3075 
L 197 3075 
L 197 3381 
L 756 3381 
L 756 3791 
Q 756 4309 1020 4587 
Q 1284 4866 1756 4866 
Q 1969 4866 2153 4813 
L 2125 4500 
Q 1969 4538 1784 4538 
Q 1475 4538 1303 4345 
Q 1131 4153 1131 3800 
L 1131 3381 
L 1938 3381 
L 1938 3075 
L 1131 3075 
L 1131 0 
L 756 0 
z
" transform="scale(0.015625)"/>
       <path id="Roboto-Light-63" d="M 1738 253 
Q 2128 253 2392 473 
Q 2656 694 2678 1044 
L 3038 1044 
Q 3022 734 2844 479 
Q 2666 225 2370 81 
Q 2075 -63 1738 -63 
Q 1072 -63 683 400 
Q 294 863 294 1644 
L 294 1756 
Q 294 2256 469 2640 
Q 644 3025 970 3234 
Q 1297 3444 1734 3444 
Q 2291 3444 2652 3112 
Q 3013 2781 3038 2241 
L 2678 2241 
Q 2653 2638 2392 2881 
Q 2131 3125 1734 3125 
Q 1228 3125 948 2759 
Q 669 2394 669 1734 
L 669 1625 
Q 669 978 948 615 
Q 1228 253 1738 253 
z
" transform="scale(0.015625)"/>
       <path id="Roboto-Light-25" d="M 341 3675 
Q 341 4081 592 4348 
Q 844 4616 1231 4616 
Q 1619 4616 1870 4348 
Q 2122 4081 2122 3656 
L 2122 3434 
Q 2122 3034 1873 2767 
Q 1625 2500 1238 2500 
Q 853 2500 597 2762 
Q 341 3025 341 3456 
L 341 3675 
z
M 644 3434 
Q 644 3144 805 2956 
Q 966 2769 1238 2769 
Q 1503 2769 1661 2958 
Q 1819 3147 1819 3447 
L 1819 3675 
Q 1819 3966 1656 4155 
Q 1494 4344 1231 4344 
Q 972 4344 808 4156 
Q 644 3969 644 3656 
L 644 3434 
z
M 2631 1116 
Q 2631 1522 2882 1787 
Q 3134 2053 3518 2053 
Q 3903 2053 4158 1789 
Q 4413 1525 4413 1094 
L 4413 872 
Q 4413 466 4161 200 
Q 3909 -66 3525 -66 
Q 3141 -66 2886 198 
Q 2631 463 2631 888 
L 2631 1116 
z
M 2931 872 
Q 2931 578 3092 390 
Q 3253 203 3525 203 
Q 3794 203 3951 392 
Q 4109 581 4109 888 
L 4109 1116 
Q 4109 1416 3948 1598 
Q 3788 1781 3519 1781 
Q 3256 1781 3093 1597 
Q 2931 1413 2931 1103 
L 2931 872 
z
M 1356 378 
L 1122 528 
L 3344 4084 
L 3578 3934 
L 1356 378 
z
" transform="scale(0.015625)"/>
      </defs>
      <use xlink:href="#Roboto-Light-53"/>
      <use xlink:href="#Roboto-Light-79" transform="translate(59.228516 0)"/>
      <use xlink:href="#Roboto-Light-73" transform="translate(106.738281 0)"/>
      <use xlink:href="#Roboto-Light-74" transform="translate(157.373047 0)"/>
      <use xlink:href="#Roboto-Light-65" transform="translate(189.501953 0)"/>
      <use xlink:href="#Roboto-Light-6d" transform="translate(241.162109 0)"/>
      <use xlink:href="#Roboto-Light-20" transform="translate(329.785156 0)"/>
      <use xlink:href="#Roboto-Light-65" transform="translate(354.101562 0)"/>
      <use xlink:href="#Roboto-Light-6e" transform="translate(405.761719 0)"/>
      <use xlink:href="#Roboto-Light-65" transform="translate(460.693359 0)"/>
      <use xlink:href="#Roboto-Light-72" transform="translate(512.353516 0)"/>
      <use xlink:href="#Roboto-Light-67" transform="translate(545.996094 0)"/>
      <use xlink:href="#Roboto-Light-79" transform="translate(601.464844 0)"/>
      <use xlink:href="#Roboto-Light-20" transform="translate(648.974609 0)"/>
      <use xlink:href="#Roboto-Light-65" transform="translate(673.291016 0)"/>
      <use xlink:href="#Roboto-Light-66" transform="translate(724.951172 0)"/>
      <use xlink:href="#Roboto-Light-66" transform="translate(758.056641 0)"/>
      <use xlink:href="#Roboto-Light-69" transform="translate(791.162109 0)"/>
      <use xlink:href="#Roboto-Light-63" transform="translate(813.574219 0)"/>
      <use xlink:href="#Roboto-Light-69" transform="translate(865.087891 0)"/>
      <use xlink:href="#Roboto-Light-65" transform="translate(887.5 0)"/>
      <use xlink:href="#Roboto-Light-6e" transform="translate(939.160156 0)"/>
      <use xlink:href="#Roboto-Light-63" transform="translate(994.091797 0)"/>
      <use xlink:href="#Roboto-Light-79" transform="translate(1045.605469 0)"/>
      <use xlink:href="#Roboto-Light-20" transform="translate(1093.115234 0)"/>
      <use xlink:href="#Roboto-Light-5b" transform="translate(1117.431641 0)"/>
      <use xlink:href="#Roboto-Light-25" transform="translate(1141.40625 0)"/>
      <use xlink:href="#Roboto-Light-5d" transform="translate(1215.283203 0)"/>
     </g>
    </g>
   </g>
   <g id="PathCollection_1">
    <defs>
     <path id="m0b710f658d" d="M 0 3.162278 
C 0.838646 3.162278 1.643056 2.82908 2.236068 2.236068 
C 2.82908 1.643056 3.162278 0.838646 3.162278 0 
C 3.162278 -0.838646 2.82908 -1.643056 2.236068 -2.236068 
C 1.643056 -2.82908 0.838646 -3.162278 0 -3.162278 
C -0.838646 -3.162278 -1.643056 -2.82908 -2.236068 -2.236068 
C -2.82908 -1.643056 -3.162278 -0.838646 -3.162278 0 
C -3.162278 0.838646 -2.82908 1.643056 -2.236068 2.236068 
C -1.643056 2.82908 -0.838646 3.162278 0 3.162278 
z
" style="stroke: #ffffff"/>
    </defs>
    <g clip-path="url(#pe0159339a6)">
     <use xlink:href="#m0b710f658d" x="334.371213" y="23.762253" style="fill: #82c91e; stroke: #ffffff"/>
    </g>
   </g>
   <g id="legend_1">
    <g id="line2d_16">
     <path d="M 56.861391 11.233562 
L 67.361391 11.233562 
L 77.861391 11.233562 
" style="fill: none; stroke: #82c91e; stroke-linecap: square"/>
    </g>
    <g id="text_16">
     <!-- Energy efficiency -->
     <g transform="translate(84.161391 14.908562) scale(0.105 -0.105)">
      <use xlink:href="#Roboto-Light-45"/>
      <use xlink:href="#Roboto-Light-6e" transform="translate(56.884766 0)"/>
      <use xlink:href="#Roboto-Light-65" transform="translate(111.816406 0)"/>
      <use xlink:href="#Roboto-Light-72" transform="translate(163.476562 0)"/>
      <use xlink:href="#Roboto-Light-67" transform="translate(197.119141 0)"/>
      <use xlink:href="#Roboto-Light-79" transform="translate(252.587891 0)"/>
      <use xlink:href="#Roboto-Light-20" transform="translate(300.097656 0)"/>
      <use xlink:href="#Roboto-Light-65" transform="translate(324.414062 0)"/>
      <use xlink:href="#Roboto-Light-66" transform="translate(376.074219 0)"/>
      <use xlink:href="#Roboto-Light-66" transform="translate(409.179688 0)"/>
      <use xlink:href="#Roboto-Light-69" transform="translate(442.285156 0)"/>
      <use xlink:href="#Roboto-Light-63" transform="translate(464.697266 0)"/>
      <use xlink:href="#Roboto-Light-69" transform="translate(516.210938 0)"/>
      <use xlink:href="#Roboto-Light-65" transform="translate(538.623047 0)"/>
      <use xlink:href="#Roboto-Light-6e" transform="translate(590.283203 0)"/>
      <use xlink:href="#Roboto-Light-63" transform="translate(645.214844 0)"/>
      <use xlink:href="#Roboto-Light-79" transform="translate(696.728516 0)"/>
     </g>
    </g>
    <g id="line2d_17">
     <path d="M 56.861391 25.657937 
L 67.361391 25.657937 
L 77.861391 25.657937 
" style="fill: none; stroke: #228be6; stroke-linecap: square"/>
    </g>
    <g id="text_17">
     <!-- Exergy efficiency -->
     <g transform="translate(84.161391 29.332937) scale(0.105 -0.105)">
      <defs>
       <path id="Roboto-Light-78" d="M 1550 2009 
L 2463 3381 
L 2906 3381 
L 1759 1722 
L 2956 0 
L 2516 0 
L 1553 1431 
L 591 0 
L 150 0 
L 1344 1722 
L 197 3381 
L 638 3381 
L 1550 2009 
z
" transform="scale(0.015625)"/>
      </defs>
      <use xlink:href="#Roboto-Light-45"/>
      <use xlink:href="#Roboto-Light-78" transform="translate(56.884766 0)"/>
      <use xlink:href="#Roboto-Light-65" transform="translate(105.517578 0)"/>
      <use xlink:href="#Roboto-Light-72" transform="translate(157.177734 0)"/>
      <use xlink:href="#Roboto-Light-67" transform="translate(190.820312 0)"/>
      <use xlink:href="#Roboto-Light-79" transform="translate(246.289062 0)"/>
      <use xlink:href="#Roboto-Light-20" transform="translate(293.798828 0)"/>
      <use xlink:href="#Roboto-Light-65" transform="translate(318.115234 0)"/>
      <use xlink:href="#Roboto-Light-66" transform="translate(369.775391 0)"/>
      <use xlink:href="#Roboto-Light-66" transform="translate(402.880859 0)"/>
      <use xlink:href="#Roboto-Light-69" transform="translate(435.986328 0)"/>
      <use xlink:href="#Roboto-Light-63" transform="translate(458.398438 0)"/>
      <use xlink:href="#Roboto-Light-69" transform="translate(509.912109 0)"/>
      <use xlink:href="#Roboto-Light-65" transform="translate(532.324219 0)"/>
      <use xlink:href="#Roboto-Light-6e" transform="translate(583.984375 0)"/>
      <use xlink:href="#Roboto-Light-63" transform="translate(638.916016 0)"/>
      <use xlink:href="#Roboto-Light-79" transform="translate(690.429688 0)"/>
     </g>
    </g>
   </g>
  </g>
  <g id="axes_2">
   <g id="line2d_18">
    <path d="M 47.411391 99.128867 
L 51.237522 95.729474 
L 55.063653 92.455247 
L 58.889784 89.304437 
L 62.715915 86.275312 
L 66.542046 83.36616 
L 70.368177 80.575286 
L 74.194308 77.901015 
L 78.020439 75.341687 
L 81.846569 72.895661 
L 85.6727 70.561313 
L 89.498831 68.337034 
L 93.324962 66.221235 
L 97.151093 64.212341 
L 100.977224 62.308792 
L 104.803355 60.509046 
L 108.629486 58.811577 
L 112.455617 57.214871 
L 116.281748 55.717432 
L 120.107879 54.317779 
L 123.93401 53.014443 
L 127.760141 51.805972 
L 131.586272 50.690928 
L 135.412403 49.667884 
L 139.238534 48.73543 
L 143.064665 47.892169 
L 146.890796 47.136715 
L 150.716927 46.467699 
L 154.543058 45.883761 
L 158.369189 45.383556 
L 162.19532 44.965751 
L 166.021451 44.629025 
L 169.847582 44.372069 
L 173.673713 44.193588 
L 177.499844 44.092295 
L 181.325975 44.066917 
L 185.152106 44.116193 
L 188.978237 44.238872 
L 192.804368 44.433714 
L 196.630498 44.69949 
L 200.456629 45.034982 
L 204.28276 45.438982 
L 208.108891 45.910293 
L 211.935022 46.447729 
L 215.761153 47.050111 
L 219.587284 47.716274 
L 223.413415 48.445059 
L 227.239546 49.23532 
L 231.065677 50.085917 
L 234.891808 50.995721 
L 238.717939 51.963613 
L 242.54407 52.988482 
L 246.370201 54.069226 
L 250.196332 55.204752 
L 254.022463 56.393974 
L 257.848594 57.635816 
L 261.674725 58.929211 
L 265.500856 60.273098 
L 269.326987 61.666427 
L 273.153118 63.108152 
L 276.979249 64.597238 
L 280.80538 66.132656 
L 284.631511 67.713386 
L 288.457642 69.338414 
L 292.283773 71.006734 
L 296.109904 72.717346 
L 299.936035 74.469259 
L 303.762166 76.261488 
L 307.588297 78.093055 
L 311.414427 79.962987 
L 315.240558 81.87032 
L 319.066689 83.814095 
L 322.89282 85.793361 
L 326.718951 87.807172 
L 330.545082 89.854587 
L 334.371213 91.934673 
L 338.197344 94.046503 
L 342.023475 96.189154 
L 345.849606 98.36171 
L 349.675737 100.563261 
L 353.501868 102.792902 
L 357.327999 105.049733 
L 361.15413 107.33286 
L 364.980261 109.641394 
L 368.806392 111.974451 
L 372.632523 114.331152 
L 376.458654 116.710623 
L 380.284785 119.111995 
L 384.110916 121.534404 
L 387.937047 123.97699 
L 391.763178 126.438899 
L 395.589309 128.919279 
L 399.41544 131.417284 
L 403.241571 133.932073 
L 407.067702 136.462808 
L 410.893833 139.008655 
L 414.719964 141.568785 
L 418.546095 144.142372 
L 422.372226 146.728594 
L 426.198356 149.326635 
" clip-path="url(#pe0159339a6)" style="fill: none; stroke: #228be6; stroke-linecap: square"/>
   </g>
   <g id="line2d_19">
    <path d="M 181.325975 214.294433 
L 181.325975 44.066917 
" clip-path="url(#pe0159339a6)" style="fill: none; stroke-dasharray: 0.5,0.625; stroke-dashoffset: 0; stroke: #228be6; stroke-width: 0.5"/>
   </g>
   <g id="patch_5">
    <path d="M 426.198356 214.294433 
L 426.198356 7.800003 
" style="fill: none; stroke: #228be6; stroke-width: 0.3; stroke-linejoin: miter; stroke-linecap: square"/>
   </g>
   <g id="matplotlib.axis_3">
    <g id="ytick_7">
     <g id="line2d_20">
      <defs>
       <path id="m84a51917a3" d="M 0 0 
L 2 0 
" style="stroke: #228be6; stroke-width: 0.3"/>
      </defs>
      <g>
       <use xlink:href="#m84a51917a3" x="426.198356" y="214.294433" style="fill: #228be6; stroke: #228be6; stroke-width: 0.3"/>
      </g>
     </g>
     <g id="text_18">
      <!-- 15 -->
      <g style="fill: #228be6" transform="translate(432.198356 218.419433) scale(0.11 -0.11)">
       <use xlink:href="#Roboto-Light-31"/>
       <use xlink:href="#Roboto-Light-35" transform="translate(55.419922 0)"/>
      </g>
     </g>
    </g>
    <g id="ytick_8">
     <g id="line2d_21">
      <g>
       <use xlink:href="#m84a51917a3" x="426.198356" y="172.995547" style="fill: #228be6; stroke: #228be6; stroke-width: 0.3"/>
      </g>
     </g>
     <g id="text_19">
      <!-- 20 -->
      <g style="fill: #228be6" transform="translate(432.198356 177.120547) scale(0.11 -0.11)">
       <use xlink:href="#Roboto-Light-32"/>
       <use xlink:href="#Roboto-Light-30" transform="translate(55.419922 0)"/>
      </g>
     </g>
    </g>
    <g id="ytick_9">
     <g id="line2d_22">
      <g>
       <use xlink:href="#m84a51917a3" x="426.198356" y="131.696661" style="fill: #228be6; stroke: #228be6; stroke-width: 0.3"/>
      </g>
     </g>
     <g id="text_20">
      <!-- 25 -->
      <g style="fill: #228be6" transform="translate(432.198356 135.821661) scale(0.11 -0.11)">
       <use xlink:href="#Roboto-Light-32"/>
       <use xlink:href="#Roboto-Light-35" transform="translate(55.419922 0)"/>
      </g>
     </g>
    </g>
    <g id="ytick_10">
     <g id="line2d_23">
      <g>
       <use xlink:href="#m84a51917a3" x="426.198356" y="90.397775" style="fill: #228be6; stroke: #228be6; stroke-width: 0.3"/>
      </g>
     </g>
     <g id="text_21">
      <!-- 30 -->
      <g style="fill: #228be6" transform="translate(432.198356 94.522775) scale(0.11 -0.11)">
       <use xlink:href="#Roboto-Light-33"/>
       <use xlink:href="#Roboto-Light-30" transform="translate(55.419922 0)"/>
      </g>
     </g>
    </g>
    <g id="ytick_11">
     <g id="line2d_24">
      <g>
       <use xlink:href="#m84a51917a3" x="426.198356" y="49.098889" style="fill: #228be6; stroke: #228be6; stroke-width: 0.3"/>
      </g>
     </g>
     <g id="text_22">
      <!-- 35 -->
      <g style="fill: #228be6" transform="translate(432.198356 53.223889) scale(0.11 -0.11)">
       <use xlink:href="#Roboto-Light-33"/>
       <use xlink:href="#Roboto-Light-35" transform="translate(55.419922 0)"/>
      </g>
     </g>
    </g>
    <g id="ytick_12">
     <g id="line2d_25">
      <g>
       <use xlink:href="#m84a51917a3" x="426.198356" y="7.800003" style="fill: #228be6; stroke: #228be6; stroke-width: 0.3"/>
      </g>
     </g>
     <g id="text_23">
      <!-- 40 -->
      <g style="fill: #228be6" transform="translate(432.198356 11.925003) scale(0.11 -0.11)">
       <use xlink:href="#Roboto-Light-34"/>
       <use xlink:href="#Roboto-Light-30" transform="translate(55.419922 0)"/>
      </g>
     </g>
    </g>
    <g id="text_24">
     <!-- System exergy efficiency [%] -->
     <g style="fill: #228be6" transform="translate(460.141169 185.024405) rotate(-90) scale(0.12 -0.12)">
      <use xlink:href="#Roboto-Light-53"/>
      <use xlink:href="#Roboto-Light-79" transform="translate(59.228516 0)"/>
      <use xlink:href="#Roboto-Light-73" transform="translate(106.738281 0)"/>
      <use xlink:href="#Roboto-Light-74" transform="translate(157.373047 0)"/>
      <use xlink:href="#Roboto-Light-65" transform="translate(189.501953 0)"/>
      <use xlink:href="#Roboto-Light-6d" transform="translate(241.162109 0)"/>
      <use xlink:href="#Roboto-Light-20" transform="translate(329.785156 0)"/>
      <use xlink:href="#Roboto-Light-65" transform="translate(354.101562 0)"/>
      <use xlink:href="#Roboto-Light-78" transform="translate(405.761719 0)"/>
      <use xlink:href="#Roboto-Light-65" transform="translate(454.394531 0)"/>
      <use xlink:href="#Roboto-Light-72" transform="translate(506.054688 0)"/>
      <use xlink:href="#Roboto-Light-67" transform="translate(539.697266 0)"/>
      <use xlink:href="#Roboto-Light-79" transform="translate(595.166016 0)"/>
      <use xlink:href="#Roboto-Light-20" transform="translate(642.675781 0)"/>
      <use xlink:href="#Roboto-Light-65" transform="translate(666.992188 0)"/>
      <use xlink:href="#Roboto-Light-66" transform="translate(718.652344 0)"/>
      <use xlink:href="#Roboto-Light-66" transform="translate(751.757812 0)"/>
      <use xlink:href="#Roboto-Light-69" transform="translate(784.863281 0)"/>
      <use xlink:href="#Roboto-Light-63" transform="translate(807.275391 0)"/>
      <use xlink:href="#Roboto-Light-69" transform="translate(858.789062 0)"/>
      <use xlink:href="#Roboto-Light-65" transform="translate(881.201172 0)"/>
      <use xlink:href="#Roboto-Light-6e" transform="translate(932.861328 0)"/>
      <use xlink:href="#Roboto-Light-63" transform="translate(987.792969 0)"/>
      <use xlink:href="#Roboto-Light-79" transform="translate(1039.306641 0)"/>
      <use xlink:href="#Roboto-Light-20" transform="translate(1086.816406 0)"/>
      <use xlink:href="#Roboto-Light-5b" transform="translate(1111.132812 0)"/>
      <use xlink:href="#Roboto-Light-25" transform="translate(1135.107422 0)"/>
      <use xlink:href="#Roboto-Light-5d" transform="translate(1208.984375 0)"/>
     </g>
    </g>
   </g>
   <g id="PathCollection_2">
    <defs>
     <path id="m6781745066" d="M 0 3.162278 
C 0.838646 3.162278 1.643056 2.82908 2.236068 2.236068 
C 2.82908 1.643056 3.162278 0.838646 3.162278 0 
C 3.162278 -0.838646 2.82908 -1.643056 2.236068 -2.236068 
C 1.643056 -2.82908 0.838646 -3.162278 0 -3.162278 
C -0.838646 -3.162278 -1.643056 -2.82908 -2.236068 -2.236068 
C -2.82908 -1.643056 -3.162278 -0.838646 -3.162278 0 
C -3.162278 0.838646 -2.82908 1.643056 -2.236068 2.236068 
C -1.643056 2.82908 -0.838646 3.162278 0 3.162278 
z
" style="stroke: #ffffff"/>
    </defs>
    <g clip-path="url(#pe0159339a6)">
     <use xlink:href="#m6781745066" x="181.325975" y="44.066917" style="fill: #228be6; stroke: #ffffff"/>
    </g>
   </g>
  </g>
 </g>
 <defs>
  <clipPath id="pe0159339a6">
   <rect x="47.411391" y="7.800003" width="378.786966" height="206.49443"/>
  </clipPath>
 </defs>
</svg>
