<?xml version="1.0" encoding="utf-8" standalone="no"?>
<!DOCTYPE svg PUBLIC "-//W3C//DTD SVG 1.1//EN"
  "http://www.w3.org/Graphics/SVG/1.1/DTD/svg11.dtd">
<svg xmlns:xlink="http://www.w3.org/1999/xlink" width="368.503937pt" height="170.07874pt" viewBox="0 0 368.503937 170.07874" xmlns="http://www.w3.org/2000/svg" version="1.1">
 <metadata>
  <rdf:RDF xmlns:dc="http://purl.org/dc/elements/1.1/" xmlns:cc="http://creativecommons.org/ns#" xmlns:rdf="http://www.w3.org/1999/02/22-rdf-syntax-ns#">
   <cc:Work>
    <dc:type rdf:resource="http://purl.org/dc/dcmitype/StillImage"/>
    <dc:date>2025-09-11T08:21:10.982449</dc:date>
    <dc:format>image/svg+xml</dc:format>
    <dc:creator>
     <cc:Agent>
      <dc:title>Matplotlib v3.10.3, https://matplotlib.org/</dc:title>
     </cc:Agent>
    </dc:creator>
   </cc:Work>
  </rdf:RDF>
 </metadata>
 <defs>
  <style type="text/css">*{stroke-linejoin: round; stroke-linecap: butt}</style>
 </defs>
 <g id="figure_1">
  <g id="patch_1">
   <path d="M 0 170.07874 
L 368.503937 170.07874 
L 368.503937 0 
L 0 0 
L 0 170.07874 
z
" style="fill: none"/>
  </g>
  <g id="axes_1">
   <g id="patch_2">
    <path d="M 38.617759 135.544518 
L 319.931674 135.544518 
L 319.931674 6.622729 
L 38.617759 6.622729 
L 38.617759 135.544518 
z
" style="fill: none"/>
   </g>
   <g id="line2d_1">
    <path d="M 38.617759 139.481908 
L 41.459313 136.797696 
L 44.300868 134.148232 
L 47.142423 131.533496 
L 49.983978 128.953457 
L 52.825532 126.408076 
L 55.667087 123.897307 
L 58.508642 121.421096 
L 61.350196 118.979383 
L 64.191751 116.572106 
L 67.033306 114.199197 
L 69.87486 111.860586 
L 72.716415 109.5562 
L 75.55797 107.285963 
L 78.399525 105.0498 
L 81.241079 102.847633 
L 84.082634 100.679385 
L 86.924189 98.544975 
L 89.765743 96.444327 
L 92.607298 94.377361 
L 95.448853 92.343999 
L 98.290407 90.344164 
L 101.131962 88.377779 
L 103.973517 86.444767 
L 106.815072 84.545055 
L 109.656626 82.678568 
L 112.498181 80.845234 
L 115.339736 79.044982 
L 118.18129 77.277742 
L 121.022845 75.543446 
L 123.8644 73.842027 
L 126.705954 72.173421 
L 129.547509 70.537565 
L 132.389064 68.934396 
L 135.230619 67.363856 
L 138.072173 65.825886 
L 140.913728 64.32043 
L 143.755283 62.847435 
L 146.596837 61.406848 
L 149.438392 59.998618 
L 152.279947 58.622698 
L 155.121501 57.279041 
L 157.963056 55.967602 
L 160.804611 54.688339 
L 163.646166 53.441212 
L 166.48772 52.226181 
L 169.329275 51.04321 
L 172.17083 49.892265 
L 175.012384 48.773313 
L 177.853939 47.686323 
L 180.695494 46.631266 
L 183.537048 45.608117 
L 186.378603 44.616849 
L 189.220158 43.65744 
L 192.061713 42.72987 
L 194.903267 41.834119 
L 197.744822 40.970171 
L 200.586377 40.138011 
L 203.427931 39.337626 
L 206.269486 38.569004 
L 209.111041 37.832136 
L 211.952595 37.127016 
L 214.79415 36.453637 
L 217.635705 35.811997 
L 220.47726 35.202094 
L 223.318814 34.623928 
L 226.160369 34.077501 
L 229.001924 33.562818 
L 231.843478 33.079885 
L 234.685033 32.628708 
L 237.526588 32.209299 
L 240.368142 31.821669 
L 243.209697 31.46583 
L 246.051252 31.141798 
L 248.892807 30.84959 
L 251.734361 30.589226 
L 254.575916 30.360724 
L 257.417471 30.164108 
L 260.259025 29.999403 
L 263.10058 29.866633 
L 265.942135 29.765826 
L 268.783689 29.697013 
L 271.625244 29.660225 
L 274.466799 29.655493 
L 277.308354 29.682854 
L 280.149908 29.742343 
L 282.991463 29.833999 
L 285.833018 29.957861 
L 288.674572 30.113972 
L 291.516127 30.302375 
L 294.357682 30.523115 
L 297.199236 30.776238 
L 300.040791 31.061793 
L 302.882346 31.37983 
L 305.723901 31.730402 
L 308.565455 32.113561 
L 311.40701 32.529363 
L 314.248565 32.977865 
L 317.090119 33.459126 
L 319.931674 33.973205 
" clip-path="url(#pca8b439098)" style="fill: none; stroke: #868e96; stroke-linecap: square"/>
   </g>
   <g id="line2d_2">
    <path d="M 274.466799 135.544518 
L 274.466799 29.655493 
" clip-path="url(#pca8b439098)" style="fill: none; stroke-dasharray: 2.25,1.125; stroke-dashoffset: 0; stroke: #868e96; stroke-width: 0.75"/>
   </g>
   <g id="patch_3">
    <path d="M 38.617759 135.544518 
L 38.617759 6.622729 
" style="fill: none; stroke: #212529; stroke-width: 0.3; stroke-linejoin: miter; stroke-linecap: square"/>
   </g>
   <g id="patch_4">
    <path d="M 38.617759 135.544518 
L 319.931674 135.544518 
" style="fill: none; stroke: #000000; stroke-width: 0.3; stroke-linejoin: miter; stroke-linecap: square"/>
   </g>
   <g id="matplotlib.axis_1">
    <g id="xtick_1">
     <g id="line2d_3">
      <defs>
       <path id="m936cfe4690" d="M 0 0 
L 0 2 
" style="stroke: #000000; stroke-width: 0.3"/>
      </defs>
      <g>
       <use xlink:href="#m936cfe4690" x="38.617759" y="135.544518" style="stroke: #000000; stroke-width: 0.3"/>
      </g>
     </g>
     <g id="text_1">
      <!-- −20 -->
      <g transform="translate(31.902759 147.544518) scale(0.08 -0.08)">
       <defs>
        <path id="Roboto-Light-2212" d="M 3125 2144 
L 516 2144 
L 516 2463 
L 3125 2463 
L 3125 2144 
z
" transform="scale(0.015625)"/>
        <path id="Roboto-Light-32" d="M 3278 0 
L 428 0 
L 428 288 
L 1988 2056 
Q 2375 2503 2525 2793 
Q 2675 3084 2675 3359 
Q 2675 3791 2422 4042 
Q 2169 4294 1725 4294 
Q 1266 4294 983 4000 
Q 700 3706 700 3238 
L 328 3238 
Q 328 3622 501 3937 
Q 675 4253 995 4433 
Q 1316 4613 1725 4613 
Q 2350 4613 2701 4284 
Q 3053 3956 3053 3391 
Q 3053 3072 2854 2694 
Q 2656 2316 2156 1750 
L 888 316 
L 3278 316 
L 3278 0 
z
" transform="scale(0.015625)"/>
        <path id="Roboto-Light-30" d="M 3172 1897 
Q 3172 934 2819 435 
Q 2466 -63 1778 -63 
Q 1103 -63 743 426 
Q 384 916 375 1850 
L 375 2666 
Q 375 3625 731 4119 
Q 1088 4613 1772 4613 
Q 2447 4613 2803 4136 
Q 3159 3659 3172 2731 
L 3172 1897 
z
M 2797 2713 
Q 2797 3494 2542 3894 
Q 2288 4294 1772 4294 
Q 1266 4294 1009 3903 
Q 753 3513 747 2750 
L 747 1856 
Q 747 1078 1011 665 
Q 1275 253 1778 253 
Q 2278 253 2536 656 
Q 2794 1059 2797 1838 
L 2797 2713 
z
" transform="scale(0.015625)"/>
       </defs>
       <use xlink:href="#Roboto-Light-2212"/>
       <use xlink:href="#Roboto-Light-32" transform="translate(57.03125 0)"/>
       <use xlink:href="#Roboto-Light-30" transform="translate(112.451172 0)"/>
      </g>
     </g>
    </g>
    <g id="xtick_2">
     <g id="line2d_4">
      <g>
       <use xlink:href="#m936cfe4690" x="85.503411" y="135.544518" style="stroke: #000000; stroke-width: 0.3"/>
      </g>
     </g>
     <g id="text_2">
      <!-- −15 -->
      <g transform="translate(78.788411 147.544518) scale(0.08 -0.08)">
       <defs>
        <path id="Roboto-Light-31" d="M 2169 0 
L 1794 0 
L 1794 4100 
L 556 3641 
L 556 3991 
L 2106 4566 
L 2169 4566 
L 2169 0 
z
" transform="scale(0.015625)"/>
        <path id="Roboto-Light-35" d="M 681 2331 
L 903 4550 
L 3178 4550 
L 3178 4203 
L 1225 4203 
L 1066 2666 
Q 1431 2916 1922 2916 
Q 2538 2916 2903 2516 
Q 3269 2116 3269 1450 
Q 3269 731 2912 334 
Q 2556 -63 1909 -63 
Q 1316 -63 947 268 
Q 578 600 525 1197 
L 884 1197 
Q 938 731 1200 492 
Q 1463 253 1909 253 
Q 2397 253 2645 562 
Q 2894 872 2894 1444 
Q 2894 1944 2616 2259 
Q 2338 2575 1856 2575 
Q 1591 2575 1394 2508 
Q 1197 2441 978 2247 
L 681 2331 
z
" transform="scale(0.015625)"/>
       </defs>
       <use xlink:href="#Roboto-Light-2212"/>
       <use xlink:href="#Roboto-Light-31" transform="translate(57.03125 0)"/>
       <use xlink:href="#Roboto-Light-35" transform="translate(112.451172 0)"/>
      </g>
     </g>
    </g>
    <g id="xtick_3">
     <g id="line2d_5">
      <g>
       <use xlink:href="#m936cfe4690" x="132.389064" y="135.544518" style="stroke: #000000; stroke-width: 0.3"/>
      </g>
     </g>
     <g id="text_3">
      <!-- −10 -->
      <g transform="translate(125.674064 147.544518) scale(0.08 -0.08)">
       <use xlink:href="#Roboto-Light-2212"/>
       <use xlink:href="#Roboto-Light-31" transform="translate(57.03125 0)"/>
       <use xlink:href="#Roboto-Light-30" transform="translate(112.451172 0)"/>
      </g>
     </g>
    </g>
    <g id="xtick_4">
     <g id="line2d_6">
      <g>
       <use xlink:href="#m936cfe4690" x="179.274716" y="135.544518" style="stroke: #000000; stroke-width: 0.3"/>
      </g>
     </g>
     <g id="text_4">
      <!-- −5 -->
      <g transform="translate(174.776591 147.544518) scale(0.08 -0.08)">
       <use xlink:href="#Roboto-Light-2212"/>
       <use xlink:href="#Roboto-Light-35" transform="translate(57.03125 0)"/>
      </g>
     </g>
    </g>
    <g id="xtick_5">
     <g id="line2d_7">
      <g>
       <use xlink:href="#m936cfe4690" x="226.160369" y="135.544518" style="stroke: #000000; stroke-width: 0.3"/>
      </g>
     </g>
     <g id="text_5">
      <!-- 0 -->
      <g transform="translate(223.943494 147.544518) scale(0.08 -0.08)">
       <use xlink:href="#Roboto-Light-30"/>
      </g>
     </g>
    </g>
    <g id="xtick_6">
     <g id="line2d_8">
      <g>
       <use xlink:href="#m936cfe4690" x="273.046022" y="135.544518" style="stroke: #000000; stroke-width: 0.3"/>
      </g>
     </g>
     <g id="text_6">
      <!-- 5 -->
      <g transform="translate(270.829147 147.544518) scale(0.08 -0.08)">
       <use xlink:href="#Roboto-Light-35"/>
      </g>
     </g>
    </g>
    <g id="xtick_7">
     <g id="line2d_9">
      <g>
       <use xlink:href="#m936cfe4690" x="319.931674" y="135.544518" style="stroke: #000000; stroke-width: 0.3"/>
      </g>
     </g>
     <g id="text_7">
      <!-- 10 -->
      <g transform="translate(315.497924 147.544518) scale(0.08 -0.08)">
       <use xlink:href="#Roboto-Light-31"/>
       <use xlink:href="#Roboto-Light-30" transform="translate(55.419922 0)"/>
      </g>
     </g>
    </g>
    <g id="text_8">
     <!-- Environmental temperature [°C] -->
     <g transform="translate(116.809091 162.482018) scale(0.09 -0.09)">
      <defs>
       <path id="Roboto-Regular-45" d="M 3100 2103 
L 1128 2103 
L 1128 491 
L 3419 491 
L 3419 0 
L 528 0 
L 528 4550 
L 3388 4550 
L 3388 4056 
L 1128 4056 
L 1128 2594 
L 3100 2594 
L 3100 2103 
z
" transform="scale(0.015625)"/>
       <path id="Roboto-Regular-6e" d="M 984 3381 
L 1003 2956 
Q 1391 3444 2016 3444 
Q 3088 3444 3097 2234 
L 3097 0 
L 2519 0 
L 2519 2238 
Q 2516 2603 2352 2778 
Q 2188 2953 1841 2953 
Q 1559 2953 1346 2803 
Q 1134 2653 1016 2409 
L 1016 0 
L 438 0 
L 438 3381 
L 984 3381 
z
" transform="scale(0.015625)"/>
       <path id="Roboto-Regular-76" d="M 1553 784 
L 2391 3381 
L 2981 3381 
L 1769 0 
L 1328 0 
L 103 3381 
L 694 3381 
L 1553 784 
z
" transform="scale(0.015625)"/>
       <path id="Roboto-Regular-69" d="M 1066 0 
L 488 0 
L 488 3381 
L 1066 3381 
L 1066 0 
z
M 441 4278 
Q 441 4419 527 4516 
Q 613 4613 781 4613 
Q 950 4613 1037 4516 
Q 1125 4419 1125 4278 
Q 1125 4138 1037 4044 
Q 950 3950 781 3950 
Q 613 3950 527 4044 
Q 441 4138 441 4278 
z
" transform="scale(0.015625)"/>
       <path id="Roboto-Regular-72" d="M 2072 2863 
Q 1941 2884 1788 2884 
Q 1219 2884 1016 2400 
L 1016 0 
L 438 0 
L 438 3381 
L 1000 3381 
L 1009 2991 
Q 1294 3444 1816 3444 
Q 1984 3444 2072 3400 
L 2072 2863 
z
" transform="scale(0.015625)"/>
       <path id="Roboto-Regular-6f" d="M 284 1722 
Q 284 2219 479 2616 
Q 675 3013 1023 3228 
Q 1372 3444 1819 3444 
Q 2509 3444 2936 2966 
Q 3363 2488 3363 1694 
L 3363 1653 
Q 3363 1159 3173 767 
Q 2984 375 2632 156 
Q 2281 -63 1825 -63 
Q 1138 -63 711 415 
Q 284 894 284 1681 
L 284 1722 
z
M 866 1653 
Q 866 1091 1127 750 
Q 1388 409 1825 409 
Q 2266 409 2525 754 
Q 2784 1100 2784 1722 
Q 2784 2278 2520 2623 
Q 2256 2969 1819 2969 
Q 1391 2969 1128 2628 
Q 866 2288 866 1653 
z
" transform="scale(0.015625)"/>
       <path id="Roboto-Regular-6d" d="M 981 3381 
L 997 3006 
Q 1369 3444 2000 3444 
Q 2709 3444 2966 2900 
Q 3134 3144 3404 3294 
Q 3675 3444 4044 3444 
Q 5156 3444 5175 2266 
L 5175 0 
L 4597 0 
L 4597 2231 
Q 4597 2594 4431 2773 
Q 4266 2953 3875 2953 
Q 3553 2953 3340 2761 
Q 3128 2569 3094 2244 
L 3094 0 
L 2513 0 
L 2513 2216 
Q 2513 2953 1791 2953 
Q 1222 2953 1013 2469 
L 1013 0 
L 434 0 
L 434 3381 
L 981 3381 
z
" transform="scale(0.015625)"/>
       <path id="Roboto-Regular-65" d="M 1841 -63 
Q 1153 -63 722 389 
Q 291 841 291 1597 
L 291 1703 
Q 291 2206 483 2601 
Q 675 2997 1020 3220 
Q 1366 3444 1769 3444 
Q 2428 3444 2793 3009 
Q 3159 2575 3159 1766 
L 3159 1525 
L 869 1525 
Q 881 1025 1161 717 
Q 1441 409 1872 409 
Q 2178 409 2390 534 
Q 2603 659 2763 866 
L 3116 591 
Q 2691 -63 1841 -63 
z
M 1769 2969 
Q 1419 2969 1181 2714 
Q 944 2459 888 2000 
L 2581 2000 
L 2581 2044 
Q 2556 2484 2343 2726 
Q 2131 2969 1769 2969 
z
" transform="scale(0.015625)"/>
       <path id="Roboto-Regular-74" d="M 1222 4200 
L 1222 3381 
L 1853 3381 
L 1853 2934 
L 1222 2934 
L 1222 838 
Q 1222 634 1306 532 
Q 1391 431 1594 431 
Q 1694 431 1869 469 
L 1869 0 
Q 1641 -63 1425 -63 
Q 1038 -63 841 171 
Q 644 406 644 838 
L 644 2934 
L 28 2934 
L 28 3381 
L 644 3381 
L 644 4200 
L 1222 4200 
z
" transform="scale(0.015625)"/>
       <path id="Roboto-Regular-61" d="M 2525 0 
Q 2475 100 2444 356 
Q 2041 -63 1481 -63 
Q 981 -63 661 220 
Q 341 503 341 938 
Q 341 1466 742 1758 
Q 1144 2050 1872 2050 
L 2434 2050 
L 2434 2316 
Q 2434 2619 2253 2798 
Q 2072 2978 1719 2978 
Q 1409 2978 1200 2822 
Q 991 2666 991 2444 
L 409 2444 
Q 409 2697 589 2933 
Q 769 3169 1076 3306 
Q 1384 3444 1753 3444 
Q 2338 3444 2669 3151 
Q 3000 2859 3013 2347 
L 3013 791 
Q 3013 325 3131 50 
L 3131 0 
L 2525 0 
z
M 1566 441 
Q 1838 441 2081 581 
Q 2325 722 2434 947 
L 2434 1641 
L 1981 1641 
Q 919 1641 919 1019 
Q 919 747 1100 594 
Q 1281 441 1566 441 
z
" transform="scale(0.015625)"/>
       <path id="Roboto-Regular-6c" d="M 1066 0 
L 488 0 
L 488 4800 
L 1066 4800 
L 1066 0 
z
" transform="scale(0.015625)"/>
       <path id="Roboto-Regular-20" transform="scale(0.015625)"/>
       <path id="Roboto-Regular-70" d="M 3294 1653 
Q 3294 881 2941 409 
Q 2588 -63 1984 -63 
Q 1369 -63 1016 328 
L 1016 -1300 
L 438 -1300 
L 438 3381 
L 966 3381 
L 994 3006 
Q 1347 3444 1975 3444 
Q 2584 3444 2939 2984 
Q 3294 2525 3294 1706 
L 3294 1653 
z
M 2716 1719 
Q 2716 2291 2472 2622 
Q 2228 2953 1803 2953 
Q 1278 2953 1016 2488 
L 1016 872 
Q 1275 409 1809 409 
Q 2225 409 2470 739 
Q 2716 1069 2716 1719 
z
" transform="scale(0.015625)"/>
       <path id="Roboto-Regular-75" d="M 2525 334 
Q 2188 -63 1534 -63 
Q 994 -63 711 251 
Q 428 566 425 1181 
L 425 3381 
L 1003 3381 
L 1003 1197 
Q 1003 428 1628 428 
Q 2291 428 2509 922 
L 2509 3381 
L 3088 3381 
L 3088 0 
L 2538 0 
L 2525 334 
z
" transform="scale(0.015625)"/>
       <path id="Roboto-Regular-5b" d="M 1634 4725 
L 1038 4725 
L 1038 -500 
L 1634 -500 
L 1634 -975 
L 456 -975 
L 456 5200 
L 1634 5200 
L 1634 4725 
z
" transform="scale(0.015625)"/>
       <path id="Roboto-Regular-b0" d="M 406 3800 
Q 406 4125 639 4369 
Q 872 4613 1203 4613 
Q 1528 4613 1758 4370 
Q 1988 4128 1988 3800 
Q 1988 3469 1758 3234 
Q 1528 3000 1203 3000 
Q 875 3000 640 3234 
Q 406 3469 406 3800 
z
M 1203 3400 
Q 1372 3400 1487 3511 
Q 1603 3622 1603 3800 
Q 1603 3981 1487 4098 
Q 1372 4216 1203 4216 
Q 1031 4216 914 4092 
Q 797 3969 797 3800 
Q 797 3631 914 3515 
Q 1031 3400 1203 3400 
z
" transform="scale(0.015625)"/>
       <path id="Roboto-Regular-43" d="M 3875 1444 
Q 3791 722 3342 329 
Q 2894 -63 2150 -63 
Q 1344 -63 858 515 
Q 372 1094 372 2063 
L 372 2500 
Q 372 3134 598 3615 
Q 825 4097 1240 4355 
Q 1656 4613 2203 4613 
Q 2928 4613 3365 4208 
Q 3803 3803 3875 3088 
L 3272 3088 
Q 3194 3631 2933 3875 
Q 2672 4119 2203 4119 
Q 1628 4119 1301 3694 
Q 975 3269 975 2484 
L 975 2044 
Q 975 1303 1284 865 
Q 1594 428 2150 428 
Q 2650 428 2917 654 
Q 3184 881 3272 1444 
L 3875 1444 
z
" transform="scale(0.015625)"/>
       <path id="Roboto-Regular-5d" d="M 28 5200 
L 1209 5200 
L 1209 -975 
L 28 -975 
L 28 -500 
L 631 -500 
L 631 4725 
L 28 4725 
L 28 5200 
z
" transform="scale(0.015625)"/>
      </defs>
      <use xlink:href="#Roboto-Regular-45"/>
      <use xlink:href="#Roboto-Regular-6e" transform="translate(56.835938 0)"/>
      <use xlink:href="#Roboto-Regular-76" transform="translate(112.011719 0)"/>
      <use xlink:href="#Roboto-Regular-69" transform="translate(160.449219 0)"/>
      <use xlink:href="#Roboto-Regular-72" transform="translate(184.716797 0)"/>
      <use xlink:href="#Roboto-Regular-6f" transform="translate(218.554688 0)"/>
      <use xlink:href="#Roboto-Regular-6e" transform="translate(275.585938 0)"/>
      <use xlink:href="#Roboto-Regular-6d" transform="translate(330.761719 0)"/>
      <use xlink:href="#Roboto-Regular-65" transform="translate(418.408203 0)"/>
      <use xlink:href="#Roboto-Regular-6e" transform="translate(471.386719 0)"/>
      <use xlink:href="#Roboto-Regular-74" transform="translate(526.5625 0)"/>
      <use xlink:href="#Roboto-Regular-61" transform="translate(559.228516 0)"/>
      <use xlink:href="#Roboto-Regular-6c" transform="translate(613.623047 0)"/>
      <use xlink:href="#Roboto-Regular-20" transform="translate(637.890625 0)"/>
      <use xlink:href="#Roboto-Regular-74" transform="translate(662.646484 0)"/>
      <use xlink:href="#Roboto-Regular-65" transform="translate(695.3125 0)"/>
      <use xlink:href="#Roboto-Regular-6d" transform="translate(748.291016 0)"/>
      <use xlink:href="#Roboto-Regular-70" transform="translate(835.9375 0)"/>
      <use xlink:href="#Roboto-Regular-65" transform="translate(892.041016 0)"/>
      <use xlink:href="#Roboto-Regular-72" transform="translate(945.019531 0)"/>
      <use xlink:href="#Roboto-Regular-61" transform="translate(978.857422 0)"/>
      <use xlink:href="#Roboto-Regular-74" transform="translate(1033.251953 0)"/>
      <use xlink:href="#Roboto-Regular-75" transform="translate(1065.917969 0)"/>
      <use xlink:href="#Roboto-Regular-72" transform="translate(1121.044922 0)"/>
      <use xlink:href="#Roboto-Regular-65" transform="translate(1154.882812 0)"/>
      <use xlink:href="#Roboto-Regular-20" transform="translate(1207.861328 0)"/>
      <use xlink:href="#Roboto-Regular-5b" transform="translate(1232.617188 0)"/>
      <use xlink:href="#Roboto-Regular-b0" transform="translate(1259.130859 0)"/>
      <use xlink:href="#Roboto-Regular-43" transform="translate(1296.484375 0)"/>
      <use xlink:href="#Roboto-Regular-5d" transform="translate(1361.572266 0)"/>
     </g>
    </g>
   </g>
   <g id="matplotlib.axis_2">
    <g id="ytick_1">
     <g id="line2d_10">
      <defs>
       <path id="m266d55caeb" d="M 0 0 
L -2 0 
" style="stroke: #212529; stroke-width: 0.3"/>
      </defs>
      <g>
       <use xlink:href="#m266d55caeb" x="38.617759" y="135.544518" style="fill: #212529; stroke: #212529; stroke-width: 0.3"/>
      </g>
     </g>
     <g id="text_9">
      <!-- 300 -->
      <g style="fill: #212529" transform="translate(19.316509 138.544518) scale(0.08 -0.08)">
       <defs>
        <path id="Roboto-Light-33" d="M 1259 2478 
L 1647 2478 
Q 1969 2478 2209 2592 
Q 2450 2706 2576 2904 
Q 2703 3103 2703 3363 
Q 2703 3800 2456 4047 
Q 2209 4294 1747 4294 
Q 1309 4294 1029 4036 
Q 750 3778 750 3356 
L 375 3356 
Q 375 3709 553 4001 
Q 731 4294 1047 4453 
Q 1363 4613 1747 4613 
Q 2366 4613 2722 4275 
Q 3078 3938 3078 3350 
Q 3078 3022 2870 2745 
Q 2663 2469 2300 2331 
Q 2725 2213 2944 1923 
Q 3163 1634 3163 1234 
Q 3163 650 2781 293 
Q 2400 -63 1763 -63 
Q 1356 -63 1017 100 
Q 678 263 492 555 
Q 306 847 306 1234 
L 681 1234 
Q 681 800 984 526 
Q 1288 253 1763 253 
Q 2247 253 2517 501 
Q 2788 750 2788 1222 
Q 2788 1678 2495 1918 
Q 2203 2159 1634 2159 
L 1259 2159 
L 1259 2478 
z
" transform="scale(0.015625)"/>
       </defs>
       <use xlink:href="#Roboto-Light-33"/>
       <use xlink:href="#Roboto-Light-30" transform="translate(55.419922 0)"/>
       <use xlink:href="#Roboto-Light-30" transform="translate(110.839844 0)"/>
      </g>
     </g>
    </g>
    <g id="ytick_2">
     <g id="line2d_11">
      <g>
       <use xlink:href="#m266d55caeb" x="38.617759" y="114.057553" style="fill: #212529; stroke: #212529; stroke-width: 0.3"/>
      </g>
     </g>
     <g id="text_10">
      <!-- 350 -->
      <g style="fill: #212529" transform="translate(19.316509 117.057553) scale(0.08 -0.08)">
       <use xlink:href="#Roboto-Light-33"/>
       <use xlink:href="#Roboto-Light-35" transform="translate(55.419922 0)"/>
       <use xlink:href="#Roboto-Light-30" transform="translate(110.839844 0)"/>
      </g>
     </g>
    </g>
    <g id="ytick_3">
     <g id="line2d_12">
      <g>
       <use xlink:href="#m266d55caeb" x="38.617759" y="92.570588" style="fill: #212529; stroke: #212529; stroke-width: 0.3"/>
      </g>
     </g>
     <g id="text_11">
      <!-- 400 -->
      <g style="fill: #212529" transform="translate(19.316509 95.570588) scale(0.08 -0.08)">
       <defs>
        <path id="Roboto-Light-34" d="M 2725 1466 
L 3434 1466 
L 3434 1150 
L 2725 1150 
L 2725 0 
L 2350 0 
L 2350 1150 
L 209 1150 
L 209 1363 
L 2316 4550 
L 2725 4550 
L 2725 1466 
z
M 669 1466 
L 2350 1466 
L 2350 4066 
L 2184 3778 
L 669 1466 
z
" transform="scale(0.015625)"/>
       </defs>
       <use xlink:href="#Roboto-Light-34"/>
       <use xlink:href="#Roboto-Light-30" transform="translate(55.419922 0)"/>
       <use xlink:href="#Roboto-Light-30" transform="translate(110.839844 0)"/>
      </g>
     </g>
    </g>
    <g id="ytick_4">
     <g id="line2d_13">
      <g>
       <use xlink:href="#m266d55caeb" x="38.617759" y="71.083623" style="fill: #212529; stroke: #212529; stroke-width: 0.3"/>
      </g>
     </g>
     <g id="text_12">
      <!-- 450 -->
      <g style="fill: #212529" transform="translate(19.316509 74.083623) scale(0.08 -0.08)">
       <use xlink:href="#Roboto-Light-34"/>
       <use xlink:href="#Roboto-Light-35" transform="translate(55.419922 0)"/>
       <use xlink:href="#Roboto-Light-30" transform="translate(110.839844 0)"/>
      </g>
     </g>
    </g>
    <g id="ytick_5">
     <g id="line2d_14">
      <g>
       <use xlink:href="#m266d55caeb" x="38.617759" y="49.596659" style="fill: #212529; stroke: #212529; stroke-width: 0.3"/>
      </g>
     </g>
     <g id="text_13">
      <!-- 500 -->
      <g style="fill: #212529" transform="translate(19.316509 52.596659) scale(0.08 -0.08)">
       <use xlink:href="#Roboto-Light-35"/>
       <use xlink:href="#Roboto-Light-30" transform="translate(55.419922 0)"/>
       <use xlink:href="#Roboto-Light-30" transform="translate(110.839844 0)"/>
      </g>
     </g>
    </g>
    <g id="ytick_6">
     <g id="line2d_15">
      <g>
       <use xlink:href="#m266d55caeb" x="38.617759" y="28.109694" style="fill: #212529; stroke: #212529; stroke-width: 0.3"/>
      </g>
     </g>
     <g id="text_14">
      <!-- 550 -->
      <g style="fill: #212529" transform="translate(19.316509 31.109694) scale(0.08 -0.08)">
       <use xlink:href="#Roboto-Light-35"/>
       <use xlink:href="#Roboto-Light-35" transform="translate(55.419922 0)"/>
       <use xlink:href="#Roboto-Light-30" transform="translate(110.839844 0)"/>
      </g>
     </g>
    </g>
    <g id="ytick_7">
     <g id="line2d_16">
      <g>
       <use xlink:href="#m266d55caeb" x="38.617759" y="6.622729" style="fill: #212529; stroke: #212529; stroke-width: 0.3"/>
      </g>
     </g>
     <g id="text_15">
      <!-- 600 -->
      <g style="fill: #212529" transform="translate(19.316509 9.622729) scale(0.08 -0.08)">
       <defs>
        <path id="Roboto-Light-36" d="M 2634 4584 
L 2634 4256 
L 2591 4256 
Q 1775 4256 1306 3776 
Q 838 3297 788 2444 
Q 975 2703 1265 2845 
Q 1556 2988 1916 2988 
Q 2516 2988 2870 2573 
Q 3225 2159 3225 1491 
Q 3225 1047 3059 690 
Q 2894 334 2584 135 
Q 2275 -63 1878 -63 
Q 1225 -63 815 410 
Q 406 884 406 1634 
L 406 2009 
Q 406 3231 962 3901 
Q 1519 4572 2541 4584 
L 2634 4584 
z
M 1856 2666 
Q 1500 2666 1192 2455 
Q 884 2244 781 1919 
L 781 1600 
Q 781 1006 1086 631 
Q 1391 256 1878 256 
Q 2316 256 2586 603 
Q 2856 950 2856 1478 
Q 2856 2016 2586 2341 
Q 2316 2666 1856 2666 
z
" transform="scale(0.015625)"/>
       </defs>
       <use xlink:href="#Roboto-Light-36"/>
       <use xlink:href="#Roboto-Light-30" transform="translate(55.419922 0)"/>
       <use xlink:href="#Roboto-Light-30" transform="translate(110.839844 0)"/>
      </g>
     </g>
    </g>
    <g id="text_16">
     <!-- System energy efficiency [%] -->
     <g style="fill: #212529" transform="translate(11.395571 127.853233) rotate(-90) scale(0.09 -0.09)">
      <defs>
       <path id="Roboto-Regular-53" d="M 1869 2028 
Q 1097 2250 745 2573 
Q 394 2897 394 3372 
Q 394 3909 823 4261 
Q 1253 4613 1941 4613 
Q 2409 4613 2776 4431 
Q 3144 4250 3345 3931 
Q 3547 3613 3547 3234 
L 2944 3234 
Q 2944 3647 2681 3883 
Q 2419 4119 1941 4119 
Q 1497 4119 1248 3923 
Q 1000 3728 1000 3381 
Q 1000 3103 1236 2911 
Q 1472 2719 2039 2559 
Q 2606 2400 2926 2208 
Q 3247 2016 3401 1759 
Q 3556 1503 3556 1156 
Q 3556 603 3125 270 
Q 2694 -63 1972 -63 
Q 1503 -63 1097 117 
Q 691 297 470 609 
Q 250 922 250 1319 
L 853 1319 
Q 853 906 1158 667 
Q 1463 428 1972 428 
Q 2447 428 2700 622 
Q 2953 816 2953 1150 
Q 2953 1484 2718 1667 
Q 2484 1850 1869 2028 
z
" transform="scale(0.015625)"/>
       <path id="Roboto-Regular-79" d="M 1544 847 
L 2331 3381 
L 2950 3381 
L 1591 -522 
Q 1275 -1366 588 -1366 
L 478 -1356 
L 263 -1316 
L 263 -847 
L 419 -859 
Q 713 -859 877 -740 
Q 1041 -622 1147 -306 
L 1275 38 
L 69 3381 
L 700 3381 
L 1544 847 
z
" transform="scale(0.015625)"/>
       <path id="Roboto-Regular-73" d="M 2406 897 
Q 2406 1131 2229 1261 
Q 2053 1391 1614 1484 
Q 1175 1578 917 1709 
Q 659 1841 536 2022 
Q 413 2203 413 2453 
Q 413 2869 764 3156 
Q 1116 3444 1663 3444 
Q 2238 3444 2595 3147 
Q 2953 2850 2953 2388 
L 2372 2388 
Q 2372 2625 2170 2797 
Q 1969 2969 1663 2969 
Q 1347 2969 1169 2831 
Q 991 2694 991 2472 
Q 991 2263 1156 2156 
Q 1322 2050 1755 1953 
Q 2188 1856 2456 1722 
Q 2725 1588 2854 1398 
Q 2984 1209 2984 938 
Q 2984 484 2621 210 
Q 2259 -63 1681 -63 
Q 1275 -63 962 81 
Q 650 225 473 483 
Q 297 741 297 1041 
L 875 1041 
Q 891 750 1108 579 
Q 1325 409 1681 409 
Q 2009 409 2207 542 
Q 2406 675 2406 897 
z
" transform="scale(0.015625)"/>
       <path id="Roboto-Regular-67" d="M 300 1719 
Q 300 2509 665 2976 
Q 1031 3444 1634 3444 
Q 2253 3444 2600 3006 
L 2628 3381 
L 3156 3381 
L 3156 81 
Q 3156 -575 2767 -953 
Q 2378 -1331 1722 -1331 
Q 1356 -1331 1006 -1175 
Q 656 -1019 472 -747 
L 772 -400 
Q 1144 -859 1681 -859 
Q 2103 -859 2339 -621 
Q 2575 -384 2575 47 
L 2575 338 
Q 2228 -63 1628 -63 
Q 1034 -63 667 415 
Q 300 894 300 1719 
z
M 881 1653 
Q 881 1081 1115 754 
Q 1350 428 1772 428 
Q 2319 428 2575 925 
L 2575 2469 
Q 2309 2953 1778 2953 
Q 1356 2953 1118 2625 
Q 881 2297 881 1653 
z
" transform="scale(0.015625)"/>
       <path id="Roboto-Regular-66" d="M 722 0 
L 722 2934 
L 188 2934 
L 188 3381 
L 722 3381 
L 722 3728 
Q 722 4272 1012 4569 
Q 1303 4866 1834 4866 
Q 2034 4866 2231 4813 
L 2200 4344 
Q 2053 4372 1888 4372 
Q 1606 4372 1453 4208 
Q 1300 4044 1300 3738 
L 1300 3381 
L 2022 3381 
L 2022 2934 
L 1300 2934 
L 1300 0 
L 722 0 
z
" transform="scale(0.015625)"/>
       <path id="Roboto-Regular-63" d="M 1794 409 
Q 2103 409 2334 596 
Q 2566 784 2591 1066 
L 3138 1066 
Q 3122 775 2937 512 
Q 2753 250 2445 93 
Q 2138 -63 1794 -63 
Q 1103 -63 695 398 
Q 288 859 288 1659 
L 288 1756 
Q 288 2250 469 2634 
Q 650 3019 989 3231 
Q 1328 3444 1791 3444 
Q 2359 3444 2736 3103 
Q 3113 2763 3138 2219 
L 2591 2219 
Q 2566 2547 2342 2758 
Q 2119 2969 1791 2969 
Q 1350 2969 1108 2651 
Q 866 2334 866 1734 
L 866 1625 
Q 866 1041 1106 725 
Q 1347 409 1794 409 
z
" transform="scale(0.015625)"/>
       <path id="Roboto-Regular-25" d="M 328 3675 
Q 328 4084 589 4350 
Q 850 4616 1259 4616 
Q 1675 4616 1933 4348 
Q 2191 4081 2191 3656 
L 2191 3434 
Q 2191 3022 1930 2761 
Q 1669 2500 1266 2500 
Q 859 2500 593 2761 
Q 328 3022 328 3456 
L 328 3675 
z
M 759 3434 
Q 759 3191 896 3033 
Q 1034 2875 1266 2875 
Q 1488 2875 1623 3028 
Q 1759 3181 1759 3447 
L 1759 3675 
Q 1759 3919 1625 4078 
Q 1491 4238 1259 4238 
Q 1028 4238 893 4078 
Q 759 3919 759 3663 
L 759 3434 
z
M 2544 1116 
Q 2544 1525 2805 1789 
Q 3066 2053 3475 2053 
Q 3884 2053 4146 1790 
Q 4409 1528 4409 1094 
L 4409 872 
Q 4409 463 4148 198 
Q 3888 -66 3481 -66 
Q 3075 -66 2809 195 
Q 2544 456 2544 891 
L 2544 1116 
z
M 2975 872 
Q 2975 625 3112 467 
Q 3250 309 3481 309 
Q 3706 309 3840 464 
Q 3975 619 3975 884 
L 3975 1116 
Q 3975 1363 3839 1519 
Q 3703 1675 3475 1675 
Q 3253 1675 3114 1520 
Q 2975 1366 2975 1103 
L 2975 872 
z
M 1397 344 
L 1069 550 
L 3291 4106 
L 3619 3900 
L 1397 344 
z
" transform="scale(0.015625)"/>
      </defs>
      <use xlink:href="#Roboto-Regular-53"/>
      <use xlink:href="#Roboto-Regular-79" transform="translate(59.326172 0)"/>
      <use xlink:href="#Roboto-Regular-73" transform="translate(106.640625 0)"/>
      <use xlink:href="#Roboto-Regular-74" transform="translate(158.203125 0)"/>
      <use xlink:href="#Roboto-Regular-65" transform="translate(190.869141 0)"/>
      <use xlink:href="#Roboto-Regular-6d" transform="translate(243.847656 0)"/>
      <use xlink:href="#Roboto-Regular-20" transform="translate(331.494141 0)"/>
      <use xlink:href="#Roboto-Regular-65" transform="translate(356.25 0)"/>
      <use xlink:href="#Roboto-Regular-6e" transform="translate(409.228516 0)"/>
      <use xlink:href="#Roboto-Regular-65" transform="translate(464.404297 0)"/>
      <use xlink:href="#Roboto-Regular-72" transform="translate(517.382812 0)"/>
      <use xlink:href="#Roboto-Regular-67" transform="translate(551.220703 0)"/>
      <use xlink:href="#Roboto-Regular-79" transform="translate(607.324219 0)"/>
      <use xlink:href="#Roboto-Regular-20" transform="translate(654.638672 0)"/>
      <use xlink:href="#Roboto-Regular-65" transform="translate(679.394531 0)"/>
      <use xlink:href="#Roboto-Regular-66" transform="translate(732.373047 0)"/>
      <use xlink:href="#Roboto-Regular-66" transform="translate(767.089844 0)"/>
      <use xlink:href="#Roboto-Regular-69" transform="translate(801.806641 0)"/>
      <use xlink:href="#Roboto-Regular-63" transform="translate(826.074219 0)"/>
      <use xlink:href="#Roboto-Regular-69" transform="translate(878.417969 0)"/>
      <use xlink:href="#Roboto-Regular-65" transform="translate(902.685547 0)"/>
      <use xlink:href="#Roboto-Regular-6e" transform="translate(955.664062 0)"/>
      <use xlink:href="#Roboto-Regular-63" transform="translate(1010.839844 0)"/>
      <use xlink:href="#Roboto-Regular-79" transform="translate(1063.183594 0)"/>
      <use xlink:href="#Roboto-Regular-20" transform="translate(1110.498047 0)"/>
      <use xlink:href="#Roboto-Regular-5b" transform="translate(1135.253906 0)"/>
      <use xlink:href="#Roboto-Regular-25" transform="translate(1161.767578 0)"/>
      <use xlink:href="#Roboto-Regular-5d" transform="translate(1235.009766 0)"/>
     </g>
    </g>
   </g>
   <g id="PathCollection_1">
    <defs>
     <path id="m3155d02305" d="M 0 2.738613 
C 0.726289 2.738613 1.422928 2.450055 1.936492 1.936492 
C 2.450055 1.422928 2.738613 0.726289 2.738613 0 
C 2.738613 -0.726289 2.450055 -1.422928 1.936492 -1.936492 
C 1.422928 -2.450055 0.726289 -2.738613 0 -2.738613 
C -0.726289 -2.738613 -1.422928 -2.450055 -1.936492 -1.936492 
C -2.450055 -1.422928 -2.738613 -0.726289 -2.738613 0 
C -2.738613 0.726289 -2.450055 1.422928 -1.936492 1.936492 
C -1.422928 2.450055 -0.726289 2.738613 0 2.738613 
z
" style="stroke: #ffffff"/>
    </defs>
    <g clip-path="url(#pca8b439098)">
     <use xlink:href="#m3155d02305" x="274.466799" y="29.655493" style="fill: #868e96; stroke: #ffffff"/>
    </g>
   </g>
   <g id="legend_1">
    <g id="line2d_17">
     <path d="M 45.367759 10.003984 
L 52.867759 10.003984 
L 60.367759 10.003984 
" style="fill: none; stroke: #868e96; stroke-linecap: square"/>
    </g>
    <g id="text_17">
     <!-- Energy efficiency -->
     <g transform="translate(64.867759 12.628984) scale(0.075 -0.075)">
      <defs>
       <path id="Roboto-Light-45" d="M 3088 2181 
L 959 2181 
L 959 325 
L 3406 325 
L 3406 0 
L 575 0 
L 575 4550 
L 3391 4550 
L 3391 4222 
L 959 4222 
L 959 2506 
L 3088 2506 
L 3088 2181 
z
" transform="scale(0.015625)"/>
       <path id="Roboto-Light-6e" d="M 844 3381 
L 856 2803 
Q 1047 3116 1331 3280 
Q 1616 3444 1959 3444 
Q 2503 3444 2768 3137 
Q 3034 2831 3038 2219 
L 3038 0 
L 2666 0 
L 2666 2222 
Q 2663 2675 2473 2897 
Q 2284 3119 1869 3119 
Q 1522 3119 1255 2901 
Q 988 2684 859 2316 
L 859 0 
L 488 0 
L 488 3381 
L 844 3381 
z
" transform="scale(0.015625)"/>
       <path id="Roboto-Light-65" d="M 1797 -63 
Q 1366 -63 1017 150 
Q 669 363 475 742 
Q 281 1122 281 1594 
L 281 1728 
Q 281 2216 470 2606 
Q 659 2997 996 3220 
Q 1334 3444 1728 3444 
Q 2344 3444 2705 3023 
Q 3066 2603 3066 1875 
L 3066 1666 
L 653 1666 
L 653 1594 
Q 653 1019 983 636 
Q 1313 253 1813 253 
Q 2113 253 2342 362 
Q 2572 472 2759 713 
L 2994 534 
Q 2581 -63 1797 -63 
z
M 1728 3125 
Q 1306 3125 1017 2815 
Q 728 2506 666 1984 
L 2694 1984 
L 2694 2025 
Q 2678 2513 2415 2819 
Q 2153 3125 1728 3125 
z
" transform="scale(0.015625)"/>
       <path id="Roboto-Light-72" d="M 2050 3063 
Q 1931 3084 1797 3084 
Q 1447 3084 1205 2889 
Q 963 2694 859 2322 
L 859 0 
L 488 0 
L 488 3381 
L 853 3381 
L 859 2844 
Q 1156 3444 1813 3444 
Q 1969 3444 2059 3403 
L 2050 3063 
z
" transform="scale(0.015625)"/>
       <path id="Roboto-Light-67" d="M 338 1722 
Q 338 2516 689 2980 
Q 1041 3444 1644 3444 
Q 2334 3444 2694 2894 
L 2713 3381 
L 3063 3381 
L 3063 69 
Q 3063 -584 2697 -965 
Q 2331 -1347 1706 -1347 
Q 1353 -1347 1033 -1189 
Q 713 -1031 528 -769 
L 738 -544 
Q 1134 -1031 1681 -1031 
Q 2150 -1031 2412 -754 
Q 2675 -478 2684 13 
L 2684 438 
Q 2325 -63 1638 -63 
Q 1050 -63 694 406 
Q 338 875 338 1672 
L 338 1722 
z
M 716 1656 
Q 716 1009 975 636 
Q 1234 263 1706 263 
Q 2397 263 2684 881 
L 2684 2453 
Q 2553 2778 2306 2948 
Q 2059 3119 1713 3119 
Q 1241 3119 978 2748 
Q 716 2378 716 1656 
z
" transform="scale(0.015625)"/>
       <path id="Roboto-Light-79" d="M 1559 538 
L 2547 3381 
L 2950 3381 
L 1506 -575 
L 1431 -750 
Q 1153 -1366 572 -1366 
Q 438 -1366 284 -1322 
L 281 -1013 
L 475 -1031 
Q 750 -1031 920 -895 
Q 1091 -759 1209 -428 
L 1375 28 
L 100 3381 
L 509 3381 
L 1559 538 
z
" transform="scale(0.015625)"/>
       <path id="Roboto-Light-20" transform="scale(0.015625)"/>
       <path id="Roboto-Light-66" d="M 756 0 
L 756 3075 
L 197 3075 
L 197 3381 
L 756 3381 
L 756 3791 
Q 756 4309 1020 4587 
Q 1284 4866 1756 4866 
Q 1969 4866 2153 4813 
L 2125 4500 
Q 1969 4538 1784 4538 
Q 1475 4538 1303 4345 
Q 1131 4153 1131 3800 
L 1131 3381 
L 1938 3381 
L 1938 3075 
L 1131 3075 
L 1131 0 
L 756 0 
z
" transform="scale(0.015625)"/>
       <path id="Roboto-Light-69" d="M 906 0 
L 531 0 
L 531 3381 
L 906 3381 
L 906 0 
z
M 466 4359 
Q 466 4466 534 4539 
Q 603 4613 722 4613 
Q 841 4613 911 4539 
Q 981 4466 981 4359 
Q 981 4253 911 4181 
Q 841 4109 722 4109 
Q 603 4109 534 4181 
Q 466 4253 466 4359 
z
" transform="scale(0.015625)"/>
       <path id="Roboto-Light-63" d="M 1738 253 
Q 2128 253 2392 473 
Q 2656 694 2678 1044 
L 3038 1044 
Q 3022 734 2844 479 
Q 2666 225 2370 81 
Q 2075 -63 1738 -63 
Q 1072 -63 683 400 
Q 294 863 294 1644 
L 294 1756 
Q 294 2256 469 2640 
Q 644 3025 970 3234 
Q 1297 3444 1734 3444 
Q 2291 3444 2652 3112 
Q 3013 2781 3038 2241 
L 2678 2241 
Q 2653 2638 2392 2881 
Q 2131 3125 1734 3125 
Q 1228 3125 948 2759 
Q 669 2394 669 1734 
L 669 1625 
Q 669 978 948 615 
Q 1228 253 1738 253 
z
" transform="scale(0.015625)"/>
      </defs>
      <use xlink:href="#Roboto-Light-45"/>
      <use xlink:href="#Roboto-Light-6e" transform="translate(56.884766 0)"/>
      <use xlink:href="#Roboto-Light-65" transform="translate(111.816406 0)"/>
      <use xlink:href="#Roboto-Light-72" transform="translate(163.476562 0)"/>
      <use xlink:href="#Roboto-Light-67" transform="translate(197.119141 0)"/>
      <use xlink:href="#Roboto-Light-79" transform="translate(252.587891 0)"/>
      <use xlink:href="#Roboto-Light-20" transform="translate(300.097656 0)"/>
      <use xlink:href="#Roboto-Light-65" transform="translate(324.414062 0)"/>
      <use xlink:href="#Roboto-Light-66" transform="translate(376.074219 0)"/>
      <use xlink:href="#Roboto-Light-66" transform="translate(409.179688 0)"/>
      <use xlink:href="#Roboto-Light-69" transform="translate(442.285156 0)"/>
      <use xlink:href="#Roboto-Light-63" transform="translate(464.697266 0)"/>
      <use xlink:href="#Roboto-Light-69" transform="translate(516.210938 0)"/>
      <use xlink:href="#Roboto-Light-65" transform="translate(538.623047 0)"/>
      <use xlink:href="#Roboto-Light-6e" transform="translate(590.283203 0)"/>
      <use xlink:href="#Roboto-Light-63" transform="translate(645.214844 0)"/>
      <use xlink:href="#Roboto-Light-79" transform="translate(696.728516 0)"/>
     </g>
    </g>
    <g id="line2d_18">
     <path d="M 45.367759 20.307109 
L 52.867759 20.307109 
L 60.367759 20.307109 
" style="fill: none; stroke: #fa5252; stroke-linecap: square"/>
    </g>
    <g id="text_18">
     <!-- Exergy efficiency -->
     <g transform="translate(64.867759 22.932109) scale(0.075 -0.075)">
      <defs>
       <path id="Roboto-Light-78" d="M 1550 2009 
L 2463 3381 
L 2906 3381 
L 1759 1722 
L 2956 0 
L 2516 0 
L 1553 1431 
L 591 0 
L 150 0 
L 1344 1722 
L 197 3381 
L 638 3381 
L 1550 2009 
z
" transform="scale(0.015625)"/>
      </defs>
      <use xlink:href="#Roboto-Light-45"/>
      <use xlink:href="#Roboto-Light-78" transform="translate(56.884766 0)"/>
      <use xlink:href="#Roboto-Light-65" transform="translate(105.517578 0)"/>
      <use xlink:href="#Roboto-Light-72" transform="translate(157.177734 0)"/>
      <use xlink:href="#Roboto-Light-67" transform="translate(190.820312 0)"/>
      <use xlink:href="#Roboto-Light-79" transform="translate(246.289062 0)"/>
      <use xlink:href="#Roboto-Light-20" transform="translate(293.798828 0)"/>
      <use xlink:href="#Roboto-Light-65" transform="translate(318.115234 0)"/>
      <use xlink:href="#Roboto-Light-66" transform="translate(369.775391 0)"/>
      <use xlink:href="#Roboto-Light-66" transform="translate(402.880859 0)"/>
      <use xlink:href="#Roboto-Light-69" transform="translate(435.986328 0)"/>
      <use xlink:href="#Roboto-Light-63" transform="translate(458.398438 0)"/>
      <use xlink:href="#Roboto-Light-69" transform="translate(509.912109 0)"/>
      <use xlink:href="#Roboto-Light-65" transform="translate(532.324219 0)"/>
      <use xlink:href="#Roboto-Light-6e" transform="translate(583.984375 0)"/>
      <use xlink:href="#Roboto-Light-63" transform="translate(638.916016 0)"/>
      <use xlink:href="#Roboto-Light-79" transform="translate(690.429688 0)"/>
     </g>
    </g>
   </g>
  </g>
  <g id="axes_2">
   <g id="line2d_19">
    <path d="M 38.617759 93.279902 
L 41.459313 91.236116 
L 44.300868 89.256878 
L 47.142423 87.341554 
L 49.983978 85.489503 
L 52.825532 83.700078 
L 55.667087 81.972624 
L 58.508642 80.306482 
L 61.350196 78.700991 
L 64.191751 77.155486 
L 67.033306 75.669301 
L 69.87486 74.241771 
L 72.716415 72.87223 
L 75.55797 71.560012 
L 78.399525 70.304453 
L 81.241079 69.10489 
L 84.082634 67.960664 
L 86.924189 66.871115 
L 89.765743 65.835588 
L 92.607298 64.85343 
L 95.448853 63.923991 
L 98.290407 63.046623 
L 101.131962 62.220683 
L 103.973517 61.445531 
L 106.815072 60.720529 
L 109.656626 60.045045 
L 112.498181 59.418448 
L 115.339736 58.840113 
L 118.18129 58.309416 
L 121.022845 57.82574 
L 123.8644 57.388469 
L 126.705954 56.996991 
L 129.547509 56.6507 
L 132.389064 56.348991 
L 135.230619 56.091263 
L 138.072173 55.876921 
L 140.913728 55.705371 
L 143.755283 55.576024 
L 146.596837 55.488293 
L 149.438392 55.441596 
L 152.279947 55.435355 
L 155.121501 55.468993 
L 157.963056 55.541939 
L 160.804611 55.653624 
L 163.646166 55.803481 
L 166.48772 55.990949 
L 169.329275 56.215468 
L 172.17083 56.476483 
L 175.012384 56.773439 
L 177.853939 57.105788 
L 180.695494 57.472981 
L 183.537048 57.874474 
L 186.378603 58.309726 
L 189.220158 58.778198 
L 192.061713 59.279355 
L 194.903267 59.812661 
L 197.744822 60.377588 
L 200.586377 60.973606 
L 203.427931 61.600189 
L 206.269486 62.256814 
L 209.111041 62.94296 
L 211.952595 63.658107 
L 214.79415 64.40174 
L 217.635705 65.173344 
L 220.47726 65.972406 
L 223.318814 66.798415 
L 226.160369 67.650865 
L 229.001924 68.529248 
L 231.843478 69.433059 
L 234.685033 70.361796 
L 237.526588 71.314959 
L 240.368142 72.292047 
L 243.209697 73.292563 
L 246.051252 74.316011 
L 248.892807 75.361897 
L 251.734361 76.429727 
L 254.575916 77.519011 
L 257.417471 78.629258 
L 260.259025 79.759978 
L 263.10058 80.910686 
L 265.942135 82.080894 
L 268.783689 83.270117 
L 271.625244 84.477871 
L 274.466799 85.703674 
L 277.308354 86.947042 
L 280.149908 88.207496 
L 282.991463 89.484556 
L 285.833018 90.777742 
L 288.674572 92.086575 
L 291.516127 93.410579 
L 294.357682 94.749276 
L 297.199236 96.102191 
L 300.040791 97.468848 
L 302.882346 98.848772 
L 305.723901 100.241488 
L 308.565455 101.646523 
L 311.40701 103.063403 
L 314.248565 104.491656 
L 317.090119 105.930808 
L 319.931674 107.380388 
" clip-path="url(#pca8b439098)" style="fill: none; stroke: #fa5252; stroke-linecap: square"/>
   </g>
   <g id="line2d_20">
    <path d="M 152.279947 135.544518 
L 152.279947 55.435355 
" clip-path="url(#pca8b439098)" style="fill: none; stroke-dasharray: 2.25,1.125; stroke-dashoffset: 0; stroke: #fa5252; stroke-width: 0.75"/>
   </g>
   <g id="patch_5">
    <path d="M 319.931674 135.544518 
L 319.931674 6.622729 
" style="fill: none; stroke: #fa5252; stroke-width: 0.3; stroke-linejoin: miter; stroke-linecap: square"/>
   </g>
   <g id="matplotlib.axis_3">
    <g id="ytick_8">
     <g id="line2d_21">
      <defs>
       <path id="m83cbbf14dc" d="M 0 0 
L 2 0 
" style="stroke: #fa5252; stroke-width: 0.3"/>
      </defs>
      <g>
       <use xlink:href="#m83cbbf14dc" x="319.931674" y="135.544518" style="fill: #fa5252; stroke: #fa5252; stroke-width: 0.3"/>
      </g>
     </g>
     <g id="text_19">
      <!-- 20 -->
      <g style="fill: #fa5252" transform="translate(325.931674 138.544518) scale(0.08 -0.08)">
       <use xlink:href="#Roboto-Light-32"/>
       <use xlink:href="#Roboto-Light-30" transform="translate(55.419922 0)"/>
      </g>
     </g>
    </g>
    <g id="ytick_9">
     <g id="line2d_22">
      <g>
       <use xlink:href="#m83cbbf14dc" x="319.931674" y="114.057553" style="fill: #fa5252; stroke: #fa5252; stroke-width: 0.3"/>
      </g>
     </g>
     <g id="text_20">
      <!-- 25 -->
      <g style="fill: #fa5252" transform="translate(325.931674 117.057553) scale(0.08 -0.08)">
       <use xlink:href="#Roboto-Light-32"/>
       <use xlink:href="#Roboto-Light-35" transform="translate(55.419922 0)"/>
      </g>
     </g>
    </g>
    <g id="ytick_10">
     <g id="line2d_23">
      <g>
       <use xlink:href="#m83cbbf14dc" x="319.931674" y="92.570588" style="fill: #fa5252; stroke: #fa5252; stroke-width: 0.3"/>
      </g>
     </g>
     <g id="text_21">
      <!-- 30 -->
      <g style="fill: #fa5252" transform="translate(325.931674 95.570588) scale(0.08 -0.08)">
       <use xlink:href="#Roboto-Light-33"/>
       <use xlink:href="#Roboto-Light-30" transform="translate(55.419922 0)"/>
      </g>
     </g>
    </g>
    <g id="ytick_11">
     <g id="line2d_24">
      <g>
       <use xlink:href="#m83cbbf14dc" x="319.931674" y="71.083623" style="fill: #fa5252; stroke: #fa5252; stroke-width: 0.3"/>
      </g>
     </g>
     <g id="text_22">
      <!-- 35 -->
      <g style="fill: #fa5252" transform="translate(325.931674 74.083623) scale(0.08 -0.08)">
       <use xlink:href="#Roboto-Light-33"/>
       <use xlink:href="#Roboto-Light-35" transform="translate(55.419922 0)"/>
      </g>
     </g>
    </g>
    <g id="ytick_12">
     <g id="line2d_25">
      <g>
       <use xlink:href="#m83cbbf14dc" x="319.931674" y="49.596659" style="fill: #fa5252; stroke: #fa5252; stroke-width: 0.3"/>
      </g>
     </g>
     <g id="text_23">
      <!-- 40 -->
      <g style="fill: #fa5252" transform="translate(325.931674 52.596659) scale(0.08 -0.08)">
       <use xlink:href="#Roboto-Light-34"/>
       <use xlink:href="#Roboto-Light-30" transform="translate(55.419922 0)"/>
      </g>
     </g>
    </g>
    <g id="ytick_13">
     <g id="line2d_26">
      <g>
       <use xlink:href="#m83cbbf14dc" x="319.931674" y="28.109694" style="fill: #fa5252; stroke: #fa5252; stroke-width: 0.3"/>
      </g>
     </g>
     <g id="text_24">
      <!-- 45 -->
      <g style="fill: #fa5252" transform="translate(325.931674 31.109694) scale(0.08 -0.08)">
       <use xlink:href="#Roboto-Light-34"/>
       <use xlink:href="#Roboto-Light-35" transform="translate(55.419922 0)"/>
      </g>
     </g>
    </g>
    <g id="ytick_14">
     <g id="line2d_27">
      <g>
       <use xlink:href="#m83cbbf14dc" x="319.931674" y="6.622729" style="fill: #fa5252; stroke: #fa5252; stroke-width: 0.3"/>
      </g>
     </g>
     <g id="text_25">
      <!-- 50 -->
      <g style="fill: #fa5252" transform="translate(325.931674 9.622729) scale(0.08 -0.08)">
       <use xlink:href="#Roboto-Light-35"/>
       <use xlink:href="#Roboto-Light-30" transform="translate(55.419922 0)"/>
      </g>
     </g>
    </g>
    <g id="text_26">
     <!-- System exergy efficiency [%] -->
     <g style="fill: #fa5252" transform="translate(348.111674 127.600811) rotate(-90) scale(0.09 -0.09)">
      <defs>
       <path id="Roboto-Regular-78" d="M 1572 2147 
L 2322 3381 
L 2997 3381 
L 1891 1709 
L 3031 0 
L 2363 0 
L 1581 1266 
L 800 0 
L 128 0 
L 1269 1709 
L 163 3381 
L 831 3381 
L 1572 2147 
z
" transform="scale(0.015625)"/>
      </defs>
      <use xlink:href="#Roboto-Regular-53"/>
      <use xlink:href="#Roboto-Regular-79" transform="translate(59.326172 0)"/>
      <use xlink:href="#Roboto-Regular-73" transform="translate(106.640625 0)"/>
      <use xlink:href="#Roboto-Regular-74" transform="translate(158.203125 0)"/>
      <use xlink:href="#Roboto-Regular-65" transform="translate(190.869141 0)"/>
      <use xlink:href="#Roboto-Regular-6d" transform="translate(243.847656 0)"/>
      <use xlink:href="#Roboto-Regular-20" transform="translate(331.494141 0)"/>
      <use xlink:href="#Roboto-Regular-65" transform="translate(356.25 0)"/>
      <use xlink:href="#Roboto-Regular-78" transform="translate(409.228516 0)"/>
      <use xlink:href="#Roboto-Regular-65" transform="translate(458.789062 0)"/>
      <use xlink:href="#Roboto-Regular-72" transform="translate(511.767578 0)"/>
      <use xlink:href="#Roboto-Regular-67" transform="translate(545.605469 0)"/>
      <use xlink:href="#Roboto-Regular-79" transform="translate(601.708984 0)"/>
      <use xlink:href="#Roboto-Regular-20" transform="translate(649.023438 0)"/>
      <use xlink:href="#Roboto-Regular-65" transform="translate(673.779297 0)"/>
      <use xlink:href="#Roboto-Regular-66" transform="translate(726.757812 0)"/>
      <use xlink:href="#Roboto-Regular-66" transform="translate(761.474609 0)"/>
      <use xlink:href="#Roboto-Regular-69" transform="translate(796.191406 0)"/>
      <use xlink:href="#Roboto-Regular-63" transform="translate(820.458984 0)"/>
      <use xlink:href="#Roboto-Regular-69" transform="translate(872.802734 0)"/>
      <use xlink:href="#Roboto-Regular-65" transform="translate(897.070312 0)"/>
      <use xlink:href="#Roboto-Regular-6e" transform="translate(950.048828 0)"/>
      <use xlink:href="#Roboto-Regular-63" transform="translate(1005.224609 0)"/>
      <use xlink:href="#Roboto-Regular-79" transform="translate(1057.568359 0)"/>
      <use xlink:href="#Roboto-Regular-20" transform="translate(1104.882812 0)"/>
      <use xlink:href="#Roboto-Regular-5b" transform="translate(1129.638672 0)"/>
      <use xlink:href="#Roboto-Regular-25" transform="translate(1156.152344 0)"/>
      <use xlink:href="#Roboto-Regular-5d" transform="translate(1229.394531 0)"/>
     </g>
    </g>
   </g>
   <g id="PathCollection_2">
    <defs>
     <path id="m72e138ab36" d="M 0 2.738613 
C 0.726289 2.738613 1.422928 2.450055 1.936492 1.936492 
C 2.450055 1.422928 2.738613 0.726289 2.738613 0 
C 2.738613 -0.726289 2.450055 -1.422928 1.936492 -1.936492 
C 1.422928 -2.450055 0.726289 -2.738613 0 -2.738613 
C -0.726289 -2.738613 -1.422928 -2.450055 -1.936492 -1.936492 
C -2.450055 -1.422928 -2.738613 -0.726289 -2.738613 0 
C -2.738613 0.726289 -2.450055 1.422928 -1.936492 1.936492 
C -1.422928 2.450055 -0.726289 2.738613 0 2.738613 
z
" style="stroke: #ffffff"/>
    </defs>
    <g clip-path="url(#pca8b439098)">
     <use xlink:href="#m72e138ab36" x="152.279947" y="55.435355" style="fill: #fa5252; stroke: #ffffff"/>
    </g>
   </g>
  </g>
 </g>
 <defs>
  <clipPath id="pca8b439098">
   <rect x="38.617759" y="6.622729" width="281.313915" height="128.921789"/>
  </clipPath>
 </defs>
</svg>
