<?xml version="1.0" encoding="utf-8" standalone="no"?>
<!DOCTYPE svg PUBLIC "-//W3C//DTD SVG 1.1//EN"
  "http://www.w3.org/Graphics/SVG/1.1/DTD/svg11.dtd">
<svg xmlns:xlink="http://www.w3.org/1999/xlink" width="481.889764pt" height="226.771654pt" viewBox="0 0 481.889764 226.771654" xmlns="http://www.w3.org/2000/svg" version="1.1">
 <metadata>
  <rdf:RDF xmlns:dc="http://purl.org/dc/elements/1.1/" xmlns:cc="http://creativecommons.org/ns#" xmlns:rdf="http://www.w3.org/1999/02/22-rdf-syntax-ns#">
   <cc:Work>
    <dc:type rdf:resource="http://purl.org/dc/dcmitype/StillImage"/>
    <dc:date>2025-09-06T14:36:27.150294</dc:date>
    <dc:format>image/svg+xml</dc:format>
    <dc:creator>
     <cc:Agent>
      <dc:title>Matplotlib v3.10.3, https://matplotlib.org/</dc:title>
     </cc:Agent>
    </dc:creator>
   </cc:Work>
  </rdf:RDF>
 </metadata>
 <defs>
  <style type="text/css">*{stroke-linejoin: round; stroke-linecap: butt}</style>
 </defs>
 <g id="figure_1">
  <g id="patch_1">
   <path d="M 0 226.771654 
L 481.889764 226.771654 
L 481.889764 0 
L 0 0 
L 0 226.771654 
z
" style="fill: none"/>
  </g>
  <g id="axes_1">
   <g id="patch_2">
    <path d="M 42.10514 189.557692 
L 430.364606 189.557692 
L 430.364606 7.140004 
L 42.10514 7.140004 
L 42.10514 189.557692 
z
" style="fill: none"/>
   </g>
   <g id="line2d_1">
    <path d="M 42.10514 166.104424 
L 46.026953 162.039279 
L 49.948766 158.03946 
L 53.870579 154.104564 
L 57.792392 150.234192 
L 61.714204 146.427953 
L 65.636017 142.685459 
L 69.55783 139.00633 
L 73.479643 135.390191 
L 77.401456 131.836672 
L 81.323268 128.345407 
L 85.245081 124.916039 
L 89.166894 121.548212 
L 93.088707 118.241579 
L 97.010519 114.995795 
L 100.932332 111.810522 
L 104.854145 108.685426 
L 108.775958 105.620179 
L 112.697771 102.614457 
L 116.619583 99.667942 
L 120.541396 96.780318 
L 124.463209 93.951277 
L 128.385022 91.180513 
L 132.306834 88.467727 
L 136.228647 85.812623 
L 140.15046 83.214909 
L 144.072273 80.674299 
L 147.994086 78.190511 
L 151.915898 75.763266 
L 155.837711 73.392291 
L 159.759524 71.077316 
L 163.681337 68.818076 
L 167.60315 66.61431 
L 171.524962 64.465761 
L 175.446775 62.372175 
L 179.368588 60.333305 
L 183.290401 58.348904 
L 187.212213 56.418732 
L 191.134026 54.542552 
L 195.055839 52.72013 
L 198.977652 50.951237 
L 202.899465 49.235647 
L 206.821277 47.573138 
L 210.74309 45.963492 
L 214.664903 44.406494 
L 218.586716 42.901933 
L 222.508529 41.449602 
L 226.430341 40.049297 
L 230.352154 38.700817 
L 234.273967 37.403965 
L 238.19578 36.158549 
L 242.117592 34.964378 
L 246.039405 33.821265 
L 249.961218 32.729028 
L 253.883031 31.687486 
L 257.804844 30.696463 
L 261.726656 29.755785 
L 265.648469 28.865283 
L 269.570282 28.02479 
L 273.492095 27.234141 
L 277.413908 26.493177 
L 281.33572 25.801739 
L 285.257533 25.159675 
L 289.179346 24.566832 
L 293.101159 24.023062 
L 297.022971 23.528221 
L 300.944784 23.082167 
L 304.866597 22.68476 
L 308.78841 22.335864 
L 312.710223 22.035346 
L 316.632035 21.783077 
L 320.553848 21.578928 
L 324.475661 21.422775 
L 328.397474 21.314498 
L 332.319287 21.253976 
L 336.241099 21.241095 
L 340.162912 21.275742 
L 344.084725 21.357805 
L 348.006538 21.487179 
L 351.92835 21.663757 
L 355.850163 21.887439 
L 359.771976 22.158124 
L 363.693789 22.475718 
L 367.615602 22.840124 
L 371.537414 23.251254 
L 375.459227 23.709018 
L 379.38104 24.21333 
L 383.302853 24.764108 
L 387.224666 25.36127 
L 391.146478 26.00474 
L 395.068291 26.694441 
L 398.990104 27.430302 
L 402.911917 28.212251 
L 406.833729 29.040222 
L 410.755542 29.914149 
L 414.677355 30.833971 
L 418.599168 31.799627 
L 422.520981 32.81106 
L 426.442793 33.868215 
L 430.364606 34.971041 
" clip-path="url(#p8718474e9c)" style="fill: none; stroke: #868e96; stroke-linecap: square"/>
   </g>
   <g id="line2d_2">
    <path d="M 336.241099 189.557692 
L 336.241099 21.241095 
" clip-path="url(#p8718474e9c)" style="fill: none; stroke-dasharray: 2.25,1.125; stroke-dashoffset: 0; stroke: #868e96; stroke-width: 0.75"/>
   </g>
   <g id="patch_3">
    <path d="M 42.10514 189.557692 
L 42.10514 7.140004 
" style="fill: none; stroke: #868e96; stroke-width: 0.3; stroke-linejoin: miter; stroke-linecap: square"/>
   </g>
   <g id="patch_4">
    <path d="M 42.10514 189.557692 
L 430.364606 189.557692 
" style="fill: none; stroke: #000000; stroke-width: 0.3; stroke-linejoin: miter; stroke-linecap: square"/>
   </g>
   <g id="matplotlib.axis_1">
    <g id="xtick_1">
     <g id="line2d_3">
      <defs>
       <path id="m9ce39d46d4" d="M 0 0 
L 0 2 
" style="stroke: #000000; stroke-width: 0.3"/>
      </defs>
      <g>
       <use xlink:href="#m9ce39d46d4" x="42.10514" y="189.557692" style="stroke: #000000; stroke-width: 0.3"/>
      </g>
     </g>
     <g id="text_1">
      <!-- −20 -->
      <g transform="translate(34.550765 202.307692) scale(0.09 -0.09)">
       <defs>
        <path id="Roboto-Light-2212" d="M 3125 2144 
L 516 2144 
L 516 2463 
L 3125 2463 
L 3125 2144 
z
" transform="scale(0.015625)"/>
        <path id="Roboto-Light-32" d="M 3278 0 
L 428 0 
L 428 288 
L 1988 2056 
Q 2375 2503 2525 2793 
Q 2675 3084 2675 3359 
Q 2675 3791 2422 4042 
Q 2169 4294 1725 4294 
Q 1266 4294 983 4000 
Q 700 3706 700 3238 
L 328 3238 
Q 328 3622 501 3937 
Q 675 4253 995 4433 
Q 1316 4613 1725 4613 
Q 2350 4613 2701 4284 
Q 3053 3956 3053 3391 
Q 3053 3072 2854 2694 
Q 2656 2316 2156 1750 
L 888 316 
L 3278 316 
L 3278 0 
z
" transform="scale(0.015625)"/>
        <path id="Roboto-Light-30" d="M 3172 1897 
Q 3172 934 2819 435 
Q 2466 -63 1778 -63 
Q 1103 -63 743 426 
Q 384 916 375 1850 
L 375 2666 
Q 375 3625 731 4119 
Q 1088 4613 1772 4613 
Q 2447 4613 2803 4136 
Q 3159 3659 3172 2731 
L 3172 1897 
z
M 2797 2713 
Q 2797 3494 2542 3894 
Q 2288 4294 1772 4294 
Q 1266 4294 1009 3903 
Q 753 3513 747 2750 
L 747 1856 
Q 747 1078 1011 665 
Q 1275 253 1778 253 
Q 2278 253 2536 656 
Q 2794 1059 2797 1838 
L 2797 2713 
z
" transform="scale(0.015625)"/>
       </defs>
       <use xlink:href="#Roboto-Light-2212"/>
       <use xlink:href="#Roboto-Light-32" transform="translate(57.03125 0)"/>
       <use xlink:href="#Roboto-Light-30" transform="translate(112.451172 0)"/>
      </g>
     </g>
    </g>
    <g id="xtick_2">
     <g id="line2d_4">
      <g>
       <use xlink:href="#m9ce39d46d4" x="106.815051" y="189.557692" style="stroke: #000000; stroke-width: 0.3"/>
      </g>
     </g>
     <g id="text_2">
      <!-- −15 -->
      <g transform="translate(99.260676 202.307692) scale(0.09 -0.09)">
       <defs>
        <path id="Roboto-Light-31" d="M 2169 0 
L 1794 0 
L 1794 4100 
L 556 3641 
L 556 3991 
L 2106 4566 
L 2169 4566 
L 2169 0 
z
" transform="scale(0.015625)"/>
        <path id="Roboto-Light-35" d="M 681 2331 
L 903 4550 
L 3178 4550 
L 3178 4203 
L 1225 4203 
L 1066 2666 
Q 1431 2916 1922 2916 
Q 2538 2916 2903 2516 
Q 3269 2116 3269 1450 
Q 3269 731 2912 334 
Q 2556 -63 1909 -63 
Q 1316 -63 947 268 
Q 578 600 525 1197 
L 884 1197 
Q 938 731 1200 492 
Q 1463 253 1909 253 
Q 2397 253 2645 562 
Q 2894 872 2894 1444 
Q 2894 1944 2616 2259 
Q 2338 2575 1856 2575 
Q 1591 2575 1394 2508 
Q 1197 2441 978 2247 
L 681 2331 
z
" transform="scale(0.015625)"/>
       </defs>
       <use xlink:href="#Roboto-Light-2212"/>
       <use xlink:href="#Roboto-Light-31" transform="translate(57.03125 0)"/>
       <use xlink:href="#Roboto-Light-35" transform="translate(112.451172 0)"/>
      </g>
     </g>
    </g>
    <g id="xtick_3">
     <g id="line2d_5">
      <g>
       <use xlink:href="#m9ce39d46d4" x="171.524962" y="189.557692" style="stroke: #000000; stroke-width: 0.3"/>
      </g>
     </g>
     <g id="text_3">
      <!-- −10 -->
      <g transform="translate(163.970587 202.307692) scale(0.09 -0.09)">
       <use xlink:href="#Roboto-Light-2212"/>
       <use xlink:href="#Roboto-Light-31" transform="translate(57.03125 0)"/>
       <use xlink:href="#Roboto-Light-30" transform="translate(112.451172 0)"/>
      </g>
     </g>
    </g>
    <g id="xtick_4">
     <g id="line2d_6">
      <g>
       <use xlink:href="#m9ce39d46d4" x="236.234873" y="189.557692" style="stroke: #000000; stroke-width: 0.3"/>
      </g>
     </g>
     <g id="text_4">
      <!-- −5 -->
      <g transform="translate(231.174483 202.307692) scale(0.09 -0.09)">
       <use xlink:href="#Roboto-Light-2212"/>
       <use xlink:href="#Roboto-Light-35" transform="translate(57.03125 0)"/>
      </g>
     </g>
    </g>
    <g id="xtick_5">
     <g id="line2d_7">
      <g>
       <use xlink:href="#m9ce39d46d4" x="300.944784" y="189.557692" style="stroke: #000000; stroke-width: 0.3"/>
      </g>
     </g>
     <g id="text_5">
      <!-- 0 -->
      <g transform="translate(298.4508 202.307692) scale(0.09 -0.09)">
       <use xlink:href="#Roboto-Light-30"/>
      </g>
     </g>
    </g>
    <g id="xtick_6">
     <g id="line2d_8">
      <g>
       <use xlink:href="#m9ce39d46d4" x="365.654695" y="189.557692" style="stroke: #000000; stroke-width: 0.3"/>
      </g>
     </g>
     <g id="text_6">
      <!-- 5 -->
      <g transform="translate(363.160711 202.307692) scale(0.09 -0.09)">
       <use xlink:href="#Roboto-Light-35"/>
      </g>
     </g>
    </g>
    <g id="xtick_7">
     <g id="line2d_9">
      <g>
       <use xlink:href="#m9ce39d46d4" x="430.364606" y="189.557692" style="stroke: #000000; stroke-width: 0.3"/>
      </g>
     </g>
     <g id="text_7">
      <!-- 10 -->
      <g transform="translate(425.376637 202.307692) scale(0.09 -0.09)">
       <use xlink:href="#Roboto-Light-31"/>
       <use xlink:href="#Roboto-Light-30" transform="translate(55.419922 0)"/>
      </g>
     </g>
    </g>
    <g id="text_8">
     <!-- Environmental temperature [°C] -->
     <g transform="translate(167.806748 218.260817) scale(0.1 -0.1)">
      <defs>
       <path id="Roboto-Light-45" d="M 3088 2181 
L 959 2181 
L 959 325 
L 3406 325 
L 3406 0 
L 575 0 
L 575 4550 
L 3391 4550 
L 3391 4222 
L 959 4222 
L 959 2506 
L 3088 2506 
L 3088 2181 
z
" transform="scale(0.015625)"/>
       <path id="Roboto-Light-6e" d="M 844 3381 
L 856 2803 
Q 1047 3116 1331 3280 
Q 1616 3444 1959 3444 
Q 2503 3444 2768 3137 
Q 3034 2831 3038 2219 
L 3038 0 
L 2666 0 
L 2666 2222 
Q 2663 2675 2473 2897 
Q 2284 3119 1869 3119 
Q 1522 3119 1255 2901 
Q 988 2684 859 2316 
L 859 0 
L 488 0 
L 488 3381 
L 844 3381 
z
" transform="scale(0.015625)"/>
       <path id="Roboto-Light-76" d="M 1541 516 
L 2569 3381 
L 2953 3381 
L 1691 0 
L 1388 0 
L 119 3381 
L 503 3381 
L 1541 516 
z
" transform="scale(0.015625)"/>
       <path id="Roboto-Light-69" d="M 906 0 
L 531 0 
L 531 3381 
L 906 3381 
L 906 0 
z
M 466 4359 
Q 466 4466 534 4539 
Q 603 4613 722 4613 
Q 841 4613 911 4539 
Q 981 4466 981 4359 
Q 981 4253 911 4181 
Q 841 4109 722 4109 
Q 603 4109 534 4181 
Q 466 4253 466 4359 
z
" transform="scale(0.015625)"/>
       <path id="Roboto-Light-72" d="M 2050 3063 
Q 1931 3084 1797 3084 
Q 1447 3084 1205 2889 
Q 963 2694 859 2322 
L 859 0 
L 488 0 
L 488 3381 
L 853 3381 
L 859 2844 
Q 1156 3444 1813 3444 
Q 1969 3444 2059 3403 
L 2050 3063 
z
" transform="scale(0.015625)"/>
       <path id="Roboto-Light-6f" d="M 281 1741 
Q 281 2228 470 2618 
Q 659 3009 1004 3226 
Q 1350 3444 1788 3444 
Q 2463 3444 2881 2970 
Q 3300 2497 3300 1716 
L 3300 1638 
Q 3300 1147 3111 755 
Q 2922 363 2578 150 
Q 2234 -63 1794 -63 
Q 1122 -63 701 410 
Q 281 884 281 1666 
L 281 1741 
z
M 656 1638 
Q 656 1031 970 642 
Q 1284 253 1794 253 
Q 2300 253 2614 642 
Q 2928 1031 2928 1669 
L 2928 1741 
Q 2928 2128 2784 2450 
Q 2641 2772 2381 2948 
Q 2122 3125 1788 3125 
Q 1288 3125 972 2733 
Q 656 2341 656 1706 
L 656 1638 
z
" transform="scale(0.015625)"/>
       <path id="Roboto-Light-6d" d="M 828 3381 
L 841 2831 
Q 1028 3138 1309 3291 
Q 1591 3444 1934 3444 
Q 2734 3444 2950 2788 
Q 3131 3103 3434 3273 
Q 3738 3444 4103 3444 
Q 5191 3444 5213 2256 
L 5213 0 
L 4838 0 
L 4838 2228 
Q 4834 2681 4642 2900 
Q 4450 3119 4016 3119 
Q 3613 3113 3334 2858 
Q 3056 2603 3025 2238 
L 3025 0 
L 2650 0 
L 2650 2256 
Q 2647 2691 2445 2905 
Q 2244 3119 1825 3119 
Q 1472 3119 1219 2917 
Q 966 2716 844 2319 
L 844 0 
L 469 0 
L 469 3381 
L 828 3381 
z
" transform="scale(0.015625)"/>
       <path id="Roboto-Light-65" d="M 1797 -63 
Q 1366 -63 1017 150 
Q 669 363 475 742 
Q 281 1122 281 1594 
L 281 1728 
Q 281 2216 470 2606 
Q 659 2997 996 3220 
Q 1334 3444 1728 3444 
Q 2344 3444 2705 3023 
Q 3066 2603 3066 1875 
L 3066 1666 
L 653 1666 
L 653 1594 
Q 653 1019 983 636 
Q 1313 253 1813 253 
Q 2113 253 2342 362 
Q 2572 472 2759 713 
L 2994 534 
Q 2581 -63 1797 -63 
z
M 1728 3125 
Q 1306 3125 1017 2815 
Q 728 2506 666 1984 
L 2694 1984 
L 2694 2025 
Q 2678 2513 2415 2819 
Q 2153 3125 1728 3125 
z
" transform="scale(0.015625)"/>
       <path id="Roboto-Light-74" d="M 1069 4247 
L 1069 3381 
L 1769 3381 
L 1769 3075 
L 1069 3075 
L 1069 822 
Q 1069 541 1170 403 
Q 1272 266 1509 266 
Q 1603 266 1813 297 
L 1828 -9 
Q 1681 -63 1428 -63 
Q 1044 -63 869 160 
Q 694 384 694 819 
L 694 3075 
L 72 3075 
L 72 3381 
L 694 3381 
L 694 4247 
L 1069 4247 
z
" transform="scale(0.015625)"/>
       <path id="Roboto-Light-61" d="M 2622 0 
Q 2566 159 2550 472 
Q 2353 216 2048 76 
Q 1744 -63 1403 -63 
Q 916 -63 614 209 
Q 313 481 313 897 
Q 313 1391 723 1678 
Q 1134 1966 1869 1966 
L 2547 1966 
L 2547 2350 
Q 2547 2713 2323 2920 
Q 2100 3128 1672 3128 
Q 1281 3128 1025 2928 
Q 769 2728 769 2447 
L 394 2450 
Q 394 2853 769 3148 
Q 1144 3444 1691 3444 
Q 2256 3444 2582 3161 
Q 2909 2878 2919 2372 
L 2919 772 
Q 2919 281 3022 38 
L 3022 0 
L 2622 0 
z
M 1447 269 
Q 1822 269 2117 450 
Q 2413 631 2547 934 
L 2547 1678 
L 1878 1678 
Q 1319 1672 1003 1473 
Q 688 1275 688 928 
Q 688 644 898 456 
Q 1109 269 1447 269 
z
" transform="scale(0.015625)"/>
       <path id="Roboto-Light-6c" d="M 906 0 
L 531 0 
L 531 4800 
L 906 4800 
L 906 0 
z
" transform="scale(0.015625)"/>
       <path id="Roboto-Light-20" transform="scale(0.015625)"/>
       <path id="Roboto-Light-70" d="M 3206 1656 
Q 3206 866 2856 401 
Q 2506 -63 1919 -63 
Q 1225 -63 856 425 
L 856 -1300 
L 484 -1300 
L 484 3381 
L 831 3381 
L 850 2903 
Q 1216 3444 1909 3444 
Q 2516 3444 2861 2984 
Q 3206 2525 3206 1709 
L 3206 1656 
z
M 2831 1722 
Q 2831 2369 2565 2744 
Q 2300 3119 1825 3119 
Q 1481 3119 1234 2953 
Q 988 2788 856 2472 
L 856 850 
Q 991 559 1241 406 
Q 1491 253 1831 253 
Q 2303 253 2567 629 
Q 2831 1006 2831 1722 
z
" transform="scale(0.015625)"/>
       <path id="Roboto-Light-75" d="M 2663 428 
Q 2325 -63 1584 -63 
Q 1044 -63 762 251 
Q 481 566 475 1181 
L 475 3381 
L 847 3381 
L 847 1228 
Q 847 263 1628 263 
Q 2441 263 2656 934 
L 2656 3381 
L 3031 3381 
L 3031 0 
L 2669 0 
L 2663 428 
z
" transform="scale(0.015625)"/>
       <path id="Roboto-Light-5b" d="M 1541 4881 
L 884 4881 
L 884 -656 
L 1541 -656 
L 1541 -975 
L 509 -975 
L 509 5200 
L 1541 5200 
L 1541 4881 
z
" transform="scale(0.015625)"/>
       <path id="Roboto-Light-b0" d="M 1969 3831 
Q 1969 3506 1747 3284 
Q 1525 3063 1213 3063 
Q 897 3063 672 3286 
Q 447 3509 447 3831 
Q 447 4153 675 4383 
Q 903 4613 1212 4613 
Q 1522 4613 1745 4383 
Q 1969 4153 1969 3831 
z
M 728 3831 
Q 728 3622 867 3484 
Q 1006 3347 1212 3347 
Q 1419 3347 1553 3484 
Q 1688 3622 1688 3831 
Q 1688 4047 1553 4187 
Q 1419 4328 1213 4328 
Q 1009 4328 868 4187 
Q 728 4047 728 3831 
z
" transform="scale(0.015625)"/>
       <path id="Roboto-Light-43" d="M 3797 1419 
Q 3719 700 3283 318 
Q 2847 -63 2122 -63 
Q 1616 -63 1227 190 
Q 838 444 625 908 
Q 413 1372 409 1969 
L 409 2559 
Q 409 3166 621 3634 
Q 834 4103 1232 4358 
Q 1631 4613 2150 4613 
Q 2881 4613 3304 4217 
Q 3728 3822 3797 3125 
L 3409 3125 
Q 3266 4284 2150 4284 
Q 1531 4284 1164 3821 
Q 797 3359 797 2544 
L 797 1988 
Q 797 1200 1155 731 
Q 1513 263 2122 263 
Q 2725 263 3031 552 
Q 3338 841 3409 1419 
L 3797 1419 
z
" transform="scale(0.015625)"/>
       <path id="Roboto-Light-5d" d="M 0 5200 
L 1034 5200 
L 1034 -975 
L 0 -975 
L 0 -656 
L 659 -656 
L 659 4881 
L 0 4881 
L 0 5200 
z
" transform="scale(0.015625)"/>
      </defs>
      <use xlink:href="#Roboto-Light-45"/>
      <use xlink:href="#Roboto-Light-6e" transform="translate(56.884766 0)"/>
      <use xlink:href="#Roboto-Light-76" transform="translate(111.816406 0)"/>
      <use xlink:href="#Roboto-Light-69" transform="translate(159.912109 0)"/>
      <use xlink:href="#Roboto-Light-72" transform="translate(182.324219 0)"/>
      <use xlink:href="#Roboto-Light-6f" transform="translate(215.966797 0)"/>
      <use xlink:href="#Roboto-Light-6e" transform="translate(271.972656 0)"/>
      <use xlink:href="#Roboto-Light-6d" transform="translate(326.904297 0)"/>
      <use xlink:href="#Roboto-Light-65" transform="translate(415.527344 0)"/>
      <use xlink:href="#Roboto-Light-6e" transform="translate(467.1875 0)"/>
      <use xlink:href="#Roboto-Light-74" transform="translate(522.119141 0)"/>
      <use xlink:href="#Roboto-Light-61" transform="translate(554.248047 0)"/>
      <use xlink:href="#Roboto-Light-6c" transform="translate(607.8125 0)"/>
      <use xlink:href="#Roboto-Light-20" transform="translate(630.224609 0)"/>
      <use xlink:href="#Roboto-Light-74" transform="translate(654.541016 0)"/>
      <use xlink:href="#Roboto-Light-65" transform="translate(686.669922 0)"/>
      <use xlink:href="#Roboto-Light-6d" transform="translate(738.330078 0)"/>
      <use xlink:href="#Roboto-Light-70" transform="translate(826.953125 0)"/>
      <use xlink:href="#Roboto-Light-65" transform="translate(882.373047 0)"/>
      <use xlink:href="#Roboto-Light-72" transform="translate(934.033203 0)"/>
      <use xlink:href="#Roboto-Light-61" transform="translate(967.675781 0)"/>
      <use xlink:href="#Roboto-Light-74" transform="translate(1021.240234 0)"/>
      <use xlink:href="#Roboto-Light-75" transform="translate(1053.369141 0)"/>
      <use xlink:href="#Roboto-Light-72" transform="translate(1108.300781 0)"/>
      <use xlink:href="#Roboto-Light-65" transform="translate(1141.943359 0)"/>
      <use xlink:href="#Roboto-Light-20" transform="translate(1193.603516 0)"/>
      <use xlink:href="#Roboto-Light-5b" transform="translate(1217.919922 0)"/>
      <use xlink:href="#Roboto-Light-b0" transform="translate(1241.894531 0)"/>
      <use xlink:href="#Roboto-Light-43" transform="translate(1279.6875 0)"/>
      <use xlink:href="#Roboto-Light-5d" transform="translate(1344.628906 0)"/>
     </g>
    </g>
   </g>
   <g id="matplotlib.axis_2">
    <g id="ytick_1">
     <g id="line2d_10">
      <defs>
       <path id="m4b6d216ec6" d="M 0 0 
L -2 0 
" style="stroke: #868e96; stroke-width: 0.3"/>
      </defs>
      <g>
       <use xlink:href="#m4b6d216ec6" x="42.10514" y="189.557692" style="fill: #868e96; stroke: #868e96; stroke-width: 0.3"/>
      </g>
     </g>
     <g id="text_9">
      <!-- 250 -->
      <g style="fill: #868e96" transform="translate(21.141234 192.932692) scale(0.09 -0.09)">
       <use xlink:href="#Roboto-Light-32"/>
       <use xlink:href="#Roboto-Light-35" transform="translate(55.419922 0)"/>
       <use xlink:href="#Roboto-Light-30" transform="translate(110.839844 0)"/>
      </g>
     </g>
    </g>
    <g id="ytick_2">
     <g id="line2d_11">
      <g>
       <use xlink:href="#m4b6d216ec6" x="42.10514" y="153.074154" style="fill: #868e96; stroke: #868e96; stroke-width: 0.3"/>
      </g>
     </g>
     <g id="text_10">
      <!-- 300 -->
      <g style="fill: #868e96" transform="translate(21.141234 156.449154) scale(0.09 -0.09)">
       <defs>
        <path id="Roboto-Light-33" d="M 1259 2478 
L 1647 2478 
Q 1969 2478 2209 2592 
Q 2450 2706 2576 2904 
Q 2703 3103 2703 3363 
Q 2703 3800 2456 4047 
Q 2209 4294 1747 4294 
Q 1309 4294 1029 4036 
Q 750 3778 750 3356 
L 375 3356 
Q 375 3709 553 4001 
Q 731 4294 1047 4453 
Q 1363 4613 1747 4613 
Q 2366 4613 2722 4275 
Q 3078 3938 3078 3350 
Q 3078 3022 2870 2745 
Q 2663 2469 2300 2331 
Q 2725 2213 2944 1923 
Q 3163 1634 3163 1234 
Q 3163 650 2781 293 
Q 2400 -63 1763 -63 
Q 1356 -63 1017 100 
Q 678 263 492 555 
Q 306 847 306 1234 
L 681 1234 
Q 681 800 984 526 
Q 1288 253 1763 253 
Q 2247 253 2517 501 
Q 2788 750 2788 1222 
Q 2788 1678 2495 1918 
Q 2203 2159 1634 2159 
L 1259 2159 
L 1259 2478 
z
" transform="scale(0.015625)"/>
       </defs>
       <use xlink:href="#Roboto-Light-33"/>
       <use xlink:href="#Roboto-Light-30" transform="translate(55.419922 0)"/>
       <use xlink:href="#Roboto-Light-30" transform="translate(110.839844 0)"/>
      </g>
     </g>
    </g>
    <g id="ytick_3">
     <g id="line2d_12">
      <g>
       <use xlink:href="#m4b6d216ec6" x="42.10514" y="116.590617" style="fill: #868e96; stroke: #868e96; stroke-width: 0.3"/>
      </g>
     </g>
     <g id="text_11">
      <!-- 350 -->
      <g style="fill: #868e96" transform="translate(21.141234 119.965617) scale(0.09 -0.09)">
       <use xlink:href="#Roboto-Light-33"/>
       <use xlink:href="#Roboto-Light-35" transform="translate(55.419922 0)"/>
       <use xlink:href="#Roboto-Light-30" transform="translate(110.839844 0)"/>
      </g>
     </g>
    </g>
    <g id="ytick_4">
     <g id="line2d_13">
      <g>
       <use xlink:href="#m4b6d216ec6" x="42.10514" y="80.107079" style="fill: #868e96; stroke: #868e96; stroke-width: 0.3"/>
      </g>
     </g>
     <g id="text_12">
      <!-- 400 -->
      <g style="fill: #868e96" transform="translate(21.141234 83.482079) scale(0.09 -0.09)">
       <defs>
        <path id="Roboto-Light-34" d="M 2725 1466 
L 3434 1466 
L 3434 1150 
L 2725 1150 
L 2725 0 
L 2350 0 
L 2350 1150 
L 209 1150 
L 209 1363 
L 2316 4550 
L 2725 4550 
L 2725 1466 
z
M 669 1466 
L 2350 1466 
L 2350 4066 
L 2184 3778 
L 669 1466 
z
" transform="scale(0.015625)"/>
       </defs>
       <use xlink:href="#Roboto-Light-34"/>
       <use xlink:href="#Roboto-Light-30" transform="translate(55.419922 0)"/>
       <use xlink:href="#Roboto-Light-30" transform="translate(110.839844 0)"/>
      </g>
     </g>
    </g>
    <g id="ytick_5">
     <g id="line2d_14">
      <g>
       <use xlink:href="#m4b6d216ec6" x="42.10514" y="43.623542" style="fill: #868e96; stroke: #868e96; stroke-width: 0.3"/>
      </g>
     </g>
     <g id="text_13">
      <!-- 450 -->
      <g style="fill: #868e96" transform="translate(21.141234 46.998542) scale(0.09 -0.09)">
       <use xlink:href="#Roboto-Light-34"/>
       <use xlink:href="#Roboto-Light-35" transform="translate(55.419922 0)"/>
       <use xlink:href="#Roboto-Light-30" transform="translate(110.839844 0)"/>
      </g>
     </g>
    </g>
    <g id="ytick_6">
     <g id="line2d_15">
      <g>
       <use xlink:href="#m4b6d216ec6" x="42.10514" y="7.140004" style="fill: #868e96; stroke: #868e96; stroke-width: 0.3"/>
      </g>
     </g>
     <g id="text_14">
      <!-- 500 -->
      <g style="fill: #868e96" transform="translate(21.141234 10.515004) scale(0.09 -0.09)">
       <use xlink:href="#Roboto-Light-35"/>
       <use xlink:href="#Roboto-Light-30" transform="translate(55.419922 0)"/>
       <use xlink:href="#Roboto-Light-30" transform="translate(110.839844 0)"/>
      </g>
     </g>
    </g>
    <g id="text_15">
     <!-- System energy efficiency [%] -->
     <g style="fill: #868e96" transform="translate(13.006859 160.311348) rotate(-90) scale(0.1 -0.1)">
      <defs>
       <path id="Roboto-Light-53" d="M 3150 1119 
Q 3150 1497 2884 1717 
Q 2619 1938 1912 2136 
Q 1206 2334 881 2569 
Q 419 2900 419 3438 
Q 419 3959 848 4286 
Q 1278 4613 1947 4613 
Q 2400 4613 2758 4438 
Q 3116 4263 3312 3950 
Q 3509 3638 3509 3253 
L 3122 3253 
Q 3122 3719 2803 4001 
Q 2484 4284 1947 4284 
Q 1425 4284 1115 4051 
Q 806 3819 806 3444 
Q 806 3097 1084 2878 
Q 1363 2659 1975 2492 
Q 2588 2325 2903 2145 
Q 3219 1966 3378 1716 
Q 3538 1466 3538 1125 
Q 3538 588 3108 262 
Q 2678 -63 1975 -63 
Q 1494 -63 1092 109 
Q 691 281 483 590 
Q 275 900 275 1300 
L 659 1300 
Q 659 819 1018 541 
Q 1378 263 1975 263 
Q 2506 263 2828 497 
Q 3150 731 3150 1119 
z
" transform="scale(0.015625)"/>
       <path id="Roboto-Light-79" d="M 1559 538 
L 2547 3381 
L 2950 3381 
L 1506 -575 
L 1431 -750 
Q 1153 -1366 572 -1366 
Q 438 -1366 284 -1322 
L 281 -1013 
L 475 -1031 
Q 750 -1031 920 -895 
Q 1091 -759 1209 -428 
L 1375 28 
L 100 3381 
L 509 3381 
L 1559 538 
z
" transform="scale(0.015625)"/>
       <path id="Roboto-Light-73" d="M 2513 859 
Q 2513 1138 2289 1306 
Q 2066 1475 1616 1570 
Q 1166 1666 917 1789 
Q 669 1913 548 2091 
Q 428 2269 428 2522 
Q 428 2922 762 3183 
Q 1097 3444 1619 3444 
Q 2184 3444 2526 3164 
Q 2869 2884 2869 2434 
L 2494 2434 
Q 2494 2731 2245 2928 
Q 1997 3125 1619 3125 
Q 1250 3125 1026 2961 
Q 803 2797 803 2534 
Q 803 2281 989 2142 
Q 1175 2003 1667 1887 
Q 2159 1772 2404 1640 
Q 2650 1509 2769 1325 
Q 2888 1141 2888 878 
Q 2888 450 2542 193 
Q 2197 -63 1641 -63 
Q 1050 -63 683 223 
Q 316 509 316 947 
L 691 947 
Q 713 619 967 436 
Q 1222 253 1641 253 
Q 2031 253 2272 425 
Q 2513 597 2513 859 
z
" transform="scale(0.015625)"/>
       <path id="Roboto-Light-67" d="M 338 1722 
Q 338 2516 689 2980 
Q 1041 3444 1644 3444 
Q 2334 3444 2694 2894 
L 2713 3381 
L 3063 3381 
L 3063 69 
Q 3063 -584 2697 -965 
Q 2331 -1347 1706 -1347 
Q 1353 -1347 1033 -1189 
Q 713 -1031 528 -769 
L 738 -544 
Q 1134 -1031 1681 -1031 
Q 2150 -1031 2412 -754 
Q 2675 -478 2684 13 
L 2684 438 
Q 2325 -63 1638 -63 
Q 1050 -63 694 406 
Q 338 875 338 1672 
L 338 1722 
z
M 716 1656 
Q 716 1009 975 636 
Q 1234 263 1706 263 
Q 2397 263 2684 881 
L 2684 2453 
Q 2553 2778 2306 2948 
Q 2059 3119 1713 3119 
Q 1241 3119 978 2748 
Q 716 2378 716 1656 
z
" transform="scale(0.015625)"/>
       <path id="Roboto-Light-66" d="M 756 0 
L 756 3075 
L 197 3075 
L 197 3381 
L 756 3381 
L 756 3791 
Q 756 4309 1020 4587 
Q 1284 4866 1756 4866 
Q 1969 4866 2153 4813 
L 2125 4500 
Q 1969 4538 1784 4538 
Q 1475 4538 1303 4345 
Q 1131 4153 1131 3800 
L 1131 3381 
L 1938 3381 
L 1938 3075 
L 1131 3075 
L 1131 0 
L 756 0 
z
" transform="scale(0.015625)"/>
       <path id="Roboto-Light-63" d="M 1738 253 
Q 2128 253 2392 473 
Q 2656 694 2678 1044 
L 3038 1044 
Q 3022 734 2844 479 
Q 2666 225 2370 81 
Q 2075 -63 1738 -63 
Q 1072 -63 683 400 
Q 294 863 294 1644 
L 294 1756 
Q 294 2256 469 2640 
Q 644 3025 970 3234 
Q 1297 3444 1734 3444 
Q 2291 3444 2652 3112 
Q 3013 2781 3038 2241 
L 2678 2241 
Q 2653 2638 2392 2881 
Q 2131 3125 1734 3125 
Q 1228 3125 948 2759 
Q 669 2394 669 1734 
L 669 1625 
Q 669 978 948 615 
Q 1228 253 1738 253 
z
" transform="scale(0.015625)"/>
       <path id="Roboto-Light-25" d="M 341 3675 
Q 341 4081 592 4348 
Q 844 4616 1231 4616 
Q 1619 4616 1870 4348 
Q 2122 4081 2122 3656 
L 2122 3434 
Q 2122 3034 1873 2767 
Q 1625 2500 1238 2500 
Q 853 2500 597 2762 
Q 341 3025 341 3456 
L 341 3675 
z
M 644 3434 
Q 644 3144 805 2956 
Q 966 2769 1238 2769 
Q 1503 2769 1661 2958 
Q 1819 3147 1819 3447 
L 1819 3675 
Q 1819 3966 1656 4155 
Q 1494 4344 1231 4344 
Q 972 4344 808 4156 
Q 644 3969 644 3656 
L 644 3434 
z
M 2631 1116 
Q 2631 1522 2882 1787 
Q 3134 2053 3518 2053 
Q 3903 2053 4158 1789 
Q 4413 1525 4413 1094 
L 4413 872 
Q 4413 466 4161 200 
Q 3909 -66 3525 -66 
Q 3141 -66 2886 198 
Q 2631 463 2631 888 
L 2631 1116 
z
M 2931 872 
Q 2931 578 3092 390 
Q 3253 203 3525 203 
Q 3794 203 3951 392 
Q 4109 581 4109 888 
L 4109 1116 
Q 4109 1416 3948 1598 
Q 3788 1781 3519 1781 
Q 3256 1781 3093 1597 
Q 2931 1413 2931 1103 
L 2931 872 
z
M 1356 378 
L 1122 528 
L 3344 4084 
L 3578 3934 
L 1356 378 
z
" transform="scale(0.015625)"/>
      </defs>
      <use xlink:href="#Roboto-Light-53"/>
      <use xlink:href="#Roboto-Light-79" transform="translate(59.228516 0)"/>
      <use xlink:href="#Roboto-Light-73" transform="translate(106.738281 0)"/>
      <use xlink:href="#Roboto-Light-74" transform="translate(157.373047 0)"/>
      <use xlink:href="#Roboto-Light-65" transform="translate(189.501953 0)"/>
      <use xlink:href="#Roboto-Light-6d" transform="translate(241.162109 0)"/>
      <use xlink:href="#Roboto-Light-20" transform="translate(329.785156 0)"/>
      <use xlink:href="#Roboto-Light-65" transform="translate(354.101562 0)"/>
      <use xlink:href="#Roboto-Light-6e" transform="translate(405.761719 0)"/>
      <use xlink:href="#Roboto-Light-65" transform="translate(460.693359 0)"/>
      <use xlink:href="#Roboto-Light-72" transform="translate(512.353516 0)"/>
      <use xlink:href="#Roboto-Light-67" transform="translate(545.996094 0)"/>
      <use xlink:href="#Roboto-Light-79" transform="translate(601.464844 0)"/>
      <use xlink:href="#Roboto-Light-20" transform="translate(648.974609 0)"/>
      <use xlink:href="#Roboto-Light-65" transform="translate(673.291016 0)"/>
      <use xlink:href="#Roboto-Light-66" transform="translate(724.951172 0)"/>
      <use xlink:href="#Roboto-Light-66" transform="translate(758.056641 0)"/>
      <use xlink:href="#Roboto-Light-69" transform="translate(791.162109 0)"/>
      <use xlink:href="#Roboto-Light-63" transform="translate(813.574219 0)"/>
      <use xlink:href="#Roboto-Light-69" transform="translate(865.087891 0)"/>
      <use xlink:href="#Roboto-Light-65" transform="translate(887.5 0)"/>
      <use xlink:href="#Roboto-Light-6e" transform="translate(939.160156 0)"/>
      <use xlink:href="#Roboto-Light-63" transform="translate(994.091797 0)"/>
      <use xlink:href="#Roboto-Light-79" transform="translate(1045.605469 0)"/>
      <use xlink:href="#Roboto-Light-20" transform="translate(1093.115234 0)"/>
      <use xlink:href="#Roboto-Light-5b" transform="translate(1117.431641 0)"/>
      <use xlink:href="#Roboto-Light-25" transform="translate(1141.40625 0)"/>
      <use xlink:href="#Roboto-Light-5d" transform="translate(1215.283203 0)"/>
     </g>
    </g>
   </g>
   <g id="PathCollection_1">
    <defs>
     <path id="mcad7468d56" d="M 0 2.738613 
C 0.726289 2.738613 1.422928 2.450055 1.936492 1.936492 
C 2.450055 1.422928 2.738613 0.726289 2.738613 0 
C 2.738613 -0.726289 2.450055 -1.422928 1.936492 -1.936492 
C 1.422928 -2.450055 0.726289 -2.738613 0 -2.738613 
C -0.726289 -2.738613 -1.422928 -2.450055 -1.936492 -1.936492 
C -2.450055 -1.422928 -2.738613 -0.726289 -2.738613 0 
C -2.738613 0.726289 -2.450055 1.422928 -1.936492 1.936492 
C -1.422928 2.450055 -0.726289 2.738613 0 2.738613 
z
" style="stroke: #ffffff"/>
    </defs>
    <g clip-path="url(#p8718474e9c)">
     <use xlink:href="#mcad7468d56" x="336.241099" y="21.241095" style="fill: #868e96; stroke: #ffffff"/>
    </g>
   </g>
   <g id="legend_1">
    <g id="line2d_16">
     <path d="M 49.75514 9.156776 
L 58.25514 9.156776 
L 66.75514 9.156776 
" style="fill: none; stroke: #868e96; stroke-linecap: square"/>
    </g>
    <g id="text_16">
     <!-- Energy efficiency -->
     <g transform="translate(71.85514 12.131776) scale(0.085 -0.085)">
      <use xlink:href="#Roboto-Light-45"/>
      <use xlink:href="#Roboto-Light-6e" transform="translate(56.884766 0)"/>
      <use xlink:href="#Roboto-Light-65" transform="translate(111.816406 0)"/>
      <use xlink:href="#Roboto-Light-72" transform="translate(163.476562 0)"/>
      <use xlink:href="#Roboto-Light-67" transform="translate(197.119141 0)"/>
      <use xlink:href="#Roboto-Light-79" transform="translate(252.587891 0)"/>
      <use xlink:href="#Roboto-Light-20" transform="translate(300.097656 0)"/>
      <use xlink:href="#Roboto-Light-65" transform="translate(324.414062 0)"/>
      <use xlink:href="#Roboto-Light-66" transform="translate(376.074219 0)"/>
      <use xlink:href="#Roboto-Light-66" transform="translate(409.179688 0)"/>
      <use xlink:href="#Roboto-Light-69" transform="translate(442.285156 0)"/>
      <use xlink:href="#Roboto-Light-63" transform="translate(464.697266 0)"/>
      <use xlink:href="#Roboto-Light-69" transform="translate(516.210938 0)"/>
      <use xlink:href="#Roboto-Light-65" transform="translate(538.623047 0)"/>
      <use xlink:href="#Roboto-Light-6e" transform="translate(590.283203 0)"/>
      <use xlink:href="#Roboto-Light-63" transform="translate(645.214844 0)"/>
      <use xlink:href="#Roboto-Light-79" transform="translate(696.728516 0)"/>
     </g>
    </g>
    <g id="line2d_17">
     <path d="M 49.75514 20.833651 
L 58.25514 20.833651 
L 66.75514 20.833651 
" style="fill: none; stroke: #fa5252; stroke-linecap: square"/>
    </g>
    <g id="text_17">
     <!-- Exergy efficiency -->
     <g transform="translate(71.85514 23.808651) scale(0.085 -0.085)">
      <defs>
       <path id="Roboto-Light-78" d="M 1550 2009 
L 2463 3381 
L 2906 3381 
L 1759 1722 
L 2956 0 
L 2516 0 
L 1553 1431 
L 591 0 
L 150 0 
L 1344 1722 
L 197 3381 
L 638 3381 
L 1550 2009 
z
" transform="scale(0.015625)"/>
      </defs>
      <use xlink:href="#Roboto-Light-45"/>
      <use xlink:href="#Roboto-Light-78" transform="translate(56.884766 0)"/>
      <use xlink:href="#Roboto-Light-65" transform="translate(105.517578 0)"/>
      <use xlink:href="#Roboto-Light-72" transform="translate(157.177734 0)"/>
      <use xlink:href="#Roboto-Light-67" transform="translate(190.820312 0)"/>
      <use xlink:href="#Roboto-Light-79" transform="translate(246.289062 0)"/>
      <use xlink:href="#Roboto-Light-20" transform="translate(293.798828 0)"/>
      <use xlink:href="#Roboto-Light-65" transform="translate(318.115234 0)"/>
      <use xlink:href="#Roboto-Light-66" transform="translate(369.775391 0)"/>
      <use xlink:href="#Roboto-Light-66" transform="translate(402.880859 0)"/>
      <use xlink:href="#Roboto-Light-69" transform="translate(435.986328 0)"/>
      <use xlink:href="#Roboto-Light-63" transform="translate(458.398438 0)"/>
      <use xlink:href="#Roboto-Light-69" transform="translate(509.912109 0)"/>
      <use xlink:href="#Roboto-Light-65" transform="translate(532.324219 0)"/>
      <use xlink:href="#Roboto-Light-6e" transform="translate(583.984375 0)"/>
      <use xlink:href="#Roboto-Light-63" transform="translate(638.916016 0)"/>
      <use xlink:href="#Roboto-Light-79" transform="translate(690.429688 0)"/>
     </g>
    </g>
   </g>
  </g>
  <g id="axes_2">
   <g id="line2d_18">
    <path d="M 42.10514 87.820148 
L 46.026953 84.817115 
L 49.948766 81.924655 
L 53.870579 79.141222 
L 57.792392 76.465285 
L 61.714204 73.895333 
L 65.636017 71.429869 
L 69.55783 69.067411 
L 73.479643 66.806495 
L 77.401456 64.645669 
L 81.323268 62.5835 
L 85.245081 60.618567 
L 89.166894 58.749465 
L 93.088707 56.974802 
L 97.010519 55.293203 
L 100.932332 53.703303 
L 104.854145 52.203754 
L 108.775958 50.793221 
L 112.697771 49.47038 
L 116.619583 48.233922 
L 120.541396 47.082552 
L 124.463209 46.014986 
L 128.385022 45.029953 
L 132.306834 44.126194 
L 136.228647 43.302462 
L 140.15046 42.557522 
L 144.072273 41.890153 
L 147.994086 41.299142 
L 151.915898 40.78329 
L 155.837711 40.341408 
L 159.759524 39.972318 
L 163.681337 39.674853 
L 167.60315 39.447858 
L 171.524962 39.290187 
L 175.446775 39.200704 
L 179.368588 39.178286 
L 183.290401 39.221817 
L 187.212213 39.330191 
L 191.134026 39.502315 
L 195.055839 39.737102 
L 198.977652 40.033476 
L 202.899465 40.390371 
L 206.821277 40.806729 
L 210.74309 41.281501 
L 214.664903 41.813647 
L 218.586716 42.402137 
L 222.508529 43.045947 
L 226.430341 43.744065 
L 230.352154 44.495485 
L 234.273967 45.299208 
L 238.19578 46.154247 
L 242.117592 47.059619 
L 246.039405 48.01435 
L 249.961218 49.017476 
L 253.883031 50.068038 
L 257.804844 51.165085 
L 261.726656 52.307673 
L 265.648469 53.494866 
L 269.570282 54.725736 
L 273.492095 55.999359 
L 277.413908 57.314822 
L 281.33572 58.671214 
L 285.257533 60.067635 
L 289.179346 61.503188 
L 293.101159 62.976986 
L 297.022971 64.488145 
L 300.944784 66.03579 
L 304.866597 67.619049 
L 308.78841 69.237059 
L 312.710223 70.888962 
L 316.632035 72.573905 
L 320.553848 74.291041 
L 324.475661 76.039529 
L 328.397474 77.818534 
L 332.319287 79.627226 
L 336.241099 81.464779 
L 340.162912 83.330375 
L 344.084725 85.223198 
L 348.006538 87.14244 
L 351.92835 89.087295 
L 355.850163 91.056966 
L 359.771976 93.050656 
L 363.693789 95.067576 
L 367.615602 97.10694 
L 371.537414 99.167968 
L 375.459227 101.249883 
L 379.38104 103.351914 
L 383.302853 105.473292 
L 387.224666 107.613254 
L 391.146478 109.771041 
L 395.068291 111.945897 
L 398.990104 114.137071 
L 402.911917 116.343815 
L 406.833729 118.565386 
L 410.755542 120.801043 
L 414.677355 123.05005 
L 418.599168 125.311675 
L 422.520981 127.585188 
L 426.442793 129.869864 
L 430.364606 132.164979 
" clip-path="url(#p8718474e9c)" style="fill: none; stroke: #fa5252; stroke-linecap: square"/>
   </g>
   <g id="line2d_19">
    <path d="M 179.368588 189.557692 
L 179.368588 39.178286 
" clip-path="url(#p8718474e9c)" style="fill: none; stroke-dasharray: 2.25,1.125; stroke-dashoffset: 0; stroke: #fa5252; stroke-width: 0.75"/>
   </g>
   <g id="patch_5">
    <path d="M 430.364606 189.557692 
L 430.364606 7.140004 
" style="fill: none; stroke: #fa5252; stroke-width: 0.3; stroke-linejoin: miter; stroke-linecap: square"/>
   </g>
   <g id="matplotlib.axis_3">
    <g id="ytick_7">
     <g id="line2d_20">
      <defs>
       <path id="m223bb15b01" d="M 0 0 
L 2 0 
" style="stroke: #fa5252; stroke-width: 0.3"/>
      </defs>
      <g>
       <use xlink:href="#m223bb15b01" x="430.364606" y="189.557692" style="fill: #fa5252; stroke: #fa5252; stroke-width: 0.3"/>
      </g>
     </g>
     <g id="text_18">
      <!-- 15 -->
      <g style="fill: #fa5252" transform="translate(436.364606 192.932692) scale(0.09 -0.09)">
       <use xlink:href="#Roboto-Light-31"/>
       <use xlink:href="#Roboto-Light-35" transform="translate(55.419922 0)"/>
      </g>
     </g>
    </g>
    <g id="ytick_8">
     <g id="line2d_21">
      <g>
       <use xlink:href="#m223bb15b01" x="430.364606" y="153.074154" style="fill: #fa5252; stroke: #fa5252; stroke-width: 0.3"/>
      </g>
     </g>
     <g id="text_19">
      <!-- 20 -->
      <g style="fill: #fa5252" transform="translate(436.364606 156.449154) scale(0.09 -0.09)">
       <use xlink:href="#Roboto-Light-32"/>
       <use xlink:href="#Roboto-Light-30" transform="translate(55.419922 0)"/>
      </g>
     </g>
    </g>
    <g id="ytick_9">
     <g id="line2d_22">
      <g>
       <use xlink:href="#m223bb15b01" x="430.364606" y="116.590617" style="fill: #fa5252; stroke: #fa5252; stroke-width: 0.3"/>
      </g>
     </g>
     <g id="text_20">
      <!-- 25 -->
      <g style="fill: #fa5252" transform="translate(436.364606 119.965617) scale(0.09 -0.09)">
       <use xlink:href="#Roboto-Light-32"/>
       <use xlink:href="#Roboto-Light-35" transform="translate(55.419922 0)"/>
      </g>
     </g>
    </g>
    <g id="ytick_10">
     <g id="line2d_23">
      <g>
       <use xlink:href="#m223bb15b01" x="430.364606" y="80.107079" style="fill: #fa5252; stroke: #fa5252; stroke-width: 0.3"/>
      </g>
     </g>
     <g id="text_21">
      <!-- 30 -->
      <g style="fill: #fa5252" transform="translate(436.364606 83.482079) scale(0.09 -0.09)">
       <use xlink:href="#Roboto-Light-33"/>
       <use xlink:href="#Roboto-Light-30" transform="translate(55.419922 0)"/>
      </g>
     </g>
    </g>
    <g id="ytick_11">
     <g id="line2d_24">
      <g>
       <use xlink:href="#m223bb15b01" x="430.364606" y="43.623542" style="fill: #fa5252; stroke: #fa5252; stroke-width: 0.3"/>
      </g>
     </g>
     <g id="text_22">
      <!-- 35 -->
      <g style="fill: #fa5252" transform="translate(436.364606 46.998542) scale(0.09 -0.09)">
       <use xlink:href="#Roboto-Light-33"/>
       <use xlink:href="#Roboto-Light-35" transform="translate(55.419922 0)"/>
      </g>
     </g>
    </g>
    <g id="ytick_12">
     <g id="line2d_25">
      <g>
       <use xlink:href="#m223bb15b01" x="430.364606" y="7.140004" style="fill: #fa5252; stroke: #fa5252; stroke-width: 0.3"/>
      </g>
     </g>
     <g id="text_23">
      <!-- 40 -->
      <g style="fill: #fa5252" transform="translate(436.364606 10.515004) scale(0.09 -0.09)">
       <use xlink:href="#Roboto-Light-34"/>
       <use xlink:href="#Roboto-Light-30" transform="translate(55.419922 0)"/>
      </g>
     </g>
    </g>
    <g id="text_24">
     <!-- System exergy efficiency [%] -->
     <g style="fill: #fa5252" transform="translate(460.465544 159.996504) rotate(-90) scale(0.1 -0.1)">
      <use xlink:href="#Roboto-Light-53"/>
      <use xlink:href="#Roboto-Light-79" transform="translate(59.228516 0)"/>
      <use xlink:href="#Roboto-Light-73" transform="translate(106.738281 0)"/>
      <use xlink:href="#Roboto-Light-74" transform="translate(157.373047 0)"/>
      <use xlink:href="#Roboto-Light-65" transform="translate(189.501953 0)"/>
      <use xlink:href="#Roboto-Light-6d" transform="translate(241.162109 0)"/>
      <use xlink:href="#Roboto-Light-20" transform="translate(329.785156 0)"/>
      <use xlink:href="#Roboto-Light-65" transform="translate(354.101562 0)"/>
      <use xlink:href="#Roboto-Light-78" transform="translate(405.761719 0)"/>
      <use xlink:href="#Roboto-Light-65" transform="translate(454.394531 0)"/>
      <use xlink:href="#Roboto-Light-72" transform="translate(506.054688 0)"/>
      <use xlink:href="#Roboto-Light-67" transform="translate(539.697266 0)"/>
      <use xlink:href="#Roboto-Light-79" transform="translate(595.166016 0)"/>
      <use xlink:href="#Roboto-Light-20" transform="translate(642.675781 0)"/>
      <use xlink:href="#Roboto-Light-65" transform="translate(666.992188 0)"/>
      <use xlink:href="#Roboto-Light-66" transform="translate(718.652344 0)"/>
      <use xlink:href="#Roboto-Light-66" transform="translate(751.757812 0)"/>
      <use xlink:href="#Roboto-Light-69" transform="translate(784.863281 0)"/>
      <use xlink:href="#Roboto-Light-63" transform="translate(807.275391 0)"/>
      <use xlink:href="#Roboto-Light-69" transform="translate(858.789062 0)"/>
      <use xlink:href="#Roboto-Light-65" transform="translate(881.201172 0)"/>
      <use xlink:href="#Roboto-Light-6e" transform="translate(932.861328 0)"/>
      <use xlink:href="#Roboto-Light-63" transform="translate(987.792969 0)"/>
      <use xlink:href="#Roboto-Light-79" transform="translate(1039.306641 0)"/>
      <use xlink:href="#Roboto-Light-20" transform="translate(1086.816406 0)"/>
      <use xlink:href="#Roboto-Light-5b" transform="translate(1111.132812 0)"/>
      <use xlink:href="#Roboto-Light-25" transform="translate(1135.107422 0)"/>
      <use xlink:href="#Roboto-Light-5d" transform="translate(1208.984375 0)"/>
     </g>
    </g>
   </g>
   <g id="PathCollection_2">
    <defs>
     <path id="mfce46cf6c6" d="M 0 2.738613 
C 0.726289 2.738613 1.422928 2.450055 1.936492 1.936492 
C 2.450055 1.422928 2.738613 0.726289 2.738613 0 
C 2.738613 -0.726289 2.450055 -1.422928 1.936492 -1.936492 
C 1.422928 -2.450055 0.726289 -2.738613 0 -2.738613 
C -0.726289 -2.738613 -1.422928 -2.450055 -1.936492 -1.936492 
C -2.450055 -1.422928 -2.738613 -0.726289 -2.738613 0 
C -2.738613 0.726289 -2.450055 1.422928 -1.936492 1.936492 
C -1.422928 2.450055 -0.726289 2.738613 0 2.738613 
z
" style="stroke: #ffffff"/>
    </defs>
    <g clip-path="url(#p8718474e9c)">
     <use xlink:href="#mfce46cf6c6" x="179.368588" y="39.178286" style="fill: #fa5252; stroke: #ffffff"/>
    </g>
   </g>
  </g>
 </g>
 <defs>
  <clipPath id="p8718474e9c">
   <rect x="42.10514" y="7.140004" width="388.259466" height="182.417687"/>
  </clipPath>
 </defs>
</svg>
