<?xml version="1.0" encoding="utf-8" standalone="no"?>
<!DOCTYPE svg PUBLIC "-//W3C//DTD SVG 1.1//EN"
  "http://www.w3.org/Graphics/SVG/1.1/DTD/svg11.dtd">
<svg xmlns:xlink="http://www.w3.org/1999/xlink" width="481.889764pt" height="226.771654pt" viewBox="0 0 481.889764 226.771654" xmlns="http://www.w3.org/2000/svg" version="1.1">
 <metadata>
  <rdf:RDF xmlns:dc="http://purl.org/dc/elements/1.1/" xmlns:cc="http://creativecommons.org/ns#" xmlns:rdf="http://www.w3.org/1999/02/22-rdf-syntax-ns#">
   <cc:Work>
    <dc:type rdf:resource="http://purl.org/dc/dcmitype/StillImage"/>
    <dc:date>2025-09-05T14:35:40.126817</dc:date>
    <dc:format>image/svg+xml</dc:format>
    <dc:creator>
     <cc:Agent>
      <dc:title>Matplotlib v3.10.3, https://matplotlib.org/</dc:title>
     </cc:Agent>
    </dc:creator>
   </cc:Work>
  </rdf:RDF>
 </metadata>
 <defs>
  <style type="text/css">*{stroke-linejoin: round; stroke-linecap: butt}</style>
 </defs>
 <g id="figure_1">
  <g id="patch_1">
   <path d="M 0 226.771654 
L 481.889764 226.771654 
L 481.889764 0 
L 0 0 
L 0 226.771654 
z
" style="fill: none"/>
  </g>
  <g id="axes_1">
   <g id="patch_2">
    <path d="M 48.188976 192.755906 
L 457.795276 192.755906 
L 457.795276 22.677165 
L 48.188976 22.677165 
L 48.188976 192.755906 
z
" style="fill: none"/>
   </g>
   <g id="line2d_1">
    <path d="M 48.188976 175.29963 
L 52.326414 175.311125 
L 56.463851 175.322606 
L 60.601288 175.334072 
L 64.738726 175.345524 
L 68.876163 175.356961 
L 73.013601 175.368384 
L 77.151038 175.379793 
L 81.288475 175.391187 
L 85.425913 175.402567 
L 89.56335 175.413933 
L 93.700787 175.425284 
L 97.838225 175.436622 
L 101.975662 175.447945 
L 106.113099 175.459253 
L 110.250537 175.470548 
L 114.387974 175.481828 
L 118.525412 175.493095 
L 122.662849 175.504347 
L 126.800286 175.515585 
L 130.937724 175.526809 
L 135.075161 175.538019 
L 139.212598 175.549215 
L 143.350036 175.560397 
L 147.487473 175.571566 
L 151.624911 175.58272 
L 155.762348 175.59386 
L 159.899785 175.604987 
L 164.037223 175.616099 
L 168.17466 175.627198 
L 172.312097 175.638283 
L 176.449535 175.649354 
L 180.586972 175.660411 
L 184.724409 175.671455 
L 188.861847 175.682485 
L 192.999284 175.693501 
L 197.136722 175.704504 
L 201.274159 175.715493 
L 205.411596 175.726468 
L 209.549034 175.73743 
L 213.686471 175.748378 
L 217.823908 175.759312 
L 221.961346 175.770234 
L 226.098783 175.781141 
L 230.23622 175.792035 
L 234.373658 175.802916 
L 238.511095 175.813783 
L 242.648533 175.824637 
L 246.78597 175.835477 
L 250.923407 175.846304 
L 255.060845 175.857118 
L 259.198282 175.867918 
L 263.335719 175.878705 
L 267.473157 175.889479 
L 271.610594 175.900239 
L 275.748031 175.910987 
L 279.885469 175.921721 
L 284.022906 175.932442 
L 288.160344 175.943149 
L 292.297781 175.953844 
L 296.435218 175.964525 
L 300.572656 175.975194 
L 304.710093 175.985849 
L 308.84753 175.996491 
L 312.984968 176.007121 
L 317.122405 176.017737 
L 321.259843 176.02834 
L 325.39728 176.03893 
L 329.534717 176.049508 
L 333.672155 176.060072 
L 337.809592 176.070624 
L 341.947029 176.081162 
L 346.084467 176.091688 
L 350.221904 176.102201 
L 354.359341 176.112701 
L 358.496779 176.123188 
L 362.634216 176.133663 
L 366.771654 176.144125 
L 370.909091 176.154574 
L 375.046528 176.165011 
L 379.183966 176.175434 
L 383.321403 176.185845 
L 387.45884 176.196244 
L 391.596278 176.20663 
L 395.733715 176.217003 
L 399.871152 176.227364 
L 404.00859 176.237712 
L 408.146027 176.248048 
L 412.283465 176.258371 
L 416.420902 176.268681 
L 420.558339 176.27898 
L 424.695777 176.289265 
L 428.833214 176.299539 
L 432.970651 176.3098 
L 437.108089 176.320048 
L 441.245526 176.330284 
L 445.382963 176.340508 
L 449.520401 176.35072 
L 453.657838 176.360919 
L 457.795276 176.371106 
" clip-path="url(#p4a2feab914)" style="fill: none; stroke: #82c91e; stroke-linecap: square"/>
   </g>
   <g id="line2d_2">
    <path d="M 48.188976 127.315271 
L 52.326414 125.765098 
L 56.463851 124.23363 
L 60.601288 122.720811 
L 64.738726 121.226582 
L 68.876163 119.750887 
L 73.013601 118.293669 
L 77.151038 116.854871 
L 81.288475 115.434434 
L 85.425913 114.032303 
L 89.56335 112.648421 
L 93.700787 111.28273 
L 97.838225 109.935173 
L 101.975662 108.605693 
L 106.113099 107.294234 
L 110.250537 106.000739 
L 114.387974 104.72515 
L 118.525412 103.467411 
L 122.662849 102.227465 
L 126.800286 101.005255 
L 130.937724 99.800725 
L 135.075161 98.613817 
L 139.212598 97.444475 
L 143.350036 96.292643 
L 147.487473 95.158263 
L 151.624911 94.041279 
L 155.762348 92.941634 
L 159.899785 91.859272 
L 164.037223 90.794135 
L 168.17466 89.746169 
L 172.312097 88.715315 
L 176.449535 87.701518 
L 180.586972 86.704721 
L 184.724409 85.724867 
L 188.861847 84.7619 
L 192.999284 83.815764 
L 197.136722 82.886402 
L 201.274159 81.973758 
L 205.411596 81.077775 
L 209.549034 80.198397 
L 213.686471 79.335568 
L 217.823908 78.489232 
L 221.961346 77.659332 
L 226.098783 76.845812 
L 230.23622 76.048615 
L 234.373658 75.267686 
L 238.511095 74.502969 
L 242.648533 73.754406 
L 246.78597 73.021943 
L 250.923407 72.305522 
L 255.060845 71.605089 
L 259.198282 70.920585 
L 263.335719 70.251957 
L 267.473157 69.599147 
L 271.610594 68.9621 
L 275.748031 68.340759 
L 279.885469 67.735069 
L 284.022906 67.144973 
L 288.160344 66.570416 
L 292.297781 66.011342 
L 296.435218 65.467694 
L 300.572656 64.939418 
L 304.710093 64.426456 
L 308.84753 63.928754 
L 312.984968 63.446255 
L 317.122405 62.978904 
L 321.259843 62.526644 
L 325.39728 62.08942 
L 329.534717 61.667177 
L 333.672155 61.259858 
L 337.809592 60.867408 
L 341.947029 60.489771 
L 346.084467 60.126891 
L 350.221904 59.778713 
L 354.359341 59.445181 
L 358.496779 59.126239 
L 362.634216 58.821832 
L 366.771654 58.531905 
L 370.909091 58.256401 
L 375.046528 57.995265 
L 379.183966 57.748441 
L 383.321403 57.515875 
L 387.45884 57.29751 
L 391.596278 57.093291 
L 395.733715 56.903163 
L 399.871152 56.727069 
L 404.00859 56.564956 
L 408.146027 56.416766 
L 412.283465 56.282445 
L 416.420902 56.161938 
L 420.558339 56.055188 
L 424.695777 55.962142 
L 428.833214 55.882742 
L 432.970651 55.816935 
L 437.108089 55.764664 
L 441.245526 55.725874 
L 445.382963 55.700511 
L 449.520401 55.688518 
L 453.657838 55.689841 
L 457.795276 55.704424 
" clip-path="url(#p4a2feab914)" style="fill: none; stroke: #228be6; stroke-linecap: square"/>
   </g>
   <g id="line2d_3">
    <path d="M 48.188976 67.456688 
L 52.326414 67.720382 
L 56.463851 67.986338 
L 60.601288 68.254581 
L 64.738726 68.525137 
L 68.876163 68.79803 
L 73.013601 69.073288 
L 77.151038 69.350935 
L 81.288475 69.630998 
L 85.425913 69.913505 
L 89.56335 70.198482 
L 93.700787 70.485957 
L 97.838225 70.775956 
L 101.975662 71.06851 
L 106.113099 71.363644 
L 110.250537 71.661389 
L 114.387974 71.961774 
L 118.525412 72.264826 
L 122.662849 72.570577 
L 126.800286 72.879057 
L 130.937724 73.190294 
L 135.075161 73.504321 
L 139.212598 73.821168 
L 143.350036 74.140866 
L 147.487473 74.463447 
L 151.624911 74.788943 
L 155.762348 75.117387 
L 159.899785 75.44881 
L 164.037223 75.783246 
L 168.17466 76.120729 
L 172.312097 76.461292 
L 176.449535 76.804969 
L 180.586972 77.151794 
L 184.724409 77.501803 
L 188.861847 77.85503 
L 192.999284 78.21151 
L 197.136722 78.57128 
L 201.274159 78.934376 
L 205.411596 79.300834 
L 209.549034 79.670691 
L 213.686471 80.043983 
L 217.823908 80.420749 
L 221.961346 80.801027 
L 226.098783 81.184854 
L 230.23622 81.572269 
L 234.373658 81.96331 
L 238.511095 82.358017 
L 242.648533 82.75643 
L 246.78597 83.158588 
L 250.923407 83.56453 
L 255.060845 83.974298 
L 259.198282 84.387933 
L 263.335719 84.805474 
L 267.473157 85.226963 
L 271.610594 85.652442 
L 275.748031 86.081953 
L 279.885469 86.515537 
L 284.022906 86.953238 
L 288.160344 87.395096 
L 292.297781 87.841155 
L 296.435218 88.291459 
L 300.572656 88.74605 
L 304.710093 89.204971 
L 308.84753 89.668266 
L 312.984968 90.135979 
L 317.122405 90.608154 
L 321.259843 91.084834 
L 325.39728 91.566063 
L 329.534717 92.051886 
L 333.672155 92.542347 
L 337.809592 93.03749 
L 341.947029 93.53736 
L 346.084467 94.042 
L 350.221904 94.551455 
L 354.359341 95.065769 
L 358.496779 95.584986 
L 362.634216 96.109151 
L 366.771654 96.638307 
L 370.909091 97.172497 
L 375.046528 97.711766 
L 379.183966 98.256157 
L 383.321403 98.805711 
L 387.45884 99.360473 
L 391.596278 99.920485 
L 395.733715 100.485787 
L 399.871152 101.056423 
L 404.00859 101.632431 
L 408.146027 102.213854 
L 412.283465 102.800731 
L 416.420902 103.3931 
L 420.558339 103.991 
L 424.695777 104.594469 
L 428.833214 105.203544 
L 432.970651 105.81826 
L 437.108089 106.438653 
L 441.245526 107.064755 
L 445.382963 107.696601 
L 449.520401 108.334221 
L 453.657838 108.977645 
L 457.795276 109.626903 
" clip-path="url(#p4a2feab914)" style="fill: none; stroke: #fa5252; stroke-linecap: square"/>
   </g>
   <g id="line2d_4">
    <path d="M 48.188976 28.911893 
L 52.326414 28.970826 
L 56.463851 29.030581 
L 60.601288 29.091172 
L 64.738726 29.152615 
L 68.876163 29.214926 
L 73.013601 29.278122 
L 77.151038 29.34222 
L 81.288475 29.407238 
L 85.425913 29.473192 
L 89.56335 29.540102 
L 93.700787 29.607986 
L 97.838225 29.676864 
L 101.975662 29.746754 
L 106.113099 29.817677 
L 110.250537 29.889654 
L 114.387974 29.962705 
L 118.525412 30.036853 
L 122.662849 30.11212 
L 126.800286 30.188528 
L 130.937724 30.2661 
L 135.075161 30.344862 
L 139.212598 30.424836 
L 143.350036 30.506049 
L 147.487473 30.588526 
L 151.624911 30.672294 
L 155.762348 30.75738 
L 159.899785 30.843812 
L 164.037223 30.931618 
L 168.17466 31.020828 
L 172.312097 31.111473 
L 176.449535 31.203582 
L 180.586972 31.297189 
L 184.724409 31.392325 
L 188.861847 31.489025 
L 192.999284 31.587323 
L 197.136722 31.687254 
L 201.274159 31.788855 
L 205.411596 31.892163 
L 209.549034 31.997217 
L 213.686471 32.104057 
L 217.823908 32.212722 
L 221.961346 32.323256 
L 226.098783 32.4357 
L 230.23622 32.5501 
L 234.373658 32.666501 
L 238.511095 32.784949 
L 242.648533 32.905494 
L 246.78597 33.028184 
L 250.923407 33.153071 
L 255.060845 33.280207 
L 259.198282 33.409647 
L 263.335719 33.541447 
L 267.473157 33.675663 
L 271.610594 33.812355 
L 275.748031 33.951584 
L 279.885469 34.093413 
L 284.022906 34.237907 
L 288.160344 34.385132 
L 292.297781 34.535157 
L 296.435218 34.688054 
L 300.572656 34.843895 
L 304.710093 35.002756 
L 308.84753 35.164715 
L 312.984968 35.329852 
L 317.122405 35.49825 
L 321.259843 35.669995 
L 325.39728 35.845175 
L 329.534717 36.023882 
L 333.672155 36.206208 
L 337.809592 36.392253 
L 341.947029 36.582116 
L 346.084467 36.775901 
L 350.221904 36.973715 
L 354.359341 37.17567 
L 358.496779 37.38188 
L 362.634216 37.592463 
L 366.771654 37.807542 
L 370.909091 38.027244 
L 375.046528 38.251699 
L 379.183966 38.481044 
L 383.321403 38.715419 
L 387.45884 38.954968 
L 391.596278 39.199843 
L 395.733715 39.450199 
L 399.871152 39.706197 
L 404.00859 39.968004 
L 408.146027 40.235793 
L 412.283465 40.509743 
L 416.420902 40.79004 
L 420.558339 41.076876 
L 424.695777 41.370451 
L 428.833214 41.67097 
L 432.970651 41.97865 
L 437.108089 42.293711 
L 441.245526 42.616384 
L 445.382963 42.94691 
L 449.520401 43.285535 
L 453.657838 43.632518 
L 457.795276 43.988126 
" clip-path="url(#p4a2feab914)" style="fill: none; stroke: #fd7e14; stroke-linecap: square"/>
   </g>
   <g id="line2d_5">
    <path d="M 358.496779 192.755906 
L 358.496779 22.677165 
" clip-path="url(#p4a2feab914)" style="fill: none; stroke-dasharray: 1.5,0.75; stroke-dashoffset: 0; stroke: #868e96; stroke-width: 0.5"/>
   </g>
   <g id="line2d_6">
    <path d="M 192.999284 192.755906 
L 192.999284 22.677165 
" clip-path="url(#p4a2feab914)" style="fill: none; stroke-dasharray: 1.5,0.75; stroke-dashoffset: 0; stroke: #868e96; stroke-width: 0.5"/>
   </g>
   <g id="patch_3">
    <path d="M 48.188976 192.755906 
L 48.188976 22.677165 
" style="fill: none; stroke: #000000; stroke-width: 0.3; stroke-linejoin: miter; stroke-linecap: square"/>
   </g>
   <g id="patch_4">
    <path d="M 48.188976 192.755906 
L 457.795276 192.755906 
" style="fill: none; stroke: #000000; stroke-width: 0.3; stroke-linejoin: miter; stroke-linecap: square"/>
   </g>
   <g id="matplotlib.axis_1">
    <g id="xtick_1">
     <g id="line2d_7">
      <path d="M 48.188976 192.755906 
L 48.188976 22.677165 
" clip-path="url(#p4a2feab914)" style="fill: none; stroke-dasharray: 0.5,0.625; stroke-dashoffset: 0; stroke: #dee2e6; stroke-width: 0.5"/>
     </g>
     <g id="line2d_8">
      <defs>
       <path id="m48da71c67a" d="M 0 0 
L 0 -2.5 
" style="stroke: #000000; stroke-width: 0.5"/>
      </defs>
      <g>
       <use xlink:href="#m48da71c67a" x="48.188976" y="192.755906" style="stroke: #000000; stroke-width: 0.5"/>
      </g>
     </g>
     <g id="text_1">
      <!-- −20 -->
      <g transform="translate(38.955851 205.005906) scale(0.11 -0.11)">
       <defs>
        <path id="Roboto-Light-2212" d="M 3125 2144 
L 516 2144 
L 516 2463 
L 3125 2463 
L 3125 2144 
z
" transform="scale(0.015625)"/>
        <path id="Roboto-Light-32" d="M 3278 0 
L 428 0 
L 428 288 
L 1988 2056 
Q 2375 2503 2525 2793 
Q 2675 3084 2675 3359 
Q 2675 3791 2422 4042 
Q 2169 4294 1725 4294 
Q 1266 4294 983 4000 
Q 700 3706 700 3238 
L 328 3238 
Q 328 3622 501 3937 
Q 675 4253 995 4433 
Q 1316 4613 1725 4613 
Q 2350 4613 2701 4284 
Q 3053 3956 3053 3391 
Q 3053 3072 2854 2694 
Q 2656 2316 2156 1750 
L 888 316 
L 3278 316 
L 3278 0 
z
" transform="scale(0.015625)"/>
        <path id="Roboto-Light-30" d="M 3172 1897 
Q 3172 934 2819 435 
Q 2466 -63 1778 -63 
Q 1103 -63 743 426 
Q 384 916 375 1850 
L 375 2666 
Q 375 3625 731 4119 
Q 1088 4613 1772 4613 
Q 2447 4613 2803 4136 
Q 3159 3659 3172 2731 
L 3172 1897 
z
M 2797 2713 
Q 2797 3494 2542 3894 
Q 2288 4294 1772 4294 
Q 1266 4294 1009 3903 
Q 753 3513 747 2750 
L 747 1856 
Q 747 1078 1011 665 
Q 1275 253 1778 253 
Q 2278 253 2536 656 
Q 2794 1059 2797 1838 
L 2797 2713 
z
" transform="scale(0.015625)"/>
       </defs>
       <use xlink:href="#Roboto-Light-2212"/>
       <use xlink:href="#Roboto-Light-32" transform="translate(57.03125 0)"/>
       <use xlink:href="#Roboto-Light-30" transform="translate(112.451172 0)"/>
      </g>
     </g>
    </g>
    <g id="xtick_2">
     <g id="line2d_9">
      <path d="M 184.724409 192.755906 
L 184.724409 22.677165 
" clip-path="url(#p4a2feab914)" style="fill: none; stroke-dasharray: 0.5,0.625; stroke-dashoffset: 0; stroke: #dee2e6; stroke-width: 0.5"/>
     </g>
     <g id="line2d_10">
      <g>
       <use xlink:href="#m48da71c67a" x="184.724409" y="192.755906" style="stroke: #000000; stroke-width: 0.5"/>
      </g>
     </g>
     <g id="text_2">
      <!-- −10 -->
      <g transform="translate(175.491284 205.005906) scale(0.11 -0.11)">
       <defs>
        <path id="Roboto-Light-31" d="M 2169 0 
L 1794 0 
L 1794 4100 
L 556 3641 
L 556 3991 
L 2106 4566 
L 2169 4566 
L 2169 0 
z
" transform="scale(0.015625)"/>
       </defs>
       <use xlink:href="#Roboto-Light-2212"/>
       <use xlink:href="#Roboto-Light-31" transform="translate(57.03125 0)"/>
       <use xlink:href="#Roboto-Light-30" transform="translate(112.451172 0)"/>
      </g>
     </g>
    </g>
    <g id="xtick_3">
     <g id="line2d_11">
      <path d="M 321.259843 192.755906 
L 321.259843 22.677165 
" clip-path="url(#p4a2feab914)" style="fill: none; stroke-dasharray: 0.5,0.625; stroke-dashoffset: 0; stroke: #dee2e6; stroke-width: 0.5"/>
     </g>
     <g id="line2d_12">
      <g>
       <use xlink:href="#m48da71c67a" x="321.259843" y="192.755906" style="stroke: #000000; stroke-width: 0.5"/>
      </g>
     </g>
     <g id="text_3">
      <!-- 0 -->
      <g transform="translate(318.211639 205.005906) scale(0.11 -0.11)">
       <use xlink:href="#Roboto-Light-30"/>
      </g>
     </g>
    </g>
    <g id="xtick_4">
     <g id="line2d_13">
      <path d="M 457.795276 192.755906 
L 457.795276 22.677165 
" clip-path="url(#p4a2feab914)" style="fill: none; stroke-dasharray: 0.5,0.625; stroke-dashoffset: 0; stroke: #dee2e6; stroke-width: 0.5"/>
     </g>
     <g id="line2d_14">
      <g>
       <use xlink:href="#m48da71c67a" x="457.795276" y="192.755906" style="stroke: #000000; stroke-width: 0.5"/>
      </g>
     </g>
     <g id="text_4">
      <!-- 10 -->
      <g transform="translate(451.698869 205.005906) scale(0.11 -0.11)">
       <use xlink:href="#Roboto-Light-31"/>
       <use xlink:href="#Roboto-Light-30" transform="translate(55.419922 0)"/>
      </g>
     </g>
    </g>
    <g id="xtick_5">
     <g id="line2d_15">
      <defs>
       <path id="md55eadc8a9" d="M 0 0 
L 0 -1.25 
" style="stroke: #000000; stroke-width: 0.25"/>
      </defs>
      <g>
       <use xlink:href="#md55eadc8a9" x="75.496063" y="192.755906" style="stroke: #000000; stroke-width: 0.25"/>
      </g>
     </g>
    </g>
    <g id="xtick_6">
     <g id="line2d_16">
      <g>
       <use xlink:href="#md55eadc8a9" x="102.80315" y="192.755906" style="stroke: #000000; stroke-width: 0.25"/>
      </g>
     </g>
    </g>
    <g id="xtick_7">
     <g id="line2d_17">
      <g>
       <use xlink:href="#md55eadc8a9" x="130.110236" y="192.755906" style="stroke: #000000; stroke-width: 0.25"/>
      </g>
     </g>
    </g>
    <g id="xtick_8">
     <g id="line2d_18">
      <g>
       <use xlink:href="#md55eadc8a9" x="157.417323" y="192.755906" style="stroke: #000000; stroke-width: 0.25"/>
      </g>
     </g>
    </g>
    <g id="xtick_9">
     <g id="line2d_19">
      <g>
       <use xlink:href="#md55eadc8a9" x="212.031496" y="192.755906" style="stroke: #000000; stroke-width: 0.25"/>
      </g>
     </g>
    </g>
    <g id="xtick_10">
     <g id="line2d_20">
      <g>
       <use xlink:href="#md55eadc8a9" x="239.338583" y="192.755906" style="stroke: #000000; stroke-width: 0.25"/>
      </g>
     </g>
    </g>
    <g id="xtick_11">
     <g id="line2d_21">
      <g>
       <use xlink:href="#md55eadc8a9" x="266.645669" y="192.755906" style="stroke: #000000; stroke-width: 0.25"/>
      </g>
     </g>
    </g>
    <g id="xtick_12">
     <g id="line2d_22">
      <g>
       <use xlink:href="#md55eadc8a9" x="293.952756" y="192.755906" style="stroke: #000000; stroke-width: 0.25"/>
      </g>
     </g>
    </g>
    <g id="xtick_13">
     <g id="line2d_23">
      <g>
       <use xlink:href="#md55eadc8a9" x="348.566929" y="192.755906" style="stroke: #000000; stroke-width: 0.25"/>
      </g>
     </g>
    </g>
    <g id="xtick_14">
     <g id="line2d_24">
      <g>
       <use xlink:href="#md55eadc8a9" x="375.874016" y="192.755906" style="stroke: #000000; stroke-width: 0.25"/>
      </g>
     </g>
    </g>
    <g id="xtick_15">
     <g id="line2d_25">
      <g>
       <use xlink:href="#md55eadc8a9" x="403.181102" y="192.755906" style="stroke: #000000; stroke-width: 0.25"/>
      </g>
     </g>
    </g>
    <g id="xtick_16">
     <g id="line2d_26">
      <g>
       <use xlink:href="#md55eadc8a9" x="430.488189" y="192.755906" style="stroke: #000000; stroke-width: 0.25"/>
      </g>
     </g>
    </g>
    <g id="text_5">
     <!-- Environmental temperature [°C] -->
     <g transform="translate(170.878376 222.990281) scale(0.12 -0.12)">
      <defs>
       <path id="Roboto-Light-45" d="M 3088 2181 
L 959 2181 
L 959 325 
L 3406 325 
L 3406 0 
L 575 0 
L 575 4550 
L 3391 4550 
L 3391 4222 
L 959 4222 
L 959 2506 
L 3088 2506 
L 3088 2181 
z
" transform="scale(0.015625)"/>
       <path id="Roboto-Light-6e" d="M 844 3381 
L 856 2803 
Q 1047 3116 1331 3280 
Q 1616 3444 1959 3444 
Q 2503 3444 2768 3137 
Q 3034 2831 3038 2219 
L 3038 0 
L 2666 0 
L 2666 2222 
Q 2663 2675 2473 2897 
Q 2284 3119 1869 3119 
Q 1522 3119 1255 2901 
Q 988 2684 859 2316 
L 859 0 
L 488 0 
L 488 3381 
L 844 3381 
z
" transform="scale(0.015625)"/>
       <path id="Roboto-Light-76" d="M 1541 516 
L 2569 3381 
L 2953 3381 
L 1691 0 
L 1388 0 
L 119 3381 
L 503 3381 
L 1541 516 
z
" transform="scale(0.015625)"/>
       <path id="Roboto-Light-69" d="M 906 0 
L 531 0 
L 531 3381 
L 906 3381 
L 906 0 
z
M 466 4359 
Q 466 4466 534 4539 
Q 603 4613 722 4613 
Q 841 4613 911 4539 
Q 981 4466 981 4359 
Q 981 4253 911 4181 
Q 841 4109 722 4109 
Q 603 4109 534 4181 
Q 466 4253 466 4359 
z
" transform="scale(0.015625)"/>
       <path id="Roboto-Light-72" d="M 2050 3063 
Q 1931 3084 1797 3084 
Q 1447 3084 1205 2889 
Q 963 2694 859 2322 
L 859 0 
L 488 0 
L 488 3381 
L 853 3381 
L 859 2844 
Q 1156 3444 1813 3444 
Q 1969 3444 2059 3403 
L 2050 3063 
z
" transform="scale(0.015625)"/>
       <path id="Roboto-Light-6f" d="M 281 1741 
Q 281 2228 470 2618 
Q 659 3009 1004 3226 
Q 1350 3444 1788 3444 
Q 2463 3444 2881 2970 
Q 3300 2497 3300 1716 
L 3300 1638 
Q 3300 1147 3111 755 
Q 2922 363 2578 150 
Q 2234 -63 1794 -63 
Q 1122 -63 701 410 
Q 281 884 281 1666 
L 281 1741 
z
M 656 1638 
Q 656 1031 970 642 
Q 1284 253 1794 253 
Q 2300 253 2614 642 
Q 2928 1031 2928 1669 
L 2928 1741 
Q 2928 2128 2784 2450 
Q 2641 2772 2381 2948 
Q 2122 3125 1788 3125 
Q 1288 3125 972 2733 
Q 656 2341 656 1706 
L 656 1638 
z
" transform="scale(0.015625)"/>
       <path id="Roboto-Light-6d" d="M 828 3381 
L 841 2831 
Q 1028 3138 1309 3291 
Q 1591 3444 1934 3444 
Q 2734 3444 2950 2788 
Q 3131 3103 3434 3273 
Q 3738 3444 4103 3444 
Q 5191 3444 5213 2256 
L 5213 0 
L 4838 0 
L 4838 2228 
Q 4834 2681 4642 2900 
Q 4450 3119 4016 3119 
Q 3613 3113 3334 2858 
Q 3056 2603 3025 2238 
L 3025 0 
L 2650 0 
L 2650 2256 
Q 2647 2691 2445 2905 
Q 2244 3119 1825 3119 
Q 1472 3119 1219 2917 
Q 966 2716 844 2319 
L 844 0 
L 469 0 
L 469 3381 
L 828 3381 
z
" transform="scale(0.015625)"/>
       <path id="Roboto-Light-65" d="M 1797 -63 
Q 1366 -63 1017 150 
Q 669 363 475 742 
Q 281 1122 281 1594 
L 281 1728 
Q 281 2216 470 2606 
Q 659 2997 996 3220 
Q 1334 3444 1728 3444 
Q 2344 3444 2705 3023 
Q 3066 2603 3066 1875 
L 3066 1666 
L 653 1666 
L 653 1594 
Q 653 1019 983 636 
Q 1313 253 1813 253 
Q 2113 253 2342 362 
Q 2572 472 2759 713 
L 2994 534 
Q 2581 -63 1797 -63 
z
M 1728 3125 
Q 1306 3125 1017 2815 
Q 728 2506 666 1984 
L 2694 1984 
L 2694 2025 
Q 2678 2513 2415 2819 
Q 2153 3125 1728 3125 
z
" transform="scale(0.015625)"/>
       <path id="Roboto-Light-74" d="M 1069 4247 
L 1069 3381 
L 1769 3381 
L 1769 3075 
L 1069 3075 
L 1069 822 
Q 1069 541 1170 403 
Q 1272 266 1509 266 
Q 1603 266 1813 297 
L 1828 -9 
Q 1681 -63 1428 -63 
Q 1044 -63 869 160 
Q 694 384 694 819 
L 694 3075 
L 72 3075 
L 72 3381 
L 694 3381 
L 694 4247 
L 1069 4247 
z
" transform="scale(0.015625)"/>
       <path id="Roboto-Light-61" d="M 2622 0 
Q 2566 159 2550 472 
Q 2353 216 2048 76 
Q 1744 -63 1403 -63 
Q 916 -63 614 209 
Q 313 481 313 897 
Q 313 1391 723 1678 
Q 1134 1966 1869 1966 
L 2547 1966 
L 2547 2350 
Q 2547 2713 2323 2920 
Q 2100 3128 1672 3128 
Q 1281 3128 1025 2928 
Q 769 2728 769 2447 
L 394 2450 
Q 394 2853 769 3148 
Q 1144 3444 1691 3444 
Q 2256 3444 2582 3161 
Q 2909 2878 2919 2372 
L 2919 772 
Q 2919 281 3022 38 
L 3022 0 
L 2622 0 
z
M 1447 269 
Q 1822 269 2117 450 
Q 2413 631 2547 934 
L 2547 1678 
L 1878 1678 
Q 1319 1672 1003 1473 
Q 688 1275 688 928 
Q 688 644 898 456 
Q 1109 269 1447 269 
z
" transform="scale(0.015625)"/>
       <path id="Roboto-Light-6c" d="M 906 0 
L 531 0 
L 531 4800 
L 906 4800 
L 906 0 
z
" transform="scale(0.015625)"/>
       <path id="Roboto-Light-20" transform="scale(0.015625)"/>
       <path id="Roboto-Light-70" d="M 3206 1656 
Q 3206 866 2856 401 
Q 2506 -63 1919 -63 
Q 1225 -63 856 425 
L 856 -1300 
L 484 -1300 
L 484 3381 
L 831 3381 
L 850 2903 
Q 1216 3444 1909 3444 
Q 2516 3444 2861 2984 
Q 3206 2525 3206 1709 
L 3206 1656 
z
M 2831 1722 
Q 2831 2369 2565 2744 
Q 2300 3119 1825 3119 
Q 1481 3119 1234 2953 
Q 988 2788 856 2472 
L 856 850 
Q 991 559 1241 406 
Q 1491 253 1831 253 
Q 2303 253 2567 629 
Q 2831 1006 2831 1722 
z
" transform="scale(0.015625)"/>
       <path id="Roboto-Light-75" d="M 2663 428 
Q 2325 -63 1584 -63 
Q 1044 -63 762 251 
Q 481 566 475 1181 
L 475 3381 
L 847 3381 
L 847 1228 
Q 847 263 1628 263 
Q 2441 263 2656 934 
L 2656 3381 
L 3031 3381 
L 3031 0 
L 2669 0 
L 2663 428 
z
" transform="scale(0.015625)"/>
       <path id="Roboto-Light-5b" d="M 1541 4881 
L 884 4881 
L 884 -656 
L 1541 -656 
L 1541 -975 
L 509 -975 
L 509 5200 
L 1541 5200 
L 1541 4881 
z
" transform="scale(0.015625)"/>
       <path id="Roboto-Light-b0" d="M 1969 3831 
Q 1969 3506 1747 3284 
Q 1525 3063 1213 3063 
Q 897 3063 672 3286 
Q 447 3509 447 3831 
Q 447 4153 675 4383 
Q 903 4613 1212 4613 
Q 1522 4613 1745 4383 
Q 1969 4153 1969 3831 
z
M 728 3831 
Q 728 3622 867 3484 
Q 1006 3347 1212 3347 
Q 1419 3347 1553 3484 
Q 1688 3622 1688 3831 
Q 1688 4047 1553 4187 
Q 1419 4328 1213 4328 
Q 1009 4328 868 4187 
Q 728 4047 728 3831 
z
" transform="scale(0.015625)"/>
       <path id="Roboto-Light-43" d="M 3797 1419 
Q 3719 700 3283 318 
Q 2847 -63 2122 -63 
Q 1616 -63 1227 190 
Q 838 444 625 908 
Q 413 1372 409 1969 
L 409 2559 
Q 409 3166 621 3634 
Q 834 4103 1232 4358 
Q 1631 4613 2150 4613 
Q 2881 4613 3304 4217 
Q 3728 3822 3797 3125 
L 3409 3125 
Q 3266 4284 2150 4284 
Q 1531 4284 1164 3821 
Q 797 3359 797 2544 
L 797 1988 
Q 797 1200 1155 731 
Q 1513 263 2122 263 
Q 2725 263 3031 552 
Q 3338 841 3409 1419 
L 3797 1419 
z
" transform="scale(0.015625)"/>
       <path id="Roboto-Light-5d" d="M 0 5200 
L 1034 5200 
L 1034 -975 
L 0 -975 
L 0 -656 
L 659 -656 
L 659 4881 
L 0 4881 
L 0 5200 
z
" transform="scale(0.015625)"/>
      </defs>
      <use xlink:href="#Roboto-Light-45"/>
      <use xlink:href="#Roboto-Light-6e" transform="translate(56.884766 0)"/>
      <use xlink:href="#Roboto-Light-76" transform="translate(111.816406 0)"/>
      <use xlink:href="#Roboto-Light-69" transform="translate(159.912109 0)"/>
      <use xlink:href="#Roboto-Light-72" transform="translate(182.324219 0)"/>
      <use xlink:href="#Roboto-Light-6f" transform="translate(215.966797 0)"/>
      <use xlink:href="#Roboto-Light-6e" transform="translate(271.972656 0)"/>
      <use xlink:href="#Roboto-Light-6d" transform="translate(326.904297 0)"/>
      <use xlink:href="#Roboto-Light-65" transform="translate(415.527344 0)"/>
      <use xlink:href="#Roboto-Light-6e" transform="translate(467.1875 0)"/>
      <use xlink:href="#Roboto-Light-74" transform="translate(522.119141 0)"/>
      <use xlink:href="#Roboto-Light-61" transform="translate(554.248047 0)"/>
      <use xlink:href="#Roboto-Light-6c" transform="translate(607.8125 0)"/>
      <use xlink:href="#Roboto-Light-20" transform="translate(630.224609 0)"/>
      <use xlink:href="#Roboto-Light-74" transform="translate(654.541016 0)"/>
      <use xlink:href="#Roboto-Light-65" transform="translate(686.669922 0)"/>
      <use xlink:href="#Roboto-Light-6d" transform="translate(738.330078 0)"/>
      <use xlink:href="#Roboto-Light-70" transform="translate(826.953125 0)"/>
      <use xlink:href="#Roboto-Light-65" transform="translate(882.373047 0)"/>
      <use xlink:href="#Roboto-Light-72" transform="translate(934.033203 0)"/>
      <use xlink:href="#Roboto-Light-61" transform="translate(967.675781 0)"/>
      <use xlink:href="#Roboto-Light-74" transform="translate(1021.240234 0)"/>
      <use xlink:href="#Roboto-Light-75" transform="translate(1053.369141 0)"/>
      <use xlink:href="#Roboto-Light-72" transform="translate(1108.300781 0)"/>
      <use xlink:href="#Roboto-Light-65" transform="translate(1141.943359 0)"/>
      <use xlink:href="#Roboto-Light-20" transform="translate(1193.603516 0)"/>
      <use xlink:href="#Roboto-Light-5b" transform="translate(1217.919922 0)"/>
      <use xlink:href="#Roboto-Light-b0" transform="translate(1241.894531 0)"/>
      <use xlink:href="#Roboto-Light-43" transform="translate(1279.6875 0)"/>
      <use xlink:href="#Roboto-Light-5d" transform="translate(1344.628906 0)"/>
     </g>
    </g>
   </g>
   <g id="matplotlib.axis_2">
    <g id="ytick_1">
     <g id="line2d_27">
      <path d="M 48.188976 192.755906 
L 457.795276 192.755906 
" clip-path="url(#p4a2feab914)" style="fill: none; stroke-dasharray: 0.5,0.625; stroke-dashoffset: 0; stroke: #dee2e6; stroke-width: 0.5"/>
     </g>
     <g id="line2d_28">
      <defs>
       <path id="m4e66ae25f3" d="M 0 0 
L 2.5 0 
" style="stroke: #000000; stroke-width: 0.5"/>
      </defs>
      <g>
       <use xlink:href="#m4e66ae25f3" x="48.188976" y="192.755906" style="stroke: #000000; stroke-width: 0.5"/>
      </g>
     </g>
     <g id="text_6">
      <!-- 0 -->
      <g transform="translate(38.09257 196.880906) scale(0.11 -0.11)">
       <use xlink:href="#Roboto-Light-30"/>
      </g>
     </g>
    </g>
    <g id="ytick_2">
     <g id="line2d_29">
      <path d="M 48.188976 158.740157 
L 457.795276 158.740157 
" clip-path="url(#p4a2feab914)" style="fill: none; stroke-dasharray: 0.5,0.625; stroke-dashoffset: 0; stroke: #dee2e6; stroke-width: 0.5"/>
     </g>
     <g id="line2d_30">
      <g>
       <use xlink:href="#m4e66ae25f3" x="48.188976" y="158.740157" style="stroke: #000000; stroke-width: 0.5"/>
      </g>
     </g>
     <g id="text_7">
      <!-- 20 -->
      <g transform="translate(31.996164 162.865157) scale(0.11 -0.11)">
       <use xlink:href="#Roboto-Light-32"/>
       <use xlink:href="#Roboto-Light-30" transform="translate(55.419922 0)"/>
      </g>
     </g>
    </g>
    <g id="ytick_3">
     <g id="line2d_31">
      <path d="M 48.188976 124.724409 
L 457.795276 124.724409 
" clip-path="url(#p4a2feab914)" style="fill: none; stroke-dasharray: 0.5,0.625; stroke-dashoffset: 0; stroke: #dee2e6; stroke-width: 0.5"/>
     </g>
     <g id="line2d_32">
      <g>
       <use xlink:href="#m4e66ae25f3" x="48.188976" y="124.724409" style="stroke: #000000; stroke-width: 0.5"/>
      </g>
     </g>
     <g id="text_8">
      <!-- 40 -->
      <g transform="translate(31.996164 128.849409) scale(0.11 -0.11)">
       <defs>
        <path id="Roboto-Light-34" d="M 2725 1466 
L 3434 1466 
L 3434 1150 
L 2725 1150 
L 2725 0 
L 2350 0 
L 2350 1150 
L 209 1150 
L 209 1363 
L 2316 4550 
L 2725 4550 
L 2725 1466 
z
M 669 1466 
L 2350 1466 
L 2350 4066 
L 2184 3778 
L 669 1466 
z
" transform="scale(0.015625)"/>
       </defs>
       <use xlink:href="#Roboto-Light-34"/>
       <use xlink:href="#Roboto-Light-30" transform="translate(55.419922 0)"/>
      </g>
     </g>
    </g>
    <g id="ytick_4">
     <g id="line2d_33">
      <path d="M 48.188976 90.708661 
L 457.795276 90.708661 
" clip-path="url(#p4a2feab914)" style="fill: none; stroke-dasharray: 0.5,0.625; stroke-dashoffset: 0; stroke: #dee2e6; stroke-width: 0.5"/>
     </g>
     <g id="line2d_34">
      <g>
       <use xlink:href="#m4e66ae25f3" x="48.188976" y="90.708661" style="stroke: #000000; stroke-width: 0.5"/>
      </g>
     </g>
     <g id="text_9">
      <!-- 60 -->
      <g transform="translate(31.996164 94.833661) scale(0.11 -0.11)">
       <defs>
        <path id="Roboto-Light-36" d="M 2634 4584 
L 2634 4256 
L 2591 4256 
Q 1775 4256 1306 3776 
Q 838 3297 788 2444 
Q 975 2703 1265 2845 
Q 1556 2988 1916 2988 
Q 2516 2988 2870 2573 
Q 3225 2159 3225 1491 
Q 3225 1047 3059 690 
Q 2894 334 2584 135 
Q 2275 -63 1878 -63 
Q 1225 -63 815 410 
Q 406 884 406 1634 
L 406 2009 
Q 406 3231 962 3901 
Q 1519 4572 2541 4584 
L 2634 4584 
z
M 1856 2666 
Q 1500 2666 1192 2455 
Q 884 2244 781 1919 
L 781 1600 
Q 781 1006 1086 631 
Q 1391 256 1878 256 
Q 2316 256 2586 603 
Q 2856 950 2856 1478 
Q 2856 2016 2586 2341 
Q 2316 2666 1856 2666 
z
" transform="scale(0.015625)"/>
       </defs>
       <use xlink:href="#Roboto-Light-36"/>
       <use xlink:href="#Roboto-Light-30" transform="translate(55.419922 0)"/>
      </g>
     </g>
    </g>
    <g id="ytick_5">
     <g id="line2d_35">
      <path d="M 48.188976 56.692913 
L 457.795276 56.692913 
" clip-path="url(#p4a2feab914)" style="fill: none; stroke-dasharray: 0.5,0.625; stroke-dashoffset: 0; stroke: #dee2e6; stroke-width: 0.5"/>
     </g>
     <g id="line2d_36">
      <g>
       <use xlink:href="#m4e66ae25f3" x="48.188976" y="56.692913" style="stroke: #000000; stroke-width: 0.5"/>
      </g>
     </g>
     <g id="text_10">
      <!-- 80 -->
      <g transform="translate(31.996164 60.817913) scale(0.11 -0.11)">
       <defs>
        <path id="Roboto-Light-38" d="M 3109 3378 
Q 3109 3025 2903 2745 
Q 2697 2466 2359 2334 
Q 2753 2200 2990 1900 
Q 3228 1600 3228 1206 
Q 3228 622 2831 279 
Q 2434 -63 1781 -63 
Q 1122 -63 726 278 
Q 331 619 331 1206 
Q 331 1594 559 1897 
Q 788 2200 1184 2334 
Q 847 2466 647 2745 
Q 447 3025 447 3378 
Q 447 3944 811 4278 
Q 1175 4613 1775 4613 
Q 2375 4613 2742 4275 
Q 3109 3938 3109 3378 
z
M 2853 1203 
Q 2853 1628 2550 1901 
Q 2247 2175 1775 2175 
Q 1303 2175 1003 1906 
Q 703 1638 703 1203 
Q 703 769 993 511 
Q 1284 253 1781 253 
Q 2266 253 2559 509 
Q 2853 766 2853 1203 
z
M 2734 3381 
Q 2734 3772 2464 4033 
Q 2194 4294 1775 4294 
Q 1350 4294 1086 4042 
Q 822 3791 822 3381 
Q 822 2981 1086 2737 
Q 1350 2494 1778 2494 
Q 2200 2494 2467 2739 
Q 2734 2984 2734 3381 
z
" transform="scale(0.015625)"/>
       </defs>
       <use xlink:href="#Roboto-Light-38"/>
       <use xlink:href="#Roboto-Light-30" transform="translate(55.419922 0)"/>
      </g>
     </g>
    </g>
    <g id="ytick_6">
     <g id="line2d_37">
      <path d="M 48.188976 22.677165 
L 457.795276 22.677165 
" clip-path="url(#p4a2feab914)" style="fill: none; stroke-dasharray: 0.5,0.625; stroke-dashoffset: 0; stroke: #dee2e6; stroke-width: 0.5"/>
     </g>
     <g id="line2d_38">
      <g>
       <use xlink:href="#m4e66ae25f3" x="48.188976" y="22.677165" style="stroke: #000000; stroke-width: 0.5"/>
      </g>
     </g>
     <g id="text_11">
      <!-- 100 -->
      <g transform="translate(25.899758 26.802165) scale(0.11 -0.11)">
       <use xlink:href="#Roboto-Light-31"/>
       <use xlink:href="#Roboto-Light-30" transform="translate(55.419922 0)"/>
       <use xlink:href="#Roboto-Light-30" transform="translate(110.839844 0)"/>
      </g>
     </g>
    </g>
    <g id="ytick_7">
     <g id="line2d_39">
      <defs>
       <path id="m7b77b25226" d="M 0 0 
L 1.25 0 
" style="stroke: #000000; stroke-width: 0.25"/>
      </defs>
      <g>
       <use xlink:href="#m7b77b25226" x="48.188976" y="175.748031" style="stroke: #000000; stroke-width: 0.25"/>
      </g>
     </g>
    </g>
    <g id="ytick_8">
     <g id="line2d_40">
      <g>
       <use xlink:href="#m7b77b25226" x="48.188976" y="141.732283" style="stroke: #000000; stroke-width: 0.25"/>
      </g>
     </g>
    </g>
    <g id="ytick_9">
     <g id="line2d_41">
      <g>
       <use xlink:href="#m7b77b25226" x="48.188976" y="107.716535" style="stroke: #000000; stroke-width: 0.25"/>
      </g>
     </g>
    </g>
    <g id="ytick_10">
     <g id="line2d_42">
      <g>
       <use xlink:href="#m7b77b25226" x="48.188976" y="73.700787" style="stroke: #000000; stroke-width: 0.25"/>
      </g>
     </g>
    </g>
    <g id="ytick_11">
     <g id="line2d_43">
      <g>
       <use xlink:href="#m7b77b25226" x="48.188976" y="39.685039" style="stroke: #000000; stroke-width: 0.25"/>
      </g>
     </g>
    </g>
    <g id="text_12">
     <!-- Exergy efficiency [%] -->
     <g transform="translate(17.338508 160.761223) rotate(-90) scale(0.12 -0.12)">
      <defs>
       <path id="Roboto-Light-78" d="M 1550 2009 
L 2463 3381 
L 2906 3381 
L 1759 1722 
L 2956 0 
L 2516 0 
L 1553 1431 
L 591 0 
L 150 0 
L 1344 1722 
L 197 3381 
L 638 3381 
L 1550 2009 
z
" transform="scale(0.015625)"/>
       <path id="Roboto-Light-67" d="M 338 1722 
Q 338 2516 689 2980 
Q 1041 3444 1644 3444 
Q 2334 3444 2694 2894 
L 2713 3381 
L 3063 3381 
L 3063 69 
Q 3063 -584 2697 -965 
Q 2331 -1347 1706 -1347 
Q 1353 -1347 1033 -1189 
Q 713 -1031 528 -769 
L 738 -544 
Q 1134 -1031 1681 -1031 
Q 2150 -1031 2412 -754 
Q 2675 -478 2684 13 
L 2684 438 
Q 2325 -63 1638 -63 
Q 1050 -63 694 406 
Q 338 875 338 1672 
L 338 1722 
z
M 716 1656 
Q 716 1009 975 636 
Q 1234 263 1706 263 
Q 2397 263 2684 881 
L 2684 2453 
Q 2553 2778 2306 2948 
Q 2059 3119 1713 3119 
Q 1241 3119 978 2748 
Q 716 2378 716 1656 
z
" transform="scale(0.015625)"/>
       <path id="Roboto-Light-79" d="M 1559 538 
L 2547 3381 
L 2950 3381 
L 1506 -575 
L 1431 -750 
Q 1153 -1366 572 -1366 
Q 438 -1366 284 -1322 
L 281 -1013 
L 475 -1031 
Q 750 -1031 920 -895 
Q 1091 -759 1209 -428 
L 1375 28 
L 100 3381 
L 509 3381 
L 1559 538 
z
" transform="scale(0.015625)"/>
       <path id="Roboto-Light-66" d="M 756 0 
L 756 3075 
L 197 3075 
L 197 3381 
L 756 3381 
L 756 3791 
Q 756 4309 1020 4587 
Q 1284 4866 1756 4866 
Q 1969 4866 2153 4813 
L 2125 4500 
Q 1969 4538 1784 4538 
Q 1475 4538 1303 4345 
Q 1131 4153 1131 3800 
L 1131 3381 
L 1938 3381 
L 1938 3075 
L 1131 3075 
L 1131 0 
L 756 0 
z
" transform="scale(0.015625)"/>
       <path id="Roboto-Light-63" d="M 1738 253 
Q 2128 253 2392 473 
Q 2656 694 2678 1044 
L 3038 1044 
Q 3022 734 2844 479 
Q 2666 225 2370 81 
Q 2075 -63 1738 -63 
Q 1072 -63 683 400 
Q 294 863 294 1644 
L 294 1756 
Q 294 2256 469 2640 
Q 644 3025 970 3234 
Q 1297 3444 1734 3444 
Q 2291 3444 2652 3112 
Q 3013 2781 3038 2241 
L 2678 2241 
Q 2653 2638 2392 2881 
Q 2131 3125 1734 3125 
Q 1228 3125 948 2759 
Q 669 2394 669 1734 
L 669 1625 
Q 669 978 948 615 
Q 1228 253 1738 253 
z
" transform="scale(0.015625)"/>
       <path id="Roboto-Light-25" d="M 341 3675 
Q 341 4081 592 4348 
Q 844 4616 1231 4616 
Q 1619 4616 1870 4348 
Q 2122 4081 2122 3656 
L 2122 3434 
Q 2122 3034 1873 2767 
Q 1625 2500 1238 2500 
Q 853 2500 597 2762 
Q 341 3025 341 3456 
L 341 3675 
z
M 644 3434 
Q 644 3144 805 2956 
Q 966 2769 1238 2769 
Q 1503 2769 1661 2958 
Q 1819 3147 1819 3447 
L 1819 3675 
Q 1819 3966 1656 4155 
Q 1494 4344 1231 4344 
Q 972 4344 808 4156 
Q 644 3969 644 3656 
L 644 3434 
z
M 2631 1116 
Q 2631 1522 2882 1787 
Q 3134 2053 3518 2053 
Q 3903 2053 4158 1789 
Q 4413 1525 4413 1094 
L 4413 872 
Q 4413 466 4161 200 
Q 3909 -66 3525 -66 
Q 3141 -66 2886 198 
Q 2631 463 2631 888 
L 2631 1116 
z
M 2931 872 
Q 2931 578 3092 390 
Q 3253 203 3525 203 
Q 3794 203 3951 392 
Q 4109 581 4109 888 
L 4109 1116 
Q 4109 1416 3948 1598 
Q 3788 1781 3519 1781 
Q 3256 1781 3093 1597 
Q 2931 1413 2931 1103 
L 2931 872 
z
M 1356 378 
L 1122 528 
L 3344 4084 
L 3578 3934 
L 1356 378 
z
" transform="scale(0.015625)"/>
      </defs>
      <use xlink:href="#Roboto-Light-45"/>
      <use xlink:href="#Roboto-Light-78" transform="translate(56.884766 0)"/>
      <use xlink:href="#Roboto-Light-65" transform="translate(105.517578 0)"/>
      <use xlink:href="#Roboto-Light-72" transform="translate(157.177734 0)"/>
      <use xlink:href="#Roboto-Light-67" transform="translate(190.820312 0)"/>
      <use xlink:href="#Roboto-Light-79" transform="translate(246.289062 0)"/>
      <use xlink:href="#Roboto-Light-20" transform="translate(293.798828 0)"/>
      <use xlink:href="#Roboto-Light-65" transform="translate(318.115234 0)"/>
      <use xlink:href="#Roboto-Light-66" transform="translate(369.775391 0)"/>
      <use xlink:href="#Roboto-Light-66" transform="translate(402.880859 0)"/>
      <use xlink:href="#Roboto-Light-69" transform="translate(435.986328 0)"/>
      <use xlink:href="#Roboto-Light-63" transform="translate(458.398438 0)"/>
      <use xlink:href="#Roboto-Light-69" transform="translate(509.912109 0)"/>
      <use xlink:href="#Roboto-Light-65" transform="translate(532.324219 0)"/>
      <use xlink:href="#Roboto-Light-6e" transform="translate(583.984375 0)"/>
      <use xlink:href="#Roboto-Light-63" transform="translate(638.916016 0)"/>
      <use xlink:href="#Roboto-Light-79" transform="translate(690.429688 0)"/>
      <use xlink:href="#Roboto-Light-20" transform="translate(737.939453 0)"/>
      <use xlink:href="#Roboto-Light-5b" transform="translate(762.255859 0)"/>
      <use xlink:href="#Roboto-Light-25" transform="translate(786.230469 0)"/>
      <use xlink:href="#Roboto-Light-5d" transform="translate(860.107422 0)"/>
     </g>
    </g>
   </g>
   <g id="PathCollection_1">
    <defs>
     <path id="m2c80f35cf1" d="M 0 2.236068 
C 0.593012 2.236068 1.161816 2.000462 1.581139 1.581139 
C 2.000462 1.161816 2.236068 0.593012 2.236068 0 
C 2.236068 -0.593012 2.000462 -1.161816 1.581139 -1.581139 
C 1.161816 -2.000462 0.593012 -2.236068 0 -2.236068 
C -0.593012 -2.236068 -1.161816 -2.000462 -1.581139 -1.581139 
C -2.000462 -1.161816 -2.236068 -0.593012 -2.236068 0 
C -2.236068 0.593012 -2.000462 1.161816 -1.581139 1.581139 
C -1.161816 2.000462 -0.593012 2.236068 0 2.236068 
z
" style="stroke: #ffffff; stroke-width: 0.75"/>
    </defs>
    <g clip-path="url(#p4a2feab914)">
     <use xlink:href="#m2c80f35cf1" x="358.496779" y="176.123188" style="fill: #82c91e; stroke: #ffffff; stroke-width: 0.75"/>
    </g>
   </g>
   <g id="PathCollection_2">
    <defs>
     <path id="ma752428c54" d="M 0 2.236068 
C 0.593012 2.236068 1.161816 2.000462 1.581139 1.581139 
C 2.000462 1.161816 2.236068 0.593012 2.236068 0 
C 2.236068 -0.593012 2.000462 -1.161816 1.581139 -1.581139 
C 1.161816 -2.000462 0.593012 -2.236068 0 -2.236068 
C -0.593012 -2.236068 -1.161816 -2.000462 -1.581139 -1.581139 
C -2.000462 -1.161816 -2.236068 -0.593012 -2.236068 0 
C -2.236068 0.593012 -2.000462 1.161816 -1.581139 1.581139 
C -1.161816 2.000462 -0.593012 2.236068 0 2.236068 
z
" style="stroke: #ffffff; stroke-width: 0.75"/>
    </defs>
    <g clip-path="url(#p4a2feab914)">
     <use xlink:href="#ma752428c54" x="358.496779" y="59.126239" style="fill: #228be6; stroke: #ffffff; stroke-width: 0.75"/>
    </g>
   </g>
   <g id="PathCollection_3">
    <defs>
     <path id="m9792f4dc7b" d="M 0 2.236068 
C 0.593012 2.236068 1.161816 2.000462 1.581139 1.581139 
C 2.000462 1.161816 2.236068 0.593012 2.236068 0 
C 2.236068 -0.593012 2.000462 -1.161816 1.581139 -1.581139 
C 1.161816 -2.000462 0.593012 -2.236068 0 -2.236068 
C -0.593012 -2.236068 -1.161816 -2.000462 -1.581139 -1.581139 
C -2.000462 -1.161816 -2.236068 -0.593012 -2.236068 0 
C -2.236068 0.593012 -2.000462 1.161816 -1.581139 1.581139 
C -1.161816 2.000462 -0.593012 2.236068 0 2.236068 
z
" style="stroke: #ffffff; stroke-width: 0.75"/>
    </defs>
    <g clip-path="url(#p4a2feab914)">
     <use xlink:href="#m9792f4dc7b" x="358.496779" y="95.584986" style="fill: #fa5252; stroke: #ffffff; stroke-width: 0.75"/>
    </g>
   </g>
   <g id="PathCollection_4">
    <defs>
     <path id="m88b0b7049f" d="M 0 2.236068 
C 0.593012 2.236068 1.161816 2.000462 1.581139 1.581139 
C 2.000462 1.161816 2.236068 0.593012 2.236068 0 
C 2.236068 -0.593012 2.000462 -1.161816 1.581139 -1.581139 
C 1.161816 -2.000462 0.593012 -2.236068 0 -2.236068 
C -0.593012 -2.236068 -1.161816 -2.000462 -1.581139 -1.581139 
C -2.000462 -1.161816 -2.236068 -0.593012 -2.236068 0 
C -2.236068 0.593012 -2.000462 1.161816 -1.581139 1.581139 
C -1.161816 2.000462 -0.593012 2.236068 0 2.236068 
z
" style="stroke: #ffffff; stroke-width: 0.75"/>
    </defs>
    <g clip-path="url(#p4a2feab914)">
     <use xlink:href="#m88b0b7049f" x="358.496779" y="37.38188" style="fill: #fd7e14; stroke: #ffffff; stroke-width: 0.75"/>
    </g>
   </g>
   <g id="PathCollection_5">
    <g clip-path="url(#p4a2feab914)">
     <use xlink:href="#m2c80f35cf1" x="192.999284" y="175.693501" style="fill: #82c91e; stroke: #ffffff; stroke-width: 0.75"/>
    </g>
   </g>
   <g id="PathCollection_6">
    <g clip-path="url(#p4a2feab914)">
     <use xlink:href="#ma752428c54" x="192.999284" y="83.815764" style="fill: #228be6; stroke: #ffffff; stroke-width: 0.75"/>
    </g>
   </g>
   <g id="PathCollection_7">
    <g clip-path="url(#p4a2feab914)">
     <use xlink:href="#m9792f4dc7b" x="192.999284" y="78.21151" style="fill: #fa5252; stroke: #ffffff; stroke-width: 0.75"/>
    </g>
   </g>
   <g id="PathCollection_8">
    <g clip-path="url(#p4a2feab914)">
     <use xlink:href="#m88b0b7049f" x="192.999284" y="31.587323" style="fill: #fd7e14; stroke: #ffffff; stroke-width: 0.75"/>
    </g>
   </g>
   <g id="legend_1">
    <g id="line2d_44">
     <path d="M 67.86072 11.542243 
L 75.73572 11.542243 
L 83.61072 11.542243 
" style="fill: none; stroke: #82c91e; stroke-linecap: square"/>
    </g>
    <g id="text_13">
     <!-- external unit -->
     <g transform="translate(86.76072 15.217243) scale(0.105 -0.105)">
      <use xlink:href="#Roboto-Light-65"/>
      <use xlink:href="#Roboto-Light-78" transform="translate(51.660156 0)"/>
      <use xlink:href="#Roboto-Light-74" transform="translate(100.292969 0)"/>
      <use xlink:href="#Roboto-Light-65" transform="translate(132.421875 0)"/>
      <use xlink:href="#Roboto-Light-72" transform="translate(184.082031 0)"/>
      <use xlink:href="#Roboto-Light-6e" transform="translate(217.724609 0)"/>
      <use xlink:href="#Roboto-Light-61" transform="translate(272.65625 0)"/>
      <use xlink:href="#Roboto-Light-6c" transform="translate(326.220703 0)"/>
      <use xlink:href="#Roboto-Light-20" transform="translate(348.632812 0)"/>
      <use xlink:href="#Roboto-Light-75" transform="translate(372.949219 0)"/>
      <use xlink:href="#Roboto-Light-6e" transform="translate(427.880859 0)"/>
      <use xlink:href="#Roboto-Light-69" transform="translate(482.8125 0)"/>
      <use xlink:href="#Roboto-Light-74" transform="translate(505.224609 0)"/>
     </g>
    </g>
    <g id="line2d_45">
     <path d="M 164.181813 11.542243 
L 172.056813 11.542243 
L 179.931813 11.542243 
" style="fill: none; stroke: #228be6; stroke-linecap: square"/>
    </g>
    <g id="text_14">
     <!-- refrigerant -->
     <g transform="translate(183.081813 15.217243) scale(0.105 -0.105)">
      <use xlink:href="#Roboto-Light-72"/>
      <use xlink:href="#Roboto-Light-65" transform="translate(33.642578 0)"/>
      <use xlink:href="#Roboto-Light-66" transform="translate(85.302734 0)"/>
      <use xlink:href="#Roboto-Light-72" transform="translate(118.408203 0)"/>
      <use xlink:href="#Roboto-Light-69" transform="translate(152.050781 0)"/>
      <use xlink:href="#Roboto-Light-67" transform="translate(174.462891 0)"/>
      <use xlink:href="#Roboto-Light-65" transform="translate(229.931641 0)"/>
      <use xlink:href="#Roboto-Light-72" transform="translate(281.591797 0)"/>
      <use xlink:href="#Roboto-Light-61" transform="translate(315.234375 0)"/>
      <use xlink:href="#Roboto-Light-6e" transform="translate(368.798828 0)"/>
      <use xlink:href="#Roboto-Light-74" transform="translate(423.730469 0)"/>
     </g>
    </g>
    <g id="line2d_46">
     <path d="M 251.945407 11.542243 
L 259.820407 11.542243 
L 267.695407 11.542243 
" style="fill: none; stroke: #fa5252; stroke-linecap: square"/>
    </g>
    <g id="text_15">
     <!-- heat exchanger -->
     <g transform="translate(270.845407 15.217243) scale(0.105 -0.105)">
      <defs>
       <path id="Roboto-Light-68" d="M 859 2809 
Q 1044 3113 1331 3278 
Q 1619 3444 1959 3444 
Q 2503 3444 2768 3137 
Q 3034 2831 3038 2219 
L 3038 0 
L 2666 0 
L 2666 2222 
Q 2663 2675 2473 2897 
Q 2284 3119 1869 3119 
Q 1522 3119 1255 2901 
Q 988 2684 859 2316 
L 859 0 
L 488 0 
L 488 4800 
L 859 4800 
L 859 2809 
z
" transform="scale(0.015625)"/>
      </defs>
      <use xlink:href="#Roboto-Light-68"/>
      <use xlink:href="#Roboto-Light-65" transform="translate(54.882812 0)"/>
      <use xlink:href="#Roboto-Light-61" transform="translate(106.542969 0)"/>
      <use xlink:href="#Roboto-Light-74" transform="translate(160.107422 0)"/>
      <use xlink:href="#Roboto-Light-20" transform="translate(192.236328 0)"/>
      <use xlink:href="#Roboto-Light-65" transform="translate(216.552734 0)"/>
      <use xlink:href="#Roboto-Light-78" transform="translate(268.212891 0)"/>
      <use xlink:href="#Roboto-Light-63" transform="translate(316.845703 0)"/>
      <use xlink:href="#Roboto-Light-68" transform="translate(368.359375 0)"/>
      <use xlink:href="#Roboto-Light-61" transform="translate(423.242188 0)"/>
      <use xlink:href="#Roboto-Light-6e" transform="translate(476.806641 0)"/>
      <use xlink:href="#Roboto-Light-67" transform="translate(531.738281 0)"/>
      <use xlink:href="#Roboto-Light-65" transform="translate(587.207031 0)"/>
      <use xlink:href="#Roboto-Light-72" transform="translate(638.867188 0)"/>
     </g>
    </g>
    <g id="line2d_47">
     <path d="M 362.459548 11.542243 
L 370.334548 11.542243 
L 378.209548 11.542243 
" style="fill: none; stroke: #fd7e14; stroke-linecap: square"/>
    </g>
    <g id="text_16">
     <!-- mixing valve -->
     <g transform="translate(381.359548 15.217243) scale(0.105 -0.105)">
      <use xlink:href="#Roboto-Light-6d"/>
      <use xlink:href="#Roboto-Light-69" transform="translate(88.623047 0)"/>
      <use xlink:href="#Roboto-Light-78" transform="translate(111.035156 0)"/>
      <use xlink:href="#Roboto-Light-69" transform="translate(159.667969 0)"/>
      <use xlink:href="#Roboto-Light-6e" transform="translate(182.080078 0)"/>
      <use xlink:href="#Roboto-Light-67" transform="translate(237.011719 0)"/>
      <use xlink:href="#Roboto-Light-20" transform="translate(292.480469 0)"/>
      <use xlink:href="#Roboto-Light-76" transform="translate(316.796875 0)"/>
      <use xlink:href="#Roboto-Light-61" transform="translate(364.892578 0)"/>
      <use xlink:href="#Roboto-Light-6c" transform="translate(418.457031 0)"/>
      <use xlink:href="#Roboto-Light-76" transform="translate(440.869141 0)"/>
      <use xlink:href="#Roboto-Light-65" transform="translate(488.964844 0)"/>
     </g>
    </g>
   </g>
  </g>
 </g>
 <defs>
  <clipPath id="p4a2feab914">
   <rect x="48.188976" y="22.677165" width="409.606299" height="170.07874"/>
  </clipPath>
 </defs>
</svg>
