<?xml version="1.0" encoding="utf-8" standalone="no"?>
<!DOCTYPE svg PUBLIC "-//W3C//DTD SVG 1.1//EN"
  "http://www.w3.org/Graphics/SVG/1.1/DTD/svg11.dtd">
<svg xmlns:xlink="http://www.w3.org/1999/xlink" width="396.850394pt" height="226.771654pt" viewBox="0 0 396.850394 226.771654" xmlns="http://www.w3.org/2000/svg" version="1.1">
 <metadata>
  <rdf:RDF xmlns:dc="http://purl.org/dc/elements/1.1/" xmlns:cc="http://creativecommons.org/ns#" xmlns:rdf="http://www.w3.org/1999/02/22-rdf-syntax-ns#">
   <cc:Work>
    <dc:type rdf:resource="http://purl.org/dc/dcmitype/StillImage"/>
    <dc:date>2025-06-28T08:59:45.446579</dc:date>
    <dc:format>image/svg+xml</dc:format>
    <dc:creator>
     <cc:Agent>
      <dc:title>Matplotlib v3.10.3, https://matplotlib.org/</dc:title>
     </cc:Agent>
    </dc:creator>
   </cc:Work>
  </rdf:RDF>
 </metadata>
 <defs>
  <style type="text/css">*{stroke-linejoin: round; stroke-linecap: butt}</style>
 </defs>
 <g id="figure_1">
  <g id="patch_1">
   <path d="M 0 226.771654 
L 396.850394 226.771654 
L 396.850394 0 
L 0 0 
z
" style="fill: #ffffff"/>
  </g>
  <g id="axes_1">
   <g id="patch_2">
    <path d="M 32.989541 84.497932 
L 392.309203 84.497932 
L 392.309203 7.892436 
L 32.989541 7.892436 
z
" style="fill: #ffffff"/>
   </g>
   <g id="LineCollection_1">
    <path d="M 55.053029 72.951151 
L 107.585144 72.951151 
" clip-path="url(#pfcab6b27b4)" style="fill: none; stroke-dasharray: 0.25,0.3125; stroke-dashoffset: 0; stroke: #78716c; stroke-width: 0.25"/>
   </g>
   <g id="LineCollection_2">
    <path d="M 107.585144 14.162262 
L 160.117258 14.162262 
" clip-path="url(#pfcab6b27b4)" style="fill: none; stroke-dasharray: 0.25,0.3125; stroke-dashoffset: 0; stroke: #78716c; stroke-width: 0.25"/>
   </g>
   <g id="LineCollection_3">
    <path d="M 160.117258 14.162262 
L 212.649372 14.162262 
" clip-path="url(#pfcab6b27b4)" style="fill: none; stroke-dasharray: 0.25,0.3125; stroke-dashoffset: 0; stroke: #78716c; stroke-width: 0.25"/>
   </g>
   <g id="LineCollection_4">
    <path d="M 212.649372 15.217245 
L 265.181486 15.217245 
" clip-path="url(#pfcab6b27b4)" style="fill: none; stroke-dasharray: 0.25,0.3125; stroke-dashoffset: 0; stroke: #78716c; stroke-width: 0.25"/>
   </g>
   <g id="LineCollection_5">
    <path d="M 265.181486 10.268625 
L 317.713601 10.268625 
" clip-path="url(#pfcab6b27b4)" style="fill: none; stroke-dasharray: 0.25,0.3125; stroke-dashoffset: 0; stroke: #78716c; stroke-width: 0.25"/>
   </g>
   <g id="LineCollection_6">
    <path d="M 317.713601 10.268625 
L 370.245715 10.268625 
" clip-path="url(#pfcab6b27b4)" style="fill: none; stroke-dasharray: 0.25,0.3125; stroke-dashoffset: 0; stroke: #78716c; stroke-width: 0.25"/>
   </g>
   <g id="patch_3">
    <path d="M 45.859909 84.497932 
L 64.246149 84.497932 
L 64.246149 72.951151 
L 45.859909 72.951151 
z
" clip-path="url(#pfcab6b27b4)" style="fill: #84cc16; stroke: #3f6212; stroke-width: 0.5; stroke-linejoin: miter"/>
   </g>
   <g id="patch_4">
    <path d="M 98.392024 72.951151 
L 116.778264 72.951151 
L 116.778264 14.162262 
L 98.392024 14.162262 
z
" clip-path="url(#pfcab6b27b4)" style="fill: #84cc16; stroke: #3f6212; stroke-width: 0.5; stroke-linejoin: miter"/>
   </g>
   <g id="patch_5">
    <path d="M 150.924138 14.162262 
L 169.310378 14.162262 
L 169.310378 14.162262 
L 150.924138 14.162262 
L 150.924138 14.162262 
z
" clip-path="url(#pfcab6b27b4)" style="fill: none"/>
   </g>
   <g id="patch_6">
    <path d="M 203.456252 14.162262 
L 221.842492 14.162262 
L 221.842492 15.217245 
L 203.456252 15.217245 
z
" clip-path="url(#pfcab6b27b4)" style="fill: #ecfccb; stroke: #84cc16; stroke-width: 0.5; stroke-linejoin: miter"/>
   </g>
   <g id="patch_7">
    <path d="M 255.988366 15.217245 
L 274.374606 15.217245 
L 274.374606 10.268625 
L 255.988366 10.268625 
z
" clip-path="url(#pfcab6b27b4)" style="fill: #84cc16; stroke: #3f6212; stroke-width: 0.5; stroke-linejoin: miter"/>
   </g>
   <g id="patch_8">
    <path d="M 308.520481 10.268625 
L 326.906721 10.268625 
L 326.906721 10.268625 
L 308.520481 10.268625 
L 308.520481 10.268625 
z
" clip-path="url(#pfcab6b27b4)" style="fill: none"/>
   </g>
   <g id="patch_9">
    <path d="M 361.052595 84.497932 
L 379.438835 84.497932 
L 379.438835 10.268625 
L 361.052595 10.268625 
z
" clip-path="url(#pfcab6b27b4)" style="fill: #84cc16; stroke: #3f6212; stroke-width: 0.5; stroke-linejoin: miter"/>
   </g>
   <g id="patch_10">
    <path d="M 32.989541 84.497932 
L 32.989541 7.892436 
" style="fill: none; stroke: #000000; stroke-width: 0.3; stroke-linejoin: miter; stroke-linecap: square"/>
   </g>
   <g id="patch_11">
    <path d="M 32.989541 84.497932 
L 392.309203 84.497932 
" style="fill: none; stroke: #000000; stroke-width: 0.3; stroke-linejoin: miter; stroke-linecap: square"/>
   </g>
   <g id="matplotlib.axis_1">
    <g id="xtick_1">
     <g id="line2d_1"/>
     <g id="text_1">
      <!-- Supply water -->
      <g transform="translate(36.462014 91.372932) scale(0.065 -0.065)">
       <defs>
        <path id="Roboto-Regular-53" d="M 1869 2028 
Q 1097 2250 745 2573 
Q 394 2897 394 3372 
Q 394 3909 823 4261 
Q 1253 4613 1941 4613 
Q 2409 4613 2776 4431 
Q 3144 4250 3345 3931 
Q 3547 3613 3547 3234 
L 2944 3234 
Q 2944 3647 2681 3883 
Q 2419 4119 1941 4119 
Q 1497 4119 1248 3923 
Q 1000 3728 1000 3381 
Q 1000 3103 1236 2911 
Q 1472 2719 2039 2559 
Q 2606 2400 2926 2208 
Q 3247 2016 3401 1759 
Q 3556 1503 3556 1156 
Q 3556 603 3125 270 
Q 2694 -63 1972 -63 
Q 1503 -63 1097 117 
Q 691 297 470 609 
Q 250 922 250 1319 
L 853 1319 
Q 853 906 1158 667 
Q 1463 428 1972 428 
Q 2447 428 2700 622 
Q 2953 816 2953 1150 
Q 2953 1484 2718 1667 
Q 2484 1850 1869 2028 
z
" transform="scale(0.015625)"/>
        <path id="Roboto-Regular-75" d="M 2525 334 
Q 2188 -63 1534 -63 
Q 994 -63 711 251 
Q 428 566 425 1181 
L 425 3381 
L 1003 3381 
L 1003 1197 
Q 1003 428 1628 428 
Q 2291 428 2509 922 
L 2509 3381 
L 3088 3381 
L 3088 0 
L 2538 0 
L 2525 334 
z
" transform="scale(0.015625)"/>
        <path id="Roboto-Regular-70" d="M 3294 1653 
Q 3294 881 2941 409 
Q 2588 -63 1984 -63 
Q 1369 -63 1016 328 
L 1016 -1300 
L 438 -1300 
L 438 3381 
L 966 3381 
L 994 3006 
Q 1347 3444 1975 3444 
Q 2584 3444 2939 2984 
Q 3294 2525 3294 1706 
L 3294 1653 
z
M 2716 1719 
Q 2716 2291 2472 2622 
Q 2228 2953 1803 2953 
Q 1278 2953 1016 2488 
L 1016 872 
Q 1275 409 1809 409 
Q 2225 409 2470 739 
Q 2716 1069 2716 1719 
z
" transform="scale(0.015625)"/>
        <path id="Roboto-Regular-6c" d="M 1066 0 
L 488 0 
L 488 4800 
L 1066 4800 
L 1066 0 
z
" transform="scale(0.015625)"/>
        <path id="Roboto-Regular-79" d="M 1544 847 
L 2331 3381 
L 2950 3381 
L 1591 -522 
Q 1275 -1366 588 -1366 
L 478 -1356 
L 263 -1316 
L 263 -847 
L 419 -859 
Q 713 -859 877 -740 
Q 1041 -622 1147 -306 
L 1275 38 
L 69 3381 
L 700 3381 
L 1544 847 
z
" transform="scale(0.015625)"/>
        <path id="Roboto-Regular-20" transform="scale(0.015625)"/>
        <path id="Roboto-Regular-77" d="M 3431 797 
L 4081 3381 
L 4659 3381 
L 3675 0 
L 3206 0 
L 2384 2563 
L 1584 0 
L 1116 0 
L 134 3381 
L 709 3381 
L 1375 850 
L 2163 3381 
L 2628 3381 
L 3431 797 
z
" transform="scale(0.015625)"/>
        <path id="Roboto-Regular-61" d="M 2525 0 
Q 2475 100 2444 356 
Q 2041 -63 1481 -63 
Q 981 -63 661 220 
Q 341 503 341 938 
Q 341 1466 742 1758 
Q 1144 2050 1872 2050 
L 2434 2050 
L 2434 2316 
Q 2434 2619 2253 2798 
Q 2072 2978 1719 2978 
Q 1409 2978 1200 2822 
Q 991 2666 991 2444 
L 409 2444 
Q 409 2697 589 2933 
Q 769 3169 1076 3306 
Q 1384 3444 1753 3444 
Q 2338 3444 2669 3151 
Q 3000 2859 3013 2347 
L 3013 791 
Q 3013 325 3131 50 
L 3131 0 
L 2525 0 
z
M 1566 441 
Q 1838 441 2081 581 
Q 2325 722 2434 947 
L 2434 1641 
L 1981 1641 
Q 919 1641 919 1019 
Q 919 747 1100 594 
Q 1281 441 1566 441 
z
" transform="scale(0.015625)"/>
        <path id="Roboto-Regular-74" d="M 1222 4200 
L 1222 3381 
L 1853 3381 
L 1853 2934 
L 1222 2934 
L 1222 838 
Q 1222 634 1306 532 
Q 1391 431 1594 431 
Q 1694 431 1869 469 
L 1869 0 
Q 1641 -63 1425 -63 
Q 1038 -63 841 171 
Q 644 406 644 838 
L 644 2934 
L 28 2934 
L 28 3381 
L 644 3381 
L 644 4200 
L 1222 4200 
z
" transform="scale(0.015625)"/>
        <path id="Roboto-Regular-65" d="M 1841 -63 
Q 1153 -63 722 389 
Q 291 841 291 1597 
L 291 1703 
Q 291 2206 483 2601 
Q 675 2997 1020 3220 
Q 1366 3444 1769 3444 
Q 2428 3444 2793 3009 
Q 3159 2575 3159 1766 
L 3159 1525 
L 869 1525 
Q 881 1025 1161 717 
Q 1441 409 1872 409 
Q 2178 409 2390 534 
Q 2603 659 2763 866 
L 3116 591 
Q 2691 -63 1841 -63 
z
M 1769 2969 
Q 1419 2969 1181 2714 
Q 944 2459 888 2000 
L 2581 2000 
L 2581 2044 
Q 2556 2484 2343 2726 
Q 2131 2969 1769 2969 
z
" transform="scale(0.015625)"/>
        <path id="Roboto-Regular-72" d="M 2072 2863 
Q 1941 2884 1788 2884 
Q 1219 2884 1016 2400 
L 1016 0 
L 438 0 
L 438 3381 
L 1000 3381 
L 1009 2991 
Q 1294 3444 1816 3444 
Q 1984 3444 2072 3400 
L 2072 2863 
z
" transform="scale(0.015625)"/>
       </defs>
       <use xlink:href="#Roboto-Regular-53"/>
       <use xlink:href="#Roboto-Regular-75" transform="translate(59.326172 0)"/>
       <use xlink:href="#Roboto-Regular-70" transform="translate(114.453125 0)"/>
       <use xlink:href="#Roboto-Regular-70" transform="translate(170.556641 0)"/>
       <use xlink:href="#Roboto-Regular-6c" transform="translate(226.660156 0)"/>
       <use xlink:href="#Roboto-Regular-79" transform="translate(250.927734 0)"/>
       <use xlink:href="#Roboto-Regular-20" transform="translate(298.242188 0)"/>
       <use xlink:href="#Roboto-Regular-77" transform="translate(322.998047 0)"/>
       <use xlink:href="#Roboto-Regular-61" transform="translate(398.144531 0)"/>
       <use xlink:href="#Roboto-Regular-74" transform="translate(452.539062 0)"/>
       <use xlink:href="#Roboto-Regular-65" transform="translate(485.205078 0)"/>
       <use xlink:href="#Roboto-Regular-72" transform="translate(538.183594 0)"/>
      </g>
      <!-- to tank -->
      <g transform="translate(45.063342 98.610275) scale(0.065 -0.065)">
       <defs>
        <path id="Roboto-Regular-6f" d="M 284 1722 
Q 284 2219 479 2616 
Q 675 3013 1023 3228 
Q 1372 3444 1819 3444 
Q 2509 3444 2936 2966 
Q 3363 2488 3363 1694 
L 3363 1653 
Q 3363 1159 3173 767 
Q 2984 375 2632 156 
Q 2281 -63 1825 -63 
Q 1138 -63 711 415 
Q 284 894 284 1681 
L 284 1722 
z
M 866 1653 
Q 866 1091 1127 750 
Q 1388 409 1825 409 
Q 2266 409 2525 754 
Q 2784 1100 2784 1722 
Q 2784 2278 2520 2623 
Q 2256 2969 1819 2969 
Q 1391 2969 1128 2628 
Q 866 2288 866 1653 
z
" transform="scale(0.015625)"/>
        <path id="Roboto-Regular-6e" d="M 984 3381 
L 1003 2956 
Q 1391 3444 2016 3444 
Q 3088 3444 3097 2234 
L 3097 0 
L 2519 0 
L 2519 2238 
Q 2516 2603 2352 2778 
Q 2188 2953 1841 2953 
Q 1559 2953 1346 2803 
Q 1134 2653 1016 2409 
L 1016 0 
L 438 0 
L 438 3381 
L 984 3381 
z
" transform="scale(0.015625)"/>
        <path id="Roboto-Regular-6b" d="M 1381 1566 
L 1019 1188 
L 1019 0 
L 441 0 
L 441 4800 
L 1019 4800 
L 1019 1897 
L 1328 2269 
L 2381 3381 
L 3084 3381 
L 1769 1969 
L 3238 0 
L 2559 0 
L 1381 1566 
z
" transform="scale(0.015625)"/>
       </defs>
       <use xlink:href="#Roboto-Regular-74"/>
       <use xlink:href="#Roboto-Regular-6f" transform="translate(32.666016 0)"/>
       <use xlink:href="#Roboto-Regular-20" transform="translate(89.697266 0)"/>
       <use xlink:href="#Roboto-Regular-74" transform="translate(114.453125 0)"/>
       <use xlink:href="#Roboto-Regular-61" transform="translate(147.119141 0)"/>
       <use xlink:href="#Roboto-Regular-6e" transform="translate(201.513672 0)"/>
       <use xlink:href="#Roboto-Regular-6b" transform="translate(256.689453 0)"/>
      </g>
     </g>
    </g>
    <g id="xtick_2">
     <g id="line2d_2"/>
     <g id="text_2">
      <!-- Electricity input -->
      <g transform="translate(85.423191 91.372932) scale(0.065 -0.065)">
       <defs>
        <path id="Roboto-Regular-45" d="M 3100 2103 
L 1128 2103 
L 1128 491 
L 3419 491 
L 3419 0 
L 528 0 
L 528 4550 
L 3388 4550 
L 3388 4056 
L 1128 4056 
L 1128 2594 
L 3100 2594 
L 3100 2103 
z
" transform="scale(0.015625)"/>
        <path id="Roboto-Regular-63" d="M 1794 409 
Q 2103 409 2334 596 
Q 2566 784 2591 1066 
L 3138 1066 
Q 3122 775 2937 512 
Q 2753 250 2445 93 
Q 2138 -63 1794 -63 
Q 1103 -63 695 398 
Q 288 859 288 1659 
L 288 1756 
Q 288 2250 469 2634 
Q 650 3019 989 3231 
Q 1328 3444 1791 3444 
Q 2359 3444 2736 3103 
Q 3113 2763 3138 2219 
L 2591 2219 
Q 2566 2547 2342 2758 
Q 2119 2969 1791 2969 
Q 1350 2969 1108 2651 
Q 866 2334 866 1734 
L 866 1625 
Q 866 1041 1106 725 
Q 1347 409 1794 409 
z
" transform="scale(0.015625)"/>
        <path id="Roboto-Regular-69" d="M 1066 0 
L 488 0 
L 488 3381 
L 1066 3381 
L 1066 0 
z
M 441 4278 
Q 441 4419 527 4516 
Q 613 4613 781 4613 
Q 950 4613 1037 4516 
Q 1125 4419 1125 4278 
Q 1125 4138 1037 4044 
Q 950 3950 781 3950 
Q 613 3950 527 4044 
Q 441 4138 441 4278 
z
" transform="scale(0.015625)"/>
       </defs>
       <use xlink:href="#Roboto-Regular-45"/>
       <use xlink:href="#Roboto-Regular-6c" transform="translate(56.835938 0)"/>
       <use xlink:href="#Roboto-Regular-65" transform="translate(81.103516 0)"/>
       <use xlink:href="#Roboto-Regular-63" transform="translate(134.082031 0)"/>
       <use xlink:href="#Roboto-Regular-74" transform="translate(186.425781 0)"/>
       <use xlink:href="#Roboto-Regular-72" transform="translate(219.091797 0)"/>
       <use xlink:href="#Roboto-Regular-69" transform="translate(252.929688 0)"/>
       <use xlink:href="#Roboto-Regular-63" transform="translate(277.197266 0)"/>
       <use xlink:href="#Roboto-Regular-69" transform="translate(329.541016 0)"/>
       <use xlink:href="#Roboto-Regular-74" transform="translate(353.808594 0)"/>
       <use xlink:href="#Roboto-Regular-79" transform="translate(386.474609 0)"/>
       <use xlink:href="#Roboto-Regular-20" transform="translate(433.789062 0)"/>
       <use xlink:href="#Roboto-Regular-69" transform="translate(458.544922 0)"/>
       <use xlink:href="#Roboto-Regular-6e" transform="translate(482.8125 0)"/>
       <use xlink:href="#Roboto-Regular-70" transform="translate(537.988281 0)"/>
       <use xlink:href="#Roboto-Regular-75" transform="translate(594.091797 0)"/>
       <use xlink:href="#Roboto-Regular-74" transform="translate(649.21875 0)"/>
      </g>
      <!-- to heater -->
      <g transform="translate(94.701941 98.610275) scale(0.065 -0.065)">
       <defs>
        <path id="Roboto-Regular-68" d="M 1016 2972 
Q 1400 3444 2016 3444 
Q 3088 3444 3097 2234 
L 3097 0 
L 2519 0 
L 2519 2238 
Q 2516 2603 2352 2778 
Q 2188 2953 1841 2953 
Q 1559 2953 1346 2803 
Q 1134 2653 1016 2409 
L 1016 0 
L 438 0 
L 438 4800 
L 1016 4800 
L 1016 2972 
z
" transform="scale(0.015625)"/>
       </defs>
       <use xlink:href="#Roboto-Regular-74"/>
       <use xlink:href="#Roboto-Regular-6f" transform="translate(32.666016 0)"/>
       <use xlink:href="#Roboto-Regular-20" transform="translate(89.697266 0)"/>
       <use xlink:href="#Roboto-Regular-68" transform="translate(114.453125 0)"/>
       <use xlink:href="#Roboto-Regular-65" transform="translate(169.53125 0)"/>
       <use xlink:href="#Roboto-Regular-61" transform="translate(222.509766 0)"/>
       <use xlink:href="#Roboto-Regular-74" transform="translate(276.904297 0)"/>
       <use xlink:href="#Roboto-Regular-65" transform="translate(309.570312 0)"/>
       <use xlink:href="#Roboto-Regular-72" transform="translate(362.548828 0)"/>
      </g>
     </g>
    </g>
    <g id="xtick_3">
     <g id="line2d_3"/>
    </g>
    <g id="xtick_4">
     <g id="line2d_4"/>
     <g id="text_3">
      <!-- Heat loss -->
      <g transform="translate(198.982614 91.372932) scale(0.065 -0.065)">
       <defs>
        <path id="Roboto-Regular-48" d="M 4025 0 
L 3422 0 
L 3422 2103 
L 1128 2103 
L 1128 0 
L 528 0 
L 528 4550 
L 1128 4550 
L 1128 2594 
L 3422 2594 
L 3422 4550 
L 4025 4550 
L 4025 0 
z
" transform="scale(0.015625)"/>
        <path id="Roboto-Regular-73" d="M 2406 897 
Q 2406 1131 2229 1261 
Q 2053 1391 1614 1484 
Q 1175 1578 917 1709 
Q 659 1841 536 2022 
Q 413 2203 413 2453 
Q 413 2869 764 3156 
Q 1116 3444 1663 3444 
Q 2238 3444 2595 3147 
Q 2953 2850 2953 2388 
L 2372 2388 
Q 2372 2625 2170 2797 
Q 1969 2969 1663 2969 
Q 1347 2969 1169 2831 
Q 991 2694 991 2472 
Q 991 2263 1156 2156 
Q 1322 2050 1755 1953 
Q 2188 1856 2456 1722 
Q 2725 1588 2854 1398 
Q 2984 1209 2984 938 
Q 2984 484 2621 210 
Q 2259 -63 1681 -63 
Q 1275 -63 962 81 
Q 650 225 473 483 
Q 297 741 297 1041 
L 875 1041 
Q 891 750 1108 579 
Q 1325 409 1681 409 
Q 2009 409 2207 542 
Q 2406 675 2406 897 
z
" transform="scale(0.015625)"/>
       </defs>
       <use xlink:href="#Roboto-Regular-48"/>
       <use xlink:href="#Roboto-Regular-65" transform="translate(71.289062 0)"/>
       <use xlink:href="#Roboto-Regular-61" transform="translate(124.267578 0)"/>
       <use xlink:href="#Roboto-Regular-74" transform="translate(178.662109 0)"/>
       <use xlink:href="#Roboto-Regular-20" transform="translate(211.328125 0)"/>
       <use xlink:href="#Roboto-Regular-6c" transform="translate(236.083984 0)"/>
       <use xlink:href="#Roboto-Regular-6f" transform="translate(260.351562 0)"/>
       <use xlink:href="#Roboto-Regular-73" transform="translate(317.382812 0)"/>
       <use xlink:href="#Roboto-Regular-73" transform="translate(368.945312 0)"/>
      </g>
      <!-- from tank -->
      <g transform="translate(198.644919 98.543244) scale(0.065 -0.065)">
       <defs>
        <path id="Roboto-Regular-66" d="M 722 0 
L 722 2934 
L 188 2934 
L 188 3381 
L 722 3381 
L 722 3728 
Q 722 4272 1012 4569 
Q 1303 4866 1834 4866 
Q 2034 4866 2231 4813 
L 2200 4344 
Q 2053 4372 1888 4372 
Q 1606 4372 1453 4208 
Q 1300 4044 1300 3738 
L 1300 3381 
L 2022 3381 
L 2022 2934 
L 1300 2934 
L 1300 0 
L 722 0 
z
" transform="scale(0.015625)"/>
        <path id="Roboto-Regular-6d" d="M 981 3381 
L 997 3006 
Q 1369 3444 2000 3444 
Q 2709 3444 2966 2900 
Q 3134 3144 3404 3294 
Q 3675 3444 4044 3444 
Q 5156 3444 5175 2266 
L 5175 0 
L 4597 0 
L 4597 2231 
Q 4597 2594 4431 2773 
Q 4266 2953 3875 2953 
Q 3553 2953 3340 2761 
Q 3128 2569 3094 2244 
L 3094 0 
L 2513 0 
L 2513 2216 
Q 2513 2953 1791 2953 
Q 1222 2953 1013 2469 
L 1013 0 
L 434 0 
L 434 3381 
L 981 3381 
z
" transform="scale(0.015625)"/>
       </defs>
       <use xlink:href="#Roboto-Regular-66"/>
       <use xlink:href="#Roboto-Regular-72" transform="translate(34.716797 0)"/>
       <use xlink:href="#Roboto-Regular-6f" transform="translate(68.554688 0)"/>
       <use xlink:href="#Roboto-Regular-6d" transform="translate(125.585938 0)"/>
       <use xlink:href="#Roboto-Regular-20" transform="translate(213.232422 0)"/>
       <use xlink:href="#Roboto-Regular-74" transform="translate(237.988281 0)"/>
       <use xlink:href="#Roboto-Regular-61" transform="translate(270.654297 0)"/>
       <use xlink:href="#Roboto-Regular-6e" transform="translate(325.048828 0)"/>
       <use xlink:href="#Roboto-Regular-6b" transform="translate(380.224609 0)"/>
      </g>
     </g>
    </g>
    <g id="xtick_5">
     <g id="line2d_5"/>
     <g id="text_4">
      <!-- Supply water -->
      <g transform="translate(246.590471 91.372932) scale(0.065 -0.065)">
       <use xlink:href="#Roboto-Regular-53"/>
       <use xlink:href="#Roboto-Regular-75" transform="translate(59.326172 0)"/>
       <use xlink:href="#Roboto-Regular-70" transform="translate(114.453125 0)"/>
       <use xlink:href="#Roboto-Regular-70" transform="translate(170.556641 0)"/>
       <use xlink:href="#Roboto-Regular-6c" transform="translate(226.660156 0)"/>
       <use xlink:href="#Roboto-Regular-79" transform="translate(250.927734 0)"/>
       <use xlink:href="#Roboto-Regular-20" transform="translate(298.242188 0)"/>
       <use xlink:href="#Roboto-Regular-77" transform="translate(322.998047 0)"/>
       <use xlink:href="#Roboto-Regular-61" transform="translate(398.144531 0)"/>
       <use xlink:href="#Roboto-Regular-74" transform="translate(452.539062 0)"/>
       <use xlink:href="#Roboto-Regular-65" transform="translate(485.205078 0)"/>
       <use xlink:href="#Roboto-Regular-72" transform="translate(538.183594 0)"/>
      </g>
      <!-- to mixing valve -->
      <g transform="translate(243.577619 98.610275) scale(0.065 -0.065)">
       <defs>
        <path id="Roboto-Regular-78" d="M 1572 2147 
L 2322 3381 
L 2997 3381 
L 1891 1709 
L 3031 0 
L 2363 0 
L 1581 1266 
L 800 0 
L 128 0 
L 1269 1709 
L 163 3381 
L 831 3381 
L 1572 2147 
z
" transform="scale(0.015625)"/>
        <path id="Roboto-Regular-67" d="M 300 1719 
Q 300 2509 665 2976 
Q 1031 3444 1634 3444 
Q 2253 3444 2600 3006 
L 2628 3381 
L 3156 3381 
L 3156 81 
Q 3156 -575 2767 -953 
Q 2378 -1331 1722 -1331 
Q 1356 -1331 1006 -1175 
Q 656 -1019 472 -747 
L 772 -400 
Q 1144 -859 1681 -859 
Q 2103 -859 2339 -621 
Q 2575 -384 2575 47 
L 2575 338 
Q 2228 -63 1628 -63 
Q 1034 -63 667 415 
Q 300 894 300 1719 
z
M 881 1653 
Q 881 1081 1115 754 
Q 1350 428 1772 428 
Q 2319 428 2575 925 
L 2575 2469 
Q 2309 2953 1778 2953 
Q 1356 2953 1118 2625 
Q 881 2297 881 1653 
z
" transform="scale(0.015625)"/>
        <path id="Roboto-Regular-76" d="M 1553 784 
L 2391 3381 
L 2981 3381 
L 1769 0 
L 1328 0 
L 103 3381 
L 694 3381 
L 1553 784 
z
" transform="scale(0.015625)"/>
       </defs>
       <use xlink:href="#Roboto-Regular-74"/>
       <use xlink:href="#Roboto-Regular-6f" transform="translate(32.666016 0)"/>
       <use xlink:href="#Roboto-Regular-20" transform="translate(89.697266 0)"/>
       <use xlink:href="#Roboto-Regular-6d" transform="translate(114.453125 0)"/>
       <use xlink:href="#Roboto-Regular-69" transform="translate(202.099609 0)"/>
       <use xlink:href="#Roboto-Regular-78" transform="translate(226.367188 0)"/>
       <use xlink:href="#Roboto-Regular-69" transform="translate(275.927734 0)"/>
       <use xlink:href="#Roboto-Regular-6e" transform="translate(300.195312 0)"/>
       <use xlink:href="#Roboto-Regular-67" transform="translate(355.371094 0)"/>
       <use xlink:href="#Roboto-Regular-20" transform="translate(411.474609 0)"/>
       <use xlink:href="#Roboto-Regular-76" transform="translate(436.230469 0)"/>
       <use xlink:href="#Roboto-Regular-61" transform="translate(484.667969 0)"/>
       <use xlink:href="#Roboto-Regular-6c" transform="translate(539.0625 0)"/>
       <use xlink:href="#Roboto-Regular-76" transform="translate(563.330078 0)"/>
       <use xlink:href="#Roboto-Regular-65" transform="translate(611.767578 0)"/>
      </g>
     </g>
    </g>
    <g id="xtick_6">
     <g id="line2d_6"/>
    </g>
    <g id="xtick_7">
     <g id="line2d_7"/>
     <g id="text_5">
      <!-- Served -->
      <g transform="translate(360.366731 91.372932) scale(0.065 -0.065)">
       <defs>
        <path id="Roboto-Regular-64" d="M 297 1719 
Q 297 2497 665 2970 
Q 1034 3444 1631 3444 
Q 2225 3444 2572 3038 
L 2572 4800 
L 3150 4800 
L 3150 0 
L 2619 0 
L 2591 363 
Q 2244 -63 1625 -63 
Q 1038 -63 667 418 
Q 297 900 297 1675 
L 297 1719 
z
M 875 1653 
Q 875 1078 1112 753 
Q 1350 428 1769 428 
Q 2319 428 2572 922 
L 2572 2475 
Q 2313 2953 1775 2953 
Q 1350 2953 1112 2625 
Q 875 2297 875 1653 
z
" transform="scale(0.015625)"/>
       </defs>
       <use xlink:href="#Roboto-Regular-53"/>
       <use xlink:href="#Roboto-Regular-65" transform="translate(59.326172 0)"/>
       <use xlink:href="#Roboto-Regular-72" transform="translate(112.304688 0)"/>
       <use xlink:href="#Roboto-Regular-76" transform="translate(146.142578 0)"/>
       <use xlink:href="#Roboto-Regular-65" transform="translate(194.580078 0)"/>
       <use xlink:href="#Roboto-Regular-64" transform="translate(247.558594 0)"/>
      </g>
      <!-- hot water -->
      <g transform="translate(356.642434 98.543244) scale(0.065 -0.065)">
       <use xlink:href="#Roboto-Regular-68"/>
       <use xlink:href="#Roboto-Regular-6f" transform="translate(55.078125 0)"/>
       <use xlink:href="#Roboto-Regular-74" transform="translate(112.109375 0)"/>
       <use xlink:href="#Roboto-Regular-20" transform="translate(144.775391 0)"/>
       <use xlink:href="#Roboto-Regular-77" transform="translate(169.53125 0)"/>
       <use xlink:href="#Roboto-Regular-61" transform="translate(244.677734 0)"/>
       <use xlink:href="#Roboto-Regular-74" transform="translate(299.072266 0)"/>
       <use xlink:href="#Roboto-Regular-65" transform="translate(331.738281 0)"/>
       <use xlink:href="#Roboto-Regular-72" transform="translate(384.716797 0)"/>
      </g>
     </g>
    </g>
   </g>
   <g id="matplotlib.axis_2">
    <g id="ytick_1">
     <g id="line2d_8">
      <defs>
       <path id="ma1b0c8ef31" d="M 0 0 
L -2 0 
" style="stroke: #000000; stroke-width: 0.3"/>
      </defs>
      <g>
       <use xlink:href="#ma1b0c8ef31" x="32.989541" y="84.497932" style="stroke: #000000; stroke-width: 0.3"/>
      </g>
     </g>
     <g id="text_6">
      <!-- 0 -->
      <g transform="translate(26.387119 86.935432) scale(0.065 -0.065)">
       <defs>
        <path id="Roboto-Light-30" d="M 3172 1897 
Q 3172 934 2819 435 
Q 2466 -63 1778 -63 
Q 1103 -63 743 426 
Q 384 916 375 1850 
L 375 2666 
Q 375 3625 731 4119 
Q 1088 4613 1772 4613 
Q 2447 4613 2803 4136 
Q 3159 3659 3172 2731 
L 3172 1897 
z
M 2797 2713 
Q 2797 3494 2542 3894 
Q 2288 4294 1772 4294 
Q 1266 4294 1009 3903 
Q 753 3513 747 2750 
L 747 1856 
Q 747 1078 1011 665 
Q 1275 253 1778 253 
Q 2278 253 2536 656 
Q 2794 1059 2797 1838 
L 2797 2713 
z
" transform="scale(0.015625)"/>
       </defs>
       <use xlink:href="#Roboto-Light-30"/>
      </g>
     </g>
    </g>
    <g id="ytick_2">
     <g id="line2d_9">
      <g>
       <use xlink:href="#ma1b0c8ef31" x="32.989541" y="65.346558" style="stroke: #000000; stroke-width: 0.3"/>
      </g>
     </g>
     <g id="text_7">
      <!-- 900 -->
      <g transform="translate(19.182276 67.784058) scale(0.065 -0.065)">
       <defs>
        <path id="Roboto-Light-39" d="M 2763 2106 
Q 2563 1813 2266 1652 
Q 1969 1491 1622 1491 
Q 1234 1491 937 1691 
Q 641 1891 478 2244 
Q 316 2597 316 3016 
Q 316 3466 489 3834 
Q 663 4203 973 4408 
Q 1284 4613 1691 4613 
Q 2375 4613 2756 4133 
Q 3138 3653 3138 2772 
L 3138 2434 
Q 3138 1203 2613 584 
Q 2088 -34 1009 -34 
L 941 -34 
L 944 291 
L 1075 291 
Q 1891 303 2316 753 
Q 2741 1203 2763 2106 
z
M 1669 1813 
Q 2044 1813 2342 2036 
Q 2641 2259 2766 2616 
L 2766 2831 
Q 2766 3525 2477 3908 
Q 2188 4291 1697 4291 
Q 1253 4291 968 3933 
Q 684 3575 684 3031 
Q 684 2509 957 2161 
Q 1231 1813 1669 1813 
z
" transform="scale(0.015625)"/>
       </defs>
       <use xlink:href="#Roboto-Light-39"/>
       <use xlink:href="#Roboto-Light-30" transform="translate(55.419922 0)"/>
       <use xlink:href="#Roboto-Light-30" transform="translate(110.839844 0)"/>
      </g>
     </g>
    </g>
    <g id="ytick_3">
     <g id="line2d_10">
      <g>
       <use xlink:href="#ma1b0c8ef31" x="32.989541" y="46.195184" style="stroke: #000000; stroke-width: 0.3"/>
      </g>
     </g>
     <g id="text_8">
      <!-- 1800 -->
      <g transform="translate(15.579854 48.632684) scale(0.065 -0.065)">
       <defs>
        <path id="Roboto-Light-31" d="M 2169 0 
L 1794 0 
L 1794 4100 
L 556 3641 
L 556 3991 
L 2106 4566 
L 2169 4566 
L 2169 0 
z
" transform="scale(0.015625)"/>
        <path id="Roboto-Light-38" d="M 3109 3378 
Q 3109 3025 2903 2745 
Q 2697 2466 2359 2334 
Q 2753 2200 2990 1900 
Q 3228 1600 3228 1206 
Q 3228 622 2831 279 
Q 2434 -63 1781 -63 
Q 1122 -63 726 278 
Q 331 619 331 1206 
Q 331 1594 559 1897 
Q 788 2200 1184 2334 
Q 847 2466 647 2745 
Q 447 3025 447 3378 
Q 447 3944 811 4278 
Q 1175 4613 1775 4613 
Q 2375 4613 2742 4275 
Q 3109 3938 3109 3378 
z
M 2853 1203 
Q 2853 1628 2550 1901 
Q 2247 2175 1775 2175 
Q 1303 2175 1003 1906 
Q 703 1638 703 1203 
Q 703 769 993 511 
Q 1284 253 1781 253 
Q 2266 253 2559 509 
Q 2853 766 2853 1203 
z
M 2734 3381 
Q 2734 3772 2464 4033 
Q 2194 4294 1775 4294 
Q 1350 4294 1086 4042 
Q 822 3791 822 3381 
Q 822 2981 1086 2737 
Q 1350 2494 1778 2494 
Q 2200 2494 2467 2739 
Q 2734 2984 2734 3381 
z
" transform="scale(0.015625)"/>
       </defs>
       <use xlink:href="#Roboto-Light-31"/>
       <use xlink:href="#Roboto-Light-38" transform="translate(55.419922 0)"/>
       <use xlink:href="#Roboto-Light-30" transform="translate(110.839844 0)"/>
       <use xlink:href="#Roboto-Light-30" transform="translate(166.259766 0)"/>
      </g>
     </g>
    </g>
    <g id="ytick_4">
     <g id="line2d_11">
      <g>
       <use xlink:href="#ma1b0c8ef31" x="32.989541" y="27.04381" style="stroke: #000000; stroke-width: 0.3"/>
      </g>
     </g>
     <g id="text_9">
      <!-- 2700 -->
      <g transform="translate(15.579854 29.48131) scale(0.065 -0.065)">
       <defs>
        <path id="Roboto-Light-32" d="M 3278 0 
L 428 0 
L 428 288 
L 1988 2056 
Q 2375 2503 2525 2793 
Q 2675 3084 2675 3359 
Q 2675 3791 2422 4042 
Q 2169 4294 1725 4294 
Q 1266 4294 983 4000 
Q 700 3706 700 3238 
L 328 3238 
Q 328 3622 501 3937 
Q 675 4253 995 4433 
Q 1316 4613 1725 4613 
Q 2350 4613 2701 4284 
Q 3053 3956 3053 3391 
Q 3053 3072 2854 2694 
Q 2656 2316 2156 1750 
L 888 316 
L 3278 316 
L 3278 0 
z
" transform="scale(0.015625)"/>
        <path id="Roboto-Light-37" d="M 3231 4334 
L 1288 0 
L 897 0 
L 2828 4231 
L 241 4231 
L 241 4550 
L 3231 4550 
L 3231 4334 
z
" transform="scale(0.015625)"/>
       </defs>
       <use xlink:href="#Roboto-Light-32"/>
       <use xlink:href="#Roboto-Light-37" transform="translate(55.419922 0)"/>
       <use xlink:href="#Roboto-Light-30" transform="translate(110.839844 0)"/>
       <use xlink:href="#Roboto-Light-30" transform="translate(166.259766 0)"/>
      </g>
     </g>
    </g>
    <g id="ytick_5">
     <g id="line2d_12">
      <g>
       <use xlink:href="#ma1b0c8ef31" x="32.989541" y="7.892436" style="stroke: #000000; stroke-width: 0.3"/>
      </g>
     </g>
     <g id="text_10">
      <!-- 3600 -->
      <g transform="translate(15.579854 10.329936) scale(0.065 -0.065)">
       <defs>
        <path id="Roboto-Light-33" d="M 1259 2478 
L 1647 2478 
Q 1969 2478 2209 2592 
Q 2450 2706 2576 2904 
Q 2703 3103 2703 3363 
Q 2703 3800 2456 4047 
Q 2209 4294 1747 4294 
Q 1309 4294 1029 4036 
Q 750 3778 750 3356 
L 375 3356 
Q 375 3709 553 4001 
Q 731 4294 1047 4453 
Q 1363 4613 1747 4613 
Q 2366 4613 2722 4275 
Q 3078 3938 3078 3350 
Q 3078 3022 2870 2745 
Q 2663 2469 2300 2331 
Q 2725 2213 2944 1923 
Q 3163 1634 3163 1234 
Q 3163 650 2781 293 
Q 2400 -63 1763 -63 
Q 1356 -63 1017 100 
Q 678 263 492 555 
Q 306 847 306 1234 
L 681 1234 
Q 681 800 984 526 
Q 1288 253 1763 253 
Q 2247 253 2517 501 
Q 2788 750 2788 1222 
Q 2788 1678 2495 1918 
Q 2203 2159 1634 2159 
L 1259 2159 
L 1259 2478 
z
" transform="scale(0.015625)"/>
        <path id="Roboto-Light-36" d="M 2634 4584 
L 2634 4256 
L 2591 4256 
Q 1775 4256 1306 3776 
Q 838 3297 788 2444 
Q 975 2703 1265 2845 
Q 1556 2988 1916 2988 
Q 2516 2988 2870 2573 
Q 3225 2159 3225 1491 
Q 3225 1047 3059 690 
Q 2894 334 2584 135 
Q 2275 -63 1878 -63 
Q 1225 -63 815 410 
Q 406 884 406 1634 
L 406 2009 
Q 406 3231 962 3901 
Q 1519 4572 2541 4584 
L 2634 4584 
z
M 1856 2666 
Q 1500 2666 1192 2455 
Q 884 2244 781 1919 
L 781 1600 
Q 781 1006 1086 631 
Q 1391 256 1878 256 
Q 2316 256 2586 603 
Q 2856 950 2856 1478 
Q 2856 2016 2586 2341 
Q 2316 2666 1856 2666 
z
" transform="scale(0.015625)"/>
       </defs>
       <use xlink:href="#Roboto-Light-33"/>
       <use xlink:href="#Roboto-Light-36" transform="translate(55.419922 0)"/>
       <use xlink:href="#Roboto-Light-30" transform="translate(110.839844 0)"/>
       <use xlink:href="#Roboto-Light-30" transform="translate(166.259766 0)"/>
      </g>
     </g>
    </g>
    <g id="text_11">
     <!-- Energy [W] -->
     <g style="fill: #292524" transform="translate(8.032982 63.773895) rotate(-90) scale(0.075 -0.075)">
      <defs>
       <path id="Roboto-Regular-5b" d="M 1634 4725 
L 1038 4725 
L 1038 -500 
L 1634 -500 
L 1634 -975 
L 456 -975 
L 456 5200 
L 1634 5200 
L 1634 4725 
z
" transform="scale(0.015625)"/>
       <path id="Roboto-Regular-57" d="M 1509 1434 
L 1597 834 
L 1725 1375 
L 2625 4550 
L 3131 4550 
L 4009 1375 
L 4134 825 
L 4231 1438 
L 4938 4550 
L 5541 4550 
L 4438 0 
L 3891 0 
L 2953 3316 
L 2881 3663 
L 2809 3316 
L 1838 0 
L 1291 0 
L 191 4550 
L 791 4550 
L 1509 1434 
z
" transform="scale(0.015625)"/>
       <path id="Roboto-Regular-5d" d="M 28 5200 
L 1209 5200 
L 1209 -975 
L 28 -975 
L 28 -500 
L 631 -500 
L 631 4725 
L 28 4725 
L 28 5200 
z
" transform="scale(0.015625)"/>
      </defs>
      <use xlink:href="#Roboto-Regular-45"/>
      <use xlink:href="#Roboto-Regular-6e" transform="translate(56.835938 0)"/>
      <use xlink:href="#Roboto-Regular-65" transform="translate(112.011719 0)"/>
      <use xlink:href="#Roboto-Regular-72" transform="translate(164.990234 0)"/>
      <use xlink:href="#Roboto-Regular-67" transform="translate(198.828125 0)"/>
      <use xlink:href="#Roboto-Regular-79" transform="translate(254.931641 0)"/>
      <use xlink:href="#Roboto-Regular-20" transform="translate(302.246094 0)"/>
      <use xlink:href="#Roboto-Regular-5b" transform="translate(327.001953 0)"/>
      <use xlink:href="#Roboto-Regular-57" transform="translate(353.515625 0)"/>
      <use xlink:href="#Roboto-Regular-5d" transform="translate(442.236328 0)"/>
     </g>
    </g>
   </g>
   <g id="text_12">
    <!-- 543 -->
    <g transform="translate(50.480725 70.684881) scale(0.055 -0.055)">
     <defs>
      <path id="Roboto-Light-35" d="M 681 2331 
L 903 4550 
L 3178 4550 
L 3178 4203 
L 1225 4203 
L 1066 2666 
Q 1431 2916 1922 2916 
Q 2538 2916 2903 2516 
Q 3269 2116 3269 1450 
Q 3269 731 2912 334 
Q 2556 -63 1909 -63 
Q 1316 -63 947 268 
Q 578 600 525 1197 
L 884 1197 
Q 938 731 1200 492 
Q 1463 253 1909 253 
Q 2397 253 2645 562 
Q 2894 872 2894 1444 
Q 2894 1944 2616 2259 
Q 2338 2575 1856 2575 
Q 1591 2575 1394 2508 
Q 1197 2441 978 2247 
L 681 2331 
z
" transform="scale(0.015625)"/>
      <path id="Roboto-Light-34" d="M 2725 1466 
L 3434 1466 
L 3434 1150 
L 2725 1150 
L 2725 0 
L 2350 0 
L 2350 1150 
L 209 1150 
L 209 1363 
L 2316 4550 
L 2725 4550 
L 2725 1466 
z
M 669 1466 
L 2350 1466 
L 2350 4066 
L 2184 3778 
L 669 1466 
z
" transform="scale(0.015625)"/>
     </defs>
     <use xlink:href="#Roboto-Light-35"/>
     <use xlink:href="#Roboto-Light-34" transform="translate(55.419922 0)"/>
     <use xlink:href="#Roboto-Light-33" transform="translate(110.839844 0)"/>
    </g>
   </g>
   <g id="text_13">
    <!-- 2763 -->
    <g transform="translate(101.488737 11.895992) scale(0.055 -0.055)">
     <use xlink:href="#Roboto-Light-32"/>
     <use xlink:href="#Roboto-Light-37" transform="translate(55.419922 0)"/>
     <use xlink:href="#Roboto-Light-36" transform="translate(110.839844 0)"/>
     <use xlink:href="#Roboto-Light-33" transform="translate(166.259766 0)"/>
    </g>
   </g>
   <g id="text_14">
    <!-- -50 -->
    <g transform="translate(208.814411 11.895992) scale(0.055 -0.055)">
     <defs>
      <path id="Roboto-Light-2d" d="M 1650 1850 
L 153 1850 
L 153 2166 
L 1650 2166 
L 1650 1850 
z
" transform="scale(0.015625)"/>
     </defs>
     <use xlink:href="#Roboto-Light-2d"/>
     <use xlink:href="#Roboto-Light-35" transform="translate(28.613281 0)"/>
     <use xlink:href="#Roboto-Light-30" transform="translate(84.033203 0)"/>
    </g>
   </g>
   <g id="text_15">
    <!-- 233 -->
    <g transform="translate(260.609182 8.002355) scale(0.055 -0.055)">
     <use xlink:href="#Roboto-Light-32"/>
     <use xlink:href="#Roboto-Light-33" transform="translate(55.419922 0)"/>
     <use xlink:href="#Roboto-Light-33" transform="translate(110.839844 0)"/>
    </g>
   </g>
   <g id="text_16">
    <!-- 3488 -->
    <g transform="translate(364.149309 8.002355) scale(0.055 -0.055)">
     <use xlink:href="#Roboto-Light-33"/>
     <use xlink:href="#Roboto-Light-34" transform="translate(55.419922 0)"/>
     <use xlink:href="#Roboto-Light-38" transform="translate(110.839844 0)"/>
     <use xlink:href="#Roboto-Light-38" transform="translate(166.259766 0)"/>
    </g>
   </g>
  </g>
  <g id="axes_2">
   <g id="patch_12">
    <path d="M 32.989541 207.066725 
L 392.309203 207.066725 
L 392.309203 130.461229 
L 32.989541 130.461229 
z
" style="fill: #ffffff"/>
   </g>
   <g id="LineCollection_7">
    <path d="M 55.053029 206.860383 
L 107.585144 206.860383 
" clip-path="url(#p5d3925f758)" style="fill: none; stroke-dasharray: 0.25,0.3125; stroke-dashoffset: 0; stroke: #78716c; stroke-width: 0.25"/>
   </g>
   <g id="LineCollection_8">
    <path d="M 107.585144 148.071495 
L 160.117258 148.071495 
" clip-path="url(#p5d3925f758)" style="fill: none; stroke-dasharray: 0.25,0.3125; stroke-dashoffset: 0; stroke: #78716c; stroke-width: 0.25"/>
   </g>
   <g id="LineCollection_9">
    <path d="M 160.117258 200.22563 
L 212.649372 200.22563 
" clip-path="url(#p5d3925f758)" style="fill: none; stroke-dasharray: 0.25,0.3125; stroke-dashoffset: 0; stroke: #78716c; stroke-width: 0.25"/>
   </g>
   <g id="LineCollection_10">
    <path d="M 212.649372 200.415632 
L 265.181486 200.415632 
" clip-path="url(#p5d3925f758)" style="fill: none; stroke-dasharray: 0.25,0.3125; stroke-dashoffset: 0; stroke: #78716c; stroke-width: 0.25"/>
   </g>
   <g id="LineCollection_11">
    <path d="M 265.181486 200.327199 
L 317.713601 200.327199 
" clip-path="url(#p5d3925f758)" style="fill: none; stroke-dasharray: 0.25,0.3125; stroke-dashoffset: 0; stroke: #78716c; stroke-width: 0.25"/>
   </g>
   <g id="LineCollection_12">
    <path d="M 317.713601 201.550477 
L 370.245715 201.550477 
" clip-path="url(#p5d3925f758)" style="fill: none; stroke-dasharray: 0.25,0.3125; stroke-dashoffset: 0; stroke: #78716c; stroke-width: 0.25"/>
   </g>
   <g id="patch_13">
    <path d="M 45.859909 207.066725 
L 64.246149 207.066725 
L 64.246149 206.860383 
L 45.859909 206.860383 
z
" clip-path="url(#p5d3925f758)" style="fill: #a855f7; stroke: #6b21a8; stroke-width: 0.5; stroke-linejoin: miter"/>
   </g>
   <g id="patch_14">
    <path d="M 98.392024 206.860383 
L 116.778264 206.860383 
L 116.778264 148.071495 
L 98.392024 148.071495 
z
" clip-path="url(#p5d3925f758)" style="fill: #a855f7; stroke: #6b21a8; stroke-width: 0.5; stroke-linejoin: miter"/>
   </g>
   <g id="patch_15">
    <path d="M 150.924138 148.071495 
L 169.310378 148.071495 
L 169.310378 200.22563 
L 150.924138 200.22563 
z
" clip-path="url(#p5d3925f758)" style="fill: #f3e8ff; stroke: #a855f7; stroke-width: 0.5; stroke-linejoin: miter"/>
   </g>
   <g id="patch_16">
    <path d="M 203.456252 200.22563 
L 221.842492 200.22563 
L 221.842492 200.415632 
L 203.456252 200.415632 
z
" clip-path="url(#p5d3925f758)" style="fill: #f3e8ff; stroke: #a855f7; stroke-width: 0.5; stroke-linejoin: miter"/>
   </g>
   <g id="patch_17">
    <path d="M 255.988366 200.415632 
L 274.374606 200.415632 
L 274.374606 200.327199 
L 255.988366 200.327199 
z
" clip-path="url(#p5d3925f758)" style="fill: #a855f7; stroke: #6b21a8; stroke-width: 0.5; stroke-linejoin: miter"/>
   </g>
   <g id="patch_18">
    <path d="M 308.520481 200.327199 
L 326.906721 200.327199 
L 326.906721 201.550477 
L 308.520481 201.550477 
z
" clip-path="url(#p5d3925f758)" style="fill: #f3e8ff; stroke: #a855f7; stroke-width: 0.5; stroke-linejoin: miter"/>
   </g>
   <g id="patch_19">
    <path d="M 361.052595 207.066725 
L 379.438835 207.066725 
L 379.438835 201.550477 
L 361.052595 201.550477 
z
" clip-path="url(#p5d3925f758)" style="fill: #a855f7; stroke: #6b21a8; stroke-width: 0.5; stroke-linejoin: miter"/>
   </g>
   <g id="patch_20">
    <path d="M 32.989541 207.066725 
L 32.989541 130.461229 
" style="fill: none; stroke: #000000; stroke-width: 0.3; stroke-linejoin: miter; stroke-linecap: square"/>
   </g>
   <g id="patch_21">
    <path d="M 32.989541 207.066725 
L 392.309203 207.066725 
" style="fill: none; stroke: #000000; stroke-width: 0.3; stroke-linejoin: miter; stroke-linecap: square"/>
   </g>
   <g id="matplotlib.axis_3">
    <g id="xtick_8">
     <g id="line2d_13"/>
     <g id="text_17">
      <!-- Supply water -->
      <g transform="translate(36.462014 213.941725) scale(0.065 -0.065)">
       <use xlink:href="#Roboto-Regular-53"/>
       <use xlink:href="#Roboto-Regular-75" transform="translate(59.326172 0)"/>
       <use xlink:href="#Roboto-Regular-70" transform="translate(114.453125 0)"/>
       <use xlink:href="#Roboto-Regular-70" transform="translate(170.556641 0)"/>
       <use xlink:href="#Roboto-Regular-6c" transform="translate(226.660156 0)"/>
       <use xlink:href="#Roboto-Regular-79" transform="translate(250.927734 0)"/>
       <use xlink:href="#Roboto-Regular-20" transform="translate(298.242188 0)"/>
       <use xlink:href="#Roboto-Regular-77" transform="translate(322.998047 0)"/>
       <use xlink:href="#Roboto-Regular-61" transform="translate(398.144531 0)"/>
       <use xlink:href="#Roboto-Regular-74" transform="translate(452.539062 0)"/>
       <use xlink:href="#Roboto-Regular-65" transform="translate(485.205078 0)"/>
       <use xlink:href="#Roboto-Regular-72" transform="translate(538.183594 0)"/>
      </g>
      <!-- to tank -->
      <g transform="translate(45.063342 221.179069) scale(0.065 -0.065)">
       <use xlink:href="#Roboto-Regular-74"/>
       <use xlink:href="#Roboto-Regular-6f" transform="translate(32.666016 0)"/>
       <use xlink:href="#Roboto-Regular-20" transform="translate(89.697266 0)"/>
       <use xlink:href="#Roboto-Regular-74" transform="translate(114.453125 0)"/>
       <use xlink:href="#Roboto-Regular-61" transform="translate(147.119141 0)"/>
       <use xlink:href="#Roboto-Regular-6e" transform="translate(201.513672 0)"/>
       <use xlink:href="#Roboto-Regular-6b" transform="translate(256.689453 0)"/>
      </g>
     </g>
    </g>
    <g id="xtick_9">
     <g id="line2d_14"/>
     <g id="text_18">
      <!-- Electricity input -->
      <g transform="translate(85.423191 213.941725) scale(0.065 -0.065)">
       <use xlink:href="#Roboto-Regular-45"/>
       <use xlink:href="#Roboto-Regular-6c" transform="translate(56.835938 0)"/>
       <use xlink:href="#Roboto-Regular-65" transform="translate(81.103516 0)"/>
       <use xlink:href="#Roboto-Regular-63" transform="translate(134.082031 0)"/>
       <use xlink:href="#Roboto-Regular-74" transform="translate(186.425781 0)"/>
       <use xlink:href="#Roboto-Regular-72" transform="translate(219.091797 0)"/>
       <use xlink:href="#Roboto-Regular-69" transform="translate(252.929688 0)"/>
       <use xlink:href="#Roboto-Regular-63" transform="translate(277.197266 0)"/>
       <use xlink:href="#Roboto-Regular-69" transform="translate(329.541016 0)"/>
       <use xlink:href="#Roboto-Regular-74" transform="translate(353.808594 0)"/>
       <use xlink:href="#Roboto-Regular-79" transform="translate(386.474609 0)"/>
       <use xlink:href="#Roboto-Regular-20" transform="translate(433.789062 0)"/>
       <use xlink:href="#Roboto-Regular-69" transform="translate(458.544922 0)"/>
       <use xlink:href="#Roboto-Regular-6e" transform="translate(482.8125 0)"/>
       <use xlink:href="#Roboto-Regular-70" transform="translate(537.988281 0)"/>
       <use xlink:href="#Roboto-Regular-75" transform="translate(594.091797 0)"/>
       <use xlink:href="#Roboto-Regular-74" transform="translate(649.21875 0)"/>
      </g>
      <!-- to heater -->
      <g transform="translate(94.701941 221.179069) scale(0.065 -0.065)">
       <use xlink:href="#Roboto-Regular-74"/>
       <use xlink:href="#Roboto-Regular-6f" transform="translate(32.666016 0)"/>
       <use xlink:href="#Roboto-Regular-20" transform="translate(89.697266 0)"/>
       <use xlink:href="#Roboto-Regular-68" transform="translate(114.453125 0)"/>
       <use xlink:href="#Roboto-Regular-65" transform="translate(169.53125 0)"/>
       <use xlink:href="#Roboto-Regular-61" transform="translate(222.509766 0)"/>
       <use xlink:href="#Roboto-Regular-74" transform="translate(276.904297 0)"/>
       <use xlink:href="#Roboto-Regular-65" transform="translate(309.570312 0)"/>
       <use xlink:href="#Roboto-Regular-72" transform="translate(362.548828 0)"/>
      </g>
     </g>
    </g>
    <g id="xtick_10">
     <g id="line2d_15"/>
     <g id="text_19">
      <!-- Consumption -->
      <g transform="translate(140.71882 213.941725) scale(0.065 -0.065)">
       <defs>
        <path id="Roboto-Regular-43" d="M 3875 1444 
Q 3791 722 3342 329 
Q 2894 -63 2150 -63 
Q 1344 -63 858 515 
Q 372 1094 372 2063 
L 372 2500 
Q 372 3134 598 3615 
Q 825 4097 1240 4355 
Q 1656 4613 2203 4613 
Q 2928 4613 3365 4208 
Q 3803 3803 3875 3088 
L 3272 3088 
Q 3194 3631 2933 3875 
Q 2672 4119 2203 4119 
Q 1628 4119 1301 3694 
Q 975 3269 975 2484 
L 975 2044 
Q 975 1303 1284 865 
Q 1594 428 2150 428 
Q 2650 428 2917 654 
Q 3184 881 3272 1444 
L 3875 1444 
z
" transform="scale(0.015625)"/>
       </defs>
       <use xlink:href="#Roboto-Regular-43"/>
       <use xlink:href="#Roboto-Regular-6f" transform="translate(65.087891 0)"/>
       <use xlink:href="#Roboto-Regular-6e" transform="translate(122.119141 0)"/>
       <use xlink:href="#Roboto-Regular-73" transform="translate(177.294922 0)"/>
       <use xlink:href="#Roboto-Regular-75" transform="translate(228.857422 0)"/>
       <use xlink:href="#Roboto-Regular-6d" transform="translate(283.984375 0)"/>
       <use xlink:href="#Roboto-Regular-70" transform="translate(371.630859 0)"/>
       <use xlink:href="#Roboto-Regular-74" transform="translate(427.734375 0)"/>
       <use xlink:href="#Roboto-Regular-69" transform="translate(460.400391 0)"/>
       <use xlink:href="#Roboto-Regular-6f" transform="translate(484.667969 0)"/>
       <use xlink:href="#Roboto-Regular-6e" transform="translate(541.699219 0)"/>
      </g>
      <!-- in tank -->
      <g transform="translate(150.461203 221.112038) scale(0.065 -0.065)">
       <use xlink:href="#Roboto-Regular-69"/>
       <use xlink:href="#Roboto-Regular-6e" transform="translate(24.267578 0)"/>
       <use xlink:href="#Roboto-Regular-20" transform="translate(79.443359 0)"/>
       <use xlink:href="#Roboto-Regular-74" transform="translate(104.199219 0)"/>
       <use xlink:href="#Roboto-Regular-61" transform="translate(136.865234 0)"/>
       <use xlink:href="#Roboto-Regular-6e" transform="translate(191.259766 0)"/>
       <use xlink:href="#Roboto-Regular-6b" transform="translate(246.435547 0)"/>
      </g>
     </g>
    </g>
    <g id="xtick_11">
     <g id="line2d_16"/>
     <g id="text_20">
      <!-- Heat loss -->
      <g transform="translate(198.982614 213.941725) scale(0.065 -0.065)">
       <use xlink:href="#Roboto-Regular-48"/>
       <use xlink:href="#Roboto-Regular-65" transform="translate(71.289062 0)"/>
       <use xlink:href="#Roboto-Regular-61" transform="translate(124.267578 0)"/>
       <use xlink:href="#Roboto-Regular-74" transform="translate(178.662109 0)"/>
       <use xlink:href="#Roboto-Regular-20" transform="translate(211.328125 0)"/>
       <use xlink:href="#Roboto-Regular-6c" transform="translate(236.083984 0)"/>
       <use xlink:href="#Roboto-Regular-6f" transform="translate(260.351562 0)"/>
       <use xlink:href="#Roboto-Regular-73" transform="translate(317.382812 0)"/>
       <use xlink:href="#Roboto-Regular-73" transform="translate(368.945312 0)"/>
      </g>
      <!-- from tank -->
      <g transform="translate(198.644919 221.112038) scale(0.065 -0.065)">
       <use xlink:href="#Roboto-Regular-66"/>
       <use xlink:href="#Roboto-Regular-72" transform="translate(34.716797 0)"/>
       <use xlink:href="#Roboto-Regular-6f" transform="translate(68.554688 0)"/>
       <use xlink:href="#Roboto-Regular-6d" transform="translate(125.585938 0)"/>
       <use xlink:href="#Roboto-Regular-20" transform="translate(213.232422 0)"/>
       <use xlink:href="#Roboto-Regular-74" transform="translate(237.988281 0)"/>
       <use xlink:href="#Roboto-Regular-61" transform="translate(270.654297 0)"/>
       <use xlink:href="#Roboto-Regular-6e" transform="translate(325.048828 0)"/>
       <use xlink:href="#Roboto-Regular-6b" transform="translate(380.224609 0)"/>
      </g>
     </g>
    </g>
    <g id="xtick_12">
     <g id="line2d_17"/>
     <g id="text_21">
      <!-- Supply water -->
      <g transform="translate(246.590471 213.941725) scale(0.065 -0.065)">
       <use xlink:href="#Roboto-Regular-53"/>
       <use xlink:href="#Roboto-Regular-75" transform="translate(59.326172 0)"/>
       <use xlink:href="#Roboto-Regular-70" transform="translate(114.453125 0)"/>
       <use xlink:href="#Roboto-Regular-70" transform="translate(170.556641 0)"/>
       <use xlink:href="#Roboto-Regular-6c" transform="translate(226.660156 0)"/>
       <use xlink:href="#Roboto-Regular-79" transform="translate(250.927734 0)"/>
       <use xlink:href="#Roboto-Regular-20" transform="translate(298.242188 0)"/>
       <use xlink:href="#Roboto-Regular-77" transform="translate(322.998047 0)"/>
       <use xlink:href="#Roboto-Regular-61" transform="translate(398.144531 0)"/>
       <use xlink:href="#Roboto-Regular-74" transform="translate(452.539062 0)"/>
       <use xlink:href="#Roboto-Regular-65" transform="translate(485.205078 0)"/>
       <use xlink:href="#Roboto-Regular-72" transform="translate(538.183594 0)"/>
      </g>
      <!-- to mixing valve -->
      <g transform="translate(243.577619 221.179069) scale(0.065 -0.065)">
       <use xlink:href="#Roboto-Regular-74"/>
       <use xlink:href="#Roboto-Regular-6f" transform="translate(32.666016 0)"/>
       <use xlink:href="#Roboto-Regular-20" transform="translate(89.697266 0)"/>
       <use xlink:href="#Roboto-Regular-6d" transform="translate(114.453125 0)"/>
       <use xlink:href="#Roboto-Regular-69" transform="translate(202.099609 0)"/>
       <use xlink:href="#Roboto-Regular-78" transform="translate(226.367188 0)"/>
       <use xlink:href="#Roboto-Regular-69" transform="translate(275.927734 0)"/>
       <use xlink:href="#Roboto-Regular-6e" transform="translate(300.195312 0)"/>
       <use xlink:href="#Roboto-Regular-67" transform="translate(355.371094 0)"/>
       <use xlink:href="#Roboto-Regular-20" transform="translate(411.474609 0)"/>
       <use xlink:href="#Roboto-Regular-76" transform="translate(436.230469 0)"/>
       <use xlink:href="#Roboto-Regular-61" transform="translate(484.667969 0)"/>
       <use xlink:href="#Roboto-Regular-6c" transform="translate(539.0625 0)"/>
       <use xlink:href="#Roboto-Regular-76" transform="translate(563.330078 0)"/>
       <use xlink:href="#Roboto-Regular-65" transform="translate(611.767578 0)"/>
      </g>
     </g>
    </g>
    <g id="xtick_13">
     <g id="line2d_18"/>
     <g id="text_22">
      <!-- Consumption -->
      <g transform="translate(298.315163 213.941725) scale(0.065 -0.065)">
       <use xlink:href="#Roboto-Regular-43"/>
       <use xlink:href="#Roboto-Regular-6f" transform="translate(65.087891 0)"/>
       <use xlink:href="#Roboto-Regular-6e" transform="translate(122.119141 0)"/>
       <use xlink:href="#Roboto-Regular-73" transform="translate(177.294922 0)"/>
       <use xlink:href="#Roboto-Regular-75" transform="translate(228.857422 0)"/>
       <use xlink:href="#Roboto-Regular-6d" transform="translate(283.984375 0)"/>
       <use xlink:href="#Roboto-Regular-70" transform="translate(371.630859 0)"/>
       <use xlink:href="#Roboto-Regular-74" transform="translate(427.734375 0)"/>
       <use xlink:href="#Roboto-Regular-69" transform="translate(460.400391 0)"/>
       <use xlink:href="#Roboto-Regular-6f" transform="translate(484.667969 0)"/>
       <use xlink:href="#Roboto-Regular-6e" transform="translate(541.699219 0)"/>
      </g>
      <!-- in mixing valve -->
      <g transform="translate(296.443366 221.112038) scale(0.065 -0.065)">
       <use xlink:href="#Roboto-Regular-69"/>
       <use xlink:href="#Roboto-Regular-6e" transform="translate(24.267578 0)"/>
       <use xlink:href="#Roboto-Regular-20" transform="translate(79.443359 0)"/>
       <use xlink:href="#Roboto-Regular-6d" transform="translate(104.199219 0)"/>
       <use xlink:href="#Roboto-Regular-69" transform="translate(191.845703 0)"/>
       <use xlink:href="#Roboto-Regular-78" transform="translate(216.113281 0)"/>
       <use xlink:href="#Roboto-Regular-69" transform="translate(265.673828 0)"/>
       <use xlink:href="#Roboto-Regular-6e" transform="translate(289.941406 0)"/>
       <use xlink:href="#Roboto-Regular-67" transform="translate(345.117188 0)"/>
       <use xlink:href="#Roboto-Regular-20" transform="translate(401.220703 0)"/>
       <use xlink:href="#Roboto-Regular-76" transform="translate(425.976562 0)"/>
       <use xlink:href="#Roboto-Regular-61" transform="translate(474.414062 0)"/>
       <use xlink:href="#Roboto-Regular-6c" transform="translate(528.808594 0)"/>
       <use xlink:href="#Roboto-Regular-76" transform="translate(553.076172 0)"/>
       <use xlink:href="#Roboto-Regular-65" transform="translate(601.513672 0)"/>
      </g>
     </g>
    </g>
    <g id="xtick_14">
     <g id="line2d_19"/>
     <g id="text_23">
      <!-- Served -->
      <g transform="translate(360.366731 213.941725) scale(0.065 -0.065)">
       <use xlink:href="#Roboto-Regular-53"/>
       <use xlink:href="#Roboto-Regular-65" transform="translate(59.326172 0)"/>
       <use xlink:href="#Roboto-Regular-72" transform="translate(112.304688 0)"/>
       <use xlink:href="#Roboto-Regular-76" transform="translate(146.142578 0)"/>
       <use xlink:href="#Roboto-Regular-65" transform="translate(194.580078 0)"/>
       <use xlink:href="#Roboto-Regular-64" transform="translate(247.558594 0)"/>
      </g>
      <!-- hot water -->
      <g transform="translate(356.642434 221.112038) scale(0.065 -0.065)">
       <use xlink:href="#Roboto-Regular-68"/>
       <use xlink:href="#Roboto-Regular-6f" transform="translate(55.078125 0)"/>
       <use xlink:href="#Roboto-Regular-74" transform="translate(112.109375 0)"/>
       <use xlink:href="#Roboto-Regular-20" transform="translate(144.775391 0)"/>
       <use xlink:href="#Roboto-Regular-77" transform="translate(169.53125 0)"/>
       <use xlink:href="#Roboto-Regular-61" transform="translate(244.677734 0)"/>
       <use xlink:href="#Roboto-Regular-74" transform="translate(299.072266 0)"/>
       <use xlink:href="#Roboto-Regular-65" transform="translate(331.738281 0)"/>
       <use xlink:href="#Roboto-Regular-72" transform="translate(384.716797 0)"/>
      </g>
     </g>
    </g>
   </g>
   <g id="matplotlib.axis_4">
    <g id="ytick_6">
     <g id="line2d_20">
      <g>
       <use xlink:href="#ma1b0c8ef31" x="32.989541" y="207.066725" style="stroke: #000000; stroke-width: 0.3"/>
      </g>
     </g>
     <g id="text_24">
      <!-- 0 -->
      <g transform="translate(26.387119 209.504225) scale(0.065 -0.065)">
       <use xlink:href="#Roboto-Light-30"/>
      </g>
     </g>
    </g>
    <g id="ytick_7">
     <g id="line2d_21">
      <g>
       <use xlink:href="#ma1b0c8ef31" x="32.989541" y="187.915351" style="stroke: #000000; stroke-width: 0.3"/>
      </g>
     </g>
     <g id="text_25">
      <!-- 900 -->
      <g transform="translate(19.182276 190.352851) scale(0.065 -0.065)">
       <use xlink:href="#Roboto-Light-39"/>
       <use xlink:href="#Roboto-Light-30" transform="translate(55.419922 0)"/>
       <use xlink:href="#Roboto-Light-30" transform="translate(110.839844 0)"/>
      </g>
     </g>
    </g>
    <g id="ytick_8">
     <g id="line2d_22">
      <g>
       <use xlink:href="#ma1b0c8ef31" x="32.989541" y="168.763977" style="stroke: #000000; stroke-width: 0.3"/>
      </g>
     </g>
     <g id="text_26">
      <!-- 1800 -->
      <g transform="translate(15.579854 171.201477) scale(0.065 -0.065)">
       <use xlink:href="#Roboto-Light-31"/>
       <use xlink:href="#Roboto-Light-38" transform="translate(55.419922 0)"/>
       <use xlink:href="#Roboto-Light-30" transform="translate(110.839844 0)"/>
       <use xlink:href="#Roboto-Light-30" transform="translate(166.259766 0)"/>
      </g>
     </g>
    </g>
    <g id="ytick_9">
     <g id="line2d_23">
      <g>
       <use xlink:href="#ma1b0c8ef31" x="32.989541" y="149.612603" style="stroke: #000000; stroke-width: 0.3"/>
      </g>
     </g>
     <g id="text_27">
      <!-- 2700 -->
      <g transform="translate(15.579854 152.050103) scale(0.065 -0.065)">
       <use xlink:href="#Roboto-Light-32"/>
       <use xlink:href="#Roboto-Light-37" transform="translate(55.419922 0)"/>
       <use xlink:href="#Roboto-Light-30" transform="translate(110.839844 0)"/>
       <use xlink:href="#Roboto-Light-30" transform="translate(166.259766 0)"/>
      </g>
     </g>
    </g>
    <g id="ytick_10">
     <g id="line2d_24">
      <g>
       <use xlink:href="#ma1b0c8ef31" x="32.989541" y="130.461229" style="stroke: #000000; stroke-width: 0.3"/>
      </g>
     </g>
     <g id="text_28">
      <!-- 3600 -->
      <g transform="translate(15.579854 132.898729) scale(0.065 -0.065)">
       <use xlink:href="#Roboto-Light-33"/>
       <use xlink:href="#Roboto-Light-36" transform="translate(55.419922 0)"/>
       <use xlink:href="#Roboto-Light-30" transform="translate(110.839844 0)"/>
       <use xlink:href="#Roboto-Light-30" transform="translate(166.259766 0)"/>
      </g>
     </g>
    </g>
    <g id="text_29">
     <!-- Exergy [W] -->
     <g style="fill: #292524" transform="translate(8.032982 186.132337) rotate(-90) scale(0.075 -0.075)">
      <use xlink:href="#Roboto-Regular-45"/>
      <use xlink:href="#Roboto-Regular-78" transform="translate(56.835938 0)"/>
      <use xlink:href="#Roboto-Regular-65" transform="translate(106.396484 0)"/>
      <use xlink:href="#Roboto-Regular-72" transform="translate(159.375 0)"/>
      <use xlink:href="#Roboto-Regular-67" transform="translate(193.212891 0)"/>
      <use xlink:href="#Roboto-Regular-79" transform="translate(249.316406 0)"/>
      <use xlink:href="#Roboto-Regular-20" transform="translate(296.630859 0)"/>
      <use xlink:href="#Roboto-Regular-5b" transform="translate(321.386719 0)"/>
      <use xlink:href="#Roboto-Regular-57" transform="translate(347.900391 0)"/>
      <use xlink:href="#Roboto-Regular-5d" transform="translate(436.621094 0)"/>
     </g>
    </g>
   </g>
   <g id="text_30">
    <!-- 10 -->
    <g transform="translate(52.004826 204.594113) scale(0.055 -0.055)">
     <use xlink:href="#Roboto-Light-31"/>
     <use xlink:href="#Roboto-Light-30" transform="translate(55.419922 0)"/>
    </g>
   </g>
   <g id="text_31">
    <!-- 2763 -->
    <g transform="translate(101.488737 145.805225) scale(0.055 -0.055)">
     <use xlink:href="#Roboto-Light-32"/>
     <use xlink:href="#Roboto-Light-37" transform="translate(55.419922 0)"/>
     <use xlink:href="#Roboto-Light-36" transform="translate(110.839844 0)"/>
     <use xlink:href="#Roboto-Light-33" transform="translate(166.259766 0)"/>
    </g>
   </g>
   <g id="text_32">
    <!-- -2451 -->
    <g transform="translate(153.234094 145.805225) scale(0.055 -0.055)">
     <use xlink:href="#Roboto-Light-2d"/>
     <use xlink:href="#Roboto-Light-32" transform="translate(28.613281 0)"/>
     <use xlink:href="#Roboto-Light-34" transform="translate(84.033203 0)"/>
     <use xlink:href="#Roboto-Light-35" transform="translate(139.453125 0)"/>
     <use xlink:href="#Roboto-Light-31" transform="translate(194.873047 0)"/>
    </g>
   </g>
   <g id="text_33">
    <!-- -9 -->
    <g transform="translate(210.338513 197.95936) scale(0.055 -0.055)">
     <use xlink:href="#Roboto-Light-2d"/>
     <use xlink:href="#Roboto-Light-39" transform="translate(28.613281 0)"/>
    </g>
   </g>
   <g id="text_34">
    <!-- 4 -->
    <g transform="translate(263.657385 198.060929) scale(0.055 -0.055)">
     <use xlink:href="#Roboto-Light-34"/>
    </g>
   </g>
   <g id="text_35">
    <!-- -57 -->
    <g transform="translate(313.87864 198.060929) scale(0.055 -0.055)">
     <use xlink:href="#Roboto-Light-2d"/>
     <use xlink:href="#Roboto-Light-35" transform="translate(28.613281 0)"/>
     <use xlink:href="#Roboto-Light-37" transform="translate(84.033203 0)"/>
    </g>
   </g>
   <g id="text_36">
    <!-- 259 -->
    <g transform="translate(365.67341 199.284207) scale(0.055 -0.055)">
     <use xlink:href="#Roboto-Light-32"/>
     <use xlink:href="#Roboto-Light-35" transform="translate(55.419922 0)"/>
     <use xlink:href="#Roboto-Light-39" transform="translate(110.839844 0)"/>
    </g>
   </g>
  </g>
 </g>
 <defs>
  <clipPath id="pfcab6b27b4">
   <rect x="32.989541" y="7.892436" width="359.319662" height="76.605496"/>
  </clipPath>
  <clipPath id="p5d3925f758">
   <rect x="32.989541" y="130.461229" width="359.319662" height="76.605496"/>
  </clipPath>
 </defs>
</svg>
