<?xml version="1.0" encoding="utf-8" standalone="no"?>
<!DOCTYPE svg PUBLIC "-//W3C//DTD SVG 1.1//EN"
  "http://www.w3.org/Graphics/SVG/1.1/DTD/svg11.dtd">
<svg xmlns:xlink="http://www.w3.org/1999/xlink" width="283.464567pt" height="113.385827pt" viewBox="0 0 283.464567 113.385827" xmlns="http://www.w3.org/2000/svg" version="1.1">
 <metadata>
  <rdf:RDF xmlns:dc="http://purl.org/dc/elements/1.1/" xmlns:cc="http://creativecommons.org/ns#" xmlns:rdf="http://www.w3.org/1999/02/22-rdf-syntax-ns#">
   <cc:Work>
    <dc:type rdf:resource="http://purl.org/dc/dcmitype/StillImage"/>
    <dc:date>2025-05-08T21:38:08.227991</dc:date>
    <dc:format>image/svg+xml</dc:format>
    <dc:creator>
     <cc:Agent>
      <dc:title>Matplotlib v3.10.0, https://matplotlib.org/</dc:title>
     </cc:Agent>
    </dc:creator>
   </cc:Work>
  </rdf:RDF>
 </metadata>
 <defs>
  <style type="text/css">*{stroke-linejoin: round; stroke-linecap: butt}</style>
 </defs>
 <g id="figure_1">
  <g id="patch_1">
   <path d="M 0 113.385827 
L 283.464567 113.385827 
L 283.464567 0 
L 0 0 
L 0 113.385827 
z
" style="fill: none"/>
  </g>
  <g id="axes_1">
   <g id="patch_2">
    <path d="M 28.012637 90.708661 
L 278.084986 90.708661 
L 278.084986 8.687517 
L 28.012637 8.687517 
L 28.012637 90.708661 
z
" style="fill: none"/>
   </g>
   <g id="line2d_1">
    <path d="M 28.012637 89.961956 
L 34.202547 89.124059 
L 40.392456 88.07745 
L 47.820348 86.597974 
L 56.486221 84.641563 
L 68.866041 81.583066 
L 103.529534 72.863332 
L 115.909354 70.049995 
L 127.051191 67.732533 
L 138.193028 65.632406 
L 149.334866 63.750797 
L 160.476703 62.080644 
L 172.856522 60.457758 
L 185.236341 59.059272 
L 198.854143 57.752255 
L 213.709926 56.567187 
L 229.803691 55.523622 
L 247.135438 54.630199 
L 266.943148 53.842844 
L 278.084986 53.488372 
L 278.084986 53.488372 
" clip-path="url(#pfc53df0685)" style="fill: none; stroke: #65a30d; stroke-width: 0.5; stroke-linecap: square"/>
   </g>
   <g id="line2d_2">
    <path d="M 28.012637 90.562999 
L 278.084986 90.562999 
L 278.084986 90.562999 
" clip-path="url(#pfc53df0685)" style="fill: none; stroke: #f59e0b; stroke-width: 0.5; stroke-linecap: square"/>
   </g>
   <g id="line2d_3">
    <path d="M 28.012637 90.034719 
L 40.392456 89.268075 
L 55.248239 88.096936 
L 78.769896 85.966797 
L 109.719444 83.202448 
L 129.527155 81.663653 
L 148.096884 80.437258 
L 167.904594 79.360391 
L 188.950287 78.453802 
L 211.233962 77.719465 
L 237.231582 77.094809 
L 268.18113 76.590744 
L 278.084986 76.470668 
L 278.084986 76.470668 
" clip-path="url(#pfc53df0685)" style="fill: none; stroke: #2563eb; stroke-width: 0.5; stroke-linecap: square"/>
   </g>
   <g id="line2d_4">
    <path d="M 28.012637 90.660967 
L 36.678511 90.197032 
L 46.582366 89.433964 
L 58.962185 88.238006 
L 78.769896 86.05861 
L 106.005498 83.098031 
L 123.337245 81.43839 
L 140.668992 80.009693 
L 158.000739 78.814038 
L 176.570468 77.771051 
L 196.378179 76.893333 
L 218.661853 76.142918 
L 243.421492 75.537262 
L 273.133058 75.040624 
L 278.084986 74.976505 
L 278.084986 74.976505 
" clip-path="url(#pfc53df0685)" style="fill: none; stroke: #9333ea; stroke-width: 0.5; stroke-linecap: square"/>
   </g>
   <g id="patch_3">
    <path d="M 28.012637 90.708661 
L 28.012637 8.687517 
" style="fill: none; stroke: #000000; stroke-width: 0.3; stroke-linejoin: miter; stroke-linecap: square"/>
   </g>
   <g id="patch_4">
    <path d="M 28.012637 90.708661 
L 278.084986 90.708661 
" style="fill: none; stroke: #000000; stroke-width: 0.3; stroke-linejoin: miter; stroke-linecap: square"/>
   </g>
   <g id="matplotlib.axis_1">
    <g id="xtick_1">
     <g id="line2d_5">
      <defs>
       <path id="mdf49d2f78b" d="M 0 0 
L 0 2 
" style="stroke: #000000; stroke-width: 0.3"/>
      </defs>
      <g>
       <use xlink:href="#mdf49d2f78b" x="28.012637" y="90.708661" style="stroke: #000000; stroke-width: 0.3"/>
      </g>
     </g>
     <g id="text_1">
      <!-- 0.0 -->
      <g transform="translate(23.634278 99.583661) scale(0.065 -0.065)">
       <defs>
        <path id="Roboto-Light-30" d="M 3172 1897 
Q 3172 934 2819 435 
Q 2466 -63 1778 -63 
Q 1103 -63 743 426 
Q 384 916 375 1850 
L 375 2666 
Q 375 3625 731 4119 
Q 1088 4613 1772 4613 
Q 2447 4613 2803 4136 
Q 3159 3659 3172 2731 
L 3172 1897 
z
M 2797 2713 
Q 2797 3494 2542 3894 
Q 2288 4294 1772 4294 
Q 1266 4294 1009 3903 
Q 753 3513 747 2750 
L 747 1856 
Q 747 1078 1011 665 
Q 1275 253 1778 253 
Q 2278 253 2536 656 
Q 2794 1059 2797 1838 
L 2797 2713 
z
" transform="scale(0.015625)"/>
        <path id="Roboto-Light-2e" d="M 453 225 
Q 453 334 523 411 
Q 594 488 719 488 
Q 844 488 916 411 
Q 988 334 988 225 
Q 988 116 916 45 
Q 844 -25 719 -25 
Q 594 -25 523 45 
Q 453 116 453 225 
z
" transform="scale(0.015625)"/>
       </defs>
       <use xlink:href="#Roboto-Light-30"/>
       <use xlink:href="#Roboto-Light-2e" transform="translate(55.419922 0)"/>
       <use xlink:href="#Roboto-Light-30" transform="translate(79.296875 0)"/>
      </g>
     </g>
    </g>
    <g id="xtick_2">
     <g id="line2d_6">
      <g>
       <use xlink:href="#mdf49d2f78b" x="72.579986" y="90.708661" style="stroke: #000000; stroke-width: 0.3"/>
      </g>
     </g>
     <g id="text_2">
      <!-- 0.1 -->
      <g transform="translate(68.201627 99.583661) scale(0.065 -0.065)">
       <defs>
        <path id="Roboto-Light-31" d="M 2169 0 
L 1794 0 
L 1794 4100 
L 556 3641 
L 556 3991 
L 2106 4566 
L 2169 4566 
L 2169 0 
z
" transform="scale(0.015625)"/>
       </defs>
       <use xlink:href="#Roboto-Light-30"/>
       <use xlink:href="#Roboto-Light-2e" transform="translate(55.419922 0)"/>
       <use xlink:href="#Roboto-Light-31" transform="translate(79.296875 0)"/>
      </g>
     </g>
    </g>
    <g id="xtick_3">
     <g id="line2d_7">
      <g>
       <use xlink:href="#mdf49d2f78b" x="117.147336" y="90.708661" style="stroke: #000000; stroke-width: 0.3"/>
      </g>
     </g>
     <g id="text_3">
      <!-- 0.2 -->
      <g transform="translate(112.768976 99.583661) scale(0.065 -0.065)">
       <defs>
        <path id="Roboto-Light-32" d="M 3278 0 
L 428 0 
L 428 288 
L 1988 2056 
Q 2375 2503 2525 2793 
Q 2675 3084 2675 3359 
Q 2675 3791 2422 4042 
Q 2169 4294 1725 4294 
Q 1266 4294 983 4000 
Q 700 3706 700 3238 
L 328 3238 
Q 328 3622 501 3937 
Q 675 4253 995 4433 
Q 1316 4613 1725 4613 
Q 2350 4613 2701 4284 
Q 3053 3956 3053 3391 
Q 3053 3072 2854 2694 
Q 2656 2316 2156 1750 
L 888 316 
L 3278 316 
L 3278 0 
z
" transform="scale(0.015625)"/>
       </defs>
       <use xlink:href="#Roboto-Light-30"/>
       <use xlink:href="#Roboto-Light-2e" transform="translate(55.419922 0)"/>
       <use xlink:href="#Roboto-Light-32" transform="translate(79.296875 0)"/>
      </g>
     </g>
    </g>
    <g id="xtick_4">
     <g id="line2d_8">
      <g>
       <use xlink:href="#mdf49d2f78b" x="161.714685" y="90.708661" style="stroke: #000000; stroke-width: 0.3"/>
      </g>
     </g>
     <g id="text_4">
      <!-- 0.3 -->
      <g transform="translate(157.336325 99.583661) scale(0.065 -0.065)">
       <defs>
        <path id="Roboto-Light-33" d="M 1259 2478 
L 1647 2478 
Q 1969 2478 2209 2592 
Q 2450 2706 2576 2904 
Q 2703 3103 2703 3363 
Q 2703 3800 2456 4047 
Q 2209 4294 1747 4294 
Q 1309 4294 1029 4036 
Q 750 3778 750 3356 
L 375 3356 
Q 375 3709 553 4001 
Q 731 4294 1047 4453 
Q 1363 4613 1747 4613 
Q 2366 4613 2722 4275 
Q 3078 3938 3078 3350 
Q 3078 3022 2870 2745 
Q 2663 2469 2300 2331 
Q 2725 2213 2944 1923 
Q 3163 1634 3163 1234 
Q 3163 650 2781 293 
Q 2400 -63 1763 -63 
Q 1356 -63 1017 100 
Q 678 263 492 555 
Q 306 847 306 1234 
L 681 1234 
Q 681 800 984 526 
Q 1288 253 1763 253 
Q 2247 253 2517 501 
Q 2788 750 2788 1222 
Q 2788 1678 2495 1918 
Q 2203 2159 1634 2159 
L 1259 2159 
L 1259 2478 
z
" transform="scale(0.015625)"/>
       </defs>
       <use xlink:href="#Roboto-Light-30"/>
       <use xlink:href="#Roboto-Light-2e" transform="translate(55.419922 0)"/>
       <use xlink:href="#Roboto-Light-33" transform="translate(79.296875 0)"/>
      </g>
     </g>
    </g>
    <g id="xtick_5">
     <g id="line2d_9">
      <g>
       <use xlink:href="#mdf49d2f78b" x="206.282034" y="90.708661" style="stroke: #000000; stroke-width: 0.3"/>
      </g>
     </g>
     <g id="text_5">
      <!-- 0.4 -->
      <g transform="translate(201.903675 99.583661) scale(0.065 -0.065)">
       <defs>
        <path id="Roboto-Light-34" d="M 2725 1466 
L 3434 1466 
L 3434 1150 
L 2725 1150 
L 2725 0 
L 2350 0 
L 2350 1150 
L 209 1150 
L 209 1363 
L 2316 4550 
L 2725 4550 
L 2725 1466 
z
M 669 1466 
L 2350 1466 
L 2350 4066 
L 2184 3778 
L 669 1466 
z
" transform="scale(0.015625)"/>
       </defs>
       <use xlink:href="#Roboto-Light-30"/>
       <use xlink:href="#Roboto-Light-2e" transform="translate(55.419922 0)"/>
       <use xlink:href="#Roboto-Light-34" transform="translate(79.296875 0)"/>
      </g>
     </g>
    </g>
    <g id="xtick_6">
     <g id="line2d_10">
      <g>
       <use xlink:href="#mdf49d2f78b" x="250.849383" y="90.708661" style="stroke: #000000; stroke-width: 0.3"/>
      </g>
     </g>
     <g id="text_6">
      <!-- 0.5 -->
      <g transform="translate(246.471024 99.583661) scale(0.065 -0.065)">
       <defs>
        <path id="Roboto-Light-35" d="M 681 2331 
L 903 4550 
L 3178 4550 
L 3178 4203 
L 1225 4203 
L 1066 2666 
Q 1431 2916 1922 2916 
Q 2538 2916 2903 2516 
Q 3269 2116 3269 1450 
Q 3269 731 2912 334 
Q 2556 -63 1909 -63 
Q 1316 -63 947 268 
Q 578 600 525 1197 
L 884 1197 
Q 938 731 1200 492 
Q 1463 253 1909 253 
Q 2397 253 2645 562 
Q 2894 872 2894 1444 
Q 2894 1944 2616 2259 
Q 2338 2575 1856 2575 
Q 1591 2575 1394 2508 
Q 1197 2441 978 2247 
L 681 2331 
z
" transform="scale(0.015625)"/>
       </defs>
       <use xlink:href="#Roboto-Light-30"/>
       <use xlink:href="#Roboto-Light-2e" transform="translate(55.419922 0)"/>
       <use xlink:href="#Roboto-Light-35" transform="translate(79.296875 0)"/>
      </g>
     </g>
    </g>
    <g id="text_7">
     <!-- Time [hours] -->
     <g transform="translate(132.6201 110.616865) scale(0.075 -0.075)">
      <defs>
       <path id="Roboto-Light-54" d="M 3663 4222 
L 2103 4222 
L 2103 0 
L 1719 0 
L 1719 4222 
L 163 4222 
L 163 4550 
L 3663 4550 
L 3663 4222 
z
" transform="scale(0.015625)"/>
       <path id="Roboto-Light-69" d="M 906 0 
L 531 0 
L 531 3381 
L 906 3381 
L 906 0 
z
M 466 4359 
Q 466 4466 534 4539 
Q 603 4613 722 4613 
Q 841 4613 911 4539 
Q 981 4466 981 4359 
Q 981 4253 911 4181 
Q 841 4109 722 4109 
Q 603 4109 534 4181 
Q 466 4253 466 4359 
z
" transform="scale(0.015625)"/>
       <path id="Roboto-Light-6d" d="M 828 3381 
L 841 2831 
Q 1028 3138 1309 3291 
Q 1591 3444 1934 3444 
Q 2734 3444 2950 2788 
Q 3131 3103 3434 3273 
Q 3738 3444 4103 3444 
Q 5191 3444 5213 2256 
L 5213 0 
L 4838 0 
L 4838 2228 
Q 4834 2681 4642 2900 
Q 4450 3119 4016 3119 
Q 3613 3113 3334 2858 
Q 3056 2603 3025 2238 
L 3025 0 
L 2650 0 
L 2650 2256 
Q 2647 2691 2445 2905 
Q 2244 3119 1825 3119 
Q 1472 3119 1219 2917 
Q 966 2716 844 2319 
L 844 0 
L 469 0 
L 469 3381 
L 828 3381 
z
" transform="scale(0.015625)"/>
       <path id="Roboto-Light-65" d="M 1797 -63 
Q 1366 -63 1017 150 
Q 669 363 475 742 
Q 281 1122 281 1594 
L 281 1728 
Q 281 2216 470 2606 
Q 659 2997 996 3220 
Q 1334 3444 1728 3444 
Q 2344 3444 2705 3023 
Q 3066 2603 3066 1875 
L 3066 1666 
L 653 1666 
L 653 1594 
Q 653 1019 983 636 
Q 1313 253 1813 253 
Q 2113 253 2342 362 
Q 2572 472 2759 713 
L 2994 534 
Q 2581 -63 1797 -63 
z
M 1728 3125 
Q 1306 3125 1017 2815 
Q 728 2506 666 1984 
L 2694 1984 
L 2694 2025 
Q 2678 2513 2415 2819 
Q 2153 3125 1728 3125 
z
" transform="scale(0.015625)"/>
       <path id="Roboto-Light-20" transform="scale(0.015625)"/>
       <path id="Roboto-Light-5b" d="M 1541 4881 
L 884 4881 
L 884 -656 
L 1541 -656 
L 1541 -975 
L 509 -975 
L 509 5200 
L 1541 5200 
L 1541 4881 
z
" transform="scale(0.015625)"/>
       <path id="Roboto-Light-68" d="M 859 2809 
Q 1044 3113 1331 3278 
Q 1619 3444 1959 3444 
Q 2503 3444 2768 3137 
Q 3034 2831 3038 2219 
L 3038 0 
L 2666 0 
L 2666 2222 
Q 2663 2675 2473 2897 
Q 2284 3119 1869 3119 
Q 1522 3119 1255 2901 
Q 988 2684 859 2316 
L 859 0 
L 488 0 
L 488 4800 
L 859 4800 
L 859 2809 
z
" transform="scale(0.015625)"/>
       <path id="Roboto-Light-6f" d="M 281 1741 
Q 281 2228 470 2618 
Q 659 3009 1004 3226 
Q 1350 3444 1788 3444 
Q 2463 3444 2881 2970 
Q 3300 2497 3300 1716 
L 3300 1638 
Q 3300 1147 3111 755 
Q 2922 363 2578 150 
Q 2234 -63 1794 -63 
Q 1122 -63 701 410 
Q 281 884 281 1666 
L 281 1741 
z
M 656 1638 
Q 656 1031 970 642 
Q 1284 253 1794 253 
Q 2300 253 2614 642 
Q 2928 1031 2928 1669 
L 2928 1741 
Q 2928 2128 2784 2450 
Q 2641 2772 2381 2948 
Q 2122 3125 1788 3125 
Q 1288 3125 972 2733 
Q 656 2341 656 1706 
L 656 1638 
z
" transform="scale(0.015625)"/>
       <path id="Roboto-Light-75" d="M 2663 428 
Q 2325 -63 1584 -63 
Q 1044 -63 762 251 
Q 481 566 475 1181 
L 475 3381 
L 847 3381 
L 847 1228 
Q 847 263 1628 263 
Q 2441 263 2656 934 
L 2656 3381 
L 3031 3381 
L 3031 0 
L 2669 0 
L 2663 428 
z
" transform="scale(0.015625)"/>
       <path id="Roboto-Light-72" d="M 2050 3063 
Q 1931 3084 1797 3084 
Q 1447 3084 1205 2889 
Q 963 2694 859 2322 
L 859 0 
L 488 0 
L 488 3381 
L 853 3381 
L 859 2844 
Q 1156 3444 1813 3444 
Q 1969 3444 2059 3403 
L 2050 3063 
z
" transform="scale(0.015625)"/>
       <path id="Roboto-Light-73" d="M 2513 859 
Q 2513 1138 2289 1306 
Q 2066 1475 1616 1570 
Q 1166 1666 917 1789 
Q 669 1913 548 2091 
Q 428 2269 428 2522 
Q 428 2922 762 3183 
Q 1097 3444 1619 3444 
Q 2184 3444 2526 3164 
Q 2869 2884 2869 2434 
L 2494 2434 
Q 2494 2731 2245 2928 
Q 1997 3125 1619 3125 
Q 1250 3125 1026 2961 
Q 803 2797 803 2534 
Q 803 2281 989 2142 
Q 1175 2003 1667 1887 
Q 2159 1772 2404 1640 
Q 2650 1509 2769 1325 
Q 2888 1141 2888 878 
Q 2888 450 2542 193 
Q 2197 -63 1641 -63 
Q 1050 -63 683 223 
Q 316 509 316 947 
L 691 947 
Q 713 619 967 436 
Q 1222 253 1641 253 
Q 2031 253 2272 425 
Q 2513 597 2513 859 
z
" transform="scale(0.015625)"/>
       <path id="Roboto-Light-5d" d="M 0 5200 
L 1034 5200 
L 1034 -975 
L 0 -975 
L 0 -656 
L 659 -656 
L 659 4881 
L 0 4881 
L 0 5200 
z
" transform="scale(0.015625)"/>
      </defs>
      <use xlink:href="#Roboto-Light-54"/>
      <use xlink:href="#Roboto-Light-69" transform="translate(59.716797 0)"/>
      <use xlink:href="#Roboto-Light-6d" transform="translate(82.128906 0)"/>
      <use xlink:href="#Roboto-Light-65" transform="translate(170.751953 0)"/>
      <use xlink:href="#Roboto-Light-20" transform="translate(222.412109 0)"/>
      <use xlink:href="#Roboto-Light-5b" transform="translate(246.728516 0)"/>
      <use xlink:href="#Roboto-Light-68" transform="translate(270.703125 0)"/>
      <use xlink:href="#Roboto-Light-6f" transform="translate(325.585938 0)"/>
      <use xlink:href="#Roboto-Light-75" transform="translate(381.591797 0)"/>
      <use xlink:href="#Roboto-Light-72" transform="translate(436.523438 0)"/>
      <use xlink:href="#Roboto-Light-73" transform="translate(470.166016 0)"/>
      <use xlink:href="#Roboto-Light-5d" transform="translate(520.800781 0)"/>
     </g>
    </g>
   </g>
   <g id="matplotlib.axis_2">
    <g id="ytick_1">
     <g id="line2d_11">
      <defs>
       <path id="m359e5362b8" d="M 0 0 
L -2 0 
" style="stroke: #000000; stroke-width: 0.3"/>
      </defs>
      <g>
       <use xlink:href="#m359e5362b8" x="28.012637" y="90.708661" style="stroke: #000000; stroke-width: 0.3"/>
      </g>
     </g>
     <g id="text_8">
      <!-- 0 -->
      <g transform="translate(21.410215 93.146161) scale(0.065 -0.065)">
       <use xlink:href="#Roboto-Light-30"/>
      </g>
     </g>
    </g>
    <g id="ytick_2">
     <g id="line2d_12">
      <g>
       <use xlink:href="#m359e5362b8" x="28.012637" y="74.304432" style="stroke: #000000; stroke-width: 0.3"/>
      </g>
     </g>
     <g id="text_9">
      <!-- 100 -->
      <g transform="translate(14.205372 76.741932) scale(0.065 -0.065)">
       <use xlink:href="#Roboto-Light-31"/>
       <use xlink:href="#Roboto-Light-30" transform="translate(55.419922 0)"/>
       <use xlink:href="#Roboto-Light-30" transform="translate(110.839844 0)"/>
      </g>
     </g>
    </g>
    <g id="ytick_3">
     <g id="line2d_13">
      <g>
       <use xlink:href="#m359e5362b8" x="28.012637" y="57.900203" style="stroke: #000000; stroke-width: 0.3"/>
      </g>
     </g>
     <g id="text_10">
      <!-- 200 -->
      <g transform="translate(14.205372 60.337703) scale(0.065 -0.065)">
       <use xlink:href="#Roboto-Light-32"/>
       <use xlink:href="#Roboto-Light-30" transform="translate(55.419922 0)"/>
       <use xlink:href="#Roboto-Light-30" transform="translate(110.839844 0)"/>
      </g>
     </g>
    </g>
    <g id="ytick_4">
     <g id="line2d_14">
      <g>
       <use xlink:href="#m359e5362b8" x="28.012637" y="41.495975" style="stroke: #000000; stroke-width: 0.3"/>
      </g>
     </g>
     <g id="text_11">
      <!-- 300 -->
      <g transform="translate(14.205372 43.933475) scale(0.065 -0.065)">
       <use xlink:href="#Roboto-Light-33"/>
       <use xlink:href="#Roboto-Light-30" transform="translate(55.419922 0)"/>
       <use xlink:href="#Roboto-Light-30" transform="translate(110.839844 0)"/>
      </g>
     </g>
    </g>
    <g id="ytick_5">
     <g id="line2d_15">
      <g>
       <use xlink:href="#m359e5362b8" x="28.012637" y="25.091746" style="stroke: #000000; stroke-width: 0.3"/>
      </g>
     </g>
     <g id="text_12">
      <!-- 400 -->
      <g transform="translate(14.205372 27.529246) scale(0.065 -0.065)">
       <use xlink:href="#Roboto-Light-34"/>
       <use xlink:href="#Roboto-Light-30" transform="translate(55.419922 0)"/>
       <use xlink:href="#Roboto-Light-30" transform="translate(110.839844 0)"/>
      </g>
     </g>
    </g>
    <g id="ytick_6">
     <g id="line2d_16">
      <g>
       <use xlink:href="#m359e5362b8" x="28.012637" y="8.687517" style="stroke: #000000; stroke-width: 0.3"/>
      </g>
     </g>
     <g id="text_13">
      <!-- 500 -->
      <g transform="translate(14.205372 11.125017) scale(0.065 -0.065)">
       <use xlink:href="#Roboto-Light-35"/>
       <use xlink:href="#Roboto-Light-30" transform="translate(55.419922 0)"/>
       <use xlink:href="#Roboto-Light-30" transform="translate(110.839844 0)"/>
      </g>
     </g>
    </g>
    <g id="text_14">
     <!-- Exergy [W] -->
     <g transform="translate(8.60459 66.787542) rotate(-90) scale(0.075 -0.075)">
      <defs>
       <path id="Roboto-Light-45" d="M 3088 2181 
L 959 2181 
L 959 325 
L 3406 325 
L 3406 0 
L 575 0 
L 575 4550 
L 3391 4550 
L 3391 4222 
L 959 4222 
L 959 2506 
L 3088 2506 
L 3088 2181 
z
" transform="scale(0.015625)"/>
       <path id="Roboto-Light-78" d="M 1550 2009 
L 2463 3381 
L 2906 3381 
L 1759 1722 
L 2956 0 
L 2516 0 
L 1553 1431 
L 591 0 
L 150 0 
L 1344 1722 
L 197 3381 
L 638 3381 
L 1550 2009 
z
" transform="scale(0.015625)"/>
       <path id="Roboto-Light-67" d="M 338 1722 
Q 338 2516 689 2980 
Q 1041 3444 1644 3444 
Q 2334 3444 2694 2894 
L 2713 3381 
L 3063 3381 
L 3063 69 
Q 3063 -584 2697 -965 
Q 2331 -1347 1706 -1347 
Q 1353 -1347 1033 -1189 
Q 713 -1031 528 -769 
L 738 -544 
Q 1134 -1031 1681 -1031 
Q 2150 -1031 2412 -754 
Q 2675 -478 2684 13 
L 2684 438 
Q 2325 -63 1638 -63 
Q 1050 -63 694 406 
Q 338 875 338 1672 
L 338 1722 
z
M 716 1656 
Q 716 1009 975 636 
Q 1234 263 1706 263 
Q 2397 263 2684 881 
L 2684 2453 
Q 2553 2778 2306 2948 
Q 2059 3119 1713 3119 
Q 1241 3119 978 2748 
Q 716 2378 716 1656 
z
" transform="scale(0.015625)"/>
       <path id="Roboto-Light-79" d="M 1559 538 
L 2547 3381 
L 2950 3381 
L 1506 -575 
L 1431 -750 
Q 1153 -1366 572 -1366 
Q 438 -1366 284 -1322 
L 281 -1013 
L 475 -1031 
Q 750 -1031 920 -895 
Q 1091 -759 1209 -428 
L 1375 28 
L 100 3381 
L 509 3381 
L 1559 538 
z
" transform="scale(0.015625)"/>
       <path id="Roboto-Light-57" d="M 1416 1228 
L 1556 522 
L 1728 1197 
L 2716 4550 
L 3063 4550 
L 4038 1197 
L 4206 516 
L 4356 1228 
L 5178 4550 
L 5572 4550 
L 4406 0 
L 4038 0 
L 3006 3559 
L 2891 4009 
L 2778 3559 
L 1722 0 
L 1353 0 
L 191 4550 
L 584 4550 
L 1416 1228 
z
" transform="scale(0.015625)"/>
      </defs>
      <use xlink:href="#Roboto-Light-45"/>
      <use xlink:href="#Roboto-Light-78" transform="translate(56.884766 0)"/>
      <use xlink:href="#Roboto-Light-65" transform="translate(105.517578 0)"/>
      <use xlink:href="#Roboto-Light-72" transform="translate(157.177734 0)"/>
      <use xlink:href="#Roboto-Light-67" transform="translate(190.820312 0)"/>
      <use xlink:href="#Roboto-Light-79" transform="translate(246.289062 0)"/>
      <use xlink:href="#Roboto-Light-20" transform="translate(293.798828 0)"/>
      <use xlink:href="#Roboto-Light-5b" transform="translate(318.115234 0)"/>
      <use xlink:href="#Roboto-Light-57" transform="translate(342.089844 0)"/>
      <use xlink:href="#Roboto-Light-5d" transform="translate(431.738281 0)"/>
     </g>
    </g>
   </g>
   <g id="legend_1">
    <g id="line2d_17">
     <path d="M 150.264986 13.637517 
L 155.764986 13.637517 
L 161.264986 13.637517 
" style="fill: none; stroke: #65a30d; stroke-width: 0.5; stroke-linecap: square"/>
    </g>
    <g id="text_15">
     <!-- $X_{cond}$ -->
     <g transform="translate(162.914986 15.562517) scale(0.055 -0.055)">
      <defs>
       <path id="NotoSansMath-Regular-58" d="M 26 0 
L 1542 2381 
L 122 4570 
L 762 4570 
L 1882 2778 
L 3008 4570 
L 3616 4570 
L 2202 2394 
L 3725 0 
L 3072 0 
L 1862 1984 
L 634 0 
L 26 0 
z
" transform="scale(0.015625)"/>
       <path id="NotoSansMath-Regular-63" d="M 1920 -64 
Q 1466 -64 1110 121 
Q 755 307 553 697 
Q 352 1088 352 1696 
Q 352 2330 563 2726 
Q 774 3123 1136 3308 
Q 1498 3494 1958 3494 
Q 2221 3494 2464 3440 
Q 2707 3386 2861 3309 
L 2688 2842 
Q 2534 2899 2329 2950 
Q 2125 3002 1946 3002 
Q 934 3002 934 1702 
Q 934 1082 1180 752 
Q 1427 422 1914 422 
Q 2195 422 2409 480 
Q 2624 538 2803 621 
L 2803 122 
Q 2630 32 2422 -16 
Q 2214 -64 1920 -64 
z
" transform="scale(0.015625)"/>
       <path id="NotoSansMath-Regular-6f" d="M 1926 -64 
Q 1472 -64 1117 144 
Q 762 352 557 752 
Q 352 1152 352 1722 
Q 352 2573 781 3033 
Q 1210 3494 1946 3494 
Q 2413 3494 2768 3286 
Q 3123 3078 3324 2684 
Q 3526 2291 3526 1722 
Q 3526 870 3094 403 
Q 2662 -64 1926 -64 
z
M 1939 403 
Q 2458 403 2701 758 
Q 2944 1114 2944 1722 
Q 2944 2330 2701 2675 
Q 2458 3021 1933 3021 
Q 1408 3021 1171 2675 
Q 934 2330 934 1722 
Q 934 1114 1174 758 
Q 1414 403 1939 403 
z
" transform="scale(0.015625)"/>
       <path id="NotoSansMath-Regular-6e" d="M 544 0 
L 544 3430 
L 998 3430 
L 1082 2963 
L 1114 2963 
Q 1280 3232 1574 3363 
Q 1869 3494 2195 3494 
Q 2810 3494 3123 3196 
Q 3437 2899 3437 2234 
L 3437 0 
L 2880 0 
L 2880 2195 
Q 2880 3021 2112 3021 
Q 1542 3021 1324 2701 
Q 1107 2381 1107 1779 
L 1107 0 
L 544 0 
z
" transform="scale(0.015625)"/>
       <path id="NotoSansMath-Regular-64" d="M 1760 -64 
Q 1120 -64 736 381 
Q 352 826 352 1709 
Q 352 2592 739 3043 
Q 1126 3494 1766 3494 
Q 2163 3494 2416 3347 
Q 2669 3200 2829 2989 
L 2867 2989 
Q 2861 3072 2845 3235 
Q 2829 3398 2829 3494 
L 2829 4864 
L 3392 4864 
L 3392 0 
L 2938 0 
L 2854 461 
L 2829 461 
Q 2675 243 2419 89 
Q 2163 -64 1760 -64 
z
M 1850 403 
Q 2394 403 2614 700 
Q 2835 998 2835 1600 
L 2835 1702 
Q 2835 2342 2624 2684 
Q 2413 3027 1843 3027 
Q 1389 3027 1161 2665 
Q 934 2304 934 1696 
Q 934 1082 1161 742 
Q 1389 403 1850 403 
z
" transform="scale(0.015625)"/>
      </defs>
      <use xlink:href="#NotoSansMath-Regular-58" transform="translate(0 0.59375)"/>
      <use xlink:href="#NotoSansMath-Regular-63" transform="translate(58.599991 -15.484375) scale(0.7)"/>
      <use xlink:href="#NotoSansMath-Regular-6f" transform="translate(92.19998 -15.484375) scale(0.7)"/>
      <use xlink:href="#NotoSansMath-Regular-6e" transform="translate(134.549969 -15.484375) scale(0.7)"/>
      <use xlink:href="#NotoSansMath-Regular-64" transform="translate(177.809961 -15.484375) scale(0.7)"/>
     </g>
    </g>
    <g id="line2d_18">
     <path d="M 179.359986 13.637517 
L 184.859986 13.637517 
L 190.359986 13.637517 
" style="fill: none; stroke: #f59e0b; stroke-width: 0.5; stroke-linecap: square"/>
    </g>
    <g id="text_16">
     <!-- $X_{rad,mr}$ -->
     <g transform="translate(192.009986 15.562517) scale(0.055 -0.055)">
      <defs>
       <path id="NotoSansMath-Regular-72" d="M 544 0 
L 544 3430 
L 1005 3430 
L 1069 2803 
L 1094 2803 
Q 1261 3085 1523 3289 
Q 1786 3494 2144 3494 
Q 2240 3494 2352 3484 
Q 2464 3475 2547 3456 
L 2477 2938 
Q 2394 2957 2294 2969 
Q 2195 2982 2106 2982 
Q 1843 2982 1612 2838 
Q 1382 2694 1244 2435 
Q 1107 2176 1107 1830 
L 1107 0 
L 544 0 
z
" transform="scale(0.015625)"/>
       <path id="NotoSansMath-Regular-61" d="M 1376 -64 
Q 909 -64 601 182 
Q 294 429 294 954 
Q 294 1466 697 1744 
Q 1101 2022 1939 2048 
L 2522 2067 
L 2522 2272 
Q 2522 2701 2336 2867 
Q 2150 3034 1811 3034 
Q 1542 3034 1299 2954 
Q 1056 2874 845 2771 
L 672 3194 
Q 896 3315 1203 3401 
Q 1510 3488 1843 3488 
Q 2470 3488 2771 3213 
Q 3072 2938 3072 2336 
L 3072 0 
L 2662 0 
L 2554 486 
L 2528 486 
Q 2304 205 2057 70 
Q 1811 -64 1376 -64 
z
M 1504 390 
Q 1939 390 2227 630 
Q 2515 870 2515 1370 
L 2515 1677 
L 2010 1658 
Q 1370 1632 1123 1453 
Q 877 1274 877 947 
Q 877 659 1053 524 
Q 1229 390 1504 390 
z
" transform="scale(0.015625)"/>
       <path id="NotoSansMath-Regular-2c" d="M 262 -826 
Q 352 -461 445 -25 
Q 538 410 582 742 
L 1184 742 
L 1229 672 
Q 1146 333 989 -73 
Q 832 -480 678 -826 
L 262 -826 
z
" transform="scale(0.015625)"/>
       <path id="NotoSansMath-Regular-6d" d="M 544 0 
L 544 3430 
L 998 3430 
L 1082 2963 
L 1114 2963 
Q 1274 3232 1546 3363 
Q 1818 3494 2125 3494 
Q 2931 3494 3174 2918 
L 3206 2918 
Q 3379 3213 3676 3353 
Q 3974 3494 4307 3494 
Q 4890 3494 5178 3196 
Q 5466 2899 5466 2234 
L 5466 0 
L 4909 0 
L 4909 2208 
Q 4909 3021 4211 3021 
Q 3712 3021 3497 2733 
Q 3283 2445 3283 1894 
L 3283 0 
L 2726 0 
L 2726 2208 
Q 2726 3021 2022 3021 
Q 1504 3021 1305 2701 
Q 1107 2381 1107 1779 
L 1107 0 
L 544 0 
z
" transform="scale(0.015625)"/>
      </defs>
      <use xlink:href="#NotoSansMath-Regular-58" transform="translate(0 0.59375)"/>
      <use xlink:href="#NotoSansMath-Regular-72" transform="translate(58.599991 -15.484375) scale(0.7)"/>
      <use xlink:href="#NotoSansMath-Regular-61" transform="translate(87.509982 -15.484375) scale(0.7)"/>
      <use xlink:href="#NotoSansMath-Regular-64" transform="translate(126.779976 -15.484375) scale(0.7)"/>
      <use xlink:href="#NotoSansMath-Regular-2c" transform="translate(169.829965 -15.484375) scale(0.7)"/>
      <use xlink:href="#NotoSansMath-Regular-6d" transform="translate(201.679955 -15.484375) scale(0.7)"/>
      <use xlink:href="#NotoSansMath-Regular-72" transform="translate(267.129944 -15.484375) scale(0.7)"/>
     </g>
    </g>
    <g id="line2d_19">
     <path d="M 212.579986 13.637517 
L 218.079986 13.637517 
L 223.579986 13.637517 
" style="fill: none; stroke: #2563eb; stroke-width: 0.5; stroke-linecap: square"/>
    </g>
    <g id="text_17">
     <!-- $X_{rad,ps}$ -->
     <g transform="translate(225.229986 15.562517) scale(0.055 -0.055)">
      <defs>
       <path id="NotoSansMath-Regular-70" d="M 544 -1536 
L 544 3430 
L 1005 3430 
L 1082 2963 
L 1107 2963 
Q 1261 3187 1510 3340 
Q 1760 3494 2176 3494 
Q 2810 3494 3197 3052 
Q 3584 2611 3584 1722 
Q 3584 845 3197 390 
Q 2810 -64 2170 -64 
Q 1773 -64 1513 86 
Q 1254 237 1107 435 
L 1069 435 
Q 1082 326 1094 160 
Q 1107 -6 1107 -128 
L 1107 -1536 
L 544 -1536 
z
M 2086 403 
Q 2400 403 2601 576 
Q 2803 749 2902 1046 
Q 3002 1344 3002 1728 
Q 3002 2317 2774 2669 
Q 2547 3021 2074 3021 
Q 1549 3021 1334 2726 
Q 1120 2432 1107 1830 
L 1107 1722 
Q 1107 1088 1315 745 
Q 1523 403 2086 403 
z
" transform="scale(0.015625)"/>
       <path id="NotoSansMath-Regular-73" d="M 1408 -64 
Q 1050 -64 790 -6 
Q 531 51 333 154 
L 333 666 
Q 538 563 829 476 
Q 1120 390 1421 390 
Q 1850 390 2042 528 
Q 2234 666 2234 896 
Q 2234 1024 2163 1126 
Q 2093 1229 1910 1331 
Q 1728 1434 1389 1562 
Q 1056 1690 819 1818 
Q 582 1946 454 2125 
Q 326 2304 326 2586 
Q 326 3021 681 3257 
Q 1037 3494 1613 3494 
Q 1926 3494 2198 3433 
Q 2470 3373 2707 3264 
L 2515 2816 
Q 2298 2906 2061 2970 
Q 1824 3034 1574 3034 
Q 1229 3034 1046 2922 
Q 864 2810 864 2618 
Q 864 2477 947 2377 
Q 1030 2278 1225 2185 
Q 1421 2093 1747 1965 
Q 2074 1843 2304 1712 
Q 2534 1581 2656 1401 
Q 2778 1222 2778 947 
Q 2778 448 2406 192 
Q 2035 -64 1408 -64 
z
" transform="scale(0.015625)"/>
      </defs>
      <use xlink:href="#NotoSansMath-Regular-58" transform="translate(0 0.59375)"/>
      <use xlink:href="#NotoSansMath-Regular-72" transform="translate(58.599991 -15.484375) scale(0.7)"/>
      <use xlink:href="#NotoSansMath-Regular-61" transform="translate(87.509982 -15.484375) scale(0.7)"/>
      <use xlink:href="#NotoSansMath-Regular-64" transform="translate(126.779976 -15.484375) scale(0.7)"/>
      <use xlink:href="#NotoSansMath-Regular-2c" transform="translate(169.829965 -15.484375) scale(0.7)"/>
      <use xlink:href="#NotoSansMath-Regular-70" transform="translate(201.679955 -15.484375) scale(0.7)"/>
      <use xlink:href="#NotoSansMath-Regular-73" transform="translate(244.729944 -15.484375) scale(0.7)"/>
     </g>
    </g>
    <g id="line2d_20">
     <path d="M 244.809986 13.637517 
L 250.309986 13.637517 
L 255.809986 13.637517 
" style="fill: none; stroke: #9333ea; stroke-width: 0.5; stroke-linecap: square"/>
    </g>
    <g id="text_18">
     <!-- $X_{conv,ps}$ -->
     <g transform="translate(257.459986 15.562517) scale(0.055 -0.055)">
      <defs>
       <path id="NotoSansMath-Regular-76" d="M 1299 0 
L 0 3430 
L 602 3430 
L 1331 1408 
Q 1382 1267 1440 1094 
Q 1498 922 1542 765 
Q 1587 608 1606 499 
L 1632 499 
Q 1658 608 1706 768 
Q 1754 928 1814 1101 
Q 1875 1274 1920 1408 
L 2650 3430 
L 3251 3430 
L 1946 0 
L 1299 0 
z
" transform="scale(0.015625)"/>
      </defs>
      <use xlink:href="#NotoSansMath-Regular-58" transform="translate(0 0.59375)"/>
      <use xlink:href="#NotoSansMath-Regular-63" transform="translate(58.599991 -15.484375) scale(0.7)"/>
      <use xlink:href="#NotoSansMath-Regular-6f" transform="translate(92.19998 -15.484375) scale(0.7)"/>
      <use xlink:href="#NotoSansMath-Regular-6e" transform="translate(134.549969 -15.484375) scale(0.7)"/>
      <use xlink:href="#NotoSansMath-Regular-76" transform="translate(177.809961 -15.484375) scale(0.7)"/>
      <use xlink:href="#NotoSansMath-Regular-2c" transform="translate(213.369952 -15.484375) scale(0.7)"/>
      <use xlink:href="#NotoSansMath-Regular-70" transform="translate(245.219942 -15.484375) scale(0.7)"/>
      <use xlink:href="#NotoSansMath-Regular-73" transform="translate(288.269931 -15.484375) scale(0.7)"/>
     </g>
    </g>
   </g>
  </g>
 </g>
 <defs>
  <clipPath id="pfc53df0685">
   <rect x="28.012637" y="8.687517" width="250.072348" height="82.021145"/>
  </clipPath>
 </defs>
</svg>
