<?xml version="1.0" encoding="utf-8" standalone="no"?>
<!DOCTYPE svg PUBLIC "-//W3C//DTD SVG 1.1//EN"
  "http://www.w3.org/Graphics/SVG/1.1/DTD/svg11.dtd">
<svg xmlns:xlink="http://www.w3.org/1999/xlink" width="226.771654pt" height="170.07874pt" viewBox="0 0 226.771654 170.07874" xmlns="http://www.w3.org/2000/svg" version="1.1">
 <metadata>
  <rdf:RDF xmlns:dc="http://purl.org/dc/elements/1.1/" xmlns:cc="http://creativecommons.org/ns#" xmlns:rdf="http://www.w3.org/1999/02/22-rdf-syntax-ns#">
   <cc:Work>
    <dc:type rdf:resource="http://purl.org/dc/dcmitype/StillImage"/>
    <dc:date>2025-09-12T15:13:18.959867</dc:date>
    <dc:format>image/svg+xml</dc:format>
    <dc:creator>
     <cc:Agent>
      <dc:title>Matplotlib v3.10.3, https://matplotlib.org/</dc:title>
     </cc:Agent>
    </dc:creator>
   </cc:Work>
  </rdf:RDF>
 </metadata>
 <defs>
  <style type="text/css">*{stroke-linejoin: round; stroke-linecap: butt}</style>
 </defs>
 <g id="figure_1">
  <g id="patch_1">
   <path d="M 0 170.07874 
L 226.771654 170.07874 
L 226.771654 0 
L 0 0 
L 0 170.07874 
z
" style="fill: none"/>
  </g>
  <g id="axes_1">
   <g id="patch_2">
    <path d="M 45.191895 135.481365 
L 220.728029 135.481365 
L 220.728029 6.413712 
L 45.191895 6.413712 
L 45.191895 135.481365 
z
" style="fill: none"/>
   </g>
   <g id="patch_3">
    <path d="M 53.051722 135.481365 
L 63.531492 135.481365 
L 63.531492 24.160514 
L 53.051722 24.160514 
z
" clip-path="url(#pc489befccc)" style="fill: #69db7c"/>
   </g>
   <g id="patch_4">
    <path d="M 87.110972 135.481365 
L 97.590741 135.481365 
L 97.590741 38.680625 
L 87.110972 38.680625 
z
" clip-path="url(#pc489befccc)" style="fill: #69db7c"/>
   </g>
   <g id="patch_5">
    <path d="M 121.170222 135.481365 
L 131.649991 135.481365 
L 131.649991 51.58739 
L 121.170222 51.58739 
z
" clip-path="url(#pc489befccc)" style="fill: #69db7c"/>
   </g>
   <g id="patch_6">
    <path d="M 155.229472 135.481365 
L 165.709241 135.481365 
L 165.709241 62.88081 
L 155.229472 62.88081 
z
" clip-path="url(#pc489befccc)" style="fill: #69db7c"/>
   </g>
   <g id="patch_7">
    <path d="M 189.288722 135.481365 
L 199.768491 135.481365 
L 199.768491 72.560884 
L 189.288722 72.560884 
z
" clip-path="url(#pc489befccc)" style="fill: #69db7c"/>
   </g>
   <g id="patch_8">
    <path d="M 66.151434 135.481365 
L 76.631203 135.481365 
L 76.631203 66.107501 
L 66.151434 66.107501 
z
" clip-path="url(#pc489befccc)" style="fill: #fcc419"/>
   </g>
   <g id="patch_9">
    <path d="M 100.210684 135.481365 
L 110.690453 135.481365 
L 110.690453 74.17423 
L 100.210684 74.17423 
z
" clip-path="url(#pc489befccc)" style="fill: #fcc419"/>
   </g>
   <g id="patch_10">
    <path d="M 134.269934 135.481365 
L 144.749703 135.481365 
L 144.749703 80.627612 
L 134.269934 80.627612 
z
" clip-path="url(#pc489befccc)" style="fill: #fcc419"/>
   </g>
   <g id="patch_11">
    <path d="M 168.329183 135.481365 
L 178.808953 135.481365 
L 178.808953 85.467649 
L 168.329183 85.467649 
z
" clip-path="url(#pc489befccc)" style="fill: #fcc419"/>
   </g>
   <g id="patch_12">
    <path d="M 202.388433 135.481365 
L 212.868202 135.481365 
L 212.868202 88.694341 
L 202.388433 88.694341 
z
" clip-path="url(#pc489befccc)" style="fill: #fcc419"/>
   </g>
   <g id="patch_13">
    <path d="M 45.191895 135.481365 
L 45.191895 6.413712 
" style="fill: none; stroke: #000000; stroke-width: 0.3; stroke-linejoin: miter; stroke-linecap: square"/>
   </g>
   <g id="patch_14">
    <path d="M 45.191895 135.481365 
L 220.728029 135.481365 
" style="fill: none; stroke: #000000; stroke-width: 0.3; stroke-linejoin: miter; stroke-linecap: square"/>
   </g>
   <g id="matplotlib.axis_1">
    <g id="xtick_1">
     <g id="line2d_1"/>
     <g id="text_1">
      <!-- 2011 -->
      <g transform="translate(55.973963 143.981365) scale(0.08 -0.08)">
       <defs>
        <path id="Roboto-Light-32" d="M 3278 0 
L 428 0 
L 428 288 
L 1988 2056 
Q 2375 2503 2525 2793 
Q 2675 3084 2675 3359 
Q 2675 3791 2422 4042 
Q 2169 4294 1725 4294 
Q 1266 4294 983 4000 
Q 700 3706 700 3238 
L 328 3238 
Q 328 3622 501 3937 
Q 675 4253 995 4433 
Q 1316 4613 1725 4613 
Q 2350 4613 2701 4284 
Q 3053 3956 3053 3391 
Q 3053 3072 2854 2694 
Q 2656 2316 2156 1750 
L 888 316 
L 3278 316 
L 3278 0 
z
" transform="scale(0.015625)"/>
        <path id="Roboto-Light-30" d="M 3172 1897 
Q 3172 934 2819 435 
Q 2466 -63 1778 -63 
Q 1103 -63 743 426 
Q 384 916 375 1850 
L 375 2666 
Q 375 3625 731 4119 
Q 1088 4613 1772 4613 
Q 2447 4613 2803 4136 
Q 3159 3659 3172 2731 
L 3172 1897 
z
M 2797 2713 
Q 2797 3494 2542 3894 
Q 2288 4294 1772 4294 
Q 1266 4294 1009 3903 
Q 753 3513 747 2750 
L 747 1856 
Q 747 1078 1011 665 
Q 1275 253 1778 253 
Q 2278 253 2536 656 
Q 2794 1059 2797 1838 
L 2797 2713 
z
" transform="scale(0.015625)"/>
        <path id="Roboto-Light-31" d="M 2169 0 
L 1794 0 
L 1794 4100 
L 556 3641 
L 556 3991 
L 2106 4566 
L 2169 4566 
L 2169 0 
z
" transform="scale(0.015625)"/>
       </defs>
       <use xlink:href="#Roboto-Light-32"/>
       <use xlink:href="#Roboto-Light-30" transform="translate(55.419922 0)"/>
       <use xlink:href="#Roboto-Light-31" transform="translate(110.839844 0)"/>
       <use xlink:href="#Roboto-Light-31" transform="translate(166.259766 0)"/>
      </g>
     </g>
    </g>
    <g id="xtick_2">
     <g id="line2d_2"/>
     <g id="text_2">
      <!-- 2015 -->
      <g transform="translate(90.033213 143.981365) scale(0.08 -0.08)">
       <defs>
        <path id="Roboto-Light-35" d="M 681 2331 
L 903 4550 
L 3178 4550 
L 3178 4203 
L 1225 4203 
L 1066 2666 
Q 1431 2916 1922 2916 
Q 2538 2916 2903 2516 
Q 3269 2116 3269 1450 
Q 3269 731 2912 334 
Q 2556 -63 1909 -63 
Q 1316 -63 947 268 
Q 578 600 525 1197 
L 884 1197 
Q 938 731 1200 492 
Q 1463 253 1909 253 
Q 2397 253 2645 562 
Q 2894 872 2894 1444 
Q 2894 1944 2616 2259 
Q 2338 2575 1856 2575 
Q 1591 2575 1394 2508 
Q 1197 2441 978 2247 
L 681 2331 
z
" transform="scale(0.015625)"/>
       </defs>
       <use xlink:href="#Roboto-Light-32"/>
       <use xlink:href="#Roboto-Light-30" transform="translate(55.419922 0)"/>
       <use xlink:href="#Roboto-Light-31" transform="translate(110.839844 0)"/>
       <use xlink:href="#Roboto-Light-35" transform="translate(166.259766 0)"/>
      </g>
     </g>
    </g>
    <g id="xtick_3">
     <g id="line2d_3"/>
     <g id="text_3">
      <!-- 2020 -->
      <g transform="translate(124.092462 143.981365) scale(0.08 -0.08)">
       <use xlink:href="#Roboto-Light-32"/>
       <use xlink:href="#Roboto-Light-30" transform="translate(55.419922 0)"/>
       <use xlink:href="#Roboto-Light-32" transform="translate(110.839844 0)"/>
       <use xlink:href="#Roboto-Light-30" transform="translate(166.259766 0)"/>
      </g>
     </g>
    </g>
    <g id="xtick_4">
     <g id="line2d_4"/>
     <g id="text_4">
      <!-- 2025 -->
      <g transform="translate(158.151712 143.981365) scale(0.08 -0.08)">
       <use xlink:href="#Roboto-Light-32"/>
       <use xlink:href="#Roboto-Light-30" transform="translate(55.419922 0)"/>
       <use xlink:href="#Roboto-Light-32" transform="translate(110.839844 0)"/>
       <use xlink:href="#Roboto-Light-35" transform="translate(166.259766 0)"/>
      </g>
     </g>
    </g>
    <g id="xtick_5">
     <g id="line2d_5"/>
     <g id="text_5">
      <!-- 2030 -->
      <g transform="translate(192.210962 143.981365) scale(0.08 -0.08)">
       <defs>
        <path id="Roboto-Light-33" d="M 1259 2478 
L 1647 2478 
Q 1969 2478 2209 2592 
Q 2450 2706 2576 2904 
Q 2703 3103 2703 3363 
Q 2703 3800 2456 4047 
Q 2209 4294 1747 4294 
Q 1309 4294 1029 4036 
Q 750 3778 750 3356 
L 375 3356 
Q 375 3709 553 4001 
Q 731 4294 1047 4453 
Q 1363 4613 1747 4613 
Q 2366 4613 2722 4275 
Q 3078 3938 3078 3350 
Q 3078 3022 2870 2745 
Q 2663 2469 2300 2331 
Q 2725 2213 2944 1923 
Q 3163 1634 3163 1234 
Q 3163 650 2781 293 
Q 2400 -63 1763 -63 
Q 1356 -63 1017 100 
Q 678 263 492 555 
Q 306 847 306 1234 
L 681 1234 
Q 681 800 984 526 
Q 1288 253 1763 253 
Q 2247 253 2517 501 
Q 2788 750 2788 1222 
Q 2788 1678 2495 1918 
Q 2203 2159 1634 2159 
L 1259 2159 
L 1259 2478 
z
" transform="scale(0.015625)"/>
       </defs>
       <use xlink:href="#Roboto-Light-32"/>
       <use xlink:href="#Roboto-Light-30" transform="translate(55.419922 0)"/>
       <use xlink:href="#Roboto-Light-33" transform="translate(110.839844 0)"/>
       <use xlink:href="#Roboto-Light-30" transform="translate(166.259766 0)"/>
      </g>
     </g>
    </g>
    <g id="text_6">
     <!-- Year -->
     <g transform="translate(124.017619 162.356365) scale(0.09 -0.09)">
      <defs>
       <path id="Roboto-Light-59" d="M 1909 2069 
L 3300 4550 
L 3744 4550 
L 2100 1713 
L 2100 0 
L 1716 0 
L 1716 1713 
L 75 4550 
L 531 4550 
L 1909 2069 
z
" transform="scale(0.015625)"/>
       <path id="Roboto-Light-65" d="M 1797 -63 
Q 1366 -63 1017 150 
Q 669 363 475 742 
Q 281 1122 281 1594 
L 281 1728 
Q 281 2216 470 2606 
Q 659 2997 996 3220 
Q 1334 3444 1728 3444 
Q 2344 3444 2705 3023 
Q 3066 2603 3066 1875 
L 3066 1666 
L 653 1666 
L 653 1594 
Q 653 1019 983 636 
Q 1313 253 1813 253 
Q 2113 253 2342 362 
Q 2572 472 2759 713 
L 2994 534 
Q 2581 -63 1797 -63 
z
M 1728 3125 
Q 1306 3125 1017 2815 
Q 728 2506 666 1984 
L 2694 1984 
L 2694 2025 
Q 2678 2513 2415 2819 
Q 2153 3125 1728 3125 
z
" transform="scale(0.015625)"/>
       <path id="Roboto-Light-61" d="M 2622 0 
Q 2566 159 2550 472 
Q 2353 216 2048 76 
Q 1744 -63 1403 -63 
Q 916 -63 614 209 
Q 313 481 313 897 
Q 313 1391 723 1678 
Q 1134 1966 1869 1966 
L 2547 1966 
L 2547 2350 
Q 2547 2713 2323 2920 
Q 2100 3128 1672 3128 
Q 1281 3128 1025 2928 
Q 769 2728 769 2447 
L 394 2450 
Q 394 2853 769 3148 
Q 1144 3444 1691 3444 
Q 2256 3444 2582 3161 
Q 2909 2878 2919 2372 
L 2919 772 
Q 2919 281 3022 38 
L 3022 0 
L 2622 0 
z
M 1447 269 
Q 1822 269 2117 450 
Q 2413 631 2547 934 
L 2547 1678 
L 1878 1678 
Q 1319 1672 1003 1473 
Q 688 1275 688 928 
Q 688 644 898 456 
Q 1109 269 1447 269 
z
" transform="scale(0.015625)"/>
       <path id="Roboto-Light-72" d="M 2050 3063 
Q 1931 3084 1797 3084 
Q 1447 3084 1205 2889 
Q 963 2694 859 2322 
L 859 0 
L 488 0 
L 488 3381 
L 853 3381 
L 859 2844 
Q 1156 3444 1813 3444 
Q 1969 3444 2059 3403 
L 2050 3063 
z
" transform="scale(0.015625)"/>
      </defs>
      <use xlink:href="#Roboto-Light-59"/>
      <use xlink:href="#Roboto-Light-65" transform="translate(59.863281 0)"/>
      <use xlink:href="#Roboto-Light-61" transform="translate(111.523438 0)"/>
      <use xlink:href="#Roboto-Light-72" transform="translate(165.087891 0)"/>
     </g>
    </g>
   </g>
   <g id="matplotlib.axis_2">
    <g id="ytick_1">
     <g id="line2d_6">
      <defs>
       <path id="m3f30cacad2" d="M 0 0 
L -2.5 0 
" style="stroke: #000000; stroke-width: 0.3"/>
      </defs>
      <g>
       <use xlink:href="#m3f30cacad2" x="45.191895" y="135.481365" style="stroke: #000000; stroke-width: 0.3"/>
      </g>
     </g>
     <g id="text_7">
      <!-- 0 -->
      <g transform="translate(35.758145 138.481365) scale(0.08 -0.08)">
       <use xlink:href="#Roboto-Light-30"/>
      </g>
     </g>
    </g>
    <g id="ytick_2">
     <g id="line2d_7">
      <g>
       <use xlink:href="#m3f30cacad2" x="45.191895" y="103.214452" style="stroke: #000000; stroke-width: 0.3"/>
      </g>
     </g>
     <g id="text_8">
      <!-- 100 -->
      <g transform="translate(26.890645 106.214452) scale(0.08 -0.08)">
       <use xlink:href="#Roboto-Light-31"/>
       <use xlink:href="#Roboto-Light-30" transform="translate(55.419922 0)"/>
       <use xlink:href="#Roboto-Light-30" transform="translate(110.839844 0)"/>
      </g>
     </g>
    </g>
    <g id="ytick_3">
     <g id="line2d_8">
      <g>
       <use xlink:href="#m3f30cacad2" x="45.191895" y="70.947538" style="stroke: #000000; stroke-width: 0.3"/>
      </g>
     </g>
     <g id="text_9">
      <!-- 200 -->
      <g transform="translate(26.890645 73.947538) scale(0.08 -0.08)">
       <use xlink:href="#Roboto-Light-32"/>
       <use xlink:href="#Roboto-Light-30" transform="translate(55.419922 0)"/>
       <use xlink:href="#Roboto-Light-30" transform="translate(110.839844 0)"/>
      </g>
     </g>
    </g>
    <g id="ytick_4">
     <g id="line2d_9">
      <g>
       <use xlink:href="#m3f30cacad2" x="45.191895" y="38.680625" style="stroke: #000000; stroke-width: 0.3"/>
      </g>
     </g>
     <g id="text_10">
      <!-- 300 -->
      <g transform="translate(26.890645 41.680625) scale(0.08 -0.08)">
       <use xlink:href="#Roboto-Light-33"/>
       <use xlink:href="#Roboto-Light-30" transform="translate(55.419922 0)"/>
       <use xlink:href="#Roboto-Light-30" transform="translate(110.839844 0)"/>
      </g>
     </g>
    </g>
    <g id="ytick_5">
     <g id="line2d_10">
      <g>
       <use xlink:href="#m3f30cacad2" x="45.191895" y="6.413712" style="stroke: #000000; stroke-width: 0.3"/>
      </g>
     </g>
     <g id="text_11">
      <!-- 400 -->
      <g transform="translate(26.890645 9.413712) scale(0.08 -0.08)">
       <defs>
        <path id="Roboto-Light-34" d="M 2725 1466 
L 3434 1466 
L 3434 1150 
L 2725 1150 
L 2725 0 
L 2350 0 
L 2350 1150 
L 209 1150 
L 209 1363 
L 2316 4550 
L 2725 4550 
L 2725 1466 
z
M 669 1466 
L 2350 1466 
L 2350 4066 
L 2184 3778 
L 669 1466 
z
" transform="scale(0.015625)"/>
       </defs>
       <use xlink:href="#Roboto-Light-34"/>
       <use xlink:href="#Roboto-Light-30" transform="translate(55.419922 0)"/>
       <use xlink:href="#Roboto-Light-30" transform="translate(110.839844 0)"/>
      </g>
     </g>
    </g>
    <g id="text_12">
     <!-- Energy use per area [kWh/m$^2$] -->
     <g transform="translate(14.910645 129.447538) rotate(-90) scale(0.09 -0.09)">
      <defs>
       <path id="Roboto-Light-45" d="M 3088 2181 
L 959 2181 
L 959 325 
L 3406 325 
L 3406 0 
L 575 0 
L 575 4550 
L 3391 4550 
L 3391 4222 
L 959 4222 
L 959 2506 
L 3088 2506 
L 3088 2181 
z
" transform="scale(0.015625)"/>
       <path id="Roboto-Light-6e" d="M 844 3381 
L 856 2803 
Q 1047 3116 1331 3280 
Q 1616 3444 1959 3444 
Q 2503 3444 2768 3137 
Q 3034 2831 3038 2219 
L 3038 0 
L 2666 0 
L 2666 2222 
Q 2663 2675 2473 2897 
Q 2284 3119 1869 3119 
Q 1522 3119 1255 2901 
Q 988 2684 859 2316 
L 859 0 
L 488 0 
L 488 3381 
L 844 3381 
z
" transform="scale(0.015625)"/>
       <path id="Roboto-Light-67" d="M 338 1722 
Q 338 2516 689 2980 
Q 1041 3444 1644 3444 
Q 2334 3444 2694 2894 
L 2713 3381 
L 3063 3381 
L 3063 69 
Q 3063 -584 2697 -965 
Q 2331 -1347 1706 -1347 
Q 1353 -1347 1033 -1189 
Q 713 -1031 528 -769 
L 738 -544 
Q 1134 -1031 1681 -1031 
Q 2150 -1031 2412 -754 
Q 2675 -478 2684 13 
L 2684 438 
Q 2325 -63 1638 -63 
Q 1050 -63 694 406 
Q 338 875 338 1672 
L 338 1722 
z
M 716 1656 
Q 716 1009 975 636 
Q 1234 263 1706 263 
Q 2397 263 2684 881 
L 2684 2453 
Q 2553 2778 2306 2948 
Q 2059 3119 1713 3119 
Q 1241 3119 978 2748 
Q 716 2378 716 1656 
z
" transform="scale(0.015625)"/>
       <path id="Roboto-Light-79" d="M 1559 538 
L 2547 3381 
L 2950 3381 
L 1506 -575 
L 1431 -750 
Q 1153 -1366 572 -1366 
Q 438 -1366 284 -1322 
L 281 -1013 
L 475 -1031 
Q 750 -1031 920 -895 
Q 1091 -759 1209 -428 
L 1375 28 
L 100 3381 
L 509 3381 
L 1559 538 
z
" transform="scale(0.015625)"/>
       <path id="Roboto-Light-20" transform="scale(0.015625)"/>
       <path id="Roboto-Light-75" d="M 2663 428 
Q 2325 -63 1584 -63 
Q 1044 -63 762 251 
Q 481 566 475 1181 
L 475 3381 
L 847 3381 
L 847 1228 
Q 847 263 1628 263 
Q 2441 263 2656 934 
L 2656 3381 
L 3031 3381 
L 3031 0 
L 2669 0 
L 2663 428 
z
" transform="scale(0.015625)"/>
       <path id="Roboto-Light-73" d="M 2513 859 
Q 2513 1138 2289 1306 
Q 2066 1475 1616 1570 
Q 1166 1666 917 1789 
Q 669 1913 548 2091 
Q 428 2269 428 2522 
Q 428 2922 762 3183 
Q 1097 3444 1619 3444 
Q 2184 3444 2526 3164 
Q 2869 2884 2869 2434 
L 2494 2434 
Q 2494 2731 2245 2928 
Q 1997 3125 1619 3125 
Q 1250 3125 1026 2961 
Q 803 2797 803 2534 
Q 803 2281 989 2142 
Q 1175 2003 1667 1887 
Q 2159 1772 2404 1640 
Q 2650 1509 2769 1325 
Q 2888 1141 2888 878 
Q 2888 450 2542 193 
Q 2197 -63 1641 -63 
Q 1050 -63 683 223 
Q 316 509 316 947 
L 691 947 
Q 713 619 967 436 
Q 1222 253 1641 253 
Q 2031 253 2272 425 
Q 2513 597 2513 859 
z
" transform="scale(0.015625)"/>
       <path id="Roboto-Light-70" d="M 3206 1656 
Q 3206 866 2856 401 
Q 2506 -63 1919 -63 
Q 1225 -63 856 425 
L 856 -1300 
L 484 -1300 
L 484 3381 
L 831 3381 
L 850 2903 
Q 1216 3444 1909 3444 
Q 2516 3444 2861 2984 
Q 3206 2525 3206 1709 
L 3206 1656 
z
M 2831 1722 
Q 2831 2369 2565 2744 
Q 2300 3119 1825 3119 
Q 1481 3119 1234 2953 
Q 988 2788 856 2472 
L 856 850 
Q 991 559 1241 406 
Q 1491 253 1831 253 
Q 2303 253 2567 629 
Q 2831 1006 2831 1722 
z
" transform="scale(0.015625)"/>
       <path id="Roboto-Light-5b" d="M 1541 4881 
L 884 4881 
L 884 -656 
L 1541 -656 
L 1541 -975 
L 509 -975 
L 509 5200 
L 1541 5200 
L 1541 4881 
z
" transform="scale(0.015625)"/>
       <path id="Roboto-Light-6b" d="M 1291 1703 
L 863 1291 
L 863 0 
L 488 0 
L 488 4800 
L 863 4800 
L 863 1728 
L 1216 2109 
L 2509 3381 
L 2981 3381 
L 1547 1956 
L 3106 0 
L 2659 0 
L 1291 1703 
z
" transform="scale(0.015625)"/>
       <path id="Roboto-Light-57" d="M 1416 1228 
L 1556 522 
L 1728 1197 
L 2716 4550 
L 3063 4550 
L 4038 1197 
L 4206 516 
L 4356 1228 
L 5178 4550 
L 5572 4550 
L 4406 0 
L 4038 0 
L 3006 3559 
L 2891 4009 
L 2778 3559 
L 1722 0 
L 1353 0 
L 191 4550 
L 584 4550 
L 1416 1228 
z
" transform="scale(0.015625)"/>
       <path id="Roboto-Light-68" d="M 859 2809 
Q 1044 3113 1331 3278 
Q 1619 3444 1959 3444 
Q 2503 3444 2768 3137 
Q 3034 2831 3038 2219 
L 3038 0 
L 2666 0 
L 2666 2222 
Q 2663 2675 2473 2897 
Q 2284 3119 1869 3119 
Q 1522 3119 1255 2901 
Q 988 2684 859 2316 
L 859 0 
L 488 0 
L 488 4800 
L 859 4800 
L 859 2809 
z
" transform="scale(0.015625)"/>
       <path id="Roboto-Light-2f" d="M 434 -391 
L 94 -391 
L 1994 4550 
L 2331 4550 
L 434 -391 
z
" transform="scale(0.015625)"/>
       <path id="Roboto-Light-6d" d="M 828 3381 
L 841 2831 
Q 1028 3138 1309 3291 
Q 1591 3444 1934 3444 
Q 2734 3444 2950 2788 
Q 3131 3103 3434 3273 
Q 3738 3444 4103 3444 
Q 5191 3444 5213 2256 
L 5213 0 
L 4838 0 
L 4838 2228 
Q 4834 2681 4642 2900 
Q 4450 3119 4016 3119 
Q 3613 3113 3334 2858 
Q 3056 2603 3025 2238 
L 3025 0 
L 2650 0 
L 2650 2256 
Q 2647 2691 2445 2905 
Q 2244 3119 1825 3119 
Q 1472 3119 1219 2917 
Q 966 2716 844 2319 
L 844 0 
L 469 0 
L 469 3381 
L 828 3381 
z
" transform="scale(0.015625)"/>
       <path id="Roboto-Light-5d" d="M 0 5200 
L 1034 5200 
L 1034 -975 
L 0 -975 
L 0 -656 
L 659 -656 
L 659 4881 
L 0 4881 
L 0 5200 
z
" transform="scale(0.015625)"/>
      </defs>
      <use xlink:href="#Roboto-Light-45" transform="translate(0 0.565625)"/>
      <use xlink:href="#Roboto-Light-6e" transform="translate(56.884766 0.565625)"/>
      <use xlink:href="#Roboto-Light-65" transform="translate(111.816406 0.565625)"/>
      <use xlink:href="#Roboto-Light-72" transform="translate(163.476562 0.565625)"/>
      <use xlink:href="#Roboto-Light-67" transform="translate(197.119141 0.565625)"/>
      <use xlink:href="#Roboto-Light-79" transform="translate(252.587891 0.565625)"/>
      <use xlink:href="#Roboto-Light-20" transform="translate(300.097656 0.565625)"/>
      <use xlink:href="#Roboto-Light-75" transform="translate(324.414062 0.565625)"/>
      <use xlink:href="#Roboto-Light-73" transform="translate(379.345703 0.565625)"/>
      <use xlink:href="#Roboto-Light-65" transform="translate(429.980469 0.565625)"/>
      <use xlink:href="#Roboto-Light-20" transform="translate(481.640625 0.565625)"/>
      <use xlink:href="#Roboto-Light-70" transform="translate(505.957031 0.565625)"/>
      <use xlink:href="#Roboto-Light-65" transform="translate(561.376953 0.565625)"/>
      <use xlink:href="#Roboto-Light-72" transform="translate(613.037109 0.565625)"/>
      <use xlink:href="#Roboto-Light-20" transform="translate(646.679688 0.565625)"/>
      <use xlink:href="#Roboto-Light-61" transform="translate(670.996094 0.565625)"/>
      <use xlink:href="#Roboto-Light-72" transform="translate(724.560547 0.565625)"/>
      <use xlink:href="#Roboto-Light-65" transform="translate(758.203125 0.565625)"/>
      <use xlink:href="#Roboto-Light-61" transform="translate(809.863281 0.565625)"/>
      <use xlink:href="#Roboto-Light-20" transform="translate(863.427734 0.565625)"/>
      <use xlink:href="#Roboto-Light-5b" transform="translate(887.744141 0.565625)"/>
      <use xlink:href="#Roboto-Light-6b" transform="translate(911.71875 0.565625)"/>
      <use xlink:href="#Roboto-Light-57" transform="translate(960.693359 0.565625)"/>
      <use xlink:href="#Roboto-Light-68" transform="translate(1050.341797 0.565625)"/>
      <use xlink:href="#Roboto-Light-2f" transform="translate(1105.224609 0.565625)"/>
      <use xlink:href="#Roboto-Light-6d" transform="translate(1144.921875 0.565625)"/>
      <use xlink:href="#Roboto-Light-32" transform="translate(1234.469414 37.545313) scale(0.7)"/>
      <use xlink:href="#Roboto-Light-5d" transform="translate(1275.904766 0.565625)"/>
     </g>
    </g>
   </g>
   <g id="text_13">
    <!-- 345 -->
    <g transform="translate(52.971107 22.860514) scale(0.064 -0.064)">
     <use xlink:href="#Roboto-Light-33"/>
     <use xlink:href="#Roboto-Light-34" transform="translate(55.419922 0)"/>
     <use xlink:href="#Roboto-Light-35" transform="translate(110.839844 0)"/>
    </g>
   </g>
   <g id="text_14">
    <!-- 300 -->
    <g transform="translate(87.030357 37.380625) scale(0.064 -0.064)">
     <use xlink:href="#Roboto-Light-33"/>
     <use xlink:href="#Roboto-Light-30" transform="translate(55.419922 0)"/>
     <use xlink:href="#Roboto-Light-30" transform="translate(110.839844 0)"/>
    </g>
   </g>
   <g id="text_15">
    <!-- 260 -->
    <g transform="translate(121.089607 50.28739) scale(0.064 -0.064)">
     <defs>
      <path id="Roboto-Light-36" d="M 2634 4584 
L 2634 4256 
L 2591 4256 
Q 1775 4256 1306 3776 
Q 838 3297 788 2444 
Q 975 2703 1265 2845 
Q 1556 2988 1916 2988 
Q 2516 2988 2870 2573 
Q 3225 2159 3225 1491 
Q 3225 1047 3059 690 
Q 2894 334 2584 135 
Q 2275 -63 1878 -63 
Q 1225 -63 815 410 
Q 406 884 406 1634 
L 406 2009 
Q 406 3231 962 3901 
Q 1519 4572 2541 4584 
L 2634 4584 
z
M 1856 2666 
Q 1500 2666 1192 2455 
Q 884 2244 781 1919 
L 781 1600 
Q 781 1006 1086 631 
Q 1391 256 1878 256 
Q 2316 256 2586 603 
Q 2856 950 2856 1478 
Q 2856 2016 2586 2341 
Q 2316 2666 1856 2666 
z
" transform="scale(0.015625)"/>
     </defs>
     <use xlink:href="#Roboto-Light-32"/>
     <use xlink:href="#Roboto-Light-36" transform="translate(55.419922 0)"/>
     <use xlink:href="#Roboto-Light-30" transform="translate(110.839844 0)"/>
    </g>
   </g>
   <g id="text_16">
    <!-- 225 -->
    <g transform="translate(155.148856 61.58081) scale(0.064 -0.064)">
     <use xlink:href="#Roboto-Light-32"/>
     <use xlink:href="#Roboto-Light-32" transform="translate(55.419922 0)"/>
     <use xlink:href="#Roboto-Light-35" transform="translate(110.839844 0)"/>
    </g>
   </g>
   <g id="text_17">
    <!-- 195 -->
    <g transform="translate(189.208106 71.260884) scale(0.064 -0.064)">
     <defs>
      <path id="Roboto-Light-39" d="M 2763 2106 
Q 2563 1813 2266 1652 
Q 1969 1491 1622 1491 
Q 1234 1491 937 1691 
Q 641 1891 478 2244 
Q 316 2597 316 3016 
Q 316 3466 489 3834 
Q 663 4203 973 4408 
Q 1284 4613 1691 4613 
Q 2375 4613 2756 4133 
Q 3138 3653 3138 2772 
L 3138 2434 
Q 3138 1203 2613 584 
Q 2088 -34 1009 -34 
L 941 -34 
L 944 291 
L 1075 291 
Q 1891 303 2316 753 
Q 2741 1203 2763 2106 
z
M 1669 1813 
Q 2044 1813 2342 2036 
Q 2641 2259 2766 2616 
L 2766 2831 
Q 2766 3525 2477 3908 
Q 2188 4291 1697 4291 
Q 1253 4291 968 3933 
Q 684 3575 684 3031 
Q 684 2509 957 2161 
Q 1231 1813 1669 1813 
z
" transform="scale(0.015625)"/>
     </defs>
     <use xlink:href="#Roboto-Light-31"/>
     <use xlink:href="#Roboto-Light-39" transform="translate(55.419922 0)"/>
     <use xlink:href="#Roboto-Light-35" transform="translate(110.839844 0)"/>
    </g>
   </g>
   <g id="text_18">
    <!-- 215 -->
    <g transform="translate(66.070818 64.807501) scale(0.064 -0.064)">
     <use xlink:href="#Roboto-Light-32"/>
     <use xlink:href="#Roboto-Light-31" transform="translate(55.419922 0)"/>
     <use xlink:href="#Roboto-Light-35" transform="translate(110.839844 0)"/>
    </g>
   </g>
   <g id="text_19">
    <!-- 190 -->
    <g transform="translate(100.130068 72.87423) scale(0.064 -0.064)">
     <use xlink:href="#Roboto-Light-31"/>
     <use xlink:href="#Roboto-Light-39" transform="translate(55.419922 0)"/>
     <use xlink:href="#Roboto-Light-30" transform="translate(110.839844 0)"/>
    </g>
   </g>
   <g id="text_20">
    <!-- 170 -->
    <g transform="translate(134.189318 79.327612) scale(0.064 -0.064)">
     <defs>
      <path id="Roboto-Light-37" d="M 3231 4334 
L 1288 0 
L 897 0 
L 2828 4231 
L 241 4231 
L 241 4550 
L 3231 4550 
L 3231 4334 
z
" transform="scale(0.015625)"/>
     </defs>
     <use xlink:href="#Roboto-Light-31"/>
     <use xlink:href="#Roboto-Light-37" transform="translate(55.419922 0)"/>
     <use xlink:href="#Roboto-Light-30" transform="translate(110.839844 0)"/>
    </g>
   </g>
   <g id="text_21">
    <!-- 155 -->
    <g transform="translate(168.248568 84.167649) scale(0.064 -0.064)">
     <use xlink:href="#Roboto-Light-31"/>
     <use xlink:href="#Roboto-Light-35" transform="translate(55.419922 0)"/>
     <use xlink:href="#Roboto-Light-35" transform="translate(110.839844 0)"/>
    </g>
   </g>
   <g id="text_22">
    <!-- 145 -->
    <g transform="translate(202.307818 87.394341) scale(0.064 -0.064)">
     <use xlink:href="#Roboto-Light-31"/>
     <use xlink:href="#Roboto-Light-34" transform="translate(55.419922 0)"/>
     <use xlink:href="#Roboto-Light-35" transform="translate(110.839844 0)"/>
    </g>
   </g>
   <g id="legend_1">
    <g id="patch_15">
     <path d="M 148.615529 13.913712 
L 157.615529 13.913712 
L 157.615529 9.713712 
L 148.615529 9.713712 
z
" style="fill: #69db7c"/>
    </g>
    <g id="text_23">
     <!-- Commercial buildings -->
     <g transform="translate(160.615529 13.913712) scale(0.06 -0.06)">
      <defs>
       <path id="Roboto-Light-43" d="M 3797 1419 
Q 3719 700 3283 318 
Q 2847 -63 2122 -63 
Q 1616 -63 1227 190 
Q 838 444 625 908 
Q 413 1372 409 1969 
L 409 2559 
Q 409 3166 621 3634 
Q 834 4103 1232 4358 
Q 1631 4613 2150 4613 
Q 2881 4613 3304 4217 
Q 3728 3822 3797 3125 
L 3409 3125 
Q 3266 4284 2150 4284 
Q 1531 4284 1164 3821 
Q 797 3359 797 2544 
L 797 1988 
Q 797 1200 1155 731 
Q 1513 263 2122 263 
Q 2725 263 3031 552 
Q 3338 841 3409 1419 
L 3797 1419 
z
" transform="scale(0.015625)"/>
       <path id="Roboto-Light-6f" d="M 281 1741 
Q 281 2228 470 2618 
Q 659 3009 1004 3226 
Q 1350 3444 1788 3444 
Q 2463 3444 2881 2970 
Q 3300 2497 3300 1716 
L 3300 1638 
Q 3300 1147 3111 755 
Q 2922 363 2578 150 
Q 2234 -63 1794 -63 
Q 1122 -63 701 410 
Q 281 884 281 1666 
L 281 1741 
z
M 656 1638 
Q 656 1031 970 642 
Q 1284 253 1794 253 
Q 2300 253 2614 642 
Q 2928 1031 2928 1669 
L 2928 1741 
Q 2928 2128 2784 2450 
Q 2641 2772 2381 2948 
Q 2122 3125 1788 3125 
Q 1288 3125 972 2733 
Q 656 2341 656 1706 
L 656 1638 
z
" transform="scale(0.015625)"/>
       <path id="Roboto-Light-63" d="M 1738 253 
Q 2128 253 2392 473 
Q 2656 694 2678 1044 
L 3038 1044 
Q 3022 734 2844 479 
Q 2666 225 2370 81 
Q 2075 -63 1738 -63 
Q 1072 -63 683 400 
Q 294 863 294 1644 
L 294 1756 
Q 294 2256 469 2640 
Q 644 3025 970 3234 
Q 1297 3444 1734 3444 
Q 2291 3444 2652 3112 
Q 3013 2781 3038 2241 
L 2678 2241 
Q 2653 2638 2392 2881 
Q 2131 3125 1734 3125 
Q 1228 3125 948 2759 
Q 669 2394 669 1734 
L 669 1625 
Q 669 978 948 615 
Q 1228 253 1738 253 
z
" transform="scale(0.015625)"/>
       <path id="Roboto-Light-69" d="M 906 0 
L 531 0 
L 531 3381 
L 906 3381 
L 906 0 
z
M 466 4359 
Q 466 4466 534 4539 
Q 603 4613 722 4613 
Q 841 4613 911 4539 
Q 981 4466 981 4359 
Q 981 4253 911 4181 
Q 841 4109 722 4109 
Q 603 4109 534 4181 
Q 466 4253 466 4359 
z
" transform="scale(0.015625)"/>
       <path id="Roboto-Light-6c" d="M 906 0 
L 531 0 
L 531 4800 
L 906 4800 
L 906 0 
z
" transform="scale(0.015625)"/>
       <path id="Roboto-Light-62" d="M 3209 1656 
Q 3209 866 2859 401 
Q 2509 -63 1919 -63 
Q 1213 -63 850 463 
L 834 0 
L 484 0 
L 484 4800 
L 856 4800 
L 856 2891 
Q 1213 3444 1913 3444 
Q 2513 3444 2861 2986 
Q 3209 2528 3209 1713 
L 3209 1656 
z
M 2834 1722 
Q 2834 2391 2575 2755 
Q 2316 3119 1844 3119 
Q 1484 3119 1234 2942 
Q 984 2766 856 2425 
L 856 900 
Q 1138 263 1850 263 
Q 2313 263 2573 628 
Q 2834 994 2834 1722 
z
" transform="scale(0.015625)"/>
       <path id="Roboto-Light-64" d="M 338 1722 
Q 338 2509 689 2976 
Q 1041 3444 1644 3444 
Q 2328 3444 2688 2903 
L 2688 4800 
L 3059 4800 
L 3059 0 
L 2709 0 
L 2694 450 
Q 2334 -63 1638 -63 
Q 1053 -63 695 407 
Q 338 878 338 1678 
L 338 1722 
z
M 716 1656 
Q 716 1009 975 636 
Q 1234 263 1706 263 
Q 2397 263 2688 872 
L 2688 2459 
Q 2397 3119 1713 3119 
Q 1241 3119 978 2748 
Q 716 2378 716 1656 
z
" transform="scale(0.015625)"/>
      </defs>
      <use xlink:href="#Roboto-Light-43"/>
      <use xlink:href="#Roboto-Light-6f" transform="translate(64.941406 0)"/>
      <use xlink:href="#Roboto-Light-6d" transform="translate(120.947266 0)"/>
      <use xlink:href="#Roboto-Light-6d" transform="translate(209.570312 0)"/>
      <use xlink:href="#Roboto-Light-65" transform="translate(298.193359 0)"/>
      <use xlink:href="#Roboto-Light-72" transform="translate(349.853516 0)"/>
      <use xlink:href="#Roboto-Light-63" transform="translate(383.496094 0)"/>
      <use xlink:href="#Roboto-Light-69" transform="translate(435.009766 0)"/>
      <use xlink:href="#Roboto-Light-61" transform="translate(457.421875 0)"/>
      <use xlink:href="#Roboto-Light-6c" transform="translate(510.986328 0)"/>
      <use xlink:href="#Roboto-Light-20" transform="translate(533.398438 0)"/>
      <use xlink:href="#Roboto-Light-62" transform="translate(557.714844 0)"/>
      <use xlink:href="#Roboto-Light-75" transform="translate(613.134766 0)"/>
      <use xlink:href="#Roboto-Light-69" transform="translate(668.066406 0)"/>
      <use xlink:href="#Roboto-Light-6c" transform="translate(690.478516 0)"/>
      <use xlink:href="#Roboto-Light-64" transform="translate(712.890625 0)"/>
      <use xlink:href="#Roboto-Light-69" transform="translate(768.457031 0)"/>
      <use xlink:href="#Roboto-Light-6e" transform="translate(790.869141 0)"/>
      <use xlink:href="#Roboto-Light-67" transform="translate(845.800781 0)"/>
      <use xlink:href="#Roboto-Light-73" transform="translate(901.269531 0)"/>
     </g>
    </g>
    <g id="patch_16">
     <path d="M 148.615529 22.738399 
L 157.615529 22.738399 
L 157.615529 18.538399 
L 148.615529 18.538399 
z
" style="fill: #fcc419"/>
    </g>
    <g id="text_24">
     <!-- Multi-family housing -->
     <g transform="translate(160.615529 22.738399) scale(0.06 -0.06)">
      <defs>
       <path id="Roboto-Light-4d" d="M 1084 4550 
L 2763 534 
L 4447 4550 
L 4959 4550 
L 4959 0 
L 4575 0 
L 4575 1981 
L 4606 4013 
L 2913 0 
L 2616 0 
L 928 3997 
L 959 1994 
L 959 0 
L 575 0 
L 575 4550 
L 1084 4550 
z
" transform="scale(0.015625)"/>
       <path id="Roboto-Light-74" d="M 1069 4247 
L 1069 3381 
L 1769 3381 
L 1769 3075 
L 1069 3075 
L 1069 822 
Q 1069 541 1170 403 
Q 1272 266 1509 266 
Q 1603 266 1813 297 
L 1828 -9 
Q 1681 -63 1428 -63 
Q 1044 -63 869 160 
Q 694 384 694 819 
L 694 3075 
L 72 3075 
L 72 3381 
L 694 3381 
L 694 4247 
L 1069 4247 
z
" transform="scale(0.015625)"/>
       <path id="Roboto-Light-2d" d="M 1650 1850 
L 153 1850 
L 153 2166 
L 1650 2166 
L 1650 1850 
z
" transform="scale(0.015625)"/>
       <path id="Roboto-Light-66" d="M 756 0 
L 756 3075 
L 197 3075 
L 197 3381 
L 756 3381 
L 756 3791 
Q 756 4309 1020 4587 
Q 1284 4866 1756 4866 
Q 1969 4866 2153 4813 
L 2125 4500 
Q 1969 4538 1784 4538 
Q 1475 4538 1303 4345 
Q 1131 4153 1131 3800 
L 1131 3381 
L 1938 3381 
L 1938 3075 
L 1131 3075 
L 1131 0 
L 756 0 
z
" transform="scale(0.015625)"/>
      </defs>
      <use xlink:href="#Roboto-Light-4d"/>
      <use xlink:href="#Roboto-Light-75" transform="translate(86.523438 0)"/>
      <use xlink:href="#Roboto-Light-6c" transform="translate(141.455078 0)"/>
      <use xlink:href="#Roboto-Light-74" transform="translate(163.867188 0)"/>
      <use xlink:href="#Roboto-Light-69" transform="translate(195.996094 0)"/>
      <use xlink:href="#Roboto-Light-2d" transform="translate(218.408203 0)"/>
      <use xlink:href="#Roboto-Light-66" transform="translate(247.021484 0)"/>
      <use xlink:href="#Roboto-Light-61" transform="translate(280.126953 0)"/>
      <use xlink:href="#Roboto-Light-6d" transform="translate(333.691406 0)"/>
      <use xlink:href="#Roboto-Light-69" transform="translate(422.314453 0)"/>
      <use xlink:href="#Roboto-Light-6c" transform="translate(444.726562 0)"/>
      <use xlink:href="#Roboto-Light-79" transform="translate(467.138672 0)"/>
      <use xlink:href="#Roboto-Light-20" transform="translate(514.648438 0)"/>
      <use xlink:href="#Roboto-Light-68" transform="translate(538.964844 0)"/>
      <use xlink:href="#Roboto-Light-6f" transform="translate(593.847656 0)"/>
      <use xlink:href="#Roboto-Light-75" transform="translate(649.853516 0)"/>
      <use xlink:href="#Roboto-Light-73" transform="translate(704.785156 0)"/>
      <use xlink:href="#Roboto-Light-69" transform="translate(755.419922 0)"/>
      <use xlink:href="#Roboto-Light-6e" transform="translate(777.832031 0)"/>
      <use xlink:href="#Roboto-Light-67" transform="translate(832.763672 0)"/>
     </g>
    </g>
   </g>
  </g>
 </g>
 <defs>
  <clipPath id="pc489befccc">
   <rect x="45.191895" y="6.413712" width="175.536134" height="129.067653"/>
  </clipPath>
 </defs>
</svg>
