<?xml version="1.0" encoding="utf-8" standalone="no"?>
<!DOCTYPE svg PUBLIC "-//W3C//DTD SVG 1.1//EN"
  "http://www.w3.org/Graphics/SVG/1.1/DTD/svg11.dtd">
<svg xmlns:xlink="http://www.w3.org/1999/xlink" width="396.850394pt" height="198.425197pt" viewBox="0 0 396.850394 198.425197" xmlns="http://www.w3.org/2000/svg" version="1.1">
 <metadata>
  <rdf:RDF xmlns:dc="http://purl.org/dc/elements/1.1/" xmlns:cc="http://creativecommons.org/ns#" xmlns:rdf="http://www.w3.org/1999/02/22-rdf-syntax-ns#">
   <cc:Work>
    <dc:type rdf:resource="http://purl.org/dc/dcmitype/StillImage"/>
    <dc:date>2025-10-11T20:02:46.304789</dc:date>
    <dc:format>image/svg+xml</dc:format>
    <dc:creator>
     <cc:Agent>
      <dc:title>Matplotlib v3.10.3, https://matplotlib.org/</dc:title>
     </cc:Agent>
    </dc:creator>
   </cc:Work>
  </rdf:RDF>
 </metadata>
 <defs>
  <style type="text/css">*{stroke-linejoin: round; stroke-linecap: butt}</style>
 </defs>
 <g id="figure_1">
  <g id="patch_1">
   <path d="M 0 198.425197 
L 396.850394 198.425197 
L 396.850394 0 
L 0 0 
L 0 198.425197 
z
" style="fill: none"/>
  </g>
  <g id="axes_1">
   <g id="patch_2">
    <path d="M 29.432102 167.759963 
L 388.342262 167.759963 
L 388.342262 6.472316 
L 29.432102 6.472316 
L 29.432102 167.759963 
z
" style="fill: none"/>
   </g>
   <g id="line2d_1">
    <path d="M 259.134604 167.759963 
L 259.134604 6.472316 
" clip-path="url(#p4a65ccf0da)" style="fill: none; stroke-dasharray: 1.5,0.75; stroke-dashoffset: 0; stroke: #12b886; stroke-width: 0.5"/>
   </g>
   <g id="line2d_2">
    <path d="M 29.432102 166.758929 
L 38.763766 167.30536 
L 48.09543 167.638137 
L 57.427094 167.759344 
L 66.758758 167.671037 
L 76.090422 167.375241 
L 86.139907 166.826935 
L 96.189391 166.042761 
L 106.238876 165.025136 
L 116.28836 163.776441 
L 126.337845 162.299021 
L 136.387329 160.595185 
L 146.436814 158.667206 
L 156.486298 156.517326 
L 166.535783 154.147752 
L 176.585267 151.560656 
L 187.352572 148.54982 
L 198.119877 145.294331 
L 208.887182 141.796744 
L 219.654487 138.059573 
L 230.421791 134.085292 
L 241.189096 129.876339 
L 251.956401 125.435114 
L 262.723706 120.763978 
L 274.208831 115.530643 
L 285.693956 110.041149 
L 297.179081 104.298231 
L 308.664206 98.304582 
L 320.149332 92.062851 
L 331.634457 85.575645 
L 343.119582 78.845531 
L 355.322527 71.431456 
L 367.525473 63.748994 
L 379.728418 55.801078 
L 391.931364 47.590595 
L 397.850394 43.514305 
L 397.850394 43.514305 
" clip-path="url(#p4a65ccf0da)" style="fill: none; stroke: #ff8787; stroke-linecap: square"/>
   </g>
   <g id="line2d_3">
    <path d="M 29.432102 57.354429 
L 39.481586 64.782409 
L 49.531071 71.92664 
L 59.580555 78.790103 
L 69.63004 85.37573 
L 79.679524 91.686409 
L 89.729009 97.724981 
L 99.778493 103.494246 
L 109.827978 108.996959 
L 119.877462 114.235834 
L 129.926947 119.213543 
L 139.976431 123.932717 
L 150.025916 128.395949 
L 160.0754 132.605793 
L 170.124885 136.564764 
L 180.174369 140.27534 
L 190.223854 143.739963 
L 200.273338 146.961039 
L 210.322822 149.940938 
L 220.372307 152.681997 
L 230.421791 155.186518 
L 240.471276 157.456771 
L 250.52076 159.494992 
L 260.570245 161.303387 
L 270.619729 162.884129 
L 280.669214 164.23936 
L 290.718698 165.371195 
L 300.768183 166.281716 
L 310.817667 166.972977 
L 320.867152 167.447005 
L 330.916636 167.705796 
L 340.966121 167.751323 
L 351.015605 167.585528 
L 361.06509 167.210328 
L 371.832395 166.578101 
L 382.5997 165.709951 
L 393.367004 164.608136 
L 397.850394 164.080884 
L 397.850394 164.080884 
" clip-path="url(#p4a65ccf0da)" style="fill: none; stroke: #74c0fc; stroke-linecap: square"/>
   </g>
   <g id="patch_3">
    <path d="M 29.432102 167.759963 
L 29.432102 6.472316 
" style="fill: none; stroke: #000000; stroke-width: 0.3; stroke-linejoin: miter; stroke-linecap: square"/>
   </g>
   <g id="patch_4">
    <path d="M 388.342262 167.759963 
L 388.342262 6.472316 
" style="fill: none; stroke: #000000; stroke-width: 0.3; stroke-linejoin: miter; stroke-linecap: square"/>
   </g>
   <g id="patch_5">
    <path d="M 29.432102 167.759963 
L 388.342262 167.759963 
" style="fill: none; stroke: #000000; stroke-width: 0.3; stroke-linejoin: miter; stroke-linecap: square"/>
   </g>
   <g id="patch_6">
    <path d="M 29.432102 6.472316 
L 388.342262 6.472316 
" style="fill: none; stroke: #000000; stroke-width: 0.3; stroke-linejoin: miter; stroke-linecap: square"/>
   </g>
   <g id="matplotlib.axis_1">
    <g id="xtick_1">
     <g id="line2d_4">
      <path d="M 29.432102 167.759963 
L 29.432102 6.472316 
" clip-path="url(#p4a65ccf0da)" style="fill: none; stroke-dasharray: 0.2,0.6; stroke-dashoffset: 0; stroke: #868e96; stroke-opacity: 0.25; stroke-width: 0.2"/>
     </g>
     <g id="line2d_5">
      <defs>
       <path id="mbd428bb1de" d="M 0 0 
L 0 -1.75 
" style="stroke: #000000; stroke-width: 0.25"/>
      </defs>
      <g>
       <use xlink:href="#mbd428bb1de" x="29.432102" y="167.759963" style="stroke: #000000; stroke-width: 0.25"/>
      </g>
     </g>
     <g id="text_1">
      <!-- −10 -->
      <g transform="translate(23.078195 178.384963) scale(0.075 -0.075)">
       <defs>
        <path id="Roboto-Regular-2212" d="M 3134 2034 
L 525 2034 
L 525 2506 
L 3134 2506 
L 3134 2034 
z
" transform="scale(0.015625)"/>
        <path id="Roboto-Regular-31" d="M 2278 0 
L 1697 0 
L 1697 3853 
L 531 3425 
L 531 3950 
L 2188 4572 
L 2278 4572 
L 2278 0 
z
" transform="scale(0.015625)"/>
        <path id="Roboto-Regular-30" d="M 3231 1941 
Q 3231 925 2884 431 
Q 2538 -63 1800 -63 
Q 1072 -63 722 420 
Q 372 903 359 1863 
L 359 2634 
Q 359 3638 706 4125 
Q 1053 4613 1794 4613 
Q 2528 4613 2875 4142 
Q 3222 3672 3231 2691 
L 3231 1941 
z
M 2653 2731 
Q 2653 3466 2447 3802 
Q 2241 4138 1794 4138 
Q 1350 4138 1147 3803 
Q 944 3469 938 2775 
L 938 1850 
Q 938 1113 1152 761 
Q 1366 409 1800 409 
Q 2228 409 2436 740 
Q 2644 1072 2653 1784 
L 2653 2731 
z
" transform="scale(0.015625)"/>
       </defs>
       <use xlink:href="#Roboto-Regular-2212"/>
       <use xlink:href="#Roboto-Regular-31" transform="translate(57.128906 0)"/>
       <use xlink:href="#Roboto-Regular-30" transform="translate(113.28125 0)"/>
      </g>
     </g>
    </g>
    <g id="xtick_2">
     <g id="line2d_6">
      <path d="M 65.323118 167.759963 
L 65.323118 6.472316 
" clip-path="url(#p4a65ccf0da)" style="fill: none; stroke-dasharray: 0.2,0.6; stroke-dashoffset: 0; stroke: #868e96; stroke-opacity: 0.25; stroke-width: 0.2"/>
     </g>
     <g id="line2d_7">
      <g>
       <use xlink:href="#mbd428bb1de" x="65.323118" y="167.759963" style="stroke: #000000; stroke-width: 0.25"/>
      </g>
     </g>
     <g id="text_2">
      <!-- −5 -->
      <g transform="translate(61.075071 178.384963) scale(0.075 -0.075)">
       <defs>
        <path id="Roboto-Regular-35" d="M 644 2281 
L 875 4550 
L 3206 4550 
L 3206 4016 
L 1366 4016 
L 1228 2775 
Q 1563 2972 1988 2972 
Q 2609 2972 2975 2561 
Q 3341 2150 3341 1450 
Q 3341 747 2961 342 
Q 2581 -63 1900 -63 
Q 1297 -63 915 271 
Q 534 606 481 1197 
L 1028 1197 
Q 1081 806 1306 607 
Q 1531 409 1900 409 
Q 2303 409 2533 684 
Q 2763 959 2763 1444 
Q 2763 1900 2514 2176 
Q 2266 2453 1853 2453 
Q 1475 2453 1259 2288 
L 1106 2163 
L 644 2281 
z
" transform="scale(0.015625)"/>
       </defs>
       <use xlink:href="#Roboto-Regular-2212"/>
       <use xlink:href="#Roboto-Regular-35" transform="translate(57.128906 0)"/>
      </g>
     </g>
    </g>
    <g id="xtick_3">
     <g id="line2d_8">
      <path d="M 101.214134 167.759963 
L 101.214134 6.472316 
" clip-path="url(#p4a65ccf0da)" style="fill: none; stroke-dasharray: 0.2,0.6; stroke-dashoffset: 0; stroke: #868e96; stroke-opacity: 0.25; stroke-width: 0.2"/>
     </g>
     <g id="line2d_9">
      <g>
       <use xlink:href="#mbd428bb1de" x="101.214134" y="167.759963" style="stroke: #000000; stroke-width: 0.25"/>
      </g>
     </g>
     <g id="text_3">
      <!-- 0 -->
      <g transform="translate(99.108274 178.384963) scale(0.075 -0.075)">
       <use xlink:href="#Roboto-Regular-30"/>
      </g>
     </g>
    </g>
    <g id="xtick_4">
     <g id="line2d_10">
      <path d="M 137.10515 167.759963 
L 137.10515 6.472316 
" clip-path="url(#p4a65ccf0da)" style="fill: none; stroke-dasharray: 0.2,0.6; stroke-dashoffset: 0; stroke: #868e96; stroke-opacity: 0.25; stroke-width: 0.2"/>
     </g>
     <g id="line2d_11">
      <g>
       <use xlink:href="#mbd428bb1de" x="137.10515" y="167.759963" style="stroke: #000000; stroke-width: 0.25"/>
      </g>
     </g>
     <g id="text_4">
      <!-- 5 -->
      <g transform="translate(134.99929 178.384963) scale(0.075 -0.075)">
       <use xlink:href="#Roboto-Regular-35"/>
      </g>
     </g>
    </g>
    <g id="xtick_5">
     <g id="line2d_12">
      <path d="M 172.996166 167.759963 
L 172.996166 6.472316 
" clip-path="url(#p4a65ccf0da)" style="fill: none; stroke-dasharray: 0.2,0.6; stroke-dashoffset: 0; stroke: #868e96; stroke-opacity: 0.25; stroke-width: 0.2"/>
     </g>
     <g id="line2d_13">
      <g>
       <use xlink:href="#mbd428bb1de" x="172.996166" y="167.759963" style="stroke: #000000; stroke-width: 0.25"/>
      </g>
     </g>
     <g id="text_5">
      <!-- 10 -->
      <g transform="translate(168.784447 178.384963) scale(0.075 -0.075)">
       <use xlink:href="#Roboto-Regular-31"/>
       <use xlink:href="#Roboto-Regular-30" transform="translate(56.152344 0)"/>
      </g>
     </g>
    </g>
    <g id="xtick_6">
     <g id="line2d_14">
      <path d="M 208.887182 167.759963 
L 208.887182 6.472316 
" clip-path="url(#p4a65ccf0da)" style="fill: none; stroke-dasharray: 0.2,0.6; stroke-dashoffset: 0; stroke: #868e96; stroke-opacity: 0.25; stroke-width: 0.2"/>
     </g>
     <g id="line2d_15">
      <g>
       <use xlink:href="#mbd428bb1de" x="208.887182" y="167.759963" style="stroke: #000000; stroke-width: 0.25"/>
      </g>
     </g>
     <g id="text_6">
      <!-- 15 -->
      <g transform="translate(204.675463 178.384963) scale(0.075 -0.075)">
       <use xlink:href="#Roboto-Regular-31"/>
       <use xlink:href="#Roboto-Regular-35" transform="translate(56.152344 0)"/>
      </g>
     </g>
    </g>
    <g id="xtick_7">
     <g id="line2d_16">
      <path d="M 244.778198 167.759963 
L 244.778198 6.472316 
" clip-path="url(#p4a65ccf0da)" style="fill: none; stroke-dasharray: 0.2,0.6; stroke-dashoffset: 0; stroke: #868e96; stroke-opacity: 0.25; stroke-width: 0.2"/>
     </g>
     <g id="line2d_17">
      <g>
       <use xlink:href="#mbd428bb1de" x="244.778198" y="167.759963" style="stroke: #000000; stroke-width: 0.25"/>
      </g>
     </g>
     <g id="text_7">
      <!-- 20 -->
      <g transform="translate(240.566479 178.384963) scale(0.075 -0.075)">
       <defs>
        <path id="Roboto-Regular-32" d="M 3359 0 
L 378 0 
L 378 416 
L 1953 2166 
Q 2303 2563 2436 2811 
Q 2569 3059 2569 3325 
Q 2569 3681 2353 3909 
Q 2138 4138 1778 4138 
Q 1347 4138 1108 3892 
Q 869 3647 869 3209 
L 291 3209 
Q 291 3838 695 4225 
Q 1100 4613 1778 4613 
Q 2413 4613 2781 4280 
Q 3150 3947 3150 3394 
Q 3150 2722 2294 1794 
L 1075 472 
L 3359 472 
L 3359 0 
z
" transform="scale(0.015625)"/>
       </defs>
       <use xlink:href="#Roboto-Regular-32"/>
       <use xlink:href="#Roboto-Regular-30" transform="translate(56.152344 0)"/>
      </g>
     </g>
    </g>
    <g id="xtick_8">
     <g id="line2d_18">
      <path d="M 280.669214 167.759963 
L 280.669214 6.472316 
" clip-path="url(#p4a65ccf0da)" style="fill: none; stroke-dasharray: 0.2,0.6; stroke-dashoffset: 0; stroke: #868e96; stroke-opacity: 0.25; stroke-width: 0.2"/>
     </g>
     <g id="line2d_19">
      <g>
       <use xlink:href="#mbd428bb1de" x="280.669214" y="167.759963" style="stroke: #000000; stroke-width: 0.25"/>
      </g>
     </g>
     <g id="text_8">
      <!-- 25 -->
      <g transform="translate(276.457495 178.384963) scale(0.075 -0.075)">
       <use xlink:href="#Roboto-Regular-32"/>
       <use xlink:href="#Roboto-Regular-35" transform="translate(56.152344 0)"/>
      </g>
     </g>
    </g>
    <g id="xtick_9">
     <g id="line2d_20">
      <path d="M 316.56023 167.759963 
L 316.56023 6.472316 
" clip-path="url(#p4a65ccf0da)" style="fill: none; stroke-dasharray: 0.2,0.6; stroke-dashoffset: 0; stroke: #868e96; stroke-opacity: 0.25; stroke-width: 0.2"/>
     </g>
     <g id="line2d_21">
      <g>
       <use xlink:href="#mbd428bb1de" x="316.56023" y="167.759963" style="stroke: #000000; stroke-width: 0.25"/>
      </g>
     </g>
     <g id="text_9">
      <!-- 30 -->
      <g transform="translate(312.348511 178.384963) scale(0.075 -0.075)">
       <defs>
        <path id="Roboto-Regular-33" d="M 1219 2556 
L 1653 2556 
Q 2063 2563 2297 2772 
Q 2531 2981 2531 3338 
Q 2531 4138 1734 4138 
Q 1359 4138 1136 3923 
Q 913 3709 913 3356 
L 334 3356 
Q 334 3897 729 4255 
Q 1125 4613 1734 4613 
Q 2378 4613 2743 4272 
Q 3109 3931 3109 3325 
Q 3109 3028 2917 2750 
Q 2725 2472 2394 2334 
Q 2769 2216 2973 1941 
Q 3178 1666 3178 1269 
Q 3178 656 2778 296 
Q 2378 -63 1737 -63 
Q 1097 -63 695 284 
Q 294 631 294 1200 
L 875 1200 
Q 875 841 1109 625 
Q 1344 409 1738 409 
Q 2156 409 2378 628 
Q 2600 847 2600 1256 
Q 2600 1653 2356 1865 
Q 2113 2078 1653 2084 
L 1219 2084 
L 1219 2556 
z
" transform="scale(0.015625)"/>
       </defs>
       <use xlink:href="#Roboto-Regular-33"/>
       <use xlink:href="#Roboto-Regular-30" transform="translate(56.152344 0)"/>
      </g>
     </g>
    </g>
    <g id="xtick_10">
     <g id="line2d_22">
      <path d="M 352.451246 167.759963 
L 352.451246 6.472316 
" clip-path="url(#p4a65ccf0da)" style="fill: none; stroke-dasharray: 0.2,0.6; stroke-dashoffset: 0; stroke: #868e96; stroke-opacity: 0.25; stroke-width: 0.2"/>
     </g>
     <g id="line2d_23">
      <g>
       <use xlink:href="#mbd428bb1de" x="352.451246" y="167.759963" style="stroke: #000000; stroke-width: 0.25"/>
      </g>
     </g>
     <g id="text_10">
      <!-- 35 -->
      <g transform="translate(348.239527 178.384963) scale(0.075 -0.075)">
       <use xlink:href="#Roboto-Regular-33"/>
       <use xlink:href="#Roboto-Regular-35" transform="translate(56.152344 0)"/>
      </g>
     </g>
    </g>
    <g id="xtick_11">
     <g id="line2d_24">
      <path d="M 388.342262 167.759963 
L 388.342262 6.472316 
" clip-path="url(#p4a65ccf0da)" style="fill: none; stroke-dasharray: 0.2,0.6; stroke-dashoffset: 0; stroke: #868e96; stroke-opacity: 0.25; stroke-width: 0.2"/>
     </g>
     <g id="line2d_25">
      <g>
       <use xlink:href="#mbd428bb1de" x="388.342262" y="167.759963" style="stroke: #000000; stroke-width: 0.25"/>
      </g>
     </g>
     <g id="text_11">
      <!-- 40 -->
      <g transform="translate(384.130543 178.384963) scale(0.075 -0.075)">
       <defs>
        <path id="Roboto-Regular-34" d="M 2819 1528 
L 3450 1528 
L 3450 1056 
L 2819 1056 
L 2819 0 
L 2238 0 
L 2238 1056 
L 166 1056 
L 166 1397 
L 2203 4550 
L 2819 4550 
L 2819 1528 
z
M 822 1528 
L 2238 1528 
L 2238 3759 
L 2169 3634 
L 822 1528 
z
" transform="scale(0.015625)"/>
       </defs>
       <use xlink:href="#Roboto-Regular-34"/>
       <use xlink:href="#Roboto-Regular-30" transform="translate(56.152344 0)"/>
      </g>
     </g>
    </g>
    <g id="xtick_12">
     <g id="line2d_26">
      <defs>
       <path id="m1c547841ca" d="M 0 0 
L 0 -1 
" style="stroke: #000000; stroke-width: 0.2"/>
      </defs>
      <g>
       <use xlink:href="#m1c547841ca" x="47.37761" y="167.759963" style="stroke: #000000; stroke-width: 0.2"/>
      </g>
     </g>
    </g>
    <g id="xtick_13">
     <g id="line2d_27">
      <g>
       <use xlink:href="#m1c547841ca" x="83.268626" y="167.759963" style="stroke: #000000; stroke-width: 0.2"/>
      </g>
     </g>
    </g>
    <g id="xtick_14">
     <g id="line2d_28">
      <g>
       <use xlink:href="#m1c547841ca" x="119.159642" y="167.759963" style="stroke: #000000; stroke-width: 0.2"/>
      </g>
     </g>
    </g>
    <g id="xtick_15">
     <g id="line2d_29">
      <g>
       <use xlink:href="#m1c547841ca" x="155.050658" y="167.759963" style="stroke: #000000; stroke-width: 0.2"/>
      </g>
     </g>
    </g>
    <g id="xtick_16">
     <g id="line2d_30">
      <g>
       <use xlink:href="#m1c547841ca" x="190.941674" y="167.759963" style="stroke: #000000; stroke-width: 0.2"/>
      </g>
     </g>
    </g>
    <g id="xtick_17">
     <g id="line2d_31">
      <g>
       <use xlink:href="#m1c547841ca" x="226.83269" y="167.759963" style="stroke: #000000; stroke-width: 0.2"/>
      </g>
     </g>
    </g>
    <g id="xtick_18">
     <g id="line2d_32">
      <g>
       <use xlink:href="#m1c547841ca" x="262.723706" y="167.759963" style="stroke: #000000; stroke-width: 0.2"/>
      </g>
     </g>
    </g>
    <g id="xtick_19">
     <g id="line2d_33">
      <g>
       <use xlink:href="#m1c547841ca" x="298.614722" y="167.759963" style="stroke: #000000; stroke-width: 0.2"/>
      </g>
     </g>
    </g>
    <g id="xtick_20">
     <g id="line2d_34">
      <g>
       <use xlink:href="#m1c547841ca" x="334.505738" y="167.759963" style="stroke: #000000; stroke-width: 0.2"/>
      </g>
     </g>
    </g>
    <g id="xtick_21">
     <g id="line2d_35">
      <g>
       <use xlink:href="#m1c547841ca" x="370.396754" y="167.759963" style="stroke: #000000; stroke-width: 0.2"/>
      </g>
     </g>
    </g>
    <g id="text_12">
     <!-- Air temperature [°C] -->
     <g transform="translate(169.576166 193.220901) scale(0.09 -0.09)">
      <defs>
       <path id="Roboto-Regular-41" d="M 3041 1188 
L 1134 1188 
L 706 0 
L 88 0 
L 1825 4550 
L 2350 4550 
L 4091 0 
L 3475 0 
L 3041 1188 
z
M 1316 1681 
L 2863 1681 
L 2088 3809 
L 1316 1681 
z
" transform="scale(0.015625)"/>
       <path id="Roboto-Regular-69" d="M 1066 0 
L 488 0 
L 488 3381 
L 1066 3381 
L 1066 0 
z
M 441 4278 
Q 441 4419 527 4516 
Q 613 4613 781 4613 
Q 950 4613 1037 4516 
Q 1125 4419 1125 4278 
Q 1125 4138 1037 4044 
Q 950 3950 781 3950 
Q 613 3950 527 4044 
Q 441 4138 441 4278 
z
" transform="scale(0.015625)"/>
       <path id="Roboto-Regular-72" d="M 2072 2863 
Q 1941 2884 1788 2884 
Q 1219 2884 1016 2400 
L 1016 0 
L 438 0 
L 438 3381 
L 1000 3381 
L 1009 2991 
Q 1294 3444 1816 3444 
Q 1984 3444 2072 3400 
L 2072 2863 
z
" transform="scale(0.015625)"/>
       <path id="Roboto-Regular-20" transform="scale(0.015625)"/>
       <path id="Roboto-Regular-74" d="M 1222 4200 
L 1222 3381 
L 1853 3381 
L 1853 2934 
L 1222 2934 
L 1222 838 
Q 1222 634 1306 532 
Q 1391 431 1594 431 
Q 1694 431 1869 469 
L 1869 0 
Q 1641 -63 1425 -63 
Q 1038 -63 841 171 
Q 644 406 644 838 
L 644 2934 
L 28 2934 
L 28 3381 
L 644 3381 
L 644 4200 
L 1222 4200 
z
" transform="scale(0.015625)"/>
       <path id="Roboto-Regular-65" d="M 1841 -63 
Q 1153 -63 722 389 
Q 291 841 291 1597 
L 291 1703 
Q 291 2206 483 2601 
Q 675 2997 1020 3220 
Q 1366 3444 1769 3444 
Q 2428 3444 2793 3009 
Q 3159 2575 3159 1766 
L 3159 1525 
L 869 1525 
Q 881 1025 1161 717 
Q 1441 409 1872 409 
Q 2178 409 2390 534 
Q 2603 659 2763 866 
L 3116 591 
Q 2691 -63 1841 -63 
z
M 1769 2969 
Q 1419 2969 1181 2714 
Q 944 2459 888 2000 
L 2581 2000 
L 2581 2044 
Q 2556 2484 2343 2726 
Q 2131 2969 1769 2969 
z
" transform="scale(0.015625)"/>
       <path id="Roboto-Regular-6d" d="M 981 3381 
L 997 3006 
Q 1369 3444 2000 3444 
Q 2709 3444 2966 2900 
Q 3134 3144 3404 3294 
Q 3675 3444 4044 3444 
Q 5156 3444 5175 2266 
L 5175 0 
L 4597 0 
L 4597 2231 
Q 4597 2594 4431 2773 
Q 4266 2953 3875 2953 
Q 3553 2953 3340 2761 
Q 3128 2569 3094 2244 
L 3094 0 
L 2513 0 
L 2513 2216 
Q 2513 2953 1791 2953 
Q 1222 2953 1013 2469 
L 1013 0 
L 434 0 
L 434 3381 
L 981 3381 
z
" transform="scale(0.015625)"/>
       <path id="Roboto-Regular-70" d="M 3294 1653 
Q 3294 881 2941 409 
Q 2588 -63 1984 -63 
Q 1369 -63 1016 328 
L 1016 -1300 
L 438 -1300 
L 438 3381 
L 966 3381 
L 994 3006 
Q 1347 3444 1975 3444 
Q 2584 3444 2939 2984 
Q 3294 2525 3294 1706 
L 3294 1653 
z
M 2716 1719 
Q 2716 2291 2472 2622 
Q 2228 2953 1803 2953 
Q 1278 2953 1016 2488 
L 1016 872 
Q 1275 409 1809 409 
Q 2225 409 2470 739 
Q 2716 1069 2716 1719 
z
" transform="scale(0.015625)"/>
       <path id="Roboto-Regular-61" d="M 2525 0 
Q 2475 100 2444 356 
Q 2041 -63 1481 -63 
Q 981 -63 661 220 
Q 341 503 341 938 
Q 341 1466 742 1758 
Q 1144 2050 1872 2050 
L 2434 2050 
L 2434 2316 
Q 2434 2619 2253 2798 
Q 2072 2978 1719 2978 
Q 1409 2978 1200 2822 
Q 991 2666 991 2444 
L 409 2444 
Q 409 2697 589 2933 
Q 769 3169 1076 3306 
Q 1384 3444 1753 3444 
Q 2338 3444 2669 3151 
Q 3000 2859 3013 2347 
L 3013 791 
Q 3013 325 3131 50 
L 3131 0 
L 2525 0 
z
M 1566 441 
Q 1838 441 2081 581 
Q 2325 722 2434 947 
L 2434 1641 
L 1981 1641 
Q 919 1641 919 1019 
Q 919 747 1100 594 
Q 1281 441 1566 441 
z
" transform="scale(0.015625)"/>
       <path id="Roboto-Regular-75" d="M 2525 334 
Q 2188 -63 1534 -63 
Q 994 -63 711 251 
Q 428 566 425 1181 
L 425 3381 
L 1003 3381 
L 1003 1197 
Q 1003 428 1628 428 
Q 2291 428 2509 922 
L 2509 3381 
L 3088 3381 
L 3088 0 
L 2538 0 
L 2525 334 
z
" transform="scale(0.015625)"/>
       <path id="Roboto-Regular-5b" d="M 1634 4725 
L 1038 4725 
L 1038 -500 
L 1634 -500 
L 1634 -975 
L 456 -975 
L 456 5200 
L 1634 5200 
L 1634 4725 
z
" transform="scale(0.015625)"/>
       <path id="Roboto-Regular-b0" d="M 406 3800 
Q 406 4125 639 4369 
Q 872 4613 1203 4613 
Q 1528 4613 1758 4370 
Q 1988 4128 1988 3800 
Q 1988 3469 1758 3234 
Q 1528 3000 1203 3000 
Q 875 3000 640 3234 
Q 406 3469 406 3800 
z
M 1203 3400 
Q 1372 3400 1487 3511 
Q 1603 3622 1603 3800 
Q 1603 3981 1487 4098 
Q 1372 4216 1203 4216 
Q 1031 4216 914 4092 
Q 797 3969 797 3800 
Q 797 3631 914 3515 
Q 1031 3400 1203 3400 
z
" transform="scale(0.015625)"/>
       <path id="Roboto-Regular-43" d="M 3875 1444 
Q 3791 722 3342 329 
Q 2894 -63 2150 -63 
Q 1344 -63 858 515 
Q 372 1094 372 2063 
L 372 2500 
Q 372 3134 598 3615 
Q 825 4097 1240 4355 
Q 1656 4613 2203 4613 
Q 2928 4613 3365 4208 
Q 3803 3803 3875 3088 
L 3272 3088 
Q 3194 3631 2933 3875 
Q 2672 4119 2203 4119 
Q 1628 4119 1301 3694 
Q 975 3269 975 2484 
L 975 2044 
Q 975 1303 1284 865 
Q 1594 428 2150 428 
Q 2650 428 2917 654 
Q 3184 881 3272 1444 
L 3875 1444 
z
" transform="scale(0.015625)"/>
       <path id="Roboto-Regular-5d" d="M 28 5200 
L 1209 5200 
L 1209 -975 
L 28 -975 
L 28 -500 
L 631 -500 
L 631 4725 
L 28 4725 
L 28 5200 
z
" transform="scale(0.015625)"/>
      </defs>
      <use xlink:href="#Roboto-Regular-41"/>
      <use xlink:href="#Roboto-Regular-69" transform="translate(65.234375 0)"/>
      <use xlink:href="#Roboto-Regular-72" transform="translate(89.501953 0)"/>
      <use xlink:href="#Roboto-Regular-20" transform="translate(123.339844 0)"/>
      <use xlink:href="#Roboto-Regular-74" transform="translate(148.095703 0)"/>
      <use xlink:href="#Roboto-Regular-65" transform="translate(180.761719 0)"/>
      <use xlink:href="#Roboto-Regular-6d" transform="translate(233.740234 0)"/>
      <use xlink:href="#Roboto-Regular-70" transform="translate(321.386719 0)"/>
      <use xlink:href="#Roboto-Regular-65" transform="translate(377.490234 0)"/>
      <use xlink:href="#Roboto-Regular-72" transform="translate(430.46875 0)"/>
      <use xlink:href="#Roboto-Regular-61" transform="translate(464.306641 0)"/>
      <use xlink:href="#Roboto-Regular-74" transform="translate(518.701172 0)"/>
      <use xlink:href="#Roboto-Regular-75" transform="translate(551.367188 0)"/>
      <use xlink:href="#Roboto-Regular-72" transform="translate(606.494141 0)"/>
      <use xlink:href="#Roboto-Regular-65" transform="translate(640.332031 0)"/>
      <use xlink:href="#Roboto-Regular-20" transform="translate(693.310547 0)"/>
      <use xlink:href="#Roboto-Regular-5b" transform="translate(718.066406 0)"/>
      <use xlink:href="#Roboto-Regular-b0" transform="translate(744.580078 0)"/>
      <use xlink:href="#Roboto-Regular-43" transform="translate(781.933594 0)"/>
      <use xlink:href="#Roboto-Regular-5d" transform="translate(847.021484 0)"/>
     </g>
    </g>
   </g>
   <g id="matplotlib.axis_2">
    <g id="ytick_1">
     <g id="line2d_36">
      <path d="M 29.432102 167.759963 
L 388.342262 167.759963 
" clip-path="url(#p4a65ccf0da)" style="fill: none; stroke-dasharray: 0.2,0.6; stroke-dashoffset: 0; stroke: #868e96; stroke-opacity: 0.25; stroke-width: 0.2"/>
     </g>
     <g id="line2d_37">
      <defs>
       <path id="mf2623f6d62" d="M 0 0 
L 1.75 0 
" style="stroke: #000000; stroke-width: 0.25"/>
      </defs>
      <g>
       <use xlink:href="#mf2623f6d62" x="29.432102" y="167.759963" style="stroke: #000000; stroke-width: 0.25"/>
      </g>
     </g>
     <g id="text_13">
      <!-- 0 -->
      <g transform="translate(20.220383 170.572463) scale(0.075 -0.075)">
       <use xlink:href="#Roboto-Regular-30"/>
      </g>
     </g>
    </g>
    <g id="ytick_2">
     <g id="line2d_38">
      <path d="M 29.432102 140.878689 
L 388.342262 140.878689 
" clip-path="url(#p4a65ccf0da)" style="fill: none; stroke-dasharray: 0.2,0.6; stroke-dashoffset: 0; stroke: #868e96; stroke-opacity: 0.25; stroke-width: 0.2"/>
     </g>
     <g id="line2d_39">
      <g>
       <use xlink:href="#mf2623f6d62" x="29.432102" y="140.878689" style="stroke: #000000; stroke-width: 0.25"/>
      </g>
     </g>
     <g id="text_14">
      <!-- 1 -->
      <g transform="translate(20.220383 143.691189) scale(0.075 -0.075)">
       <use xlink:href="#Roboto-Regular-31"/>
      </g>
     </g>
    </g>
    <g id="ytick_3">
     <g id="line2d_40">
      <path d="M 29.432102 113.997414 
L 388.342262 113.997414 
" clip-path="url(#p4a65ccf0da)" style="fill: none; stroke-dasharray: 0.2,0.6; stroke-dashoffset: 0; stroke: #868e96; stroke-opacity: 0.25; stroke-width: 0.2"/>
     </g>
     <g id="line2d_41">
      <g>
       <use xlink:href="#mf2623f6d62" x="29.432102" y="113.997414" style="stroke: #000000; stroke-width: 0.25"/>
      </g>
     </g>
     <g id="text_15">
      <!-- 2 -->
      <g transform="translate(20.220383 116.809914) scale(0.075 -0.075)">
       <use xlink:href="#Roboto-Regular-32"/>
      </g>
     </g>
    </g>
    <g id="ytick_4">
     <g id="line2d_42">
      <path d="M 29.432102 87.11614 
L 388.342262 87.11614 
" clip-path="url(#p4a65ccf0da)" style="fill: none; stroke-dasharray: 0.2,0.6; stroke-dashoffset: 0; stroke: #868e96; stroke-opacity: 0.25; stroke-width: 0.2"/>
     </g>
     <g id="line2d_43">
      <g>
       <use xlink:href="#mf2623f6d62" x="29.432102" y="87.11614" style="stroke: #000000; stroke-width: 0.25"/>
      </g>
     </g>
     <g id="text_16">
      <!-- 3 -->
      <g transform="translate(20.220383 89.92864) scale(0.075 -0.075)">
       <use xlink:href="#Roboto-Regular-33"/>
      </g>
     </g>
    </g>
    <g id="ytick_5">
     <g id="line2d_44">
      <path d="M 29.432102 60.234865 
L 388.342262 60.234865 
" clip-path="url(#p4a65ccf0da)" style="fill: none; stroke-dasharray: 0.2,0.6; stroke-dashoffset: 0; stroke: #868e96; stroke-opacity: 0.25; stroke-width: 0.2"/>
     </g>
     <g id="line2d_45">
      <g>
       <use xlink:href="#mf2623f6d62" x="29.432102" y="60.234865" style="stroke: #000000; stroke-width: 0.25"/>
      </g>
     </g>
     <g id="text_17">
      <!-- 4 -->
      <g transform="translate(20.220383 63.047365) scale(0.075 -0.075)">
       <use xlink:href="#Roboto-Regular-34"/>
      </g>
     </g>
    </g>
    <g id="ytick_6">
     <g id="line2d_46">
      <path d="M 29.432102 33.353591 
L 388.342262 33.353591 
" clip-path="url(#p4a65ccf0da)" style="fill: none; stroke-dasharray: 0.2,0.6; stroke-dashoffset: 0; stroke: #868e96; stroke-opacity: 0.25; stroke-width: 0.2"/>
     </g>
     <g id="line2d_47">
      <g>
       <use xlink:href="#mf2623f6d62" x="29.432102" y="33.353591" style="stroke: #000000; stroke-width: 0.25"/>
      </g>
     </g>
     <g id="text_18">
      <!-- 5 -->
      <g transform="translate(20.220383 36.166091) scale(0.075 -0.075)">
       <use xlink:href="#Roboto-Regular-35"/>
      </g>
     </g>
    </g>
    <g id="ytick_7">
     <g id="line2d_48">
      <path d="M 29.432102 6.472316 
L 388.342262 6.472316 
" clip-path="url(#p4a65ccf0da)" style="fill: none; stroke-dasharray: 0.2,0.6; stroke-dashoffset: 0; stroke: #868e96; stroke-opacity: 0.25; stroke-width: 0.2"/>
     </g>
     <g id="line2d_49">
      <g>
       <use xlink:href="#mf2623f6d62" x="29.432102" y="6.472316" style="stroke: #000000; stroke-width: 0.25"/>
      </g>
     </g>
     <g id="text_19">
      <!-- 6 -->
      <g transform="translate(20.220383 9.284816) scale(0.075 -0.075)">
       <defs>
        <path id="Roboto-Regular-36" d="M 2647 4553 
L 2647 4063 
L 2541 4063 
Q 1866 4050 1466 3662 
Q 1066 3275 1003 2572 
Q 1363 2984 1984 2984 
Q 2578 2984 2933 2565 
Q 3288 2147 3288 1484 
Q 3288 781 2905 359 
Q 2522 -63 1878 -63 
Q 1225 -63 819 439 
Q 413 941 413 1731 
L 413 1953 
Q 413 3209 948 3873 
Q 1484 4538 2544 4553 
L 2647 4553 
z
M 1888 2503 
Q 1591 2503 1341 2325 
Q 1091 2147 994 1878 
L 994 1666 
Q 994 1103 1247 759 
Q 1500 416 1878 416 
Q 2269 416 2492 703 
Q 2716 991 2716 1456 
Q 2716 1925 2489 2214 
Q 2263 2503 1888 2503 
z
" transform="scale(0.015625)"/>
       </defs>
       <use xlink:href="#Roboto-Regular-36"/>
      </g>
     </g>
    </g>
    <g id="ytick_8">
     <g id="line2d_50">
      <defs>
       <path id="m16cb5f2b12" d="M 0 0 
L 1 0 
" style="stroke: #000000; stroke-width: 0.2"/>
      </defs>
      <g>
       <use xlink:href="#m16cb5f2b12" x="29.432102" y="154.319326" style="stroke: #000000; stroke-width: 0.2"/>
      </g>
     </g>
    </g>
    <g id="ytick_9">
     <g id="line2d_51">
      <g>
       <use xlink:href="#m16cb5f2b12" x="29.432102" y="127.438052" style="stroke: #000000; stroke-width: 0.2"/>
      </g>
     </g>
    </g>
    <g id="ytick_10">
     <g id="line2d_52">
      <g>
       <use xlink:href="#m16cb5f2b12" x="29.432102" y="100.556777" style="stroke: #000000; stroke-width: 0.2"/>
      </g>
     </g>
    </g>
    <g id="ytick_11">
     <g id="line2d_53">
      <g>
       <use xlink:href="#m16cb5f2b12" x="29.432102" y="73.675503" style="stroke: #000000; stroke-width: 0.2"/>
      </g>
     </g>
    </g>
    <g id="ytick_12">
     <g id="line2d_54">
      <g>
       <use xlink:href="#m16cb5f2b12" x="29.432102" y="46.794228" style="stroke: #000000; stroke-width: 0.2"/>
      </g>
     </g>
    </g>
    <g id="ytick_13">
     <g id="line2d_55">
      <g>
       <use xlink:href="#m16cb5f2b12" x="29.432102" y="19.912953" style="stroke: #000000; stroke-width: 0.2"/>
      </g>
     </g>
    </g>
    <g id="text_20">
     <!-- Exergy rate in air flow [kW/(m$^3$/s)] -->
     <g transform="translate(12.150383 155.02114) rotate(-90) scale(0.09 -0.09)">
      <defs>
       <path id="Roboto-Regular-45" d="M 3100 2103 
L 1128 2103 
L 1128 491 
L 3419 491 
L 3419 0 
L 528 0 
L 528 4550 
L 3388 4550 
L 3388 4056 
L 1128 4056 
L 1128 2594 
L 3100 2594 
L 3100 2103 
z
" transform="scale(0.015625)"/>
       <path id="Roboto-Regular-78" d="M 1572 2147 
L 2322 3381 
L 2997 3381 
L 1891 1709 
L 3031 0 
L 2363 0 
L 1581 1266 
L 800 0 
L 128 0 
L 1269 1709 
L 163 3381 
L 831 3381 
L 1572 2147 
z
" transform="scale(0.015625)"/>
       <path id="Roboto-Regular-67" d="M 300 1719 
Q 300 2509 665 2976 
Q 1031 3444 1634 3444 
Q 2253 3444 2600 3006 
L 2628 3381 
L 3156 3381 
L 3156 81 
Q 3156 -575 2767 -953 
Q 2378 -1331 1722 -1331 
Q 1356 -1331 1006 -1175 
Q 656 -1019 472 -747 
L 772 -400 
Q 1144 -859 1681 -859 
Q 2103 -859 2339 -621 
Q 2575 -384 2575 47 
L 2575 338 
Q 2228 -63 1628 -63 
Q 1034 -63 667 415 
Q 300 894 300 1719 
z
M 881 1653 
Q 881 1081 1115 754 
Q 1350 428 1772 428 
Q 2319 428 2575 925 
L 2575 2469 
Q 2309 2953 1778 2953 
Q 1356 2953 1118 2625 
Q 881 2297 881 1653 
z
" transform="scale(0.015625)"/>
       <path id="Roboto-Regular-79" d="M 1544 847 
L 2331 3381 
L 2950 3381 
L 1591 -522 
Q 1275 -1366 588 -1366 
L 478 -1356 
L 263 -1316 
L 263 -847 
L 419 -859 
Q 713 -859 877 -740 
Q 1041 -622 1147 -306 
L 1275 38 
L 69 3381 
L 700 3381 
L 1544 847 
z
" transform="scale(0.015625)"/>
       <path id="Roboto-Regular-6e" d="M 984 3381 
L 1003 2956 
Q 1391 3444 2016 3444 
Q 3088 3444 3097 2234 
L 3097 0 
L 2519 0 
L 2519 2238 
Q 2516 2603 2352 2778 
Q 2188 2953 1841 2953 
Q 1559 2953 1346 2803 
Q 1134 2653 1016 2409 
L 1016 0 
L 438 0 
L 438 3381 
L 984 3381 
z
" transform="scale(0.015625)"/>
       <path id="Roboto-Regular-66" d="M 722 0 
L 722 2934 
L 188 2934 
L 188 3381 
L 722 3381 
L 722 3728 
Q 722 4272 1012 4569 
Q 1303 4866 1834 4866 
Q 2034 4866 2231 4813 
L 2200 4344 
Q 2053 4372 1888 4372 
Q 1606 4372 1453 4208 
Q 1300 4044 1300 3738 
L 1300 3381 
L 2022 3381 
L 2022 2934 
L 1300 2934 
L 1300 0 
L 722 0 
z
" transform="scale(0.015625)"/>
       <path id="Roboto-Regular-6c" d="M 1066 0 
L 488 0 
L 488 4800 
L 1066 4800 
L 1066 0 
z
" transform="scale(0.015625)"/>
       <path id="Roboto-Regular-6f" d="M 284 1722 
Q 284 2219 479 2616 
Q 675 3013 1023 3228 
Q 1372 3444 1819 3444 
Q 2509 3444 2936 2966 
Q 3363 2488 3363 1694 
L 3363 1653 
Q 3363 1159 3173 767 
Q 2984 375 2632 156 
Q 2281 -63 1825 -63 
Q 1138 -63 711 415 
Q 284 894 284 1681 
L 284 1722 
z
M 866 1653 
Q 866 1091 1127 750 
Q 1388 409 1825 409 
Q 2266 409 2525 754 
Q 2784 1100 2784 1722 
Q 2784 2278 2520 2623 
Q 2256 2969 1819 2969 
Q 1391 2969 1128 2628 
Q 866 2288 866 1653 
z
" transform="scale(0.015625)"/>
       <path id="Roboto-Regular-77" d="M 3431 797 
L 4081 3381 
L 4659 3381 
L 3675 0 
L 3206 0 
L 2384 2563 
L 1584 0 
L 1116 0 
L 134 3381 
L 709 3381 
L 1375 850 
L 2163 3381 
L 2628 3381 
L 3431 797 
z
" transform="scale(0.015625)"/>
       <path id="Roboto-Regular-6b" d="M 1381 1566 
L 1019 1188 
L 1019 0 
L 441 0 
L 441 4800 
L 1019 4800 
L 1019 1897 
L 1328 2269 
L 2381 3381 
L 3084 3381 
L 1769 1969 
L 3238 0 
L 2559 0 
L 1381 1566 
z
" transform="scale(0.015625)"/>
       <path id="Roboto-Regular-57" d="M 1509 1434 
L 1597 834 
L 1725 1375 
L 2625 4550 
L 3131 4550 
L 4009 1375 
L 4134 825 
L 4231 1438 
L 4938 4550 
L 5541 4550 
L 4438 0 
L 3891 0 
L 2953 3316 
L 2881 3663 
L 2809 3316 
L 1838 0 
L 1291 0 
L 191 4550 
L 791 4550 
L 1509 1434 
z
" transform="scale(0.015625)"/>
       <path id="Roboto-Regular-2f" d="M 553 -391 
L 56 -391 
L 1956 4550 
L 2450 4550 
L 553 -391 
z
" transform="scale(0.015625)"/>
       <path id="Roboto-Regular-28" d="M 416 1847 
Q 416 2553 605 3203 
Q 794 3853 1169 4384 
Q 1544 4916 1947 5134 
L 2066 4753 
Q 1609 4403 1317 3684 
Q 1025 2966 997 2075 
L 994 1809 
Q 994 603 1434 -284 
Q 1700 -816 2066 -1116 
L 1947 -1469 
Q 1531 -1238 1153 -694 
Q 416 369 416 1847 
z
" transform="scale(0.015625)"/>
       <path id="DejaVuSans-33" d="M 2597 2516 
Q 3050 2419 3304 2112 
Q 3559 1806 3559 1356 
Q 3559 666 3084 287 
Q 2609 -91 1734 -91 
Q 1441 -91 1130 -33 
Q 819 25 488 141 
L 488 750 
Q 750 597 1062 519 
Q 1375 441 1716 441 
Q 2309 441 2620 675 
Q 2931 909 2931 1356 
Q 2931 1769 2642 2001 
Q 2353 2234 1838 2234 
L 1294 2234 
L 1294 2753 
L 1863 2753 
Q 2328 2753 2575 2939 
Q 2822 3125 2822 3475 
Q 2822 3834 2567 4026 
Q 2313 4219 1838 4219 
Q 1578 4219 1281 4162 
Q 984 4106 628 3988 
L 628 4550 
Q 988 4650 1302 4700 
Q 1616 4750 1894 4750 
Q 2613 4750 3031 4423 
Q 3450 4097 3450 3541 
Q 3450 3153 3228 2886 
Q 3006 2619 2597 2516 
z
" transform="scale(0.015625)"/>
       <path id="Roboto-Regular-73" d="M 2406 897 
Q 2406 1131 2229 1261 
Q 2053 1391 1614 1484 
Q 1175 1578 917 1709 
Q 659 1841 536 2022 
Q 413 2203 413 2453 
Q 413 2869 764 3156 
Q 1116 3444 1663 3444 
Q 2238 3444 2595 3147 
Q 2953 2850 2953 2388 
L 2372 2388 
Q 2372 2625 2170 2797 
Q 1969 2969 1663 2969 
Q 1347 2969 1169 2831 
Q 991 2694 991 2472 
Q 991 2263 1156 2156 
Q 1322 2050 1755 1953 
Q 2188 1856 2456 1722 
Q 2725 1588 2854 1398 
Q 2984 1209 2984 938 
Q 2984 484 2621 210 
Q 2259 -63 1681 -63 
Q 1275 -63 962 81 
Q 650 225 473 483 
Q 297 741 297 1041 
L 875 1041 
Q 891 750 1108 579 
Q 1325 409 1681 409 
Q 2009 409 2207 542 
Q 2406 675 2406 897 
z
" transform="scale(0.015625)"/>
       <path id="Roboto-Regular-29" d="M 1772 1816 
Q 1772 1119 1589 480 
Q 1406 -159 1029 -700 
Q 653 -1241 241 -1469 
L 119 -1116 
Q 600 -747 892 29 
Q 1184 806 1191 1753 
L 1191 1853 
Q 1191 2509 1053 3073 
Q 916 3638 670 4084 
Q 425 4531 119 4781 
L 241 5134 
Q 653 4906 1026 4372 
Q 1400 3838 1586 3194 
Q 1772 2550 1772 1816 
z
" transform="scale(0.015625)"/>
      </defs>
      <use xlink:href="#Roboto-Regular-45" transform="translate(0 0.765625)"/>
      <use xlink:href="#Roboto-Regular-78" transform="translate(56.835938 0.765625)"/>
      <use xlink:href="#Roboto-Regular-65" transform="translate(106.396484 0.765625)"/>
      <use xlink:href="#Roboto-Regular-72" transform="translate(159.375 0.765625)"/>
      <use xlink:href="#Roboto-Regular-67" transform="translate(193.212891 0.765625)"/>
      <use xlink:href="#Roboto-Regular-79" transform="translate(249.316406 0.765625)"/>
      <use xlink:href="#Roboto-Regular-20" transform="translate(296.630859 0.765625)"/>
      <use xlink:href="#Roboto-Regular-72" transform="translate(321.386719 0.765625)"/>
      <use xlink:href="#Roboto-Regular-61" transform="translate(355.224609 0.765625)"/>
      <use xlink:href="#Roboto-Regular-74" transform="translate(409.619141 0.765625)"/>
      <use xlink:href="#Roboto-Regular-65" transform="translate(442.285156 0.765625)"/>
      <use xlink:href="#Roboto-Regular-20" transform="translate(495.263672 0.765625)"/>
      <use xlink:href="#Roboto-Regular-69" transform="translate(520.019531 0.765625)"/>
      <use xlink:href="#Roboto-Regular-6e" transform="translate(544.287109 0.765625)"/>
      <use xlink:href="#Roboto-Regular-20" transform="translate(599.462891 0.765625)"/>
      <use xlink:href="#Roboto-Regular-61" transform="translate(624.21875 0.765625)"/>
      <use xlink:href="#Roboto-Regular-69" transform="translate(678.613281 0.765625)"/>
      <use xlink:href="#Roboto-Regular-72" transform="translate(702.880859 0.765625)"/>
      <use xlink:href="#Roboto-Regular-20" transform="translate(736.71875 0.765625)"/>
      <use xlink:href="#Roboto-Regular-66" transform="translate(761.474609 0.765625)"/>
      <use xlink:href="#Roboto-Regular-6c" transform="translate(796.191406 0.765625)"/>
      <use xlink:href="#Roboto-Regular-6f" transform="translate(820.458984 0.765625)"/>
      <use xlink:href="#Roboto-Regular-77" transform="translate(877.490234 0.765625)"/>
      <use xlink:href="#Roboto-Regular-20" transform="translate(952.636719 0.765625)"/>
      <use xlink:href="#Roboto-Regular-5b" transform="translate(977.392578 0.765625)"/>
      <use xlink:href="#Roboto-Regular-6b" transform="translate(1003.90625 0.765625)"/>
      <use xlink:href="#Roboto-Regular-57" transform="translate(1054.589844 0.765625)"/>
      <use xlink:href="#Roboto-Regular-2f" transform="translate(1143.310547 0.765625)"/>
      <use xlink:href="#Roboto-Regular-28" transform="translate(1184.521484 0.765625)"/>
      <use xlink:href="#Roboto-Regular-6d" transform="translate(1218.701172 0.765625)"/>
      <use xlink:href="#DejaVuSans-33" transform="translate(1307.304688 39.046875) scale(0.7)"/>
      <use xlink:href="#Roboto-Regular-2f" transform="translate(1354.575195 0.765625)"/>
      <use xlink:href="#Roboto-Regular-73" transform="translate(1395.786133 0.765625)"/>
      <use xlink:href="#Roboto-Regular-29" transform="translate(1447.348633 0.765625)"/>
      <use xlink:href="#Roboto-Regular-5d" transform="translate(1482.114258 0.765625)"/>
     </g>
    </g>
   </g>
   <g id="text_21">
    <!-- Setpoint -->
    <g style="fill: #12b886" transform="translate(255.356143 44.155449) rotate(-90) scale(0.08 -0.08)">
     <defs>
      <path id="Roboto-Regular-53" d="M 1869 2028 
Q 1097 2250 745 2573 
Q 394 2897 394 3372 
Q 394 3909 823 4261 
Q 1253 4613 1941 4613 
Q 2409 4613 2776 4431 
Q 3144 4250 3345 3931 
Q 3547 3613 3547 3234 
L 2944 3234 
Q 2944 3647 2681 3883 
Q 2419 4119 1941 4119 
Q 1497 4119 1248 3923 
Q 1000 3728 1000 3381 
Q 1000 3103 1236 2911 
Q 1472 2719 2039 2559 
Q 2606 2400 2926 2208 
Q 3247 2016 3401 1759 
Q 3556 1503 3556 1156 
Q 3556 603 3125 270 
Q 2694 -63 1972 -63 
Q 1503 -63 1097 117 
Q 691 297 470 609 
Q 250 922 250 1319 
L 853 1319 
Q 853 906 1158 667 
Q 1463 428 1972 428 
Q 2447 428 2700 622 
Q 2953 816 2953 1150 
Q 2953 1484 2718 1667 
Q 2484 1850 1869 2028 
z
" transform="scale(0.015625)"/>
     </defs>
     <use xlink:href="#Roboto-Regular-53"/>
     <use xlink:href="#Roboto-Regular-65" transform="translate(59.326172 0)"/>
     <use xlink:href="#Roboto-Regular-74" transform="translate(112.304688 0)"/>
     <use xlink:href="#Roboto-Regular-70" transform="translate(144.970703 0)"/>
     <use xlink:href="#Roboto-Regular-6f" transform="translate(201.074219 0)"/>
     <use xlink:href="#Roboto-Regular-69" transform="translate(258.105469 0)"/>
     <use xlink:href="#Roboto-Regular-6e" transform="translate(282.373047 0)"/>
     <use xlink:href="#Roboto-Regular-74" transform="translate(337.548828 0)"/>
    </g>
   </g>
   <g id="PathCollection_1">
    <defs>
     <path id="C0_0_35f35b867e" d="M 0 1.224745 
C 0.324806 1.224745 0.636353 1.095698 0.866025 0.866025 
C 1.095698 0.636353 1.224745 0.324806 1.224745 -0 
C 1.224745 -0.324806 1.095698 -0.636353 0.866025 -0.866025 
C 0.636353 -1.095698 0.324806 -1.224745 0 -1.224745 
C -0.324806 -1.224745 -0.636353 -1.095698 -0.866025 -0.866025 
C -1.095698 -0.636353 -1.224745 -0.324806 -1.224745 0 
C -1.224745 0.324806 -1.095698 0.636353 -0.866025 0.866025 
C -0.636353 1.095698 -0.324806 1.224745 0 1.224745 
z
"/>
    </defs>
    <g clip-path="url(#p4a65ccf0da)">
     <use xlink:href="#C0_0_35f35b867e" x="259.134604" y="122.346425" style="fill: #e03131; stroke: #e03131; stroke-width: 0.5"/>
    </g>
    <g clip-path="url(#p4a65ccf0da)">
     <use xlink:href="#C0_0_35f35b867e" x="259.134604" y="161.059033" style="fill: #1971c2; stroke: #1971c2; stroke-width: 0.5"/>
    </g>
   </g>
   <g id="legend_1">
    <g id="line2d_56">
     <path d="M 35.032102 15.292316 
L 42.032102 15.292316 
L 49.032102 15.292316 
" style="fill: none; stroke: #ff8787; stroke-linecap: square"/>
    </g>
    <g id="text_22">
     <!-- Exergy rate of unit air flow rate in winter ($T_0$ = - 6 °C) -->
     <g transform="translate(56.032102 17.742316) scale(0.07 -0.07)">
      <defs>
       <path id="DejaVuSans-Oblique-54" d="M 378 4666 
L 4325 4666 
L 4225 4134 
L 2559 4134 
L 1759 0 
L 1125 0 
L 1925 4134 
L 275 4134 
L 378 4666 
z
" transform="scale(0.015625)"/>
       <path id="DejaVuSans-30" d="M 2034 4250 
Q 1547 4250 1301 3770 
Q 1056 3291 1056 2328 
Q 1056 1369 1301 889 
Q 1547 409 2034 409 
Q 2525 409 2770 889 
Q 3016 1369 3016 2328 
Q 3016 3291 2770 3770 
Q 2525 4250 2034 4250 
z
M 2034 4750 
Q 2819 4750 3233 4129 
Q 3647 3509 3647 2328 
Q 3647 1150 3233 529 
Q 2819 -91 2034 -91 
Q 1250 -91 836 529 
Q 422 1150 422 2328 
Q 422 3509 836 4129 
Q 1250 4750 2034 4750 
z
" transform="scale(0.015625)"/>
       <path id="Roboto-Regular-3d" d="M 3081 2544 
L 475 2544 
L 475 3047 
L 3081 3047 
L 3081 2544 
z
M 3081 1247 
L 475 1247 
L 475 1747 
L 3081 1747 
L 3081 1247 
z
" transform="scale(0.015625)"/>
       <path id="Roboto-Regular-2d" d="M 1641 1697 
L 116 1697 
L 116 2169 
L 1641 2169 
L 1641 1697 
z
" transform="scale(0.015625)"/>
      </defs>
      <use xlink:href="#Roboto-Regular-45" transform="translate(0 0.78125)"/>
      <use xlink:href="#Roboto-Regular-78" transform="translate(56.835938 0.78125)"/>
      <use xlink:href="#Roboto-Regular-65" transform="translate(106.396484 0.78125)"/>
      <use xlink:href="#Roboto-Regular-72" transform="translate(159.375 0.78125)"/>
      <use xlink:href="#Roboto-Regular-67" transform="translate(193.212891 0.78125)"/>
      <use xlink:href="#Roboto-Regular-79" transform="translate(249.316406 0.78125)"/>
      <use xlink:href="#Roboto-Regular-20" transform="translate(296.630859 0.78125)"/>
      <use xlink:href="#Roboto-Regular-72" transform="translate(321.386719 0.78125)"/>
      <use xlink:href="#Roboto-Regular-61" transform="translate(355.224609 0.78125)"/>
      <use xlink:href="#Roboto-Regular-74" transform="translate(409.619141 0.78125)"/>
      <use xlink:href="#Roboto-Regular-65" transform="translate(442.285156 0.78125)"/>
      <use xlink:href="#Roboto-Regular-20" transform="translate(495.263672 0.78125)"/>
      <use xlink:href="#Roboto-Regular-6f" transform="translate(520.019531 0.78125)"/>
      <use xlink:href="#Roboto-Regular-66" transform="translate(577.050781 0.78125)"/>
      <use xlink:href="#Roboto-Regular-20" transform="translate(611.767578 0.78125)"/>
      <use xlink:href="#Roboto-Regular-75" transform="translate(636.523438 0.78125)"/>
      <use xlink:href="#Roboto-Regular-6e" transform="translate(691.650391 0.78125)"/>
      <use xlink:href="#Roboto-Regular-69" transform="translate(746.826172 0.78125)"/>
      <use xlink:href="#Roboto-Regular-74" transform="translate(771.09375 0.78125)"/>
      <use xlink:href="#Roboto-Regular-20" transform="translate(803.759766 0.78125)"/>
      <use xlink:href="#Roboto-Regular-61" transform="translate(828.515625 0.78125)"/>
      <use xlink:href="#Roboto-Regular-69" transform="translate(882.910156 0.78125)"/>
      <use xlink:href="#Roboto-Regular-72" transform="translate(907.177734 0.78125)"/>
      <use xlink:href="#Roboto-Regular-20" transform="translate(941.015625 0.78125)"/>
      <use xlink:href="#Roboto-Regular-66" transform="translate(965.771484 0.78125)"/>
      <use xlink:href="#Roboto-Regular-6c" transform="translate(1000.488281 0.78125)"/>
      <use xlink:href="#Roboto-Regular-6f" transform="translate(1024.755859 0.78125)"/>
      <use xlink:href="#Roboto-Regular-77" transform="translate(1081.787109 0.78125)"/>
      <use xlink:href="#Roboto-Regular-20" transform="translate(1156.933594 0.78125)"/>
      <use xlink:href="#Roboto-Regular-72" transform="translate(1181.689453 0.78125)"/>
      <use xlink:href="#Roboto-Regular-61" transform="translate(1215.527344 0.78125)"/>
      <use xlink:href="#Roboto-Regular-74" transform="translate(1269.921875 0.78125)"/>
      <use xlink:href="#Roboto-Regular-65" transform="translate(1302.587891 0.78125)"/>
      <use xlink:href="#Roboto-Regular-20" transform="translate(1355.566406 0.78125)"/>
      <use xlink:href="#Roboto-Regular-69" transform="translate(1380.322266 0.78125)"/>
      <use xlink:href="#Roboto-Regular-6e" transform="translate(1404.589844 0.78125)"/>
      <use xlink:href="#Roboto-Regular-20" transform="translate(1459.765625 0.78125)"/>
      <use xlink:href="#Roboto-Regular-77" transform="translate(1484.521484 0.78125)"/>
      <use xlink:href="#Roboto-Regular-69" transform="translate(1559.667969 0.78125)"/>
      <use xlink:href="#Roboto-Regular-6e" transform="translate(1583.935547 0.78125)"/>
      <use xlink:href="#Roboto-Regular-74" transform="translate(1639.111328 0.78125)"/>
      <use xlink:href="#Roboto-Regular-65" transform="translate(1671.777344 0.78125)"/>
      <use xlink:href="#Roboto-Regular-72" transform="translate(1724.755859 0.78125)"/>
      <use xlink:href="#Roboto-Regular-20" transform="translate(1758.59375 0.78125)"/>
      <use xlink:href="#Roboto-Regular-28" transform="translate(1783.349609 0.78125)"/>
      <use xlink:href="#DejaVuSans-Oblique-54" transform="translate(1817.529297 0.78125)"/>
      <use xlink:href="#DejaVuSans-30" transform="translate(1878.613281 -15.625) scale(0.7)"/>
      <use xlink:href="#Roboto-Regular-20" transform="translate(1925.883789 0.78125)"/>
      <use xlink:href="#Roboto-Regular-3d" transform="translate(1950.639648 0.78125)"/>
      <use xlink:href="#Roboto-Regular-20" transform="translate(2005.522461 0.78125)"/>
      <use xlink:href="#Roboto-Regular-2d" transform="translate(2030.27832 0.78125)"/>
      <use xlink:href="#Roboto-Regular-20" transform="translate(2057.866211 0.78125)"/>
      <use xlink:href="#Roboto-Regular-36" transform="translate(2082.62207 0.78125)"/>
      <use xlink:href="#Roboto-Regular-20" transform="translate(2138.774414 0.78125)"/>
      <use xlink:href="#Roboto-Regular-b0" transform="translate(2163.530273 0.78125)"/>
      <use xlink:href="#Roboto-Regular-43" transform="translate(2200.883789 0.78125)"/>
      <use xlink:href="#Roboto-Regular-29" transform="translate(2265.97168 0.78125)"/>
     </g>
    </g>
    <g id="line2d_57">
     <path d="M 35.032102 25.372316 
L 42.032102 25.372316 
L 49.032102 25.372316 
" style="fill: none; stroke: #74c0fc; stroke-linecap: square"/>
    </g>
    <g id="text_23">
     <!-- Exergy rate of unit air flow rate in summer ($T_0$ = 33 °C) -->
     <g transform="translate(56.032102 27.822316) scale(0.07 -0.07)">
      <use xlink:href="#Roboto-Regular-45" transform="translate(0 0.78125)"/>
      <use xlink:href="#Roboto-Regular-78" transform="translate(56.835938 0.78125)"/>
      <use xlink:href="#Roboto-Regular-65" transform="translate(106.396484 0.78125)"/>
      <use xlink:href="#Roboto-Regular-72" transform="translate(159.375 0.78125)"/>
      <use xlink:href="#Roboto-Regular-67" transform="translate(193.212891 0.78125)"/>
      <use xlink:href="#Roboto-Regular-79" transform="translate(249.316406 0.78125)"/>
      <use xlink:href="#Roboto-Regular-20" transform="translate(296.630859 0.78125)"/>
      <use xlink:href="#Roboto-Regular-72" transform="translate(321.386719 0.78125)"/>
      <use xlink:href="#Roboto-Regular-61" transform="translate(355.224609 0.78125)"/>
      <use xlink:href="#Roboto-Regular-74" transform="translate(409.619141 0.78125)"/>
      <use xlink:href="#Roboto-Regular-65" transform="translate(442.285156 0.78125)"/>
      <use xlink:href="#Roboto-Regular-20" transform="translate(495.263672 0.78125)"/>
      <use xlink:href="#Roboto-Regular-6f" transform="translate(520.019531 0.78125)"/>
      <use xlink:href="#Roboto-Regular-66" transform="translate(577.050781 0.78125)"/>
      <use xlink:href="#Roboto-Regular-20" transform="translate(611.767578 0.78125)"/>
      <use xlink:href="#Roboto-Regular-75" transform="translate(636.523438 0.78125)"/>
      <use xlink:href="#Roboto-Regular-6e" transform="translate(691.650391 0.78125)"/>
      <use xlink:href="#Roboto-Regular-69" transform="translate(746.826172 0.78125)"/>
      <use xlink:href="#Roboto-Regular-74" transform="translate(771.09375 0.78125)"/>
      <use xlink:href="#Roboto-Regular-20" transform="translate(803.759766 0.78125)"/>
      <use xlink:href="#Roboto-Regular-61" transform="translate(828.515625 0.78125)"/>
      <use xlink:href="#Roboto-Regular-69" transform="translate(882.910156 0.78125)"/>
      <use xlink:href="#Roboto-Regular-72" transform="translate(907.177734 0.78125)"/>
      <use xlink:href="#Roboto-Regular-20" transform="translate(941.015625 0.78125)"/>
      <use xlink:href="#Roboto-Regular-66" transform="translate(965.771484 0.78125)"/>
      <use xlink:href="#Roboto-Regular-6c" transform="translate(1000.488281 0.78125)"/>
      <use xlink:href="#Roboto-Regular-6f" transform="translate(1024.755859 0.78125)"/>
      <use xlink:href="#Roboto-Regular-77" transform="translate(1081.787109 0.78125)"/>
      <use xlink:href="#Roboto-Regular-20" transform="translate(1156.933594 0.78125)"/>
      <use xlink:href="#Roboto-Regular-72" transform="translate(1181.689453 0.78125)"/>
      <use xlink:href="#Roboto-Regular-61" transform="translate(1215.527344 0.78125)"/>
      <use xlink:href="#Roboto-Regular-74" transform="translate(1269.921875 0.78125)"/>
      <use xlink:href="#Roboto-Regular-65" transform="translate(1302.587891 0.78125)"/>
      <use xlink:href="#Roboto-Regular-20" transform="translate(1355.566406 0.78125)"/>
      <use xlink:href="#Roboto-Regular-69" transform="translate(1380.322266 0.78125)"/>
      <use xlink:href="#Roboto-Regular-6e" transform="translate(1404.589844 0.78125)"/>
      <use xlink:href="#Roboto-Regular-20" transform="translate(1459.765625 0.78125)"/>
      <use xlink:href="#Roboto-Regular-73" transform="translate(1484.521484 0.78125)"/>
      <use xlink:href="#Roboto-Regular-75" transform="translate(1536.083984 0.78125)"/>
      <use xlink:href="#Roboto-Regular-6d" transform="translate(1591.210938 0.78125)"/>
      <use xlink:href="#Roboto-Regular-6d" transform="translate(1678.857422 0.78125)"/>
      <use xlink:href="#Roboto-Regular-65" transform="translate(1766.503906 0.78125)"/>
      <use xlink:href="#Roboto-Regular-72" transform="translate(1819.482422 0.78125)"/>
      <use xlink:href="#Roboto-Regular-20" transform="translate(1853.320312 0.78125)"/>
      <use xlink:href="#Roboto-Regular-28" transform="translate(1878.076172 0.78125)"/>
      <use xlink:href="#DejaVuSans-Oblique-54" transform="translate(1912.255859 0.78125)"/>
      <use xlink:href="#DejaVuSans-30" transform="translate(1973.339844 -15.625) scale(0.7)"/>
      <use xlink:href="#Roboto-Regular-20" transform="translate(2020.610352 0.78125)"/>
      <use xlink:href="#Roboto-Regular-3d" transform="translate(2045.366211 0.78125)"/>
      <use xlink:href="#Roboto-Regular-20" transform="translate(2100.249023 0.78125)"/>
      <use xlink:href="#Roboto-Regular-33" transform="translate(2125.004883 0.78125)"/>
      <use xlink:href="#Roboto-Regular-33" transform="translate(2181.157227 0.78125)"/>
      <use xlink:href="#Roboto-Regular-20" transform="translate(2237.30957 0.78125)"/>
      <use xlink:href="#Roboto-Regular-b0" transform="translate(2262.06543 0.78125)"/>
      <use xlink:href="#Roboto-Regular-43" transform="translate(2299.418945 0.78125)"/>
      <use xlink:href="#Roboto-Regular-29" transform="translate(2364.506836 0.78125)"/>
     </g>
    </g>
   </g>
   <g id="text_24">
    <!-- 1.69 -->
    <g style="fill: #e03131" transform="translate(252.317261 116.92455) scale(0.07 -0.07)">
     <defs>
      <path id="Roboto-Regular-2e" d="M 450 303 
Q 450 453 539 553 
Q 628 653 806 653 
Q 984 653 1076 553 
Q 1169 453 1169 303 
Q 1169 159 1076 62 
Q 984 -34 806 -34 
Q 628 -34 539 62 
Q 450 159 450 303 
z
" transform="scale(0.015625)"/>
      <path id="Roboto-Regular-39" d="M 2594 2000 
Q 2413 1784 2161 1653 
Q 1909 1522 1609 1522 
Q 1216 1522 923 1715 
Q 631 1909 472 2261 
Q 313 2613 313 3038 
Q 313 3494 486 3859 
Q 659 4225 978 4419 
Q 1297 4613 1722 4613 
Q 2397 4613 2786 4108 
Q 3175 3603 3175 2731 
L 3175 2563 
Q 3175 1234 2650 623 
Q 2125 13 1066 -3 
L 953 -3 
L 953 484 
L 1075 484 
Q 1791 497 2175 858 
Q 2559 1219 2594 2000 
z
M 1703 2000 
Q 1994 2000 2239 2178 
Q 2484 2356 2597 2619 
L 2597 2850 
Q 2597 3419 2350 3775 
Q 2103 4131 1725 4131 
Q 1344 4131 1112 3839 
Q 881 3547 881 3069 
Q 881 2603 1104 2301 
Q 1328 2000 1703 2000 
z
" transform="scale(0.015625)"/>
     </defs>
     <use xlink:href="#Roboto-Regular-31"/>
     <use xlink:href="#Roboto-Regular-2e" transform="translate(56.152344 0)"/>
     <use xlink:href="#Roboto-Regular-36" transform="translate(82.470703 0)"/>
     <use xlink:href="#Roboto-Regular-39" transform="translate(138.623047 0)"/>
    </g>
   </g>
   <g id="text_25">
    <!-- 0.25 -->
    <g style="fill: #1971c2" transform="translate(252.317261 155.637158) scale(0.07 -0.07)">
     <use xlink:href="#Roboto-Regular-30"/>
     <use xlink:href="#Roboto-Regular-2e" transform="translate(56.152344 0)"/>
     <use xlink:href="#Roboto-Regular-32" transform="translate(82.470703 0)"/>
     <use xlink:href="#Roboto-Regular-35" transform="translate(138.623047 0)"/>
    </g>
   </g>
  </g>
 </g>
 <defs>
  <clipPath id="p4a65ccf0da">
   <rect x="29.432102" y="6.472316" width="358.91016" height="161.287647"/>
  </clipPath>
 </defs>
</svg>
