<?xml version="1.0" encoding="utf-8" standalone="no"?>
<!DOCTYPE svg PUBLIC "-//W3C//DTD SVG 1.1//EN"
  "http://www.w3.org/Graphics/SVG/1.1/DTD/svg11.dtd">
<svg xmlns:xlink="http://www.w3.org/1999/xlink" width="396.850394pt" height="198.425197pt" viewBox="0 0 396.850394 198.425197" xmlns="http://www.w3.org/2000/svg" version="1.1">
 <metadata>
  <rdf:RDF xmlns:dc="http://purl.org/dc/elements/1.1/" xmlns:cc="http://creativecommons.org/ns#" xmlns:rdf="http://www.w3.org/1999/02/22-rdf-syntax-ns#">
   <cc:Work>
    <dc:type rdf:resource="http://purl.org/dc/dcmitype/StillImage"/>
    <dc:date>2025-09-23T10:11:09.797093</dc:date>
    <dc:format>image/svg+xml</dc:format>
    <dc:creator>
     <cc:Agent>
      <dc:title>Matplotlib v3.10.3, https://matplotlib.org/</dc:title>
     </cc:Agent>
    </dc:creator>
   </cc:Work>
  </rdf:RDF>
 </metadata>
 <defs>
  <style type="text/css">*{stroke-linejoin: round; stroke-linecap: butt}</style>
 </defs>
 <g id="figure_1">
  <g id="patch_1">
   <path d="M 0 198.425197 
L 396.850394 198.425197 
L 396.850394 0 
L 0 0 
L 0 198.425197 
z
" style="fill: none"/>
  </g>
  <g id="axes_1">
   <g id="patch_2">
    <path d="M 39.685039 162.708661 
L 377.007874 162.708661 
L 377.007874 9.92126 
L 39.685039 9.92126 
L 39.685039 162.708661 
z
" style="fill: none"/>
   </g>
   <g id="line2d_1">
    <path d="M 40.356997 162.357302 
L 41.239234 162.357302 
L 41.354309 158.369638 
L 41.431025 160.113921 
L 41.469383 158.501291 
L 41.507741 67.41275 
L 41.584458 128.144842 
L 41.73789 152.636818 
L 41.891323 160.870502 
L 42.044755 144.440238 
L 42.083113 143.523387 
L 42.198188 162.357302 
L 42.389978 162.357302 
L 42.428337 89.276836 
L 42.505053 147.71218 
L 42.620127 162.332075 
L 42.658485 161.935624 
L 42.77356 162.357302 
L 42.811918 162.357302 
L 43.003709 148.166103 
L 43.118783 162.357302 
L 43.310574 162.357302 
L 43.348932 71.520833 
L 43.425648 145.000846 
L 43.540723 161.349602 
L 43.579081 160.328655 
L 43.694155 162.357302 
L 43.732513 162.357302 
L 43.924304 148.81242 
L 44.039378 162.357302 
L 44.231169 162.357302 
L 44.269527 86.116339 
L 44.346243 148.432984 
L 44.461318 161.479789 
L 44.499676 160.829583 
L 44.61475 162.357302 
L 44.653109 162.357302 
L 44.844899 148.292259 
L 44.959974 162.357302 
L 45.151764 162.357302 
L 45.190122 85.735712 
L 45.266839 147.598512 
L 45.381913 162.334904 
L 45.420271 161.555806 
L 45.535346 162.357302 
L 45.573704 162.357302 
L 45.65042 157.337053 
L 45.765494 149.736848 
L 45.880569 162.357302 
L 47.91355 162.357302 
L 47.951908 72.004368 
L 48.028625 138.7644 
L 48.143699 160.490559 
L 48.182057 159.859587 
L 48.297131 162.357302 
L 48.33549 162.357302 
L 48.52728 145.485936 
L 48.642355 162.357302 
L 48.834145 162.357302 
L 48.872504 65.0625 
L 48.94922 143.857222 
L 49.064294 160.59073 
L 49.102652 159.343222 
L 49.256085 162.357302 
L 49.447876 143.879515 
L 49.56295 162.357302 
L 49.754741 162.357302 
L 49.793099 55.33741 
L 49.869815 140.749415 
L 49.98489 159.103775 
L 50.023248 158.105991 
L 50.099964 162.047294 
L 50.138322 161.908857 
L 50.17668 161.609686 
L 50.368471 144.876721 
L 50.483545 162.357302 
L 50.675336 162.357302 
L 50.713694 80.736922 
L 50.79041 145.598695 
L 50.905485 156.297868 
L 50.943843 153.898024 
L 51.020559 157.812922 
L 51.058917 157.665712 
L 51.097275 157.240587 
L 51.289066 134.129316 
L 51.404141 162.357302 
L 51.519215 162.357302 
L 51.557573 161.966478 
L 51.595931 160.281553 
L 51.634289 45.237352 
L 51.711006 130.733892 
L 51.82608 154.991134 
L 51.864438 153.973745 
L 51.979513 158.126357 
L 52.017871 157.655202 
L 52.209661 134.591267 
L 52.324736 162.357302 
L 54.165926 162.357302 
L 54.319359 161.435385 
L 54.357717 161.741361 
L 54.396075 66.80156 
L 54.472791 135.219827 
L 54.626224 155.443589 
L 54.779657 161.802106 
L 54.933089 143.291977 
L 54.971447 144.69362 
L 55.086522 162.357302 
L 55.278312 162.357302 
L 55.316671 87.153194 
L 55.393387 147.033802 
L 55.508461 162.118673 
L 55.546819 161.060484 
L 55.661894 162.357302 
L 55.700252 162.357302 
L 55.892043 147.154463 
L 56.007117 162.357302 
L 56.198908 162.357302 
L 56.237266 83.048791 
L 56.313982 146.864468 
L 56.429056 159.700521 
L 56.467415 157.404915 
L 56.620847 161.89758 
L 56.812638 142.602919 
L 56.927712 162.357302 
L 57.119503 162.357302 
L 57.157861 66.084877 
L 57.234577 142.006353 
L 57.349652 159.672852 
L 57.38801 158.442386 
L 57.541442 162.357302 
L 57.733233 145.151108 
L 57.848308 162.357302 
L 58.040098 162.357302 
L 58.078456 67.83299 
L 58.155173 145.652152 
L 58.270247 161.050693 
L 58.308605 159.877283 
L 58.42368 162.357302 
L 58.462038 162.357302 
L 58.653828 146.820352 
L 58.768903 162.357302 
L 60.763526 162.357302 
L 60.801884 162.107103 
L 60.840242 71.006603 
L 60.916958 133.968117 
L 61.070391 153.174201 
L 61.223824 160.436136 
L 61.415614 140.590296 
L 61.530689 162.357302 
L 61.722479 162.357302 
L 61.760837 68.523494 
L 61.837554 142.066775 
L 61.952628 159.781636 
L 61.990986 158.548891 
L 62.067703 162.294125 
L 62.144419 162.162367 
L 62.33621 140.850499 
L 62.451284 162.357302 
L 62.643075 162.357302 
L 62.681433 59.156272 
L 62.758149 140.532144 
L 62.873223 158.282852 
L 62.911582 157.072777 
L 63.065014 161.958973 
L 63.256805 141.285675 
L 63.371879 162.357302 
L 63.56367 162.357302 
L 63.602028 63.306503 
L 63.678744 140.338075 
L 63.793819 159.468224 
L 63.832177 158.494565 
L 63.985609 162.357302 
L 64.1774 144.57316 
L 64.292474 162.357302 
L 64.484265 162.357302 
L 64.522623 68.200129 
L 64.59934 143.744172 
L 64.714414 161.117249 
L 64.752772 160.011277 
L 64.867847 162.357302 
L 64.906205 162.357302 
L 65.097995 148.256307 
L 65.21307 162.357302 
L 67.246051 162.357302 
L 67.284409 58.978246 
L 67.361125 137.172636 
L 67.4762 159.040733 
L 67.514558 158.025441 
L 67.667991 162.357302 
L 67.859781 144.886258 
L 67.974856 162.357302 
L 68.166646 162.357302 
L 68.205004 67.669474 
L 68.281721 144.619126 
L 68.396795 160.067132 
L 68.435153 158.779138 
L 68.588586 162.357302 
L 68.780376 144.34936 
L 68.895451 162.357302 
L 69.087242 162.357302 
L 69.1256 76.275204 
L 69.202316 146.114091 
L 69.31739 161.18427 
L 69.355749 160.200199 
L 69.470823 162.357302 
L 69.509181 162.357302 
L 69.700972 149.455057 
L 69.816046 162.357302 
L 70.007837 162.357302 
L 70.046195 77.694555 
L 70.122911 148.197297 
L 70.237986 161.959767 
L 70.276344 161.243754 
L 70.391418 162.357302 
L 70.429776 162.357302 
L 70.468134 161.415885 
L 70.621567 150.967146 
L 70.736641 162.357302 
L 70.928432 162.357302 
L 70.96679 77.486735 
L 71.043507 148.405819 
L 71.158581 162.264361 
L 71.196939 161.700476 
L 71.312013 162.357302 
L 71.350372 162.357302 
L 71.427088 157.749807 
L 71.542162 150.875674 
L 71.657237 162.357302 
L 73.690218 162.357302 
L 73.728576 104.468477 
L 73.805292 154.450351 
L 73.958725 162.357302 
L 74.26559 162.292947 
L 74.303948 161.880699 
L 74.342306 162.357302 
L 74.610813 162.357302 
L 74.649171 123.961821 
L 74.68753 137.950397 
L 74.802604 162.357302 
L 75.071111 162.357302 
L 75.224543 154.286854 
L 75.339618 162.357302 
L 75.531409 162.357302 
L 75.569767 85.084619 
L 75.646483 151.150027 
L 75.761557 162.357302 
L 75.799915 162.036515 
L 75.91499 162.357302 
L 75.953348 162.357302 
L 76.145139 149.152336 
L 76.260213 162.357302 
L 76.452004 162.357302 
L 76.490362 78.610928 
L 76.567078 149.231462 
L 76.682153 162.323666 
L 76.720511 161.337286 
L 76.835585 162.357302 
L 76.873943 162.357302 
L 76.95066 157.029882 
L 77.065734 150.117921 
L 77.180808 162.357302 
L 77.372599 162.357302 
L 77.410957 76.362966 
L 77.487673 146.191164 
L 77.602748 162.228258 
L 77.641106 161.456895 
L 77.75618 162.357302 
L 77.794539 162.357302 
L 77.832897 161.634734 
L 77.986329 152.595163 
L 78.101404 162.357302 
L 80.134385 162.357302 
L 80.172743 59.318784 
L 80.249459 138.479043 
L 80.364534 161.042922 
L 80.402892 160.757732 
L 80.517966 162.357302 
L 80.556324 162.357302 
L 80.748115 151.093956 
L 80.86319 162.357302 
L 81.05498 162.357302 
L 81.093338 84.600745 
L 81.170055 152.426365 
L 81.323487 162.357302 
L 81.515278 162.357302 
L 81.591994 159.37179 
L 81.66871 155.275515 
L 81.783785 162.357302 
L 81.975575 162.357302 
L 82.013934 88.500553 
L 82.09065 151.419109 
L 82.205724 162.334002 
L 82.244082 161.313151 
L 82.359157 162.357302 
L 82.397515 162.357302 
L 82.474231 155.992227 
L 82.589306 149.430464 
L 82.70438 162.357302 
L 82.896171 162.357302 
L 82.934529 109.979433 
L 83.011245 152.524899 
L 83.164678 162.357302 
L 83.31811 162.357302 
L 83.356468 161.881862 
L 83.471543 152.359673 
L 83.509901 152.538083 
L 83.624975 162.357302 
L 83.816766 162.357302 
L 83.855124 109.924549 
L 83.93184 154.998556 
L 84.046915 162.357302 
L 84.277064 162.357302 
L 84.35378 159.649432 
L 84.430496 155.457588 
L 84.545571 162.357302 
L 86.578552 162.357302 
L 86.61691 75.741679 
L 86.693626 149.530845 
L 86.847059 162.357302 
L 87.000491 162.357302 
L 87.115566 156.954692 
L 87.153924 152.673517 
L 87.192282 153.433173 
L 87.307356 162.357302 
L 87.499147 162.357302 
L 87.537505 123.646205 
L 87.614222 157.527286 
L 87.729296 162.357302 
L 87.959445 162.357302 
L 88.112877 152.488223 
L 88.227952 162.357302 
L 88.419742 162.357302 
L 88.458101 101.99057 
L 88.534817 153.128404 
L 88.688249 162.357302 
L 88.841682 162.357302 
L 88.918398 153.739394 
L 89.033473 145.518284 
L 89.148547 162.357302 
L 89.340338 162.357302 
L 89.378696 69.392207 
L 89.455412 143.686893 
L 89.570487 156.619487 
L 89.608845 155.070957 
L 89.762277 161.988441 
L 89.954068 138.618534 
L 90.069142 162.357302 
L 90.260933 162.357302 
L 90.299291 60.555367 
L 90.376007 142.998954 
L 90.491082 159.831528 
L 90.52944 158.562176 
L 90.682873 162.357302 
L 90.874663 143.052632 
L 90.989738 162.357302 
L 92.79257 162.357302 
L 93.022719 159.574481 
L 93.061077 56.904965 
L 93.137793 132.400881 
L 93.252868 154.423617 
L 93.291226 153.307301 
L 93.444658 160.949643 
L 93.636449 140.706867 
L 93.751523 162.357302 
L 93.943314 162.357302 
L 93.981672 86.67391 
L 94.058389 148.721297 
L 94.173463 162.327813 
L 94.211821 161.649354 
L 94.326895 162.357302 
L 94.365254 162.357302 
L 94.557044 148.137901 
L 94.672119 162.357302 
L 94.863909 162.357302 
L 94.902268 87.528535 
L 94.978984 153.204216 
L 95.132416 162.357302 
L 95.324207 162.357302 
L 95.47764 152.835359 
L 95.592714 162.357302 
L 95.784505 162.357302 
L 95.822863 89.207608 
L 95.861221 112.498507 
L 96.014653 162.357302 
L 96.244802 162.357302 
L 96.321519 160.675775 
L 96.398235 157.01584 
L 96.513309 162.357302 
L 96.7051 162.357302 
L 96.743458 105.744702 
L 96.781816 124.226067 
L 96.896891 162.357302 
L 97.165398 162.357302 
L 97.242114 160.405835 
L 97.31883 156.712101 
L 97.433905 162.357302 
L 99.466886 162.357302 
L 99.505244 72.256687 
L 99.58196 148.7785 
L 99.735393 162.357302 
L 99.927183 162.357302 
L 100.0039 161.195718 
L 100.080616 159.046156 
L 100.19569 162.357302 
L 100.387481 162.357302 
L 100.425839 117.035303 
L 100.464197 134.508994 
L 100.579272 162.357302 
L 101.308076 162.357302 
L 101.346434 133.609088 
L 101.384793 148.201122 
L 101.461509 162.357302 
L 101.499867 162.308184 
L 101.691658 162.357302 
L 102.228672 162.357302 
L 102.26703 157.602898 
L 102.305388 160.378393 
L 102.420462 162.357302 
L 103.149267 162.357302 
L 103.187625 128.723739 
L 103.225983 140.390915 
L 103.341058 162.357302 
L 103.686281 162.357302 
L 103.724639 162.231529 
L 103.762997 161.700128 
L 103.801355 162.357302 
L 105.872695 162.357302 
L 105.911053 92.835289 
L 105.987769 152.301468 
L 106.141202 162.357302 
L 106.409709 162.357302 
L 106.486425 160.614083 
L 106.601499 162.357302 
L 106.79329 162.357302 
L 106.831648 116.608499 
L 106.870006 134.736528 
L 106.985081 162.357302 
L 107.368662 162.357302 
L 107.40702 161.830709 
L 107.445378 162.357302 
L 107.713885 162.357302 
L 107.752243 123.564353 
L 107.790601 137.252488 
L 107.905676 162.357302 
L 108.289257 162.357302 
L 108.327615 161.914694 
L 108.365973 162.357302 
L 108.63448 162.357302 
L 108.672839 149.238184 
L 108.711197 152.620158 
L 108.826271 162.357302 
L 109.171494 162.357302 
L 109.209853 161.98507 
L 109.248211 160.143835 
L 109.286569 162.357302 
L 109.555076 162.357302 
L 109.593434 113.853521 
L 109.67015 156.610276 
L 109.785225 162.357302 
L 109.823583 162.350713 
L 110.015373 162.283389 
L 110.168806 147.192308 
L 110.28388 162.357302 
L 112.316862 162.357302 
L 112.35522 87.711866 
L 112.431936 154.297462 
L 112.585369 162.357302 
L 112.892234 162.357302 
L 112.930592 162.102935 
L 112.96895 162.357302 
L 113.237457 162.357302 
L 113.275815 150.498593 
L 113.314173 155.154988 
L 113.429248 162.357302 
L 115.999243 162.357302 
L 116.037601 162.168645 
L 116.075959 162.357302 
L 118.761029 162.357302 
L 118.799387 89.043893 
L 118.837745 110.319862 
L 118.991177 162.357302 
L 119.298042 162.357302 
L 119.374759 161.505 
L 119.489833 162.357302 
L 119.681624 162.357302 
L 119.719982 115.875992 
L 119.75834 134.35612 
L 119.873414 162.357302 
L 120.602219 162.357302 
L 120.640577 143.699831 
L 120.678935 150.982327 
L 120.79401 162.357302 
L 121.522814 162.357302 
L 121.561173 158.274925 
L 121.599531 160.851717 
L 121.714605 162.357302 
L 122.44341 162.357302 
L 122.481768 137.829088 
L 122.520126 148.547324 
L 122.6352 162.357302 
L 122.980424 162.357302 
L 123.05714 158.376053 
L 123.172214 162.357302 
L 125.205195 162.357302 
L 125.243554 134.221277 
L 125.281912 141.518635 
L 125.396986 162.357302 
L 126.125791 162.357302 
L 126.164149 144.898766 
L 126.202507 149.506186 
L 126.317581 162.357302 
L 127.046386 162.357302 
L 127.084744 154.234523 
L 127.123102 158.98464 
L 127.16146 162.357302 
L 127.238177 162.350168 
L 127.851907 162.357302 
L 127.966981 162.357302 
L 128.005339 157.087811 
L 128.043698 161.256324 
L 128.082056 162.258037 
L 128.158772 161.966693 
L 128.273846 162.140027 
L 128.427279 162.350443 
L 128.465637 162.258676 
L 128.542353 162.357302 
L 128.887577 162.357302 
L 128.925935 142.506463 
L 128.964293 153.473384 
L 129.002651 162.357302 
L 129.079367 161.884038 
L 129.156084 162.356299 
L 129.194442 161.756529 
L 129.2328 162.059279 
L 129.386232 162.357302 
L 131.649362 162.357302 
L 131.726079 141.950039 
L 131.841153 162.357302 
L 132.569958 162.357302 
L 132.608316 151.463675 
L 132.646674 157.240905 
L 132.72339 162.357302 
L 132.761748 162.125859 
L 132.800107 162.136112 
L 132.838465 162.348698 
L 132.876823 161.772772 
L 132.915181 162.003098 
L 133.030255 162.349392 
L 133.068614 162.268031 
L 133.14533 162.357302 
L 133.490553 162.357302 
L 133.528911 134.190223 
L 133.567269 149.087302 
L 133.643986 162.357302 
L 133.682344 162.339127 
L 133.950851 162.357302 
L 134.104283 162.357302 
L 134.411148 162.357302 
L 134.449506 137.333532 
L 134.487865 150.948664 
L 134.602939 162.357302 
L 134.679655 162.357302 
L 134.718013 162.214538 
L 134.79473 162.349719 
L 135.331744 162.357302 
L 135.370102 154.668413 
L 135.40846 160.584365 
L 135.485176 162.357302 
L 135.523534 162.317691 
L 135.561892 161.878042 
L 135.638609 162.105604 
L 135.792041 162.357302 
L 138.093529 162.357302 
L 138.131888 121.17345 
L 138.170246 137.00615 
L 138.28532 162.357302 
L 139.014125 162.357302 
L 139.052483 155.725489 
L 139.090841 159.314953 
L 139.129199 162.357302 
L 139.205915 162.342737 
L 139.551139 162.355739 
L 140.011436 162.357302 
L 140.049794 162.131977 
L 140.088153 162.332204 
L 140.318301 162.357302 
L 141.929343 162.357302 
L 142.006059 160.256668 
L 142.082776 161.053287 
L 142.236208 162.357302 
L 144.537696 162.357302 
L 144.691129 161.967891 
L 144.844561 162.357302 
L 152.823054 162.357302 
L 152.861412 160.220506 
L 152.89977 162.357302 
L 153.053203 162.357302 
L 153.743649 162.357302 
L 153.782007 157.325391 
L 153.820365 162.274809 
L 153.897082 161.749563 
L 153.93544 161.871593 
L 154.088872 162.349038 
L 154.625886 162.357302 
L 154.740961 162.357302 
L 154.856035 161.770747 
L 154.894393 161.858857 
L 155.009468 162.357302 
L 157.502747 162.357302 
L 157.541105 161.746487 
L 157.617821 162.240303 
L 157.771254 162.357302 
L 164.867509 162.357302 
L 164.905867 161.938887 
L 164.944225 162.274201 
L 165.097658 162.357302 
L 166.708699 162.357302 
L 166.747057 161.427836 
L 166.823774 162.219224 
L 166.977206 162.357302 
L 167.629295 162.343685 
L 167.667653 161.230365 
L 167.706011 162.238737 
L 167.859443 162.357302 
L 177.755843 162.303795 
L 177.794201 161.025123 
L 177.832559 162.268413 
L 177.985992 162.357302 
L 290.068467 162.357302 
L 290.106825 162.127093 
L 290.145183 162.352042 
L 290.989062 162.357302 
L 299.197703 162.357302 
L 299.236061 149.919509 
L 299.27442 156.943355 
L 299.351136 162.357302 
L 299.389494 162.319758 
L 299.581285 162.357302 
L 300.233373 162.26633 
L 300.310089 161.576398 
L 300.463522 162.357302 
L 301.192326 162.357302 
L 301.230685 162.222211 
L 301.307401 162.357302 
L 302.956801 162.357302 
L 302.995159 162.226093 
L 303.071875 162.357302 
L 305.64187 162.357302 
L 305.680228 161.125371 
L 305.718587 162.357302 
L 305.756945 162.319613 
L 305.833661 161.097384 
L 305.872019 162.137557 
L 306.025452 162.357302 
L 306.562466 162.357302 
L 306.600824 161.586526 
L 306.639182 162.357302 
L 306.715898 162.357302 
L 306.754256 161.81957 
L 306.792614 162.294281 
L 306.946047 162.357302 
L 309.439326 162.357302 
L 309.477684 161.964975 
L 309.516042 162.130258 
L 309.631117 162.357302 
L 312.086037 162.357302 
L 312.124395 161.672884 
L 312.162754 162.357302 
L 312.392902 162.357302 
L 314.962898 162.297784 
L 315.001256 162.211839 
L 315.039614 160.890167 
L 315.077972 161.404396 
L 315.11633 162.272423 
L 315.193046 162.267908 
L 315.346479 162.357302 
L 315.768418 162.357302 
L 315.806777 147.166918 
L 315.845135 154.528471 
L 315.921851 162.357302 
L 315.960209 162.079695 
L 315.998567 161.717335 
L 316.036925 162.272598 
L 316.228716 162.357302 
L 318.530204 162.357302 
L 318.568562 160.223681 
L 318.606921 161.601443 
L 318.721995 162.357302 
L 321.29199 162.357302 
L 321.330348 155.846915 
L 321.368706 159.954159 
L 321.445423 162.357302 
L 321.483781 162.136157 
L 321.522139 161.713306 
L 321.560497 162.177832 
L 321.752288 162.357302 
L 322.212585 162.357302 
L 322.250943 135.857673 
L 322.289302 147.000884 
L 322.404376 162.357302 
L 325.012729 162.357302 
L 325.051087 134.213743 
L 325.089446 144.164685 
L 325.20452 162.357302 
L 331.456896 162.357302 
L 331.495254 105.845357 
L 331.533613 119.397413 
L 331.648687 162.357302 
L 331.955552 162.357302 
L 331.99391 162.084063 
L 332.070626 157.952908 
L 332.185701 162.357302 
L 332.377492 162.357302 
L 332.41585 121.52111 
L 332.454208 132.307439 
L 332.569282 162.357302 
L 333.298087 162.357302 
L 333.336445 151.28709 
L 333.374803 154.704321 
L 333.489878 162.357302 
L 333.873459 162.357302 
L 333.911817 161.831218 
L 333.950175 162.357302 
L 334.218682 162.357302 
L 334.25704 131.26918 
L 334.295398 140.496838 
L 334.410473 162.357302 
L 335.139277 162.357302 
L 335.177636 145.402759 
L 335.215994 152.132882 
L 335.331068 162.357302 
L 337.901063 162.357302 
L 337.939421 90.28952 
L 338.016138 151.929733 
L 338.16957 162.357302 
L 338.361361 162.357302 
L 338.438077 160.216655 
L 338.514793 157.161676 
L 338.629868 162.357302 
L 338.821659 162.357302 
L 338.860017 110.258578 
L 338.898375 126.812759 
L 339.013449 162.357302 
L 339.320314 162.357302 
L 339.397031 160.396546 
L 339.435389 159.179287 
L 339.550463 162.357302 
L 339.742254 162.357302 
L 339.780612 114.067735 
L 339.81897 130.552064 
L 339.934044 162.357302 
L 340.279268 162.357302 
L 340.355984 161.554965 
L 340.471058 162.357302 
L 340.662849 162.357302 
L 340.701207 128.903247 
L 340.739565 141.631928 
L 340.85464 162.357302 
L 341.583444 162.357302 
L 341.621803 142.872864 
L 341.660161 149.756903 
L 341.775235 162.357302 
L 342.120458 162.357302 
L 342.158816 162.094668 
L 342.197175 160.817945 
L 342.235533 162.357302 
L 344.34523 162.357302 
L 344.383588 91.059574 
L 344.460305 151.763497 
L 344.575379 162.357302 
L 344.613737 161.948373 
L 344.728812 162.357302 
L 344.76717 162.357302 
L 344.805528 161.634185 
L 344.95896 152.577813 
L 345.074035 162.357302 
L 345.265825 162.357302 
L 345.304184 90.481435 
L 345.342542 113.693919 
L 345.495974 162.357302 
L 345.726123 162.357302 
L 345.879556 154.80664 
L 345.99463 162.357302 
L 346.186421 162.357302 
L 346.224779 95.241613 
L 346.263137 117.463496 
L 346.41657 162.357302 
L 346.646718 162.357302 
L 346.723435 160.031562 
L 346.800151 156.756884 
L 346.915225 162.357302 
L 347.107016 162.357302 
L 347.145374 114.210181 
L 347.183732 129.021262 
L 347.298807 162.357302 
L 347.64403 162.279473 
L 347.720746 160.184304 
L 347.835821 162.357302 
L 348.027611 162.357302 
L 348.065969 127.406006 
L 348.104328 137.421819 
L 348.219402 162.357302 
L 348.487909 162.357302 
L 348.641342 154.231872 
L 348.756416 162.357302 
L 350.789397 162.357302 
L 350.827755 67.997463 
L 350.904472 141.700808 
L 351.019546 161.384704 
L 351.057904 161.012794 
L 351.172979 162.357302 
L 351.211337 162.357302 
L 351.288053 158.01506 
L 351.403127 153.291279 
L 351.518202 162.357302 
L 351.709992 162.357302 
L 351.748351 99.802319 
L 351.786709 118.7355 
L 351.940141 162.357302 
L 352.17029 162.357302 
L 352.208648 162.120169 
L 352.323723 157.352977 
L 352.438797 162.357302 
L 352.630588 162.357302 
L 352.668946 112.058329 
L 352.707304 128.096165 
L 352.860737 162.357302 
L 353.167602 162.25556 
L 353.244318 160.438998 
L 353.359392 162.357302 
L 353.551183 162.357302 
L 353.589541 128.51909 
L 353.627899 139.565684 
L 353.742974 162.357302 
L 354.471778 162.357302 
L 354.510136 142.352235 
L 354.548495 150.27472 
L 354.625211 162.357302 
L 354.663569 162.350308 
L 355.46909 162.357302 
L 357.233564 162.357302 
L 357.271922 107.158151 
L 357.348639 156.271668 
L 357.463713 162.357302 
L 357.502071 162.317142 
L 357.655504 162.357302 
L 357.693862 161.720892 
L 357.847294 150.629445 
L 357.962369 162.357302 
L 358.154159 162.357302 
L 358.192518 91.883226 
L 358.269234 150.512092 
L 358.384308 162.357302 
L 358.422666 161.951588 
L 358.537741 162.357302 
L 358.576099 162.357302 
L 358.76789 149.726854 
L 358.882964 162.357302 
L 359.074755 162.357302 
L 359.113113 89.468414 
L 359.189829 149.312232 
L 359.304904 162.357302 
L 359.343262 161.822035 
L 359.458336 162.357302 
L 359.496694 162.357302 
L 359.650127 147.348341 
L 359.688485 148.59318 
L 359.803559 162.357302 
L 359.99535 162.357302 
L 360.033708 105.13529 
L 360.110424 152.426119 
L 360.263857 162.357302 
L 360.417289 162.357302 
L 360.455648 161.894048 
L 360.60908 150.789758 
L 360.724155 162.357302 
L 360.915945 162.357302 
L 360.954303 83.724777 
L 361.03102 147.711403 
L 361.146094 160.847915 
L 361.184452 160.46597 
L 361.299527 162.357302 
L 361.337885 162.357302 
L 361.529675 146.012791 
L 361.64475 162.357302 
L 363.447582 162.357302 
L 363.601015 155.49088 
L 363.639373 155.149246 
L 363.677731 155.287584 
L 363.716089 64.032076 
L 363.792805 129.160393 
L 363.946238 154.64201 
L 364.061312 161.973059 
L 364.099671 161.92454 
L 364.291461 143.060137 
L 364.406536 162.357302 
L 364.598326 162.357302 
L 364.636684 73.877418 
L 364.713401 146.055623 
L 364.828475 162.16461 
L 364.866833 161.375272 
L 364.981908 162.357302 
L 365.020266 162.357302 
L 365.212057 150.011595 
L 365.327131 162.357302 
L 365.518922 162.357302 
L 365.55728 90.925551 
L 365.633996 150.117583 
L 365.74907 160.671362 
L 365.787429 160.657634 
L 365.902503 162.357302 
L 365.940861 162.357302 
L 366.055936 154.207637 
L 366.132652 150.030707 
L 366.247726 162.357302 
L 366.439517 162.357302 
L 366.477875 98.582275 
L 366.554591 152.060404 
L 366.708024 162.357302 
L 366.899815 162.357302 
L 367.053247 156.41031 
L 367.168322 162.357302 
L 367.360112 162.357302 
L 367.39847 111.718056 
L 367.436828 126.174455 
L 367.590261 162.357302 
L 367.82041 162.357302 
L 367.973842 151.984395 
L 368.088917 162.357302 
L 369.891749 162.357302 
L 370.045182 156.453781 
L 370.121898 155.72061 
L 370.160256 50.985637 
L 370.236972 129.091004 
L 370.352047 155.255298 
L 370.390405 154.356403 
L 370.543838 161.075283 
L 370.69727 141.302024 
L 370.735628 141.370995 
L 370.850703 162.357302 
L 371.042493 162.357302 
L 371.080851 68.20423 
L 371.157568 141.677484 
L 371.349358 158.510492 
L 371.387717 158.940484 
L 371.426075 158.84573 
L 371.464433 158.267366 
L 371.617865 138.282632 
L 371.656224 137.334802 
L 371.771298 162.357302 
L 371.963089 162.357302 
L 372.001447 55.862631 
L 372.078163 137.941983 
L 372.193237 158.039883 
L 372.231596 157.067583 
L 372.34667 162.135714 
L 372.385028 162.020654 
L 372.576819 142.26403 
L 372.691893 162.357302 
L 372.883684 162.357302 
L 372.922042 68.26422 
L 372.998758 143.112937 
L 373.113833 160.434581 
L 373.152191 159.379331 
L 373.267265 162.357302 
L 373.305623 162.357302 
L 373.497414 147.535192 
L 373.612488 162.357302 
L 373.804279 162.357302 
L 373.842637 82.485809 
L 373.919354 147.528473 
L 374.034428 161.761747 
L 374.072786 161.030892 
L 374.187861 162.357302 
L 374.226219 162.357302 
L 374.418009 148.907406 
L 374.533084 162.357302 
L 376.335916 162.357302 
L 376.335916 162.357302 
" clip-path="url(#p391b84f41b)" style="fill: none; stroke: #fa5252; stroke-opacity: 0.5; stroke-width: 0.8; stroke-linecap: square"/>
   </g>
   <g id="line2d_2">
    <path d="M 40.356997 162.357302 
L 43.579081 162.357302 
L 43.617439 158.88489 
L 43.694155 161.453425 
L 43.80923 162.357302 
L 49.102652 162.357302 
L 49.179369 159.088745 
L 49.217727 161.209044 
L 49.332801 162.357302 
L 57.38801 162.357302 
L 57.464726 160.112857 
L 57.503084 161.985922 
L 57.618159 162.357302 
L 58.308605 162.269054 
L 58.346963 158.120897 
L 58.42368 160.146612 
L 58.538754 162.357302 
L 64.752772 162.357302 
L 64.829488 159.471422 
L 64.867847 160.883051 
L 64.982921 162.357302 
L 67.514558 162.357302 
L 67.591274 159.343622 
L 67.629632 161.053136 
L 67.744707 162.357302 
L 68.435153 162.357302 
L 68.51187 158.607647 
L 68.550228 160.711646 
L 68.665302 162.357302 
L 69.355749 162.357302 
L 69.432465 158.68091 
L 69.470823 160.559795 
L 69.585897 162.357302 
L 70.237986 162.357302 
L 70.276344 161.958285 
L 70.35306 157.846026 
L 70.391418 159.622083 
L 70.544851 162.357302 
L 73.882009 162.357302 
L 73.997083 155.133803 
L 74.073799 156.960671 
L 74.303948 162.357302 
L 74.840962 162.357302 
L 74.87932 161.89829 
L 74.956036 158.191397 
L 74.994395 159.504767 
L 75.147827 162.357302 
L 75.761557 162.357302 
L 75.838274 159.861986 
L 75.876632 161.509255 
L 75.991706 162.357302 
L 76.720511 162.357302 
L 76.758869 159.682437 
L 76.835585 160.799445 
L 76.95066 162.357302 
L 77.641106 162.357302 
L 77.717822 157.608264 
L 77.75618 159.48658 
L 77.909613 162.357302 
L 81.285129 162.357302 
L 81.323487 161.46614 
L 81.361845 157.23153 
L 81.438562 158.861628 
L 81.630352 162.357302 
L 84.085273 162.357302 
L 84.123631 162.132893 
L 84.161989 159.420625 
L 84.200347 160.491415 
L 84.315422 162.357302 
L 95.132416 162.357302 
L 95.170774 161.788971 
L 95.209133 162.357302 
L 96.014653 162.357302 
L 96.053012 162.082462 
L 96.129728 157.028998 
L 96.168086 158.690036 
L 96.359877 162.357302 
L 96.896891 162.357302 
L 97.011965 158.967539 
L 97.050323 160.734906 
L 97.088681 160.631733 
L 97.280472 162.357302 
L 99.735393 162.357302 
L 99.812109 157.662393 
L 99.850467 158.937983 
L 100.042258 162.357302 
L 100.579272 162.357302 
L 100.809421 152.715091 
L 100.962853 162.357302 
L 101.461509 162.357302 
L 101.538225 159.443407 
L 101.6533 151.288919 
L 101.691658 148.654628 
L 101.730016 150.33564 
L 101.84509 162.357302 
L 102.497179 162.357302 
L 102.650611 159.766256 
L 102.765686 162.357302 
L 103.417774 162.357302 
L 103.571206 157.628096 
L 103.686281 162.357302 
L 106.141202 162.357302 
L 106.256276 158.230211 
L 106.294634 159.116361 
L 106.409709 162.357302 
L 107.176871 162.357302 
L 107.215229 161.621486 
L 107.253588 162.357302 
L 107.982392 162.357302 
L 108.02075 160.767718 
L 108.097467 161.315259 
L 108.135825 160.854116 
L 108.250899 162.357302 
L 108.979704 162.357302 
L 109.05642 160.562494 
L 109.171494 162.357302 
L 112.585369 162.357302 
L 112.700443 158.644466 
L 112.738801 158.666588 
L 112.892234 162.357302 
L 113.467606 162.357302 
L 113.58268 152.66601 
L 113.659396 146.062282 
L 113.812829 162.357302 
L 114.311485 162.357302 
L 114.349843 161.048403 
L 114.541634 145.520158 
L 114.579992 145.278191 
L 114.733424 162.357302 
L 115.23208 162.357302 
L 115.347154 158.727778 
L 115.462229 145.41754 
L 115.500587 145.854051 
L 115.654019 162.357302 
L 116.191033 162.357302 
L 116.421182 155.443307 
L 116.536257 162.357302 
L 119.988489 162.357302 
L 120.026847 162.076274 
L 120.103563 159.411735 
L 120.218638 162.357302 
L 120.870726 162.357302 
L 120.909084 161.92804 
L 121.024159 153.754431 
L 121.139233 162.357302 
L 121.791321 162.357302 
L 121.944754 153.320934 
L 122.098186 162.357302 
L 122.826991 162.26921 
L 122.865349 161.649197 
L 122.903707 162.357302 
L 126.279223 162.357302 
L 126.35594 161.366666 
L 126.394298 162.357302 
L 126.54773 149.610027 
L 126.701163 162.357302 
L 127.16146 162.357302 
L 127.276535 159.919701 
L 127.314893 160.10809 
L 127.468326 146.788286 
L 127.621758 162.357302 
L 128.043698 162.357302 
L 128.082056 162.226667 
L 128.388921 148.910232 
L 128.542353 162.357302 
L 129.002651 162.357302 
L 129.041009 162.220947 
L 129.309516 153.09231 
L 129.424591 162.357302 
L 131.956228 162.357302 
L 132.032944 155.751237 
L 132.071302 151.729874 
L 132.186376 162.357302 
L 132.72339 162.357302 
L 132.915181 157.985287 
L 132.991897 153.121064 
L 133.14533 162.357302 
L 133.643986 162.357302 
L 133.720702 161.818415 
L 133.75906 162.357302 
L 133.912493 153.273625 
L 134.065925 162.357302 
L 134.679655 162.357302 
L 134.833088 149.40913 
L 134.98652 162.357302 
L 135.485176 162.357302 
L 135.523534 162.227602 
L 135.715325 151.155234 
L 135.753683 151.354556 
L 135.868757 162.357302 
L 138.246962 162.357302 
L 138.28532 161.4144 
L 138.323678 161.756203 
L 138.400395 162.357302 
L 138.438753 162.18458 
L 138.515469 159.378756 
L 138.630543 162.357302 
L 139.129199 162.357302 
L 139.244274 159.532334 
L 139.282632 160.134677 
L 139.436064 142.20094 
L 139.589497 162.357302 
L 140.011436 162.357302 
L 140.126511 152.068651 
L 140.356659 137.281605 
L 140.510092 162.357302 
L 140.932032 162.357302 
L 141.008748 158.440986 
L 141.16218 144.114404 
L 141.277255 140.653184 
L 141.430687 162.357302 
L 141.929343 162.357302 
L 142.044417 157.182549 
L 142.19785 143.992992 
L 142.351283 162.357302 
L 144.614413 162.357302 
L 144.691129 159.074297 
L 144.959636 136.487116 
L 145.113068 161.207393 
L 145.304859 162.357302 
L 145.535008 162.357302 
L 145.68844 139.495282 
L 145.726799 144.229476 
L 145.765157 138.522305 
L 145.841873 138.065366 
L 145.880231 138.569983 
L 146.033664 162.357302 
L 146.455603 162.357302 
L 146.609036 140.228023 
L 146.647394 147.229384 
L 146.685752 140.559166 
L 146.72411 140.104614 
L 146.762468 141.090577 
L 146.800826 140.372241 
L 146.954259 162.357302 
L 147.376198 162.357302 
L 147.452915 161.149017 
L 147.683064 142.849929 
L 147.721422 143.848473 
L 147.874854 162.357302 
L 148.37351 162.357302 
L 148.565301 146.937624 
L 148.642017 142.638806 
L 148.79545 162.357302 
L 151.135296 162.357302 
L 151.403803 139.075664 
L 151.557235 162.357302 
L 151.979175 162.357302 
L 152.055891 160.881981 
L 152.247682 147.75787 
L 152.28604 149.169394 
L 152.324398 147.254205 
L 152.439473 162.357302 
L 152.89977 162.357302 
L 152.938128 162.160395 
L 153.244993 144.897752 
L 153.398426 162.357302 
L 153.820365 162.357302 
L 153.897082 160.731777 
L 154.165589 144.645874 
L 154.319021 162.357302 
L 154.740961 162.357302 
L 154.817677 161.700458 
L 155.086184 142.321603 
L 155.239616 162.357302 
L 157.502747 162.357302 
L 157.656179 150.603863 
L 157.694537 151.58144 
L 157.84797 136.722446 
L 158.03976 161.5111 
L 158.154835 162.357302 
L 158.423342 162.357302 
L 158.576774 139.861767 
L 158.615133 144.141299 
L 158.768565 131.915508 
L 158.960356 160.972645 
L 159.07543 162.357302 
L 159.343937 162.357302 
L 159.49737 141.311572 
L 159.535728 146.844425 
L 159.574086 140.200902 
L 159.612444 139.212949 
L 159.650802 140.404012 
L 159.68916 139.315902 
L 159.842593 162.357302 
L 160.264532 162.357302 
L 160.341249 159.538163 
L 160.533039 141.827319 
L 160.571397 141.479566 
L 160.609756 140.117807 
L 160.763188 162.357302 
L 161.185128 162.357302 
L 161.453635 134.868884 
L 161.530351 130.719766 
L 161.722142 160.287463 
L 161.837216 162.357302 
L 163.946914 162.357302 
L 164.02363 157.896289 
L 164.21542 141.817922 
L 164.292137 137.163947 
L 164.483927 161.797672 
L 164.599002 162.357302 
L 164.867509 162.357302 
L 165.212732 136.210358 
L 165.404523 161.961971 
L 165.519597 162.357302 
L 165.788104 162.357302 
L 165.86482 159.447014 
L 166.018253 144.933188 
L 166.133327 139.804395 
L 166.28676 161.508547 
L 166.440192 162.357302 
L 166.708699 162.357302 
L 167.053923 135.72279 
L 167.245713 161.623301 
L 167.360788 162.357302 
L 167.629295 162.314362 
L 167.782727 139.690924 
L 167.821085 143.505513 
L 167.859443 136.869055 
L 167.974518 131.457664 
L 168.12795 158.285529 
L 168.358099 162.357302 
L 170.39108 162.357302 
L 170.544513 136.874311 
L 170.582871 141.869075 
L 170.621229 136.944643 
L 170.736304 135.312029 
L 170.889736 160.896596 
L 171.043169 162.357302 
L 171.311676 162.357302 
L 171.465108 140.936266 
L 171.503466 146.237882 
L 171.541825 139.491034 
L 171.656899 134.282672 
L 171.84869 162.090779 
L 171.963764 162.357302 
L 172.232271 162.357302 
L 172.385704 136.819328 
L 172.424062 140.30888 
L 172.46242 133.918892 
L 172.577494 130.411457 
L 172.730927 158.677291 
L 172.922717 162.357302 
L 173.152866 162.357302 
L 173.306299 136.924625 
L 173.344657 139.429858 
L 173.49809 129.310139 
L 173.651522 156.829732 
L 173.881671 162.357302 
L 173.996745 162.357302 
L 174.035103 162.245965 
L 174.073462 161.745801 
L 174.11182 130.636527 
L 174.188536 133.770089 
L 174.226894 132.843206 
L 174.265252 137.302571 
L 174.30361 131.566235 
L 174.418685 129.046488 
L 174.572117 157.412298 
L 174.802266 162.357302 
L 176.835247 162.357302 
L 177.103754 135.334212 
L 177.180471 130.963478 
L 177.372261 159.711942 
L 177.487336 162.357302 
L 177.717485 162.357302 
L 177.755843 162.188435 
L 177.909275 137.434848 
L 177.947633 141.387663 
L 177.985992 136.013778 
L 178.101066 128.29473 
L 178.292857 158.814939 
L 178.407931 162.357302 
L 178.63808 162.357302 
L 178.676438 161.520536 
L 178.829871 133.678546 
L 178.868229 137.823454 
L 178.906587 132.138127 
L 179.021661 124.875275 
L 179.213452 155.253682 
L 179.328526 162.357302 
L 179.520317 162.357302 
L 179.597033 152.814173 
L 179.712108 123.123372 
L 179.750466 123.853461 
L 179.788824 128.743253 
L 179.827182 123.326618 
L 179.86554 121.371366 
L 179.942256 122.902186 
L 180.095689 150.707935 
L 180.134047 152.557423 
L 180.249122 162.357302 
L 180.440912 162.357302 
L 180.594345 133.586095 
L 180.747777 135.243045 
L 180.786136 134.926855 
L 180.824494 136.63394 
L 180.862852 135.952829 
L 181.016284 161.21687 
L 181.246433 162.357302 
L 183.279414 162.263036 
L 183.432847 135.004435 
L 183.471205 139.058185 
L 183.509563 133.172887 
L 183.624638 125.495231 
L 183.854786 162.357302 
L 184.123293 162.357302 
L 184.20001 155.224673 
L 184.353442 125.713425 
L 184.3918 130.241073 
L 184.430158 124.70862 
L 184.545233 119.200002 
L 184.775382 162.357302 
L 185.043889 162.357302 
L 185.120605 152.575542 
L 185.235679 122.543668 
L 185.274037 123.203416 
L 185.312396 128.365392 
L 185.350754 123.610704 
L 185.465828 117.806952 
L 185.695977 162.357302 
L 185.964484 162.357302 
L 186.194633 127.569248 
L 186.232991 131.773334 
L 186.271349 126.942449 
L 186.386423 125.047585 
L 186.578214 154.595582 
L 186.693289 162.357302 
L 186.885079 162.357302 
L 186.961796 157.503373 
L 187.115228 126.16703 
L 187.153586 131.223738 
L 187.191944 125.855154 
L 187.307019 119.807706 
L 187.537168 162.357302 
L 189.646865 162.357302 
L 189.838656 125.364821 
L 189.915372 126.851484 
L 190.030446 118.860928 
L 190.068805 119.441309 
L 190.222237 148.74446 
L 190.260595 149.918709 
L 190.37567 162.357302 
L 190.56746 162.357302 
L 190.682535 125.70344 
L 190.759251 128.362286 
L 190.797609 127.792973 
L 190.835967 132.65542 
L 190.874325 127.441279 
L 190.951042 125.242193 
L 190.9894 125.340905 
L 191.142832 152.438597 
L 191.181191 153.511953 
L 191.296265 162.357302 
L 191.488056 162.357302 
L 191.564772 155.38648 
L 191.718204 128.502886 
L 191.756563 131.717239 
L 191.794921 125.686406 
L 191.871637 122.840188 
L 191.909995 123.253752 
L 192.063428 151.000665 
L 192.101786 151.795795 
L 192.21686 162.357302 
L 192.408651 162.357302 
L 192.523725 125.417027 
L 192.600442 126.298399 
L 192.6388 125.565963 
L 192.677158 129.759155 
L 192.715516 125.141702 
L 192.83059 122.307076 
L 192.984023 149.7588 
L 193.022381 151.23122 
L 193.137456 162.357302 
L 193.329246 162.357302 
L 193.444321 126.279759 
L 193.521037 127.39057 
L 193.559395 127.225413 
L 193.597753 131.572062 
L 193.636111 126.139093 
L 193.712828 124.106025 
L 193.751186 124.498546 
L 193.904618 151.067849 
L 193.942976 152.285025 
L 194.058051 162.357302 
L 196.091032 162.357302 
L 196.244465 114.715139 
L 196.282823 114.323819 
L 196.359539 122.134483 
L 196.397897 117.339876 
L 196.512972 111.955703 
L 196.74312 162.357302 
L 197.011627 162.357302 
L 197.203418 121.875962 
L 197.241776 120.630694 
L 197.280134 126.458533 
L 197.318492 121.72029 
L 197.433567 115.333662 
L 197.663716 162.357302 
L 197.932223 162.357302 
L 198.124013 119.736091 
L 198.162371 119.901947 
L 198.20073 124.719391 
L 198.239088 119.459068 
L 198.277446 117.571286 
L 198.315804 119.150408 
L 198.354162 119.785023 
L 198.507595 146.899579 
L 198.545953 148.271817 
L 198.661027 162.357302 
L 198.852818 162.357302 
L 199.044609 127.150387 
L 199.082967 126.866727 
L 199.121325 131.318564 
L 199.159683 127.021553 
L 199.198041 126.077207 
L 199.236399 127.345171 
L 199.274757 126.921038 
L 199.42819 155.027025 
L 199.658339 162.357302 
L 199.773413 162.357302 
L 199.850129 159.625892 
L 200.003562 129.564219 
L 200.04192 133.864986 
L 200.080278 128.021857 
L 200.195353 121.415781 
L 200.425501 162.357302 
L 202.535199 162.357302 
L 202.765348 121.753028 
L 202.803706 125.947184 
L 202.842064 120.729348 
L 202.957138 116.97458 
L 203.187287 162.357302 
L 203.455794 162.357302 
L 203.685943 123.952703 
L 203.724301 127.116443 
L 203.762659 121.507193 
L 203.877734 117.283687 
L 204.107883 162.357302 
L 204.37639 162.357302 
L 204.491464 130.367352 
L 204.56818 130.461585 
L 204.606538 130.100249 
L 204.644897 135.860998 
L 204.683255 130.268157 
L 204.798329 128.942728 
L 204.951762 155.776053 
L 205.220269 162.357302 
L 205.296985 162.357302 
L 205.373701 157.655412 
L 205.412059 128.162748 
L 205.488776 131.759638 
L 205.527134 131.241064 
L 205.565492 136.334573 
L 205.60385 131.378107 
L 205.680566 129.803509 
L 205.718924 129.866731 
L 205.872357 156.365254 
L 205.910715 157.326231 
L 206.025789 162.357302 
L 206.21758 162.357302 
L 206.294296 161.191686 
L 206.409371 134.44377 
L 206.447729 133.586064 
L 206.486087 138.105815 
L 206.524445 131.797819 
L 206.63952 127.863141 
L 206.792952 155.069428 
L 206.83131 156.032 
L 206.946385 162.357302 
L 208.979366 162.357302 
L 209.09444 119.465908 
L 209.132798 120.52503 
L 209.171157 121.09828 
L 209.209515 120.563692 
L 209.247873 126.166774 
L 209.324589 121.401246 
L 209.362947 122.68281 
L 209.401305 122.5973 
L 209.554738 149.818428 
L 209.593096 150.867767 
L 209.708171 162.357302 
L 209.899961 162.357302 
L 210.13011 124.728458 
L 210.168468 127.639869 
L 210.206826 122.134835 
L 210.245184 121.633705 
L 210.283543 122.569474 
L 210.321901 123.050973 
L 210.475333 149.532623 
L 210.513691 150.646289 
L 210.628766 162.357302 
L 210.820557 162.357302 
L 210.973989 125.182197 
L 211.012347 125.824365 
L 211.089063 126.331302 
L 211.242496 117.57462 
L 211.395929 147.095873 
L 211.434287 148.376119 
L 211.549361 162.357302 
L 211.741152 162.357302 
L 211.856226 123.427931 
L 211.894584 123.655443 
L 211.932942 124.525697 
L 211.971301 123.760007 
L 212.009659 128.829598 
L 212.048017 123.677964 
L 212.086375 123.018924 
L 212.124733 123.709288 
L 212.163091 123.599367 
L 212.316524 151.206658 
L 212.354882 152.491101 
L 212.469956 162.357302 
L 212.661747 162.357302 
L 212.891896 126.673816 
L 212.930254 131.836978 
L 212.968612 126.163486 
L 213.083687 124.245575 
L 213.237119 150.377589 
L 213.275477 151.249813 
L 213.390552 162.357302 
L 215.423533 162.357302 
L 215.538607 117.968118 
L 215.576965 120.117645 
L 215.69204 127.060097 
L 215.845472 119.663335 
L 215.998905 146.918442 
L 216.037263 148.220324 
L 216.152338 162.357302 
L 216.344128 162.357302 
L 216.459203 121.910394 
L 216.497561 122.405617 
L 216.535919 123.067837 
L 216.574277 122.155282 
L 216.612635 126.345509 
L 216.650993 121.173056 
L 216.72771 119.734506 
L 216.766068 119.953359 
L 216.9195 148.639722 
L 216.957858 149.813779 
L 217.072933 162.357302 
L 217.264723 162.357302 
L 217.418156 122.297583 
L 217.494872 121.522534 
L 217.53323 124.890153 
L 217.609947 118.232917 
L 217.648305 118.404738 
L 217.686663 118.666818 
L 217.840096 146.272872 
L 217.878454 147.469686 
L 217.993528 162.357302 
L 218.185319 162.357302 
L 218.300393 121.012139 
L 218.338751 122.308076 
L 218.453826 127.720762 
L 218.607258 116.297973 
L 218.760691 146.261536 
L 218.799049 148.002718 
L 218.914123 162.357302 
L 219.105914 162.357302 
L 219.297705 117.695608 
L 219.336063 117.864123 
L 219.374421 123.466675 
L 219.412779 118.552409 
L 219.527854 113.026498 
L 219.758002 162.357302 
L 221.8677 162.357302 
L 221.906058 113.274887 
L 221.982774 114.33133 
L 222.136207 122.177596 
L 222.212923 116.456928 
L 222.251281 116.467072 
L 222.289639 117.120927 
L 222.443072 146.215298 
L 222.48143 147.628855 
L 222.596504 162.357302 
L 222.788295 162.357302 
L 222.980086 117.791333 
L 223.018444 117.473088 
L 223.056802 122.593869 
L 223.09516 117.065804 
L 223.210235 110.816223 
L 223.478742 162.357302 
L 223.70889 162.357302 
L 223.862323 113.945611 
L 223.900681 112.91006 
L 223.939039 113.911772 
L 223.977397 119.786487 
L 224.015756 114.837033 
L 224.13083 108.824751 
L 224.399337 162.357302 
L 224.629486 162.357302 
L 224.782918 112.250176 
L 224.821276 110.937552 
L 224.859635 111.135122 
L 224.897993 117.330594 
L 224.936351 112.78918 
L 225.051425 106.601641 
L 225.319932 162.357302 
L 225.550081 162.357302 
L 225.703514 106.804593 
L 225.741872 106.317796 
L 225.78023 107.088959 
L 225.818588 112.398109 
L 225.856946 108.300161 
L 225.97202 105.498511 
L 226.202169 162.357302 
L 228.120076 162.357302 
L 228.158434 161.441384 
L 228.235151 161.756728 
L 228.311867 162.357302 
L 228.426941 109.521764 
L 228.542016 105.458995 
L 228.580374 112.05566 
L 228.65709 106.394166 
L 228.733806 103.346101 
L 229.002313 162.357302 
L 229.232462 162.357302 
L 229.347537 111.492287 
L 229.462611 107.524017 
L 229.500969 112.338086 
L 229.539327 107.226581 
L 229.654402 104.062495 
L 229.922909 162.357302 
L 230.153057 162.357302 
L 230.30649 113.486631 
L 230.383206 110.74365 
L 230.421564 115.007021 
L 230.459922 109.728897 
L 230.536639 107.749723 
L 230.574997 107.843075 
L 230.805146 162.357302 
L 231.073653 162.357302 
L 231.227085 110.198058 
L 231.265443 109.071891 
L 231.303801 109.699989 
L 231.34216 116.058871 
L 231.380518 111.094168 
L 231.495592 105.717707 
L 231.764099 162.357302 
L 231.994248 162.357302 
L 232.109322 113.309395 
L 232.416187 103.320118 
L 232.646336 162.357302 
L 234.564243 162.357302 
L 234.602601 160.113728 
L 234.679318 161.587568 
L 234.756034 162.210156 
L 234.794392 101.872814 
L 234.871108 104.191049 
L 234.947824 101.769651 
L 234.986183 103.170624 
L 235.024541 109.197849 
L 235.062899 104.408066 
L 235.177973 101.530778 
L 235.408122 162.357302 
L 235.676629 162.357302 
L 235.830062 109.483067 
L 235.86842 108.24141 
L 235.906778 108.555676 
L 235.945136 113.680005 
L 235.983494 108.983376 
L 236.098569 104.890855 
L 236.367076 162.357302 
L 236.597224 162.357302 
L 236.750657 113.930781 
L 236.827373 112.338858 
L 236.865731 118.383234 
L 236.904089 113.211752 
L 237.019164 107.280695 
L 237.249313 162.357302 
L 237.51782 162.357302 
L 237.671252 115.172713 
L 237.747968 112.727731 
L 237.786327 118.000842 
L 237.824685 112.656129 
L 237.939759 107.475749 
L 238.208266 162.357302 
L 238.438415 162.357302 
L 238.591847 115.325876 
L 238.668564 110.484849 
L 238.706922 115.968843 
L 238.74528 111.152795 
L 238.860354 106.21157 
L 239.090503 162.357302 
L 241.00841 162.357302 
L 241.046768 161.860103 
L 241.123484 162.127695 
L 241.200201 162.357302 
L 241.238559 109.446689 
L 241.315275 110.345208 
L 241.43035 105.411502 
L 241.468708 110.798978 
L 241.507066 105.637631 
L 241.62214 101.70552 
L 241.890647 162.357302 
L 242.120796 162.357302 
L 242.274229 107.355161 
L 242.312587 105.083919 
L 242.350945 105.244036 
L 242.389303 111.263735 
L 242.427661 106.045106 
L 242.542736 101.113937 
L 242.811242 162.357302 
L 243.041391 162.357302 
L 243.194824 106.562479 
L 243.27154 104.758427 
L 243.309898 109.378295 
L 243.348256 104.374101 
L 243.463331 102.248277 
L 243.616763 136.770901 
L 243.655121 138.165785 
L 243.770196 162.357302 
L 243.961987 162.357302 
L 244.115419 109.306275 
L 244.153777 107.4916 
L 244.192135 107.77305 
L 244.230494 112.719129 
L 244.268852 107.387669 
L 244.383926 104.840708 
L 244.614075 162.357302 
L 244.882582 162.357302 
L 245.036014 108.638134 
L 245.074373 106.989235 
L 245.112731 107.164526 
L 245.151089 112.583247 
L 245.189447 107.909735 
L 245.304521 104.766933 
L 245.53467 162.357302 
L 247.644368 162.357302 
L 247.682726 117.370923 
L 247.759442 117.704085 
L 247.874517 114.34145 
L 247.912875 119.693029 
L 247.951233 112.827169 
L 248.066307 109.911466 
L 248.21974 142.065257 
L 248.258098 143.457118 
L 248.373172 162.357302 
L 248.564963 162.357302 
L 248.680037 115.442297 
L 248.718396 115.903428 
L 248.795112 112.975294 
L 248.83347 117.164823 
L 248.871828 111.630097 
L 248.948544 109.610537 
L 248.986902 109.895385 
L 249.217051 162.357302 
L 249.485558 162.357302 
L 249.600633 117.931867 
L 249.715707 113.867131 
L 249.754065 118.15875 
L 249.792423 112.418748 
L 249.907498 109.462204 
L 250.137647 162.357302 
L 250.406154 162.357302 
L 250.521228 117.394086 
L 250.636302 112.639729 
L 250.67466 116.881556 
L 250.713019 110.944219 
L 250.828093 105.92128 
L 251.058242 162.357302 
L 251.326749 162.357302 
L 251.480181 110.360407 
L 251.518539 108.602056 
L 251.556898 108.943138 
L 251.595256 114.924775 
L 251.633614 109.806736 
L 251.748688 104.574433 
L 252.017195 162.357302 
L 254.088535 162.357302 
L 254.126893 111.923531 
L 254.203609 114.208539 
L 254.357042 118.69775 
L 254.3954 114.103603 
L 254.472116 115.497658 
L 254.510474 116.79876 
L 254.663907 145.9111 
L 254.702265 146.949445 
L 254.817339 162.357302 
L 255.00913 162.357302 
L 255.162562 123.760111 
L 255.239279 122.45638 
L 255.277637 126.702552 
L 255.315995 120.470723 
L 255.431069 116.247738 
L 255.584502 146.55602 
L 255.62286 147.977394 
L 255.737935 162.357302 
L 255.929725 162.357302 
L 256.0448 122.944392 
L 256.083158 124.581087 
L 256.121516 124.361809 
L 256.274948 120.448174 
L 256.198232 125.863002 
L 256.313307 120.562553 
L 256.351665 120.808142 
L 256.505097 147.944266 
L 256.543455 149.049518 
L 256.65853 162.357302 
L 256.85032 162.357302 
L 257.003753 125.164375 
L 257.042111 125.853635 
L 257.080469 125.449591 
L 257.118827 130.655165 
L 257.157186 124.95036 
L 257.195544 123.717007 
L 257.27226 123.759228 
L 257.425693 151.088366 
L 257.464051 152.303173 
L 257.579125 162.357302 
L 257.770916 162.357302 
L 258.001065 124.332697 
L 258.039423 126.797706 
L 258.116139 121.122035 
L 258.154497 121.758151 
L 258.192855 122.244122 
L 258.346288 148.992464 
L 258.384646 149.873667 
L 258.49972 162.357302 
L 260.532702 162.357302 
L 260.686134 120.005415 
L 260.76285 117.879408 
L 260.801209 122.024266 
L 260.839567 116.805129 
L 260.954641 114.493973 
L 261.18479 162.357302 
L 261.453297 162.357302 
L 261.606729 119.280581 
L 261.683446 116.936618 
L 261.721804 121.4591 
L 261.760162 115.56735 
L 261.875236 110.914179 
L 262.105385 162.357302 
L 262.373892 162.357302 
L 262.604041 118.660757 
L 262.642399 122.20703 
L 262.680757 115.883805 
L 262.795832 111.735208 
L 263.02598 162.357302 
L 263.294487 162.357302 
L 263.524636 115.734672 
L 263.562994 120.738247 
L 263.601353 115.614643 
L 263.716427 111.016727 
L 263.946576 162.357302 
L 264.215083 162.357302 
L 264.406873 118.030697 
L 264.445232 118.137251 
L 264.48359 123.337999 
L 264.521948 117.929847 
L 264.637022 112.617032 
L 264.867171 162.357302 
L 266.976869 162.357302 
L 267.130301 112.740549 
L 267.207017 110.404395 
L 267.245376 115.585549 
L 267.283734 110.744103 
L 267.398808 109.186744 
L 267.628957 162.357302 
L 267.897464 162.357302 
L 268.050896 120.145165 
L 268.089255 121.056951 
L 268.127613 120.640251 
L 268.165971 127.167754 
L 268.242687 121.922129 
L 268.319403 122.702176 
L 268.472836 151.06642 
L 268.511194 152.558632 
L 268.626268 162.357302 
L 268.818059 162.357302 
L 268.933134 126.51424 
L 269.048208 128.379242 
L 269.086566 133.674659 
L 269.124924 128.149071 
L 269.239999 126.940181 
L 269.393431 153.967187 
L 269.431789 155.022624 
L 269.546864 162.357302 
L 269.738654 162.357302 
L 269.815371 158.940913 
L 269.930445 125.216156 
L 269.968803 125.229106 
L 270.007161 129.725644 
L 270.04552 123.419218 
L 270.160594 117.10884 
L 270.390743 162.357302 
L 270.65925 162.357302 
L 270.812682 121.465761 
L 271.042831 111.755068 
L 271.081189 110.716572 
L 271.311338 162.357302 
L 273.421036 162.357302 
L 273.574468 118.321325 
L 273.651184 116.625043 
L 273.689542 122.061638 
L 273.766259 119.341026 
L 273.842975 121.839547 
L 273.996408 149.77308 
L 274.034766 151.427699 
L 274.14984 162.357302 
L 274.341631 162.357302 
L 274.725212 122.660108 
L 274.76357 123.280084 
L 274.917003 152.239416 
L 274.955361 153.58508 
L 275.070435 162.357302 
L 275.262226 162.357302 
L 275.338942 156.85269 
L 275.492375 123.826931 
L 275.530733 127.557709 
L 275.569091 121.513377 
L 275.645807 118.3407 
L 275.684166 119.554751 
L 275.837598 149.376993 
L 275.875956 150.242311 
L 275.991031 162.357302 
L 276.182821 162.357302 
L 276.41297 119.975376 
L 276.451328 123.939507 
L 276.489686 119.806636 
L 276.528045 118.35105 
L 276.604761 118.647783 
L 276.758193 148.633107 
L 276.796552 149.957353 
L 276.911626 162.357302 
L 277.103417 162.357302 
L 277.486998 117.575102 
L 277.525356 116.549216 
L 277.755505 162.357302 
L 279.865202 162.357302 
L 279.941919 155.626451 
L 280.095351 123.782799 
L 280.133709 127.524257 
L 280.172068 121.631781 
L 280.287142 117.437385 
L 280.517291 162.357302 
L 280.785798 162.357302 
L 281.169379 118.095505 
L 281.207737 117.393376 
L 281.399528 151.893949 
L 281.514602 162.357302 
L 281.706393 162.357302 
L 281.783109 157.343159 
L 281.936542 124.88196 
L 281.9749 129.06876 
L 282.013258 123.72981 
L 282.128333 121.083105 
L 282.320123 154.477866 
L 282.435198 162.357302 
L 282.665346 162.357302 
L 282.703705 160.837256 
L 282.857137 127.317398 
L 282.895495 130.465941 
L 282.933853 124.570051 
L 283.048928 121.343341 
L 283.240719 155.245268 
L 283.355793 162.357302 
L 283.585942 162.357302 
L 283.6243 161.248461 
L 283.777732 130.493397 
L 283.816091 133.86575 
L 283.854449 130.04848 
L 283.931165 126.222116 
L 283.969523 126.289175 
L 284.122956 154.718589 
L 284.161314 155.923298 
L 284.276388 162.357302 
L 286.386086 162.357302 
L 286.539518 135.275598 
L 286.577876 139.676084 
L 286.616235 135.235983 
L 286.731309 133.479435 
L 286.884741 158.890673 
L 287.153248 162.357302 
L 287.306681 162.357302 
L 287.460114 137.658677 
L 287.498472 141.598256 
L 287.53683 135.519149 
L 287.613546 131.930893 
L 287.651904 132.374048 
L 287.805337 158.764699 
L 287.997127 162.357302 
L 288.188918 162.323957 
L 288.227276 161.949372 
L 288.303993 135.329718 
L 288.342351 135.598338 
L 288.380709 135.085758 
L 288.419067 140.907309 
L 288.457425 135.238963 
L 288.495783 134.213979 
L 288.5725 134.461113 
L 288.725932 160.13553 
L 288.917723 162.357302 
L 289.147872 162.357302 
L 289.301304 133.344071 
L 289.339662 136.387293 
L 289.454737 128.081588 
L 289.493095 128.153279 
L 289.646527 159.373174 
L 289.684885 159.689922 
L 289.79996 162.357302 
L 290.068467 162.357302 
L 290.298616 132.214984 
L 290.336974 131.497533 
L 290.375332 132.013963 
L 290.41369 132.584674 
L 290.567123 158.708299 
L 290.797271 162.357302 
L 292.830253 162.357302 
L 292.983685 143.179488 
L 293.022043 148.743622 
L 293.060401 141.573326 
L 293.175476 137.459983 
L 293.328908 162.344266 
L 293.71249 162.357302 
L 293.750848 162.357302 
L 293.827564 155.412278 
L 293.980997 137.908058 
L 294.096071 133.925684 
L 294.249504 161.898605 
L 294.402936 162.357302 
L 294.671443 162.357302 
L 294.901592 132.360277 
L 295.016666 129.020401 
L 295.170099 159.998831 
L 295.36189 162.357302 
L 295.592039 162.357302 
L 295.860545 133.213524 
L 295.937262 131.544244 
L 296.090694 160.196768 
L 296.282485 162.357302 
L 296.512634 162.357302 
L 296.666066 141.050535 
L 296.704424 146.673536 
L 296.742783 139.961821 
L 296.781141 138.911585 
L 296.857857 139.349449 
L 297.01129 162.357302 
L 299.351136 162.357302 
L 299.542927 143.671076 
L 299.581285 139.528522 
L 299.619643 139.610463 
L 299.773075 162.357302 
L 300.195015 162.357302 
L 300.233373 162.197318 
L 300.271731 161.216993 
L 300.50188 144.118284 
L 300.540238 143.698903 
L 300.693671 162.357302 
L 301.192326 162.357302 
L 301.422475 135.244215 
L 301.460833 135.66679 
L 301.614266 161.904628 
L 301.767699 162.357302 
L 302.036205 162.357302 
L 302.15128 145.928082 
L 302.343071 130.512768 
L 302.381429 130.74929 
L 302.534861 160.946284 
L 302.688294 162.357302 
L 302.956801 162.357302 
L 303.263666 131.36851 
L 303.302024 132.10755 
L 303.455457 160.400715 
L 303.647247 162.357302 
L 305.756945 162.302549 
L 305.833661 155.247508 
L 306.025452 137.699818 
L 306.06381 138.287454 
L 306.217242 162.357302 
L 306.715898 162.357302 
L 306.946047 142.804522 
L 306.984405 143.01312 
L 307.137838 162.357302 
L 307.559777 162.357302 
L 307.636493 161.556676 
L 307.866642 143.339838 
L 307.905 144.070041 
L 308.058433 162.357302 
L 308.518731 162.357302 
L 308.557089 161.522305 
L 308.787238 137.061839 
L 308.825596 137.926267 
L 308.979028 162.357302 
L 309.439326 162.357302 
L 309.477684 160.5849 
L 309.707833 135.525654 
L 309.746191 136.146917 
L 309.899623 161.915113 
L 310.053056 162.357302 
L 312.201112 162.276679 
L 312.277828 153.844485 
L 312.469619 140.660787 
L 312.507977 141.037968 
L 312.661409 162.201473 
L 312.776484 162.357302 
L 313.083349 162.357302 
L 313.390214 125.965573 
L 313.428572 128.178527 
L 313.582005 159.371825 
L 313.850512 162.357302 
L 314.003944 162.357302 
L 314.157377 141.181997 
L 314.195735 145.003822 
L 314.234093 139.648832 
L 314.272451 138.828096 
L 314.310809 138.864234 
L 314.349167 140.707471 
L 314.5026 162.357302 
L 314.962898 162.280437 
L 315.001256 162.126107 
L 315.231404 142.706602 
L 315.269763 143.571119 
L 315.423195 162.357302 
L 315.921851 162.357302 
L 315.960209 161.573281 
L 316.152 145.841276 
L 316.190358 146.579183 
L 316.34379 162.357302 
L 318.645279 162.357302 
L 318.683637 162.189824 
L 318.913786 141.633241 
L 318.952144 141.982719 
L 319.105576 162.357302 
L 319.527516 162.357302 
L 319.796023 144.177379 
L 319.834381 145.692557 
L 319.872739 144.901046 
L 320.026172 162.357302 
L 320.524827 162.357302 
L 320.639902 160.163047 
L 320.754976 142.206687 
L 320.793334 142.777093 
L 320.946767 162.357302 
L 321.445423 162.357302 
L 321.483781 161.72548 
L 321.675571 154.999814 
L 321.71393 155.208906 
L 321.829004 162.357302 
L 322.404376 162.357302 
L 322.634525 149.112927 
L 322.787957 162.357302 
L 325.166162 162.357302 
L 325.396311 145.07303 
L 325.434669 147.55367 
L 325.588101 162.357302 
L 326.010041 162.357302 
L 326.048399 161.84666 
L 326.278548 134.539471 
L 326.355264 138.835977 
L 326.508697 162.031551 
L 326.662129 162.357302 
L 326.930636 162.357302 
L 327.007352 158.099481 
L 327.199143 135.664588 
L 327.275859 139.460511 
L 327.429292 162.357302 
L 327.851231 162.357302 
L 327.88959 162.153624 
L 328.119738 144.525937 
L 328.158097 145.586714 
L 328.196455 146.702591 
L 328.349887 162.357302 
L 328.848543 162.357302 
L 329.11705 154.146 
L 329.232124 162.357302 
L 332.569282 162.357302 
L 332.684357 157.899354 
L 332.914505 162.357302 
L 333.566594 162.357302 
L 333.681668 160.185925 
L 333.720026 159.546652 
L 333.835101 162.357302 
L 334.410473 162.357302 
L 334.602263 153.859459 
L 334.640622 155.176282 
L 334.755696 162.357302 
L 335.331068 162.357302 
L 335.522859 153.424678 
L 335.561217 154.551104 
L 335.676291 162.357302 
L 338.131212 162.357302 
L 338.207928 156.257009 
L 338.246286 157.183356 
L 338.438077 162.357302 
L 339.013449 162.357302 
L 339.128524 156.939492 
L 339.166882 157.338526 
L 339.397031 162.357302 
L 339.934044 162.292581 
L 340.049119 155.21911 
L 340.087477 155.642486 
L 340.164193 157.202509 
L 340.279268 162.357302 
L 340.816282 162.357302 
L 341.084789 159.405584 
L 341.199863 162.357302 
L 341.851951 162.357302 
L 341.890309 161.624006 
L 341.967026 158.138796 
L 342.005384 159.763971 
L 342.120458 162.357302 
L 344.575379 162.357302 
L 344.652095 157.063878 
L 344.690453 158.714402 
L 344.920602 162.357302 
L 345.457616 162.357302 
L 345.534332 158.978425 
L 345.572691 156.984132 
L 345.611049 158.387293 
L 345.879556 162.357302 
L 346.378211 162.357302 
L 346.493286 156.403163 
L 346.531644 157.249988 
L 346.761793 162.357302 
L 348.219402 162.357302 
L 348.334476 159.307208 
L 348.372835 160.749019 
L 348.487909 162.357302 
L 351.019546 162.357302 
L 351.057904 161.836401 
L 351.096262 157.334386 
L 351.172979 160.089915 
L 351.288053 162.357302 
L 351.901783 162.357302 
L 352.016858 156.094872 
L 352.055216 157.665044 
L 352.323723 162.357302 
L 352.822378 162.357302 
L 352.937453 155.393952 
L 352.975811 155.896475 
L 353.244318 162.357302 
L 353.704616 162.357302 
L 353.896406 153.673949 
L 353.973123 155.396276 
L 354.088197 162.357302 
L 354.625211 162.357302 
L 354.663569 161.858992 
L 354.85536 151.05228 
L 355.123867 162.357302 
L 364.866833 162.325442 
L 364.905191 158.077199 
L 364.981908 160.73174 
L 365.096982 162.357302 
L 373.152191 162.357302 
L 373.190549 159.394166 
L 373.267265 161.483625 
L 373.38234 162.357302 
L 374.072786 162.357302 
L 374.149502 160.36324 
L 374.187861 161.231622 
L 374.302935 162.357302 
L 376.335916 162.357302 
L 376.335916 162.357302 
" clip-path="url(#p391b84f41b)" style="fill: none; stroke: #228be6; stroke-opacity: 0.5; stroke-width: 0.8; stroke-linecap: square"/>
   </g>
   <g id="patch_3">
    <path d="M 39.685039 162.708661 
L 39.685039 9.92126 
" style="fill: none; stroke: #000000; stroke-width: 0.3; stroke-linejoin: miter; stroke-linecap: square"/>
   </g>
   <g id="patch_4">
    <path d="M 377.007874 162.708661 
L 377.007874 9.92126 
" style="fill: none; stroke: #000000; stroke-width: 0.3; stroke-linejoin: miter; stroke-linecap: square"/>
   </g>
   <g id="patch_5">
    <path d="M 39.685039 162.708661 
L 377.007874 162.708661 
" style="fill: none; stroke: #000000; stroke-width: 0.3; stroke-linejoin: miter; stroke-linecap: square"/>
   </g>
   <g id="patch_6">
    <path d="M 39.685039 9.92126 
L 377.007874 9.92126 
" style="fill: none; stroke: #000000; stroke-width: 0.3; stroke-linejoin: miter; stroke-linecap: square"/>
   </g>
   <g id="matplotlib.axis_1">
    <g id="xtick_1">
     <g id="line2d_3">
      <path d="M 40.356997 162.708661 
L 40.356997 9.92126 
" clip-path="url(#p391b84f41b)" style="fill: none; stroke-dasharray: 0.6,0.3; stroke-dashoffset: 0; stroke: #868e96; stroke-opacity: 0.6; stroke-width: 0.2"/>
     </g>
     <g id="line2d_4">
      <defs>
       <path id="m561b8c4022" d="M 0 0 
L 0 -1.75 
" style="stroke: #000000; stroke-width: 0.25"/>
      </defs>
      <g>
       <use xlink:href="#m561b8c4022" x="40.356997" y="162.708661" style="stroke: #000000; stroke-width: 0.25"/>
      </g>
     </g>
     <g id="text_1">
      <!-- 0 -->
      <g transform="translate(38.391528 171.458661) scale(0.07 -0.07)">
       <defs>
        <path id="Roboto-Regular-30" d="M 3231 1941 
Q 3231 925 2884 431 
Q 2538 -63 1800 -63 
Q 1072 -63 722 420 
Q 372 903 359 1863 
L 359 2634 
Q 359 3638 706 4125 
Q 1053 4613 1794 4613 
Q 2528 4613 2875 4142 
Q 3222 3672 3231 2691 
L 3231 1941 
z
M 2653 2731 
Q 2653 3466 2447 3802 
Q 2241 4138 1794 4138 
Q 1350 4138 1147 3803 
Q 944 3469 938 2775 
L 938 1850 
Q 938 1113 1152 761 
Q 1366 409 1800 409 
Q 2228 409 2436 740 
Q 2644 1072 2653 1784 
L 2653 2731 
z
" transform="scale(0.015625)"/>
       </defs>
       <use xlink:href="#Roboto-Regular-30"/>
      </g>
     </g>
    </g>
    <g id="xtick_2">
     <g id="line2d_5">
      <path d="M 96.359877 162.708661 
L 96.359877 9.92126 
" clip-path="url(#p391b84f41b)" style="fill: none; stroke-dasharray: 0.6,0.3; stroke-dashoffset: 0; stroke: #868e96; stroke-opacity: 0.6; stroke-width: 0.2"/>
     </g>
     <g id="line2d_6">
      <g>
       <use xlink:href="#m561b8c4022" x="96.359877" y="162.708661" style="stroke: #000000; stroke-width: 0.25"/>
      </g>
     </g>
     <g id="text_2">
      <!-- 1460 -->
      <g transform="translate(88.498002 171.458661) scale(0.07 -0.07)">
       <defs>
        <path id="Roboto-Regular-31" d="M 2278 0 
L 1697 0 
L 1697 3853 
L 531 3425 
L 531 3950 
L 2188 4572 
L 2278 4572 
L 2278 0 
z
" transform="scale(0.015625)"/>
        <path id="Roboto-Regular-34" d="M 2819 1528 
L 3450 1528 
L 3450 1056 
L 2819 1056 
L 2819 0 
L 2238 0 
L 2238 1056 
L 166 1056 
L 166 1397 
L 2203 4550 
L 2819 4550 
L 2819 1528 
z
M 822 1528 
L 2238 1528 
L 2238 3759 
L 2169 3634 
L 822 1528 
z
" transform="scale(0.015625)"/>
        <path id="Roboto-Regular-36" d="M 2647 4553 
L 2647 4063 
L 2541 4063 
Q 1866 4050 1466 3662 
Q 1066 3275 1003 2572 
Q 1363 2984 1984 2984 
Q 2578 2984 2933 2565 
Q 3288 2147 3288 1484 
Q 3288 781 2905 359 
Q 2522 -63 1878 -63 
Q 1225 -63 819 439 
Q 413 941 413 1731 
L 413 1953 
Q 413 3209 948 3873 
Q 1484 4538 2544 4553 
L 2647 4553 
z
M 1888 2503 
Q 1591 2503 1341 2325 
Q 1091 2147 994 1878 
L 994 1666 
Q 994 1103 1247 759 
Q 1500 416 1878 416 
Q 2269 416 2492 703 
Q 2716 991 2716 1456 
Q 2716 1925 2489 2214 
Q 2263 2503 1888 2503 
z
" transform="scale(0.015625)"/>
       </defs>
       <use xlink:href="#Roboto-Regular-31"/>
       <use xlink:href="#Roboto-Regular-34" transform="translate(56.152344 0)"/>
       <use xlink:href="#Roboto-Regular-36" transform="translate(112.304688 0)"/>
       <use xlink:href="#Roboto-Regular-30" transform="translate(168.457031 0)"/>
      </g>
     </g>
    </g>
    <g id="xtick_3">
     <g id="line2d_7">
      <path d="M 152.362756 162.708661 
L 152.362756 9.92126 
" clip-path="url(#p391b84f41b)" style="fill: none; stroke-dasharray: 0.6,0.3; stroke-dashoffset: 0; stroke: #868e96; stroke-opacity: 0.6; stroke-width: 0.2"/>
     </g>
     <g id="line2d_8">
      <g>
       <use xlink:href="#m561b8c4022" x="152.362756" y="162.708661" style="stroke: #000000; stroke-width: 0.25"/>
      </g>
     </g>
     <g id="text_3">
      <!-- 2920 -->
      <g transform="translate(144.500881 171.458661) scale(0.07 -0.07)">
       <defs>
        <path id="Roboto-Regular-32" d="M 3359 0 
L 378 0 
L 378 416 
L 1953 2166 
Q 2303 2563 2436 2811 
Q 2569 3059 2569 3325 
Q 2569 3681 2353 3909 
Q 2138 4138 1778 4138 
Q 1347 4138 1108 3892 
Q 869 3647 869 3209 
L 291 3209 
Q 291 3838 695 4225 
Q 1100 4613 1778 4613 
Q 2413 4613 2781 4280 
Q 3150 3947 3150 3394 
Q 3150 2722 2294 1794 
L 1075 472 
L 3359 472 
L 3359 0 
z
" transform="scale(0.015625)"/>
        <path id="Roboto-Regular-39" d="M 2594 2000 
Q 2413 1784 2161 1653 
Q 1909 1522 1609 1522 
Q 1216 1522 923 1715 
Q 631 1909 472 2261 
Q 313 2613 313 3038 
Q 313 3494 486 3859 
Q 659 4225 978 4419 
Q 1297 4613 1722 4613 
Q 2397 4613 2786 4108 
Q 3175 3603 3175 2731 
L 3175 2563 
Q 3175 1234 2650 623 
Q 2125 13 1066 -3 
L 953 -3 
L 953 484 
L 1075 484 
Q 1791 497 2175 858 
Q 2559 1219 2594 2000 
z
M 1703 2000 
Q 1994 2000 2239 2178 
Q 2484 2356 2597 2619 
L 2597 2850 
Q 2597 3419 2350 3775 
Q 2103 4131 1725 4131 
Q 1344 4131 1112 3839 
Q 881 3547 881 3069 
Q 881 2603 1104 2301 
Q 1328 2000 1703 2000 
z
" transform="scale(0.015625)"/>
       </defs>
       <use xlink:href="#Roboto-Regular-32"/>
       <use xlink:href="#Roboto-Regular-39" transform="translate(56.152344 0)"/>
       <use xlink:href="#Roboto-Regular-32" transform="translate(112.304688 0)"/>
       <use xlink:href="#Roboto-Regular-30" transform="translate(168.457031 0)"/>
      </g>
     </g>
    </g>
    <g id="xtick_4">
     <g id="line2d_9">
      <path d="M 208.365636 162.708661 
L 208.365636 9.92126 
" clip-path="url(#p391b84f41b)" style="fill: none; stroke-dasharray: 0.6,0.3; stroke-dashoffset: 0; stroke: #868e96; stroke-opacity: 0.6; stroke-width: 0.2"/>
     </g>
     <g id="line2d_10">
      <g>
       <use xlink:href="#m561b8c4022" x="208.365636" y="162.708661" style="stroke: #000000; stroke-width: 0.25"/>
      </g>
     </g>
     <g id="text_4">
      <!-- 4380 -->
      <g transform="translate(200.503761 171.458661) scale(0.07 -0.07)">
       <defs>
        <path id="Roboto-Regular-33" d="M 1219 2556 
L 1653 2556 
Q 2063 2563 2297 2772 
Q 2531 2981 2531 3338 
Q 2531 4138 1734 4138 
Q 1359 4138 1136 3923 
Q 913 3709 913 3356 
L 334 3356 
Q 334 3897 729 4255 
Q 1125 4613 1734 4613 
Q 2378 4613 2743 4272 
Q 3109 3931 3109 3325 
Q 3109 3028 2917 2750 
Q 2725 2472 2394 2334 
Q 2769 2216 2973 1941 
Q 3178 1666 3178 1269 
Q 3178 656 2778 296 
Q 2378 -63 1737 -63 
Q 1097 -63 695 284 
Q 294 631 294 1200 
L 875 1200 
Q 875 841 1109 625 
Q 1344 409 1738 409 
Q 2156 409 2378 628 
Q 2600 847 2600 1256 
Q 2600 1653 2356 1865 
Q 2113 2078 1653 2084 
L 1219 2084 
L 1219 2556 
z
" transform="scale(0.015625)"/>
        <path id="Roboto-Regular-38" d="M 3138 3363 
Q 3138 3022 2958 2756 
Q 2778 2491 2472 2341 
Q 2828 2188 3036 1894 
Q 3244 1600 3244 1228 
Q 3244 638 2845 287 
Q 2447 -63 1797 -63 
Q 1141 -63 745 289 
Q 350 641 350 1228 
Q 350 1597 551 1894 
Q 753 2191 1109 2344 
Q 806 2494 631 2759 
Q 456 3025 456 3363 
Q 456 3938 825 4275 
Q 1194 4613 1797 4613 
Q 2397 4613 2767 4275 
Q 3138 3938 3138 3363 
z
M 2666 1241 
Q 2666 1622 2423 1862 
Q 2181 2103 1790 2103 
Q 1400 2103 1164 1865 
Q 928 1628 928 1240 
Q 928 853 1158 631 
Q 1388 409 1797 409 
Q 2203 409 2434 632 
Q 2666 856 2666 1241 
z
M 1797 4138 
Q 1456 4138 1245 3927 
Q 1034 3716 1034 3353 
Q 1034 3006 1242 2792 
Q 1450 2578 1797 2578 
Q 2144 2578 2351 2792 
Q 2559 3006 2559 3353 
Q 2559 3700 2343 3919 
Q 2128 4138 1797 4138 
z
" transform="scale(0.015625)"/>
       </defs>
       <use xlink:href="#Roboto-Regular-34"/>
       <use xlink:href="#Roboto-Regular-33" transform="translate(56.152344 0)"/>
       <use xlink:href="#Roboto-Regular-38" transform="translate(112.304688 0)"/>
       <use xlink:href="#Roboto-Regular-30" transform="translate(168.457031 0)"/>
      </g>
     </g>
    </g>
    <g id="xtick_5">
     <g id="line2d_11">
      <path d="M 264.368515 162.708661 
L 264.368515 9.92126 
" clip-path="url(#p391b84f41b)" style="fill: none; stroke-dasharray: 0.6,0.3; stroke-dashoffset: 0; stroke: #868e96; stroke-opacity: 0.6; stroke-width: 0.2"/>
     </g>
     <g id="line2d_12">
      <g>
       <use xlink:href="#m561b8c4022" x="264.368515" y="162.708661" style="stroke: #000000; stroke-width: 0.25"/>
      </g>
     </g>
     <g id="text_5">
      <!-- 5840 -->
      <g transform="translate(256.50664 171.458661) scale(0.07 -0.07)">
       <defs>
        <path id="Roboto-Regular-35" d="M 644 2281 
L 875 4550 
L 3206 4550 
L 3206 4016 
L 1366 4016 
L 1228 2775 
Q 1563 2972 1988 2972 
Q 2609 2972 2975 2561 
Q 3341 2150 3341 1450 
Q 3341 747 2961 342 
Q 2581 -63 1900 -63 
Q 1297 -63 915 271 
Q 534 606 481 1197 
L 1028 1197 
Q 1081 806 1306 607 
Q 1531 409 1900 409 
Q 2303 409 2533 684 
Q 2763 959 2763 1444 
Q 2763 1900 2514 2176 
Q 2266 2453 1853 2453 
Q 1475 2453 1259 2288 
L 1106 2163 
L 644 2281 
z
" transform="scale(0.015625)"/>
       </defs>
       <use xlink:href="#Roboto-Regular-35"/>
       <use xlink:href="#Roboto-Regular-38" transform="translate(56.152344 0)"/>
       <use xlink:href="#Roboto-Regular-34" transform="translate(112.304688 0)"/>
       <use xlink:href="#Roboto-Regular-30" transform="translate(168.457031 0)"/>
      </g>
     </g>
    </g>
    <g id="xtick_6">
     <g id="line2d_13">
      <path d="M 320.371395 162.708661 
L 320.371395 9.92126 
" clip-path="url(#p391b84f41b)" style="fill: none; stroke-dasharray: 0.6,0.3; stroke-dashoffset: 0; stroke: #868e96; stroke-opacity: 0.6; stroke-width: 0.2"/>
     </g>
     <g id="line2d_14">
      <g>
       <use xlink:href="#m561b8c4022" x="320.371395" y="162.708661" style="stroke: #000000; stroke-width: 0.25"/>
      </g>
     </g>
     <g id="text_6">
      <!-- 7300 -->
      <g transform="translate(312.50952 171.458661) scale(0.07 -0.07)">
       <defs>
        <path id="Roboto-Regular-37" d="M 3316 4225 
L 1431 0 
L 825 0 
L 2703 4075 
L 241 4075 
L 241 4550 
L 3316 4550 
L 3316 4225 
z
" transform="scale(0.015625)"/>
       </defs>
       <use xlink:href="#Roboto-Regular-37"/>
       <use xlink:href="#Roboto-Regular-33" transform="translate(56.152344 0)"/>
       <use xlink:href="#Roboto-Regular-30" transform="translate(112.304688 0)"/>
       <use xlink:href="#Roboto-Regular-30" transform="translate(168.457031 0)"/>
      </g>
     </g>
    </g>
    <g id="xtick_7">
     <g id="line2d_15">
      <path d="M 376.374274 162.708661 
L 376.374274 9.92126 
" clip-path="url(#p391b84f41b)" style="fill: none; stroke-dasharray: 0.6,0.3; stroke-dashoffset: 0; stroke: #868e96; stroke-opacity: 0.6; stroke-width: 0.2"/>
     </g>
     <g id="line2d_16">
      <g>
       <use xlink:href="#m561b8c4022" x="376.374274" y="162.708661" style="stroke: #000000; stroke-width: 0.25"/>
      </g>
     </g>
     <g id="text_7">
      <!-- 8760 -->
      <g transform="translate(368.512399 171.458661) scale(0.07 -0.07)">
       <use xlink:href="#Roboto-Regular-38"/>
       <use xlink:href="#Roboto-Regular-37" transform="translate(56.152344 0)"/>
       <use xlink:href="#Roboto-Regular-36" transform="translate(112.304688 0)"/>
       <use xlink:href="#Roboto-Regular-30" transform="translate(168.457031 0)"/>
      </g>
     </g>
    </g>
    <g id="xtick_8">
     <g id="line2d_17">
      <defs>
       <path id="mbd40f38d1c" d="M 0 0 
L 0 -1 
" style="stroke: #000000; stroke-width: 0.2"/>
      </defs>
      <g>
       <use xlink:href="#mbd40f38d1c" x="54.357717" y="162.708661" style="stroke: #000000; stroke-width: 0.2"/>
      </g>
     </g>
    </g>
    <g id="xtick_9">
     <g id="line2d_18">
      <g>
       <use xlink:href="#mbd40f38d1c" x="68.358437" y="162.708661" style="stroke: #000000; stroke-width: 0.2"/>
      </g>
     </g>
    </g>
    <g id="xtick_10">
     <g id="line2d_19">
      <g>
       <use xlink:href="#mbd40f38d1c" x="82.359157" y="162.708661" style="stroke: #000000; stroke-width: 0.2"/>
      </g>
     </g>
    </g>
    <g id="xtick_11">
     <g id="line2d_20">
      <g>
       <use xlink:href="#mbd40f38d1c" x="110.360597" y="162.708661" style="stroke: #000000; stroke-width: 0.2"/>
      </g>
     </g>
    </g>
    <g id="xtick_12">
     <g id="line2d_21">
      <g>
       <use xlink:href="#mbd40f38d1c" x="124.361316" y="162.708661" style="stroke: #000000; stroke-width: 0.2"/>
      </g>
     </g>
    </g>
    <g id="xtick_13">
     <g id="line2d_22">
      <g>
       <use xlink:href="#mbd40f38d1c" x="138.362036" y="162.708661" style="stroke: #000000; stroke-width: 0.2"/>
      </g>
     </g>
    </g>
    <g id="xtick_14">
     <g id="line2d_23">
      <g>
       <use xlink:href="#mbd40f38d1c" x="166.363476" y="162.708661" style="stroke: #000000; stroke-width: 0.2"/>
      </g>
     </g>
    </g>
    <g id="xtick_15">
     <g id="line2d_24">
      <g>
       <use xlink:href="#mbd40f38d1c" x="180.364196" y="162.708661" style="stroke: #000000; stroke-width: 0.2"/>
      </g>
     </g>
    </g>
    <g id="xtick_16">
     <g id="line2d_25">
      <g>
       <use xlink:href="#mbd40f38d1c" x="194.364916" y="162.708661" style="stroke: #000000; stroke-width: 0.2"/>
      </g>
     </g>
    </g>
    <g id="xtick_17">
     <g id="line2d_26">
      <g>
       <use xlink:href="#mbd40f38d1c" x="222.366356" y="162.708661" style="stroke: #000000; stroke-width: 0.2"/>
      </g>
     </g>
    </g>
    <g id="xtick_18">
     <g id="line2d_27">
      <g>
       <use xlink:href="#mbd40f38d1c" x="236.367076" y="162.708661" style="stroke: #000000; stroke-width: 0.2"/>
      </g>
     </g>
    </g>
    <g id="xtick_19">
     <g id="line2d_28">
      <g>
       <use xlink:href="#mbd40f38d1c" x="250.367795" y="162.708661" style="stroke: #000000; stroke-width: 0.2"/>
      </g>
     </g>
    </g>
    <g id="xtick_20">
     <g id="line2d_29">
      <g>
       <use xlink:href="#mbd40f38d1c" x="278.369235" y="162.708661" style="stroke: #000000; stroke-width: 0.2"/>
      </g>
     </g>
    </g>
    <g id="xtick_21">
     <g id="line2d_30">
      <g>
       <use xlink:href="#mbd40f38d1c" x="292.369955" y="162.708661" style="stroke: #000000; stroke-width: 0.2"/>
      </g>
     </g>
    </g>
    <g id="xtick_22">
     <g id="line2d_31">
      <g>
       <use xlink:href="#mbd40f38d1c" x="306.370675" y="162.708661" style="stroke: #000000; stroke-width: 0.2"/>
      </g>
     </g>
    </g>
    <g id="xtick_23">
     <g id="line2d_32">
      <g>
       <use xlink:href="#mbd40f38d1c" x="334.372115" y="162.708661" style="stroke: #000000; stroke-width: 0.2"/>
      </g>
     </g>
    </g>
    <g id="xtick_24">
     <g id="line2d_33">
      <g>
       <use xlink:href="#mbd40f38d1c" x="348.372835" y="162.708661" style="stroke: #000000; stroke-width: 0.2"/>
      </g>
     </g>
    </g>
    <g id="xtick_25">
     <g id="line2d_34">
      <g>
       <use xlink:href="#mbd40f38d1c" x="362.373554" y="162.708661" style="stroke: #000000; stroke-width: 0.2"/>
      </g>
     </g>
    </g>
    <g id="text_8">
     <!-- Hour of year [h] -->
     <g transform="translate(182.8488 183.974286) scale(0.075 -0.075)">
      <defs>
       <path id="Roboto-Regular-48" d="M 4025 0 
L 3422 0 
L 3422 2103 
L 1128 2103 
L 1128 0 
L 528 0 
L 528 4550 
L 1128 4550 
L 1128 2594 
L 3422 2594 
L 3422 4550 
L 4025 4550 
L 4025 0 
z
" transform="scale(0.015625)"/>
       <path id="Roboto-Regular-6f" d="M 284 1722 
Q 284 2219 479 2616 
Q 675 3013 1023 3228 
Q 1372 3444 1819 3444 
Q 2509 3444 2936 2966 
Q 3363 2488 3363 1694 
L 3363 1653 
Q 3363 1159 3173 767 
Q 2984 375 2632 156 
Q 2281 -63 1825 -63 
Q 1138 -63 711 415 
Q 284 894 284 1681 
L 284 1722 
z
M 866 1653 
Q 866 1091 1127 750 
Q 1388 409 1825 409 
Q 2266 409 2525 754 
Q 2784 1100 2784 1722 
Q 2784 2278 2520 2623 
Q 2256 2969 1819 2969 
Q 1391 2969 1128 2628 
Q 866 2288 866 1653 
z
" transform="scale(0.015625)"/>
       <path id="Roboto-Regular-75" d="M 2525 334 
Q 2188 -63 1534 -63 
Q 994 -63 711 251 
Q 428 566 425 1181 
L 425 3381 
L 1003 3381 
L 1003 1197 
Q 1003 428 1628 428 
Q 2291 428 2509 922 
L 2509 3381 
L 3088 3381 
L 3088 0 
L 2538 0 
L 2525 334 
z
" transform="scale(0.015625)"/>
       <path id="Roboto-Regular-72" d="M 2072 2863 
Q 1941 2884 1788 2884 
Q 1219 2884 1016 2400 
L 1016 0 
L 438 0 
L 438 3381 
L 1000 3381 
L 1009 2991 
Q 1294 3444 1816 3444 
Q 1984 3444 2072 3400 
L 2072 2863 
z
" transform="scale(0.015625)"/>
       <path id="Roboto-Regular-20" transform="scale(0.015625)"/>
       <path id="Roboto-Regular-66" d="M 722 0 
L 722 2934 
L 188 2934 
L 188 3381 
L 722 3381 
L 722 3728 
Q 722 4272 1012 4569 
Q 1303 4866 1834 4866 
Q 2034 4866 2231 4813 
L 2200 4344 
Q 2053 4372 1888 4372 
Q 1606 4372 1453 4208 
Q 1300 4044 1300 3738 
L 1300 3381 
L 2022 3381 
L 2022 2934 
L 1300 2934 
L 1300 0 
L 722 0 
z
" transform="scale(0.015625)"/>
       <path id="Roboto-Regular-79" d="M 1544 847 
L 2331 3381 
L 2950 3381 
L 1591 -522 
Q 1275 -1366 588 -1366 
L 478 -1356 
L 263 -1316 
L 263 -847 
L 419 -859 
Q 713 -859 877 -740 
Q 1041 -622 1147 -306 
L 1275 38 
L 69 3381 
L 700 3381 
L 1544 847 
z
" transform="scale(0.015625)"/>
       <path id="Roboto-Regular-65" d="M 1841 -63 
Q 1153 -63 722 389 
Q 291 841 291 1597 
L 291 1703 
Q 291 2206 483 2601 
Q 675 2997 1020 3220 
Q 1366 3444 1769 3444 
Q 2428 3444 2793 3009 
Q 3159 2575 3159 1766 
L 3159 1525 
L 869 1525 
Q 881 1025 1161 717 
Q 1441 409 1872 409 
Q 2178 409 2390 534 
Q 2603 659 2763 866 
L 3116 591 
Q 2691 -63 1841 -63 
z
M 1769 2969 
Q 1419 2969 1181 2714 
Q 944 2459 888 2000 
L 2581 2000 
L 2581 2044 
Q 2556 2484 2343 2726 
Q 2131 2969 1769 2969 
z
" transform="scale(0.015625)"/>
       <path id="Roboto-Regular-61" d="M 2525 0 
Q 2475 100 2444 356 
Q 2041 -63 1481 -63 
Q 981 -63 661 220 
Q 341 503 341 938 
Q 341 1466 742 1758 
Q 1144 2050 1872 2050 
L 2434 2050 
L 2434 2316 
Q 2434 2619 2253 2798 
Q 2072 2978 1719 2978 
Q 1409 2978 1200 2822 
Q 991 2666 991 2444 
L 409 2444 
Q 409 2697 589 2933 
Q 769 3169 1076 3306 
Q 1384 3444 1753 3444 
Q 2338 3444 2669 3151 
Q 3000 2859 3013 2347 
L 3013 791 
Q 3013 325 3131 50 
L 3131 0 
L 2525 0 
z
M 1566 441 
Q 1838 441 2081 581 
Q 2325 722 2434 947 
L 2434 1641 
L 1981 1641 
Q 919 1641 919 1019 
Q 919 747 1100 594 
Q 1281 441 1566 441 
z
" transform="scale(0.015625)"/>
       <path id="Roboto-Regular-5b" d="M 1634 4725 
L 1038 4725 
L 1038 -500 
L 1634 -500 
L 1634 -975 
L 456 -975 
L 456 5200 
L 1634 5200 
L 1634 4725 
z
" transform="scale(0.015625)"/>
       <path id="Roboto-Regular-68" d="M 1016 2972 
Q 1400 3444 2016 3444 
Q 3088 3444 3097 2234 
L 3097 0 
L 2519 0 
L 2519 2238 
Q 2516 2603 2352 2778 
Q 2188 2953 1841 2953 
Q 1559 2953 1346 2803 
Q 1134 2653 1016 2409 
L 1016 0 
L 438 0 
L 438 4800 
L 1016 4800 
L 1016 2972 
z
" transform="scale(0.015625)"/>
       <path id="Roboto-Regular-5d" d="M 28 5200 
L 1209 5200 
L 1209 -975 
L 28 -975 
L 28 -500 
L 631 -500 
L 631 4725 
L 28 4725 
L 28 5200 
z
" transform="scale(0.015625)"/>
      </defs>
      <use xlink:href="#Roboto-Regular-48"/>
      <use xlink:href="#Roboto-Regular-6f" transform="translate(71.289062 0)"/>
      <use xlink:href="#Roboto-Regular-75" transform="translate(128.320312 0)"/>
      <use xlink:href="#Roboto-Regular-72" transform="translate(183.447266 0)"/>
      <use xlink:href="#Roboto-Regular-20" transform="translate(217.285156 0)"/>
      <use xlink:href="#Roboto-Regular-6f" transform="translate(242.041016 0)"/>
      <use xlink:href="#Roboto-Regular-66" transform="translate(299.072266 0)"/>
      <use xlink:href="#Roboto-Regular-20" transform="translate(333.789062 0)"/>
      <use xlink:href="#Roboto-Regular-79" transform="translate(358.544922 0)"/>
      <use xlink:href="#Roboto-Regular-65" transform="translate(405.859375 0)"/>
      <use xlink:href="#Roboto-Regular-61" transform="translate(458.837891 0)"/>
      <use xlink:href="#Roboto-Regular-72" transform="translate(513.232422 0)"/>
      <use xlink:href="#Roboto-Regular-20" transform="translate(547.070312 0)"/>
      <use xlink:href="#Roboto-Regular-5b" transform="translate(571.826172 0)"/>
      <use xlink:href="#Roboto-Regular-68" transform="translate(598.339844 0)"/>
      <use xlink:href="#Roboto-Regular-5d" transform="translate(653.417969 0)"/>
     </g>
    </g>
   </g>
   <g id="matplotlib.axis_2">
    <g id="ytick_1">
     <g id="line2d_35">
      <path d="M 39.685039 162.357302 
L 377.007874 162.357302 
" clip-path="url(#p391b84f41b)" style="fill: none; stroke-dasharray: 0.6,0.3; stroke-dashoffset: 0; stroke: #868e96; stroke-opacity: 0.6; stroke-width: 0.2"/>
     </g>
     <g id="line2d_36">
      <defs>
       <path id="m383f243b47" d="M 0 0 
L 1.75 0 
" style="stroke: #000000; stroke-width: 0.25"/>
      </defs>
      <g>
       <use xlink:href="#m383f243b47" x="39.685039" y="162.357302" style="stroke: #000000; stroke-width: 0.25"/>
      </g>
     </g>
     <g id="text_9">
      <!-- 0 -->
      <g transform="translate(32.254102 164.982302) scale(0.07 -0.07)">
       <use xlink:href="#Roboto-Regular-30"/>
      </g>
     </g>
    </g>
    <g id="ytick_2">
     <g id="line2d_37">
      <path d="M 39.685039 124.248291 
L 377.007874 124.248291 
" clip-path="url(#p391b84f41b)" style="fill: none; stroke-dasharray: 0.6,0.3; stroke-dashoffset: 0; stroke: #868e96; stroke-opacity: 0.6; stroke-width: 0.2"/>
     </g>
     <g id="line2d_38">
      <g>
       <use xlink:href="#m383f243b47" x="39.685039" y="124.248291" style="stroke: #000000; stroke-width: 0.25"/>
      </g>
     </g>
     <g id="text_10">
      <!-- 10 -->
      <g transform="translate(28.323164 126.873291) scale(0.07 -0.07)">
       <use xlink:href="#Roboto-Regular-31"/>
       <use xlink:href="#Roboto-Regular-30" transform="translate(56.152344 0)"/>
      </g>
     </g>
    </g>
    <g id="ytick_3">
     <g id="line2d_39">
      <path d="M 39.685039 86.139281 
L 377.007874 86.139281 
" clip-path="url(#p391b84f41b)" style="fill: none; stroke-dasharray: 0.6,0.3; stroke-dashoffset: 0; stroke: #868e96; stroke-opacity: 0.6; stroke-width: 0.2"/>
     </g>
     <g id="line2d_40">
      <g>
       <use xlink:href="#m383f243b47" x="39.685039" y="86.139281" style="stroke: #000000; stroke-width: 0.25"/>
      </g>
     </g>
     <g id="text_11">
      <!-- 20 -->
      <g transform="translate(28.323164 88.764281) scale(0.07 -0.07)">
       <use xlink:href="#Roboto-Regular-32"/>
       <use xlink:href="#Roboto-Regular-30" transform="translate(56.152344 0)"/>
      </g>
     </g>
    </g>
    <g id="ytick_4">
     <g id="line2d_41">
      <path d="M 39.685039 48.03027 
L 377.007874 48.03027 
" clip-path="url(#p391b84f41b)" style="fill: none; stroke-dasharray: 0.6,0.3; stroke-dashoffset: 0; stroke: #868e96; stroke-opacity: 0.6; stroke-width: 0.2"/>
     </g>
     <g id="line2d_42">
      <g>
       <use xlink:href="#m383f243b47" x="39.685039" y="48.03027" style="stroke: #000000; stroke-width: 0.25"/>
      </g>
     </g>
     <g id="text_12">
      <!-- 30 -->
      <g transform="translate(28.323164 50.65527) scale(0.07 -0.07)">
       <use xlink:href="#Roboto-Regular-33"/>
       <use xlink:href="#Roboto-Regular-30" transform="translate(56.152344 0)"/>
      </g>
     </g>
    </g>
    <g id="ytick_5">
     <g id="line2d_43">
      <path d="M 39.685039 9.92126 
L 377.007874 9.92126 
" clip-path="url(#p391b84f41b)" style="fill: none; stroke-dasharray: 0.6,0.3; stroke-dashoffset: 0; stroke: #868e96; stroke-opacity: 0.6; stroke-width: 0.2"/>
     </g>
     <g id="line2d_44">
      <g>
       <use xlink:href="#m383f243b47" x="39.685039" y="9.92126" style="stroke: #000000; stroke-width: 0.25"/>
      </g>
     </g>
     <g id="text_13">
      <!-- 40 -->
      <g transform="translate(28.323164 12.54626) scale(0.07 -0.07)">
       <use xlink:href="#Roboto-Regular-34"/>
       <use xlink:href="#Roboto-Regular-30" transform="translate(56.152344 0)"/>
      </g>
     </g>
    </g>
    <g id="ytick_6">
     <g id="line2d_45">
      <defs>
       <path id="mb9ddf078e1" d="M 0 0 
L 1 0 
" style="stroke: #000000; stroke-width: 0.2"/>
      </defs>
      <g>
       <use xlink:href="#mb9ddf078e1" x="39.685039" y="154.735499" style="stroke: #000000; stroke-width: 0.2"/>
      </g>
     </g>
    </g>
    <g id="ytick_7">
     <g id="line2d_46">
      <g>
       <use xlink:href="#mb9ddf078e1" x="39.685039" y="147.113697" style="stroke: #000000; stroke-width: 0.2"/>
      </g>
     </g>
    </g>
    <g id="ytick_8">
     <g id="line2d_47">
      <g>
       <use xlink:href="#mb9ddf078e1" x="39.685039" y="139.491895" style="stroke: #000000; stroke-width: 0.2"/>
      </g>
     </g>
    </g>
    <g id="ytick_9">
     <g id="line2d_48">
      <g>
       <use xlink:href="#mb9ddf078e1" x="39.685039" y="131.870093" style="stroke: #000000; stroke-width: 0.2"/>
      </g>
     </g>
    </g>
    <g id="ytick_10">
     <g id="line2d_49">
      <g>
       <use xlink:href="#mb9ddf078e1" x="39.685039" y="116.626489" style="stroke: #000000; stroke-width: 0.2"/>
      </g>
     </g>
    </g>
    <g id="ytick_11">
     <g id="line2d_50">
      <g>
       <use xlink:href="#mb9ddf078e1" x="39.685039" y="109.004687" style="stroke: #000000; stroke-width: 0.2"/>
      </g>
     </g>
    </g>
    <g id="ytick_12">
     <g id="line2d_51">
      <g>
       <use xlink:href="#mb9ddf078e1" x="39.685039" y="101.382885" style="stroke: #000000; stroke-width: 0.2"/>
      </g>
     </g>
    </g>
    <g id="ytick_13">
     <g id="line2d_52">
      <g>
       <use xlink:href="#mb9ddf078e1" x="39.685039" y="93.761083" style="stroke: #000000; stroke-width: 0.2"/>
      </g>
     </g>
    </g>
    <g id="ytick_14">
     <g id="line2d_53">
      <g>
       <use xlink:href="#mb9ddf078e1" x="39.685039" y="78.517479" style="stroke: #000000; stroke-width: 0.2"/>
      </g>
     </g>
    </g>
    <g id="ytick_15">
     <g id="line2d_54">
      <g>
       <use xlink:href="#mb9ddf078e1" x="39.685039" y="70.895677" style="stroke: #000000; stroke-width: 0.2"/>
      </g>
     </g>
    </g>
    <g id="ytick_16">
     <g id="line2d_55">
      <g>
       <use xlink:href="#mb9ddf078e1" x="39.685039" y="63.273874" style="stroke: #000000; stroke-width: 0.2"/>
      </g>
     </g>
    </g>
    <g id="ytick_17">
     <g id="line2d_56">
      <g>
       <use xlink:href="#mb9ddf078e1" x="39.685039" y="55.652072" style="stroke: #000000; stroke-width: 0.2"/>
      </g>
     </g>
    </g>
    <g id="ytick_18">
     <g id="line2d_57">
      <g>
       <use xlink:href="#mb9ddf078e1" x="39.685039" y="40.408468" style="stroke: #000000; stroke-width: 0.2"/>
      </g>
     </g>
    </g>
    <g id="ytick_19">
     <g id="line2d_58">
      <g>
       <use xlink:href="#mb9ddf078e1" x="39.685039" y="32.786666" style="stroke: #000000; stroke-width: 0.2"/>
      </g>
     </g>
    </g>
    <g id="ytick_20">
     <g id="line2d_59">
      <g>
       <use xlink:href="#mb9ddf078e1" x="39.685039" y="25.164864" style="stroke: #000000; stroke-width: 0.2"/>
      </g>
     </g>
    </g>
    <g id="ytick_21">
     <g id="line2d_60">
      <g>
       <use xlink:href="#mb9ddf078e1" x="39.685039" y="17.543062" style="stroke: #000000; stroke-width: 0.2"/>
      </g>
     </g>
    </g>
    <g id="text_14">
     <!-- Load [kW] -->
     <g transform="translate(19.799727 102.770429) rotate(-90) scale(0.075 -0.075)">
      <defs>
       <path id="Roboto-Regular-4c" d="M 1131 491 
L 3288 491 
L 3288 0 
L 528 0 
L 528 4550 
L 1131 4550 
L 1131 491 
z
" transform="scale(0.015625)"/>
       <path id="Roboto-Regular-64" d="M 297 1719 
Q 297 2497 665 2970 
Q 1034 3444 1631 3444 
Q 2225 3444 2572 3038 
L 2572 4800 
L 3150 4800 
L 3150 0 
L 2619 0 
L 2591 363 
Q 2244 -63 1625 -63 
Q 1038 -63 667 418 
Q 297 900 297 1675 
L 297 1719 
z
M 875 1653 
Q 875 1078 1112 753 
Q 1350 428 1769 428 
Q 2319 428 2572 922 
L 2572 2475 
Q 2313 2953 1775 2953 
Q 1350 2953 1112 2625 
Q 875 2297 875 1653 
z
" transform="scale(0.015625)"/>
       <path id="Roboto-Regular-6b" d="M 1381 1566 
L 1019 1188 
L 1019 0 
L 441 0 
L 441 4800 
L 1019 4800 
L 1019 1897 
L 1328 2269 
L 2381 3381 
L 3084 3381 
L 1769 1969 
L 3238 0 
L 2559 0 
L 1381 1566 
z
" transform="scale(0.015625)"/>
       <path id="Roboto-Regular-57" d="M 1509 1434 
L 1597 834 
L 1725 1375 
L 2625 4550 
L 3131 4550 
L 4009 1375 
L 4134 825 
L 4231 1438 
L 4938 4550 
L 5541 4550 
L 4438 0 
L 3891 0 
L 2953 3316 
L 2881 3663 
L 2809 3316 
L 1838 0 
L 1291 0 
L 191 4550 
L 791 4550 
L 1509 1434 
z
" transform="scale(0.015625)"/>
      </defs>
      <use xlink:href="#Roboto-Regular-4c"/>
      <use xlink:href="#Roboto-Regular-6f" transform="translate(53.808594 0)"/>
      <use xlink:href="#Roboto-Regular-61" transform="translate(110.839844 0)"/>
      <use xlink:href="#Roboto-Regular-64" transform="translate(165.234375 0)"/>
      <use xlink:href="#Roboto-Regular-20" transform="translate(221.630859 0)"/>
      <use xlink:href="#Roboto-Regular-5b" transform="translate(246.386719 0)"/>
      <use xlink:href="#Roboto-Regular-6b" transform="translate(272.900391 0)"/>
      <use xlink:href="#Roboto-Regular-57" transform="translate(323.583984 0)"/>
      <use xlink:href="#Roboto-Regular-5d" transform="translate(412.304688 0)"/>
     </g>
    </g>
   </g>
   <g id="legend_1">
    <g id="line2d_61">
     <path d="M 255.119673 18.485197 
L 260.969673 18.485197 
L 266.819673 18.485197 
" style="fill: none; stroke: #fa5252; stroke-opacity: 0.5; stroke-width: 0.8; stroke-linecap: square"/>
    </g>
    <g id="text_15">
     <!-- Heating load -->
     <g transform="translate(268.769673 20.760197) scale(0.065 -0.065)">
      <defs>
       <path id="Roboto-Regular-74" d="M 1222 4200 
L 1222 3381 
L 1853 3381 
L 1853 2934 
L 1222 2934 
L 1222 838 
Q 1222 634 1306 532 
Q 1391 431 1594 431 
Q 1694 431 1869 469 
L 1869 0 
Q 1641 -63 1425 -63 
Q 1038 -63 841 171 
Q 644 406 644 838 
L 644 2934 
L 28 2934 
L 28 3381 
L 644 3381 
L 644 4200 
L 1222 4200 
z
" transform="scale(0.015625)"/>
       <path id="Roboto-Regular-69" d="M 1066 0 
L 488 0 
L 488 3381 
L 1066 3381 
L 1066 0 
z
M 441 4278 
Q 441 4419 527 4516 
Q 613 4613 781 4613 
Q 950 4613 1037 4516 
Q 1125 4419 1125 4278 
Q 1125 4138 1037 4044 
Q 950 3950 781 3950 
Q 613 3950 527 4044 
Q 441 4138 441 4278 
z
" transform="scale(0.015625)"/>
       <path id="Roboto-Regular-6e" d="M 984 3381 
L 1003 2956 
Q 1391 3444 2016 3444 
Q 3088 3444 3097 2234 
L 3097 0 
L 2519 0 
L 2519 2238 
Q 2516 2603 2352 2778 
Q 2188 2953 1841 2953 
Q 1559 2953 1346 2803 
Q 1134 2653 1016 2409 
L 1016 0 
L 438 0 
L 438 3381 
L 984 3381 
z
" transform="scale(0.015625)"/>
       <path id="Roboto-Regular-67" d="M 300 1719 
Q 300 2509 665 2976 
Q 1031 3444 1634 3444 
Q 2253 3444 2600 3006 
L 2628 3381 
L 3156 3381 
L 3156 81 
Q 3156 -575 2767 -953 
Q 2378 -1331 1722 -1331 
Q 1356 -1331 1006 -1175 
Q 656 -1019 472 -747 
L 772 -400 
Q 1144 -859 1681 -859 
Q 2103 -859 2339 -621 
Q 2575 -384 2575 47 
L 2575 338 
Q 2228 -63 1628 -63 
Q 1034 -63 667 415 
Q 300 894 300 1719 
z
M 881 1653 
Q 881 1081 1115 754 
Q 1350 428 1772 428 
Q 2319 428 2575 925 
L 2575 2469 
Q 2309 2953 1778 2953 
Q 1356 2953 1118 2625 
Q 881 2297 881 1653 
z
" transform="scale(0.015625)"/>
       <path id="Roboto-Regular-6c" d="M 1066 0 
L 488 0 
L 488 4800 
L 1066 4800 
L 1066 0 
z
" transform="scale(0.015625)"/>
      </defs>
      <use xlink:href="#Roboto-Regular-48"/>
      <use xlink:href="#Roboto-Regular-65" transform="translate(71.289062 0)"/>
      <use xlink:href="#Roboto-Regular-61" transform="translate(124.267578 0)"/>
      <use xlink:href="#Roboto-Regular-74" transform="translate(178.662109 0)"/>
      <use xlink:href="#Roboto-Regular-69" transform="translate(211.328125 0)"/>
      <use xlink:href="#Roboto-Regular-6e" transform="translate(235.595703 0)"/>
      <use xlink:href="#Roboto-Regular-67" transform="translate(290.771484 0)"/>
      <use xlink:href="#Roboto-Regular-20" transform="translate(346.875 0)"/>
      <use xlink:href="#Roboto-Regular-6c" transform="translate(371.630859 0)"/>
      <use xlink:href="#Roboto-Regular-6f" transform="translate(395.898438 0)"/>
      <use xlink:href="#Roboto-Regular-61" transform="translate(452.929688 0)"/>
      <use xlink:href="#Roboto-Regular-64" transform="translate(507.324219 0)"/>
     </g>
    </g>
    <g id="line2d_62">
     <path d="M 311.911392 18.485197 
L 317.761392 18.485197 
L 323.611392 18.485197 
" style="fill: none; stroke: #228be6; stroke-opacity: 0.5; stroke-width: 0.8; stroke-linecap: square"/>
    </g>
    <g id="text_16">
     <!-- Cooling load -->
     <g transform="translate(325.561392 20.760197) scale(0.065 -0.065)">
      <defs>
       <path id="Roboto-Regular-43" d="M 3875 1444 
Q 3791 722 3342 329 
Q 2894 -63 2150 -63 
Q 1344 -63 858 515 
Q 372 1094 372 2063 
L 372 2500 
Q 372 3134 598 3615 
Q 825 4097 1240 4355 
Q 1656 4613 2203 4613 
Q 2928 4613 3365 4208 
Q 3803 3803 3875 3088 
L 3272 3088 
Q 3194 3631 2933 3875 
Q 2672 4119 2203 4119 
Q 1628 4119 1301 3694 
Q 975 3269 975 2484 
L 975 2044 
Q 975 1303 1284 865 
Q 1594 428 2150 428 
Q 2650 428 2917 654 
Q 3184 881 3272 1444 
L 3875 1444 
z
" transform="scale(0.015625)"/>
      </defs>
      <use xlink:href="#Roboto-Regular-43"/>
      <use xlink:href="#Roboto-Regular-6f" transform="translate(65.087891 0)"/>
      <use xlink:href="#Roboto-Regular-6f" transform="translate(122.119141 0)"/>
      <use xlink:href="#Roboto-Regular-6c" transform="translate(179.150391 0)"/>
      <use xlink:href="#Roboto-Regular-69" transform="translate(203.417969 0)"/>
      <use xlink:href="#Roboto-Regular-6e" transform="translate(227.685547 0)"/>
      <use xlink:href="#Roboto-Regular-67" transform="translate(282.861328 0)"/>
      <use xlink:href="#Roboto-Regular-20" transform="translate(338.964844 0)"/>
      <use xlink:href="#Roboto-Regular-6c" transform="translate(363.720703 0)"/>
      <use xlink:href="#Roboto-Regular-6f" transform="translate(387.988281 0)"/>
      <use xlink:href="#Roboto-Regular-61" transform="translate(445.019531 0)"/>
      <use xlink:href="#Roboto-Regular-64" transform="translate(499.414062 0)"/>
     </g>
    </g>
   </g>
  </g>
 </g>
 <defs>
  <clipPath id="p391b84f41b">
   <rect x="39.685039" y="9.92126" width="337.322835" height="152.787402"/>
  </clipPath>
 </defs>
</svg>
