<?xml version="1.0" encoding="utf-8" standalone="no"?>
<!DOCTYPE svg PUBLIC "-//W3C//DTD SVG 1.1//EN"
  "http://www.w3.org/Graphics/SVG/1.1/DTD/svg11.dtd">
<svg xmlns:xlink="http://www.w3.org/1999/xlink" width="396.850394pt" height="198.425197pt" viewBox="0 0 396.850394 198.425197" xmlns="http://www.w3.org/2000/svg" version="1.1">
 <metadata>
  <rdf:RDF xmlns:dc="http://purl.org/dc/elements/1.1/" xmlns:cc="http://creativecommons.org/ns#" xmlns:rdf="http://www.w3.org/1999/02/22-rdf-syntax-ns#">
   <cc:Work>
    <dc:type rdf:resource="http://purl.org/dc/dcmitype/StillImage"/>
    <dc:date>2025-09-26T15:30:03.950541</dc:date>
    <dc:format>image/svg+xml</dc:format>
    <dc:creator>
     <cc:Agent>
      <dc:title>Matplotlib v3.10.3, https://matplotlib.org/</dc:title>
     </cc:Agent>
    </dc:creator>
   </cc:Work>
  </rdf:RDF>
 </metadata>
 <defs>
  <style type="text/css">*{stroke-linejoin: round; stroke-linecap: butt}</style>
 </defs>
 <g id="figure_1">
  <g id="patch_1">
   <path d="M 0 198.425197 
L 396.850394 198.425197 
L 396.850394 0 
L 0 0 
L 0 198.425197 
z
" style="fill: none"/>
  </g>
  <g id="axes_1">
   <g id="patch_2">
    <path d="M 39.685039 162.708661 
L 377.007874 162.708661 
L 377.007874 9.92126 
L 39.685039 9.92126 
L 39.685039 162.708661 
z
" style="fill: none"/>
   </g>
   <g id="line2d_1">
    <path d="M 40.356997 162.29105 
L 126.240865 162.29105 
L 126.317581 158.494963 
L 126.54773 140.686355 
L 126.739521 162.29105 
L 127.16146 162.29105 
L 127.314893 148.85746 
L 127.468326 138.409624 
L 127.660116 162.29105 
L 128.082056 162.29105 
L 128.388921 142.073318 
L 128.580712 162.29105 
L 129.002651 162.29105 
L 129.117725 157.842905 
L 129.271158 146.438976 
L 129.309516 147.653472 
L 129.462949 162.29105 
L 131.802795 162.29105 
L 131.879511 159.095576 
L 132.032944 144.438416 
L 132.071302 146.321309 
L 132.224734 162.29105 
L 132.72339 162.29105 
L 132.991897 149.472483 
L 133.183688 162.29105 
L 133.643986 162.29105 
L 133.797418 155.819646 
L 133.912493 146.15118 
L 134.104283 162.29105 
L 134.602939 162.192524 
L 134.641297 161.424406 
L 134.833088 134.827712 
L 134.871446 146.79441 
L 135.063237 162.29105 
L 135.485176 162.261608 
L 135.638609 138.738268 
L 135.715325 142.613848 
L 135.983832 162.29105 
L 138.208604 162.29105 
L 138.477111 150.950508 
L 138.515469 151.345191 
L 138.668901 162.29105 
L 139.090841 162.29105 
L 139.129199 161.881182 
L 139.205915 149.145993 
L 139.436064 125.226435 
L 139.589497 159.685019 
L 139.781287 162.29105 
L 140.011436 162.29105 
L 140.088153 152.037178 
L 140.318301 115.006348 
L 140.356659 116.095281 
L 140.510092 157.381103 
L 140.701883 162.29105 
L 140.932032 162.29105 
L 141.008748 156.236147 
L 141.16218 137.840831 
L 141.277255 133.16906 
L 141.469045 161.877774 
L 141.58412 162.29105 
L 141.929343 162.29105 
L 142.159492 131.88557 
L 142.19785 132.335169 
L 142.351283 161.970055 
L 142.504715 162.29105 
L 144.614413 162.29105 
L 144.959636 106.776409 
L 145.113068 153.256502 
L 145.151427 154.922552 
L 145.266501 162.29105 
L 145.458292 162.29105 
L 145.535008 159.846142 
L 145.68844 119.2016 
L 145.726799 124.302248 
L 145.765157 117.551555 
L 145.803515 117.020136 
L 145.841873 117.512592 
L 145.880231 117.699118 
L 146.033664 157.146356 
L 146.263813 162.29105 
L 146.455603 162.29105 
L 146.609036 125.392636 
L 146.647394 132.954038 
L 146.685752 125.303937 
L 146.800826 122.821446 
L 146.954259 159.541011 
L 147.107692 162.29105 
L 147.414557 162.29105 
L 147.452915 162.15783 
L 147.683064 140.131345 
L 147.721422 141.697232 
L 147.874854 162.29105 
L 148.37351 162.209156 
L 148.603659 133.896884 
L 148.642017 132.780007 
L 148.833808 161.709122 
L 148.948882 162.29105 
L 151.05858 162.29105 
L 151.096938 162.156719 
L 151.365445 117.876496 
L 151.403803 118.14231 
L 151.557235 159.421943 
L 151.710668 162.29105 
L 152.017533 162.29105 
L 152.055891 161.806792 
L 152.247682 152.073111 
L 152.324398 151.51807 
L 152.362756 159.673472 
L 152.477831 162.29105 
L 152.89977 162.29105 
L 153.244993 143.827949 
L 153.283352 151.182205 
L 153.436784 162.29105 
L 153.820365 162.29105 
L 153.93544 157.78525 
L 154.165589 138.297075 
L 154.357379 161.975651 
L 154.472454 162.29105 
L 154.779319 162.29105 
L 154.817677 161.34668 
L 155.086184 136.806775 
L 155.239616 162.241754 
L 155.393049 162.29105 
L 157.502747 162.29105 
L 157.579463 151.864732 
L 157.771254 125.589024 
L 157.84797 117.957357 
L 158.03976 156.824788 
L 158.154835 162.29105 
L 158.384984 162.29105 
L 158.423342 161.198466 
L 158.653491 122.015287 
L 158.768565 109.557821 
L 158.960356 155.587316 
L 159.07543 162.29105 
L 159.305579 162.250215 
L 159.343937 161.857648 
L 159.49737 126.233931 
L 159.535728 131.766694 
L 159.574086 123.440844 
L 159.612444 122.549697 
L 159.650802 124.879702 
L 159.68916 124.492611 
L 159.842593 160.77741 
L 159.957667 162.29105 
L 160.264532 162.29105 
L 160.609756 124.940889 
L 160.801546 161.966171 
L 160.916621 162.29105 
L 161.185128 162.29105 
L 161.33856 118.619998 
L 161.376918 121.967061 
L 161.530351 97.090825 
L 161.683783 152.330553 
L 161.722142 154.337761 
L 161.837216 162.29105 
L 163.946914 162.214696 
L 164.292137 123.671304 
L 164.483927 157.689925 
L 164.599002 162.29105 
L 164.867509 162.29105 
L 165.212732 122.648297 
L 165.404523 160.012672 
L 165.519597 162.29105 
L 165.788104 162.29105 
L 165.86482 160.254969 
L 166.018253 142.648473 
L 166.133327 134.666104 
L 166.363476 162.29105 
L 166.708699 162.29105 
L 166.823774 145.429652 
L 167.053923 113.263265 
L 167.245713 157.583954 
L 167.360788 162.29105 
L 167.590936 162.29105 
L 167.629295 160.506906 
L 167.782727 119.988389 
L 167.821085 125.524799 
L 167.974518 103.563007 
L 168.12795 151.481055 
L 168.166309 153.172522 
L 168.281383 162.29105 
L 170.314364 162.29105 
L 170.39108 156.648035 
L 170.544513 117.26041 
L 170.582871 123.248198 
L 170.621229 116.353942 
L 170.736304 114.493699 
L 170.889736 155.278578 
L 171.119885 162.29105 
L 171.311676 162.29105 
L 171.465108 133.52981 
L 171.503466 135.993964 
L 171.656899 113.451169 
L 171.84869 159.184547 
L 171.963764 162.29105 
L 172.193913 162.29105 
L 172.232271 161.161312 
L 172.385704 111.793161 
L 172.424062 117.013345 
L 172.539136 95.617786 
L 172.577494 97.17359 
L 172.730927 151.791455 
L 172.961076 162.29105 
L 173.07615 162.29105 
L 173.152866 161.283533 
L 173.306299 111.595408 
L 173.344657 116.912339 
L 173.49809 93.743242 
L 173.651522 149.81513 
L 173.68988 152.077574 
L 173.804955 162.29105 
L 173.996745 162.29105 
L 174.380327 97.500102 
L 174.418685 98.242771 
L 174.572117 151.234332 
L 174.610476 153.298687 
L 174.72555 162.29105 
L 177.679126 162.29105 
L 177.717485 161.79455 
L 177.755843 159.772096 
L 177.909275 119.028445 
L 177.947633 126.26925 
L 177.985992 115.936075 
L 178.101066 99.320484 
L 178.292857 152.689317 
L 178.407931 162.29105 
L 178.599722 162.29105 
L 178.63808 161.291227 
L 178.676438 157.355091 
L 178.829871 105.915374 
L 178.868229 114.722029 
L 178.906587 100.153598 
L 179.021661 85.631987 
L 179.175094 144.019287 
L 179.213452 147.622573 
L 179.328526 162.29105 
L 179.520317 162.29105 
L 179.597033 148.691413 
L 179.750466 99.397646 
L 179.788824 111.241017 
L 179.827182 98.375329 
L 179.86554 91.825088 
L 179.942256 95.975317 
L 180.095689 148.054973 
L 180.134047 150.717179 
L 180.249122 162.29105 
L 180.440912 162.29105 
L 180.517629 158.444273 
L 180.671061 135.310521 
L 180.824494 140.44275 
L 180.862852 140.224288 
L 181.016284 162.158905 
L 181.169717 162.29105 
L 183.279414 162.29105 
L 183.432847 121.688543 
L 183.471205 128.222311 
L 183.624638 104.680951 
L 183.816428 152.2094 
L 183.931503 162.29105 
L 184.123293 162.29105 
L 184.20001 155.817691 
L 184.353442 108.593661 
L 184.3918 114.828923 
L 184.545233 90.069203 
L 184.698665 145.729326 
L 184.967172 162.29105 
L 185.043889 162.29105 
L 185.120605 152.6298 
L 185.274037 97.1032 
L 185.312396 109.519905 
L 185.350754 98.028662 
L 185.465828 93.987487 
L 185.619261 143.986844 
L 185.657619 146.777756 
L 185.772693 162.29105 
L 185.964484 162.29105 
L 186.271349 107.732591 
L 186.386423 102.921124 
L 186.539856 151.94978 
L 186.770005 162.29105 
L 186.923437 162.273802 
L 186.961796 160.939796 
L 187.115228 105.871136 
L 187.153586 115.75964 
L 187.191944 103.658371 
L 187.307019 91.620846 
L 187.460451 146.304296 
L 187.498809 148.918788 
L 187.613884 162.29105 
L 189.646865 162.29105 
L 190.030446 87.910835 
L 190.068805 88.816572 
L 190.222237 146.593099 
L 190.260595 149.00932 
L 190.37567 162.29105 
L 190.56746 162.29105 
L 190.951042 98.096774 
L 190.9894 98.737632 
L 191.142832 151.961208 
L 191.181191 153.614969 
L 191.296265 162.29105 
L 191.526414 162.274103 
L 191.564772 160.845597 
L 191.718204 109.819801 
L 191.756563 115.263398 
L 191.871637 94.342164 
L 191.909995 94.967363 
L 192.063428 149.808499 
L 192.101786 151.387179 
L 192.21686 162.29105 
L 192.408651 162.29105 
L 192.485367 151.703155 
L 192.6388 96.181255 
L 192.677158 108.55835 
L 192.715516 94.015723 
L 192.83059 87.072054 
L 192.984023 147.676168 
L 193.022381 150.274635 
L 193.137456 162.29105 
L 193.329246 162.29105 
L 193.405962 153.306896 
L 193.559395 103.522162 
L 193.597753 113.985649 
L 193.636111 100.410545 
L 193.712828 93.778325 
L 193.751186 94.521191 
L 193.904618 149.918067 
L 193.942976 151.854174 
L 194.058051 162.29105 
L 196.091032 162.29105 
L 196.321181 82.508071 
L 196.359539 97.799629 
L 196.397897 82.902759 
L 196.512972 72.643145 
L 196.666404 137.817233 
L 196.704762 142.081645 
L 196.819837 162.29105 
L 197.011627 162.29105 
L 197.241776 96.510511 
L 197.280134 107.741622 
L 197.318492 94.387858 
L 197.433567 78.768778 
L 197.625357 144.72332 
L 197.740432 162.29105 
L 197.932223 162.29105 
L 198.277446 82.917574 
L 198.315804 85.409441 
L 198.354162 86.653147 
L 198.507595 144.254414 
L 198.545953 146.500247 
L 198.661027 162.29105 
L 198.852818 162.29105 
L 199.159683 105.823051 
L 199.198041 105.216271 
L 199.274757 109.417111 
L 199.42819 155.327216 
L 199.658339 162.29105 
L 199.811771 162.29105 
L 199.850129 161.770272 
L 200.003562 112.647265 
L 200.04192 119.024742 
L 200.195353 91.614612 
L 200.348785 147.219963 
L 200.617292 162.29105 
L 202.535199 162.29105 
L 202.611915 154.046356 
L 202.765348 93.189253 
L 202.803706 102.467176 
L 202.842064 87.424625 
L 202.91878 82.10587 
L 202.957138 84.2698 
L 203.110571 143.846333 
L 203.148929 147.206219 
L 203.264004 162.29105 
L 203.455794 162.29105 
L 203.877734 85.856601 
L 204.031166 144.079585 
L 204.069524 147.032283 
L 204.184599 162.29105 
L 204.37639 162.29105 
L 204.606538 124.418911 
L 204.644897 128.253392 
L 204.683255 122.38515 
L 204.798329 117.178657 
L 204.951762 156.449419 
L 205.18191 162.29105 
L 205.373701 162.29105 
L 205.527134 113.142995 
L 205.565492 122.758384 
L 205.60385 112.955385 
L 205.680566 109.195574 
L 205.718924 110.675123 
L 205.872357 157.376345 
L 206.102506 162.29105 
L 206.294296 162.29105 
L 206.447729 122.454188 
L 206.486087 128.587633 
L 206.63952 107.378225 
L 206.792952 155.296345 
L 207.061459 162.29105 
L 208.979366 162.29105 
L 209.209515 99.367834 
L 209.247873 112.187882 
L 209.324589 104.701704 
L 209.362947 108.70711 
L 209.401305 107.80752 
L 209.554738 151.50094 
L 209.593096 152.970715 
L 209.708171 162.29105 
L 210.858915 162.29105 
L 210.897273 161.510091 
L 211.050705 96.855886 
L 211.089063 107.117808 
L 211.127422 88.823396 
L 211.204138 80.818396 
L 211.242496 82.527602 
L 211.395929 147.607042 
L 211.434287 150.124998 
L 211.549361 162.29105 
L 211.741152 162.29105 
L 211.817868 151.817645 
L 211.971301 98.997118 
L 212.009659 111.909914 
L 212.048017 100.441113 
L 212.086375 99.625292 
L 212.163091 101.98007 
L 212.316524 153.231794 
L 212.354882 154.684798 
L 212.469956 162.29105 
L 212.700105 162.29105 
L 212.738463 158.377772 
L 212.891896 101.936276 
L 212.930254 116.057582 
L 212.968612 102.031236 
L 213.083687 95.64129 
L 213.237119 152.776004 
L 213.275477 154.13759 
L 213.390552 162.29105 
L 215.423533 162.29105 
L 215.500249 152.500371 
L 215.653682 94.114951 
L 215.69204 109.789932 
L 215.730398 93.584893 
L 215.845472 83.506249 
L 215.998905 148.303738 
L 216.037263 150.275242 
L 216.152338 162.29105 
L 216.344128 162.29105 
L 216.420844 151.114109 
L 216.574277 88.918533 
L 216.612635 103.624466 
L 216.650993 86.240352 
L 216.72771 80.533885 
L 216.766068 82.881504 
L 216.9195 149.822943 
L 216.957858 151.65778 
L 217.072933 162.29105 
L 217.264723 162.29105 
L 217.34144 152.775231 
L 217.494872 88.288824 
L 217.53323 102.101438 
L 217.571589 82.971506 
L 217.648305 75.998757 
L 217.686663 76.167558 
L 217.840096 146.368135 
L 217.878454 148.333476 
L 217.993528 162.29105 
L 218.185319 162.29105 
L 218.5689 84.749602 
L 218.607258 83.448816 
L 218.760691 145.39987 
L 219.029198 162.29105 
L 219.105914 162.29105 
L 219.18263 146.870254 
L 219.336063 89.840006 
L 219.374421 102.510429 
L 219.412779 87.717669 
L 219.527854 78.878861 
L 219.681286 139.514644 
L 219.719644 143.515427 
L 219.834719 162.29105 
L 221.8677 162.29105 
L 222.097849 83.769382 
L 222.136207 99.568656 
L 222.174565 83.409421 
L 222.251281 79.200034 
L 222.289639 80.281977 
L 222.443072 146.247769 
L 222.48143 148.652855 
L 222.596504 162.29105 
L 222.788295 162.29105 
L 222.865011 149.909264 
L 223.018444 84.842289 
L 223.056802 99.880835 
L 223.09516 82.445637 
L 223.210235 68.170855 
L 223.402025 142.08844 
L 223.5171 162.29105 
L 223.70889 162.29105 
L 223.939039 80.46845 
L 223.977397 94.477911 
L 224.015756 77.56519 
L 224.13083 65.046142 
L 224.284262 134.804729 
L 224.322621 138.893915 
L 224.437695 162.29105 
L 224.629486 162.29105 
L 224.859635 72.957146 
L 224.897993 89.481347 
L 224.936351 73.956785 
L 225.051425 59.532124 
L 225.204858 132.385877 
L 225.243216 136.802939 
L 225.35829 162.29105 
L 225.550081 162.29105 
L 225.741872 62.521697 
L 225.78023 61.435999 
L 225.818588 78.891756 
L 225.856946 59.984264 
L 225.97202 56.027541 
L 226.125453 134.117526 
L 226.163811 137.974214 
L 226.278886 162.29105 
L 228.311867 162.29105 
L 228.542016 60.99448 
L 228.580374 80.786484 
L 228.618732 62.618915 
L 228.733806 52.111156 
L 228.887239 132.104752 
L 228.925597 136.093803 
L 229.040671 162.29105 
L 229.232462 162.29105 
L 229.462611 58.077393 
L 229.500969 76.760103 
L 229.539327 57.935225 
L 229.654402 51.869259 
L 229.846192 136.702008 
L 229.961267 162.29105 
L 230.153057 162.29105 
L 230.383206 68.425896 
L 230.421564 82.782113 
L 230.459922 63.996967 
L 230.536639 59.717634 
L 230.574997 60.073259 
L 230.728429 137.339279 
L 230.766788 140.398467 
L 230.881862 162.29105 
L 231.073653 162.29105 
L 231.303801 65.05114 
L 231.34216 86.091905 
L 231.380518 67.291598 
L 231.495592 54.672938 
L 231.649025 132.438826 
L 231.687383 136.526967 
L 231.802457 162.29105 
L 231.994248 162.29105 
L 232.224397 56.106926 
L 232.262755 75.016762 
L 232.301113 54.016171 
L 232.416187 41.682509 
L 232.56962 131.972578 
L 232.607978 136.443719 
L 232.723053 162.29105 
L 234.756034 162.29105 
L 234.947824 53.010483 
L 234.986183 53.610267 
L 235.024541 74.002988 
L 235.062899 53.355916 
L 235.139615 46.494697 
L 235.177973 46.739356 
L 235.331406 130.225692 
L 235.369764 134.08435 
L 235.484838 162.29105 
L 235.676629 162.29105 
L 235.906778 70.298343 
L 235.945136 84.006529 
L 235.983494 67.528871 
L 236.098569 58.954407 
L 236.252001 134.513866 
L 236.290359 138.47293 
L 236.405434 162.29105 
L 236.597224 162.29105 
L 236.789015 82.415159 
L 236.827373 83.263605 
L 236.865731 102.725737 
L 236.904089 88.010645 
L 237.019164 64.816619 
L 237.172596 142.131375 
L 237.402745 162.29105 
L 237.51782 162.29105 
L 237.747968 76.510535 
L 237.786327 90.966049 
L 237.824685 73.099699 
L 237.939759 62.394294 
L 238.13155 139.600555 
L 238.246624 162.29105 
L 238.438415 162.29105 
L 238.668564 69.137575 
L 238.706922 85.611907 
L 238.74528 67.497058 
L 238.860354 58.122782 
L 239.013787 135.146622 
L 239.052145 137.550729 
L 239.167219 162.29105 
L 241.200201 162.29105 
L 241.43035 61.532692 
L 241.468708 78.505794 
L 241.507066 58.163754 
L 241.62214 48.268238 
L 241.775573 131.825171 
L 241.813931 135.288736 
L 241.929005 162.29105 
L 242.120796 162.29105 
L 242.350945 55.986599 
L 242.389303 75.412128 
L 242.427661 53.435301 
L 242.542736 44.145586 
L 242.696168 130.200155 
L 242.734526 133.189365 
L 242.849601 162.29105 
L 243.041391 162.29105 
L 243.233182 56.58153 
L 243.27154 54.736771 
L 243.309898 73.116824 
L 243.348256 52.14789 
L 243.424973 44.263787 
L 243.463331 48.426579 
L 243.616763 134.082114 
L 243.655121 136.588678 
L 243.770196 162.29105 
L 243.961987 162.29105 
L 244.192135 58.500128 
L 244.230494 78.185679 
L 244.268852 57.606756 
L 244.345568 52.461135 
L 244.383926 53.214568 
L 244.537359 134.36859 
L 244.575717 137.061039 
L 244.690791 162.29105 
L 244.882582 162.29105 
L 245.112731 57.920991 
L 245.151089 78.402343 
L 245.189447 60.710751 
L 245.304521 56.458486 
L 245.496312 137.487773 
L 245.611386 162.29105 
L 247.644368 162.29105 
L 247.721084 147.902285 
L 247.874517 71.839934 
L 247.912875 93.649693 
L 247.951233 69.338911 
L 248.066307 60.103646 
L 248.21974 140.99981 
L 248.258098 144.070935 
L 248.373172 162.29105 
L 248.564963 162.29105 
L 248.795112 70.224284 
L 248.83347 88.846953 
L 248.871828 70.112714 
L 248.948544 64.540129 
L 248.986902 65.61456 
L 249.140335 140.078101 
L 249.178693 143.197305 
L 249.293768 162.29105 
L 249.485558 162.29105 
L 249.715707 75.796679 
L 249.754065 92.080304 
L 249.792423 74.577656 
L 249.907498 65.059073 
L 250.06093 139.400389 
L 250.099288 142.635159 
L 250.214363 162.29105 
L 250.406154 162.29105 
L 250.636302 75.242688 
L 250.67466 88.746606 
L 250.713019 69.292498 
L 250.828093 55.782112 
L 250.981526 136.455236 
L 251.019884 139.348462 
L 251.134958 162.29105 
L 251.326749 162.29105 
L 251.556898 64.807525 
L 251.595256 83.662514 
L 251.633614 64.842432 
L 251.748688 53.411196 
L 251.902121 133.593413 
L 251.940479 136.7164 
L 252.055553 162.29105 
L 254.088535 162.29105 
L 254.318683 87.717399 
L 254.357042 98.103249 
L 254.3954 85.915509 
L 254.433758 84.606407 
L 254.472116 85.728328 
L 254.510474 89.67517 
L 254.663907 146.058387 
L 254.702265 148.454022 
L 254.817339 162.29105 
L 255.00913 162.29105 
L 255.392711 83.598239 
L 255.431069 84.109803 
L 255.584502 147.602528 
L 255.62286 149.894509 
L 255.737935 162.29105 
L 255.929725 162.29105 
L 256.274948 96.15981 
L 256.313307 96.650488 
L 256.351665 96.97953 
L 256.505097 148.805866 
L 256.543455 150.778688 
L 256.65853 162.29105 
L 256.85032 162.29105 
L 256.927037 154.276487 
L 257.080469 108.740474 
L 257.118827 119.635215 
L 257.157186 106.990498 
L 257.27226 102.558238 
L 257.425693 153.995294 
L 257.464051 155.22361 
L 257.579125 162.29105 
L 257.847632 162.280207 
L 258.001065 96.676038 
L 258.039423 107.610935 
L 258.077781 91.176027 
L 258.116139 89.391596 
L 258.154497 89.885146 
L 258.192855 91.227904 
L 258.346288 151.234723 
L 258.384646 152.089784 
L 258.49972 162.29105 
L 260.532702 162.29105 
L 260.916283 87.841393 
L 260.954641 88.476422 
L 261.108074 147.177402 
L 261.146432 149.28765 
L 261.261506 162.29105 
L 261.453297 162.29105 
L 261.875236 76.390682 
L 262.028669 143.196384 
L 262.067027 145.845573 
L 262.182101 162.29105 
L 262.373892 162.29105 
L 262.565683 100.418564 
L 262.642399 101.039891 
L 262.757474 78.223208 
L 262.795832 75.828957 
L 262.949264 142.908244 
L 262.987622 145.698458 
L 263.102697 162.29105 
L 263.294487 162.29105 
L 263.678069 73.973848 
L 263.716427 75.093647 
L 263.86986 142.494796 
L 263.908218 144.763109 
L 264.023292 162.29105 
L 264.215083 162.29105 
L 264.637022 67.81414 
L 264.790455 139.465182 
L 264.828813 142.316149 
L 264.943887 162.29105 
L 267.897464 162.29105 
L 268.089255 87.63392 
L 268.127613 85.227719 
L 268.165971 101.852163 
L 268.242687 88.469856 
L 268.319403 89.590369 
L 268.472836 147.771799 
L 268.511194 149.919089 
L 268.626268 162.29105 
L 268.818059 162.29105 
L 268.894775 154.42029 
L 269.048208 101.186134 
L 269.086566 114.180751 
L 269.124924 100.067011 
L 269.20164 95.101262 
L 269.239999 95.259931 
L 269.393431 153.782118 
L 269.431789 155.224488 
L 269.546864 162.29105 
L 269.815371 162.29105 
L 269.968803 94.409415 
L 270.007161 104.849701 
L 270.04552 86.382122 
L 270.160594 72.802007 
L 270.314026 143.996106 
L 270.352385 145.898657 
L 270.467459 162.29105 
L 270.65925 162.29105 
L 270.966115 68.943638 
L 271.081189 59.96739 
L 271.234622 138.568573 
L 271.27298 141.173421 
L 271.388054 162.29105 
L 273.421036 162.29105 
L 273.651184 83.589725 
L 273.689542 95.353185 
L 273.766259 91.553083 
L 273.842975 97.043634 
L 273.996408 147.664989 
L 274.034766 150.06899 
L 274.14984 162.29105 
L 274.341631 162.29105 
L 274.418347 157.027218 
L 274.57178 101.290393 
L 274.610138 108.602086 
L 274.648496 97.429605 
L 274.725212 95.831313 
L 274.76357 97.779335 
L 274.917003 150.579807 
L 274.955361 152.385868 
L 275.070435 162.29105 
L 275.262226 162.29105 
L 275.338942 158.217282 
L 275.492375 96.136346 
L 275.530733 105.863148 
L 275.569091 89.153662 
L 275.645807 81.4119 
L 275.684166 85.180814 
L 275.837598 146.957359 
L 275.875956 148.370371 
L 275.991031 162.29105 
L 276.182821 162.29105 
L 276.528045 85.557749 
L 276.566403 85.685813 
L 276.604761 86.717256 
L 276.758193 145.714814 
L 276.796552 147.590292 
L 276.911626 162.29105 
L 277.103417 162.29105 
L 277.180133 154.689161 
L 277.333565 96.81685 
L 277.371924 105.995527 
L 277.410282 91.400642 
L 277.486998 82.152685 
L 277.525356 82.299979 
L 277.678789 145.691484 
L 277.717147 147.770212 
L 277.832221 162.29105 
L 279.865202 162.29105 
L 279.941919 158.293571 
L 280.095351 100.085119 
L 280.133709 108.509388 
L 280.172068 96.015153 
L 280.287142 86.234143 
L 280.440575 146.087089 
L 280.478933 148.141909 
L 280.594007 162.29105 
L 280.785798 162.29105 
L 280.862514 155.503118 
L 281.015947 97.193387 
L 281.054305 105.315443 
L 281.092663 93.48781 
L 281.169379 87.491703 
L 281.207737 88.540944 
L 281.36117 147.556234 
L 281.399528 149.669951 
L 281.514602 162.29105 
L 281.706393 162.29105 
L 281.783109 158.106315 
L 281.936542 105.174157 
L 281.9749 113.538265 
L 282.013258 106.224881 
L 282.089974 102.56076 
L 282.128333 102.957085 
L 282.320123 152.996475 
L 282.435198 162.29105 
L 282.626988 162.29105 
L 282.703705 161.382439 
L 282.857137 108.776721 
L 282.895495 113.668776 
L 283.01057 98.408635 
L 283.048928 99.718688 
L 283.240719 153.877537 
L 283.355793 162.29105 
L 283.547584 162.29105 
L 283.6243 161.628747 
L 283.777732 114.313999 
L 283.816091 119.182658 
L 283.854449 122.095509 
L 283.931165 103.498936 
L 283.969523 104.86622 
L 284.122956 153.718252 
L 284.161314 155.360525 
L 284.276388 162.29105 
L 286.386086 162.29105 
L 286.539518 127.113866 
L 286.577876 132.094504 
L 286.616235 124.698849 
L 286.654593 122.959817 
L 286.731309 123.090811 
L 286.884741 159.632153 
L 287.038174 162.29105 
L 287.306681 162.29105 
L 287.460114 130.501066 
L 287.498472 134.538612 
L 287.613546 116.45445 
L 287.651904 117.790082 
L 287.805337 159.591189 
L 287.958769 162.29105 
L 288.227276 162.29105 
L 288.380709 124.431332 
L 288.419067 132.722221 
L 288.457425 125.145584 
L 288.495783 123.080997 
L 288.5725 124.122542 
L 288.725932 161.868327 
L 288.841006 162.29105 
L 289.147872 162.29105 
L 289.37802 120.010821 
L 289.454737 116.813863 
L 289.493095 121.628833 
L 289.646527 159.137364 
L 289.684885 159.648377 
L 289.79996 162.29105 
L 290.068467 162.29105 
L 290.145183 149.199108 
L 290.336974 120.643713 
L 290.41369 123.611882 
L 290.567123 158.517803 
L 290.758913 162.29105 
L 376.335916 162.29105 
L 376.335916 162.29105 
" clip-path="url(#p77c3da1cd9)" style="fill: none; stroke: #228be6; stroke-opacity: 0.5; stroke-width: 0.8; stroke-linecap: square"/>
   </g>
   <g id="line2d_2">
    <path d="M 40.356997 162.29105 
L 41.239234 162.29105 
L 41.354309 160.642867 
L 41.392667 161.620499 
L 41.431025 161.647597 
L 41.469383 160.672054 
L 41.546099 33.850609 
L 41.584458 70.158236 
L 41.73789 121.16952 
L 41.776248 118.484591 
L 41.814606 118.675491 
L 41.968039 125.778706 
L 42.083113 124.738482 
L 42.198188 162.29105 
L 42.389978 162.29105 
L 42.466695 83.409855 
L 42.505053 99.213041 
L 42.658485 145.435125 
L 42.735202 143.887187 
L 42.77356 142.663113 
L 42.926992 132.330184 
L 43.003709 130.428174 
L 43.118783 162.29105 
L 43.310574 162.29105 
L 43.38729 77.437491 
L 43.425648 85.781247 
L 43.579081 141.77601 
L 43.617439 137.602253 
L 43.655797 142.566342 
L 43.694155 141.888305 
L 43.847588 132.827922 
L 43.924304 131.354783 
L 44.039378 162.29105 
L 44.231169 162.29105 
L 44.307885 85.959927 
L 44.346243 96.914709 
L 44.576392 145.077931 
L 44.61475 144.614607 
L 44.806541 131.427388 
L 44.844899 130.313562 
L 44.959974 162.29105 
L 45.151764 162.29105 
L 45.228481 84.018387 
L 45.266839 93.64199 
L 45.496988 145.763552 
L 45.535346 146.248366 
L 45.765494 131.820316 
L 45.880569 162.29105 
L 47.91355 162.29105 
L 47.990266 56.90875 
L 48.028625 82.1743 
L 48.182057 141.051134 
L 48.220415 138.315063 
L 48.258773 140.828612 
L 48.297131 138.571161 
L 48.450564 129.482197 
L 48.52728 127.868789 
L 48.642355 162.29105 
L 48.834145 162.29105 
L 48.910862 74.280323 
L 48.94922 82.43648 
L 49.102652 139.520732 
L 49.141011 132.240965 
L 49.179369 135.661441 
L 49.217727 134.41941 
L 49.256085 127.351211 
L 49.332801 131.310023 
L 49.447876 126.561414 
L 49.56295 162.29105 
L 49.754741 162.29105 
L 49.831457 68.23616 
L 49.869815 75.162465 
L 50.023248 137.476665 
L 50.061606 131.343781 
L 50.17668 123.421534 
L 50.215038 130.158866 
L 50.291755 128.17553 
L 50.330113 128.233205 
L 50.368471 127.378856 
L 50.483545 162.29105 
L 50.675336 162.29105 
L 50.752052 79.595296 
L 50.79041 90.56878 
L 50.943843 121.709951 
L 51.097275 103.900483 
L 51.173992 119.447178 
L 51.21235 116.913902 
L 51.250708 116.853832 
L 51.289066 115.740617 
L 51.404141 162.29105 
L 51.595931 162.29105 
L 51.672648 52.165055 
L 51.711006 59.986408 
L 51.864438 123.723955 
L 51.902796 107.996226 
L 51.941154 108.256338 
L 52.017871 103.321933 
L 52.094587 119.152383 
L 52.132945 117.119081 
L 52.171303 117.61881 
L 52.209661 116.763533 
L 52.324736 162.29105 
L 54.894731 162.29105 
L 54.933089 161.74965 
L 54.971447 162.29105 
L 55.201596 162.272679 
L 55.278312 162.130393 
L 55.355029 34.153178 
L 55.393387 67.055746 
L 55.546819 129.465864 
L 55.585177 123.333077 
L 55.623536 127.437108 
L 55.661894 127.310006 
L 55.700252 123.376184 
L 55.73861 128.152342 
L 55.776968 126.741384 
L 55.892043 124.932305 
L 56.007117 162.29105 
L 56.198908 162.29105 
L 56.275624 79.647124 
L 56.313982 91.350524 
L 56.467415 129.260995 
L 56.505773 120.719768 
L 56.659205 128.871166 
L 56.697563 127.791061 
L 56.812638 124.710502 
L 56.927712 162.29105 
L 57.119503 162.29105 
L 57.196219 69.734761 
L 57.234577 80.394894 
L 57.38801 137.394242 
L 57.426368 130.246936 
L 57.464726 134.309082 
L 57.503084 134.276146 
L 57.579801 134.870853 
L 57.656517 129.103008 
L 57.733233 127.717661 
L 57.848308 162.29105 
L 58.040098 162.29105 
L 58.116814 75.618983 
L 58.155173 90.800809 
L 58.308605 141.178888 
L 58.346963 135.243592 
L 58.42368 140.088735 
L 58.462038 136.943465 
L 58.500396 138.66369 
L 58.653828 129.324215 
L 58.768903 162.29105 
L 60.801884 162.29105 
L 60.8786 44.431701 
L 60.916958 79.097305 
L 61.070391 121.982563 
L 61.108749 116.496168 
L 61.262182 126.323331 
L 61.30054 124.925297 
L 61.415614 122.314731 
L 61.530689 162.29105 
L 61.722479 162.29105 
L 61.799196 72.151414 
L 61.837554 83.394111 
L 61.990986 134.153218 
L 62.029344 121.732683 
L 62.067703 122.508322 
L 62.106061 121.69397 
L 62.144419 118.797687 
L 62.182777 127.853804 
L 62.259493 124.88866 
L 62.297851 124.866383 
L 62.33621 123.801151 
L 62.451284 162.29105 
L 62.643075 162.29105 
L 62.719791 67.583465 
L 62.758149 77.668607 
L 62.911582 133.428779 
L 62.94994 123.452572 
L 62.988298 128.341721 
L 63.026656 127.273891 
L 63.065014 123.364949 
L 63.103372 130.696596 
L 63.256805 123.94059 
L 63.371879 162.29105 
L 63.56367 162.29105 
L 63.640386 69.552771 
L 63.678744 78.762813 
L 63.832177 138.473344 
L 63.870535 129.85765 
L 63.908893 131.7708 
L 63.947251 129.871221 
L 63.985609 126.558652 
L 64.023968 131.996973 
L 64.1774 127.335832 
L 64.292474 162.29105 
L 64.484265 162.29105 
L 64.560981 73.654625 
L 64.59934 83.385077 
L 64.752772 141.383285 
L 64.79113 136.752637 
L 64.867847 143.081757 
L 64.906205 141.31249 
L 64.944563 140.687259 
L 65.097995 130.686333 
L 65.21307 162.29105 
L 67.246051 162.29105 
L 67.322767 51.45654 
L 67.361125 74.597641 
L 67.514558 135.198109 
L 67.552916 129.785512 
L 67.629632 135.987509 
L 67.667991 131.78094 
L 67.706349 134.752722 
L 67.744707 132.084035 
L 67.859781 127.5657 
L 67.974856 162.29105 
L 68.166646 162.29105 
L 68.243363 74.687012 
L 68.281721 82.540185 
L 68.435153 137.526621 
L 68.473511 129.266677 
L 68.51187 133.552144 
L 68.550228 133.467118 
L 68.588586 128.506697 
L 68.626944 133.811598 
L 68.665302 131.824961 
L 68.780376 127.275608 
L 68.895451 162.29105 
L 69.087242 162.29105 
L 69.163958 79.440321 
L 69.202316 92.743566 
L 69.355749 141.953607 
L 69.394107 136.556461 
L 69.470823 141.38697 
L 69.509181 137.803527 
L 69.547539 139.295004 
L 69.585897 136.496809 
L 69.700972 132.104315 
L 69.816046 162.29105 
L 70.007837 162.29105 
L 70.084553 82.792201 
L 70.122911 94.752019 
L 70.276344 144.006181 
L 70.314702 140.279953 
L 70.391418 147.148158 
L 70.429776 146.590642 
L 70.621567 134.130964 
L 70.736641 162.29105 
L 70.928432 162.29105 
L 71.005148 82.883439 
L 71.043507 90.769158 
L 71.196939 143.339943 
L 71.235297 140.088005 
L 71.312013 146.789486 
L 71.350372 144.417821 
L 71.542162 133.458815 
L 71.657237 162.29105 
L 73.690218 162.29105 
L 73.766934 83.547033 
L 73.805292 107.581952 
L 73.958725 159.236656 
L 74.073799 162.29105 
L 74.112157 162.261925 
L 74.303948 147.742603 
L 74.419023 162.29105 
L 74.610813 162.29105 
L 74.68753 110.321945 
L 74.725888 115.389914 
L 74.87932 150.514799 
L 74.917678 143.082877 
L 74.956036 145.257058 
L 74.994395 145.130782 
L 75.071111 145.178166 
L 75.186185 138.397761 
L 75.224543 136.665216 
L 75.339618 162.29105 
L 75.531409 162.29105 
L 75.608125 86.889853 
L 75.646483 94.98063 
L 75.799915 143.845762 
L 75.838274 137.735478 
L 75.876632 139.607261 
L 75.953348 130.914582 
L 75.991706 137.083531 
L 76.145139 131.807725 
L 76.260213 162.29105 
L 76.452004 162.29105 
L 76.52872 82.935672 
L 76.567078 96.049323 
L 76.720511 143.757032 
L 76.758869 137.968919 
L 76.835585 142.071299 
L 76.873943 139.174571 
L 76.912301 141.214969 
L 76.95066 138.265744 
L 77.065734 132.828605 
L 77.180808 162.29105 
L 77.372599 162.29105 
L 77.449315 81.18192 
L 77.487673 85.854794 
L 77.641106 144.610445 
L 77.679464 141.671059 
L 77.75618 148.730165 
L 77.794539 147.613701 
L 77.986329 135.532726 
L 78.101404 162.29105 
L 80.134385 162.29105 
L 80.211101 53.676307 
L 80.249459 80.246805 
L 80.402892 142.291726 
L 80.44125 141.532092 
L 80.479608 147.016194 
L 80.556324 142.649206 
L 80.748115 133.599521 
L 80.86319 162.29105 
L 81.05498 162.29105 
L 81.131696 88.110723 
L 81.170055 102.469047 
L 81.323487 151.018256 
L 81.361845 149.172049 
L 81.438562 155.821418 
L 81.47692 155.765684 
L 81.66871 138.607214 
L 81.783785 162.29105 
L 81.975575 162.29105 
L 82.052292 92.11115 
L 82.09065 96.45525 
L 82.320799 140.276249 
L 82.397515 141.668913 
L 82.435873 140.770598 
L 82.589306 132.429543 
L 82.70438 162.29105 
L 82.896171 162.29105 
L 82.972887 97.731184 
L 83.011245 115.947986 
L 83.164678 146.369798 
L 83.203036 144.726127 
L 83.241394 144.251874 
L 83.279752 146.206373 
L 83.31811 145.891896 
L 83.471543 133.881673 
L 83.509901 134.761803 
L 83.624975 162.29105 
L 83.816766 162.29105 
L 83.893482 97.315359 
L 83.93184 112.826969 
L 84.085273 152.241447 
L 84.123631 149.124748 
L 84.161989 152.546236 
L 84.200347 152.542399 
L 84.430496 138.410038 
L 84.545571 162.29105 
L 87.499147 162.29105 
L 87.575863 69.089946 
L 87.614222 99.564504 
L 87.767654 132.634716 
L 87.806012 128.505169 
L 87.84437 131.04117 
L 87.921087 139.788847 
L 87.959445 139.784833 
L 88.112877 131.565379 
L 88.227952 162.29105 
L 88.419742 162.29105 
L 88.496459 91.502952 
L 88.534817 104.084575 
L 88.688249 138.651469 
L 88.764966 127.273116 
L 88.803324 129.868376 
L 88.841682 129.602671 
L 88.88004 136.490854 
L 88.918398 133.205076 
L 89.033473 127.673726 
L 89.148547 162.29105 
L 89.340338 162.29105 
L 89.417054 74.845625 
L 89.455412 85.319258 
L 89.608845 124.448627 
L 89.647203 113.35209 
L 89.762277 118.584116 
L 89.800635 128.017241 
L 89.877352 122.472511 
L 89.954068 121.340535 
L 90.069142 162.29105 
L 90.260933 162.29105 
L 90.337649 67.359955 
L 90.376007 85.226211 
L 90.52944 135.070528 
L 90.567798 124.814201 
L 90.721231 135.200251 
L 90.874663 126.660025 
L 90.989738 162.29105 
L 93.022719 162.29105 
L 93.099435 47.735247 
L 93.137793 73.548297 
L 93.291226 123.01603 
L 93.329584 117.003867 
L 93.483016 128.136358 
L 93.521375 126.253556 
L 93.636449 123.526366 
L 93.751523 162.29105 
L 93.943314 162.29105 
L 94.02003 80.619455 
L 94.058389 102.329413 
L 94.211821 144.316338 
L 94.250179 135.910203 
L 94.288537 137.556435 
L 94.326895 137.124684 
L 94.403612 139.197 
L 94.480328 132.378915 
L 94.557044 131.053522 
L 94.672119 162.29105 
L 94.863909 162.29105 
L 94.940626 87.344047 
L 94.978984 106.308415 
L 95.132416 148.809334 
L 95.170774 146.405349 
L 95.209133 149.246826 
L 95.285849 147.638837 
L 95.324207 147.825061 
L 95.47764 135.944618 
L 95.592714 162.29105 
L 95.784505 162.29105 
L 95.861221 91.015953 
L 95.899579 106.853297 
L 96.053012 153.372253 
L 96.09137 150.876438 
L 96.168086 155.228756 
L 96.206444 155.072026 
L 96.244802 153.91894 
L 96.398235 140.392646 
L 96.513309 162.29105 
L 96.7051 162.29105 
L 96.781816 101.631745 
L 96.820174 114.353556 
L 96.973607 153.512172 
L 97.011965 149.33337 
L 97.088681 150.037987 
L 97.127039 149.601755 
L 97.165398 150.945534 
L 97.31883 139.47578 
L 97.433905 162.29105 
L 99.466886 162.29105 
L 99.543602 72.733743 
L 99.58196 96.768342 
L 99.773751 152.791686 
L 99.812109 157.826764 
L 99.888825 157.47027 
L 100.080616 143.353669 
L 100.19569 162.29105 
L 100.387481 162.29105 
L 100.464197 110.124813 
L 100.502555 127.716499 
L 100.655988 161.376619 
L 100.809421 162.29105 
L 100.886137 158.548842 
L 101.001211 152.416621 
L 101.116286 162.29105 
L 101.308076 162.29105 
L 101.384793 119.900966 
L 101.423151 131.335694 
L 101.576583 162.29105 
L 101.768374 162.225638 
L 101.921807 155.498899 
L 102.036881 162.29105 
L 102.228672 162.29105 
L 102.305388 133.606433 
L 102.343746 146.985152 
L 102.497179 160.757649 
L 102.727327 149.050677 
L 102.804044 143.20644 
L 102.842402 143.742769 
L 102.957476 162.29105 
L 103.149267 162.29105 
L 103.225983 109.593397 
L 103.264341 127.865465 
L 103.417774 158.588257 
L 103.456132 155.198777 
L 103.532848 157.166904 
L 103.571206 156.35348 
L 103.609565 156.98787 
L 103.762997 144.666165 
L 103.878072 162.29105 
L 105.872695 162.29105 
L 105.949411 82.705826 
L 105.987769 106.588495 
L 106.141202 153.582175 
L 106.17956 152.552386 
L 106.256276 159.721148 
L 106.332992 157.440241 
L 106.486425 145.975499 
L 106.601499 162.29105 
L 106.79329 162.29105 
L 106.870006 111.159133 
L 106.908364 119.16371 
L 107.176871 161.955625 
L 107.215229 162.108971 
L 107.40702 145.0823 
L 107.522094 162.29105 
L 107.713885 162.29105 
L 107.790601 110.326761 
L 107.82896 122.151347 
L 108.02075 162.29105 
L 108.097467 162.29105 
L 108.135825 162.158382 
L 108.327615 143.715553 
L 108.44269 162.29105 
L 108.63448 162.29105 
L 108.711197 123.524309 
L 108.749555 140.346744 
L 108.902987 155.750244 
L 108.941346 153.101595 
L 108.979704 154.733882 
L 109.05642 153.892204 
L 109.248211 141.140409 
L 109.363285 162.29105 
L 109.555076 162.29105 
L 109.631792 100.280141 
L 109.67015 107.218804 
L 109.938657 137.62871 
L 109.977015 135.696964 
L 110.015373 140.13535 
L 110.053732 136.561084 
L 110.168806 129.923689 
L 110.28388 162.29105 
L 112.316862 162.29105 
L 112.393578 84.894271 
L 112.431936 110.583558 
L 112.623727 158.614986 
L 112.738801 161.948949 
L 112.930592 149.490672 
L 113.045666 162.29105 
L 113.237457 162.29105 
L 113.314173 128.189637 
L 113.352531 143.929355 
L 113.505964 162.29105 
L 113.736113 162.233797 
L 113.851187 158.512369 
L 113.966261 162.29105 
L 114.158052 162.29105 
L 114.234768 142.604422 
L 114.273127 156.485148 
L 114.426559 162.29105 
L 114.656708 162.29105 
L 114.733424 160.24538 
L 114.771782 158.675044 
L 114.886857 162.29105 
L 115.078647 162.29105 
L 115.155364 138.40048 
L 115.193722 152.209783 
L 115.347154 162.29105 
L 115.577303 162.29105 
L 115.654019 158.748162 
L 115.692378 156.993465 
L 115.807452 162.29105 
L 115.999243 162.29105 
L 116.075959 134.877101 
L 116.114317 148.393768 
L 116.306108 162.29105 
L 116.421182 162.29105 
L 116.612973 147.824153 
L 116.728047 162.29105 
L 118.761029 162.29105 
L 118.837745 84.375281 
L 118.876103 110.455478 
L 119.067894 157.627819 
L 119.182968 160.353162 
L 119.336401 147.787141 
L 119.374759 145.400185 
L 119.489833 162.29105 
L 119.681624 162.29105 
L 119.75834 109.339605 
L 119.796698 121.473536 
L 119.988489 161.042467 
L 120.103563 162.29105 
L 120.18028 157.100443 
L 120.295354 149.237523 
L 120.410428 162.29105 
L 120.602219 162.29105 
L 120.678935 123.040438 
L 120.717294 136.305316 
L 120.909084 162.29105 
L 121.062517 162.29105 
L 121.100875 161.792375 
L 121.215949 153.680469 
L 121.331024 162.29105 
L 121.522814 162.29105 
L 121.599531 132.006693 
L 121.637889 145.99777 
L 121.829679 162.29105 
L 121.983112 162.29105 
L 122.059828 156.624249 
L 122.136545 149.945636 
L 122.251619 162.29105 
L 122.44341 162.29105 
L 122.520126 116.976055 
L 122.558484 124.860553 
L 122.711917 155.427043 
L 122.788633 150.561165 
L 122.826991 146.226103 
L 122.865349 149.968366 
L 122.903707 152.385891 
L 122.942065 148.850349 
L 123.05714 138.941945 
L 123.172214 162.29105 
L 292.753536 162.29105 
L 292.830253 157.036174 
L 292.945327 162.29105 
L 293.328908 162.29105 
L 293.367267 162.128637 
L 293.405625 162.29105 
L 293.674132 162.29105 
L 293.750848 149.180982 
L 293.865922 162.29105 
L 294.594727 162.29105 
L 294.671443 154.398989 
L 294.786518 162.29105 
L 295.515322 162.29105 
L 295.592039 154.845633 
L 295.707113 162.29105 
L 296.435918 162.29105 
L 296.512634 159.29829 
L 296.627708 162.29105 
L 296.972931 162.29105 
L 297.049648 159.192062 
L 297.164722 162.29105 
L 300.118299 162.29105 
L 300.195015 125.726287 
L 300.233373 145.143059 
L 300.386806 162.29105 
L 300.578596 162.29105 
L 300.655313 160.210175 
L 300.732029 156.618419 
L 300.847103 162.29105 
L 301.038894 162.29105 
L 301.11561 132.769892 
L 301.153968 149.565692 
L 301.307401 162.29105 
L 301.575908 162.29105 
L 301.652624 161.534432 
L 301.767699 162.29105 
L 301.959489 162.29105 
L 302.036205 152.777958 
L 302.15128 162.29105 
L 302.880084 162.29105 
L 302.956801 150.156386 
L 303.071875 162.29105 
L 305.64187 162.29105 
L 305.718587 136.596027 
L 305.756945 152.544985 
L 305.910377 162.29105 
L 306.102168 162.29105 
L 306.178884 160.835652 
L 306.255601 158.625271 
L 306.370675 162.29105 
L 306.562466 162.29105 
L 306.639182 135.50002 
L 306.67754 147.501306 
L 306.830973 162.29105 
L 307.022763 162.29105 
L 307.137838 159.168968 
L 307.176196 158.183885 
L 307.29127 162.29105 
L 307.483061 162.29105 
L 307.559777 141.056775 
L 307.598135 156.806516 
L 307.71321 162.29105 
L 307.943359 162.29105 
L 308.096791 155.163628 
L 308.211865 162.29105 
L 308.403656 162.29105 
L 308.480372 133.927071 
L 308.518731 152.069734 
L 308.672163 162.29105 
L 308.902312 162.29105 
L 309.017386 159.108263 
L 309.132461 162.29105 
L 309.324251 162.29105 
L 309.400968 137.151792 
L 309.439326 149.703464 
L 309.592758 162.29105 
L 309.822907 162.29105 
L 309.937982 160.737535 
L 310.053056 162.29105 
L 312.086037 162.29105 
L 312.162754 138.613084 
L 312.201112 155.512347 
L 312.354544 162.29105 
L 312.623051 162.209276 
L 312.699767 161.366995 
L 312.814842 162.29105 
L 313.006633 162.29105 
L 313.083349 152.593885 
L 313.198423 162.29105 
L 313.927228 162.29105 
L 313.965586 160.100857 
L 314.003944 160.325602 
L 314.119019 162.29105 
L 314.464242 162.290576 
L 314.540958 160.723722 
L 314.656032 162.29105 
L 314.847823 162.29105 
L 314.924539 135.228154 
L 314.962898 142.904079 
L 315.11633 162.29105 
L 315.154688 162.084817 
L 315.269763 162.29105 
L 315.308121 161.82702 
L 315.461553 152.989892 
L 315.576628 162.29105 
L 315.768418 162.29105 
L 315.845135 118.427022 
L 315.883493 126.44645 
L 316.075283 162.194824 
L 316.190358 162.29105 
L 316.228716 161.610791 
L 316.382149 153.096233 
L 316.497223 162.29105 
L 318.530204 162.29105 
L 318.606921 131.598775 
L 318.645279 150.676441 
L 318.798711 162.29105 
L 319.02886 162.29105 
L 319.143934 160.692587 
L 319.259009 162.29105 
L 319.4508 162.29105 
L 319.527516 151.702443 
L 319.64259 162.29105 
L 319.911097 162.29105 
L 320.06453 154.781636 
L 320.179604 162.29105 
L 320.371395 162.29105 
L 320.448111 130.778232 
L 320.486469 145.267835 
L 320.639902 162.29105 
L 320.831692 162.29105 
L 320.985125 154.399885 
L 321.100199 162.29105 
L 321.29199 162.29105 
L 321.368706 126.884698 
L 321.407064 138.853896 
L 321.560497 162.29105 
L 321.71393 162.255976 
L 321.90572 148.440891 
L 322.020795 162.29105 
L 322.212585 162.29105 
L 322.289302 112.194028 
L 322.32766 121.697324 
L 322.51945 162.215851 
L 322.634525 162.29105 
L 322.672883 161.587885 
L 322.826316 150.188948 
L 322.94139 162.29105 
L 325.012729 162.29105 
L 325.089446 110.423339 
L 325.127804 137.561499 
L 325.281236 162.29105 
L 325.473027 162.29105 
L 325.62646 156.356971 
L 325.741534 162.29105 
L 325.933325 162.29105 
L 326.010041 141.186691 
L 326.048399 159.713396 
L 326.163473 162.29105 
L 326.43198 162.29105 
L 326.547055 160.85016 
L 326.662129 162.29105 
L 326.85392 162.29105 
L 326.930636 148.829885 
L 326.968994 160.359974 
L 327.084069 162.29105 
L 327.352576 162.29105 
L 327.46765 160.153608 
L 327.582724 162.29105 
L 327.774515 162.29105 
L 327.851231 137.9425 
L 327.88959 151.742446 
L 328.043022 162.29105 
L 328.234813 162.29105 
L 328.388245 157.729769 
L 328.50332 162.29105 
L 328.69511 162.29105 
L 328.771827 138.733981 
L 328.810185 151.642465 
L 328.963617 162.29105 
L 329.001976 162.193748 
L 329.078692 162.29105 
L 329.11705 162.29105 
L 329.308841 150.738473 
L 329.423915 162.29105 
L 331.456896 162.29105 
L 331.533613 87.481014 
L 331.571971 110.817269 
L 331.763761 152.855716 
L 331.840478 157.408533 
L 331.878836 156.647822 
L 332.070626 138.276734 
L 332.185701 162.29105 
L 332.377492 162.29105 
L 332.454208 105.162712 
L 332.492566 126.929878 
L 332.645999 161.930396 
L 332.761073 162.29105 
L 332.799431 162.29105 
L 332.991222 148.632998 
L 333.106296 162.29105 
L 333.298087 162.29105 
L 333.374803 123.115535 
L 333.413161 138.079668 
L 333.566594 157.066667 
L 333.64331 154.910389 
L 333.681668 155.999455 
L 333.720026 155.333047 
L 333.911817 141.701081 
L 334.026891 162.29105 
L 334.218682 162.29105 
L 334.295398 108.544774 
L 334.333757 122.558038 
L 334.525547 162.064216 
L 334.640622 162.29105 
L 334.832412 148.939268 
L 334.947487 162.29105 
L 335.139277 162.29105 
L 335.215994 120.137884 
L 335.254352 130.789768 
L 335.446143 162.29105 
L 335.561217 162.29105 
L 335.753008 148.357098 
L 335.868082 162.29105 
L 337.901063 162.29105 
L 337.97778 67.96379 
L 338.016138 98.336652 
L 338.207928 148.362575 
L 338.284645 153.485418 
L 338.323003 151.648122 
L 338.514793 138.648881 
L 338.629868 162.29105 
L 338.821659 162.29105 
L 338.898375 99.715211 
L 338.936733 112.597019 
L 339.090165 155.360489 
L 339.128524 155.142805 
L 339.166882 157.765266 
L 339.20524 156.945082 
L 339.435389 141.947976 
L 339.550463 162.29105 
L 339.742254 162.29105 
L 339.81897 102.148507 
L 339.857328 118.324643 
L 340.049119 160.240405 
L 340.087477 161.509278 
L 340.125835 161.279941 
L 340.164193 160.315803 
L 340.355984 145.442213 
L 340.471058 162.29105 
L 341.583444 162.29105 
L 341.660161 92.70874 
L 341.698519 117.392131 
L 341.890309 152.197493 
L 341.928668 155.444391 
L 341.967026 154.76565 
L 342.197175 138.694854 
L 342.312249 162.29105 
L 344.34523 162.29105 
L 344.421946 70.913362 
L 344.460305 97.667713 
L 344.613737 143.023076 
L 344.652095 140.126028 
L 344.690453 144.122659 
L 344.728812 143.817631 
L 344.882244 135.490658 
L 344.95896 133.639312 
L 345.074035 162.29105 
L 345.265825 162.29105 
L 345.342542 88.170513 
L 345.3809 104.320052 
L 345.534332 148.964083 
L 345.572691 147.418706 
L 345.611049 151.538738 
L 345.649407 150.899979 
L 345.879556 136.178532 
L 345.99463 162.29105 
L 346.186421 162.29105 
L 346.263137 90.478928 
L 346.301495 105.096843 
L 346.454928 150.700484 
L 346.493286 150.451746 
L 346.531644 155.144744 
L 346.60836 153.25221 
L 346.800151 139.043326 
L 346.915225 162.29105 
L 347.107016 162.29105 
L 347.183732 100.872701 
L 347.22209 116.761069 
L 347.375523 155.502032 
L 347.413881 154.936177 
L 347.452239 156.715526 
L 347.490597 156.152197 
L 347.567314 150.357108 
L 347.720746 142.08569 
L 347.835821 162.29105 
L 348.027611 162.29105 
L 348.104328 106.754467 
L 348.142686 117.319001 
L 348.296118 150.686876 
L 348.449551 136.506655 
L 348.487909 142.274584 
L 348.564625 137.783389 
L 348.641342 135.731337 
L 348.756416 162.29105 
L 350.789397 162.29105 
L 350.866113 54.21401 
L 350.904472 88.444501 
L 351.096262 143.693354 
L 351.172979 148.369346 
L 351.211337 145.578296 
L 351.403127 134.93181 
L 351.518202 162.29105 
L 351.709992 162.29105 
L 351.786709 95.348499 
L 351.825067 108.557954 
L 352.016858 154.65224 
L 352.055216 157.991503 
L 352.131932 155.678682 
L 352.323723 140.6672 
L 352.438797 162.29105 
L 352.630588 162.29105 
L 352.707304 101.662418 
L 352.745662 115.26781 
L 352.899095 157.563662 
L 352.975811 160.560188 
L 353.052527 159.182645 
L 353.244318 144.798498 
L 353.359392 162.29105 
L 353.551183 162.29105 
L 353.627899 110.903831 
L 353.666257 125.242713 
L 353.81969 161.199744 
L 353.896406 162.29105 
L 353.934764 162.241375 
L 353.973123 161.671661 
L 354.164913 149.058919 
L 354.279988 162.29105 
L 354.471778 162.29105 
L 354.548495 119.737963 
L 354.586853 134.467239 
L 354.740285 162.131506 
L 354.85536 162.29105 
L 354.893718 162.29105 
L 355.085508 150.972077 
L 355.200583 162.29105 
L 357.233564 162.29105 
L 357.31028 92.551886 
L 357.348639 102.719233 
L 357.578787 141.738795 
L 357.847294 132.000682 
L 357.962369 162.29105 
L 358.154159 162.29105 
L 358.230876 87.364418 
L 358.269234 99.361564 
L 358.422666 141.071413 
L 358.461024 136.544656 
L 358.499383 140.508113 
L 358.537741 138.818191 
L 358.691173 133.325642 
L 358.76789 131.969486 
L 358.882964 162.29105 
L 359.074755 162.29105 
L 359.151471 85.74971 
L 359.189829 97.105198 
L 359.343262 140.201081 
L 359.38162 133.630033 
L 359.535052 136.514367 
L 359.650127 128.469225 
L 359.688485 130.252968 
L 359.803559 162.29105 
L 359.99535 162.29105 
L 360.072066 91.781204 
L 360.110424 109.202679 
L 360.340573 150.611297 
L 360.455648 140.116004 
L 360.60908 132.596574 
L 360.724155 162.29105 
L 360.915945 162.29105 
L 360.992662 84.371722 
L 361.03102 93.979078 
L 361.261168 141.142315 
L 361.529675 127.704703 
L 361.64475 162.29105 
L 363.447582 162.29105 
L 363.639373 160.212921 
L 363.677731 160.12939 
L 363.754447 28.23366 
L 363.792805 67.178898 
L 363.984596 125.37579 
L 364.022954 133.716758 
L 364.099671 127.994826 
L 364.138029 128.731071 
L 364.291461 124.858218 
L 364.406536 162.29105 
L 364.598326 162.29105 
L 364.675043 75.635724 
L 364.713401 90.039516 
L 364.866833 144.569779 
L 364.905191 141.211005 
L 364.94355 144.758461 
L 364.981908 144.198814 
L 365.173698 132.799513 
L 365.212057 131.86204 
L 365.327131 162.29105 
L 365.518922 162.29105 
L 365.595638 88.004724 
L 365.633996 100.347717 
L 365.902503 146.55224 
L 366.132652 131.485397 
L 366.247726 162.29105 
L 366.439517 162.29105 
L 366.516233 89.4086 
L 366.554591 103.496421 
L 366.708024 150.869052 
L 366.746382 150.219579 
L 366.78474 153.309933 
L 366.823098 152.824174 
L 367.053247 138.524175 
L 367.168322 162.29105 
L 367.360112 162.29105 
L 367.436828 100.926341 
L 367.475187 116.018083 
L 367.628619 149.476118 
L 367.782052 138.433832 
L 367.82041 140.724255 
L 367.858768 138.305458 
L 367.973842 133.655589 
L 368.088917 162.29105 
L 370.006824 162.280693 
L 370.08354 161.552114 
L 370.236972 159.299511 
L 370.428763 162.29105 
L 370.467121 161.861885 
L 370.543838 162.220711 
L 370.620554 161.702974 
L 370.658912 161.352509 
L 370.812344 158.24657 
L 370.850703 158.920935 
L 370.889061 158.228189 
L 371.004135 156.90421 
L 371.042493 157.157242 
L 371.11921 23.087396 
L 371.157568 52.275147 
L 371.311 108.554128 
L 371.349358 96.782476 
L 371.426075 99.515378 
L 371.464433 99.198425 
L 371.541149 114.936636 
L 371.617865 114.684545 
L 371.656224 114.65332 
L 371.771298 162.29105 
L 371.963089 162.29105 
L 372.039805 58.589594 
L 372.078163 71.992997 
L 372.231596 133.732281 
L 372.269954 127.602119 
L 372.308312 131.692579 
L 372.34667 129.666448 
L 372.385028 123.507141 
L 372.461744 127.331327 
L 372.576819 123.528631 
L 372.691893 162.29105 
L 372.883684 162.29105 
L 372.9604 71.575285 
L 372.998758 83.465251 
L 373.152191 140.313457 
L 373.190549 135.210451 
L 373.228907 138.550466 
L 373.267265 138.098013 
L 373.420698 130.508891 
L 373.497414 129.145471 
L 373.612488 162.29105 
L 373.804279 162.29105 
L 373.880995 82.710945 
L 373.919354 94.576411 
L 374.149502 143.992507 
L 374.187861 142.969597 
L 374.341293 132.578449 
L 374.418009 130.72821 
L 374.533084 162.29105 
L 376.335916 162.29105 
L 376.335916 162.29105 
" clip-path="url(#p77c3da1cd9)" style="fill: none; stroke: #fa5252; stroke-opacity: 0.5; stroke-width: 0.8; stroke-linecap: square"/>
   </g>
   <g id="patch_3">
    <path d="M 39.685039 162.708661 
L 39.685039 9.92126 
" style="fill: none; stroke: #000000; stroke-width: 0.3; stroke-linejoin: miter; stroke-linecap: square"/>
   </g>
   <g id="patch_4">
    <path d="M 377.007874 162.708661 
L 377.007874 9.92126 
" style="fill: none; stroke: #000000; stroke-width: 0.3; stroke-linejoin: miter; stroke-linecap: square"/>
   </g>
   <g id="patch_5">
    <path d="M 39.685039 162.708661 
L 377.007874 162.708661 
" style="fill: none; stroke: #000000; stroke-width: 0.3; stroke-linejoin: miter; stroke-linecap: square"/>
   </g>
   <g id="patch_6">
    <path d="M 39.685039 9.92126 
L 377.007874 9.92126 
" style="fill: none; stroke: #000000; stroke-width: 0.3; stroke-linejoin: miter; stroke-linecap: square"/>
   </g>
   <g id="matplotlib.axis_1">
    <g id="xtick_1">
     <g id="line2d_3">
      <path d="M 40.356997 162.708661 
L 40.356997 9.92126 
" clip-path="url(#p77c3da1cd9)" style="fill: none; stroke-dasharray: 0.6,0.3; stroke-dashoffset: 0; stroke: #868e96; stroke-opacity: 0.6; stroke-width: 0.2"/>
     </g>
     <g id="line2d_4">
      <defs>
       <path id="m4288f48388" d="M 0 0 
L 0 -1.75 
" style="stroke: #000000; stroke-width: 0.25"/>
      </defs>
      <g>
       <use xlink:href="#m4288f48388" x="40.356997" y="162.708661" style="stroke: #000000; stroke-width: 0.25"/>
      </g>
     </g>
     <g id="text_1">
      <!-- 0 -->
      <g transform="translate(38.391528 171.458661) scale(0.07 -0.07)">
       <defs>
        <path id="Roboto-Regular-30" d="M 3231 1941 
Q 3231 925 2884 431 
Q 2538 -63 1800 -63 
Q 1072 -63 722 420 
Q 372 903 359 1863 
L 359 2634 
Q 359 3638 706 4125 
Q 1053 4613 1794 4613 
Q 2528 4613 2875 4142 
Q 3222 3672 3231 2691 
L 3231 1941 
z
M 2653 2731 
Q 2653 3466 2447 3802 
Q 2241 4138 1794 4138 
Q 1350 4138 1147 3803 
Q 944 3469 938 2775 
L 938 1850 
Q 938 1113 1152 761 
Q 1366 409 1800 409 
Q 2228 409 2436 740 
Q 2644 1072 2653 1784 
L 2653 2731 
z
" transform="scale(0.015625)"/>
       </defs>
       <use xlink:href="#Roboto-Regular-30"/>
      </g>
     </g>
    </g>
    <g id="xtick_2">
     <g id="line2d_5">
      <path d="M 96.359877 162.708661 
L 96.359877 9.92126 
" clip-path="url(#p77c3da1cd9)" style="fill: none; stroke-dasharray: 0.6,0.3; stroke-dashoffset: 0; stroke: #868e96; stroke-opacity: 0.6; stroke-width: 0.2"/>
     </g>
     <g id="line2d_6">
      <g>
       <use xlink:href="#m4288f48388" x="96.359877" y="162.708661" style="stroke: #000000; stroke-width: 0.25"/>
      </g>
     </g>
     <g id="text_2">
      <!-- 1460 -->
      <g transform="translate(88.498002 171.458661) scale(0.07 -0.07)">
       <defs>
        <path id="Roboto-Regular-31" d="M 2278 0 
L 1697 0 
L 1697 3853 
L 531 3425 
L 531 3950 
L 2188 4572 
L 2278 4572 
L 2278 0 
z
" transform="scale(0.015625)"/>
        <path id="Roboto-Regular-34" d="M 2819 1528 
L 3450 1528 
L 3450 1056 
L 2819 1056 
L 2819 0 
L 2238 0 
L 2238 1056 
L 166 1056 
L 166 1397 
L 2203 4550 
L 2819 4550 
L 2819 1528 
z
M 822 1528 
L 2238 1528 
L 2238 3759 
L 2169 3634 
L 822 1528 
z
" transform="scale(0.015625)"/>
        <path id="Roboto-Regular-36" d="M 2647 4553 
L 2647 4063 
L 2541 4063 
Q 1866 4050 1466 3662 
Q 1066 3275 1003 2572 
Q 1363 2984 1984 2984 
Q 2578 2984 2933 2565 
Q 3288 2147 3288 1484 
Q 3288 781 2905 359 
Q 2522 -63 1878 -63 
Q 1225 -63 819 439 
Q 413 941 413 1731 
L 413 1953 
Q 413 3209 948 3873 
Q 1484 4538 2544 4553 
L 2647 4553 
z
M 1888 2503 
Q 1591 2503 1341 2325 
Q 1091 2147 994 1878 
L 994 1666 
Q 994 1103 1247 759 
Q 1500 416 1878 416 
Q 2269 416 2492 703 
Q 2716 991 2716 1456 
Q 2716 1925 2489 2214 
Q 2263 2503 1888 2503 
z
" transform="scale(0.015625)"/>
       </defs>
       <use xlink:href="#Roboto-Regular-31"/>
       <use xlink:href="#Roboto-Regular-34" transform="translate(56.152344 0)"/>
       <use xlink:href="#Roboto-Regular-36" transform="translate(112.304688 0)"/>
       <use xlink:href="#Roboto-Regular-30" transform="translate(168.457031 0)"/>
      </g>
     </g>
    </g>
    <g id="xtick_3">
     <g id="line2d_7">
      <path d="M 152.362756 162.708661 
L 152.362756 9.92126 
" clip-path="url(#p77c3da1cd9)" style="fill: none; stroke-dasharray: 0.6,0.3; stroke-dashoffset: 0; stroke: #868e96; stroke-opacity: 0.6; stroke-width: 0.2"/>
     </g>
     <g id="line2d_8">
      <g>
       <use xlink:href="#m4288f48388" x="152.362756" y="162.708661" style="stroke: #000000; stroke-width: 0.25"/>
      </g>
     </g>
     <g id="text_3">
      <!-- 2920 -->
      <g transform="translate(144.500881 171.458661) scale(0.07 -0.07)">
       <defs>
        <path id="Roboto-Regular-32" d="M 3359 0 
L 378 0 
L 378 416 
L 1953 2166 
Q 2303 2563 2436 2811 
Q 2569 3059 2569 3325 
Q 2569 3681 2353 3909 
Q 2138 4138 1778 4138 
Q 1347 4138 1108 3892 
Q 869 3647 869 3209 
L 291 3209 
Q 291 3838 695 4225 
Q 1100 4613 1778 4613 
Q 2413 4613 2781 4280 
Q 3150 3947 3150 3394 
Q 3150 2722 2294 1794 
L 1075 472 
L 3359 472 
L 3359 0 
z
" transform="scale(0.015625)"/>
        <path id="Roboto-Regular-39" d="M 2594 2000 
Q 2413 1784 2161 1653 
Q 1909 1522 1609 1522 
Q 1216 1522 923 1715 
Q 631 1909 472 2261 
Q 313 2613 313 3038 
Q 313 3494 486 3859 
Q 659 4225 978 4419 
Q 1297 4613 1722 4613 
Q 2397 4613 2786 4108 
Q 3175 3603 3175 2731 
L 3175 2563 
Q 3175 1234 2650 623 
Q 2125 13 1066 -3 
L 953 -3 
L 953 484 
L 1075 484 
Q 1791 497 2175 858 
Q 2559 1219 2594 2000 
z
M 1703 2000 
Q 1994 2000 2239 2178 
Q 2484 2356 2597 2619 
L 2597 2850 
Q 2597 3419 2350 3775 
Q 2103 4131 1725 4131 
Q 1344 4131 1112 3839 
Q 881 3547 881 3069 
Q 881 2603 1104 2301 
Q 1328 2000 1703 2000 
z
" transform="scale(0.015625)"/>
       </defs>
       <use xlink:href="#Roboto-Regular-32"/>
       <use xlink:href="#Roboto-Regular-39" transform="translate(56.152344 0)"/>
       <use xlink:href="#Roboto-Regular-32" transform="translate(112.304688 0)"/>
       <use xlink:href="#Roboto-Regular-30" transform="translate(168.457031 0)"/>
      </g>
     </g>
    </g>
    <g id="xtick_4">
     <g id="line2d_9">
      <path d="M 208.365636 162.708661 
L 208.365636 9.92126 
" clip-path="url(#p77c3da1cd9)" style="fill: none; stroke-dasharray: 0.6,0.3; stroke-dashoffset: 0; stroke: #868e96; stroke-opacity: 0.6; stroke-width: 0.2"/>
     </g>
     <g id="line2d_10">
      <g>
       <use xlink:href="#m4288f48388" x="208.365636" y="162.708661" style="stroke: #000000; stroke-width: 0.25"/>
      </g>
     </g>
     <g id="text_4">
      <!-- 4380 -->
      <g transform="translate(200.503761 171.458661) scale(0.07 -0.07)">
       <defs>
        <path id="Roboto-Regular-33" d="M 1219 2556 
L 1653 2556 
Q 2063 2563 2297 2772 
Q 2531 2981 2531 3338 
Q 2531 4138 1734 4138 
Q 1359 4138 1136 3923 
Q 913 3709 913 3356 
L 334 3356 
Q 334 3897 729 4255 
Q 1125 4613 1734 4613 
Q 2378 4613 2743 4272 
Q 3109 3931 3109 3325 
Q 3109 3028 2917 2750 
Q 2725 2472 2394 2334 
Q 2769 2216 2973 1941 
Q 3178 1666 3178 1269 
Q 3178 656 2778 296 
Q 2378 -63 1737 -63 
Q 1097 -63 695 284 
Q 294 631 294 1200 
L 875 1200 
Q 875 841 1109 625 
Q 1344 409 1738 409 
Q 2156 409 2378 628 
Q 2600 847 2600 1256 
Q 2600 1653 2356 1865 
Q 2113 2078 1653 2084 
L 1219 2084 
L 1219 2556 
z
" transform="scale(0.015625)"/>
        <path id="Roboto-Regular-38" d="M 3138 3363 
Q 3138 3022 2958 2756 
Q 2778 2491 2472 2341 
Q 2828 2188 3036 1894 
Q 3244 1600 3244 1228 
Q 3244 638 2845 287 
Q 2447 -63 1797 -63 
Q 1141 -63 745 289 
Q 350 641 350 1228 
Q 350 1597 551 1894 
Q 753 2191 1109 2344 
Q 806 2494 631 2759 
Q 456 3025 456 3363 
Q 456 3938 825 4275 
Q 1194 4613 1797 4613 
Q 2397 4613 2767 4275 
Q 3138 3938 3138 3363 
z
M 2666 1241 
Q 2666 1622 2423 1862 
Q 2181 2103 1790 2103 
Q 1400 2103 1164 1865 
Q 928 1628 928 1240 
Q 928 853 1158 631 
Q 1388 409 1797 409 
Q 2203 409 2434 632 
Q 2666 856 2666 1241 
z
M 1797 4138 
Q 1456 4138 1245 3927 
Q 1034 3716 1034 3353 
Q 1034 3006 1242 2792 
Q 1450 2578 1797 2578 
Q 2144 2578 2351 2792 
Q 2559 3006 2559 3353 
Q 2559 3700 2343 3919 
Q 2128 4138 1797 4138 
z
" transform="scale(0.015625)"/>
       </defs>
       <use xlink:href="#Roboto-Regular-34"/>
       <use xlink:href="#Roboto-Regular-33" transform="translate(56.152344 0)"/>
       <use xlink:href="#Roboto-Regular-38" transform="translate(112.304688 0)"/>
       <use xlink:href="#Roboto-Regular-30" transform="translate(168.457031 0)"/>
      </g>
     </g>
    </g>
    <g id="xtick_5">
     <g id="line2d_11">
      <path d="M 264.368515 162.708661 
L 264.368515 9.92126 
" clip-path="url(#p77c3da1cd9)" style="fill: none; stroke-dasharray: 0.6,0.3; stroke-dashoffset: 0; stroke: #868e96; stroke-opacity: 0.6; stroke-width: 0.2"/>
     </g>
     <g id="line2d_12">
      <g>
       <use xlink:href="#m4288f48388" x="264.368515" y="162.708661" style="stroke: #000000; stroke-width: 0.25"/>
      </g>
     </g>
     <g id="text_5">
      <!-- 5840 -->
      <g transform="translate(256.50664 171.458661) scale(0.07 -0.07)">
       <defs>
        <path id="Roboto-Regular-35" d="M 644 2281 
L 875 4550 
L 3206 4550 
L 3206 4016 
L 1366 4016 
L 1228 2775 
Q 1563 2972 1988 2972 
Q 2609 2972 2975 2561 
Q 3341 2150 3341 1450 
Q 3341 747 2961 342 
Q 2581 -63 1900 -63 
Q 1297 -63 915 271 
Q 534 606 481 1197 
L 1028 1197 
Q 1081 806 1306 607 
Q 1531 409 1900 409 
Q 2303 409 2533 684 
Q 2763 959 2763 1444 
Q 2763 1900 2514 2176 
Q 2266 2453 1853 2453 
Q 1475 2453 1259 2288 
L 1106 2163 
L 644 2281 
z
" transform="scale(0.015625)"/>
       </defs>
       <use xlink:href="#Roboto-Regular-35"/>
       <use xlink:href="#Roboto-Regular-38" transform="translate(56.152344 0)"/>
       <use xlink:href="#Roboto-Regular-34" transform="translate(112.304688 0)"/>
       <use xlink:href="#Roboto-Regular-30" transform="translate(168.457031 0)"/>
      </g>
     </g>
    </g>
    <g id="xtick_6">
     <g id="line2d_13">
      <path d="M 320.371395 162.708661 
L 320.371395 9.92126 
" clip-path="url(#p77c3da1cd9)" style="fill: none; stroke-dasharray: 0.6,0.3; stroke-dashoffset: 0; stroke: #868e96; stroke-opacity: 0.6; stroke-width: 0.2"/>
     </g>
     <g id="line2d_14">
      <g>
       <use xlink:href="#m4288f48388" x="320.371395" y="162.708661" style="stroke: #000000; stroke-width: 0.25"/>
      </g>
     </g>
     <g id="text_6">
      <!-- 7300 -->
      <g transform="translate(312.50952 171.458661) scale(0.07 -0.07)">
       <defs>
        <path id="Roboto-Regular-37" d="M 3316 4225 
L 1431 0 
L 825 0 
L 2703 4075 
L 241 4075 
L 241 4550 
L 3316 4550 
L 3316 4225 
z
" transform="scale(0.015625)"/>
       </defs>
       <use xlink:href="#Roboto-Regular-37"/>
       <use xlink:href="#Roboto-Regular-33" transform="translate(56.152344 0)"/>
       <use xlink:href="#Roboto-Regular-30" transform="translate(112.304688 0)"/>
       <use xlink:href="#Roboto-Regular-30" transform="translate(168.457031 0)"/>
      </g>
     </g>
    </g>
    <g id="xtick_7">
     <g id="line2d_15">
      <path d="M 376.374274 162.708661 
L 376.374274 9.92126 
" clip-path="url(#p77c3da1cd9)" style="fill: none; stroke-dasharray: 0.6,0.3; stroke-dashoffset: 0; stroke: #868e96; stroke-opacity: 0.6; stroke-width: 0.2"/>
     </g>
     <g id="line2d_16">
      <g>
       <use xlink:href="#m4288f48388" x="376.374274" y="162.708661" style="stroke: #000000; stroke-width: 0.25"/>
      </g>
     </g>
     <g id="text_7">
      <!-- 8760 -->
      <g transform="translate(368.512399 171.458661) scale(0.07 -0.07)">
       <use xlink:href="#Roboto-Regular-38"/>
       <use xlink:href="#Roboto-Regular-37" transform="translate(56.152344 0)"/>
       <use xlink:href="#Roboto-Regular-36" transform="translate(112.304688 0)"/>
       <use xlink:href="#Roboto-Regular-30" transform="translate(168.457031 0)"/>
      </g>
     </g>
    </g>
    <g id="xtick_8">
     <g id="line2d_17">
      <defs>
       <path id="mdefee0377a" d="M 0 0 
L 0 -1 
" style="stroke: #000000; stroke-width: 0.2"/>
      </defs>
      <g>
       <use xlink:href="#mdefee0377a" x="54.357717" y="162.708661" style="stroke: #000000; stroke-width: 0.2"/>
      </g>
     </g>
    </g>
    <g id="xtick_9">
     <g id="line2d_18">
      <g>
       <use xlink:href="#mdefee0377a" x="68.358437" y="162.708661" style="stroke: #000000; stroke-width: 0.2"/>
      </g>
     </g>
    </g>
    <g id="xtick_10">
     <g id="line2d_19">
      <g>
       <use xlink:href="#mdefee0377a" x="82.359157" y="162.708661" style="stroke: #000000; stroke-width: 0.2"/>
      </g>
     </g>
    </g>
    <g id="xtick_11">
     <g id="line2d_20">
      <g>
       <use xlink:href="#mdefee0377a" x="110.360597" y="162.708661" style="stroke: #000000; stroke-width: 0.2"/>
      </g>
     </g>
    </g>
    <g id="xtick_12">
     <g id="line2d_21">
      <g>
       <use xlink:href="#mdefee0377a" x="124.361316" y="162.708661" style="stroke: #000000; stroke-width: 0.2"/>
      </g>
     </g>
    </g>
    <g id="xtick_13">
     <g id="line2d_22">
      <g>
       <use xlink:href="#mdefee0377a" x="138.362036" y="162.708661" style="stroke: #000000; stroke-width: 0.2"/>
      </g>
     </g>
    </g>
    <g id="xtick_14">
     <g id="line2d_23">
      <g>
       <use xlink:href="#mdefee0377a" x="166.363476" y="162.708661" style="stroke: #000000; stroke-width: 0.2"/>
      </g>
     </g>
    </g>
    <g id="xtick_15">
     <g id="line2d_24">
      <g>
       <use xlink:href="#mdefee0377a" x="180.364196" y="162.708661" style="stroke: #000000; stroke-width: 0.2"/>
      </g>
     </g>
    </g>
    <g id="xtick_16">
     <g id="line2d_25">
      <g>
       <use xlink:href="#mdefee0377a" x="194.364916" y="162.708661" style="stroke: #000000; stroke-width: 0.2"/>
      </g>
     </g>
    </g>
    <g id="xtick_17">
     <g id="line2d_26">
      <g>
       <use xlink:href="#mdefee0377a" x="222.366356" y="162.708661" style="stroke: #000000; stroke-width: 0.2"/>
      </g>
     </g>
    </g>
    <g id="xtick_18">
     <g id="line2d_27">
      <g>
       <use xlink:href="#mdefee0377a" x="236.367076" y="162.708661" style="stroke: #000000; stroke-width: 0.2"/>
      </g>
     </g>
    </g>
    <g id="xtick_19">
     <g id="line2d_28">
      <g>
       <use xlink:href="#mdefee0377a" x="250.367795" y="162.708661" style="stroke: #000000; stroke-width: 0.2"/>
      </g>
     </g>
    </g>
    <g id="xtick_20">
     <g id="line2d_29">
      <g>
       <use xlink:href="#mdefee0377a" x="278.369235" y="162.708661" style="stroke: #000000; stroke-width: 0.2"/>
      </g>
     </g>
    </g>
    <g id="xtick_21">
     <g id="line2d_30">
      <g>
       <use xlink:href="#mdefee0377a" x="292.369955" y="162.708661" style="stroke: #000000; stroke-width: 0.2"/>
      </g>
     </g>
    </g>
    <g id="xtick_22">
     <g id="line2d_31">
      <g>
       <use xlink:href="#mdefee0377a" x="306.370675" y="162.708661" style="stroke: #000000; stroke-width: 0.2"/>
      </g>
     </g>
    </g>
    <g id="xtick_23">
     <g id="line2d_32">
      <g>
       <use xlink:href="#mdefee0377a" x="334.372115" y="162.708661" style="stroke: #000000; stroke-width: 0.2"/>
      </g>
     </g>
    </g>
    <g id="xtick_24">
     <g id="line2d_33">
      <g>
       <use xlink:href="#mdefee0377a" x="348.372835" y="162.708661" style="stroke: #000000; stroke-width: 0.2"/>
      </g>
     </g>
    </g>
    <g id="xtick_25">
     <g id="line2d_34">
      <g>
       <use xlink:href="#mdefee0377a" x="362.373554" y="162.708661" style="stroke: #000000; stroke-width: 0.2"/>
      </g>
     </g>
    </g>
    <g id="text_8">
     <!-- Hour of year [h] -->
     <g transform="translate(182.8488 183.974286) scale(0.075 -0.075)">
      <defs>
       <path id="Roboto-Regular-48" d="M 4025 0 
L 3422 0 
L 3422 2103 
L 1128 2103 
L 1128 0 
L 528 0 
L 528 4550 
L 1128 4550 
L 1128 2594 
L 3422 2594 
L 3422 4550 
L 4025 4550 
L 4025 0 
z
" transform="scale(0.015625)"/>
       <path id="Roboto-Regular-6f" d="M 284 1722 
Q 284 2219 479 2616 
Q 675 3013 1023 3228 
Q 1372 3444 1819 3444 
Q 2509 3444 2936 2966 
Q 3363 2488 3363 1694 
L 3363 1653 
Q 3363 1159 3173 767 
Q 2984 375 2632 156 
Q 2281 -63 1825 -63 
Q 1138 -63 711 415 
Q 284 894 284 1681 
L 284 1722 
z
M 866 1653 
Q 866 1091 1127 750 
Q 1388 409 1825 409 
Q 2266 409 2525 754 
Q 2784 1100 2784 1722 
Q 2784 2278 2520 2623 
Q 2256 2969 1819 2969 
Q 1391 2969 1128 2628 
Q 866 2288 866 1653 
z
" transform="scale(0.015625)"/>
       <path id="Roboto-Regular-75" d="M 2525 334 
Q 2188 -63 1534 -63 
Q 994 -63 711 251 
Q 428 566 425 1181 
L 425 3381 
L 1003 3381 
L 1003 1197 
Q 1003 428 1628 428 
Q 2291 428 2509 922 
L 2509 3381 
L 3088 3381 
L 3088 0 
L 2538 0 
L 2525 334 
z
" transform="scale(0.015625)"/>
       <path id="Roboto-Regular-72" d="M 2072 2863 
Q 1941 2884 1788 2884 
Q 1219 2884 1016 2400 
L 1016 0 
L 438 0 
L 438 3381 
L 1000 3381 
L 1009 2991 
Q 1294 3444 1816 3444 
Q 1984 3444 2072 3400 
L 2072 2863 
z
" transform="scale(0.015625)"/>
       <path id="Roboto-Regular-20" transform="scale(0.015625)"/>
       <path id="Roboto-Regular-66" d="M 722 0 
L 722 2934 
L 188 2934 
L 188 3381 
L 722 3381 
L 722 3728 
Q 722 4272 1012 4569 
Q 1303 4866 1834 4866 
Q 2034 4866 2231 4813 
L 2200 4344 
Q 2053 4372 1888 4372 
Q 1606 4372 1453 4208 
Q 1300 4044 1300 3738 
L 1300 3381 
L 2022 3381 
L 2022 2934 
L 1300 2934 
L 1300 0 
L 722 0 
z
" transform="scale(0.015625)"/>
       <path id="Roboto-Regular-79" d="M 1544 847 
L 2331 3381 
L 2950 3381 
L 1591 -522 
Q 1275 -1366 588 -1366 
L 478 -1356 
L 263 -1316 
L 263 -847 
L 419 -859 
Q 713 -859 877 -740 
Q 1041 -622 1147 -306 
L 1275 38 
L 69 3381 
L 700 3381 
L 1544 847 
z
" transform="scale(0.015625)"/>
       <path id="Roboto-Regular-65" d="M 1841 -63 
Q 1153 -63 722 389 
Q 291 841 291 1597 
L 291 1703 
Q 291 2206 483 2601 
Q 675 2997 1020 3220 
Q 1366 3444 1769 3444 
Q 2428 3444 2793 3009 
Q 3159 2575 3159 1766 
L 3159 1525 
L 869 1525 
Q 881 1025 1161 717 
Q 1441 409 1872 409 
Q 2178 409 2390 534 
Q 2603 659 2763 866 
L 3116 591 
Q 2691 -63 1841 -63 
z
M 1769 2969 
Q 1419 2969 1181 2714 
Q 944 2459 888 2000 
L 2581 2000 
L 2581 2044 
Q 2556 2484 2343 2726 
Q 2131 2969 1769 2969 
z
" transform="scale(0.015625)"/>
       <path id="Roboto-Regular-61" d="M 2525 0 
Q 2475 100 2444 356 
Q 2041 -63 1481 -63 
Q 981 -63 661 220 
Q 341 503 341 938 
Q 341 1466 742 1758 
Q 1144 2050 1872 2050 
L 2434 2050 
L 2434 2316 
Q 2434 2619 2253 2798 
Q 2072 2978 1719 2978 
Q 1409 2978 1200 2822 
Q 991 2666 991 2444 
L 409 2444 
Q 409 2697 589 2933 
Q 769 3169 1076 3306 
Q 1384 3444 1753 3444 
Q 2338 3444 2669 3151 
Q 3000 2859 3013 2347 
L 3013 791 
Q 3013 325 3131 50 
L 3131 0 
L 2525 0 
z
M 1566 441 
Q 1838 441 2081 581 
Q 2325 722 2434 947 
L 2434 1641 
L 1981 1641 
Q 919 1641 919 1019 
Q 919 747 1100 594 
Q 1281 441 1566 441 
z
" transform="scale(0.015625)"/>
       <path id="Roboto-Regular-5b" d="M 1634 4725 
L 1038 4725 
L 1038 -500 
L 1634 -500 
L 1634 -975 
L 456 -975 
L 456 5200 
L 1634 5200 
L 1634 4725 
z
" transform="scale(0.015625)"/>
       <path id="Roboto-Regular-68" d="M 1016 2972 
Q 1400 3444 2016 3444 
Q 3088 3444 3097 2234 
L 3097 0 
L 2519 0 
L 2519 2238 
Q 2516 2603 2352 2778 
Q 2188 2953 1841 2953 
Q 1559 2953 1346 2803 
Q 1134 2653 1016 2409 
L 1016 0 
L 438 0 
L 438 4800 
L 1016 4800 
L 1016 2972 
z
" transform="scale(0.015625)"/>
       <path id="Roboto-Regular-5d" d="M 28 5200 
L 1209 5200 
L 1209 -975 
L 28 -975 
L 28 -500 
L 631 -500 
L 631 4725 
L 28 4725 
L 28 5200 
z
" transform="scale(0.015625)"/>
      </defs>
      <use xlink:href="#Roboto-Regular-48"/>
      <use xlink:href="#Roboto-Regular-6f" transform="translate(71.289062 0)"/>
      <use xlink:href="#Roboto-Regular-75" transform="translate(128.320312 0)"/>
      <use xlink:href="#Roboto-Regular-72" transform="translate(183.447266 0)"/>
      <use xlink:href="#Roboto-Regular-20" transform="translate(217.285156 0)"/>
      <use xlink:href="#Roboto-Regular-6f" transform="translate(242.041016 0)"/>
      <use xlink:href="#Roboto-Regular-66" transform="translate(299.072266 0)"/>
      <use xlink:href="#Roboto-Regular-20" transform="translate(333.789062 0)"/>
      <use xlink:href="#Roboto-Regular-79" transform="translate(358.544922 0)"/>
      <use xlink:href="#Roboto-Regular-65" transform="translate(405.859375 0)"/>
      <use xlink:href="#Roboto-Regular-61" transform="translate(458.837891 0)"/>
      <use xlink:href="#Roboto-Regular-72" transform="translate(513.232422 0)"/>
      <use xlink:href="#Roboto-Regular-20" transform="translate(547.070312 0)"/>
      <use xlink:href="#Roboto-Regular-5b" transform="translate(571.826172 0)"/>
      <use xlink:href="#Roboto-Regular-68" transform="translate(598.339844 0)"/>
      <use xlink:href="#Roboto-Regular-5d" transform="translate(653.417969 0)"/>
     </g>
    </g>
   </g>
   <g id="matplotlib.axis_2">
    <g id="ytick_1">
     <g id="line2d_35">
      <path d="M 39.685039 162.29105 
L 377.007874 162.29105 
" clip-path="url(#p77c3da1cd9)" style="fill: none; stroke-dasharray: 0.6,0.3; stroke-dashoffset: 0; stroke: #868e96; stroke-opacity: 0.6; stroke-width: 0.2"/>
     </g>
     <g id="line2d_36">
      <defs>
       <path id="m3c2dbc0bfc" d="M 0 0 
L 1.75 0 
" style="stroke: #000000; stroke-width: 0.25"/>
      </defs>
      <g>
       <use xlink:href="#m3c2dbc0bfc" x="39.685039" y="162.29105" style="stroke: #000000; stroke-width: 0.25"/>
      </g>
     </g>
     <g id="text_9">
      <!-- 0 -->
      <g transform="translate(32.254102 164.91605) scale(0.07 -0.07)">
       <use xlink:href="#Roboto-Regular-30"/>
      </g>
     </g>
    </g>
    <g id="ytick_2">
     <g id="line2d_37">
      <path d="M 39.685039 111.50112 
L 377.007874 111.50112 
" clip-path="url(#p77c3da1cd9)" style="fill: none; stroke-dasharray: 0.6,0.3; stroke-dashoffset: 0; stroke: #868e96; stroke-opacity: 0.6; stroke-width: 0.2"/>
     </g>
     <g id="line2d_38">
      <g>
       <use xlink:href="#m3c2dbc0bfc" x="39.685039" y="111.50112" style="stroke: #000000; stroke-width: 0.25"/>
      </g>
     </g>
     <g id="text_10">
      <!-- 10 -->
      <g transform="translate(28.323164 114.12612) scale(0.07 -0.07)">
       <use xlink:href="#Roboto-Regular-31"/>
       <use xlink:href="#Roboto-Regular-30" transform="translate(56.152344 0)"/>
      </g>
     </g>
    </g>
    <g id="ytick_3">
     <g id="line2d_39">
      <path d="M 39.685039 60.71119 
L 377.007874 60.71119 
" clip-path="url(#p77c3da1cd9)" style="fill: none; stroke-dasharray: 0.6,0.3; stroke-dashoffset: 0; stroke: #868e96; stroke-opacity: 0.6; stroke-width: 0.2"/>
     </g>
     <g id="line2d_40">
      <g>
       <use xlink:href="#m3c2dbc0bfc" x="39.685039" y="60.71119" style="stroke: #000000; stroke-width: 0.25"/>
      </g>
     </g>
     <g id="text_11">
      <!-- 20 -->
      <g transform="translate(28.323164 63.33619) scale(0.07 -0.07)">
       <use xlink:href="#Roboto-Regular-32"/>
       <use xlink:href="#Roboto-Regular-30" transform="translate(56.152344 0)"/>
      </g>
     </g>
    </g>
    <g id="ytick_4">
     <g id="line2d_41">
      <path d="M 39.685039 9.92126 
L 377.007874 9.92126 
" clip-path="url(#p77c3da1cd9)" style="fill: none; stroke-dasharray: 0.6,0.3; stroke-dashoffset: 0; stroke: #868e96; stroke-opacity: 0.6; stroke-width: 0.2"/>
     </g>
     <g id="line2d_42">
      <g>
       <use xlink:href="#m3c2dbc0bfc" x="39.685039" y="9.92126" style="stroke: #000000; stroke-width: 0.25"/>
      </g>
     </g>
     <g id="text_12">
      <!-- 30 -->
      <g transform="translate(28.323164 12.54626) scale(0.07 -0.07)">
       <use xlink:href="#Roboto-Regular-33"/>
       <use xlink:href="#Roboto-Regular-30" transform="translate(56.152344 0)"/>
      </g>
     </g>
    </g>
    <g id="ytick_5">
     <g id="line2d_43">
      <defs>
       <path id="m71f641b3a5" d="M 0 0 
L 1 0 
" style="stroke: #000000; stroke-width: 0.2"/>
      </defs>
      <g>
       <use xlink:href="#m71f641b3a5" x="39.685039" y="152.133064" style="stroke: #000000; stroke-width: 0.2"/>
      </g>
     </g>
    </g>
    <g id="ytick_6">
     <g id="line2d_44">
      <g>
       <use xlink:href="#m71f641b3a5" x="39.685039" y="141.975078" style="stroke: #000000; stroke-width: 0.2"/>
      </g>
     </g>
    </g>
    <g id="ytick_7">
     <g id="line2d_45">
      <g>
       <use xlink:href="#m71f641b3a5" x="39.685039" y="131.817092" style="stroke: #000000; stroke-width: 0.2"/>
      </g>
     </g>
    </g>
    <g id="ytick_8">
     <g id="line2d_46">
      <g>
       <use xlink:href="#m71f641b3a5" x="39.685039" y="121.659106" style="stroke: #000000; stroke-width: 0.2"/>
      </g>
     </g>
    </g>
    <g id="ytick_9">
     <g id="line2d_47">
      <g>
       <use xlink:href="#m71f641b3a5" x="39.685039" y="101.343134" style="stroke: #000000; stroke-width: 0.2"/>
      </g>
     </g>
    </g>
    <g id="ytick_10">
     <g id="line2d_48">
      <g>
       <use xlink:href="#m71f641b3a5" x="39.685039" y="91.185148" style="stroke: #000000; stroke-width: 0.2"/>
      </g>
     </g>
    </g>
    <g id="ytick_11">
     <g id="line2d_49">
      <g>
       <use xlink:href="#m71f641b3a5" x="39.685039" y="81.027162" style="stroke: #000000; stroke-width: 0.2"/>
      </g>
     </g>
    </g>
    <g id="ytick_12">
     <g id="line2d_50">
      <g>
       <use xlink:href="#m71f641b3a5" x="39.685039" y="70.869176" style="stroke: #000000; stroke-width: 0.2"/>
      </g>
     </g>
    </g>
    <g id="ytick_13">
     <g id="line2d_51">
      <g>
       <use xlink:href="#m71f641b3a5" x="39.685039" y="50.553204" style="stroke: #000000; stroke-width: 0.2"/>
      </g>
     </g>
    </g>
    <g id="ytick_14">
     <g id="line2d_52">
      <g>
       <use xlink:href="#m71f641b3a5" x="39.685039" y="40.395218" style="stroke: #000000; stroke-width: 0.2"/>
      </g>
     </g>
    </g>
    <g id="ytick_15">
     <g id="line2d_53">
      <g>
       <use xlink:href="#m71f641b3a5" x="39.685039" y="30.237232" style="stroke: #000000; stroke-width: 0.2"/>
      </g>
     </g>
    </g>
    <g id="ytick_16">
     <g id="line2d_54">
      <g>
       <use xlink:href="#m71f641b3a5" x="39.685039" y="20.079246" style="stroke: #000000; stroke-width: 0.2"/>
      </g>
     </g>
    </g>
    <g id="text_13">
     <!-- Load [kW] -->
     <g transform="translate(19.799727 102.770429) rotate(-90) scale(0.075 -0.075)">
      <defs>
       <path id="Roboto-Regular-4c" d="M 1131 491 
L 3288 491 
L 3288 0 
L 528 0 
L 528 4550 
L 1131 4550 
L 1131 491 
z
" transform="scale(0.015625)"/>
       <path id="Roboto-Regular-64" d="M 297 1719 
Q 297 2497 665 2970 
Q 1034 3444 1631 3444 
Q 2225 3444 2572 3038 
L 2572 4800 
L 3150 4800 
L 3150 0 
L 2619 0 
L 2591 363 
Q 2244 -63 1625 -63 
Q 1038 -63 667 418 
Q 297 900 297 1675 
L 297 1719 
z
M 875 1653 
Q 875 1078 1112 753 
Q 1350 428 1769 428 
Q 2319 428 2572 922 
L 2572 2475 
Q 2313 2953 1775 2953 
Q 1350 2953 1112 2625 
Q 875 2297 875 1653 
z
" transform="scale(0.015625)"/>
       <path id="Roboto-Regular-6b" d="M 1381 1566 
L 1019 1188 
L 1019 0 
L 441 0 
L 441 4800 
L 1019 4800 
L 1019 1897 
L 1328 2269 
L 2381 3381 
L 3084 3381 
L 1769 1969 
L 3238 0 
L 2559 0 
L 1381 1566 
z
" transform="scale(0.015625)"/>
       <path id="Roboto-Regular-57" d="M 1509 1434 
L 1597 834 
L 1725 1375 
L 2625 4550 
L 3131 4550 
L 4009 1375 
L 4134 825 
L 4231 1438 
L 4938 4550 
L 5541 4550 
L 4438 0 
L 3891 0 
L 2953 3316 
L 2881 3663 
L 2809 3316 
L 1838 0 
L 1291 0 
L 191 4550 
L 791 4550 
L 1509 1434 
z
" transform="scale(0.015625)"/>
      </defs>
      <use xlink:href="#Roboto-Regular-4c"/>
      <use xlink:href="#Roboto-Regular-6f" transform="translate(53.808594 0)"/>
      <use xlink:href="#Roboto-Regular-61" transform="translate(110.839844 0)"/>
      <use xlink:href="#Roboto-Regular-64" transform="translate(165.234375 0)"/>
      <use xlink:href="#Roboto-Regular-20" transform="translate(221.630859 0)"/>
      <use xlink:href="#Roboto-Regular-5b" transform="translate(246.386719 0)"/>
      <use xlink:href="#Roboto-Regular-6b" transform="translate(272.900391 0)"/>
      <use xlink:href="#Roboto-Regular-57" transform="translate(323.583984 0)"/>
      <use xlink:href="#Roboto-Regular-5d" transform="translate(412.304688 0)"/>
     </g>
    </g>
   </g>
   <g id="legend_1">
    <g id="line2d_55">
     <path d="M 255.119673 18.485197 
L 260.969673 18.485197 
L 266.819673 18.485197 
" style="fill: none; stroke: #228be6; stroke-opacity: 0.5; stroke-width: 0.8; stroke-linecap: square"/>
    </g>
    <g id="text_14">
     <!-- Heating load -->
     <g transform="translate(268.769673 20.760197) scale(0.065 -0.065)">
      <defs>
       <path id="Roboto-Regular-74" d="M 1222 4200 
L 1222 3381 
L 1853 3381 
L 1853 2934 
L 1222 2934 
L 1222 838 
Q 1222 634 1306 532 
Q 1391 431 1594 431 
Q 1694 431 1869 469 
L 1869 0 
Q 1641 -63 1425 -63 
Q 1038 -63 841 171 
Q 644 406 644 838 
L 644 2934 
L 28 2934 
L 28 3381 
L 644 3381 
L 644 4200 
L 1222 4200 
z
" transform="scale(0.015625)"/>
       <path id="Roboto-Regular-69" d="M 1066 0 
L 488 0 
L 488 3381 
L 1066 3381 
L 1066 0 
z
M 441 4278 
Q 441 4419 527 4516 
Q 613 4613 781 4613 
Q 950 4613 1037 4516 
Q 1125 4419 1125 4278 
Q 1125 4138 1037 4044 
Q 950 3950 781 3950 
Q 613 3950 527 4044 
Q 441 4138 441 4278 
z
" transform="scale(0.015625)"/>
       <path id="Roboto-Regular-6e" d="M 984 3381 
L 1003 2956 
Q 1391 3444 2016 3444 
Q 3088 3444 3097 2234 
L 3097 0 
L 2519 0 
L 2519 2238 
Q 2516 2603 2352 2778 
Q 2188 2953 1841 2953 
Q 1559 2953 1346 2803 
Q 1134 2653 1016 2409 
L 1016 0 
L 438 0 
L 438 3381 
L 984 3381 
z
" transform="scale(0.015625)"/>
       <path id="Roboto-Regular-67" d="M 300 1719 
Q 300 2509 665 2976 
Q 1031 3444 1634 3444 
Q 2253 3444 2600 3006 
L 2628 3381 
L 3156 3381 
L 3156 81 
Q 3156 -575 2767 -953 
Q 2378 -1331 1722 -1331 
Q 1356 -1331 1006 -1175 
Q 656 -1019 472 -747 
L 772 -400 
Q 1144 -859 1681 -859 
Q 2103 -859 2339 -621 
Q 2575 -384 2575 47 
L 2575 338 
Q 2228 -63 1628 -63 
Q 1034 -63 667 415 
Q 300 894 300 1719 
z
M 881 1653 
Q 881 1081 1115 754 
Q 1350 428 1772 428 
Q 2319 428 2575 925 
L 2575 2469 
Q 2309 2953 1778 2953 
Q 1356 2953 1118 2625 
Q 881 2297 881 1653 
z
" transform="scale(0.015625)"/>
       <path id="Roboto-Regular-6c" d="M 1066 0 
L 488 0 
L 488 4800 
L 1066 4800 
L 1066 0 
z
" transform="scale(0.015625)"/>
      </defs>
      <use xlink:href="#Roboto-Regular-48"/>
      <use xlink:href="#Roboto-Regular-65" transform="translate(71.289062 0)"/>
      <use xlink:href="#Roboto-Regular-61" transform="translate(124.267578 0)"/>
      <use xlink:href="#Roboto-Regular-74" transform="translate(178.662109 0)"/>
      <use xlink:href="#Roboto-Regular-69" transform="translate(211.328125 0)"/>
      <use xlink:href="#Roboto-Regular-6e" transform="translate(235.595703 0)"/>
      <use xlink:href="#Roboto-Regular-67" transform="translate(290.771484 0)"/>
      <use xlink:href="#Roboto-Regular-20" transform="translate(346.875 0)"/>
      <use xlink:href="#Roboto-Regular-6c" transform="translate(371.630859 0)"/>
      <use xlink:href="#Roboto-Regular-6f" transform="translate(395.898438 0)"/>
      <use xlink:href="#Roboto-Regular-61" transform="translate(452.929688 0)"/>
      <use xlink:href="#Roboto-Regular-64" transform="translate(507.324219 0)"/>
     </g>
    </g>
    <g id="line2d_56">
     <path d="M 311.911392 18.485197 
L 317.761392 18.485197 
L 323.611392 18.485197 
" style="fill: none; stroke: #fa5252; stroke-opacity: 0.5; stroke-width: 0.8; stroke-linecap: square"/>
    </g>
    <g id="text_15">
     <!-- Cooling load -->
     <g transform="translate(325.561392 20.760197) scale(0.065 -0.065)">
      <defs>
       <path id="Roboto-Regular-43" d="M 3875 1444 
Q 3791 722 3342 329 
Q 2894 -63 2150 -63 
Q 1344 -63 858 515 
Q 372 1094 372 2063 
L 372 2500 
Q 372 3134 598 3615 
Q 825 4097 1240 4355 
Q 1656 4613 2203 4613 
Q 2928 4613 3365 4208 
Q 3803 3803 3875 3088 
L 3272 3088 
Q 3194 3631 2933 3875 
Q 2672 4119 2203 4119 
Q 1628 4119 1301 3694 
Q 975 3269 975 2484 
L 975 2044 
Q 975 1303 1284 865 
Q 1594 428 2150 428 
Q 2650 428 2917 654 
Q 3184 881 3272 1444 
L 3875 1444 
z
" transform="scale(0.015625)"/>
      </defs>
      <use xlink:href="#Roboto-Regular-43"/>
      <use xlink:href="#Roboto-Regular-6f" transform="translate(65.087891 0)"/>
      <use xlink:href="#Roboto-Regular-6f" transform="translate(122.119141 0)"/>
      <use xlink:href="#Roboto-Regular-6c" transform="translate(179.150391 0)"/>
      <use xlink:href="#Roboto-Regular-69" transform="translate(203.417969 0)"/>
      <use xlink:href="#Roboto-Regular-6e" transform="translate(227.685547 0)"/>
      <use xlink:href="#Roboto-Regular-67" transform="translate(282.861328 0)"/>
      <use xlink:href="#Roboto-Regular-20" transform="translate(338.964844 0)"/>
      <use xlink:href="#Roboto-Regular-6c" transform="translate(363.720703 0)"/>
      <use xlink:href="#Roboto-Regular-6f" transform="translate(387.988281 0)"/>
      <use xlink:href="#Roboto-Regular-61" transform="translate(445.019531 0)"/>
      <use xlink:href="#Roboto-Regular-64" transform="translate(499.414062 0)"/>
     </g>
    </g>
   </g>
  </g>
 </g>
 <defs>
  <clipPath id="p77c3da1cd9">
   <rect x="39.685039" y="9.92126" width="337.322835" height="152.787402"/>
  </clipPath>
 </defs>
</svg>
