<?xml version="1.0" encoding="utf-8" standalone="no"?>
<!DOCTYPE svg PUBLIC "-//W3C//DTD SVG 1.1//EN"
  "http://www.w3.org/Graphics/SVG/1.1/DTD/svg11.dtd">
<svg xmlns:xlink="http://www.w3.org/1999/xlink" width="283.464567pt" height="170.07874pt" viewBox="0 0 283.464567 170.07874" xmlns="http://www.w3.org/2000/svg" version="1.1">
 <metadata>
  <rdf:RDF xmlns:dc="http://purl.org/dc/elements/1.1/" xmlns:cc="http://creativecommons.org/ns#" xmlns:rdf="http://www.w3.org/1999/02/22-rdf-syntax-ns#">
   <cc:Work>
    <dc:type rdf:resource="http://purl.org/dc/dcmitype/StillImage"/>
    <dc:date>2025-09-12T13:06:12.032854</dc:date>
    <dc:format>image/svg+xml</dc:format>
    <dc:creator>
     <cc:Agent>
      <dc:title>Matplotlib v3.10.3, https://matplotlib.org/</dc:title>
     </cc:Agent>
    </dc:creator>
   </cc:Work>
  </rdf:RDF>
 </metadata>
 <defs>
  <style type="text/css">*{stroke-linejoin: round; stroke-linecap: butt}</style>
 </defs>
 <g id="figure_1">
  <g id="patch_1">
   <path d="M 0 170.07874 
L 283.464567 170.07874 
L 283.464567 0 
L 0 0 
L 0 170.07874 
z
" style="fill: none"/>
  </g>
  <g id="axes_1">
   <g id="patch_2">
    <path d="M 28.891128 135.511448 
L 250.679482 135.511448 
L 250.679482 6.569963 
L 28.891128 6.569963 
L 28.891128 135.511448 
z
" style="fill: none"/>
   </g>
   <g id="line2d_1">
    <path d="M 28.891128 82.954212 
L 31.131414 82.377732 
L 33.3717 81.803576 
L 35.611987 81.231745 
L 37.852273 80.662239 
L 40.09256 80.095058 
L 42.332846 79.530202 
L 44.573132 78.96767 
L 46.813419 78.407464 
L 49.053705 77.849582 
L 51.293992 77.294025 
L 53.534278 76.740793 
L 55.774565 76.189886 
L 58.014851 75.641304 
L 60.255137 75.095046 
L 62.495424 74.551114 
L 64.73571 74.009506 
L 66.975997 73.470223 
L 69.216283 72.933265 
L 71.456569 72.398632 
L 73.696856 71.866323 
L 75.937142 71.33634 
L 78.177429 70.808681 
L 80.417715 70.283347 
L 82.658001 69.760339 
L 84.898288 69.239654 
L 87.138574 68.721295 
L 89.378861 68.205261 
L 91.619147 67.691551 
L 93.859434 67.180167 
L 96.09972 66.671107 
L 98.340006 66.164372 
L 100.580293 65.659961 
L 102.820579 65.157876 
L 105.060866 64.658116 
L 107.301152 64.16068 
L 109.541438 63.665569 
L 111.781725 63.172783 
L 114.022011 62.682322 
L 116.262298 62.194186 
L 118.502584 61.708375 
L 120.74287 61.224888 
L 122.983157 60.743727 
L 125.223443 60.26489 
L 127.46373 59.788378 
L 129.704016 59.314191 
L 131.944303 58.842329 
L 134.184589 58.372791 
L 136.424875 57.905579 
L 138.665162 57.440691 
L 140.905448 56.978128 
L 143.145735 56.51789 
L 145.386021 56.059977 
L 147.626307 55.604389 
L 149.866594 55.151125 
L 152.10688 54.700187 
L 154.347167 54.251573 
L 156.587453 53.805284 
L 158.827739 53.36132 
L 161.068026 52.919681 
L 163.308312 52.480366 
L 165.548599 52.043377 
L 167.788885 51.608712 
L 170.029172 51.176372 
L 172.269458 50.746357 
L 174.509744 50.318667 
L 176.750031 49.893302 
L 178.990317 49.470262 
L 181.230604 49.049546 
L 183.47089 48.631155 
L 185.711176 48.21509 
L 187.951463 47.801349 
L 190.191749 47.389932 
L 192.432036 46.980841 
L 194.672322 46.574075 
L 196.912608 46.169633 
L 199.152895 45.767516 
L 201.393181 45.367724 
L 203.633468 44.970257 
L 205.873754 44.575115 
L 208.114041 44.182298 
L 210.354327 43.791805 
L 212.594613 43.403638 
L 214.8349 43.017795 
L 217.075186 42.634277 
L 219.315473 42.253084 
L 221.555759 41.874216 
L 223.796045 41.497672 
L 226.036332 41.123454 
L 228.276618 40.75156 
L 230.516905 40.381991 
L 232.757191 40.014747 
L 234.997477 39.649828 
L 237.237764 39.287234 
L 239.47805 38.926964 
L 241.718337 38.56902 
L 243.958623 38.2134 
L 246.19891 37.860105 
L 248.439196 37.509135 
L 250.679482 37.16049 
" clip-path="url(#p1bf1eb9a1f)" style="fill: none; stroke: #69db7c; stroke-linecap: square"/>
   </g>
   <g id="patch_3">
    <path d="M 28.891128 135.511448 
L 28.891128 6.569963 
" style="fill: none; stroke: #2f9e44; stroke-width: 0.3; stroke-linejoin: miter; stroke-linecap: square"/>
   </g>
   <g id="patch_4">
    <path d="M 28.891128 135.511448 
L 250.679482 135.511448 
" style="fill: none; stroke: #000000; stroke-width: 0.3; stroke-linejoin: miter; stroke-linecap: square"/>
   </g>
   <g id="matplotlib.axis_1">
    <g id="xtick_1">
     <g id="line2d_2">
      <defs>
       <path id="mb7d4bbda75" d="M 0 0 
L 0 2 
" style="stroke: #000000; stroke-width: 0.3"/>
      </defs>
      <g>
       <use xlink:href="#mb7d4bbda75" x="28.891128" y="135.511448" style="stroke: #000000; stroke-width: 0.3"/>
      </g>
     </g>
     <g id="text_1">
      <!-- −20 -->
      <g transform="translate(22.176128 147.511448) scale(0.08 -0.08)">
       <defs>
        <path id="Roboto-Light-2212" d="M 3125 2144 
L 516 2144 
L 516 2463 
L 3125 2463 
L 3125 2144 
z
" transform="scale(0.015625)"/>
        <path id="Roboto-Light-32" d="M 3278 0 
L 428 0 
L 428 288 
L 1988 2056 
Q 2375 2503 2525 2793 
Q 2675 3084 2675 3359 
Q 2675 3791 2422 4042 
Q 2169 4294 1725 4294 
Q 1266 4294 983 4000 
Q 700 3706 700 3238 
L 328 3238 
Q 328 3622 501 3937 
Q 675 4253 995 4433 
Q 1316 4613 1725 4613 
Q 2350 4613 2701 4284 
Q 3053 3956 3053 3391 
Q 3053 3072 2854 2694 
Q 2656 2316 2156 1750 
L 888 316 
L 3278 316 
L 3278 0 
z
" transform="scale(0.015625)"/>
        <path id="Roboto-Light-30" d="M 3172 1897 
Q 3172 934 2819 435 
Q 2466 -63 1778 -63 
Q 1103 -63 743 426 
Q 384 916 375 1850 
L 375 2666 
Q 375 3625 731 4119 
Q 1088 4613 1772 4613 
Q 2447 4613 2803 4136 
Q 3159 3659 3172 2731 
L 3172 1897 
z
M 2797 2713 
Q 2797 3494 2542 3894 
Q 2288 4294 1772 4294 
Q 1266 4294 1009 3903 
Q 753 3513 747 2750 
L 747 1856 
Q 747 1078 1011 665 
Q 1275 253 1778 253 
Q 2278 253 2536 656 
Q 2794 1059 2797 1838 
L 2797 2713 
z
" transform="scale(0.015625)"/>
       </defs>
       <use xlink:href="#Roboto-Light-2212"/>
       <use xlink:href="#Roboto-Light-32" transform="translate(57.03125 0)"/>
       <use xlink:href="#Roboto-Light-30" transform="translate(112.451172 0)"/>
      </g>
     </g>
    </g>
    <g id="xtick_2">
     <g id="line2d_3">
      <g>
       <use xlink:href="#mb7d4bbda75" x="65.855853" y="135.511448" style="stroke: #000000; stroke-width: 0.3"/>
      </g>
     </g>
     <g id="text_2">
      <!-- −15 -->
      <g transform="translate(59.140853 147.511448) scale(0.08 -0.08)">
       <defs>
        <path id="Roboto-Light-31" d="M 2169 0 
L 1794 0 
L 1794 4100 
L 556 3641 
L 556 3991 
L 2106 4566 
L 2169 4566 
L 2169 0 
z
" transform="scale(0.015625)"/>
        <path id="Roboto-Light-35" d="M 681 2331 
L 903 4550 
L 3178 4550 
L 3178 4203 
L 1225 4203 
L 1066 2666 
Q 1431 2916 1922 2916 
Q 2538 2916 2903 2516 
Q 3269 2116 3269 1450 
Q 3269 731 2912 334 
Q 2556 -63 1909 -63 
Q 1316 -63 947 268 
Q 578 600 525 1197 
L 884 1197 
Q 938 731 1200 492 
Q 1463 253 1909 253 
Q 2397 253 2645 562 
Q 2894 872 2894 1444 
Q 2894 1944 2616 2259 
Q 2338 2575 1856 2575 
Q 1591 2575 1394 2508 
Q 1197 2441 978 2247 
L 681 2331 
z
" transform="scale(0.015625)"/>
       </defs>
       <use xlink:href="#Roboto-Light-2212"/>
       <use xlink:href="#Roboto-Light-31" transform="translate(57.03125 0)"/>
       <use xlink:href="#Roboto-Light-35" transform="translate(112.451172 0)"/>
      </g>
     </g>
    </g>
    <g id="xtick_3">
     <g id="line2d_4">
      <g>
       <use xlink:href="#mb7d4bbda75" x="102.820579" y="135.511448" style="stroke: #000000; stroke-width: 0.3"/>
      </g>
     </g>
     <g id="text_3">
      <!-- −10 -->
      <g transform="translate(96.105579 147.511448) scale(0.08 -0.08)">
       <use xlink:href="#Roboto-Light-2212"/>
       <use xlink:href="#Roboto-Light-31" transform="translate(57.03125 0)"/>
       <use xlink:href="#Roboto-Light-30" transform="translate(112.451172 0)"/>
      </g>
     </g>
    </g>
    <g id="xtick_4">
     <g id="line2d_5">
      <g>
       <use xlink:href="#mb7d4bbda75" x="139.785305" y="135.511448" style="stroke: #000000; stroke-width: 0.3"/>
      </g>
     </g>
     <g id="text_4">
      <!-- −5 -->
      <g transform="translate(135.28718 147.511448) scale(0.08 -0.08)">
       <use xlink:href="#Roboto-Light-2212"/>
       <use xlink:href="#Roboto-Light-35" transform="translate(57.03125 0)"/>
      </g>
     </g>
    </g>
    <g id="xtick_5">
     <g id="line2d_6">
      <g>
       <use xlink:href="#mb7d4bbda75" x="176.750031" y="135.511448" style="stroke: #000000; stroke-width: 0.3"/>
      </g>
     </g>
     <g id="text_5">
      <!-- 0 -->
      <g transform="translate(174.533156 147.511448) scale(0.08 -0.08)">
       <use xlink:href="#Roboto-Light-30"/>
      </g>
     </g>
    </g>
    <g id="xtick_6">
     <g id="line2d_7">
      <g>
       <use xlink:href="#mb7d4bbda75" x="213.714757" y="135.511448" style="stroke: #000000; stroke-width: 0.3"/>
      </g>
     </g>
     <g id="text_6">
      <!-- 5 -->
      <g transform="translate(211.497882 147.511448) scale(0.08 -0.08)">
       <use xlink:href="#Roboto-Light-35"/>
      </g>
     </g>
    </g>
    <g id="xtick_7">
     <g id="line2d_8">
      <g>
       <use xlink:href="#mb7d4bbda75" x="250.679482" y="135.511448" style="stroke: #000000; stroke-width: 0.3"/>
      </g>
     </g>
     <g id="text_7">
      <!-- 10 -->
      <g transform="translate(246.245732 147.511448) scale(0.08 -0.08)">
       <use xlink:href="#Roboto-Light-31"/>
       <use xlink:href="#Roboto-Light-30" transform="translate(55.419922 0)"/>
      </g>
     </g>
    </g>
    <g id="text_8">
     <!-- Environmental temperature [°C] -->
     <g transform="translate(77.31968 162.448948) scale(0.09 -0.09)">
      <defs>
       <path id="Roboto-Regular-45" d="M 3100 2103 
L 1128 2103 
L 1128 491 
L 3419 491 
L 3419 0 
L 528 0 
L 528 4550 
L 3388 4550 
L 3388 4056 
L 1128 4056 
L 1128 2594 
L 3100 2594 
L 3100 2103 
z
" transform="scale(0.015625)"/>
       <path id="Roboto-Regular-6e" d="M 984 3381 
L 1003 2956 
Q 1391 3444 2016 3444 
Q 3088 3444 3097 2234 
L 3097 0 
L 2519 0 
L 2519 2238 
Q 2516 2603 2352 2778 
Q 2188 2953 1841 2953 
Q 1559 2953 1346 2803 
Q 1134 2653 1016 2409 
L 1016 0 
L 438 0 
L 438 3381 
L 984 3381 
z
" transform="scale(0.015625)"/>
       <path id="Roboto-Regular-76" d="M 1553 784 
L 2391 3381 
L 2981 3381 
L 1769 0 
L 1328 0 
L 103 3381 
L 694 3381 
L 1553 784 
z
" transform="scale(0.015625)"/>
       <path id="Roboto-Regular-69" d="M 1066 0 
L 488 0 
L 488 3381 
L 1066 3381 
L 1066 0 
z
M 441 4278 
Q 441 4419 527 4516 
Q 613 4613 781 4613 
Q 950 4613 1037 4516 
Q 1125 4419 1125 4278 
Q 1125 4138 1037 4044 
Q 950 3950 781 3950 
Q 613 3950 527 4044 
Q 441 4138 441 4278 
z
" transform="scale(0.015625)"/>
       <path id="Roboto-Regular-72" d="M 2072 2863 
Q 1941 2884 1788 2884 
Q 1219 2884 1016 2400 
L 1016 0 
L 438 0 
L 438 3381 
L 1000 3381 
L 1009 2991 
Q 1294 3444 1816 3444 
Q 1984 3444 2072 3400 
L 2072 2863 
z
" transform="scale(0.015625)"/>
       <path id="Roboto-Regular-6f" d="M 284 1722 
Q 284 2219 479 2616 
Q 675 3013 1023 3228 
Q 1372 3444 1819 3444 
Q 2509 3444 2936 2966 
Q 3363 2488 3363 1694 
L 3363 1653 
Q 3363 1159 3173 767 
Q 2984 375 2632 156 
Q 2281 -63 1825 -63 
Q 1138 -63 711 415 
Q 284 894 284 1681 
L 284 1722 
z
M 866 1653 
Q 866 1091 1127 750 
Q 1388 409 1825 409 
Q 2266 409 2525 754 
Q 2784 1100 2784 1722 
Q 2784 2278 2520 2623 
Q 2256 2969 1819 2969 
Q 1391 2969 1128 2628 
Q 866 2288 866 1653 
z
" transform="scale(0.015625)"/>
       <path id="Roboto-Regular-6d" d="M 981 3381 
L 997 3006 
Q 1369 3444 2000 3444 
Q 2709 3444 2966 2900 
Q 3134 3144 3404 3294 
Q 3675 3444 4044 3444 
Q 5156 3444 5175 2266 
L 5175 0 
L 4597 0 
L 4597 2231 
Q 4597 2594 4431 2773 
Q 4266 2953 3875 2953 
Q 3553 2953 3340 2761 
Q 3128 2569 3094 2244 
L 3094 0 
L 2513 0 
L 2513 2216 
Q 2513 2953 1791 2953 
Q 1222 2953 1013 2469 
L 1013 0 
L 434 0 
L 434 3381 
L 981 3381 
z
" transform="scale(0.015625)"/>
       <path id="Roboto-Regular-65" d="M 1841 -63 
Q 1153 -63 722 389 
Q 291 841 291 1597 
L 291 1703 
Q 291 2206 483 2601 
Q 675 2997 1020 3220 
Q 1366 3444 1769 3444 
Q 2428 3444 2793 3009 
Q 3159 2575 3159 1766 
L 3159 1525 
L 869 1525 
Q 881 1025 1161 717 
Q 1441 409 1872 409 
Q 2178 409 2390 534 
Q 2603 659 2763 866 
L 3116 591 
Q 2691 -63 1841 -63 
z
M 1769 2969 
Q 1419 2969 1181 2714 
Q 944 2459 888 2000 
L 2581 2000 
L 2581 2044 
Q 2556 2484 2343 2726 
Q 2131 2969 1769 2969 
z
" transform="scale(0.015625)"/>
       <path id="Roboto-Regular-74" d="M 1222 4200 
L 1222 3381 
L 1853 3381 
L 1853 2934 
L 1222 2934 
L 1222 838 
Q 1222 634 1306 532 
Q 1391 431 1594 431 
Q 1694 431 1869 469 
L 1869 0 
Q 1641 -63 1425 -63 
Q 1038 -63 841 171 
Q 644 406 644 838 
L 644 2934 
L 28 2934 
L 28 3381 
L 644 3381 
L 644 4200 
L 1222 4200 
z
" transform="scale(0.015625)"/>
       <path id="Roboto-Regular-61" d="M 2525 0 
Q 2475 100 2444 356 
Q 2041 -63 1481 -63 
Q 981 -63 661 220 
Q 341 503 341 938 
Q 341 1466 742 1758 
Q 1144 2050 1872 2050 
L 2434 2050 
L 2434 2316 
Q 2434 2619 2253 2798 
Q 2072 2978 1719 2978 
Q 1409 2978 1200 2822 
Q 991 2666 991 2444 
L 409 2444 
Q 409 2697 589 2933 
Q 769 3169 1076 3306 
Q 1384 3444 1753 3444 
Q 2338 3444 2669 3151 
Q 3000 2859 3013 2347 
L 3013 791 
Q 3013 325 3131 50 
L 3131 0 
L 2525 0 
z
M 1566 441 
Q 1838 441 2081 581 
Q 2325 722 2434 947 
L 2434 1641 
L 1981 1641 
Q 919 1641 919 1019 
Q 919 747 1100 594 
Q 1281 441 1566 441 
z
" transform="scale(0.015625)"/>
       <path id="Roboto-Regular-6c" d="M 1066 0 
L 488 0 
L 488 4800 
L 1066 4800 
L 1066 0 
z
" transform="scale(0.015625)"/>
       <path id="Roboto-Regular-20" transform="scale(0.015625)"/>
       <path id="Roboto-Regular-70" d="M 3294 1653 
Q 3294 881 2941 409 
Q 2588 -63 1984 -63 
Q 1369 -63 1016 328 
L 1016 -1300 
L 438 -1300 
L 438 3381 
L 966 3381 
L 994 3006 
Q 1347 3444 1975 3444 
Q 2584 3444 2939 2984 
Q 3294 2525 3294 1706 
L 3294 1653 
z
M 2716 1719 
Q 2716 2291 2472 2622 
Q 2228 2953 1803 2953 
Q 1278 2953 1016 2488 
L 1016 872 
Q 1275 409 1809 409 
Q 2225 409 2470 739 
Q 2716 1069 2716 1719 
z
" transform="scale(0.015625)"/>
       <path id="Roboto-Regular-75" d="M 2525 334 
Q 2188 -63 1534 -63 
Q 994 -63 711 251 
Q 428 566 425 1181 
L 425 3381 
L 1003 3381 
L 1003 1197 
Q 1003 428 1628 428 
Q 2291 428 2509 922 
L 2509 3381 
L 3088 3381 
L 3088 0 
L 2538 0 
L 2525 334 
z
" transform="scale(0.015625)"/>
       <path id="Roboto-Regular-5b" d="M 1634 4725 
L 1038 4725 
L 1038 -500 
L 1634 -500 
L 1634 -975 
L 456 -975 
L 456 5200 
L 1634 5200 
L 1634 4725 
z
" transform="scale(0.015625)"/>
       <path id="Roboto-Regular-b0" d="M 406 3800 
Q 406 4125 639 4369 
Q 872 4613 1203 4613 
Q 1528 4613 1758 4370 
Q 1988 4128 1988 3800 
Q 1988 3469 1758 3234 
Q 1528 3000 1203 3000 
Q 875 3000 640 3234 
Q 406 3469 406 3800 
z
M 1203 3400 
Q 1372 3400 1487 3511 
Q 1603 3622 1603 3800 
Q 1603 3981 1487 4098 
Q 1372 4216 1203 4216 
Q 1031 4216 914 4092 
Q 797 3969 797 3800 
Q 797 3631 914 3515 
Q 1031 3400 1203 3400 
z
" transform="scale(0.015625)"/>
       <path id="Roboto-Regular-43" d="M 3875 1444 
Q 3791 722 3342 329 
Q 2894 -63 2150 -63 
Q 1344 -63 858 515 
Q 372 1094 372 2063 
L 372 2500 
Q 372 3134 598 3615 
Q 825 4097 1240 4355 
Q 1656 4613 2203 4613 
Q 2928 4613 3365 4208 
Q 3803 3803 3875 3088 
L 3272 3088 
Q 3194 3631 2933 3875 
Q 2672 4119 2203 4119 
Q 1628 4119 1301 3694 
Q 975 3269 975 2484 
L 975 2044 
Q 975 1303 1284 865 
Q 1594 428 2150 428 
Q 2650 428 2917 654 
Q 3184 881 3272 1444 
L 3875 1444 
z
" transform="scale(0.015625)"/>
       <path id="Roboto-Regular-5d" d="M 28 5200 
L 1209 5200 
L 1209 -975 
L 28 -975 
L 28 -500 
L 631 -500 
L 631 4725 
L 28 4725 
L 28 5200 
z
" transform="scale(0.015625)"/>
      </defs>
      <use xlink:href="#Roboto-Regular-45"/>
      <use xlink:href="#Roboto-Regular-6e" transform="translate(56.835938 0)"/>
      <use xlink:href="#Roboto-Regular-76" transform="translate(112.011719 0)"/>
      <use xlink:href="#Roboto-Regular-69" transform="translate(160.449219 0)"/>
      <use xlink:href="#Roboto-Regular-72" transform="translate(184.716797 0)"/>
      <use xlink:href="#Roboto-Regular-6f" transform="translate(218.554688 0)"/>
      <use xlink:href="#Roboto-Regular-6e" transform="translate(275.585938 0)"/>
      <use xlink:href="#Roboto-Regular-6d" transform="translate(330.761719 0)"/>
      <use xlink:href="#Roboto-Regular-65" transform="translate(418.408203 0)"/>
      <use xlink:href="#Roboto-Regular-6e" transform="translate(471.386719 0)"/>
      <use xlink:href="#Roboto-Regular-74" transform="translate(526.5625 0)"/>
      <use xlink:href="#Roboto-Regular-61" transform="translate(559.228516 0)"/>
      <use xlink:href="#Roboto-Regular-6c" transform="translate(613.623047 0)"/>
      <use xlink:href="#Roboto-Regular-20" transform="translate(637.890625 0)"/>
      <use xlink:href="#Roboto-Regular-74" transform="translate(662.646484 0)"/>
      <use xlink:href="#Roboto-Regular-65" transform="translate(695.3125 0)"/>
      <use xlink:href="#Roboto-Regular-6d" transform="translate(748.291016 0)"/>
      <use xlink:href="#Roboto-Regular-70" transform="translate(835.9375 0)"/>
      <use xlink:href="#Roboto-Regular-65" transform="translate(892.041016 0)"/>
      <use xlink:href="#Roboto-Regular-72" transform="translate(945.019531 0)"/>
      <use xlink:href="#Roboto-Regular-61" transform="translate(978.857422 0)"/>
      <use xlink:href="#Roboto-Regular-74" transform="translate(1033.251953 0)"/>
      <use xlink:href="#Roboto-Regular-75" transform="translate(1065.917969 0)"/>
      <use xlink:href="#Roboto-Regular-72" transform="translate(1121.044922 0)"/>
      <use xlink:href="#Roboto-Regular-65" transform="translate(1154.882812 0)"/>
      <use xlink:href="#Roboto-Regular-20" transform="translate(1207.861328 0)"/>
      <use xlink:href="#Roboto-Regular-5b" transform="translate(1232.617188 0)"/>
      <use xlink:href="#Roboto-Regular-b0" transform="translate(1259.130859 0)"/>
      <use xlink:href="#Roboto-Regular-43" transform="translate(1296.484375 0)"/>
      <use xlink:href="#Roboto-Regular-5d" transform="translate(1361.572266 0)"/>
     </g>
    </g>
   </g>
   <g id="matplotlib.axis_2">
    <g id="ytick_1">
     <g id="line2d_9">
      <defs>
       <path id="m0c8089770e" d="M 0 0 
L -2 0 
" style="stroke: #2f9e44; stroke-width: 0.3"/>
      </defs>
      <g>
       <use xlink:href="#m0c8089770e" x="28.891128" y="135.511448" style="fill: #2f9e44; stroke: #2f9e44; stroke-width: 0.3"/>
      </g>
     </g>
     <g id="text_9">
      <!-- 0 -->
      <g style="fill: #2f9e44" transform="translate(18.457378 138.511448) scale(0.08 -0.08)">
       <use xlink:href="#Roboto-Light-30"/>
      </g>
     </g>
    </g>
    <g id="ytick_2">
     <g id="line2d_10">
      <g>
       <use xlink:href="#m0c8089770e" x="28.891128" y="114.021201" style="fill: #2f9e44; stroke: #2f9e44; stroke-width: 0.3"/>
      </g>
     </g>
     <g id="text_10">
      <!-- 1 -->
      <g style="fill: #2f9e44" transform="translate(18.457378 117.021201) scale(0.08 -0.08)">
       <use xlink:href="#Roboto-Light-31"/>
      </g>
     </g>
    </g>
    <g id="ytick_3">
     <g id="line2d_11">
      <g>
       <use xlink:href="#m0c8089770e" x="28.891128" y="92.530953" style="fill: #2f9e44; stroke: #2f9e44; stroke-width: 0.3"/>
      </g>
     </g>
     <g id="text_11">
      <!-- 2 -->
      <g style="fill: #2f9e44" transform="translate(18.457378 95.530953) scale(0.08 -0.08)">
       <use xlink:href="#Roboto-Light-32"/>
      </g>
     </g>
    </g>
    <g id="ytick_4">
     <g id="line2d_12">
      <g>
       <use xlink:href="#m0c8089770e" x="28.891128" y="71.040706" style="fill: #2f9e44; stroke: #2f9e44; stroke-width: 0.3"/>
      </g>
     </g>
     <g id="text_12">
      <!-- 3 -->
      <g style="fill: #2f9e44" transform="translate(18.457378 74.040706) scale(0.08 -0.08)">
       <defs>
        <path id="Roboto-Light-33" d="M 1259 2478 
L 1647 2478 
Q 1969 2478 2209 2592 
Q 2450 2706 2576 2904 
Q 2703 3103 2703 3363 
Q 2703 3800 2456 4047 
Q 2209 4294 1747 4294 
Q 1309 4294 1029 4036 
Q 750 3778 750 3356 
L 375 3356 
Q 375 3709 553 4001 
Q 731 4294 1047 4453 
Q 1363 4613 1747 4613 
Q 2366 4613 2722 4275 
Q 3078 3938 3078 3350 
Q 3078 3022 2870 2745 
Q 2663 2469 2300 2331 
Q 2725 2213 2944 1923 
Q 3163 1634 3163 1234 
Q 3163 650 2781 293 
Q 2400 -63 1763 -63 
Q 1356 -63 1017 100 
Q 678 263 492 555 
Q 306 847 306 1234 
L 681 1234 
Q 681 800 984 526 
Q 1288 253 1763 253 
Q 2247 253 2517 501 
Q 2788 750 2788 1222 
Q 2788 1678 2495 1918 
Q 2203 2159 1634 2159 
L 1259 2159 
L 1259 2478 
z
" transform="scale(0.015625)"/>
       </defs>
       <use xlink:href="#Roboto-Light-33"/>
      </g>
     </g>
    </g>
    <g id="ytick_5">
     <g id="line2d_13">
      <g>
       <use xlink:href="#m0c8089770e" x="28.891128" y="49.550458" style="fill: #2f9e44; stroke: #2f9e44; stroke-width: 0.3"/>
      </g>
     </g>
     <g id="text_13">
      <!-- 4 -->
      <g style="fill: #2f9e44" transform="translate(18.457378 52.550458) scale(0.08 -0.08)">
       <defs>
        <path id="Roboto-Light-34" d="M 2725 1466 
L 3434 1466 
L 3434 1150 
L 2725 1150 
L 2725 0 
L 2350 0 
L 2350 1150 
L 209 1150 
L 209 1363 
L 2316 4550 
L 2725 4550 
L 2725 1466 
z
M 669 1466 
L 2350 1466 
L 2350 4066 
L 2184 3778 
L 669 1466 
z
" transform="scale(0.015625)"/>
       </defs>
       <use xlink:href="#Roboto-Light-34"/>
      </g>
     </g>
    </g>
    <g id="ytick_6">
     <g id="line2d_14">
      <g>
       <use xlink:href="#m0c8089770e" x="28.891128" y="28.060211" style="fill: #2f9e44; stroke: #2f9e44; stroke-width: 0.3"/>
      </g>
     </g>
     <g id="text_14">
      <!-- 5 -->
      <g style="fill: #2f9e44" transform="translate(18.457378 31.060211) scale(0.08 -0.08)">
       <use xlink:href="#Roboto-Light-35"/>
      </g>
     </g>
    </g>
    <g id="ytick_7">
     <g id="line2d_15">
      <g>
       <use xlink:href="#m0c8089770e" x="28.891128" y="6.569963" style="fill: #2f9e44; stroke: #2f9e44; stroke-width: 0.3"/>
      </g>
     </g>
     <g id="text_15">
      <!-- 6 -->
      <g style="fill: #2f9e44" transform="translate(18.457378 9.569963) scale(0.08 -0.08)">
       <defs>
        <path id="Roboto-Light-36" d="M 2634 4584 
L 2634 4256 
L 2591 4256 
Q 1775 4256 1306 3776 
Q 838 3297 788 2444 
Q 975 2703 1265 2845 
Q 1556 2988 1916 2988 
Q 2516 2988 2870 2573 
Q 3225 2159 3225 1491 
Q 3225 1047 3059 690 
Q 2894 334 2584 135 
Q 2275 -63 1878 -63 
Q 1225 -63 815 410 
Q 406 884 406 1634 
L 406 2009 
Q 406 3231 962 3901 
Q 1519 4572 2541 4584 
L 2634 4584 
z
M 1856 2666 
Q 1500 2666 1192 2455 
Q 884 2244 781 1919 
L 781 1600 
Q 781 1006 1086 631 
Q 1391 256 1878 256 
Q 2316 256 2586 603 
Q 2856 950 2856 1478 
Q 2856 2016 2586 2341 
Q 2316 2666 1856 2666 
z
" transform="scale(0.015625)"/>
       </defs>
       <use xlink:href="#Roboto-Light-36"/>
      </g>
     </g>
    </g>
    <g id="text_16">
     <!-- Coefficient of performance [-] -->
     <g style="fill: #2f9e44" transform="translate(10.629253 129.717893) rotate(-90) scale(0.09 -0.09)">
      <defs>
       <path id="Roboto-Regular-66" d="M 722 0 
L 722 2934 
L 188 2934 
L 188 3381 
L 722 3381 
L 722 3728 
Q 722 4272 1012 4569 
Q 1303 4866 1834 4866 
Q 2034 4866 2231 4813 
L 2200 4344 
Q 2053 4372 1888 4372 
Q 1606 4372 1453 4208 
Q 1300 4044 1300 3738 
L 1300 3381 
L 2022 3381 
L 2022 2934 
L 1300 2934 
L 1300 0 
L 722 0 
z
" transform="scale(0.015625)"/>
       <path id="Roboto-Regular-63" d="M 1794 409 
Q 2103 409 2334 596 
Q 2566 784 2591 1066 
L 3138 1066 
Q 3122 775 2937 512 
Q 2753 250 2445 93 
Q 2138 -63 1794 -63 
Q 1103 -63 695 398 
Q 288 859 288 1659 
L 288 1756 
Q 288 2250 469 2634 
Q 650 3019 989 3231 
Q 1328 3444 1791 3444 
Q 2359 3444 2736 3103 
Q 3113 2763 3138 2219 
L 2591 2219 
Q 2566 2547 2342 2758 
Q 2119 2969 1791 2969 
Q 1350 2969 1108 2651 
Q 866 2334 866 1734 
L 866 1625 
Q 866 1041 1106 725 
Q 1347 409 1794 409 
z
" transform="scale(0.015625)"/>
       <path id="Roboto-Regular-2d" d="M 1641 1697 
L 116 1697 
L 116 2169 
L 1641 2169 
L 1641 1697 
z
" transform="scale(0.015625)"/>
      </defs>
      <use xlink:href="#Roboto-Regular-43"/>
      <use xlink:href="#Roboto-Regular-6f" transform="translate(65.087891 0)"/>
      <use xlink:href="#Roboto-Regular-65" transform="translate(122.119141 0)"/>
      <use xlink:href="#Roboto-Regular-66" transform="translate(175.097656 0)"/>
      <use xlink:href="#Roboto-Regular-66" transform="translate(209.814453 0)"/>
      <use xlink:href="#Roboto-Regular-69" transform="translate(244.53125 0)"/>
      <use xlink:href="#Roboto-Regular-63" transform="translate(268.798828 0)"/>
      <use xlink:href="#Roboto-Regular-69" transform="translate(321.142578 0)"/>
      <use xlink:href="#Roboto-Regular-65" transform="translate(345.410156 0)"/>
      <use xlink:href="#Roboto-Regular-6e" transform="translate(398.388672 0)"/>
      <use xlink:href="#Roboto-Regular-74" transform="translate(453.564453 0)"/>
      <use xlink:href="#Roboto-Regular-20" transform="translate(486.230469 0)"/>
      <use xlink:href="#Roboto-Regular-6f" transform="translate(510.986328 0)"/>
      <use xlink:href="#Roboto-Regular-66" transform="translate(568.017578 0)"/>
      <use xlink:href="#Roboto-Regular-20" transform="translate(602.734375 0)"/>
      <use xlink:href="#Roboto-Regular-70" transform="translate(627.490234 0)"/>
      <use xlink:href="#Roboto-Regular-65" transform="translate(683.59375 0)"/>
      <use xlink:href="#Roboto-Regular-72" transform="translate(736.572266 0)"/>
      <use xlink:href="#Roboto-Regular-66" transform="translate(770.410156 0)"/>
      <use xlink:href="#Roboto-Regular-6f" transform="translate(805.126953 0)"/>
      <use xlink:href="#Roboto-Regular-72" transform="translate(862.158203 0)"/>
      <use xlink:href="#Roboto-Regular-6d" transform="translate(895.996094 0)"/>
      <use xlink:href="#Roboto-Regular-61" transform="translate(983.642578 0)"/>
      <use xlink:href="#Roboto-Regular-6e" transform="translate(1038.037109 0)"/>
      <use xlink:href="#Roboto-Regular-63" transform="translate(1093.212891 0)"/>
      <use xlink:href="#Roboto-Regular-65" transform="translate(1145.556641 0)"/>
      <use xlink:href="#Roboto-Regular-20" transform="translate(1198.535156 0)"/>
      <use xlink:href="#Roboto-Regular-5b" transform="translate(1223.291016 0)"/>
      <use xlink:href="#Roboto-Regular-2d" transform="translate(1249.804688 0)"/>
      <use xlink:href="#Roboto-Regular-5d" transform="translate(1277.392578 0)"/>
     </g>
    </g>
   </g>
   <g id="legend_1">
    <g id="line2d_16">
     <path d="M 35.641128 9.950233 
L 43.141128 9.950233 
L 50.641128 9.950233 
" style="fill: none; stroke: #69db7c; stroke-linecap: square"/>
    </g>
    <g id="text_17">
     <!-- Coefficient of performance -->
     <g transform="translate(55.141128 12.575233) scale(0.075 -0.075)">
      <defs>
       <path id="Roboto-Light-43" d="M 3797 1419 
Q 3719 700 3283 318 
Q 2847 -63 2122 -63 
Q 1616 -63 1227 190 
Q 838 444 625 908 
Q 413 1372 409 1969 
L 409 2559 
Q 409 3166 621 3634 
Q 834 4103 1232 4358 
Q 1631 4613 2150 4613 
Q 2881 4613 3304 4217 
Q 3728 3822 3797 3125 
L 3409 3125 
Q 3266 4284 2150 4284 
Q 1531 4284 1164 3821 
Q 797 3359 797 2544 
L 797 1988 
Q 797 1200 1155 731 
Q 1513 263 2122 263 
Q 2725 263 3031 552 
Q 3338 841 3409 1419 
L 3797 1419 
z
" transform="scale(0.015625)"/>
       <path id="Roboto-Light-6f" d="M 281 1741 
Q 281 2228 470 2618 
Q 659 3009 1004 3226 
Q 1350 3444 1788 3444 
Q 2463 3444 2881 2970 
Q 3300 2497 3300 1716 
L 3300 1638 
Q 3300 1147 3111 755 
Q 2922 363 2578 150 
Q 2234 -63 1794 -63 
Q 1122 -63 701 410 
Q 281 884 281 1666 
L 281 1741 
z
M 656 1638 
Q 656 1031 970 642 
Q 1284 253 1794 253 
Q 2300 253 2614 642 
Q 2928 1031 2928 1669 
L 2928 1741 
Q 2928 2128 2784 2450 
Q 2641 2772 2381 2948 
Q 2122 3125 1788 3125 
Q 1288 3125 972 2733 
Q 656 2341 656 1706 
L 656 1638 
z
" transform="scale(0.015625)"/>
       <path id="Roboto-Light-65" d="M 1797 -63 
Q 1366 -63 1017 150 
Q 669 363 475 742 
Q 281 1122 281 1594 
L 281 1728 
Q 281 2216 470 2606 
Q 659 2997 996 3220 
Q 1334 3444 1728 3444 
Q 2344 3444 2705 3023 
Q 3066 2603 3066 1875 
L 3066 1666 
L 653 1666 
L 653 1594 
Q 653 1019 983 636 
Q 1313 253 1813 253 
Q 2113 253 2342 362 
Q 2572 472 2759 713 
L 2994 534 
Q 2581 -63 1797 -63 
z
M 1728 3125 
Q 1306 3125 1017 2815 
Q 728 2506 666 1984 
L 2694 1984 
L 2694 2025 
Q 2678 2513 2415 2819 
Q 2153 3125 1728 3125 
z
" transform="scale(0.015625)"/>
       <path id="Roboto-Light-66" d="M 756 0 
L 756 3075 
L 197 3075 
L 197 3381 
L 756 3381 
L 756 3791 
Q 756 4309 1020 4587 
Q 1284 4866 1756 4866 
Q 1969 4866 2153 4813 
L 2125 4500 
Q 1969 4538 1784 4538 
Q 1475 4538 1303 4345 
Q 1131 4153 1131 3800 
L 1131 3381 
L 1938 3381 
L 1938 3075 
L 1131 3075 
L 1131 0 
L 756 0 
z
" transform="scale(0.015625)"/>
       <path id="Roboto-Light-69" d="M 906 0 
L 531 0 
L 531 3381 
L 906 3381 
L 906 0 
z
M 466 4359 
Q 466 4466 534 4539 
Q 603 4613 722 4613 
Q 841 4613 911 4539 
Q 981 4466 981 4359 
Q 981 4253 911 4181 
Q 841 4109 722 4109 
Q 603 4109 534 4181 
Q 466 4253 466 4359 
z
" transform="scale(0.015625)"/>
       <path id="Roboto-Light-63" d="M 1738 253 
Q 2128 253 2392 473 
Q 2656 694 2678 1044 
L 3038 1044 
Q 3022 734 2844 479 
Q 2666 225 2370 81 
Q 2075 -63 1738 -63 
Q 1072 -63 683 400 
Q 294 863 294 1644 
L 294 1756 
Q 294 2256 469 2640 
Q 644 3025 970 3234 
Q 1297 3444 1734 3444 
Q 2291 3444 2652 3112 
Q 3013 2781 3038 2241 
L 2678 2241 
Q 2653 2638 2392 2881 
Q 2131 3125 1734 3125 
Q 1228 3125 948 2759 
Q 669 2394 669 1734 
L 669 1625 
Q 669 978 948 615 
Q 1228 253 1738 253 
z
" transform="scale(0.015625)"/>
       <path id="Roboto-Light-6e" d="M 844 3381 
L 856 2803 
Q 1047 3116 1331 3280 
Q 1616 3444 1959 3444 
Q 2503 3444 2768 3137 
Q 3034 2831 3038 2219 
L 3038 0 
L 2666 0 
L 2666 2222 
Q 2663 2675 2473 2897 
Q 2284 3119 1869 3119 
Q 1522 3119 1255 2901 
Q 988 2684 859 2316 
L 859 0 
L 488 0 
L 488 3381 
L 844 3381 
z
" transform="scale(0.015625)"/>
       <path id="Roboto-Light-74" d="M 1069 4247 
L 1069 3381 
L 1769 3381 
L 1769 3075 
L 1069 3075 
L 1069 822 
Q 1069 541 1170 403 
Q 1272 266 1509 266 
Q 1603 266 1813 297 
L 1828 -9 
Q 1681 -63 1428 -63 
Q 1044 -63 869 160 
Q 694 384 694 819 
L 694 3075 
L 72 3075 
L 72 3381 
L 694 3381 
L 694 4247 
L 1069 4247 
z
" transform="scale(0.015625)"/>
       <path id="Roboto-Light-20" transform="scale(0.015625)"/>
       <path id="Roboto-Light-70" d="M 3206 1656 
Q 3206 866 2856 401 
Q 2506 -63 1919 -63 
Q 1225 -63 856 425 
L 856 -1300 
L 484 -1300 
L 484 3381 
L 831 3381 
L 850 2903 
Q 1216 3444 1909 3444 
Q 2516 3444 2861 2984 
Q 3206 2525 3206 1709 
L 3206 1656 
z
M 2831 1722 
Q 2831 2369 2565 2744 
Q 2300 3119 1825 3119 
Q 1481 3119 1234 2953 
Q 988 2788 856 2472 
L 856 850 
Q 991 559 1241 406 
Q 1491 253 1831 253 
Q 2303 253 2567 629 
Q 2831 1006 2831 1722 
z
" transform="scale(0.015625)"/>
       <path id="Roboto-Light-72" d="M 2050 3063 
Q 1931 3084 1797 3084 
Q 1447 3084 1205 2889 
Q 963 2694 859 2322 
L 859 0 
L 488 0 
L 488 3381 
L 853 3381 
L 859 2844 
Q 1156 3444 1813 3444 
Q 1969 3444 2059 3403 
L 2050 3063 
z
" transform="scale(0.015625)"/>
       <path id="Roboto-Light-6d" d="M 828 3381 
L 841 2831 
Q 1028 3138 1309 3291 
Q 1591 3444 1934 3444 
Q 2734 3444 2950 2788 
Q 3131 3103 3434 3273 
Q 3738 3444 4103 3444 
Q 5191 3444 5213 2256 
L 5213 0 
L 4838 0 
L 4838 2228 
Q 4834 2681 4642 2900 
Q 4450 3119 4016 3119 
Q 3613 3113 3334 2858 
Q 3056 2603 3025 2238 
L 3025 0 
L 2650 0 
L 2650 2256 
Q 2647 2691 2445 2905 
Q 2244 3119 1825 3119 
Q 1472 3119 1219 2917 
Q 966 2716 844 2319 
L 844 0 
L 469 0 
L 469 3381 
L 828 3381 
z
" transform="scale(0.015625)"/>
       <path id="Roboto-Light-61" d="M 2622 0 
Q 2566 159 2550 472 
Q 2353 216 2048 76 
Q 1744 -63 1403 -63 
Q 916 -63 614 209 
Q 313 481 313 897 
Q 313 1391 723 1678 
Q 1134 1966 1869 1966 
L 2547 1966 
L 2547 2350 
Q 2547 2713 2323 2920 
Q 2100 3128 1672 3128 
Q 1281 3128 1025 2928 
Q 769 2728 769 2447 
L 394 2450 
Q 394 2853 769 3148 
Q 1144 3444 1691 3444 
Q 2256 3444 2582 3161 
Q 2909 2878 2919 2372 
L 2919 772 
Q 2919 281 3022 38 
L 3022 0 
L 2622 0 
z
M 1447 269 
Q 1822 269 2117 450 
Q 2413 631 2547 934 
L 2547 1678 
L 1878 1678 
Q 1319 1672 1003 1473 
Q 688 1275 688 928 
Q 688 644 898 456 
Q 1109 269 1447 269 
z
" transform="scale(0.015625)"/>
      </defs>
      <use xlink:href="#Roboto-Light-43"/>
      <use xlink:href="#Roboto-Light-6f" transform="translate(64.941406 0)"/>
      <use xlink:href="#Roboto-Light-65" transform="translate(120.947266 0)"/>
      <use xlink:href="#Roboto-Light-66" transform="translate(172.607422 0)"/>
      <use xlink:href="#Roboto-Light-66" transform="translate(205.712891 0)"/>
      <use xlink:href="#Roboto-Light-69" transform="translate(238.818359 0)"/>
      <use xlink:href="#Roboto-Light-63" transform="translate(261.230469 0)"/>
      <use xlink:href="#Roboto-Light-69" transform="translate(312.744141 0)"/>
      <use xlink:href="#Roboto-Light-65" transform="translate(335.15625 0)"/>
      <use xlink:href="#Roboto-Light-6e" transform="translate(386.816406 0)"/>
      <use xlink:href="#Roboto-Light-74" transform="translate(441.748047 0)"/>
      <use xlink:href="#Roboto-Light-20" transform="translate(473.876953 0)"/>
      <use xlink:href="#Roboto-Light-6f" transform="translate(498.193359 0)"/>
      <use xlink:href="#Roboto-Light-66" transform="translate(554.199219 0)"/>
      <use xlink:href="#Roboto-Light-20" transform="translate(587.304688 0)"/>
      <use xlink:href="#Roboto-Light-70" transform="translate(611.621094 0)"/>
      <use xlink:href="#Roboto-Light-65" transform="translate(667.041016 0)"/>
      <use xlink:href="#Roboto-Light-72" transform="translate(718.701172 0)"/>
      <use xlink:href="#Roboto-Light-66" transform="translate(752.34375 0)"/>
      <use xlink:href="#Roboto-Light-6f" transform="translate(785.449219 0)"/>
      <use xlink:href="#Roboto-Light-72" transform="translate(841.455078 0)"/>
      <use xlink:href="#Roboto-Light-6d" transform="translate(875.097656 0)"/>
      <use xlink:href="#Roboto-Light-61" transform="translate(963.720703 0)"/>
      <use xlink:href="#Roboto-Light-6e" transform="translate(1017.285156 0)"/>
      <use xlink:href="#Roboto-Light-63" transform="translate(1072.216797 0)"/>
      <use xlink:href="#Roboto-Light-65" transform="translate(1123.730469 0)"/>
     </g>
    </g>
    <g id="line2d_17">
     <path d="M 35.641128 20.09867 
L 43.141128 20.09867 
L 50.641128 20.09867 
" style="fill: none; stroke: #4dabf7; stroke-linecap: square"/>
    </g>
    <g id="text_18">
     <!-- Part load ratio -->
     <g transform="translate(55.141128 22.72367) scale(0.075 -0.075)">
      <defs>
       <path id="Roboto-Light-50" d="M 959 1853 
L 959 0 
L 575 0 
L 575 4550 
L 2125 4550 
Q 2834 4550 3245 4187 
Q 3656 3825 3656 3191 
Q 3656 2550 3261 2201 
Q 2866 1853 2116 1853 
L 959 1853 
z
M 959 2178 
L 2125 2178 
Q 2684 2178 2978 2443 
Q 3272 2709 3272 3184 
Q 3272 3656 2980 3936 
Q 2688 4216 2150 4222 
L 959 4222 
L 959 2178 
z
" transform="scale(0.015625)"/>
       <path id="Roboto-Light-6c" d="M 906 0 
L 531 0 
L 531 4800 
L 906 4800 
L 906 0 
z
" transform="scale(0.015625)"/>
       <path id="Roboto-Light-64" d="M 338 1722 
Q 338 2509 689 2976 
Q 1041 3444 1644 3444 
Q 2328 3444 2688 2903 
L 2688 4800 
L 3059 4800 
L 3059 0 
L 2709 0 
L 2694 450 
Q 2334 -63 1638 -63 
Q 1053 -63 695 407 
Q 338 878 338 1678 
L 338 1722 
z
M 716 1656 
Q 716 1009 975 636 
Q 1234 263 1706 263 
Q 2397 263 2688 872 
L 2688 2459 
Q 2397 3119 1713 3119 
Q 1241 3119 978 2748 
Q 716 2378 716 1656 
z
" transform="scale(0.015625)"/>
      </defs>
      <use xlink:href="#Roboto-Light-50"/>
      <use xlink:href="#Roboto-Light-61" transform="translate(61.572266 0)"/>
      <use xlink:href="#Roboto-Light-72" transform="translate(115.136719 0)"/>
      <use xlink:href="#Roboto-Light-74" transform="translate(148.779297 0)"/>
      <use xlink:href="#Roboto-Light-20" transform="translate(180.908203 0)"/>
      <use xlink:href="#Roboto-Light-6c" transform="translate(205.224609 0)"/>
      <use xlink:href="#Roboto-Light-6f" transform="translate(227.636719 0)"/>
      <use xlink:href="#Roboto-Light-61" transform="translate(283.642578 0)"/>
      <use xlink:href="#Roboto-Light-64" transform="translate(337.207031 0)"/>
      <use xlink:href="#Roboto-Light-20" transform="translate(392.773438 0)"/>
      <use xlink:href="#Roboto-Light-72" transform="translate(417.089844 0)"/>
      <use xlink:href="#Roboto-Light-61" transform="translate(450.732422 0)"/>
      <use xlink:href="#Roboto-Light-74" transform="translate(504.296875 0)"/>
      <use xlink:href="#Roboto-Light-69" transform="translate(536.425781 0)"/>
      <use xlink:href="#Roboto-Light-6f" transform="translate(558.837891 0)"/>
     </g>
    </g>
   </g>
  </g>
  <g id="axes_2">
   <g id="line2d_18">
    <path d="M 28.891128 44.556125 
L 31.131414 45.101326 
L 33.3717 45.646527 
L 35.611987 46.191728 
L 37.852273 46.736929 
L 40.09256 47.28213 
L 42.332846 47.827331 
L 44.573132 48.372532 
L 46.813419 48.917733 
L 49.053705 49.462934 
L 51.293992 50.008135 
L 53.534278 50.553336 
L 55.774565 51.098537 
L 58.014851 51.643739 
L 60.255137 52.18894 
L 62.495424 52.734141 
L 64.73571 53.279342 
L 66.975997 53.824543 
L 69.216283 54.369744 
L 71.456569 54.914945 
L 73.696856 55.460146 
L 75.937142 56.005347 
L 78.177429 56.550548 
L 80.417715 57.095749 
L 82.658001 57.64095 
L 84.898288 58.186151 
L 87.138574 58.731352 
L 89.378861 59.276553 
L 91.619147 59.821755 
L 93.859434 60.366956 
L 96.09972 60.912157 
L 98.340006 61.457358 
L 100.580293 62.002559 
L 102.820579 62.54776 
L 105.060866 63.092961 
L 107.301152 63.638162 
L 109.541438 64.183363 
L 111.781725 64.728564 
L 114.022011 65.273765 
L 116.262298 65.818966 
L 118.502584 66.364167 
L 120.74287 66.909368 
L 122.983157 67.454569 
L 125.223443 67.999771 
L 127.46373 68.544972 
L 129.704016 69.090173 
L 131.944303 69.635374 
L 134.184589 70.180575 
L 136.424875 70.725776 
L 138.665162 71.270977 
L 140.905448 71.816178 
L 143.145735 72.361379 
L 145.386021 72.90658 
L 147.626307 73.451781 
L 149.866594 73.996982 
L 152.10688 74.542183 
L 154.347167 75.087384 
L 156.587453 75.632585 
L 158.827739 76.177787 
L 161.068026 76.722988 
L 163.308312 77.268189 
L 165.548599 77.81339 
L 167.788885 78.358591 
L 170.029172 78.903792 
L 172.269458 79.448993 
L 174.509744 79.994194 
L 176.750031 80.539395 
L 178.990317 81.084596 
L 181.230604 81.629797 
L 183.47089 82.174998 
L 185.711176 82.720199 
L 187.951463 83.2654 
L 190.191749 83.810601 
L 192.432036 84.355803 
L 194.672322 84.901004 
L 196.912608 85.446205 
L 199.152895 85.991406 
L 201.393181 86.536607 
L 203.633468 87.081808 
L 205.873754 87.627009 
L 208.114041 88.17221 
L 210.354327 88.717411 
L 212.594613 89.262612 
L 214.8349 89.807813 
L 217.075186 90.353014 
L 219.315473 90.898215 
L 221.555759 91.443416 
L 223.796045 91.988617 
L 226.036332 92.533819 
L 228.276618 93.07902 
L 230.516905 93.624221 
L 232.757191 94.169422 
L 234.997477 94.714623 
L 237.237764 95.259824 
L 239.47805 95.805025 
L 241.718337 96.350226 
L 243.958623 96.895427 
L 246.19891 97.440628 
L 248.439196 97.985829 
L 250.679482 98.53103 
" clip-path="url(#p1bf1eb9a1f)" style="fill: none; stroke: #4dabf7; stroke-linecap: square"/>
   </g>
   <g id="patch_5">
    <path d="M 250.679482 135.511448 
L 250.679482 6.569963 
" style="fill: none; stroke: #0343df; stroke-width: 0.3; stroke-linejoin: miter; stroke-linecap: square"/>
   </g>
   <g id="matplotlib.axis_3">
    <g id="ytick_8">
     <g id="line2d_19">
      <defs>
       <path id="me476cfa8ce" d="M 0 0 
L 2 0 
" style="stroke: #0343df; stroke-width: 0.3"/>
      </defs>
      <g>
       <use xlink:href="#me476cfa8ce" x="250.679482" y="135.511448" style="fill: #0343df; stroke: #0343df; stroke-width: 0.3"/>
      </g>
     </g>
     <g id="text_19">
      <!-- 50 -->
      <g style="fill: #0343df" transform="translate(256.679482 138.511448) scale(0.08 -0.08)">
       <use xlink:href="#Roboto-Light-35"/>
       <use xlink:href="#Roboto-Light-30" transform="translate(55.419922 0)"/>
      </g>
     </g>
    </g>
    <g id="ytick_9">
     <g id="line2d_20">
      <g>
       <use xlink:href="#me476cfa8ce" x="250.679482" y="114.021201" style="fill: #0343df; stroke: #0343df; stroke-width: 0.3"/>
      </g>
     </g>
     <g id="text_20">
      <!-- 55 -->
      <g style="fill: #0343df" transform="translate(256.679482 117.021201) scale(0.08 -0.08)">
       <use xlink:href="#Roboto-Light-35"/>
       <use xlink:href="#Roboto-Light-35" transform="translate(55.419922 0)"/>
      </g>
     </g>
    </g>
    <g id="ytick_10">
     <g id="line2d_21">
      <g>
       <use xlink:href="#me476cfa8ce" x="250.679482" y="92.530953" style="fill: #0343df; stroke: #0343df; stroke-width: 0.3"/>
      </g>
     </g>
     <g id="text_21">
      <!-- 60 -->
      <g style="fill: #0343df" transform="translate(256.679482 95.530953) scale(0.08 -0.08)">
       <use xlink:href="#Roboto-Light-36"/>
       <use xlink:href="#Roboto-Light-30" transform="translate(55.419922 0)"/>
      </g>
     </g>
    </g>
    <g id="ytick_11">
     <g id="line2d_22">
      <g>
       <use xlink:href="#me476cfa8ce" x="250.679482" y="71.040706" style="fill: #0343df; stroke: #0343df; stroke-width: 0.3"/>
      </g>
     </g>
     <g id="text_22">
      <!-- 65 -->
      <g style="fill: #0343df" transform="translate(256.679482 74.040706) scale(0.08 -0.08)">
       <use xlink:href="#Roboto-Light-36"/>
       <use xlink:href="#Roboto-Light-35" transform="translate(55.419922 0)"/>
      </g>
     </g>
    </g>
    <g id="ytick_12">
     <g id="line2d_23">
      <g>
       <use xlink:href="#me476cfa8ce" x="250.679482" y="49.550458" style="fill: #0343df; stroke: #0343df; stroke-width: 0.3"/>
      </g>
     </g>
     <g id="text_23">
      <!-- 70 -->
      <g style="fill: #0343df" transform="translate(256.679482 52.550458) scale(0.08 -0.08)">
       <defs>
        <path id="Roboto-Light-37" d="M 3231 4334 
L 1288 0 
L 897 0 
L 2828 4231 
L 241 4231 
L 241 4550 
L 3231 4550 
L 3231 4334 
z
" transform="scale(0.015625)"/>
       </defs>
       <use xlink:href="#Roboto-Light-37"/>
       <use xlink:href="#Roboto-Light-30" transform="translate(55.419922 0)"/>
      </g>
     </g>
    </g>
    <g id="ytick_13">
     <g id="line2d_24">
      <g>
       <use xlink:href="#me476cfa8ce" x="250.679482" y="28.060211" style="fill: #0343df; stroke: #0343df; stroke-width: 0.3"/>
      </g>
     </g>
     <g id="text_24">
      <!-- 75 -->
      <g style="fill: #0343df" transform="translate(256.679482 31.060211) scale(0.08 -0.08)">
       <use xlink:href="#Roboto-Light-37"/>
       <use xlink:href="#Roboto-Light-35" transform="translate(55.419922 0)"/>
      </g>
     </g>
    </g>
    <g id="ytick_14">
     <g id="line2d_25">
      <g>
       <use xlink:href="#me476cfa8ce" x="250.679482" y="6.569963" style="fill: #0343df; stroke: #0343df; stroke-width: 0.3"/>
      </g>
     </g>
     <g id="text_25">
      <!-- 80 -->
      <g style="fill: #0343df" transform="translate(256.679482 9.569963) scale(0.08 -0.08)">
       <defs>
        <path id="Roboto-Light-38" d="M 3109 3378 
Q 3109 3025 2903 2745 
Q 2697 2466 2359 2334 
Q 2753 2200 2990 1900 
Q 3228 1600 3228 1206 
Q 3228 622 2831 279 
Q 2434 -63 1781 -63 
Q 1122 -63 726 278 
Q 331 619 331 1206 
Q 331 1594 559 1897 
Q 788 2200 1184 2334 
Q 847 2466 647 2745 
Q 447 3025 447 3378 
Q 447 3944 811 4278 
Q 1175 4613 1775 4613 
Q 2375 4613 2742 4275 
Q 3109 3938 3109 3378 
z
M 2853 1203 
Q 2853 1628 2550 1901 
Q 2247 2175 1775 2175 
Q 1303 2175 1003 1906 
Q 703 1638 703 1203 
Q 703 769 993 511 
Q 1284 253 1781 253 
Q 2266 253 2559 509 
Q 2853 766 2853 1203 
z
M 2734 3381 
Q 2734 3772 2464 4033 
Q 2194 4294 1775 4294 
Q 1350 4294 1086 4042 
Q 822 3791 822 3381 
Q 822 2981 1086 2737 
Q 1350 2494 1778 2494 
Q 2200 2494 2467 2739 
Q 2734 2984 2734 3381 
z
" transform="scale(0.015625)"/>
       </defs>
       <use xlink:href="#Roboto-Light-38"/>
       <use xlink:href="#Roboto-Light-30" transform="translate(55.419922 0)"/>
      </g>
     </g>
    </g>
    <g id="text_26">
     <!-- Part load ratio [%] -->
     <g style="fill: #0343df" transform="translate(278.402451 106.087268) rotate(-90) scale(0.09 -0.09)">
      <defs>
       <path id="Roboto-Regular-50" d="M 1128 1781 
L 1128 0 
L 528 0 
L 528 4550 
L 2206 4550 
Q 2953 4550 3376 4169 
Q 3800 3788 3800 3159 
Q 3800 2497 3386 2139 
Q 2972 1781 2200 1781 
L 1128 1781 
z
M 1128 2272 
L 2206 2272 
Q 2688 2272 2944 2498 
Q 3200 2725 3200 3153 
Q 3200 3559 2944 3803 
Q 2688 4047 2241 4056 
L 1128 4056 
L 1128 2272 
z
" transform="scale(0.015625)"/>
       <path id="Roboto-Regular-64" d="M 297 1719 
Q 297 2497 665 2970 
Q 1034 3444 1631 3444 
Q 2225 3444 2572 3038 
L 2572 4800 
L 3150 4800 
L 3150 0 
L 2619 0 
L 2591 363 
Q 2244 -63 1625 -63 
Q 1038 -63 667 418 
Q 297 900 297 1675 
L 297 1719 
z
M 875 1653 
Q 875 1078 1112 753 
Q 1350 428 1769 428 
Q 2319 428 2572 922 
L 2572 2475 
Q 2313 2953 1775 2953 
Q 1350 2953 1112 2625 
Q 875 2297 875 1653 
z
" transform="scale(0.015625)"/>
       <path id="Roboto-Regular-25" d="M 328 3675 
Q 328 4084 589 4350 
Q 850 4616 1259 4616 
Q 1675 4616 1933 4348 
Q 2191 4081 2191 3656 
L 2191 3434 
Q 2191 3022 1930 2761 
Q 1669 2500 1266 2500 
Q 859 2500 593 2761 
Q 328 3022 328 3456 
L 328 3675 
z
M 759 3434 
Q 759 3191 896 3033 
Q 1034 2875 1266 2875 
Q 1488 2875 1623 3028 
Q 1759 3181 1759 3447 
L 1759 3675 
Q 1759 3919 1625 4078 
Q 1491 4238 1259 4238 
Q 1028 4238 893 4078 
Q 759 3919 759 3663 
L 759 3434 
z
M 2544 1116 
Q 2544 1525 2805 1789 
Q 3066 2053 3475 2053 
Q 3884 2053 4146 1790 
Q 4409 1528 4409 1094 
L 4409 872 
Q 4409 463 4148 198 
Q 3888 -66 3481 -66 
Q 3075 -66 2809 195 
Q 2544 456 2544 891 
L 2544 1116 
z
M 2975 872 
Q 2975 625 3112 467 
Q 3250 309 3481 309 
Q 3706 309 3840 464 
Q 3975 619 3975 884 
L 3975 1116 
Q 3975 1363 3839 1519 
Q 3703 1675 3475 1675 
Q 3253 1675 3114 1520 
Q 2975 1366 2975 1103 
L 2975 872 
z
M 1397 344 
L 1069 550 
L 3291 4106 
L 3619 3900 
L 1397 344 
z
" transform="scale(0.015625)"/>
      </defs>
      <use xlink:href="#Roboto-Regular-50"/>
      <use xlink:href="#Roboto-Regular-61" transform="translate(63.085938 0)"/>
      <use xlink:href="#Roboto-Regular-72" transform="translate(117.480469 0)"/>
      <use xlink:href="#Roboto-Regular-74" transform="translate(151.318359 0)"/>
      <use xlink:href="#Roboto-Regular-20" transform="translate(183.984375 0)"/>
      <use xlink:href="#Roboto-Regular-6c" transform="translate(208.740234 0)"/>
      <use xlink:href="#Roboto-Regular-6f" transform="translate(233.007812 0)"/>
      <use xlink:href="#Roboto-Regular-61" transform="translate(290.039062 0)"/>
      <use xlink:href="#Roboto-Regular-64" transform="translate(344.433594 0)"/>
      <use xlink:href="#Roboto-Regular-20" transform="translate(400.830078 0)"/>
      <use xlink:href="#Roboto-Regular-72" transform="translate(425.585938 0)"/>
      <use xlink:href="#Roboto-Regular-61" transform="translate(459.423828 0)"/>
      <use xlink:href="#Roboto-Regular-74" transform="translate(513.818359 0)"/>
      <use xlink:href="#Roboto-Regular-69" transform="translate(546.484375 0)"/>
      <use xlink:href="#Roboto-Regular-6f" transform="translate(570.751953 0)"/>
      <use xlink:href="#Roboto-Regular-20" transform="translate(627.783203 0)"/>
      <use xlink:href="#Roboto-Regular-5b" transform="translate(652.539062 0)"/>
      <use xlink:href="#Roboto-Regular-25" transform="translate(679.052734 0)"/>
      <use xlink:href="#Roboto-Regular-5d" transform="translate(752.294922 0)"/>
     </g>
    </g>
   </g>
  </g>
 </g>
 <defs>
  <clipPath id="p1bf1eb9a1f">
   <rect x="28.891128" y="6.569963" width="221.788355" height="128.941485"/>
  </clipPath>
 </defs>
</svg>
