<?xml version="1.0" encoding="utf-8" standalone="no"?>
<!DOCTYPE svg PUBLIC "-//W3C//DTD SVG 1.1//EN"
  "http://www.w3.org/Graphics/SVG/1.1/DTD/svg11.dtd">
<svg xmlns:xlink="http://www.w3.org/1999/xlink" width="283.464567pt" height="113.385827pt" viewBox="0 0 283.464567 113.385827" xmlns="http://www.w3.org/2000/svg" version="1.1">
 <metadata>
  <rdf:RDF xmlns:dc="http://purl.org/dc/elements/1.1/" xmlns:cc="http://creativecommons.org/ns#" xmlns:rdf="http://www.w3.org/1999/02/22-rdf-syntax-ns#">
   <cc:Work>
    <dc:type rdf:resource="http://purl.org/dc/dcmitype/StillImage"/>
    <dc:date>2025-05-09T09:43:41.608223</dc:date>
    <dc:format>image/svg+xml</dc:format>
    <dc:creator>
     <cc:Agent>
      <dc:title>Matplotlib v3.10.0, https://matplotlib.org/</dc:title>
     </cc:Agent>
    </dc:creator>
   </cc:Work>
  </rdf:RDF>
 </metadata>
 <defs>
  <style type="text/css">*{stroke-linejoin: round; stroke-linecap: butt}</style>
 </defs>
 <g id="figure_1">
  <g id="patch_1">
   <path d="M 0 113.385827 
L 283.464567 113.385827 
L 283.464567 0 
L 0 0 
L 0 113.385827 
z
" style="fill: none"/>
  </g>
  <g id="axes_1">
   <g id="patch_2">
    <path d="M 27.006493 90.708661 
L 267.743388 90.708661 
L 267.743388 16.429427 
L 27.006493 16.429427 
L 27.006493 90.708661 
z
" style="fill: none"/>
   </g>
   <g id="line2d_1">
    <path d="M 27.006493 69.548941 
L 267.34216 32.950342 
L 267.34216 32.950342 
" clip-path="url(#pe959f383ef)" style="fill: none; stroke: #65a30d; stroke-width: 0.5; stroke-linecap: square"/>
   </g>
   <g id="patch_3">
    <path d="M 27.006493 90.708661 
L 27.006493 16.429427 
" style="fill: none; stroke: #000000; stroke-width: 0.3; stroke-linejoin: miter; stroke-linecap: square"/>
   </g>
   <g id="patch_4">
    <path d="M 27.006493 90.708661 
L 267.743388 90.708661 
" style="fill: none; stroke: #000000; stroke-width: 0.3; stroke-linejoin: miter; stroke-linecap: square"/>
   </g>
   <g id="matplotlib.axis_1">
    <g id="xtick_1">
     <g id="line2d_2">
      <defs>
       <path id="m993d406d04" d="M 0 0 
L 0 2 
" style="stroke: #000000; stroke-width: 0.3"/>
      </defs>
      <g>
       <use xlink:href="#m993d406d04" x="27.006493" y="90.708661" style="stroke: #000000; stroke-width: 0.3"/>
      </g>
     </g>
     <g id="text_1">
      <!-- 200 -->
      <g transform="translate(21.60286 99.583661) scale(0.065 -0.065)">
       <defs>
        <path id="Roboto-Light-32" d="M 3278 0 
L 428 0 
L 428 288 
L 1988 2056 
Q 2375 2503 2525 2793 
Q 2675 3084 2675 3359 
Q 2675 3791 2422 4042 
Q 2169 4294 1725 4294 
Q 1266 4294 983 4000 
Q 700 3706 700 3238 
L 328 3238 
Q 328 3622 501 3937 
Q 675 4253 995 4433 
Q 1316 4613 1725 4613 
Q 2350 4613 2701 4284 
Q 3053 3956 3053 3391 
Q 3053 3072 2854 2694 
Q 2656 2316 2156 1750 
L 888 316 
L 3278 316 
L 3278 0 
z
" transform="scale(0.015625)"/>
        <path id="Roboto-Light-30" d="M 3172 1897 
Q 3172 934 2819 435 
Q 2466 -63 1778 -63 
Q 1103 -63 743 426 
Q 384 916 375 1850 
L 375 2666 
Q 375 3625 731 4119 
Q 1088 4613 1772 4613 
Q 2447 4613 2803 4136 
Q 3159 3659 3172 2731 
L 3172 1897 
z
M 2797 2713 
Q 2797 3494 2542 3894 
Q 2288 4294 1772 4294 
Q 1266 4294 1009 3903 
Q 753 3513 747 2750 
L 747 1856 
Q 747 1078 1011 665 
Q 1275 253 1778 253 
Q 2278 253 2536 656 
Q 2794 1059 2797 1838 
L 2797 2713 
z
" transform="scale(0.015625)"/>
       </defs>
       <use xlink:href="#Roboto-Light-32"/>
       <use xlink:href="#Roboto-Light-30" transform="translate(55.419922 0)"/>
       <use xlink:href="#Roboto-Light-30" transform="translate(110.839844 0)"/>
      </g>
     </g>
    </g>
    <g id="xtick_2">
     <g id="line2d_3">
      <g>
       <use xlink:href="#m993d406d04" x="107.252125" y="90.708661" style="stroke: #000000; stroke-width: 0.3"/>
      </g>
     </g>
     <g id="text_2">
      <!-- 400 -->
      <g transform="translate(101.848492 99.583661) scale(0.065 -0.065)">
       <defs>
        <path id="Roboto-Light-34" d="M 2725 1466 
L 3434 1466 
L 3434 1150 
L 2725 1150 
L 2725 0 
L 2350 0 
L 2350 1150 
L 209 1150 
L 209 1363 
L 2316 4550 
L 2725 4550 
L 2725 1466 
z
M 669 1466 
L 2350 1466 
L 2350 4066 
L 2184 3778 
L 669 1466 
z
" transform="scale(0.015625)"/>
       </defs>
       <use xlink:href="#Roboto-Light-34"/>
       <use xlink:href="#Roboto-Light-30" transform="translate(55.419922 0)"/>
       <use xlink:href="#Roboto-Light-30" transform="translate(110.839844 0)"/>
      </g>
     </g>
    </g>
    <g id="xtick_3">
     <g id="line2d_4">
      <g>
       <use xlink:href="#m993d406d04" x="187.497757" y="90.708661" style="stroke: #000000; stroke-width: 0.3"/>
      </g>
     </g>
     <g id="text_3">
      <!-- 600 -->
      <g transform="translate(182.094124 99.583661) scale(0.065 -0.065)">
       <defs>
        <path id="Roboto-Light-36" d="M 2634 4584 
L 2634 4256 
L 2591 4256 
Q 1775 4256 1306 3776 
Q 838 3297 788 2444 
Q 975 2703 1265 2845 
Q 1556 2988 1916 2988 
Q 2516 2988 2870 2573 
Q 3225 2159 3225 1491 
Q 3225 1047 3059 690 
Q 2894 334 2584 135 
Q 2275 -63 1878 -63 
Q 1225 -63 815 410 
Q 406 884 406 1634 
L 406 2009 
Q 406 3231 962 3901 
Q 1519 4572 2541 4584 
L 2634 4584 
z
M 1856 2666 
Q 1500 2666 1192 2455 
Q 884 2244 781 1919 
L 781 1600 
Q 781 1006 1086 631 
Q 1391 256 1878 256 
Q 2316 256 2586 603 
Q 2856 950 2856 1478 
Q 2856 2016 2586 2341 
Q 2316 2666 1856 2666 
z
" transform="scale(0.015625)"/>
       </defs>
       <use xlink:href="#Roboto-Light-36"/>
       <use xlink:href="#Roboto-Light-30" transform="translate(55.419922 0)"/>
       <use xlink:href="#Roboto-Light-30" transform="translate(110.839844 0)"/>
      </g>
     </g>
    </g>
    <g id="xtick_4">
     <g id="line2d_5">
      <g>
       <use xlink:href="#m993d406d04" x="267.743388" y="90.708661" style="stroke: #000000; stroke-width: 0.3"/>
      </g>
     </g>
     <g id="text_4">
      <!-- 800 -->
      <g transform="translate(262.339756 99.583661) scale(0.065 -0.065)">
       <defs>
        <path id="Roboto-Light-38" d="M 3109 3378 
Q 3109 3025 2903 2745 
Q 2697 2466 2359 2334 
Q 2753 2200 2990 1900 
Q 3228 1600 3228 1206 
Q 3228 622 2831 279 
Q 2434 -63 1781 -63 
Q 1122 -63 726 278 
Q 331 619 331 1206 
Q 331 1594 559 1897 
Q 788 2200 1184 2334 
Q 847 2466 647 2745 
Q 447 3025 447 3378 
Q 447 3944 811 4278 
Q 1175 4613 1775 4613 
Q 2375 4613 2742 4275 
Q 3109 3938 3109 3378 
z
M 2853 1203 
Q 2853 1628 2550 1901 
Q 2247 2175 1775 2175 
Q 1303 2175 1003 1906 
Q 703 1638 703 1203 
Q 703 769 993 511 
Q 1284 253 1781 253 
Q 2266 253 2559 509 
Q 2853 766 2853 1203 
z
M 2734 3381 
Q 2734 3772 2464 4033 
Q 2194 4294 1775 4294 
Q 1350 4294 1086 4042 
Q 822 3791 822 3381 
Q 822 2981 1086 2737 
Q 1350 2494 1778 2494 
Q 2200 2494 2467 2739 
Q 2734 2984 2734 3381 
z
" transform="scale(0.015625)"/>
       </defs>
       <use xlink:href="#Roboto-Light-38"/>
       <use xlink:href="#Roboto-Light-30" transform="translate(55.419922 0)"/>
       <use xlink:href="#Roboto-Light-30" transform="translate(110.839844 0)"/>
      </g>
     </g>
    </g>
    <g id="text_5">
     <!-- Direct solar irradiation $I_{NG}$ [W/m$^2$] -->
     <g transform="translate(92.587441 111.330536) scale(0.075 -0.075)">
      <defs>
       <path id="Roboto-Light-44" d="M 575 0 
L 575 4550 
L 1847 4550 
Q 2406 4550 2850 4295 
Q 3294 4041 3542 3566 
Q 3791 3091 3791 2484 
L 3791 2066 
Q 3791 1456 3544 984 
Q 3297 513 2848 256 
Q 2400 0 1819 0 
L 575 0 
z
M 959 4222 
L 959 325 
L 1822 325 
Q 2541 325 2975 801 
Q 3409 1278 3409 2091 
L 3409 2491 
Q 3409 3275 2981 3747 
Q 2553 4219 1853 4222 
L 959 4222 
z
" transform="scale(0.015625)"/>
       <path id="Roboto-Light-69" d="M 906 0 
L 531 0 
L 531 3381 
L 906 3381 
L 906 0 
z
M 466 4359 
Q 466 4466 534 4539 
Q 603 4613 722 4613 
Q 841 4613 911 4539 
Q 981 4466 981 4359 
Q 981 4253 911 4181 
Q 841 4109 722 4109 
Q 603 4109 534 4181 
Q 466 4253 466 4359 
z
" transform="scale(0.015625)"/>
       <path id="Roboto-Light-72" d="M 2050 3063 
Q 1931 3084 1797 3084 
Q 1447 3084 1205 2889 
Q 963 2694 859 2322 
L 859 0 
L 488 0 
L 488 3381 
L 853 3381 
L 859 2844 
Q 1156 3444 1813 3444 
Q 1969 3444 2059 3403 
L 2050 3063 
z
" transform="scale(0.015625)"/>
       <path id="Roboto-Light-65" d="M 1797 -63 
Q 1366 -63 1017 150 
Q 669 363 475 742 
Q 281 1122 281 1594 
L 281 1728 
Q 281 2216 470 2606 
Q 659 2997 996 3220 
Q 1334 3444 1728 3444 
Q 2344 3444 2705 3023 
Q 3066 2603 3066 1875 
L 3066 1666 
L 653 1666 
L 653 1594 
Q 653 1019 983 636 
Q 1313 253 1813 253 
Q 2113 253 2342 362 
Q 2572 472 2759 713 
L 2994 534 
Q 2581 -63 1797 -63 
z
M 1728 3125 
Q 1306 3125 1017 2815 
Q 728 2506 666 1984 
L 2694 1984 
L 2694 2025 
Q 2678 2513 2415 2819 
Q 2153 3125 1728 3125 
z
" transform="scale(0.015625)"/>
       <path id="Roboto-Light-63" d="M 1738 253 
Q 2128 253 2392 473 
Q 2656 694 2678 1044 
L 3038 1044 
Q 3022 734 2844 479 
Q 2666 225 2370 81 
Q 2075 -63 1738 -63 
Q 1072 -63 683 400 
Q 294 863 294 1644 
L 294 1756 
Q 294 2256 469 2640 
Q 644 3025 970 3234 
Q 1297 3444 1734 3444 
Q 2291 3444 2652 3112 
Q 3013 2781 3038 2241 
L 2678 2241 
Q 2653 2638 2392 2881 
Q 2131 3125 1734 3125 
Q 1228 3125 948 2759 
Q 669 2394 669 1734 
L 669 1625 
Q 669 978 948 615 
Q 1228 253 1738 253 
z
" transform="scale(0.015625)"/>
       <path id="Roboto-Light-74" d="M 1069 4247 
L 1069 3381 
L 1769 3381 
L 1769 3075 
L 1069 3075 
L 1069 822 
Q 1069 541 1170 403 
Q 1272 266 1509 266 
Q 1603 266 1813 297 
L 1828 -9 
Q 1681 -63 1428 -63 
Q 1044 -63 869 160 
Q 694 384 694 819 
L 694 3075 
L 72 3075 
L 72 3381 
L 694 3381 
L 694 4247 
L 1069 4247 
z
" transform="scale(0.015625)"/>
       <path id="Roboto-Light-20" transform="scale(0.015625)"/>
       <path id="Roboto-Light-73" d="M 2513 859 
Q 2513 1138 2289 1306 
Q 2066 1475 1616 1570 
Q 1166 1666 917 1789 
Q 669 1913 548 2091 
Q 428 2269 428 2522 
Q 428 2922 762 3183 
Q 1097 3444 1619 3444 
Q 2184 3444 2526 3164 
Q 2869 2884 2869 2434 
L 2494 2434 
Q 2494 2731 2245 2928 
Q 1997 3125 1619 3125 
Q 1250 3125 1026 2961 
Q 803 2797 803 2534 
Q 803 2281 989 2142 
Q 1175 2003 1667 1887 
Q 2159 1772 2404 1640 
Q 2650 1509 2769 1325 
Q 2888 1141 2888 878 
Q 2888 450 2542 193 
Q 2197 -63 1641 -63 
Q 1050 -63 683 223 
Q 316 509 316 947 
L 691 947 
Q 713 619 967 436 
Q 1222 253 1641 253 
Q 2031 253 2272 425 
Q 2513 597 2513 859 
z
" transform="scale(0.015625)"/>
       <path id="Roboto-Light-6f" d="M 281 1741 
Q 281 2228 470 2618 
Q 659 3009 1004 3226 
Q 1350 3444 1788 3444 
Q 2463 3444 2881 2970 
Q 3300 2497 3300 1716 
L 3300 1638 
Q 3300 1147 3111 755 
Q 2922 363 2578 150 
Q 2234 -63 1794 -63 
Q 1122 -63 701 410 
Q 281 884 281 1666 
L 281 1741 
z
M 656 1638 
Q 656 1031 970 642 
Q 1284 253 1794 253 
Q 2300 253 2614 642 
Q 2928 1031 2928 1669 
L 2928 1741 
Q 2928 2128 2784 2450 
Q 2641 2772 2381 2948 
Q 2122 3125 1788 3125 
Q 1288 3125 972 2733 
Q 656 2341 656 1706 
L 656 1638 
z
" transform="scale(0.015625)"/>
       <path id="Roboto-Light-6c" d="M 906 0 
L 531 0 
L 531 4800 
L 906 4800 
L 906 0 
z
" transform="scale(0.015625)"/>
       <path id="Roboto-Light-61" d="M 2622 0 
Q 2566 159 2550 472 
Q 2353 216 2048 76 
Q 1744 -63 1403 -63 
Q 916 -63 614 209 
Q 313 481 313 897 
Q 313 1391 723 1678 
Q 1134 1966 1869 1966 
L 2547 1966 
L 2547 2350 
Q 2547 2713 2323 2920 
Q 2100 3128 1672 3128 
Q 1281 3128 1025 2928 
Q 769 2728 769 2447 
L 394 2450 
Q 394 2853 769 3148 
Q 1144 3444 1691 3444 
Q 2256 3444 2582 3161 
Q 2909 2878 2919 2372 
L 2919 772 
Q 2919 281 3022 38 
L 3022 0 
L 2622 0 
z
M 1447 269 
Q 1822 269 2117 450 
Q 2413 631 2547 934 
L 2547 1678 
L 1878 1678 
Q 1319 1672 1003 1473 
Q 688 1275 688 928 
Q 688 644 898 456 
Q 1109 269 1447 269 
z
" transform="scale(0.015625)"/>
       <path id="Roboto-Light-64" d="M 338 1722 
Q 338 2509 689 2976 
Q 1041 3444 1644 3444 
Q 2328 3444 2688 2903 
L 2688 4800 
L 3059 4800 
L 3059 0 
L 2709 0 
L 2694 450 
Q 2334 -63 1638 -63 
Q 1053 -63 695 407 
Q 338 878 338 1678 
L 338 1722 
z
M 716 1656 
Q 716 1009 975 636 
Q 1234 263 1706 263 
Q 2397 263 2688 872 
L 2688 2459 
Q 2397 3119 1713 3119 
Q 1241 3119 978 2748 
Q 716 2378 716 1656 
z
" transform="scale(0.015625)"/>
       <path id="Roboto-Light-6e" d="M 844 3381 
L 856 2803 
Q 1047 3116 1331 3280 
Q 1616 3444 1959 3444 
Q 2503 3444 2768 3137 
Q 3034 2831 3038 2219 
L 3038 0 
L 2666 0 
L 2666 2222 
Q 2663 2675 2473 2897 
Q 2284 3119 1869 3119 
Q 1522 3119 1255 2901 
Q 988 2684 859 2316 
L 859 0 
L 488 0 
L 488 3381 
L 844 3381 
z
" transform="scale(0.015625)"/>
       <path id="NotoSansMath-Regular-49" d="M 256 0 
L 256 333 
L 794 454 
L 794 4109 
L 256 4237 
L 256 4570 
L 1907 4570 
L 1907 4237 
L 1370 4109 
L 1370 454 
L 1907 333 
L 1907 0 
L 256 0 
z
" transform="scale(0.015625)"/>
       <path id="NotoSansMath-Regular-4e" d="M 621 0 
L 621 4570 
L 1286 4570 
L 3725 787 
L 3750 787 
Q 3744 890 3734 1094 
Q 3725 1299 3715 1542 
Q 3706 1786 3706 1990 
L 3706 4570 
L 4243 4570 
L 4243 0 
L 3571 0 
L 1126 3795 
L 1101 3795 
Q 1120 3571 1136 3238 
Q 1152 2906 1152 2554 
L 1152 0 
L 621 0 
z
" transform="scale(0.015625)"/>
       <path id="NotoSansMath-Regular-47" d="M 2579 -64 
Q 1869 -64 1382 221 
Q 896 506 643 1034 
Q 390 1562 390 2285 
Q 390 3002 672 3526 
Q 954 4051 1482 4342 
Q 2010 4634 2758 4634 
Q 3142 4634 3484 4563 
Q 3827 4493 4122 4365 
L 3904 3866 
Q 3661 3974 3357 4051 
Q 3053 4128 2726 4128 
Q 1907 4128 1449 3635 
Q 992 3142 992 2285 
Q 992 1741 1168 1321 
Q 1344 902 1721 668 
Q 2099 435 2714 435 
Q 3014 435 3225 467 
Q 3437 499 3610 544 
L 3610 1901 
L 2605 1901 
L 2605 2413 
L 4186 2413 
L 4186 173 
Q 3814 51 3436 -6 
Q 3059 -64 2579 -64 
z
" transform="scale(0.015625)"/>
       <path id="Roboto-Light-5b" d="M 1541 4881 
L 884 4881 
L 884 -656 
L 1541 -656 
L 1541 -975 
L 509 -975 
L 509 5200 
L 1541 5200 
L 1541 4881 
z
" transform="scale(0.015625)"/>
       <path id="Roboto-Light-57" d="M 1416 1228 
L 1556 522 
L 1728 1197 
L 2716 4550 
L 3063 4550 
L 4038 1197 
L 4206 516 
L 4356 1228 
L 5178 4550 
L 5572 4550 
L 4406 0 
L 4038 0 
L 3006 3559 
L 2891 4009 
L 2778 3559 
L 1722 0 
L 1353 0 
L 191 4550 
L 584 4550 
L 1416 1228 
z
" transform="scale(0.015625)"/>
       <path id="Roboto-Light-2f" d="M 434 -391 
L 94 -391 
L 1994 4550 
L 2331 4550 
L 434 -391 
z
" transform="scale(0.015625)"/>
       <path id="Roboto-Light-6d" d="M 828 3381 
L 841 2831 
Q 1028 3138 1309 3291 
Q 1591 3444 1934 3444 
Q 2734 3444 2950 2788 
Q 3131 3103 3434 3273 
Q 3738 3444 4103 3444 
Q 5191 3444 5213 2256 
L 5213 0 
L 4838 0 
L 4838 2228 
Q 4834 2681 4642 2900 
Q 4450 3119 4016 3119 
Q 3613 3113 3334 2858 
Q 3056 2603 3025 2238 
L 3025 0 
L 2650 0 
L 2650 2256 
Q 2647 2691 2445 2905 
Q 2244 3119 1825 3119 
Q 1472 3119 1219 2917 
Q 966 2716 844 2319 
L 844 0 
L 469 0 
L 469 3381 
L 828 3381 
z
" transform="scale(0.015625)"/>
       <path id="NotoSansMath-Regular-32" d="M 307 0 
L 307 467 
L 1504 1677 
Q 1850 2022 2086 2291 
Q 2323 2560 2444 2819 
Q 2566 3078 2566 3386 
Q 2566 3763 2342 3958 
Q 2118 4154 1760 4154 
Q 1427 4154 1174 4038 
Q 922 3923 659 3718 
L 358 4096 
Q 627 4320 976 4477 
Q 1325 4634 1760 4634 
Q 2400 4634 2771 4310 
Q 3142 3987 3142 3418 
Q 3142 3059 2995 2748 
Q 2848 2438 2585 2131 
Q 2323 1824 1971 1478 
L 1018 538 
L 1018 512 
L 3328 512 
L 3328 0 
L 307 0 
z
" transform="scale(0.015625)"/>
       <path id="Roboto-Light-5d" d="M 0 5200 
L 1034 5200 
L 1034 -975 
L 0 -975 
L 0 -656 
L 659 -656 
L 659 4881 
L 0 4881 
L 0 5200 
z
" transform="scale(0.015625)"/>
      </defs>
      <use xlink:href="#Roboto-Light-44" transform="translate(0 0.8)"/>
      <use xlink:href="#Roboto-Light-69" transform="translate(65.478516 0.8)"/>
      <use xlink:href="#Roboto-Light-72" transform="translate(87.890625 0.8)"/>
      <use xlink:href="#Roboto-Light-65" transform="translate(121.533203 0.8)"/>
      <use xlink:href="#Roboto-Light-63" transform="translate(173.193359 0.8)"/>
      <use xlink:href="#Roboto-Light-74" transform="translate(224.707031 0.8)"/>
      <use xlink:href="#Roboto-Light-20" transform="translate(256.835938 0.8)"/>
      <use xlink:href="#Roboto-Light-73" transform="translate(281.152344 0.8)"/>
      <use xlink:href="#Roboto-Light-6f" transform="translate(331.787109 0.8)"/>
      <use xlink:href="#Roboto-Light-6c" transform="translate(387.792969 0.8)"/>
      <use xlink:href="#Roboto-Light-61" transform="translate(410.205078 0.8)"/>
      <use xlink:href="#Roboto-Light-72" transform="translate(463.769531 0.8)"/>
      <use xlink:href="#Roboto-Light-20" transform="translate(497.412109 0.8)"/>
      <use xlink:href="#Roboto-Light-69" transform="translate(521.728516 0.8)"/>
      <use xlink:href="#Roboto-Light-72" transform="translate(544.140625 0.8)"/>
      <use xlink:href="#Roboto-Light-72" transform="translate(577.783203 0.8)"/>
      <use xlink:href="#Roboto-Light-61" transform="translate(611.425781 0.8)"/>
      <use xlink:href="#Roboto-Light-64" transform="translate(664.990234 0.8)"/>
      <use xlink:href="#Roboto-Light-69" transform="translate(720.556641 0.8)"/>
      <use xlink:href="#Roboto-Light-61" transform="translate(742.96875 0.8)"/>
      <use xlink:href="#Roboto-Light-74" transform="translate(796.533203 0.8)"/>
      <use xlink:href="#Roboto-Light-69" transform="translate(828.662109 0.8)"/>
      <use xlink:href="#Roboto-Light-6f" transform="translate(851.074219 0.8)"/>
      <use xlink:href="#Roboto-Light-6e" transform="translate(907.080078 0.8)"/>
      <use xlink:href="#Roboto-Light-20" transform="translate(962.011719 0.8)"/>
      <use xlink:href="#NotoSansMath-Regular-49" transform="translate(986.328125 0.8)"/>
      <use xlink:href="#NotoSansMath-Regular-4e" transform="translate(1020.228119 -15.278125) scale(0.7)"/>
      <use xlink:href="#NotoSansMath-Regular-47" transform="translate(1073.428108 -15.278125) scale(0.7)"/>
      <use xlink:href="#Roboto-Light-20" transform="translate(1127.067787 0.8)"/>
      <use xlink:href="#Roboto-Light-5b" transform="translate(1151.384193 0.8)"/>
      <use xlink:href="#Roboto-Light-57" transform="translate(1175.358803 0.8)"/>
      <use xlink:href="#Roboto-Light-2f" transform="translate(1265.00724 0.8)"/>
      <use xlink:href="#Roboto-Light-6d" transform="translate(1304.704506 0.8)"/>
      <use xlink:href="#NotoSansMath-Regular-32" transform="translate(1394.265443 38.315625) scale(0.7)"/>
      <use xlink:href="#Roboto-Light-5d" transform="translate(1436.985129 0.8)"/>
     </g>
    </g>
   </g>
   <g id="matplotlib.axis_2">
    <g id="ytick_1">
     <g id="line2d_6">
      <defs>
       <path id="m31d41cc5d4" d="M 0 0 
L -2 0 
" style="stroke: #000000; stroke-width: 0.3"/>
      </defs>
      <g>
       <use xlink:href="#m31d41cc5d4" x="27.006493" y="90.708661" style="stroke: #000000; stroke-width: 0.3"/>
      </g>
     </g>
     <g id="text_6">
      <!-- 10 -->
      <g transform="translate(16.801649 93.146161) scale(0.065 -0.065)">
       <defs>
        <path id="Roboto-Light-31" d="M 2169 0 
L 1794 0 
L 1794 4100 
L 556 3641 
L 556 3991 
L 2106 4566 
L 2169 4566 
L 2169 0 
z
" transform="scale(0.015625)"/>
       </defs>
       <use xlink:href="#Roboto-Light-31"/>
       <use xlink:href="#Roboto-Light-30" transform="translate(55.419922 0)"/>
      </g>
     </g>
    </g>
    <g id="ytick_2">
     <g id="line2d_7">
      <g>
       <use xlink:href="#m31d41cc5d4" x="27.006493" y="72.413284" style="stroke: #000000; stroke-width: 0.3"/>
      </g>
     </g>
     <g id="text_7">
      <!-- 15 -->
      <g transform="translate(16.801649 74.850784) scale(0.065 -0.065)">
       <defs>
        <path id="Roboto-Light-35" d="M 681 2331 
L 903 4550 
L 3178 4550 
L 3178 4203 
L 1225 4203 
L 1066 2666 
Q 1431 2916 1922 2916 
Q 2538 2916 2903 2516 
Q 3269 2116 3269 1450 
Q 3269 731 2912 334 
Q 2556 -63 1909 -63 
Q 1316 -63 947 268 
Q 578 600 525 1197 
L 884 1197 
Q 938 731 1200 492 
Q 1463 253 1909 253 
Q 2397 253 2645 562 
Q 2894 872 2894 1444 
Q 2894 1944 2616 2259 
Q 2338 2575 1856 2575 
Q 1591 2575 1394 2508 
Q 1197 2441 978 2247 
L 681 2331 
z
" transform="scale(0.015625)"/>
       </defs>
       <use xlink:href="#Roboto-Light-31"/>
       <use xlink:href="#Roboto-Light-35" transform="translate(55.419922 0)"/>
      </g>
     </g>
    </g>
    <g id="ytick_3">
     <g id="line2d_8">
      <g>
       <use xlink:href="#m31d41cc5d4" x="27.006493" y="54.117906" style="stroke: #000000; stroke-width: 0.3"/>
      </g>
     </g>
     <g id="text_8">
      <!-- 20 -->
      <g transform="translate(16.801649 56.555406) scale(0.065 -0.065)">
       <use xlink:href="#Roboto-Light-32"/>
       <use xlink:href="#Roboto-Light-30" transform="translate(55.419922 0)"/>
      </g>
     </g>
    </g>
    <g id="ytick_4">
     <g id="line2d_9">
      <g>
       <use xlink:href="#m31d41cc5d4" x="27.006493" y="35.822528" style="stroke: #000000; stroke-width: 0.3"/>
      </g>
     </g>
     <g id="text_9">
      <!-- 25 -->
      <g transform="translate(16.801649 38.260028) scale(0.065 -0.065)">
       <use xlink:href="#Roboto-Light-32"/>
       <use xlink:href="#Roboto-Light-35" transform="translate(55.419922 0)"/>
      </g>
     </g>
    </g>
    <g id="ytick_5">
     <g id="line2d_10">
      <g>
       <use xlink:href="#m31d41cc5d4" x="27.006493" y="17.52715" style="stroke: #000000; stroke-width: 0.3"/>
      </g>
     </g>
     <g id="text_10">
      <!-- 30 -->
      <g transform="translate(16.801649 19.96465) scale(0.065 -0.065)">
       <defs>
        <path id="Roboto-Light-33" d="M 1259 2478 
L 1647 2478 
Q 1969 2478 2209 2592 
Q 2450 2706 2576 2904 
Q 2703 3103 2703 3363 
Q 2703 3800 2456 4047 
Q 2209 4294 1747 4294 
Q 1309 4294 1029 4036 
Q 750 3778 750 3356 
L 375 3356 
Q 375 3709 553 4001 
Q 731 4294 1047 4453 
Q 1363 4613 1747 4613 
Q 2366 4613 2722 4275 
Q 3078 3938 3078 3350 
Q 3078 3022 2870 2745 
Q 2663 2469 2300 2331 
Q 2725 2213 2944 1923 
Q 3163 1634 3163 1234 
Q 3163 650 2781 293 
Q 2400 -63 1763 -63 
Q 1356 -63 1017 100 
Q 678 263 492 555 
Q 306 847 306 1234 
L 681 1234 
Q 681 800 984 526 
Q 1288 253 1763 253 
Q 2247 253 2517 501 
Q 2788 750 2788 1222 
Q 2788 1678 2495 1918 
Q 2203 2159 1634 2159 
L 1259 2159 
L 1259 2478 
z
" transform="scale(0.015625)"/>
       </defs>
       <use xlink:href="#Roboto-Light-33"/>
       <use xlink:href="#Roboto-Light-30" transform="translate(55.419922 0)"/>
      </g>
     </g>
    </g>
    <g id="text_11">
     <!-- Temperature [°C] -->
     <g transform="translate(11.278212 81.379982) rotate(-90) scale(0.075 -0.075)">
      <defs>
       <path id="Roboto-Light-54" d="M 3663 4222 
L 2103 4222 
L 2103 0 
L 1719 0 
L 1719 4222 
L 163 4222 
L 163 4550 
L 3663 4550 
L 3663 4222 
z
" transform="scale(0.015625)"/>
       <path id="Roboto-Light-70" d="M 3206 1656 
Q 3206 866 2856 401 
Q 2506 -63 1919 -63 
Q 1225 -63 856 425 
L 856 -1300 
L 484 -1300 
L 484 3381 
L 831 3381 
L 850 2903 
Q 1216 3444 1909 3444 
Q 2516 3444 2861 2984 
Q 3206 2525 3206 1709 
L 3206 1656 
z
M 2831 1722 
Q 2831 2369 2565 2744 
Q 2300 3119 1825 3119 
Q 1481 3119 1234 2953 
Q 988 2788 856 2472 
L 856 850 
Q 991 559 1241 406 
Q 1491 253 1831 253 
Q 2303 253 2567 629 
Q 2831 1006 2831 1722 
z
" transform="scale(0.015625)"/>
       <path id="Roboto-Light-75" d="M 2663 428 
Q 2325 -63 1584 -63 
Q 1044 -63 762 251 
Q 481 566 475 1181 
L 475 3381 
L 847 3381 
L 847 1228 
Q 847 263 1628 263 
Q 2441 263 2656 934 
L 2656 3381 
L 3031 3381 
L 3031 0 
L 2669 0 
L 2663 428 
z
" transform="scale(0.015625)"/>
       <path id="Roboto-Light-b0" d="M 1969 3831 
Q 1969 3506 1747 3284 
Q 1525 3063 1213 3063 
Q 897 3063 672 3286 
Q 447 3509 447 3831 
Q 447 4153 675 4383 
Q 903 4613 1212 4613 
Q 1522 4613 1745 4383 
Q 1969 4153 1969 3831 
z
M 728 3831 
Q 728 3622 867 3484 
Q 1006 3347 1212 3347 
Q 1419 3347 1553 3484 
Q 1688 3622 1688 3831 
Q 1688 4047 1553 4187 
Q 1419 4328 1213 4328 
Q 1009 4328 868 4187 
Q 728 4047 728 3831 
z
" transform="scale(0.015625)"/>
       <path id="Roboto-Light-43" d="M 3797 1419 
Q 3719 700 3283 318 
Q 2847 -63 2122 -63 
Q 1616 -63 1227 190 
Q 838 444 625 908 
Q 413 1372 409 1969 
L 409 2559 
Q 409 3166 621 3634 
Q 834 4103 1232 4358 
Q 1631 4613 2150 4613 
Q 2881 4613 3304 4217 
Q 3728 3822 3797 3125 
L 3409 3125 
Q 3266 4284 2150 4284 
Q 1531 4284 1164 3821 
Q 797 3359 797 2544 
L 797 1988 
Q 797 1200 1155 731 
Q 1513 263 2122 263 
Q 2725 263 3031 552 
Q 3338 841 3409 1419 
L 3797 1419 
z
" transform="scale(0.015625)"/>
      </defs>
      <use xlink:href="#Roboto-Light-54"/>
      <use xlink:href="#Roboto-Light-65" transform="translate(59.716797 0)"/>
      <use xlink:href="#Roboto-Light-6d" transform="translate(111.376953 0)"/>
      <use xlink:href="#Roboto-Light-70" transform="translate(200 0)"/>
      <use xlink:href="#Roboto-Light-65" transform="translate(255.419922 0)"/>
      <use xlink:href="#Roboto-Light-72" transform="translate(307.080078 0)"/>
      <use xlink:href="#Roboto-Light-61" transform="translate(340.722656 0)"/>
      <use xlink:href="#Roboto-Light-74" transform="translate(394.287109 0)"/>
      <use xlink:href="#Roboto-Light-75" transform="translate(426.416016 0)"/>
      <use xlink:href="#Roboto-Light-72" transform="translate(481.347656 0)"/>
      <use xlink:href="#Roboto-Light-65" transform="translate(514.990234 0)"/>
      <use xlink:href="#Roboto-Light-20" transform="translate(566.650391 0)"/>
      <use xlink:href="#Roboto-Light-5b" transform="translate(590.966797 0)"/>
      <use xlink:href="#Roboto-Light-b0" transform="translate(614.941406 0)"/>
      <use xlink:href="#Roboto-Light-43" transform="translate(652.734375 0)"/>
      <use xlink:href="#Roboto-Light-5d" transform="translate(717.675781 0)"/>
     </g>
    </g>
   </g>
   <g id="legend_1">
    <g id="line2d_11">
     <path d="M 230.893388 21.379427 
L 236.393388 21.379427 
L 241.893388 21.379427 
" style="fill: none; stroke: #65a30d; stroke-width: 0.5; stroke-linecap: square"/>
    </g>
    <g id="text_12">
     <!-- $T_{w,stp,out}$ -->
     <g transform="translate(243.543388 23.304427) scale(0.055 -0.055)">
      <defs>
       <path id="NotoSansMath-Regular-54" d="M 1491 0 
L 1491 4064 
L 64 4064 
L 64 4570 
L 3488 4570 
L 3488 4064 
L 2067 4064 
L 2067 0 
L 1491 0 
z
" transform="scale(0.015625)"/>
       <path id="NotoSansMath-Regular-77" d="M 1011 6 
L 70 3437 
L 653 3437 
L 1126 1606 
Q 1197 1331 1261 1049 
Q 1325 768 1350 582 
L 1376 582 
Q 1402 691 1437 851 
Q 1472 1011 1517 1187 
Q 1562 1363 1606 1504 
L 2214 3437 
L 2829 3437 
L 3418 1504 
Q 3488 1286 3555 1030 
Q 3622 774 3648 589 
L 3674 589 
Q 3693 749 3760 1030 
Q 3827 1312 3904 1606 
L 4384 3437 
L 4960 3437 
L 4006 6 
L 3347 6 
L 2758 1939 
Q 2675 2202 2614 2454 
Q 2554 2707 2522 2848 
L 2496 2848 
Q 2470 2707 2412 2454 
Q 2355 2202 2266 1933 
L 1651 6 
L 1011 6 
z
" transform="scale(0.015625)"/>
       <path id="NotoSansMath-Regular-2c" d="M 262 -826 
Q 352 -461 445 -25 
Q 538 410 582 742 
L 1184 742 
L 1229 672 
Q 1146 333 989 -73 
Q 832 -480 678 -826 
L 262 -826 
z
" transform="scale(0.015625)"/>
       <path id="NotoSansMath-Regular-73" d="M 1408 -64 
Q 1050 -64 790 -6 
Q 531 51 333 154 
L 333 666 
Q 538 563 829 476 
Q 1120 390 1421 390 
Q 1850 390 2042 528 
Q 2234 666 2234 896 
Q 2234 1024 2163 1126 
Q 2093 1229 1910 1331 
Q 1728 1434 1389 1562 
Q 1056 1690 819 1818 
Q 582 1946 454 2125 
Q 326 2304 326 2586 
Q 326 3021 681 3257 
Q 1037 3494 1613 3494 
Q 1926 3494 2198 3433 
Q 2470 3373 2707 3264 
L 2515 2816 
Q 2298 2906 2061 2970 
Q 1824 3034 1574 3034 
Q 1229 3034 1046 2922 
Q 864 2810 864 2618 
Q 864 2477 947 2377 
Q 1030 2278 1225 2185 
Q 1421 2093 1747 1965 
Q 2074 1843 2304 1712 
Q 2534 1581 2656 1401 
Q 2778 1222 2778 947 
Q 2778 448 2406 192 
Q 2035 -64 1408 -64 
z
" transform="scale(0.015625)"/>
       <path id="NotoSansMath-Regular-74" d="M 1594 -64 
Q 1325 -64 1097 29 
Q 870 122 729 352 
Q 589 582 589 998 
L 589 2995 
L 102 2995 
L 102 3264 
L 595 3488 
L 819 4218 
L 1152 4218 
L 1152 3430 
L 2144 3430 
L 2144 2995 
L 1152 2995 
L 1152 1011 
Q 1152 698 1302 547 
Q 1453 397 1690 397 
Q 1818 397 1952 419 
Q 2086 442 2170 467 
L 2170 38 
Q 2080 -6 1913 -35 
Q 1747 -64 1594 -64 
z
" transform="scale(0.015625)"/>
       <path id="NotoSansMath-Regular-70" d="M 544 -1536 
L 544 3430 
L 1005 3430 
L 1082 2963 
L 1107 2963 
Q 1261 3187 1510 3340 
Q 1760 3494 2176 3494 
Q 2810 3494 3197 3052 
Q 3584 2611 3584 1722 
Q 3584 845 3197 390 
Q 2810 -64 2170 -64 
Q 1773 -64 1513 86 
Q 1254 237 1107 435 
L 1069 435 
Q 1082 326 1094 160 
Q 1107 -6 1107 -128 
L 1107 -1536 
L 544 -1536 
z
M 2086 403 
Q 2400 403 2601 576 
Q 2803 749 2902 1046 
Q 3002 1344 3002 1728 
Q 3002 2317 2774 2669 
Q 2547 3021 2074 3021 
Q 1549 3021 1334 2726 
Q 1120 2432 1107 1830 
L 1107 1722 
Q 1107 1088 1315 745 
Q 1523 403 2086 403 
z
" transform="scale(0.015625)"/>
       <path id="NotoSansMath-Regular-6f" d="M 1926 -64 
Q 1472 -64 1117 144 
Q 762 352 557 752 
Q 352 1152 352 1722 
Q 352 2573 781 3033 
Q 1210 3494 1946 3494 
Q 2413 3494 2768 3286 
Q 3123 3078 3324 2684 
Q 3526 2291 3526 1722 
Q 3526 870 3094 403 
Q 2662 -64 1926 -64 
z
M 1939 403 
Q 2458 403 2701 758 
Q 2944 1114 2944 1722 
Q 2944 2330 2701 2675 
Q 2458 3021 1933 3021 
Q 1408 3021 1171 2675 
Q 934 2330 934 1722 
Q 934 1114 1174 758 
Q 1414 403 1939 403 
z
" transform="scale(0.015625)"/>
       <path id="NotoSansMath-Regular-75" d="M 1754 -64 
Q 1133 -64 819 233 
Q 506 531 506 1184 
L 506 3430 
L 1075 3430 
L 1075 1222 
Q 1075 403 1837 403 
Q 2406 403 2627 723 
Q 2848 1043 2848 1645 
L 2848 3430 
L 3411 3430 
L 3411 0 
L 2950 0 
L 2867 454 
L 2842 454 
Q 2675 186 2380 61 
Q 2086 -64 1754 -64 
z
" transform="scale(0.015625)"/>
      </defs>
      <use xlink:href="#NotoSansMath-Regular-54" transform="translate(0 0.59375)"/>
      <use xlink:href="#NotoSansMath-Regular-77" transform="translate(55.599991 -15.484375) scale(0.7)"/>
      <use xlink:href="#NotoSansMath-Regular-2c" transform="translate(110.619984 -15.484375) scale(0.7)"/>
      <use xlink:href="#NotoSansMath-Regular-73" transform="translate(142.469974 -15.484375) scale(0.7)"/>
      <use xlink:href="#NotoSansMath-Regular-74" transform="translate(175.999969 -15.484375) scale(0.7)"/>
      <use xlink:href="#NotoSansMath-Regular-70" transform="translate(201.269963 -15.484375) scale(0.7)"/>
      <use xlink:href="#NotoSansMath-Regular-2c" transform="translate(244.319952 -15.484375) scale(0.7)"/>
      <use xlink:href="#NotoSansMath-Regular-6f" transform="translate(276.169942 -15.484375) scale(0.7)"/>
      <use xlink:href="#NotoSansMath-Regular-75" transform="translate(318.519931 -15.484375) scale(0.7)"/>
      <use xlink:href="#NotoSansMath-Regular-74" transform="translate(361.779922 -15.484375) scale(0.7)"/>
     </g>
    </g>
   </g>
  </g>
 </g>
 <defs>
  <clipPath id="pe959f383ef">
   <rect x="27.006493" y="16.429427" width="240.736895" height="74.279234"/>
  </clipPath>
 </defs>
</svg>
