<?xml version="1.0" encoding="utf-8" standalone="no"?>
<!DOCTYPE svg PUBLIC "-//W3C//DTD SVG 1.1//EN"
  "http://www.w3.org/Graphics/SVG/1.1/DTD/svg11.dtd">
<svg xmlns:xlink="http://www.w3.org/1999/xlink" width="283.464567pt" height="113.385827pt" viewBox="0 0 283.464567 113.385827" xmlns="http://www.w3.org/2000/svg" version="1.1">
 <metadata>
  <rdf:RDF xmlns:dc="http://purl.org/dc/elements/1.1/" xmlns:cc="http://creativecommons.org/ns#" xmlns:rdf="http://www.w3.org/1999/02/22-rdf-syntax-ns#">
   <cc:Work>
    <dc:type rdf:resource="http://purl.org/dc/dcmitype/StillImage"/>
    <dc:date>2025-05-08T09:05:39.787210</dc:date>
    <dc:format>image/svg+xml</dc:format>
    <dc:creator>
     <cc:Agent>
      <dc:title>Matplotlib v3.10.0, https://matplotlib.org/</dc:title>
     </cc:Agent>
    </dc:creator>
   </cc:Work>
  </rdf:RDF>
 </metadata>
 <defs>
  <style type="text/css">*{stroke-linejoin: round; stroke-linecap: butt}</style>
 </defs>
 <g id="figure_1">
  <g id="patch_1">
   <path d="M 0 113.385827 
L 283.464567 113.385827 
L 283.464567 0 
L 0 0 
L 0 113.385827 
z
" style="fill: none"/>
  </g>
  <g id="axes_1">
   <g id="patch_2">
    <path d="M 34.407747 90.708661 
L 269.619443 90.708661 
L 269.619443 18.271699 
L 34.407747 18.271699 
L 34.407747 90.708661 
z
" style="fill: none"/>
   </g>
   <g id="line2d_1">
    <path d="M 34.407747 47.246484 
L 46.168331 47.246484 
L 57.928916 47.246484 
L 69.689501 47.246484 
L 81.450086 47.246484 
L 93.210671 47.246484 
L 104.971255 47.246484 
L 116.73184 47.246484 
L 128.492425 47.246484 
L 140.25301 47.246484 
L 152.013595 47.246484 
L 163.774179 47.246484 
L 175.534764 47.246484 
L 187.295349 47.246484 
L 199.055934 47.246484 
L 210.816519 47.246484 
L 222.577103 47.246484 
L 234.337688 47.246484 
L 246.098273 47.246484 
L 257.858858 47.246484 
L 269.619443 47.246484 
" clip-path="url(#pd4e8529761)" style="fill: none; stroke: #f59e0b; stroke-width: 0.5; stroke-linecap: square"/>
   </g>
   <g id="line2d_2">
    <path d="M 34.407747 77.606514 
L 46.168331 77.606514 
L 57.928916 77.606514 
L 69.689501 77.606514 
L 81.450086 77.606514 
L 93.210671 77.606514 
L 104.971255 77.606514 
L 116.73184 77.606514 
L 128.492425 77.606514 
L 140.25301 77.606514 
L 152.013595 77.606514 
L 163.774179 77.606514 
L 175.534764 77.606514 
L 187.295349 77.606514 
L 199.055934 77.606514 
L 210.816519 77.606514 
L 222.577103 77.606514 
L 234.337688 77.606514 
L 246.098273 77.606514 
L 257.858858 77.606514 
L 269.619443 77.606514 
" clip-path="url(#pd4e8529761)" style="fill: none; stroke: #65a30d; stroke-width: 0.5; stroke-linecap: square"/>
   </g>
   <g id="line2d_3">
    <path d="M 34.407747 39.398006 
L 46.168331 39.529348 
L 57.928916 39.66069 
L 69.689501 39.792031 
L 81.450086 39.923373 
L 93.210671 40.054715 
L 104.971255 40.186057 
L 116.73184 40.317398 
L 128.492425 40.44874 
L 140.25301 40.580082 
L 152.013595 40.711424 
L 163.774179 40.842765 
L 175.534764 40.974107 
L 187.295349 41.105449 
L 199.055934 41.236791 
L 210.816519 41.368132 
L 222.577103 41.499474 
L 234.337688 41.630816 
L 246.098273 41.762157 
L 257.858858 41.893499 
L 269.619443 42.024841 
" clip-path="url(#pd4e8529761)" style="fill: none; stroke: #2563eb; stroke-width: 0.5; stroke-linecap: square"/>
   </g>
   <g id="line2d_4">
    <path d="M 34.407747 85.454992 
L 46.168331 85.32365 
L 57.928916 85.192308 
L 69.689501 85.060966 
L 81.450086 84.929625 
L 93.210671 84.798283 
L 104.971255 84.666941 
L 116.73184 84.535599 
L 128.492425 84.404258 
L 140.25301 84.272916 
L 152.013595 84.141574 
L 163.774179 84.010232 
L 175.534764 83.878891 
L 187.295349 83.747549 
L 199.055934 83.616207 
L 210.816519 83.484865 
L 222.577103 83.353524 
L 234.337688 83.222182 
L 246.098273 83.09084 
L 257.858858 82.959498 
L 269.619443 82.828157 
" clip-path="url(#pd4e8529761)" style="fill: none; stroke: #9333ea; stroke-width: 0.5; stroke-linecap: square"/>
   </g>
   <g id="patch_3">
    <path d="M 34.407747 90.708661 
L 34.407747 18.271699 
" style="fill: none; stroke: #000000; stroke-width: 0.3; stroke-linejoin: miter; stroke-linecap: square"/>
   </g>
   <g id="patch_4">
    <path d="M 34.407747 90.708661 
L 269.619443 90.708661 
" style="fill: none; stroke: #000000; stroke-width: 0.3; stroke-linejoin: miter; stroke-linecap: square"/>
   </g>
   <g id="matplotlib.axis_1">
    <g id="xtick_1">
     <g id="line2d_5">
      <defs>
       <path id="m61cea02dc5" d="M 0 0 
L 0 2 
" style="stroke: #000000; stroke-width: 0.3"/>
      </defs>
      <g>
       <use xlink:href="#m61cea02dc5" x="34.407747" y="90.708661" style="stroke: #000000; stroke-width: 0.3"/>
      </g>
     </g>
     <g id="text_1">
      <!-- 40 -->
      <g transform="translate(30.805325 99.583661) scale(0.065 -0.065)">
       <defs>
        <path id="Roboto-Light-34" d="M 2725 1466 
L 3434 1466 
L 3434 1150 
L 2725 1150 
L 2725 0 
L 2350 0 
L 2350 1150 
L 209 1150 
L 209 1363 
L 2316 4550 
L 2725 4550 
L 2725 1466 
z
M 669 1466 
L 2350 1466 
L 2350 4066 
L 2184 3778 
L 669 1466 
z
" transform="scale(0.015625)"/>
        <path id="Roboto-Light-30" d="M 3172 1897 
Q 3172 934 2819 435 
Q 2466 -63 1778 -63 
Q 1103 -63 743 426 
Q 384 916 375 1850 
L 375 2666 
Q 375 3625 731 4119 
Q 1088 4613 1772 4613 
Q 2447 4613 2803 4136 
Q 3159 3659 3172 2731 
L 3172 1897 
z
M 2797 2713 
Q 2797 3494 2542 3894 
Q 2288 4294 1772 4294 
Q 1266 4294 1009 3903 
Q 753 3513 747 2750 
L 747 1856 
Q 747 1078 1011 665 
Q 1275 253 1778 253 
Q 2278 253 2536 656 
Q 2794 1059 2797 1838 
L 2797 2713 
z
" transform="scale(0.015625)"/>
       </defs>
       <use xlink:href="#Roboto-Light-34"/>
       <use xlink:href="#Roboto-Light-30" transform="translate(55.419922 0)"/>
      </g>
     </g>
    </g>
    <g id="xtick_2">
     <g id="line2d_6">
      <g>
       <use xlink:href="#m61cea02dc5" x="93.210671" y="90.708661" style="stroke: #000000; stroke-width: 0.3"/>
      </g>
     </g>
     <g id="text_2">
      <!-- 45 -->
      <g transform="translate(89.608249 99.583661) scale(0.065 -0.065)">
       <defs>
        <path id="Roboto-Light-35" d="M 681 2331 
L 903 4550 
L 3178 4550 
L 3178 4203 
L 1225 4203 
L 1066 2666 
Q 1431 2916 1922 2916 
Q 2538 2916 2903 2516 
Q 3269 2116 3269 1450 
Q 3269 731 2912 334 
Q 2556 -63 1909 -63 
Q 1316 -63 947 268 
Q 578 600 525 1197 
L 884 1197 
Q 938 731 1200 492 
Q 1463 253 1909 253 
Q 2397 253 2645 562 
Q 2894 872 2894 1444 
Q 2894 1944 2616 2259 
Q 2338 2575 1856 2575 
Q 1591 2575 1394 2508 
Q 1197 2441 978 2247 
L 681 2331 
z
" transform="scale(0.015625)"/>
       </defs>
       <use xlink:href="#Roboto-Light-34"/>
       <use xlink:href="#Roboto-Light-35" transform="translate(55.419922 0)"/>
      </g>
     </g>
    </g>
    <g id="xtick_3">
     <g id="line2d_7">
      <g>
       <use xlink:href="#m61cea02dc5" x="152.013595" y="90.708661" style="stroke: #000000; stroke-width: 0.3"/>
      </g>
     </g>
     <g id="text_3">
      <!-- 50 -->
      <g transform="translate(148.411173 99.583661) scale(0.065 -0.065)">
       <use xlink:href="#Roboto-Light-35"/>
       <use xlink:href="#Roboto-Light-30" transform="translate(55.419922 0)"/>
      </g>
     </g>
    </g>
    <g id="xtick_4">
     <g id="line2d_8">
      <g>
       <use xlink:href="#m61cea02dc5" x="210.816519" y="90.708661" style="stroke: #000000; stroke-width: 0.3"/>
      </g>
     </g>
     <g id="text_4">
      <!-- 55 -->
      <g transform="translate(207.214097 99.583661) scale(0.065 -0.065)">
       <use xlink:href="#Roboto-Light-35"/>
       <use xlink:href="#Roboto-Light-35" transform="translate(55.419922 0)"/>
      </g>
     </g>
    </g>
    <g id="xtick_5">
     <g id="line2d_9">
      <g>
       <use xlink:href="#m61cea02dc5" x="269.619443" y="90.708661" style="stroke: #000000; stroke-width: 0.3"/>
      </g>
     </g>
     <g id="text_5">
      <!-- 60 -->
      <g transform="translate(266.017021 99.583661) scale(0.065 -0.065)">
       <defs>
        <path id="Roboto-Light-36" d="M 2634 4584 
L 2634 4256 
L 2591 4256 
Q 1775 4256 1306 3776 
Q 838 3297 788 2444 
Q 975 2703 1265 2845 
Q 1556 2988 1916 2988 
Q 2516 2988 2870 2573 
Q 3225 2159 3225 1491 
Q 3225 1047 3059 690 
Q 2894 334 2584 135 
Q 2275 -63 1878 -63 
Q 1225 -63 815 410 
Q 406 884 406 1634 
L 406 2009 
Q 406 3231 962 3901 
Q 1519 4572 2541 4584 
L 2634 4584 
z
M 1856 2666 
Q 1500 2666 1192 2455 
Q 884 2244 781 1919 
L 781 1600 
Q 781 1006 1086 631 
Q 1391 256 1878 256 
Q 2316 256 2586 603 
Q 2856 950 2856 1478 
Q 2856 2016 2586 2341 
Q 2316 2666 1856 2666 
z
" transform="scale(0.015625)"/>
       </defs>
       <use xlink:href="#Roboto-Light-36"/>
       <use xlink:href="#Roboto-Light-30" transform="translate(55.419922 0)"/>
      </g>
     </g>
    </g>
    <g id="text_6">
     <!-- Panel surface temperature $T_{sp}$ [°C] -->
     <g transform="translate(95.913595 111.053974) scale(0.075 -0.075)">
      <defs>
       <path id="Roboto-Light-50" d="M 959 1853 
L 959 0 
L 575 0 
L 575 4550 
L 2125 4550 
Q 2834 4550 3245 4187 
Q 3656 3825 3656 3191 
Q 3656 2550 3261 2201 
Q 2866 1853 2116 1853 
L 959 1853 
z
M 959 2178 
L 2125 2178 
Q 2684 2178 2978 2443 
Q 3272 2709 3272 3184 
Q 3272 3656 2980 3936 
Q 2688 4216 2150 4222 
L 959 4222 
L 959 2178 
z
" transform="scale(0.015625)"/>
       <path id="Roboto-Light-61" d="M 2622 0 
Q 2566 159 2550 472 
Q 2353 216 2048 76 
Q 1744 -63 1403 -63 
Q 916 -63 614 209 
Q 313 481 313 897 
Q 313 1391 723 1678 
Q 1134 1966 1869 1966 
L 2547 1966 
L 2547 2350 
Q 2547 2713 2323 2920 
Q 2100 3128 1672 3128 
Q 1281 3128 1025 2928 
Q 769 2728 769 2447 
L 394 2450 
Q 394 2853 769 3148 
Q 1144 3444 1691 3444 
Q 2256 3444 2582 3161 
Q 2909 2878 2919 2372 
L 2919 772 
Q 2919 281 3022 38 
L 3022 0 
L 2622 0 
z
M 1447 269 
Q 1822 269 2117 450 
Q 2413 631 2547 934 
L 2547 1678 
L 1878 1678 
Q 1319 1672 1003 1473 
Q 688 1275 688 928 
Q 688 644 898 456 
Q 1109 269 1447 269 
z
" transform="scale(0.015625)"/>
       <path id="Roboto-Light-6e" d="M 844 3381 
L 856 2803 
Q 1047 3116 1331 3280 
Q 1616 3444 1959 3444 
Q 2503 3444 2768 3137 
Q 3034 2831 3038 2219 
L 3038 0 
L 2666 0 
L 2666 2222 
Q 2663 2675 2473 2897 
Q 2284 3119 1869 3119 
Q 1522 3119 1255 2901 
Q 988 2684 859 2316 
L 859 0 
L 488 0 
L 488 3381 
L 844 3381 
z
" transform="scale(0.015625)"/>
       <path id="Roboto-Light-65" d="M 1797 -63 
Q 1366 -63 1017 150 
Q 669 363 475 742 
Q 281 1122 281 1594 
L 281 1728 
Q 281 2216 470 2606 
Q 659 2997 996 3220 
Q 1334 3444 1728 3444 
Q 2344 3444 2705 3023 
Q 3066 2603 3066 1875 
L 3066 1666 
L 653 1666 
L 653 1594 
Q 653 1019 983 636 
Q 1313 253 1813 253 
Q 2113 253 2342 362 
Q 2572 472 2759 713 
L 2994 534 
Q 2581 -63 1797 -63 
z
M 1728 3125 
Q 1306 3125 1017 2815 
Q 728 2506 666 1984 
L 2694 1984 
L 2694 2025 
Q 2678 2513 2415 2819 
Q 2153 3125 1728 3125 
z
" transform="scale(0.015625)"/>
       <path id="Roboto-Light-6c" d="M 906 0 
L 531 0 
L 531 4800 
L 906 4800 
L 906 0 
z
" transform="scale(0.015625)"/>
       <path id="Roboto-Light-20" transform="scale(0.015625)"/>
       <path id="Roboto-Light-73" d="M 2513 859 
Q 2513 1138 2289 1306 
Q 2066 1475 1616 1570 
Q 1166 1666 917 1789 
Q 669 1913 548 2091 
Q 428 2269 428 2522 
Q 428 2922 762 3183 
Q 1097 3444 1619 3444 
Q 2184 3444 2526 3164 
Q 2869 2884 2869 2434 
L 2494 2434 
Q 2494 2731 2245 2928 
Q 1997 3125 1619 3125 
Q 1250 3125 1026 2961 
Q 803 2797 803 2534 
Q 803 2281 989 2142 
Q 1175 2003 1667 1887 
Q 2159 1772 2404 1640 
Q 2650 1509 2769 1325 
Q 2888 1141 2888 878 
Q 2888 450 2542 193 
Q 2197 -63 1641 -63 
Q 1050 -63 683 223 
Q 316 509 316 947 
L 691 947 
Q 713 619 967 436 
Q 1222 253 1641 253 
Q 2031 253 2272 425 
Q 2513 597 2513 859 
z
" transform="scale(0.015625)"/>
       <path id="Roboto-Light-75" d="M 2663 428 
Q 2325 -63 1584 -63 
Q 1044 -63 762 251 
Q 481 566 475 1181 
L 475 3381 
L 847 3381 
L 847 1228 
Q 847 263 1628 263 
Q 2441 263 2656 934 
L 2656 3381 
L 3031 3381 
L 3031 0 
L 2669 0 
L 2663 428 
z
" transform="scale(0.015625)"/>
       <path id="Roboto-Light-72" d="M 2050 3063 
Q 1931 3084 1797 3084 
Q 1447 3084 1205 2889 
Q 963 2694 859 2322 
L 859 0 
L 488 0 
L 488 3381 
L 853 3381 
L 859 2844 
Q 1156 3444 1813 3444 
Q 1969 3444 2059 3403 
L 2050 3063 
z
" transform="scale(0.015625)"/>
       <path id="Roboto-Light-66" d="M 756 0 
L 756 3075 
L 197 3075 
L 197 3381 
L 756 3381 
L 756 3791 
Q 756 4309 1020 4587 
Q 1284 4866 1756 4866 
Q 1969 4866 2153 4813 
L 2125 4500 
Q 1969 4538 1784 4538 
Q 1475 4538 1303 4345 
Q 1131 4153 1131 3800 
L 1131 3381 
L 1938 3381 
L 1938 3075 
L 1131 3075 
L 1131 0 
L 756 0 
z
" transform="scale(0.015625)"/>
       <path id="Roboto-Light-63" d="M 1738 253 
Q 2128 253 2392 473 
Q 2656 694 2678 1044 
L 3038 1044 
Q 3022 734 2844 479 
Q 2666 225 2370 81 
Q 2075 -63 1738 -63 
Q 1072 -63 683 400 
Q 294 863 294 1644 
L 294 1756 
Q 294 2256 469 2640 
Q 644 3025 970 3234 
Q 1297 3444 1734 3444 
Q 2291 3444 2652 3112 
Q 3013 2781 3038 2241 
L 2678 2241 
Q 2653 2638 2392 2881 
Q 2131 3125 1734 3125 
Q 1228 3125 948 2759 
Q 669 2394 669 1734 
L 669 1625 
Q 669 978 948 615 
Q 1228 253 1738 253 
z
" transform="scale(0.015625)"/>
       <path id="Roboto-Light-74" d="M 1069 4247 
L 1069 3381 
L 1769 3381 
L 1769 3075 
L 1069 3075 
L 1069 822 
Q 1069 541 1170 403 
Q 1272 266 1509 266 
Q 1603 266 1813 297 
L 1828 -9 
Q 1681 -63 1428 -63 
Q 1044 -63 869 160 
Q 694 384 694 819 
L 694 3075 
L 72 3075 
L 72 3381 
L 694 3381 
L 694 4247 
L 1069 4247 
z
" transform="scale(0.015625)"/>
       <path id="Roboto-Light-6d" d="M 828 3381 
L 841 2831 
Q 1028 3138 1309 3291 
Q 1591 3444 1934 3444 
Q 2734 3444 2950 2788 
Q 3131 3103 3434 3273 
Q 3738 3444 4103 3444 
Q 5191 3444 5213 2256 
L 5213 0 
L 4838 0 
L 4838 2228 
Q 4834 2681 4642 2900 
Q 4450 3119 4016 3119 
Q 3613 3113 3334 2858 
Q 3056 2603 3025 2238 
L 3025 0 
L 2650 0 
L 2650 2256 
Q 2647 2691 2445 2905 
Q 2244 3119 1825 3119 
Q 1472 3119 1219 2917 
Q 966 2716 844 2319 
L 844 0 
L 469 0 
L 469 3381 
L 828 3381 
z
" transform="scale(0.015625)"/>
       <path id="Roboto-Light-70" d="M 3206 1656 
Q 3206 866 2856 401 
Q 2506 -63 1919 -63 
Q 1225 -63 856 425 
L 856 -1300 
L 484 -1300 
L 484 3381 
L 831 3381 
L 850 2903 
Q 1216 3444 1909 3444 
Q 2516 3444 2861 2984 
Q 3206 2525 3206 1709 
L 3206 1656 
z
M 2831 1722 
Q 2831 2369 2565 2744 
Q 2300 3119 1825 3119 
Q 1481 3119 1234 2953 
Q 988 2788 856 2472 
L 856 850 
Q 991 559 1241 406 
Q 1491 253 1831 253 
Q 2303 253 2567 629 
Q 2831 1006 2831 1722 
z
" transform="scale(0.015625)"/>
       <path id="NotoSansMath-Regular-54" d="M 1491 0 
L 1491 4064 
L 64 4064 
L 64 4570 
L 3488 4570 
L 3488 4064 
L 2067 4064 
L 2067 0 
L 1491 0 
z
" transform="scale(0.015625)"/>
       <path id="NotoSansMath-Regular-73" d="M 1408 -64 
Q 1050 -64 790 -6 
Q 531 51 333 154 
L 333 666 
Q 538 563 829 476 
Q 1120 390 1421 390 
Q 1850 390 2042 528 
Q 2234 666 2234 896 
Q 2234 1024 2163 1126 
Q 2093 1229 1910 1331 
Q 1728 1434 1389 1562 
Q 1056 1690 819 1818 
Q 582 1946 454 2125 
Q 326 2304 326 2586 
Q 326 3021 681 3257 
Q 1037 3494 1613 3494 
Q 1926 3494 2198 3433 
Q 2470 3373 2707 3264 
L 2515 2816 
Q 2298 2906 2061 2970 
Q 1824 3034 1574 3034 
Q 1229 3034 1046 2922 
Q 864 2810 864 2618 
Q 864 2477 947 2377 
Q 1030 2278 1225 2185 
Q 1421 2093 1747 1965 
Q 2074 1843 2304 1712 
Q 2534 1581 2656 1401 
Q 2778 1222 2778 947 
Q 2778 448 2406 192 
Q 2035 -64 1408 -64 
z
" transform="scale(0.015625)"/>
       <path id="NotoSansMath-Regular-70" d="M 544 -1536 
L 544 3430 
L 1005 3430 
L 1082 2963 
L 1107 2963 
Q 1261 3187 1510 3340 
Q 1760 3494 2176 3494 
Q 2810 3494 3197 3052 
Q 3584 2611 3584 1722 
Q 3584 845 3197 390 
Q 2810 -64 2170 -64 
Q 1773 -64 1513 86 
Q 1254 237 1107 435 
L 1069 435 
Q 1082 326 1094 160 
Q 1107 -6 1107 -128 
L 1107 -1536 
L 544 -1536 
z
M 2086 403 
Q 2400 403 2601 576 
Q 2803 749 2902 1046 
Q 3002 1344 3002 1728 
Q 3002 2317 2774 2669 
Q 2547 3021 2074 3021 
Q 1549 3021 1334 2726 
Q 1120 2432 1107 1830 
L 1107 1722 
Q 1107 1088 1315 745 
Q 1523 403 2086 403 
z
" transform="scale(0.015625)"/>
       <path id="Roboto-Light-5b" d="M 1541 4881 
L 884 4881 
L 884 -656 
L 1541 -656 
L 1541 -975 
L 509 -975 
L 509 5200 
L 1541 5200 
L 1541 4881 
z
" transform="scale(0.015625)"/>
       <path id="Roboto-Light-b0" d="M 1969 3831 
Q 1969 3506 1747 3284 
Q 1525 3063 1213 3063 
Q 897 3063 672 3286 
Q 447 3509 447 3831 
Q 447 4153 675 4383 
Q 903 4613 1212 4613 
Q 1522 4613 1745 4383 
Q 1969 4153 1969 3831 
z
M 728 3831 
Q 728 3622 867 3484 
Q 1006 3347 1212 3347 
Q 1419 3347 1553 3484 
Q 1688 3622 1688 3831 
Q 1688 4047 1553 4187 
Q 1419 4328 1213 4328 
Q 1009 4328 868 4187 
Q 728 4047 728 3831 
z
" transform="scale(0.015625)"/>
       <path id="Roboto-Light-43" d="M 3797 1419 
Q 3719 700 3283 318 
Q 2847 -63 2122 -63 
Q 1616 -63 1227 190 
Q 838 444 625 908 
Q 413 1372 409 1969 
L 409 2559 
Q 409 3166 621 3634 
Q 834 4103 1232 4358 
Q 1631 4613 2150 4613 
Q 2881 4613 3304 4217 
Q 3728 3822 3797 3125 
L 3409 3125 
Q 3266 4284 2150 4284 
Q 1531 4284 1164 3821 
Q 797 3359 797 2544 
L 797 1988 
Q 797 1200 1155 731 
Q 1513 263 2122 263 
Q 2725 263 3031 552 
Q 3338 841 3409 1419 
L 3797 1419 
z
" transform="scale(0.015625)"/>
       <path id="Roboto-Light-5d" d="M 0 5200 
L 1034 5200 
L 1034 -975 
L 0 -975 
L 0 -656 
L 659 -656 
L 659 4881 
L 0 4881 
L 0 5200 
z
" transform="scale(0.015625)"/>
      </defs>
      <use xlink:href="#Roboto-Light-50" transform="translate(0 0.75)"/>
      <use xlink:href="#Roboto-Light-61" transform="translate(61.572266 0.75)"/>
      <use xlink:href="#Roboto-Light-6e" transform="translate(115.136719 0.75)"/>
      <use xlink:href="#Roboto-Light-65" transform="translate(170.068359 0.75)"/>
      <use xlink:href="#Roboto-Light-6c" transform="translate(221.728516 0.75)"/>
      <use xlink:href="#Roboto-Light-20" transform="translate(244.140625 0.75)"/>
      <use xlink:href="#Roboto-Light-73" transform="translate(268.457031 0.75)"/>
      <use xlink:href="#Roboto-Light-75" transform="translate(319.091797 0.75)"/>
      <use xlink:href="#Roboto-Light-72" transform="translate(374.023438 0.75)"/>
      <use xlink:href="#Roboto-Light-66" transform="translate(407.666016 0.75)"/>
      <use xlink:href="#Roboto-Light-61" transform="translate(440.771484 0.75)"/>
      <use xlink:href="#Roboto-Light-63" transform="translate(494.335938 0.75)"/>
      <use xlink:href="#Roboto-Light-65" transform="translate(545.849609 0.75)"/>
      <use xlink:href="#Roboto-Light-20" transform="translate(597.509766 0.75)"/>
      <use xlink:href="#Roboto-Light-74" transform="translate(621.826172 0.75)"/>
      <use xlink:href="#Roboto-Light-65" transform="translate(653.955078 0.75)"/>
      <use xlink:href="#Roboto-Light-6d" transform="translate(705.615234 0.75)"/>
      <use xlink:href="#Roboto-Light-70" transform="translate(794.238281 0.75)"/>
      <use xlink:href="#Roboto-Light-65" transform="translate(849.658203 0.75)"/>
      <use xlink:href="#Roboto-Light-72" transform="translate(901.318359 0.75)"/>
      <use xlink:href="#Roboto-Light-61" transform="translate(934.960938 0.75)"/>
      <use xlink:href="#Roboto-Light-74" transform="translate(988.525391 0.75)"/>
      <use xlink:href="#Roboto-Light-75" transform="translate(1020.654297 0.75)"/>
      <use xlink:href="#Roboto-Light-72" transform="translate(1075.585938 0.75)"/>
      <use xlink:href="#Roboto-Light-65" transform="translate(1109.228516 0.75)"/>
      <use xlink:href="#Roboto-Light-20" transform="translate(1160.888672 0.75)"/>
      <use xlink:href="#NotoSansMath-Regular-54" transform="translate(1185.205078 0.75)"/>
      <use xlink:href="#NotoSansMath-Regular-73" transform="translate(1240.805069 -15.328125) scale(0.7)"/>
      <use xlink:href="#NotoSansMath-Regular-70" transform="translate(1274.335065 -15.328125) scale(0.7)"/>
      <use xlink:href="#Roboto-Light-20" transform="translate(1320.064742 0.75)"/>
      <use xlink:href="#Roboto-Light-5b" transform="translate(1344.381148 0.75)"/>
      <use xlink:href="#Roboto-Light-b0" transform="translate(1368.355757 0.75)"/>
      <use xlink:href="#Roboto-Light-43" transform="translate(1406.148726 0.75)"/>
      <use xlink:href="#Roboto-Light-5d" transform="translate(1471.090132 0.75)"/>
     </g>
    </g>
   </g>
   <g id="matplotlib.axis_2">
    <g id="ytick_1">
     <g id="line2d_10">
      <defs>
       <path id="mf05b657294" d="M 0 0 
L -2 0 
" style="stroke: #000000; stroke-width: 0.3"/>
      </defs>
      <g>
       <use xlink:href="#mf05b657294" x="34.407747" y="90.708661" style="stroke: #000000; stroke-width: 0.3"/>
      </g>
     </g>
     <g id="text_7">
      <!-- 0 -->
      <g transform="translate(27.805325 93.146161) scale(0.065 -0.065)">
       <use xlink:href="#Roboto-Light-30"/>
      </g>
     </g>
    </g>
    <g id="ytick_2">
     <g id="line2d_11">
      <g>
       <use xlink:href="#mf05b657294" x="34.407747" y="66.563007" style="stroke: #000000; stroke-width: 0.3"/>
      </g>
     </g>
     <g id="text_8">
      <!-- 1000 -->
      <g transform="translate(16.998059 69.000507) scale(0.065 -0.065)">
       <defs>
        <path id="Roboto-Light-31" d="M 2169 0 
L 1794 0 
L 1794 4100 
L 556 3641 
L 556 3991 
L 2106 4566 
L 2169 4566 
L 2169 0 
z
" transform="scale(0.015625)"/>
       </defs>
       <use xlink:href="#Roboto-Light-31"/>
       <use xlink:href="#Roboto-Light-30" transform="translate(55.419922 0)"/>
       <use xlink:href="#Roboto-Light-30" transform="translate(110.839844 0)"/>
       <use xlink:href="#Roboto-Light-30" transform="translate(166.259766 0)"/>
      </g>
     </g>
    </g>
    <g id="ytick_3">
     <g id="line2d_12">
      <g>
       <use xlink:href="#mf05b657294" x="34.407747" y="42.417353" style="stroke: #000000; stroke-width: 0.3"/>
      </g>
     </g>
     <g id="text_9">
      <!-- 2000 -->
      <g transform="translate(16.998059 44.854853) scale(0.065 -0.065)">
       <defs>
        <path id="Roboto-Light-32" d="M 3278 0 
L 428 0 
L 428 288 
L 1988 2056 
Q 2375 2503 2525 2793 
Q 2675 3084 2675 3359 
Q 2675 3791 2422 4042 
Q 2169 4294 1725 4294 
Q 1266 4294 983 4000 
Q 700 3706 700 3238 
L 328 3238 
Q 328 3622 501 3937 
Q 675 4253 995 4433 
Q 1316 4613 1725 4613 
Q 2350 4613 2701 4284 
Q 3053 3956 3053 3391 
Q 3053 3072 2854 2694 
Q 2656 2316 2156 1750 
L 888 316 
L 3278 316 
L 3278 0 
z
" transform="scale(0.015625)"/>
       </defs>
       <use xlink:href="#Roboto-Light-32"/>
       <use xlink:href="#Roboto-Light-30" transform="translate(55.419922 0)"/>
       <use xlink:href="#Roboto-Light-30" transform="translate(110.839844 0)"/>
       <use xlink:href="#Roboto-Light-30" transform="translate(166.259766 0)"/>
      </g>
     </g>
    </g>
    <g id="ytick_4">
     <g id="line2d_13">
      <g>
       <use xlink:href="#mf05b657294" x="34.407747" y="18.271699" style="stroke: #000000; stroke-width: 0.3"/>
      </g>
     </g>
     <g id="text_10">
      <!-- 3000 -->
      <g transform="translate(16.998059 20.709199) scale(0.065 -0.065)">
       <defs>
        <path id="Roboto-Light-33" d="M 1259 2478 
L 1647 2478 
Q 1969 2478 2209 2592 
Q 2450 2706 2576 2904 
Q 2703 3103 2703 3363 
Q 2703 3800 2456 4047 
Q 2209 4294 1747 4294 
Q 1309 4294 1029 4036 
Q 750 3778 750 3356 
L 375 3356 
Q 375 3709 553 4001 
Q 731 4294 1047 4453 
Q 1363 4613 1747 4613 
Q 2366 4613 2722 4275 
Q 3078 3938 3078 3350 
Q 3078 3022 2870 2745 
Q 2663 2469 2300 2331 
Q 2725 2213 2944 1923 
Q 3163 1634 3163 1234 
Q 3163 650 2781 293 
Q 2400 -63 1763 -63 
Q 1356 -63 1017 100 
Q 678 263 492 555 
Q 306 847 306 1234 
L 681 1234 
Q 681 800 984 526 
Q 1288 253 1763 253 
Q 2247 253 2517 501 
Q 2788 750 2788 1222 
Q 2788 1678 2495 1918 
Q 2203 2159 1634 2159 
L 1259 2159 
L 1259 2478 
z
" transform="scale(0.015625)"/>
       </defs>
       <use xlink:href="#Roboto-Light-33"/>
       <use xlink:href="#Roboto-Light-30" transform="translate(55.419922 0)"/>
       <use xlink:href="#Roboto-Light-30" transform="translate(110.839844 0)"/>
       <use xlink:href="#Roboto-Light-30" transform="translate(166.259766 0)"/>
      </g>
     </g>
    </g>
    <g id="text_11">
     <!-- Energy [W] -->
     <g transform="translate(11.397278 71.815766) rotate(-90) scale(0.075 -0.075)">
      <defs>
       <path id="Roboto-Light-45" d="M 3088 2181 
L 959 2181 
L 959 325 
L 3406 325 
L 3406 0 
L 575 0 
L 575 4550 
L 3391 4550 
L 3391 4222 
L 959 4222 
L 959 2506 
L 3088 2506 
L 3088 2181 
z
" transform="scale(0.015625)"/>
       <path id="Roboto-Light-67" d="M 338 1722 
Q 338 2516 689 2980 
Q 1041 3444 1644 3444 
Q 2334 3444 2694 2894 
L 2713 3381 
L 3063 3381 
L 3063 69 
Q 3063 -584 2697 -965 
Q 2331 -1347 1706 -1347 
Q 1353 -1347 1033 -1189 
Q 713 -1031 528 -769 
L 738 -544 
Q 1134 -1031 1681 -1031 
Q 2150 -1031 2412 -754 
Q 2675 -478 2684 13 
L 2684 438 
Q 2325 -63 1638 -63 
Q 1050 -63 694 406 
Q 338 875 338 1672 
L 338 1722 
z
M 716 1656 
Q 716 1009 975 636 
Q 1234 263 1706 263 
Q 2397 263 2684 881 
L 2684 2453 
Q 2553 2778 2306 2948 
Q 2059 3119 1713 3119 
Q 1241 3119 978 2748 
Q 716 2378 716 1656 
z
" transform="scale(0.015625)"/>
       <path id="Roboto-Light-79" d="M 1559 538 
L 2547 3381 
L 2950 3381 
L 1506 -575 
L 1431 -750 
Q 1153 -1366 572 -1366 
Q 438 -1366 284 -1322 
L 281 -1013 
L 475 -1031 
Q 750 -1031 920 -895 
Q 1091 -759 1209 -428 
L 1375 28 
L 100 3381 
L 509 3381 
L 1559 538 
z
" transform="scale(0.015625)"/>
       <path id="Roboto-Light-57" d="M 1416 1228 
L 1556 522 
L 1728 1197 
L 2716 4550 
L 3063 4550 
L 4038 1197 
L 4206 516 
L 4356 1228 
L 5178 4550 
L 5572 4550 
L 4406 0 
L 4038 0 
L 3006 3559 
L 2891 4009 
L 2778 3559 
L 1722 0 
L 1353 0 
L 191 4550 
L 584 4550 
L 1416 1228 
z
" transform="scale(0.015625)"/>
      </defs>
      <use xlink:href="#Roboto-Light-45"/>
      <use xlink:href="#Roboto-Light-6e" transform="translate(56.884766 0)"/>
      <use xlink:href="#Roboto-Light-65" transform="translate(111.816406 0)"/>
      <use xlink:href="#Roboto-Light-72" transform="translate(163.476562 0)"/>
      <use xlink:href="#Roboto-Light-67" transform="translate(197.119141 0)"/>
      <use xlink:href="#Roboto-Light-79" transform="translate(252.587891 0)"/>
      <use xlink:href="#Roboto-Light-20" transform="translate(300.097656 0)"/>
      <use xlink:href="#Roboto-Light-5b" transform="translate(324.414062 0)"/>
      <use xlink:href="#Roboto-Light-57" transform="translate(348.388672 0)"/>
      <use xlink:href="#Roboto-Light-5d" transform="translate(438.037109 0)"/>
     </g>
    </g>
   </g>
   <g id="legend_1">
    <g id="line2d_14">
     <path d="M 150.269443 23.221699 
L 155.769443 23.221699 
L 161.269443 23.221699 
" style="fill: none; stroke: #f59e0b; stroke-width: 0.5; stroke-linecap: square"/>
    </g>
    <g id="text_12">
     <!-- $Q_{sol}$ -->
     <g transform="translate(162.919443 25.146699) scale(0.055 -0.055)">
      <defs>
       <path id="NotoSansMath-Regular-51" d="M 3546 -1088 
L 2662 -58 
Q 2598 -64 2569 -64 
Q 2541 -64 2502 -64 
Q 1792 -64 1321 230 
Q 851 525 620 1056 
Q 390 1587 390 2298 
Q 390 3002 620 3526 
Q 851 4051 1321 4345 
Q 1792 4640 2509 4640 
Q 3194 4640 3661 4349 
Q 4128 4058 4368 3530 
Q 4608 3002 4608 2291 
Q 4608 1453 4272 864 
Q 3936 275 3277 51 
L 4371 -1088 
L 3546 -1088 
z
M 2502 435 
Q 3283 435 3641 931 
Q 4000 1427 4000 2291 
Q 4000 3155 3641 3644 
Q 3283 4134 2509 4134 
Q 1734 4134 1366 3644 
Q 998 3155 998 2291 
Q 998 1427 1363 931 
Q 1728 435 2502 435 
z
" transform="scale(0.015625)"/>
       <path id="NotoSansMath-Regular-6f" d="M 1926 -64 
Q 1472 -64 1117 144 
Q 762 352 557 752 
Q 352 1152 352 1722 
Q 352 2573 781 3033 
Q 1210 3494 1946 3494 
Q 2413 3494 2768 3286 
Q 3123 3078 3324 2684 
Q 3526 2291 3526 1722 
Q 3526 870 3094 403 
Q 2662 -64 1926 -64 
z
M 1939 403 
Q 2458 403 2701 758 
Q 2944 1114 2944 1722 
Q 2944 2330 2701 2675 
Q 2458 3021 1933 3021 
Q 1408 3021 1171 2675 
Q 934 2330 934 1722 
Q 934 1114 1174 758 
Q 1414 403 1939 403 
z
" transform="scale(0.015625)"/>
       <path id="NotoSansMath-Regular-6c" d="M 544 0 
L 544 4864 
L 1107 4864 
L 1107 0 
L 544 0 
z
" transform="scale(0.015625)"/>
      </defs>
      <use xlink:href="#NotoSansMath-Regular-51" transform="translate(0 0.5)"/>
      <use xlink:href="#NotoSansMath-Regular-73" transform="translate(78.099991 -15.578125) scale(0.7)"/>
      <use xlink:href="#NotoSansMath-Regular-6f" transform="translate(111.629987 -15.578125) scale(0.7)"/>
      <use xlink:href="#NotoSansMath-Regular-6c" transform="translate(153.979976 -15.578125) scale(0.7)"/>
     </g>
    </g>
    <g id="line2d_15">
     <path d="M 176.669443 23.221699 
L 182.169443 23.221699 
L 187.669443 23.221699 
" style="fill: none; stroke: #65a30d; stroke-width: 0.5; stroke-linecap: square"/>
    </g>
    <g id="text_13">
     <!-- $Q_{w,sup}$ -->
     <g transform="translate(189.319443 25.146699) scale(0.055 -0.055)">
      <defs>
       <path id="NotoSansMath-Regular-77" d="M 1011 6 
L 70 3437 
L 653 3437 
L 1126 1606 
Q 1197 1331 1261 1049 
Q 1325 768 1350 582 
L 1376 582 
Q 1402 691 1437 851 
Q 1472 1011 1517 1187 
Q 1562 1363 1606 1504 
L 2214 3437 
L 2829 3437 
L 3418 1504 
Q 3488 1286 3555 1030 
Q 3622 774 3648 589 
L 3674 589 
Q 3693 749 3760 1030 
Q 3827 1312 3904 1606 
L 4384 3437 
L 4960 3437 
L 4006 6 
L 3347 6 
L 2758 1939 
Q 2675 2202 2614 2454 
Q 2554 2707 2522 2848 
L 2496 2848 
Q 2470 2707 2412 2454 
Q 2355 2202 2266 1933 
L 1651 6 
L 1011 6 
z
" transform="scale(0.015625)"/>
       <path id="NotoSansMath-Regular-2c" d="M 262 -826 
Q 352 -461 445 -25 
Q 538 410 582 742 
L 1184 742 
L 1229 672 
Q 1146 333 989 -73 
Q 832 -480 678 -826 
L 262 -826 
z
" transform="scale(0.015625)"/>
       <path id="NotoSansMath-Regular-75" d="M 1754 -64 
Q 1133 -64 819 233 
Q 506 531 506 1184 
L 506 3430 
L 1075 3430 
L 1075 1222 
Q 1075 403 1837 403 
Q 2406 403 2627 723 
Q 2848 1043 2848 1645 
L 2848 3430 
L 3411 3430 
L 3411 0 
L 2950 0 
L 2867 454 
L 2842 454 
Q 2675 186 2380 61 
Q 2086 -64 1754 -64 
z
" transform="scale(0.015625)"/>
      </defs>
      <use xlink:href="#NotoSansMath-Regular-51" transform="translate(0 0.5)"/>
      <use xlink:href="#NotoSansMath-Regular-77" transform="translate(78.099991 -15.578125) scale(0.7)"/>
      <use xlink:href="#NotoSansMath-Regular-2c" transform="translate(133.119984 -15.578125) scale(0.7)"/>
      <use xlink:href="#NotoSansMath-Regular-73" transform="translate(164.969974 -15.578125) scale(0.7)"/>
      <use xlink:href="#NotoSansMath-Regular-75" transform="translate(198.499969 -15.578125) scale(0.7)"/>
      <use xlink:href="#NotoSansMath-Regular-70" transform="translate(241.759961 -15.578125) scale(0.7)"/>
     </g>
    </g>
    <g id="line2d_16">
     <path d="M 209.284443 23.221699 
L 214.784443 23.221699 
L 220.284443 23.221699 
" style="fill: none; stroke: #2563eb; stroke-width: 0.5; stroke-linecap: square"/>
    </g>
    <g id="text_14">
     <!-- $Q_{w,stp,out}$ -->
     <g transform="translate(221.934443 25.146699) scale(0.055 -0.055)">
      <defs>
       <path id="NotoSansMath-Regular-74" d="M 1594 -64 
Q 1325 -64 1097 29 
Q 870 122 729 352 
Q 589 582 589 998 
L 589 2995 
L 102 2995 
L 102 3264 
L 595 3488 
L 819 4218 
L 1152 4218 
L 1152 3430 
L 2144 3430 
L 2144 2995 
L 1152 2995 
L 1152 1011 
Q 1152 698 1302 547 
Q 1453 397 1690 397 
Q 1818 397 1952 419 
Q 2086 442 2170 467 
L 2170 38 
Q 2080 -6 1913 -35 
Q 1747 -64 1594 -64 
z
" transform="scale(0.015625)"/>
      </defs>
      <use xlink:href="#NotoSansMath-Regular-51" transform="translate(0 0.5)"/>
      <use xlink:href="#NotoSansMath-Regular-77" transform="translate(78.099991 -15.578125) scale(0.7)"/>
      <use xlink:href="#NotoSansMath-Regular-2c" transform="translate(133.119984 -15.578125) scale(0.7)"/>
      <use xlink:href="#NotoSansMath-Regular-73" transform="translate(164.969974 -15.578125) scale(0.7)"/>
      <use xlink:href="#NotoSansMath-Regular-74" transform="translate(198.499969 -15.578125) scale(0.7)"/>
      <use xlink:href="#NotoSansMath-Regular-70" transform="translate(223.769963 -15.578125) scale(0.7)"/>
      <use xlink:href="#NotoSansMath-Regular-2c" transform="translate(266.819952 -15.578125) scale(0.7)"/>
      <use xlink:href="#NotoSansMath-Regular-6f" transform="translate(298.669942 -15.578125) scale(0.7)"/>
      <use xlink:href="#NotoSansMath-Regular-75" transform="translate(341.019931 -15.578125) scale(0.7)"/>
      <use xlink:href="#NotoSansMath-Regular-74" transform="translate(384.279922 -15.578125) scale(0.7)"/>
     </g>
    </g>
    <g id="line2d_17">
     <path d="M 248.774443 23.221699 
L 254.274443 23.221699 
L 259.774443 23.221699 
" style="fill: none; stroke: #9333ea; stroke-width: 0.5; stroke-linecap: square"/>
    </g>
    <g id="text_15">
     <!-- $Q_{l}$ -->
     <g transform="translate(261.424443 25.146699) scale(0.055 -0.055)">
      <use xlink:href="#NotoSansMath-Regular-51" transform="translate(0 0.5)"/>
      <use xlink:href="#NotoSansMath-Regular-6c" transform="translate(78.099991 -15.578125) scale(0.7)"/>
     </g>
    </g>
   </g>
  </g>
 </g>
 <defs>
  <clipPath id="pd4e8529761">
   <rect x="34.407747" y="18.271699" width="235.211696" height="72.436963"/>
  </clipPath>
 </defs>
</svg>
