<?xml version="1.0" encoding="utf-8" standalone="no"?>
<!DOCTYPE svg PUBLIC "-//W3C//DTD SVG 1.1//EN"
  "http://www.w3.org/Graphics/SVG/1.1/DTD/svg11.dtd">
<svg xmlns:xlink="http://www.w3.org/1999/xlink" width="481.889764pt" height="226.771654pt" viewBox="0 0 481.889764 226.771654" xmlns="http://www.w3.org/2000/svg" version="1.1">
 <metadata>
  <rdf:RDF xmlns:dc="http://purl.org/dc/elements/1.1/" xmlns:cc="http://creativecommons.org/ns#" xmlns:rdf="http://www.w3.org/1999/02/22-rdf-syntax-ns#">
   <cc:Work>
    <dc:type rdf:resource="http://purl.org/dc/dcmitype/StillImage"/>
    <dc:date>2025-08-23T14:57:49.410457</dc:date>
    <dc:format>image/svg+xml</dc:format>
    <dc:creator>
     <cc:Agent>
      <dc:title>Matplotlib v3.10.3, https://matplotlib.org/</dc:title>
     </cc:Agent>
    </dc:creator>
   </cc:Work>
  </rdf:RDF>
 </metadata>
 <defs>
  <style type="text/css">*{stroke-linejoin: round; stroke-linecap: butt}</style>
 </defs>
 <g id="figure_1">
  <g id="patch_1">
   <path d="M 0 226.771654 
L 481.889764 226.771654 
L 481.889764 0 
L 0 0 
z
" style="fill: #ffffff"/>
  </g>
  <g id="axes_1">
   <g id="patch_2">
    <path d="M 38.551181 158.740157 
L 200.466142 158.740157 
L 200.466142 13.606299 
L 38.551181 13.606299 
z
" style="fill: #ffffff"/>
   </g>
   <g id="patch_3">
    <path d="M 50.544882 158.740157 
L 68.535433 158.740157 
L 68.535433 91.026746 
L 50.544882 91.026746 
z
" clip-path="url(#pb7021d50b8)" style="fill: #2b8a3e"/>
   </g>
   <g id="patch_4">
    <path d="M 80.529134 158.740157 
L 98.519685 158.740157 
L 98.519685 89.78948 
L 80.529134 89.78948 
z
" clip-path="url(#pb7021d50b8)" style="fill: #2b8a3e"/>
   </g>
   <g id="patch_5">
    <path d="M 110.513386 158.740157 
L 128.503937 158.740157 
L 128.503937 89.140006 
L 110.513386 89.140006 
z
" clip-path="url(#pb7021d50b8)" style="fill: #2b8a3e"/>
   </g>
   <g id="patch_6">
    <path d="M 140.497638 158.740157 
L 158.488189 158.740157 
L 158.488189 89.524611 
L 140.497638 89.524611 
z
" clip-path="url(#pb7021d50b8)" style="fill: #2b8a3e"/>
   </g>
   <g id="patch_7">
    <path d="M 170.48189 158.740157 
L 188.472441 158.740157 
L 188.472441 91.240819 
L 170.48189 91.240819 
z
" clip-path="url(#pb7021d50b8)" style="fill: #2b8a3e"/>
   </g>
   <g id="patch_8">
    <path d="M 50.544882 91.026746 
L 68.535433 91.026746 
L 68.535433 59.422639 
L 50.544882 59.422639 
z
" clip-path="url(#pb7021d50b8)" style="fill: #82c91e"/>
   </g>
   <g id="patch_9">
    <path d="M 80.529134 89.78948 
L 98.519685 89.78948 
L 98.519685 58.542161 
L 80.529134 58.542161 
z
" clip-path="url(#pb7021d50b8)" style="fill: #82c91e"/>
   </g>
   <g id="patch_10">
    <path d="M 110.513386 89.140006 
L 128.503937 89.140006 
L 128.503937 57.535899 
L 110.513386 57.535899 
z
" clip-path="url(#pb7021d50b8)" style="fill: #82c91e"/>
   </g>
   <g id="patch_11">
    <path d="M 140.497638 89.524611 
L 158.488189 89.524611 
L 158.488189 57.563717 
L 140.497638 57.563717 
z
" clip-path="url(#pb7021d50b8)" style="fill: #82c91e"/>
   </g>
   <g id="patch_12">
    <path d="M 170.48189 91.240819 
L 188.472441 91.240819 
L 188.472441 59.636712 
L 170.48189 59.636712 
z
" clip-path="url(#pb7021d50b8)" style="fill: #82c91e"/>
   </g>
   <g id="patch_13">
    <path d="M 50.544882 59.422639 
L 68.535433 59.422639 
L 68.535433 48.103408 
L 50.544882 48.103408 
z
" clip-path="url(#pb7021d50b8)" style="fill: #37b24d"/>
   </g>
   <g id="patch_14">
    <path d="M 80.529134 58.542161 
L 98.519685 58.542161 
L 98.519685 46.509354 
L 80.529134 46.509354 
z
" clip-path="url(#pb7021d50b8)" style="fill: #37b24d"/>
   </g>
   <g id="patch_15">
    <path d="M 110.513386 57.535899 
L 128.503937 57.535899 
L 128.503937 44.074734 
L 110.513386 44.074734 
z
" clip-path="url(#pb7021d50b8)" style="fill: #37b24d"/>
   </g>
   <g id="patch_16">
    <path d="M 140.497638 57.563717 
L 158.488189 57.563717 
L 158.488189 43.388976 
L 140.497638 43.388976 
z
" clip-path="url(#pb7021d50b8)" style="fill: #37b24d"/>
   </g>
   <g id="patch_17">
    <path d="M 170.48189 59.636712 
L 188.472441 59.636712 
L 188.472441 44.748397 
L 170.48189 44.748397 
z
" clip-path="url(#pb7021d50b8)" style="fill: #37b24d"/>
   </g>
   <g id="patch_18">
    <path d="M 38.551181 158.740157 
L 200.466142 158.740157 
" style="fill: none; stroke: #000000; stroke-width: 0.5; stroke-linejoin: miter; stroke-linecap: square"/>
   </g>
   <g id="line2d_1">
    <path d="M 59.540157 59.422639 
L 89.524409 58.542161 
L 119.508661 57.535899 
L 149.492913 57.563717 
L 179.477165 59.636712 
" clip-path="url(#pb7021d50b8)" style="fill: none; stroke: #2b8a3e; stroke-width: 0.75; stroke-linecap: square"/>
    <defs>
     <path id="mcf699d52c6" d="M 0 1.75 
C 0.464105 1.75 0.909265 1.565609 1.237437 1.237437 
C 1.565609 0.909265 1.75 0.464105 1.75 0 
C 1.75 -0.464105 1.565609 -0.909265 1.237437 -1.237437 
C 0.909265 -1.565609 0.464105 -1.75 0 -1.75 
C -0.464105 -1.75 -0.909265 -1.565609 -1.237437 -1.237437 
C -1.565609 -0.909265 -1.75 -0.464105 -1.75 0 
C -1.75 0.464105 -1.565609 0.909265 -1.237437 1.237437 
C -0.909265 1.565609 -0.464105 1.75 0 1.75 
z
" style="stroke: #2b8a3e; stroke-width: 0.75"/>
    </defs>
    <g clip-path="url(#pb7021d50b8)">
     <use xlink:href="#mcf699d52c6" x="59.540157" y="59.422639" style="fill: #fff5f5; stroke: #2b8a3e; stroke-width: 0.75"/>
     <use xlink:href="#mcf699d52c6" x="89.524409" y="58.542161" style="fill: #fff5f5; stroke: #2b8a3e; stroke-width: 0.75"/>
     <use xlink:href="#mcf699d52c6" x="119.508661" y="57.535899" style="fill: #fff5f5; stroke: #2b8a3e; stroke-width: 0.75"/>
     <use xlink:href="#mcf699d52c6" x="149.492913" y="57.563717" style="fill: #fff5f5; stroke: #2b8a3e; stroke-width: 0.75"/>
     <use xlink:href="#mcf699d52c6" x="179.477165" y="59.636712" style="fill: #fff5f5; stroke: #2b8a3e; stroke-width: 0.75"/>
    </g>
   </g>
   <g id="patch_19">
    <path d="M 38.551181 158.740157 
L 38.551181 13.606299 
" style="fill: none; stroke: #37b24d; stroke-width: 0.5; stroke-linejoin: miter; stroke-linecap: square"/>
   </g>
   <g id="patch_20">
    <path d="M 200.466142 158.740157 
L 200.466142 13.606299 
" style="fill: none; stroke: #fa5252; stroke-width: 0.5; stroke-linejoin: miter; stroke-linecap: square"/>
   </g>
   <g id="matplotlib.axis_1">
    <g id="xtick_1">
     <g id="line2d_2"/>
     <g id="text_1">
      <!-- 2016 -->
      <g transform="translate(61.360157 177.757032) rotate(-90) scale(0.07 -0.07)">
       <defs>
        <path id="NotoSans-Regular-32" d="M 3328 0 
L 307 0 
L 307 467 
L 1504 1677 
Q 1850 2022 2086 2291 
Q 2323 2560 2444 2819 
Q 2566 3078 2566 3386 
Q 2566 3763 2342 3958 
Q 2118 4154 1760 4154 
Q 1427 4154 1174 4038 
Q 922 3923 659 3718 
L 358 4096 
Q 538 4250 752 4371 
Q 966 4493 1219 4563 
Q 1472 4634 1760 4634 
Q 2189 4634 2496 4486 
Q 2803 4339 2972 4067 
Q 3142 3795 3142 3418 
Q 3142 3059 2995 2745 
Q 2848 2432 2585 2128 
Q 2323 1824 1971 1478 
L 1018 538 
L 1018 512 
L 3328 512 
L 3328 0 
z
" transform="scale(0.015625)"/>
        <path id="NotoSans-Regular-30" d="M 3347 2291 
Q 3347 1734 3264 1299 
Q 3181 864 2998 560 
Q 2816 256 2525 96 
Q 2234 -64 1824 -64 
Q 1312 -64 976 217 
Q 640 499 477 1027 
Q 314 1555 314 2291 
Q 314 3034 464 3558 
Q 614 4083 947 4361 
Q 1280 4640 1824 4640 
Q 2336 4640 2675 4361 
Q 3014 4083 3180 3558 
Q 3347 3034 3347 2291 
z
M 877 2291 
Q 877 1664 969 1248 
Q 1062 832 1270 624 
Q 1478 416 1824 416 
Q 2170 416 2378 621 
Q 2586 826 2682 1245 
Q 2778 1664 2778 2291 
Q 2778 2918 2682 3331 
Q 2586 3744 2378 3952 
Q 2170 4160 1824 4160 
Q 1478 4160 1270 3952 
Q 1062 3744 969 3331 
Q 877 2918 877 2291 
z
" transform="scale(0.015625)"/>
        <path id="NotoSans-Regular-31" d="M 2272 0 
L 1722 0 
L 1722 3194 
Q 1722 3379 1725 3507 
Q 1728 3635 1734 3747 
Q 1741 3859 1747 3981 
Q 1645 3878 1561 3808 
Q 1478 3738 1350 3629 
L 864 3232 
L 570 3610 
L 1805 4570 
L 2272 4570 
L 2272 0 
z
" transform="scale(0.015625)"/>
        <path id="NotoSans-Regular-36" d="M 352 1952 
Q 352 2349 406 2733 
Q 461 3117 595 3459 
Q 730 3802 966 4067 
Q 1203 4333 1564 4483 
Q 1926 4634 2445 4634 
Q 2579 4634 2742 4621 
Q 2906 4608 3008 4576 
L 3008 4096 
Q 2893 4134 2749 4153 
Q 2605 4173 2458 4173 
Q 2016 4173 1721 4025 
Q 1427 3878 1257 3622 
Q 1088 3366 1011 3033 
Q 934 2701 915 2323 
L 954 2323 
Q 1050 2477 1197 2598 
Q 1344 2720 1552 2790 
Q 1760 2861 2035 2861 
Q 2432 2861 2729 2697 
Q 3027 2534 3193 2224 
Q 3360 1914 3360 1472 
Q 3360 998 3181 652 
Q 3002 307 2678 121 
Q 2355 -64 1907 -64 
Q 1581 -64 1299 57 
Q 1018 179 803 428 
Q 589 678 470 1059 
Q 352 1440 352 1952 
z
M 1901 410 
Q 2304 410 2553 669 
Q 2803 928 2803 1472 
Q 2803 1907 2582 2163 
Q 2362 2419 1920 2419 
Q 1619 2419 1395 2294 
Q 1171 2170 1046 1978 
Q 922 1786 922 1581 
Q 922 1370 982 1165 
Q 1043 960 1168 787 
Q 1293 614 1475 512 
Q 1658 410 1901 410 
z
" transform="scale(0.015625)"/>
       </defs>
       <use xlink:href="#NotoSans-Regular-32"/>
       <use xlink:href="#NotoSans-Regular-30" transform="translate(57.199997 0)"/>
       <use xlink:href="#NotoSans-Regular-31" transform="translate(114.399994 0)"/>
       <use xlink:href="#NotoSans-Regular-36" transform="translate(171.599991 0)"/>
      </g>
     </g>
    </g>
    <g id="xtick_2">
     <g id="line2d_3"/>
     <g id="text_2">
      <!-- 2017 -->
      <g transform="translate(91.344409 177.757032) rotate(-90) scale(0.07 -0.07)">
       <defs>
        <path id="NotoSans-Regular-37" d="M 870 0 
L 2746 4058 
L 282 4058 
L 282 4570 
L 3347 4570 
L 3347 4134 
L 1491 0 
L 870 0 
z
" transform="scale(0.015625)"/>
       </defs>
       <use xlink:href="#NotoSans-Regular-32"/>
       <use xlink:href="#NotoSans-Regular-30" transform="translate(57.199997 0)"/>
       <use xlink:href="#NotoSans-Regular-31" transform="translate(114.399994 0)"/>
       <use xlink:href="#NotoSans-Regular-37" transform="translate(171.599991 0)"/>
      </g>
     </g>
    </g>
    <g id="xtick_3">
     <g id="line2d_4"/>
     <g id="text_3">
      <!-- 2018 -->
      <g transform="translate(121.328661 177.757032) rotate(-90) scale(0.07 -0.07)">
       <defs>
        <path id="NotoSans-Regular-38" d="M 1824 4634 
Q 2227 4634 2534 4509 
Q 2842 4384 3018 4141 
Q 3194 3898 3194 3539 
Q 3194 3264 3075 3059 
Q 2957 2854 2758 2697 
Q 2560 2541 2323 2419 
Q 2605 2285 2835 2115 
Q 3066 1946 3203 1722 
Q 3341 1498 3341 1184 
Q 3341 800 3155 521 
Q 2970 243 2634 89 
Q 2298 -64 1843 -64 
Q 1350 -64 1008 83 
Q 666 230 490 502 
Q 314 774 314 1165 
Q 314 1478 445 1708 
Q 576 1939 793 2105 
Q 1011 2272 1261 2387 
Q 1037 2515 854 2678 
Q 672 2842 566 3053 
Q 461 3264 461 3546 
Q 461 3898 640 4138 
Q 819 4378 1126 4506 
Q 1434 4634 1824 4634 
z
M 864 1158 
Q 864 826 1101 605 
Q 1338 384 1830 384 
Q 2298 384 2544 605 
Q 2790 826 2790 1178 
Q 2790 1402 2672 1571 
Q 2554 1741 2339 1875 
Q 2125 2010 1830 2118 
L 1728 2157 
Q 1446 2035 1254 1894 
Q 1062 1754 963 1574 
Q 864 1395 864 1158 
z
M 1818 4179 
Q 1466 4179 1238 4009 
Q 1011 3840 1011 3520 
Q 1011 3283 1123 3123 
Q 1235 2963 1427 2851 
Q 1619 2739 1850 2637 
Q 2074 2733 2250 2848 
Q 2426 2963 2531 3126 
Q 2637 3290 2637 3520 
Q 2637 3840 2413 4009 
Q 2189 4179 1818 4179 
z
" transform="scale(0.015625)"/>
       </defs>
       <use xlink:href="#NotoSans-Regular-32"/>
       <use xlink:href="#NotoSans-Regular-30" transform="translate(57.199997 0)"/>
       <use xlink:href="#NotoSans-Regular-31" transform="translate(114.399994 0)"/>
       <use xlink:href="#NotoSans-Regular-38" transform="translate(171.599991 0)"/>
      </g>
     </g>
    </g>
    <g id="xtick_4">
     <g id="line2d_5"/>
     <g id="text_4">
      <!-- 2019 -->
      <g transform="translate(151.312913 177.757032) rotate(-90) scale(0.07 -0.07)">
       <defs>
        <path id="NotoSans-Regular-39" d="M 3328 2618 
Q 3328 2227 3273 1840 
Q 3219 1453 3084 1110 
Q 2950 768 2713 502 
Q 2477 237 2112 86 
Q 1747 -64 1229 -64 
Q 1101 -64 931 -48 
Q 762 -32 653 0 
L 653 480 
Q 768 442 921 419 
Q 1075 397 1216 397 
Q 1664 397 1955 544 
Q 2246 691 2419 944 
Q 2592 1197 2669 1533 
Q 2746 1869 2758 2240 
L 2720 2240 
Q 2624 2093 2477 1971 
Q 2330 1850 2122 1779 
Q 1914 1709 1632 1709 
Q 1242 1709 944 1872 
Q 646 2035 483 2342 
Q 320 2650 320 3091 
Q 320 3571 502 3916 
Q 685 4262 1011 4448 
Q 1338 4634 1779 4634 
Q 2106 4634 2387 4509 
Q 2669 4384 2880 4134 
Q 3091 3885 3209 3507 
Q 3328 3130 3328 2618 
z
M 1779 4160 
Q 1382 4160 1129 3897 
Q 877 3635 877 3098 
Q 877 2656 1091 2403 
Q 1306 2150 1754 2150 
Q 2061 2150 2285 2275 
Q 2509 2400 2633 2592 
Q 2758 2784 2758 2989 
Q 2758 3194 2697 3402 
Q 2637 3610 2515 3782 
Q 2394 3955 2208 4057 
Q 2022 4160 1779 4160 
z
" transform="scale(0.015625)"/>
       </defs>
       <use xlink:href="#NotoSans-Regular-32"/>
       <use xlink:href="#NotoSans-Regular-30" transform="translate(57.199997 0)"/>
       <use xlink:href="#NotoSans-Regular-31" transform="translate(114.399994 0)"/>
       <use xlink:href="#NotoSans-Regular-39" transform="translate(171.599991 0)"/>
      </g>
     </g>
    </g>
    <g id="xtick_5">
     <g id="line2d_6"/>
     <g id="text_5">
      <!-- 2020 -->
      <g transform="translate(181.297165 177.757032) rotate(-90) scale(0.07 -0.07)">
       <use xlink:href="#NotoSans-Regular-32"/>
       <use xlink:href="#NotoSans-Regular-30" transform="translate(57.199997 0)"/>
       <use xlink:href="#NotoSans-Regular-32" transform="translate(114.399994 0)"/>
       <use xlink:href="#NotoSans-Regular-30" transform="translate(171.599991 0)"/>
      </g>
     </g>
    </g>
    <g id="text_6">
     <!-- Year -->
     <g transform="translate(111.619013 188.457032) scale(0.075 -0.075)">
      <defs>
       <path id="NotoSans-Regular-59" d="M 1811 2323 
L 3002 4570 
L 3622 4570 
L 2099 1773 
L 2099 0 
L 1523 0 
L 1523 1747 
L 0 4570 
L 627 4570 
L 1811 2323 
z
" transform="scale(0.015625)"/>
       <path id="NotoSans-Regular-65" d="M 1869 3494 
Q 2310 3494 2627 3302 
Q 2944 3110 3113 2761 
Q 3283 2413 3283 1946 
L 3283 1606 
L 934 1606 
Q 947 1024 1232 720 
Q 1517 416 2029 416 
Q 2355 416 2608 477 
Q 2861 538 3130 653 
L 3130 160 
Q 2867 45 2611 -9 
Q 2355 -64 2003 -64 
Q 1517 -64 1142 134 
Q 768 333 560 726 
Q 352 1120 352 1690 
Q 352 2253 541 2656 
Q 730 3059 1072 3276 
Q 1414 3494 1869 3494 
z
M 1862 3034 
Q 1459 3034 1225 2774 
Q 992 2515 947 2054 
L 2694 2054 
Q 2694 2349 2604 2566 
Q 2515 2784 2332 2909 
Q 2150 3034 1862 3034 
z
" transform="scale(0.015625)"/>
       <path id="NotoSans-Regular-61" d="M 1843 3488 
Q 2470 3488 2771 3213 
Q 3072 2938 3072 2336 
L 3072 0 
L 2662 0 
L 2554 486 
L 2528 486 
Q 2381 301 2224 176 
Q 2067 51 1865 -6 
Q 1664 -64 1376 -64 
Q 1069 -64 822 45 
Q 576 154 435 381 
Q 294 608 294 954 
Q 294 1466 697 1744 
Q 1101 2022 1939 2048 
L 2522 2067 
L 2522 2272 
Q 2522 2701 2336 2867 
Q 2150 3034 1811 3034 
Q 1542 3034 1299 2954 
Q 1056 2874 845 2771 
L 672 3194 
Q 896 3315 1203 3401 
Q 1510 3488 1843 3488 
z
M 2010 1658 
Q 1370 1632 1123 1453 
Q 877 1274 877 947 
Q 877 659 1053 524 
Q 1229 390 1504 390 
Q 1939 390 2227 630 
Q 2515 870 2515 1370 
L 2515 1677 
L 2010 1658 
z
" transform="scale(0.015625)"/>
       <path id="NotoSans-Regular-72" d="M 2144 3494 
Q 2240 3494 2352 3484 
Q 2464 3475 2547 3456 
L 2477 2938 
Q 2394 2957 2294 2969 
Q 2195 2982 2106 2982 
Q 1907 2982 1728 2899 
Q 1549 2816 1408 2665 
Q 1267 2515 1187 2304 
Q 1107 2093 1107 1830 
L 1107 0 
L 544 0 
L 544 3430 
L 1005 3430 
L 1069 2803 
L 1094 2803 
Q 1203 2995 1356 3152 
Q 1510 3309 1708 3401 
Q 1907 3494 2144 3494 
z
" transform="scale(0.015625)"/>
      </defs>
      <use xlink:href="#NotoSans-Regular-59"/>
      <use xlink:href="#NotoSans-Regular-65" transform="translate(56.599991 0)"/>
      <use xlink:href="#NotoSans-Regular-61" transform="translate(112.999985 0)"/>
      <use xlink:href="#NotoSans-Regular-72" transform="translate(169.099976 0)"/>
     </g>
    </g>
   </g>
   <g id="matplotlib.axis_2">
    <g id="ytick_1">
     <g id="line2d_7">
      <defs>
       <path id="m97b3d079bd" d="M 0 0 
L 2.5 0 
" style="stroke: #37b24d; stroke-width: 0.5"/>
      </defs>
      <g>
       <use xlink:href="#m97b3d079bd" x="38.551181" y="158.740157" style="fill: #37b24d; stroke: #37b24d; stroke-width: 0.5"/>
      </g>
     </g>
     <g id="text_7">
      <!-- 0 -->
      <g style="fill: #37b24d" transform="translate(31.546962 161.400157) scale(0.07 -0.07)">
       <use xlink:href="#NotoSans-Regular-30"/>
      </g>
     </g>
    </g>
    <g id="ytick_2">
     <g id="line2d_8">
      <g>
       <use xlink:href="#m97b3d079bd" x="38.551181" y="134.551181" style="fill: #37b24d; stroke: #37b24d; stroke-width: 0.5"/>
      </g>
     </g>
     <g id="text_8">
      <!-- 20 -->
      <g style="fill: #37b24d" transform="translate(27.542744 137.211181) scale(0.07 -0.07)">
       <use xlink:href="#NotoSans-Regular-32"/>
       <use xlink:href="#NotoSans-Regular-30" transform="translate(57.199997 0)"/>
      </g>
     </g>
    </g>
    <g id="ytick_3">
     <g id="line2d_9">
      <g>
       <use xlink:href="#m97b3d079bd" x="38.551181" y="110.362205" style="fill: #37b24d; stroke: #37b24d; stroke-width: 0.5"/>
      </g>
     </g>
     <g id="text_9">
      <!-- 40 -->
      <g style="fill: #37b24d" transform="translate(27.542744 113.022205) scale(0.07 -0.07)">
       <defs>
        <path id="NotoSans-Regular-34" d="M 3533 1037 
L 2867 1037 
L 2867 0 
L 2323 0 
L 2323 1037 
L 134 1037 
L 134 1517 
L 2285 4595 
L 2867 4595 
L 2867 1542 
L 3533 1542 
L 3533 1037 
z
M 2323 2982 
Q 2323 3149 2326 3286 
Q 2330 3424 2336 3545 
Q 2342 3667 2345 3779 
Q 2349 3891 2355 3994 
L 2330 3994 
Q 2278 3872 2201 3731 
Q 2125 3590 2054 3494 
L 685 1542 
L 2323 1542 
L 2323 2982 
z
" transform="scale(0.015625)"/>
       </defs>
       <use xlink:href="#NotoSans-Regular-34"/>
       <use xlink:href="#NotoSans-Regular-30" transform="translate(57.199997 0)"/>
      </g>
     </g>
    </g>
    <g id="ytick_4">
     <g id="line2d_10">
      <g>
       <use xlink:href="#m97b3d079bd" x="38.551181" y="86.173228" style="fill: #37b24d; stroke: #37b24d; stroke-width: 0.5"/>
      </g>
     </g>
     <g id="text_10">
      <!-- 60 -->
      <g style="fill: #37b24d" transform="translate(27.542744 88.833228) scale(0.07 -0.07)">
       <use xlink:href="#NotoSans-Regular-36"/>
       <use xlink:href="#NotoSans-Regular-30" transform="translate(57.199997 0)"/>
      </g>
     </g>
    </g>
    <g id="ytick_5">
     <g id="line2d_11">
      <g>
       <use xlink:href="#m97b3d079bd" x="38.551181" y="61.984252" style="fill: #37b24d; stroke: #37b24d; stroke-width: 0.5"/>
      </g>
     </g>
     <g id="text_11">
      <!-- 80 -->
      <g style="fill: #37b24d" transform="translate(27.542744 64.644252) scale(0.07 -0.07)">
       <use xlink:href="#NotoSans-Regular-38"/>
       <use xlink:href="#NotoSans-Regular-30" transform="translate(57.199997 0)"/>
      </g>
     </g>
    </g>
    <g id="ytick_6">
     <g id="line2d_12">
      <g>
       <use xlink:href="#m97b3d079bd" x="38.551181" y="37.795276" style="fill: #37b24d; stroke: #37b24d; stroke-width: 0.5"/>
      </g>
     </g>
     <g id="text_12">
      <!-- 100 -->
      <g style="fill: #37b24d" transform="translate(23.538525 40.455276) scale(0.07 -0.07)">
       <use xlink:href="#NotoSans-Regular-31"/>
       <use xlink:href="#NotoSans-Regular-30" transform="translate(57.199997 0)"/>
       <use xlink:href="#NotoSans-Regular-30" transform="translate(114.399994 0)"/>
      </g>
     </g>
    </g>
    <g id="ytick_7">
     <g id="line2d_13">
      <g>
       <use xlink:href="#m97b3d079bd" x="38.551181" y="13.606299" style="fill: #37b24d; stroke: #37b24d; stroke-width: 0.5"/>
      </g>
     </g>
     <g id="text_13">
      <!-- 120 -->
      <g style="fill: #37b24d" transform="translate(23.538525 16.266299) scale(0.07 -0.07)">
       <use xlink:href="#NotoSans-Regular-31"/>
       <use xlink:href="#NotoSans-Regular-32" transform="translate(57.199997 0)"/>
       <use xlink:href="#NotoSans-Regular-30" transform="translate(114.399994 0)"/>
      </g>
     </g>
    </g>
    <g id="ytick_8">
     <g id="line2d_14">
      <defs>
       <path id="ma8b23f03c2" d="M 0 0 
L 1.25 0 
" style="stroke: #37b24d; stroke-width: 0.25"/>
      </defs>
      <g>
       <use xlink:href="#ma8b23f03c2" x="38.551181" y="146.645669" style="fill: #37b24d; stroke: #37b24d; stroke-width: 0.25"/>
      </g>
     </g>
    </g>
    <g id="ytick_9">
     <g id="line2d_15">
      <g>
       <use xlink:href="#ma8b23f03c2" x="38.551181" y="122.456693" style="fill: #37b24d; stroke: #37b24d; stroke-width: 0.25"/>
      </g>
     </g>
    </g>
    <g id="ytick_10">
     <g id="line2d_16">
      <g>
       <use xlink:href="#ma8b23f03c2" x="38.551181" y="98.267717" style="fill: #37b24d; stroke: #37b24d; stroke-width: 0.25"/>
      </g>
     </g>
    </g>
    <g id="ytick_11">
     <g id="line2d_17">
      <g>
       <use xlink:href="#ma8b23f03c2" x="38.551181" y="74.07874" style="fill: #37b24d; stroke: #37b24d; stroke-width: 0.25"/>
      </g>
     </g>
    </g>
    <g id="ytick_12">
     <g id="line2d_18">
      <g>
       <use xlink:href="#ma8b23f03c2" x="38.551181" y="49.889764" style="fill: #37b24d; stroke: #37b24d; stroke-width: 0.25"/>
      </g>
     </g>
    </g>
    <g id="ytick_13">
     <g id="line2d_19">
      <g>
       <use xlink:href="#ma8b23f03c2" x="38.551181" y="25.700787" style="fill: #37b24d; stroke: #37b24d; stroke-width: 0.25"/>
      </g>
     </g>
    </g>
    <g id="text_14">
     <!-- Thermal energy use [EJ] -->
     <g transform="translate(16.738525 127.862096) rotate(-90) scale(0.075 -0.075)">
      <defs>
       <path id="NotoSans-Regular-54" d="M 2067 0 
L 1491 0 
L 1491 4064 
L 64 4064 
L 64 4570 
L 3488 4570 
L 3488 4064 
L 2067 4064 
L 2067 0 
z
" transform="scale(0.015625)"/>
       <path id="NotoSans-Regular-68" d="M 1107 3437 
Q 1107 3315 1097 3187 
Q 1088 3059 1075 2957 
L 1114 2957 
Q 1222 3136 1388 3251 
Q 1555 3366 1760 3427 
Q 1965 3488 2182 3488 
Q 2598 3488 2876 3357 
Q 3155 3226 3296 2950 
Q 3437 2675 3437 2234 
L 3437 0 
L 2880 0 
L 2880 2195 
Q 2880 2611 2694 2816 
Q 2509 3021 2112 3021 
Q 1728 3021 1510 2877 
Q 1293 2733 1200 2454 
Q 1107 2176 1107 1773 
L 1107 0 
L 544 0 
L 544 4864 
L 1107 4864 
L 1107 3437 
z
" transform="scale(0.015625)"/>
       <path id="NotoSans-Regular-6d" d="M 4307 3494 
Q 4890 3494 5178 3196 
Q 5466 2899 5466 2234 
L 5466 0 
L 4909 0 
L 4909 2208 
Q 4909 2611 4739 2816 
Q 4570 3021 4211 3021 
Q 3712 3021 3497 2733 
Q 3283 2445 3283 1894 
L 3283 0 
L 2726 0 
L 2726 2208 
Q 2726 2477 2649 2659 
Q 2573 2842 2419 2931 
Q 2266 3021 2022 3021 
Q 1677 3021 1478 2877 
Q 1280 2733 1193 2457 
Q 1107 2182 1107 1779 
L 1107 0 
L 544 0 
L 544 3430 
L 998 3430 
L 1082 2963 
L 1114 2963 
Q 1222 3142 1379 3260 
Q 1536 3379 1728 3436 
Q 1920 3494 2125 3494 
Q 2522 3494 2787 3353 
Q 3053 3213 3174 2918 
L 3206 2918 
Q 3379 3213 3676 3353 
Q 3974 3494 4307 3494 
z
" transform="scale(0.015625)"/>
       <path id="NotoSans-Regular-6c" d="M 1107 0 
L 544 0 
L 544 4864 
L 1107 4864 
L 1107 0 
z
" transform="scale(0.015625)"/>
       <path id="NotoSans-Regular-20" transform="scale(0.015625)"/>
       <path id="NotoSans-Regular-6e" d="M 2195 3494 
Q 2810 3494 3123 3196 
Q 3437 2899 3437 2234 
L 3437 0 
L 2880 0 
L 2880 2195 
Q 2880 2611 2694 2816 
Q 2509 3021 2112 3021 
Q 1542 3021 1324 2701 
Q 1107 2381 1107 1779 
L 1107 0 
L 544 0 
L 544 3430 
L 998 3430 
L 1082 2963 
L 1114 2963 
Q 1229 3142 1398 3260 
Q 1568 3379 1773 3436 
Q 1978 3494 2195 3494 
z
" transform="scale(0.015625)"/>
       <path id="NotoSans-Regular-67" d="M 1760 3494 
Q 2099 3494 2371 3366 
Q 2643 3238 2835 2976 
L 2867 2976 
L 2944 3430 
L 3392 3430 
L 3392 -58 
Q 3392 -544 3225 -873 
Q 3059 -1203 2720 -1369 
Q 2381 -1536 1856 -1536 
Q 1485 -1536 1174 -1481 
Q 864 -1427 621 -1318 
L 621 -800 
Q 864 -928 1190 -998 
Q 1517 -1069 1888 -1069 
Q 2330 -1069 2582 -809 
Q 2835 -550 2835 -102 
L 2835 32 
Q 2835 109 2841 253 
Q 2848 397 2854 454 
L 2829 454 
Q 2650 192 2384 64 
Q 2118 -64 1766 -64 
Q 1101 -64 726 403 
Q 352 870 352 1709 
Q 352 2528 726 3011 
Q 1101 3494 1760 3494 
z
M 1837 3021 
Q 1549 3021 1347 2867 
Q 1146 2714 1040 2419 
Q 934 2125 934 1702 
Q 934 1069 1168 733 
Q 1402 397 1850 397 
Q 2112 397 2297 464 
Q 2483 531 2604 675 
Q 2726 819 2784 1043 
Q 2842 1267 2842 1574 
L 2842 1709 
Q 2842 2176 2736 2464 
Q 2630 2752 2406 2886 
Q 2182 3021 1837 3021 
z
" transform="scale(0.015625)"/>
       <path id="NotoSans-Regular-79" d="M 6 3430 
L 608 3430 
L 1350 1478 
Q 1414 1306 1468 1146 
Q 1523 986 1568 835 
Q 1613 685 1638 544 
L 1664 544 
Q 1702 704 1785 963 
Q 1869 1222 1958 1485 
L 2656 3430 
L 3264 3430 
L 1786 -474 
Q 1664 -794 1501 -1034 
Q 1338 -1274 1104 -1405 
Q 870 -1536 538 -1536 
Q 384 -1536 269 -1520 
Q 154 -1504 70 -1485 
L 70 -1037 
Q 141 -1050 240 -1062 
Q 339 -1075 448 -1075 
Q 646 -1075 790 -1001 
Q 934 -928 1036 -790 
Q 1139 -653 1210 -467 
L 1389 -13 
L 6 3430 
z
" transform="scale(0.015625)"/>
       <path id="NotoSans-Regular-75" d="M 3411 3430 
L 3411 0 
L 2950 0 
L 2867 454 
L 2842 454 
Q 2733 275 2560 160 
Q 2387 45 2182 -9 
Q 1978 -64 1754 -64 
Q 1344 -64 1065 67 
Q 787 198 646 473 
Q 506 749 506 1184 
L 506 3430 
L 1075 3430 
L 1075 1222 
Q 1075 813 1260 608 
Q 1446 403 1837 403 
Q 2221 403 2441 547 
Q 2662 691 2755 969 
Q 2848 1248 2848 1645 
L 2848 3430 
L 3411 3430 
z
" transform="scale(0.015625)"/>
       <path id="NotoSans-Regular-73" d="M 2778 947 
Q 2778 614 2611 390 
Q 2445 166 2137 51 
Q 1830 -64 1408 -64 
Q 1050 -64 790 -6 
Q 531 51 333 154 
L 333 666 
Q 538 563 829 476 
Q 1120 390 1421 390 
Q 1850 390 2042 528 
Q 2234 666 2234 896 
Q 2234 1024 2163 1126 
Q 2093 1229 1910 1331 
Q 1728 1434 1389 1562 
Q 1056 1690 819 1818 
Q 582 1946 454 2125 
Q 326 2304 326 2586 
Q 326 3021 681 3257 
Q 1037 3494 1613 3494 
Q 1926 3494 2198 3433 
Q 2470 3373 2707 3264 
L 2515 2816 
Q 2298 2906 2061 2970 
Q 1824 3034 1574 3034 
Q 1229 3034 1046 2922 
Q 864 2810 864 2618 
Q 864 2477 947 2377 
Q 1030 2278 1225 2185 
Q 1421 2093 1747 1965 
Q 2074 1843 2304 1715 
Q 2534 1587 2656 1404 
Q 2778 1222 2778 947 
z
" transform="scale(0.015625)"/>
       <path id="NotoSans-Regular-5b" d="M 1946 -1011 
L 512 -1011 
L 512 4570 
L 1946 4570 
L 1946 4109 
L 1062 4109 
L 1062 -550 
L 1946 -550 
L 1946 -1011 
z
" transform="scale(0.015625)"/>
       <path id="NotoSans-Regular-45" d="M 3174 0 
L 621 0 
L 621 4570 
L 3174 4570 
L 3174 4064 
L 1197 4064 
L 1197 2637 
L 3059 2637 
L 3059 2138 
L 1197 2138 
L 1197 506 
L 3174 506 
L 3174 0 
z
" transform="scale(0.015625)"/>
       <path id="NotoSans-Regular-4a" d="M -26 -1216 
Q -179 -1216 -294 -1193 
Q -410 -1171 -499 -1133 
L -499 -646 
Q -397 -672 -281 -691 
Q -166 -710 -38 -710 
Q 122 -710 266 -646 
Q 410 -582 499 -422 
Q 589 -262 589 26 
L 589 4570 
L 1165 4570 
L 1165 70 
Q 1165 -371 1017 -656 
Q 870 -941 601 -1078 
Q 333 -1216 -26 -1216 
z
" transform="scale(0.015625)"/>
       <path id="NotoSans-Regular-5d" d="M 160 -550 
L 1043 -550 
L 1043 4109 
L 160 4109 
L 160 4570 
L 1594 4570 
L 1594 -1011 
L 160 -1011 
L 160 -550 
z
" transform="scale(0.015625)"/>
      </defs>
      <use xlink:href="#NotoSans-Regular-54"/>
      <use xlink:href="#NotoSans-Regular-68" transform="translate(55.599991 0)"/>
      <use xlink:href="#NotoSans-Regular-65" transform="translate(117.399979 0)"/>
      <use xlink:href="#NotoSans-Regular-72" transform="translate(173.799973 0)"/>
      <use xlink:href="#NotoSans-Regular-6d" transform="translate(215.09996 0)"/>
      <use xlink:href="#NotoSans-Regular-61" transform="translate(308.599945 0)"/>
      <use xlink:href="#NotoSans-Regular-6c" transform="translate(364.699936 0)"/>
      <use xlink:href="#NotoSans-Regular-20" transform="translate(390.499924 0)"/>
      <use xlink:href="#NotoSans-Regular-65" transform="translate(416.499908 0)"/>
      <use xlink:href="#NotoSans-Regular-6e" transform="translate(472.899902 0)"/>
      <use xlink:href="#NotoSans-Regular-65" transform="translate(534.69989 0)"/>
      <use xlink:href="#NotoSans-Regular-72" transform="translate(591.099884 0)"/>
      <use xlink:href="#NotoSans-Regular-67" transform="translate(632.399872 0)"/>
      <use xlink:href="#NotoSans-Regular-79" transform="translate(693.899857 0)"/>
      <use xlink:href="#NotoSans-Regular-20" transform="translate(744.899841 0)"/>
      <use xlink:href="#NotoSans-Regular-75" transform="translate(770.899826 0)"/>
      <use xlink:href="#NotoSans-Regular-73" transform="translate(832.699814 0)"/>
      <use xlink:href="#NotoSans-Regular-65" transform="translate(880.599808 0)"/>
      <use xlink:href="#NotoSans-Regular-20" transform="translate(936.999802 0)"/>
      <use xlink:href="#NotoSans-Regular-5b" transform="translate(962.999786 0)"/>
      <use xlink:href="#NotoSans-Regular-45" transform="translate(995.89978 0)"/>
      <use xlink:href="#NotoSans-Regular-4a" transform="translate(1051.499771 0)"/>
      <use xlink:href="#NotoSans-Regular-5d" transform="translate(1078.799759 0)"/>
     </g>
    </g>
   </g>
   <g id="text_15">
    <!-- 56.0 -->
    <g style="fill: #ebfbee" transform="translate(52.578439 126.703452) scale(0.07 -0.07)">
     <defs>
      <path id="NotoSans-Medium-35" d="M 1805 2835 
Q 2259 2835 2598 2675 
Q 2938 2515 3126 2214 
Q 3315 1914 3315 1478 
Q 3315 998 3110 652 
Q 2906 307 2518 121 
Q 2131 -64 1574 -64 
Q 1222 -64 908 0 
Q 595 64 378 186 
L 378 806 
Q 608 672 937 589 
Q 1267 506 1568 506 
Q 1894 506 2128 605 
Q 2362 704 2493 905 
Q 2624 1107 2624 1414 
Q 2624 1830 2365 2051 
Q 2106 2272 1549 2272 
Q 1370 2272 1149 2240 
Q 928 2208 794 2176 
L 480 2362 
L 653 4570 
L 3002 4570 
L 3002 3968 
L 1242 3968 
L 1139 2771 
Q 1248 2790 1414 2812 
Q 1581 2835 1805 2835 
z
" transform="scale(0.015625)"/>
      <path id="NotoSans-Medium-36" d="M 314 1946 
Q 314 2342 368 2726 
Q 422 3110 560 3452 
Q 698 3795 941 4060 
Q 1184 4326 1558 4476 
Q 1933 4627 2464 4627 
Q 2598 4627 2768 4617 
Q 2938 4608 3046 4576 
L 3046 4006 
Q 2925 4045 2781 4064 
Q 2637 4083 2496 4083 
Q 2054 4083 1766 3948 
Q 1478 3814 1312 3577 
Q 1146 3341 1069 3030 
Q 992 2720 973 2355 
L 1011 2355 
Q 1107 2509 1248 2630 
Q 1389 2752 1593 2822 
Q 1798 2893 2067 2893 
Q 2464 2893 2761 2726 
Q 3059 2560 3222 2246 
Q 3386 1933 3386 1485 
Q 3386 1005 3203 656 
Q 3021 307 2691 121 
Q 2362 -64 1901 -64 
Q 1568 -64 1280 57 
Q 992 179 774 428 
Q 557 678 435 1059 
Q 314 1440 314 1946 
z
M 1894 499 
Q 2259 499 2489 739 
Q 2720 979 2720 1485 
Q 2720 1888 2518 2125 
Q 2317 2362 1914 2362 
Q 1638 2362 1433 2246 
Q 1229 2131 1113 1952 
Q 998 1773 998 1587 
Q 998 1389 1056 1197 
Q 1114 1005 1226 845 
Q 1338 685 1504 592 
Q 1670 499 1894 499 
z
" transform="scale(0.015625)"/>
      <path id="NotoSans-Medium-2e" d="M 435 378 
Q 435 627 563 729 
Q 691 832 870 832 
Q 1056 832 1184 729 
Q 1312 627 1312 378 
Q 1312 128 1184 19 
Q 1056 -90 870 -90 
Q 691 -90 563 19 
Q 435 128 435 378 
z
" transform="scale(0.015625)"/>
      <path id="NotoSans-Medium-30" d="M 3373 2291 
Q 3373 1734 3286 1299 
Q 3200 864 3017 560 
Q 2835 256 2537 96 
Q 2240 -64 1824 -64 
Q 1299 -64 960 217 
Q 621 499 454 1027 
Q 288 1555 288 2291 
Q 288 3034 438 3558 
Q 589 4083 928 4361 
Q 1267 4640 1824 4640 
Q 2349 4640 2691 4361 
Q 3034 4083 3203 3558 
Q 3373 3034 3373 2291 
z
M 966 2291 
Q 966 1696 1049 1299 
Q 1133 902 1321 704 
Q 1510 506 1824 506 
Q 2138 506 2326 701 
Q 2515 896 2601 1296 
Q 2688 1696 2688 2291 
Q 2688 2886 2601 3280 
Q 2515 3674 2326 3872 
Q 2138 4070 1824 4070 
Q 1510 4070 1321 3872 
Q 1133 3674 1049 3280 
Q 966 2886 966 2291 
z
" transform="scale(0.015625)"/>
     </defs>
     <use xlink:href="#NotoSans-Medium-35"/>
     <use xlink:href="#NotoSans-Medium-36" transform="translate(57.199997 0)"/>
     <use xlink:href="#NotoSans-Medium-2e" transform="translate(114.399994 0)"/>
     <use xlink:href="#NotoSans-Medium-30" transform="translate(141.699982 0)"/>
    </g>
   </g>
   <g id="text_16">
    <!-- 26.1 -->
    <g style="fill: #ebfbee" transform="translate(52.578439 77.044693) scale(0.07 -0.07)">
     <defs>
      <path id="NotoSans-Medium-32" d="M 3366 0 
L 294 0 
L 294 525 
L 1472 1722 
Q 1818 2074 2048 2333 
Q 2278 2592 2393 2832 
Q 2509 3072 2509 3354 
Q 2509 3706 2304 3882 
Q 2099 4058 1773 4058 
Q 1459 4058 1209 3939 
Q 960 3821 691 3610 
L 326 4064 
Q 512 4224 726 4352 
Q 941 4480 1206 4557 
Q 1472 4634 1792 4634 
Q 2227 4634 2540 4483 
Q 2854 4333 3024 4057 
Q 3194 3782 3194 3411 
Q 3194 3046 3046 2732 
Q 2899 2419 2630 2115 
Q 2362 1811 1997 1459 
L 1146 634 
L 1146 602 
L 3366 602 
L 3366 0 
z
" transform="scale(0.015625)"/>
      <path id="NotoSans-Medium-31" d="M 2381 0 
L 1709 0 
L 1709 3034 
Q 1709 3194 1712 3331 
Q 1715 3469 1721 3600 
Q 1728 3731 1734 3853 
Q 1651 3770 1561 3693 
Q 1472 3616 1357 3514 
L 858 3110 
L 512 3546 
L 1818 4570 
L 2381 4570 
L 2381 0 
z
" transform="scale(0.015625)"/>
     </defs>
     <use xlink:href="#NotoSans-Medium-32"/>
     <use xlink:href="#NotoSans-Medium-36" transform="translate(57.199997 0)"/>
     <use xlink:href="#NotoSans-Medium-2e" transform="translate(114.399994 0)"/>
     <use xlink:href="#NotoSans-Medium-31" transform="translate(141.699982 0)"/>
    </g>
   </g>
   <g id="text_17">
    <!-- 9.4 -->
    <g style="fill: #f4fce3" transform="translate(54.580548 55.583024) scale(0.07 -0.07)">
     <defs>
      <path id="NotoSans-Medium-39" d="M 3360 2618 
Q 3360 2227 3302 1840 
Q 3245 1453 3110 1110 
Q 2976 768 2729 502 
Q 2483 237 2108 86 
Q 1734 -64 1203 -64 
Q 1075 -64 902 -51 
Q 730 -38 614 -6 
L 614 563 
Q 736 525 886 505 
Q 1037 486 1178 486 
Q 1619 486 1904 617 
Q 2189 749 2358 985 
Q 2528 1222 2605 1536 
Q 2682 1850 2694 2202 
L 2656 2202 
Q 2560 2054 2419 1932 
Q 2278 1811 2076 1740 
Q 1875 1670 1594 1670 
Q 1203 1670 905 1836 
Q 608 2003 448 2313 
Q 288 2624 288 3072 
Q 288 3558 470 3907 
Q 653 4256 989 4441 
Q 1325 4627 1773 4627 
Q 2106 4627 2394 4505 
Q 2682 4384 2899 4134 
Q 3117 3885 3238 3507 
Q 3360 3130 3360 2618 
z
M 1779 4070 
Q 1414 4070 1184 3827 
Q 954 3584 954 3085 
Q 954 2675 1149 2438 
Q 1344 2202 1754 2202 
Q 2035 2202 2240 2320 
Q 2445 2438 2560 2614 
Q 2675 2790 2675 2982 
Q 2675 3174 2617 3366 
Q 2560 3558 2451 3718 
Q 2342 3878 2172 3974 
Q 2003 4070 1779 4070 
z
" transform="scale(0.015625)"/>
      <path id="NotoSans-Medium-34" d="M 3539 1011 
L 2906 1011 
L 2906 0 
L 2246 0 
L 2246 1011 
L 128 1011 
L 128 1549 
L 2234 4589 
L 2906 4589 
L 2906 1587 
L 3539 1587 
L 3539 1011 
z
M 2246 2829 
Q 2246 2982 2249 3123 
Q 2253 3264 2259 3395 
Q 2266 3526 2269 3638 
Q 2272 3750 2278 3840 
L 2253 3840 
Q 2202 3712 2128 3577 
Q 2054 3443 1978 3341 
L 768 1587 
L 2246 1587 
L 2246 2829 
z
" transform="scale(0.015625)"/>
     </defs>
     <use xlink:href="#NotoSans-Medium-39"/>
     <use xlink:href="#NotoSans-Medium-2e" transform="translate(57.199997 0)"/>
     <use xlink:href="#NotoSans-Medium-34" transform="translate(84.499985 0)"/>
    </g>
   </g>
   <g id="text_18">
    <!-- 57.0 -->
    <g style="fill: #ebfbee" transform="translate(82.562691 126.084819) scale(0.07 -0.07)">
     <defs>
      <path id="NotoSans-Medium-37" d="M 826 0 
L 2650 3968 
L 250 3968 
L 250 4570 
L 3379 4570 
L 3379 4083 
L 1562 0 
L 826 0 
z
" transform="scale(0.015625)"/>
     </defs>
     <use xlink:href="#NotoSans-Medium-35"/>
     <use xlink:href="#NotoSans-Medium-37" transform="translate(57.199997 0)"/>
     <use xlink:href="#NotoSans-Medium-2e" transform="translate(114.399994 0)"/>
     <use xlink:href="#NotoSans-Medium-30" transform="translate(141.699982 0)"/>
    </g>
   </g>
   <g id="text_19">
    <!-- 25.8 -->
    <g style="fill: #ebfbee" transform="translate(82.562691 75.98582) scale(0.07 -0.07)">
     <defs>
      <path id="NotoSans-Medium-38" d="M 1824 4634 
Q 2227 4634 2540 4509 
Q 2854 4384 3036 4141 
Q 3219 3898 3219 3533 
Q 3219 3258 3104 3053 
Q 2989 2848 2797 2691 
Q 2605 2534 2368 2419 
Q 2637 2285 2864 2115 
Q 3091 1946 3228 1722 
Q 3366 1498 3366 1184 
Q 3366 800 3177 521 
Q 2989 243 2643 89 
Q 2298 -64 1837 -64 
Q 1344 -64 995 83 
Q 646 230 467 502 
Q 288 774 288 1165 
Q 288 1478 416 1708 
Q 544 1939 755 2105 
Q 966 2272 1216 2387 
Q 998 2515 819 2678 
Q 640 2842 537 3053 
Q 435 3264 435 3539 
Q 435 3898 620 4138 
Q 806 4378 1123 4506 
Q 1440 4634 1824 4634 
z
M 941 1178 
Q 941 864 1158 662 
Q 1376 461 1824 461 
Q 2259 461 2486 662 
Q 2714 864 2714 1184 
Q 2714 1395 2602 1555 
Q 2490 1715 2294 1840 
Q 2099 1965 1843 2067 
L 1747 2106 
Q 1485 1997 1305 1862 
Q 1126 1728 1033 1561 
Q 941 1395 941 1178 
z
M 1818 4102 
Q 1504 4102 1296 3948 
Q 1088 3795 1088 3501 
Q 1088 3290 1190 3142 
Q 1293 2995 1465 2889 
Q 1638 2784 1843 2688 
Q 2048 2778 2208 2883 
Q 2368 2989 2464 3139 
Q 2560 3290 2560 3501 
Q 2560 3795 2355 3948 
Q 2150 4102 1818 4102 
z
" transform="scale(0.015625)"/>
     </defs>
     <use xlink:href="#NotoSans-Medium-32"/>
     <use xlink:href="#NotoSans-Medium-35" transform="translate(57.199997 0)"/>
     <use xlink:href="#NotoSans-Medium-2e" transform="translate(114.399994 0)"/>
     <use xlink:href="#NotoSans-Medium-38" transform="translate(141.699982 0)"/>
    </g>
   </g>
   <g id="text_20">
    <!-- 9.9 -->
    <g style="fill: #f4fce3" transform="translate(84.5648 54.345757) scale(0.07 -0.07)">
     <use xlink:href="#NotoSans-Medium-39"/>
     <use xlink:href="#NotoSans-Medium-2e" transform="translate(57.199997 0)"/>
     <use xlink:href="#NotoSans-Medium-39" transform="translate(84.499985 0)"/>
    </g>
   </g>
   <g id="text_21">
    <!-- 57.5 -->
    <g style="fill: #ebfbee" transform="translate(112.546943 125.760082) scale(0.07 -0.07)">
     <use xlink:href="#NotoSans-Medium-35"/>
     <use xlink:href="#NotoSans-Medium-37" transform="translate(57.199997 0)"/>
     <use xlink:href="#NotoSans-Medium-2e" transform="translate(114.399994 0)"/>
     <use xlink:href="#NotoSans-Medium-35" transform="translate(141.699982 0)"/>
    </g>
   </g>
   <g id="text_22">
    <!-- 26.1 -->
    <g style="fill: #ebfbee" transform="translate(112.546943 75.157953) scale(0.07 -0.07)">
     <use xlink:href="#NotoSans-Medium-32"/>
     <use xlink:href="#NotoSans-Medium-36" transform="translate(57.199997 0)"/>
     <use xlink:href="#NotoSans-Medium-2e" transform="translate(114.399994 0)"/>
     <use xlink:href="#NotoSans-Medium-31" transform="translate(141.699982 0)"/>
    </g>
   </g>
   <g id="text_23">
    <!-- 11.1 -->
    <g style="fill: #f4fce3" transform="translate(112.546943 52.625317) scale(0.07 -0.07)">
     <use xlink:href="#NotoSans-Medium-31"/>
     <use xlink:href="#NotoSans-Medium-31" transform="translate(57.199997 0)"/>
     <use xlink:href="#NotoSans-Medium-2e" transform="translate(114.399994 0)"/>
     <use xlink:href="#NotoSans-Medium-31" transform="translate(141.699982 0)"/>
    </g>
   </g>
   <g id="text_24">
    <!-- 57.2 -->
    <g style="fill: #ebfbee" transform="translate(142.531195 125.952384) scale(0.07 -0.07)">
     <use xlink:href="#NotoSans-Medium-35"/>
     <use xlink:href="#NotoSans-Medium-37" transform="translate(57.199997 0)"/>
     <use xlink:href="#NotoSans-Medium-2e" transform="translate(114.399994 0)"/>
     <use xlink:href="#NotoSans-Medium-32" transform="translate(141.699982 0)"/>
    </g>
   </g>
   <g id="text_25">
    <!-- 26.4 -->
    <g style="fill: #ebfbee" transform="translate(142.531195 75.364164) scale(0.07 -0.07)">
     <use xlink:href="#NotoSans-Medium-32"/>
     <use xlink:href="#NotoSans-Medium-36" transform="translate(57.199997 0)"/>
     <use xlink:href="#NotoSans-Medium-2e" transform="translate(114.399994 0)"/>
     <use xlink:href="#NotoSans-Medium-34" transform="translate(141.699982 0)"/>
    </g>
   </g>
   <g id="text_26">
    <!-- 11.7 -->
    <g style="fill: #f4fce3" transform="translate(142.531195 52.296346) scale(0.07 -0.07)">
     <use xlink:href="#NotoSans-Medium-31"/>
     <use xlink:href="#NotoSans-Medium-31" transform="translate(57.199997 0)"/>
     <use xlink:href="#NotoSans-Medium-2e" transform="translate(114.399994 0)"/>
     <use xlink:href="#NotoSans-Medium-37" transform="translate(141.699982 0)"/>
    </g>
   </g>
   <g id="text_27">
    <!-- 55.8 -->
    <g style="fill: #ebfbee" transform="translate(172.515447 126.810488) scale(0.07 -0.07)">
     <use xlink:href="#NotoSans-Medium-35"/>
     <use xlink:href="#NotoSans-Medium-35" transform="translate(57.199997 0)"/>
     <use xlink:href="#NotoSans-Medium-2e" transform="translate(114.399994 0)"/>
     <use xlink:href="#NotoSans-Medium-38" transform="translate(141.699982 0)"/>
    </g>
   </g>
   <g id="text_28">
    <!-- 26.1 -->
    <g style="fill: #ebfbee" transform="translate(172.515447 77.258765) scale(0.07 -0.07)">
     <use xlink:href="#NotoSans-Medium-32"/>
     <use xlink:href="#NotoSans-Medium-36" transform="translate(57.199997 0)"/>
     <use xlink:href="#NotoSans-Medium-2e" transform="translate(114.399994 0)"/>
     <use xlink:href="#NotoSans-Medium-31" transform="translate(141.699982 0)"/>
    </g>
   </g>
   <g id="text_29">
    <!-- 12.3 -->
    <g style="fill: #f4fce3" transform="translate(172.515447 54.012554) scale(0.07 -0.07)">
     <defs>
      <path id="NotoSans-Medium-33" d="M 3187 3514 
Q 3187 3206 3068 2979 
Q 2950 2752 2732 2611 
Q 2515 2470 2234 2406 
L 2234 2381 
Q 2784 2317 3056 2038 
Q 3328 1760 3328 1306 
Q 3328 909 3139 598 
Q 2950 288 2556 112 
Q 2163 -64 1549 -64 
Q 1184 -64 870 -6 
Q 557 51 275 186 
L 275 800 
Q 563 653 892 576 
Q 1222 499 1523 499 
Q 2106 499 2362 720 
Q 2618 941 2618 1338 
Q 2618 1594 2483 1757 
Q 2349 1920 2073 2000 
Q 1798 2080 1389 2080 
L 973 2080 
L 973 2637 
L 1395 2637 
Q 1786 2637 2029 2736 
Q 2272 2835 2387 3014 
Q 2502 3194 2502 3424 
Q 2502 3731 2300 3900 
Q 2099 4070 1722 4070 
Q 1491 4070 1296 4019 
Q 1101 3968 941 3885 
Q 781 3802 627 3699 
L 294 4166 
Q 544 4358 905 4496 
Q 1267 4634 1741 4634 
Q 2451 4634 2819 4323 
Q 3187 4013 3187 3514 
z
" transform="scale(0.015625)"/>
     </defs>
     <use xlink:href="#NotoSans-Medium-31"/>
     <use xlink:href="#NotoSans-Medium-32" transform="translate(57.199997 0)"/>
     <use xlink:href="#NotoSans-Medium-2e" transform="translate(114.399994 0)"/>
     <use xlink:href="#NotoSans-Medium-33" transform="translate(141.699982 0)"/>
    </g>
   </g>
  </g>
  <g id="axes_2">
   <g id="patch_21">
    <path d="M 281.423622 158.740157 
L 443.338583 158.740157 
L 443.338583 13.606299 
L 281.423622 13.606299 
z
" style="fill: #ffffff"/>
   </g>
   <g id="patch_22">
    <path d="M 281.423622 158.740157 
L 443.338583 158.740157 
" style="fill: none; stroke: #000000; stroke-width: 0.5; stroke-linejoin: miter; stroke-linecap: square"/>
   </g>
   <g id="line2d_20">
    <path d="M 302.412598 131.696882 
L 332.39685 114.087307 
L 362.381102 93.962079 
L 392.365354 94.518425 
L 422.349606 135.978331 
" clip-path="url(#p44f6b5439b)" style="fill: none; stroke: #2b8a3e; stroke-width: 0.75; stroke-linecap: square"/>
    <g clip-path="url(#p44f6b5439b)">
     <use xlink:href="#mcf699d52c6" x="302.412598" y="131.696882" style="fill: #fff5f5; stroke: #2b8a3e; stroke-width: 0.75"/>
     <use xlink:href="#mcf699d52c6" x="332.39685" y="114.087307" style="fill: #fff5f5; stroke: #2b8a3e; stroke-width: 0.75"/>
     <use xlink:href="#mcf699d52c6" x="362.381102" y="93.962079" style="fill: #fff5f5; stroke: #2b8a3e; stroke-width: 0.75"/>
     <use xlink:href="#mcf699d52c6" x="392.365354" y="94.518425" style="fill: #fff5f5; stroke: #2b8a3e; stroke-width: 0.75"/>
     <use xlink:href="#mcf699d52c6" x="422.349606" y="135.978331" style="fill: #fff5f5; stroke: #2b8a3e; stroke-width: 0.75"/>
    </g>
   </g>
   <g id="patch_23">
    <path d="M 281.423622 158.740157 
L 281.423622 13.606299 
" style="fill: none; stroke: #37b24d; stroke-width: 0.5; stroke-linejoin: miter; stroke-linecap: square"/>
   </g>
   <g id="patch_24">
    <path d="M 443.338583 158.740157 
L 443.338583 13.606299 
" style="fill: none; stroke: #fa5252; stroke-width: 0.5; stroke-linejoin: miter; stroke-linecap: square"/>
   </g>
   <g id="matplotlib.axis_3">
    <g id="xtick_6">
     <g id="line2d_21"/>
     <g id="text_30">
      <!-- 2016 -->
      <g transform="translate(304.232598 177.757032) rotate(-90) scale(0.07 -0.07)">
       <use xlink:href="#NotoSans-Regular-32"/>
       <use xlink:href="#NotoSans-Regular-30" transform="translate(57.199997 0)"/>
       <use xlink:href="#NotoSans-Regular-31" transform="translate(114.399994 0)"/>
       <use xlink:href="#NotoSans-Regular-36" transform="translate(171.599991 0)"/>
      </g>
     </g>
    </g>
    <g id="xtick_7">
     <g id="line2d_22"/>
     <g id="text_31">
      <!-- 2017 -->
      <g transform="translate(334.21685 177.757032) rotate(-90) scale(0.07 -0.07)">
       <use xlink:href="#NotoSans-Regular-32"/>
       <use xlink:href="#NotoSans-Regular-30" transform="translate(57.199997 0)"/>
       <use xlink:href="#NotoSans-Regular-31" transform="translate(114.399994 0)"/>
       <use xlink:href="#NotoSans-Regular-37" transform="translate(171.599991 0)"/>
      </g>
     </g>
    </g>
    <g id="xtick_8">
     <g id="line2d_23"/>
     <g id="text_32">
      <!-- 2018 -->
      <g transform="translate(364.201102 177.757032) rotate(-90) scale(0.07 -0.07)">
       <use xlink:href="#NotoSans-Regular-32"/>
       <use xlink:href="#NotoSans-Regular-30" transform="translate(57.199997 0)"/>
       <use xlink:href="#NotoSans-Regular-31" transform="translate(114.399994 0)"/>
       <use xlink:href="#NotoSans-Regular-38" transform="translate(171.599991 0)"/>
      </g>
     </g>
    </g>
    <g id="xtick_9">
     <g id="line2d_24"/>
     <g id="text_33">
      <!-- 2019 -->
      <g transform="translate(394.185354 177.757032) rotate(-90) scale(0.07 -0.07)">
       <use xlink:href="#NotoSans-Regular-32"/>
       <use xlink:href="#NotoSans-Regular-30" transform="translate(57.199997 0)"/>
       <use xlink:href="#NotoSans-Regular-31" transform="translate(114.399994 0)"/>
       <use xlink:href="#NotoSans-Regular-39" transform="translate(171.599991 0)"/>
      </g>
     </g>
    </g>
    <g id="xtick_10">
     <g id="line2d_25"/>
     <g id="text_34">
      <!-- 2020 -->
      <g transform="translate(424.169606 177.757032) rotate(-90) scale(0.07 -0.07)">
       <use xlink:href="#NotoSans-Regular-32"/>
       <use xlink:href="#NotoSans-Regular-30" transform="translate(57.199997 0)"/>
       <use xlink:href="#NotoSans-Regular-32" transform="translate(114.399994 0)"/>
       <use xlink:href="#NotoSans-Regular-30" transform="translate(171.599991 0)"/>
      </g>
     </g>
    </g>
    <g id="text_35">
     <!-- Year -->
     <g transform="translate(354.491454 188.457032) scale(0.075 -0.075)">
      <use xlink:href="#NotoSans-Regular-59"/>
      <use xlink:href="#NotoSans-Regular-65" transform="translate(56.599991 0)"/>
      <use xlink:href="#NotoSans-Regular-61" transform="translate(112.999985 0)"/>
      <use xlink:href="#NotoSans-Regular-72" transform="translate(169.099976 0)"/>
     </g>
    </g>
   </g>
   <g id="matplotlib.axis_4">
    <g id="ytick_14">
     <g id="line2d_26">
      <g>
       <use xlink:href="#m97b3d079bd" x="281.423622" y="158.740157" style="fill: #37b24d; stroke: #37b24d; stroke-width: 0.5"/>
      </g>
     </g>
     <g id="text_36">
      <!-- 81 -->
      <g style="fill: #37b24d" transform="translate(270.415185 161.400157) scale(0.07 -0.07)">
       <use xlink:href="#NotoSans-Regular-38"/>
       <use xlink:href="#NotoSans-Regular-31" transform="translate(57.199997 0)"/>
      </g>
     </g>
    </g>
    <g id="ytick_15">
     <g id="line2d_27">
      <g>
       <use xlink:href="#m97b3d079bd" x="281.423622" y="134.551181" style="fill: #37b24d; stroke: #37b24d; stroke-width: 0.5"/>
      </g>
     </g>
     <g id="text_37">
      <!-- 82 -->
      <g style="fill: #37b24d" transform="translate(270.415185 137.211181) scale(0.07 -0.07)">
       <use xlink:href="#NotoSans-Regular-38"/>
       <use xlink:href="#NotoSans-Regular-32" transform="translate(57.199997 0)"/>
      </g>
     </g>
    </g>
    <g id="ytick_16">
     <g id="line2d_28">
      <g>
       <use xlink:href="#m97b3d079bd" x="281.423622" y="110.362205" style="fill: #37b24d; stroke: #37b24d; stroke-width: 0.5"/>
      </g>
     </g>
     <g id="text_38">
      <!-- 83 -->
      <g style="fill: #37b24d" transform="translate(270.415185 113.022205) scale(0.07 -0.07)">
       <defs>
        <path id="NotoSans-Regular-33" d="M 3155 3501 
Q 3155 3194 3040 2970 
Q 2925 2746 2710 2605 
Q 2496 2464 2208 2406 
L 2208 2381 
Q 2758 2317 3027 2035 
Q 3296 1754 3296 1299 
Q 3296 902 3110 592 
Q 2925 282 2537 109 
Q 2150 -64 1542 -64 
Q 1184 -64 877 -9 
Q 570 45 288 186 
L 288 710 
Q 576 570 909 490 
Q 1242 410 1549 410 
Q 2163 410 2435 650 
Q 2707 890 2707 1312 
Q 2707 1600 2556 1776 
Q 2406 1952 2118 2035 
Q 1830 2118 1427 2118 
L 986 2118 
L 986 2598 
L 1434 2598 
Q 1811 2598 2064 2707 
Q 2317 2816 2448 3011 
Q 2579 3206 2579 3462 
Q 2579 3795 2355 3977 
Q 2131 4160 1747 4160 
Q 1504 4160 1305 4112 
Q 1107 4064 937 3977 
Q 768 3891 595 3776 
L 314 4160 
Q 557 4352 918 4493 
Q 1280 4634 1741 4634 
Q 2458 4634 2806 4314 
Q 3155 3994 3155 3501 
z
" transform="scale(0.015625)"/>
       </defs>
       <use xlink:href="#NotoSans-Regular-38"/>
       <use xlink:href="#NotoSans-Regular-33" transform="translate(57.199997 0)"/>
      </g>
     </g>
    </g>
    <g id="ytick_17">
     <g id="line2d_29">
      <g>
       <use xlink:href="#m97b3d079bd" x="281.423622" y="86.173228" style="fill: #37b24d; stroke: #37b24d; stroke-width: 0.5"/>
      </g>
     </g>
     <g id="text_39">
      <!-- 84 -->
      <g style="fill: #37b24d" transform="translate(270.415185 88.833228) scale(0.07 -0.07)">
       <use xlink:href="#NotoSans-Regular-38"/>
       <use xlink:href="#NotoSans-Regular-34" transform="translate(57.199997 0)"/>
      </g>
     </g>
    </g>
    <g id="ytick_18">
     <g id="line2d_30">
      <g>
       <use xlink:href="#m97b3d079bd" x="281.423622" y="61.984252" style="fill: #37b24d; stroke: #37b24d; stroke-width: 0.5"/>
      </g>
     </g>
     <g id="text_40">
      <!-- 85 -->
      <g style="fill: #37b24d" transform="translate(270.415185 64.644252) scale(0.07 -0.07)">
       <defs>
        <path id="NotoSans-Regular-35" d="M 1760 2803 
Q 2227 2803 2572 2643 
Q 2918 2483 3107 2185 
Q 3296 1888 3296 1459 
Q 3296 986 3091 643 
Q 2886 301 2505 118 
Q 2125 -64 1587 -64 
Q 1235 -64 924 0 
Q 614 64 403 186 
L 403 717 
Q 634 576 963 496 
Q 1293 416 1594 416 
Q 1933 416 2185 521 
Q 2438 627 2579 848 
Q 2720 1069 2720 1402 
Q 2720 1850 2445 2090 
Q 2170 2330 1574 2330 
Q 1395 2330 1164 2298 
Q 934 2266 794 2234 
L 512 2413 
L 685 4570 
L 2976 4570 
L 2976 4058 
L 1165 4058 
L 1056 2733 
Q 1165 2752 1350 2777 
Q 1536 2803 1760 2803 
z
" transform="scale(0.015625)"/>
       </defs>
       <use xlink:href="#NotoSans-Regular-38"/>
       <use xlink:href="#NotoSans-Regular-35" transform="translate(57.199997 0)"/>
      </g>
     </g>
    </g>
    <g id="ytick_19">
     <g id="line2d_31">
      <g>
       <use xlink:href="#m97b3d079bd" x="281.423622" y="37.795276" style="fill: #37b24d; stroke: #37b24d; stroke-width: 0.5"/>
      </g>
     </g>
     <g id="text_41">
      <!-- 86 -->
      <g style="fill: #37b24d" transform="translate(270.415185 40.455276) scale(0.07 -0.07)">
       <use xlink:href="#NotoSans-Regular-38"/>
       <use xlink:href="#NotoSans-Regular-36" transform="translate(57.199997 0)"/>
      </g>
     </g>
    </g>
    <g id="ytick_20">
     <g id="line2d_32">
      <g>
       <use xlink:href="#m97b3d079bd" x="281.423622" y="13.606299" style="fill: #37b24d; stroke: #37b24d; stroke-width: 0.5"/>
      </g>
     </g>
     <g id="text_42">
      <!-- 87 -->
      <g style="fill: #37b24d" transform="translate(270.415185 16.266299) scale(0.07 -0.07)">
       <use xlink:href="#NotoSans-Regular-38"/>
       <use xlink:href="#NotoSans-Regular-37" transform="translate(57.199997 0)"/>
      </g>
     </g>
    </g>
    <g id="ytick_21">
     <g id="line2d_33">
      <g>
       <use xlink:href="#ma8b23f03c2" x="281.423622" y="146.645669" style="fill: #37b24d; stroke: #37b24d; stroke-width: 0.25"/>
      </g>
     </g>
    </g>
    <g id="ytick_22">
     <g id="line2d_34">
      <g>
       <use xlink:href="#ma8b23f03c2" x="281.423622" y="122.456693" style="fill: #37b24d; stroke: #37b24d; stroke-width: 0.25"/>
      </g>
     </g>
    </g>
    <g id="ytick_23">
     <g id="line2d_35">
      <g>
       <use xlink:href="#ma8b23f03c2" x="281.423622" y="98.267717" style="fill: #37b24d; stroke: #37b24d; stroke-width: 0.25"/>
      </g>
     </g>
    </g>
    <g id="ytick_24">
     <g id="line2d_36">
      <g>
       <use xlink:href="#ma8b23f03c2" x="281.423622" y="74.07874" style="fill: #37b24d; stroke: #37b24d; stroke-width: 0.25"/>
      </g>
     </g>
    </g>
    <g id="ytick_25">
     <g id="line2d_37">
      <g>
       <use xlink:href="#ma8b23f03c2" x="281.423622" y="49.889764" style="fill: #37b24d; stroke: #37b24d; stroke-width: 0.25"/>
      </g>
     </g>
    </g>
    <g id="ytick_26">
     <g id="line2d_38">
      <g>
       <use xlink:href="#ma8b23f03c2" x="281.423622" y="25.700787" style="fill: #37b24d; stroke: #37b24d; stroke-width: 0.25"/>
      </g>
     </g>
    </g>
    <g id="text_43">
     <!-- Thermal energy use [EJ] -->
     <g transform="translate(263.615185 127.862096) rotate(-90) scale(0.075 -0.075)">
      <use xlink:href="#NotoSans-Regular-54"/>
      <use xlink:href="#NotoSans-Regular-68" transform="translate(55.599991 0)"/>
      <use xlink:href="#NotoSans-Regular-65" transform="translate(117.399979 0)"/>
      <use xlink:href="#NotoSans-Regular-72" transform="translate(173.799973 0)"/>
      <use xlink:href="#NotoSans-Regular-6d" transform="translate(215.09996 0)"/>
      <use xlink:href="#NotoSans-Regular-61" transform="translate(308.599945 0)"/>
      <use xlink:href="#NotoSans-Regular-6c" transform="translate(364.699936 0)"/>
      <use xlink:href="#NotoSans-Regular-20" transform="translate(390.499924 0)"/>
      <use xlink:href="#NotoSans-Regular-65" transform="translate(416.499908 0)"/>
      <use xlink:href="#NotoSans-Regular-6e" transform="translate(472.899902 0)"/>
      <use xlink:href="#NotoSans-Regular-65" transform="translate(534.69989 0)"/>
      <use xlink:href="#NotoSans-Regular-72" transform="translate(591.099884 0)"/>
      <use xlink:href="#NotoSans-Regular-67" transform="translate(632.399872 0)"/>
      <use xlink:href="#NotoSans-Regular-79" transform="translate(693.899857 0)"/>
      <use xlink:href="#NotoSans-Regular-20" transform="translate(744.899841 0)"/>
      <use xlink:href="#NotoSans-Regular-75" transform="translate(770.899826 0)"/>
      <use xlink:href="#NotoSans-Regular-73" transform="translate(832.699814 0)"/>
      <use xlink:href="#NotoSans-Regular-65" transform="translate(880.599808 0)"/>
      <use xlink:href="#NotoSans-Regular-20" transform="translate(936.999802 0)"/>
      <use xlink:href="#NotoSans-Regular-5b" transform="translate(962.999786 0)"/>
      <use xlink:href="#NotoSans-Regular-45" transform="translate(995.89978 0)"/>
      <use xlink:href="#NotoSans-Regular-4a" transform="translate(1051.499771 0)"/>
      <use xlink:href="#NotoSans-Regular-5d" transform="translate(1078.799759 0)"/>
     </g>
    </g>
   </g>
  </g>
  <g id="axes_3">
   <g id="line2d_39">
    <path d="M 59.540157 94.191874 
L 89.524409 92.897764 
L 119.508661 91.603654 
L 149.492913 91.603654 
L 179.477165 94.191874 
" clip-path="url(#pb7021d50b8)" style="fill: none; stroke: #fa5252; stroke-width: 0.75; stroke-linecap: square"/>
    <defs>
     <path id="m525ccf6502" d="M 0 1.75 
C 0.464105 1.75 0.909265 1.565609 1.237437 1.237437 
C 1.565609 0.909265 1.75 0.464105 1.75 0 
C 1.75 -0.464105 1.565609 -0.909265 1.237437 -1.237437 
C 0.909265 -1.565609 0.464105 -1.75 0 -1.75 
C -0.464105 -1.75 -0.909265 -1.565609 -1.237437 -1.237437 
C -1.565609 -0.909265 -1.75 -0.464105 -1.75 0 
C -1.75 0.464105 -1.565609 0.909265 -1.237437 1.237437 
C -0.909265 1.565609 -0.464105 1.75 0 1.75 
z
" style="stroke: #fa5252; stroke-width: 0.75"/>
    </defs>
    <g clip-path="url(#pb7021d50b8)">
     <use xlink:href="#m525ccf6502" x="59.540157" y="94.191874" style="fill: #fff5f5; stroke: #fa5252; stroke-width: 0.75"/>
     <use xlink:href="#m525ccf6502" x="89.524409" y="92.897764" style="fill: #fff5f5; stroke: #fa5252; stroke-width: 0.75"/>
     <use xlink:href="#m525ccf6502" x="119.508661" y="91.603654" style="fill: #fff5f5; stroke: #fa5252; stroke-width: 0.75"/>
     <use xlink:href="#m525ccf6502" x="149.492913" y="91.603654" style="fill: #fff5f5; stroke: #fa5252; stroke-width: 0.75"/>
     <use xlink:href="#m525ccf6502" x="179.477165" y="94.191874" style="fill: #fff5f5; stroke: #fa5252; stroke-width: 0.75"/>
    </g>
   </g>
   <g id="matplotlib.axis_5">
    <g id="ytick_27">
     <g id="line2d_40">
      <defs>
       <path id="m28ce654503" d="M 0 0 
L -2.5 0 
" style="stroke: #fa5252; stroke-width: 0.5"/>
      </defs>
      <g>
       <use xlink:href="#m28ce654503" x="200.466142" y="158.740157" style="fill: #fa5252; stroke: #fa5252; stroke-width: 0.5"/>
      </g>
     </g>
     <g id="text_44">
      <!-- 0 -->
      <g style="fill: #fa5252" transform="translate(203.466142 161.400157) scale(0.07 -0.07)">
       <use xlink:href="#NotoSans-Regular-30"/>
      </g>
     </g>
    </g>
    <g id="ytick_28">
     <g id="line2d_41">
      <g>
       <use xlink:href="#m28ce654503" x="200.466142" y="134.551181" style="fill: #fa5252; stroke: #fa5252; stroke-width: 0.5"/>
      </g>
     </g>
     <g id="text_45">
      <!-- 2 -->
      <g style="fill: #fa5252" transform="translate(203.466142 137.211181) scale(0.07 -0.07)">
       <use xlink:href="#NotoSans-Regular-32"/>
      </g>
     </g>
    </g>
    <g id="ytick_29">
     <g id="line2d_42">
      <g>
       <use xlink:href="#m28ce654503" x="200.466142" y="110.362205" style="fill: #fa5252; stroke: #fa5252; stroke-width: 0.5"/>
      </g>
     </g>
     <g id="text_46">
      <!-- 4 -->
      <g style="fill: #fa5252" transform="translate(203.466142 113.022205) scale(0.07 -0.07)">
       <use xlink:href="#NotoSans-Regular-34"/>
      </g>
     </g>
    </g>
    <g id="ytick_30">
     <g id="line2d_43">
      <g>
       <use xlink:href="#m28ce654503" x="200.466142" y="86.173228" style="fill: #fa5252; stroke: #fa5252; stroke-width: 0.5"/>
      </g>
     </g>
     <g id="text_47">
      <!-- 6 -->
      <g style="fill: #fa5252" transform="translate(203.466142 88.833228) scale(0.07 -0.07)">
       <use xlink:href="#NotoSans-Regular-36"/>
      </g>
     </g>
    </g>
    <g id="ytick_31">
     <g id="line2d_44">
      <g>
       <use xlink:href="#m28ce654503" x="200.466142" y="61.984252" style="fill: #fa5252; stroke: #fa5252; stroke-width: 0.5"/>
      </g>
     </g>
     <g id="text_48">
      <!-- 8 -->
      <g style="fill: #fa5252" transform="translate(203.466142 64.644252) scale(0.07 -0.07)">
       <use xlink:href="#NotoSans-Regular-38"/>
      </g>
     </g>
    </g>
    <g id="ytick_32">
     <g id="line2d_45">
      <g>
       <use xlink:href="#m28ce654503" x="200.466142" y="37.795276" style="fill: #fa5252; stroke: #fa5252; stroke-width: 0.5"/>
      </g>
     </g>
     <g id="text_49">
      <!-- 10 -->
      <g style="fill: #fa5252" transform="translate(203.466142 40.455276) scale(0.07 -0.07)">
       <use xlink:href="#NotoSans-Regular-31"/>
       <use xlink:href="#NotoSans-Regular-30" transform="translate(57.199997 0)"/>
      </g>
     </g>
    </g>
    <g id="ytick_33">
     <g id="line2d_46">
      <g>
       <use xlink:href="#m28ce654503" x="200.466142" y="13.606299" style="fill: #fa5252; stroke: #fa5252; stroke-width: 0.5"/>
      </g>
     </g>
     <g id="text_50">
      <!-- 12 -->
      <g style="fill: #fa5252" transform="translate(203.466142 16.266299) scale(0.07 -0.07)">
       <use xlink:href="#NotoSans-Regular-31"/>
       <use xlink:href="#NotoSans-Regular-32" transform="translate(57.199997 0)"/>
      </g>
     </g>
    </g>
    <g id="ytick_34">
     <g id="line2d_47">
      <defs>
       <path id="m4d6c163d9b" d="M 0 0 
L -1.25 0 
" style="stroke: #fa5252; stroke-width: 0.25"/>
      </defs>
      <g>
       <use xlink:href="#m4d6c163d9b" x="200.466142" y="146.645669" style="fill: #fa5252; stroke: #fa5252; stroke-width: 0.25"/>
      </g>
     </g>
    </g>
    <g id="ytick_35">
     <g id="line2d_48">
      <g>
       <use xlink:href="#m4d6c163d9b" x="200.466142" y="122.456693" style="fill: #fa5252; stroke: #fa5252; stroke-width: 0.25"/>
      </g>
     </g>
    </g>
    <g id="ytick_36">
     <g id="line2d_49">
      <g>
       <use xlink:href="#m4d6c163d9b" x="200.466142" y="98.267717" style="fill: #fa5252; stroke: #fa5252; stroke-width: 0.25"/>
      </g>
     </g>
    </g>
    <g id="ytick_37">
     <g id="line2d_50">
      <g>
       <use xlink:href="#m4d6c163d9b" x="200.466142" y="74.07874" style="fill: #fa5252; stroke: #fa5252; stroke-width: 0.25"/>
      </g>
     </g>
    </g>
    <g id="ytick_38">
     <g id="line2d_51">
      <g>
       <use xlink:href="#m4d6c163d9b" x="200.466142" y="49.889764" style="fill: #fa5252; stroke: #fa5252; stroke-width: 0.25"/>
      </g>
     </g>
    </g>
    <g id="ytick_39">
     <g id="line2d_52">
      <g>
       <use xlink:href="#m4d6c163d9b" x="200.466142" y="25.700787" style="fill: #fa5252; stroke: #fa5252; stroke-width: 0.25"/>
      </g>
     </g>
    </g>
    <g id="text_51">
     <!-- CO2 emissions [Gt] -->
     <g transform="translate(222.174579 119.650181) rotate(-90) scale(0.075 -0.075)">
      <defs>
       <path id="NotoSans-Regular-43" d="M 2579 4128 
Q 2214 4128 1920 4003 
Q 1626 3878 1421 3638 
Q 1216 3398 1107 3056 
Q 998 2714 998 2285 
Q 998 1722 1174 1306 
Q 1350 890 1699 666 
Q 2048 442 2573 442 
Q 2874 442 3142 493 
Q 3411 544 3667 621 
L 3667 122 
Q 3411 26 3139 -19 
Q 2867 -64 2490 -64 
Q 1792 -64 1325 224 
Q 858 512 624 1043 
Q 390 1574 390 2291 
Q 390 2810 534 3238 
Q 678 3667 956 3980 
Q 1235 4294 1644 4464 
Q 2054 4634 2586 4634 
Q 2938 4634 3264 4563 
Q 3590 4493 3846 4365 
L 3616 3878 
Q 3405 3974 3145 4051 
Q 2886 4128 2579 4128 
z
" transform="scale(0.015625)"/>
       <path id="NotoSans-Regular-4f" d="M 4608 2291 
Q 4608 1760 4473 1328 
Q 4339 896 4073 582 
Q 3808 269 3414 102 
Q 3021 -64 2502 -64 
Q 1965 -64 1568 105 
Q 1171 275 908 585 
Q 646 896 518 1331 
Q 390 1766 390 2298 
Q 390 3002 620 3526 
Q 851 4051 1321 4345 
Q 1792 4640 2509 4640 
Q 3194 4640 3661 4349 
Q 4128 4058 4368 3530 
Q 4608 3002 4608 2291 
z
M 998 2291 
Q 998 1715 1158 1299 
Q 1318 883 1654 659 
Q 1990 435 2502 435 
Q 3021 435 3350 659 
Q 3680 883 3840 1299 
Q 4000 1715 4000 2291 
Q 4000 3155 3641 3644 
Q 3283 4134 2509 4134 
Q 1990 4134 1654 3913 
Q 1318 3693 1158 3280 
Q 998 2867 998 2291 
z
" transform="scale(0.015625)"/>
       <path id="NotoSans-Regular-69" d="M 1107 3430 
L 1107 0 
L 544 0 
L 544 3430 
L 1107 3430 
z
M 832 4717 
Q 960 4717 1059 4630 
Q 1158 4544 1158 4358 
Q 1158 4179 1059 4089 
Q 960 4000 832 4000 
Q 691 4000 595 4089 
Q 499 4179 499 4358 
Q 499 4544 595 4630 
Q 691 4717 832 4717 
z
" transform="scale(0.015625)"/>
       <path id="NotoSans-Regular-6f" d="M 3526 1722 
Q 3526 1293 3414 963 
Q 3302 634 3094 403 
Q 2886 173 2588 54 
Q 2291 -64 1926 -64 
Q 1587 -64 1299 54 
Q 1011 173 800 403 
Q 589 634 470 963 
Q 352 1293 352 1722 
Q 352 2291 544 2684 
Q 736 3078 1094 3286 
Q 1453 3494 1946 3494 
Q 2413 3494 2768 3286 
Q 3123 3078 3324 2684 
Q 3526 2291 3526 1722 
z
M 934 1722 
Q 934 1318 1040 1020 
Q 1146 723 1370 563 
Q 1594 403 1939 403 
Q 2285 403 2509 563 
Q 2733 723 2838 1020 
Q 2944 1318 2944 1722 
Q 2944 2131 2835 2419 
Q 2726 2707 2505 2864 
Q 2285 3021 1933 3021 
Q 1408 3021 1171 2675 
Q 934 2330 934 1722 
z
" transform="scale(0.015625)"/>
       <path id="NotoSans-Regular-47" d="M 2605 2413 
L 4186 2413 
L 4186 173 
Q 3814 51 3436 -6 
Q 3059 -64 2579 -64 
Q 1869 -64 1382 221 
Q 896 506 643 1034 
Q 390 1562 390 2285 
Q 390 3002 672 3526 
Q 954 4051 1482 4342 
Q 2010 4634 2758 4634 
Q 3142 4634 3484 4563 
Q 3827 4493 4122 4365 
L 3904 3866 
Q 3661 3974 3357 4051 
Q 3053 4128 2726 4128 
Q 2182 4128 1792 3904 
Q 1402 3680 1197 3267 
Q 992 2854 992 2285 
Q 992 1741 1168 1321 
Q 1344 902 1721 668 
Q 2099 435 2714 435 
Q 3014 435 3225 467 
Q 3437 499 3610 544 
L 3610 1901 
L 2605 1901 
L 2605 2413 
z
" transform="scale(0.015625)"/>
       <path id="NotoSans-Regular-74" d="M 1690 397 
Q 1818 397 1952 419 
Q 2086 442 2170 467 
L 2170 38 
Q 2080 -6 1913 -35 
Q 1747 -64 1594 -64 
Q 1325 -64 1097 29 
Q 870 122 729 352 
Q 589 582 589 998 
L 589 2995 
L 102 2995 
L 102 3264 
L 595 3488 
L 819 4218 
L 1152 4218 
L 1152 3430 
L 2144 3430 
L 2144 2995 
L 1152 2995 
L 1152 1011 
Q 1152 698 1302 547 
Q 1453 397 1690 397 
z
" transform="scale(0.015625)"/>
      </defs>
      <use xlink:href="#NotoSans-Regular-43"/>
      <use xlink:href="#NotoSans-Regular-4f" transform="translate(63.199997 0)"/>
      <use xlink:href="#NotoSans-Regular-32" transform="translate(141.299988 0)"/>
      <use xlink:href="#NotoSans-Regular-20" transform="translate(198.499985 0)"/>
      <use xlink:href="#NotoSans-Regular-65" transform="translate(224.499969 0)"/>
      <use xlink:href="#NotoSans-Regular-6d" transform="translate(280.899963 0)"/>
      <use xlink:href="#NotoSans-Regular-69" transform="translate(374.399948 0)"/>
      <use xlink:href="#NotoSans-Regular-73" transform="translate(400.199936 0)"/>
      <use xlink:href="#NotoSans-Regular-73" transform="translate(448.09993 0)"/>
      <use xlink:href="#NotoSans-Regular-69" transform="translate(495.999924 0)"/>
      <use xlink:href="#NotoSans-Regular-6f" transform="translate(521.799911 0)"/>
      <use xlink:href="#NotoSans-Regular-6e" transform="translate(582.299896 0)"/>
      <use xlink:href="#NotoSans-Regular-73" transform="translate(644.099884 0)"/>
      <use xlink:href="#NotoSans-Regular-20" transform="translate(691.999878 0)"/>
      <use xlink:href="#NotoSans-Regular-5b" transform="translate(717.999863 0)"/>
      <use xlink:href="#NotoSans-Regular-47" transform="translate(750.899857 0)"/>
      <use xlink:href="#NotoSans-Regular-74" transform="translate(823.699844 0)"/>
      <use xlink:href="#NotoSans-Regular-5d" transform="translate(859.799835 0)"/>
     </g>
    </g>
   </g>
  </g>
  <g id="axes_4">
   <g id="line2d_53">
    <path d="M 302.412598 101.412283 
L 332.39685 75.530079 
L 362.381102 49.647874 
L 392.365354 49.647874 
L 422.349606 101.412283 
" clip-path="url(#p44f6b5439b)" style="fill: none; stroke: #fa5252; stroke-width: 0.75; stroke-linecap: square"/>
    <g clip-path="url(#p44f6b5439b)">
     <use xlink:href="#m525ccf6502" x="302.412598" y="101.412283" style="fill: #fff5f5; stroke: #fa5252; stroke-width: 0.75"/>
     <use xlink:href="#m525ccf6502" x="332.39685" y="75.530079" style="fill: #fff5f5; stroke: #fa5252; stroke-width: 0.75"/>
     <use xlink:href="#m525ccf6502" x="362.381102" y="49.647874" style="fill: #fff5f5; stroke: #fa5252; stroke-width: 0.75"/>
     <use xlink:href="#m525ccf6502" x="392.365354" y="49.647874" style="fill: #fff5f5; stroke: #fa5252; stroke-width: 0.75"/>
     <use xlink:href="#m525ccf6502" x="422.349606" y="101.412283" style="fill: #fff5f5; stroke: #fa5252; stroke-width: 0.75"/>
    </g>
   </g>
   <g id="matplotlib.axis_6">
    <g id="ytick_40">
     <g id="line2d_54">
      <g>
       <use xlink:href="#m28ce654503" x="443.338583" y="158.740157" style="fill: #fa5252; stroke: #fa5252; stroke-width: 0.5"/>
      </g>
     </g>
     <g id="text_52">
      <!-- 5.1 -->
      <g style="fill: #fa5252" transform="translate(446.338583 161.400157) scale(0.07 -0.07)">
       <defs>
        <path id="NotoSans-Regular-2e" d="M 461 346 
Q 461 582 576 678 
Q 691 774 851 774 
Q 1018 774 1136 678 
Q 1254 582 1254 346 
Q 1254 115 1136 12 
Q 1018 -90 851 -90 
Q 691 -90 576 12 
Q 461 115 461 346 
z
" transform="scale(0.015625)"/>
       </defs>
       <use xlink:href="#NotoSans-Regular-35"/>
       <use xlink:href="#NotoSans-Regular-2e" transform="translate(57.199997 0)"/>
       <use xlink:href="#NotoSans-Regular-31" transform="translate(83.999985 0)"/>
      </g>
     </g>
    </g>
    <g id="ytick_41">
     <g id="line2d_55">
      <g>
       <use xlink:href="#m28ce654503" x="443.338583" y="134.551181" style="fill: #fa5252; stroke: #fa5252; stroke-width: 0.5"/>
      </g>
     </g>
     <g id="text_53">
      <!-- 5.2 -->
      <g style="fill: #fa5252" transform="translate(446.338583 137.211181) scale(0.07 -0.07)">
       <use xlink:href="#NotoSans-Regular-35"/>
       <use xlink:href="#NotoSans-Regular-2e" transform="translate(57.199997 0)"/>
       <use xlink:href="#NotoSans-Regular-32" transform="translate(83.999985 0)"/>
      </g>
     </g>
    </g>
    <g id="ytick_42">
     <g id="line2d_56">
      <g>
       <use xlink:href="#m28ce654503" x="443.338583" y="110.362205" style="fill: #fa5252; stroke: #fa5252; stroke-width: 0.5"/>
      </g>
     </g>
     <g id="text_54">
      <!-- 5.3 -->
      <g style="fill: #fa5252" transform="translate(446.338583 113.022205) scale(0.07 -0.07)">
       <use xlink:href="#NotoSans-Regular-35"/>
       <use xlink:href="#NotoSans-Regular-2e" transform="translate(57.199997 0)"/>
       <use xlink:href="#NotoSans-Regular-33" transform="translate(83.999985 0)"/>
      </g>
     </g>
    </g>
    <g id="ytick_43">
     <g id="line2d_57">
      <g>
       <use xlink:href="#m28ce654503" x="443.338583" y="86.173228" style="fill: #fa5252; stroke: #fa5252; stroke-width: 0.5"/>
      </g>
     </g>
     <g id="text_55">
      <!-- 5.4 -->
      <g style="fill: #fa5252" transform="translate(446.338583 88.833228) scale(0.07 -0.07)">
       <use xlink:href="#NotoSans-Regular-35"/>
       <use xlink:href="#NotoSans-Regular-2e" transform="translate(57.199997 0)"/>
       <use xlink:href="#NotoSans-Regular-34" transform="translate(83.999985 0)"/>
      </g>
     </g>
    </g>
    <g id="ytick_44">
     <g id="line2d_58">
      <g>
       <use xlink:href="#m28ce654503" x="443.338583" y="61.984252" style="fill: #fa5252; stroke: #fa5252; stroke-width: 0.5"/>
      </g>
     </g>
     <g id="text_56">
      <!-- 5.5 -->
      <g style="fill: #fa5252" transform="translate(446.338583 64.644252) scale(0.07 -0.07)">
       <use xlink:href="#NotoSans-Regular-35"/>
       <use xlink:href="#NotoSans-Regular-2e" transform="translate(57.199997 0)"/>
       <use xlink:href="#NotoSans-Regular-35" transform="translate(83.999985 0)"/>
      </g>
     </g>
    </g>
    <g id="ytick_45">
     <g id="line2d_59">
      <g>
       <use xlink:href="#m28ce654503" x="443.338583" y="37.795276" style="fill: #fa5252; stroke: #fa5252; stroke-width: 0.5"/>
      </g>
     </g>
     <g id="text_57">
      <!-- 5.6 -->
      <g style="fill: #fa5252" transform="translate(446.338583 40.455276) scale(0.07 -0.07)">
       <use xlink:href="#NotoSans-Regular-35"/>
       <use xlink:href="#NotoSans-Regular-2e" transform="translate(57.199997 0)"/>
       <use xlink:href="#NotoSans-Regular-36" transform="translate(83.999985 0)"/>
      </g>
     </g>
    </g>
    <g id="ytick_46">
     <g id="line2d_60">
      <g>
       <use xlink:href="#m28ce654503" x="443.338583" y="13.606299" style="fill: #fa5252; stroke: #fa5252; stroke-width: 0.5"/>
      </g>
     </g>
     <g id="text_58">
      <!-- 5.7 -->
      <g style="fill: #fa5252" transform="translate(446.338583 16.266299) scale(0.07 -0.07)">
       <use xlink:href="#NotoSans-Regular-35"/>
       <use xlink:href="#NotoSans-Regular-2e" transform="translate(57.199997 0)"/>
       <use xlink:href="#NotoSans-Regular-37" transform="translate(83.999985 0)"/>
      </g>
     </g>
    </g>
    <g id="ytick_47">
     <g id="line2d_61">
      <g>
       <use xlink:href="#m4d6c163d9b" x="443.338583" y="146.645669" style="fill: #fa5252; stroke: #fa5252; stroke-width: 0.25"/>
      </g>
     </g>
    </g>
    <g id="ytick_48">
     <g id="line2d_62">
      <g>
       <use xlink:href="#m4d6c163d9b" x="443.338583" y="122.456693" style="fill: #fa5252; stroke: #fa5252; stroke-width: 0.25"/>
      </g>
     </g>
    </g>
    <g id="ytick_49">
     <g id="line2d_63">
      <g>
       <use xlink:href="#m4d6c163d9b" x="443.338583" y="98.267717" style="fill: #fa5252; stroke: #fa5252; stroke-width: 0.25"/>
      </g>
     </g>
    </g>
    <g id="ytick_50">
     <g id="line2d_64">
      <g>
       <use xlink:href="#m4d6c163d9b" x="443.338583" y="74.07874" style="fill: #fa5252; stroke: #fa5252; stroke-width: 0.25"/>
      </g>
     </g>
    </g>
    <g id="ytick_51">
     <g id="line2d_65">
      <g>
       <use xlink:href="#m4d6c163d9b" x="443.338583" y="49.889764" style="fill: #fa5252; stroke: #fa5252; stroke-width: 0.25"/>
      </g>
     </g>
    </g>
    <g id="ytick_52">
     <g id="line2d_66">
      <g>
       <use xlink:href="#m4d6c163d9b" x="443.338583" y="25.700787" style="fill: #fa5252; stroke: #fa5252; stroke-width: 0.25"/>
      </g>
     </g>
    </g>
    <g id="text_59">
     <!-- CO2 emissions [Gt] -->
     <g transform="translate(466.922801 119.650181) rotate(-90) scale(0.075 -0.075)">
      <use xlink:href="#NotoSans-Regular-43"/>
      <use xlink:href="#NotoSans-Regular-4f" transform="translate(63.199997 0)"/>
      <use xlink:href="#NotoSans-Regular-32" transform="translate(141.299988 0)"/>
      <use xlink:href="#NotoSans-Regular-20" transform="translate(198.499985 0)"/>
      <use xlink:href="#NotoSans-Regular-65" transform="translate(224.499969 0)"/>
      <use xlink:href="#NotoSans-Regular-6d" transform="translate(280.899963 0)"/>
      <use xlink:href="#NotoSans-Regular-69" transform="translate(374.399948 0)"/>
      <use xlink:href="#NotoSans-Regular-73" transform="translate(400.199936 0)"/>
      <use xlink:href="#NotoSans-Regular-73" transform="translate(448.09993 0)"/>
      <use xlink:href="#NotoSans-Regular-69" transform="translate(495.999924 0)"/>
      <use xlink:href="#NotoSans-Regular-6f" transform="translate(521.799911 0)"/>
      <use xlink:href="#NotoSans-Regular-6e" transform="translate(582.299896 0)"/>
      <use xlink:href="#NotoSans-Regular-73" transform="translate(644.099884 0)"/>
      <use xlink:href="#NotoSans-Regular-20" transform="translate(691.999878 0)"/>
      <use xlink:href="#NotoSans-Regular-5b" transform="translate(717.999863 0)"/>
      <use xlink:href="#NotoSans-Regular-47" transform="translate(750.899857 0)"/>
      <use xlink:href="#NotoSans-Regular-74" transform="translate(823.699844 0)"/>
      <use xlink:href="#NotoSans-Regular-5d" transform="translate(859.799835 0)"/>
     </g>
    </g>
   </g>
  </g>
  <g id="legend_1">
   <g id="patch_25">
    <path d="M 60.768944 212.847087 
L 70.518944 212.847087 
L 70.518944 208.297087 
L 60.768944 208.297087 
z
" style="fill: #2b8a3e"/>
   </g>
   <g id="text_60">
    <!-- Non-renewable heat consumption -->
    <g transform="translate(72.468944 212.847087) scale(0.065 -0.065)">
     <defs>
      <path id="NotoSans-Regular-4e" d="M 4243 0 
L 3571 0 
L 1126 3795 
L 1101 3795 
Q 1114 3648 1123 3446 
Q 1133 3245 1142 3017 
Q 1152 2790 1152 2554 
L 1152 0 
L 621 0 
L 621 4570 
L 1286 4570 
L 3725 787 
L 3750 787 
Q 3744 890 3734 1094 
Q 3725 1299 3715 1542 
Q 3706 1786 3706 1990 
L 3706 4570 
L 4243 4570 
L 4243 0 
z
" transform="scale(0.015625)"/>
      <path id="NotoSans-Regular-2d" d="M 256 1466 
L 256 1965 
L 1805 1965 
L 1805 1466 
L 256 1466 
z
" transform="scale(0.015625)"/>
      <path id="NotoSans-Regular-77" d="M 2758 1939 
Q 2720 2074 2681 2205 
Q 2643 2336 2614 2454 
Q 2586 2573 2560 2675 
Q 2534 2778 2522 2848 
L 2496 2848 
Q 2483 2778 2460 2675 
Q 2438 2573 2409 2451 
Q 2381 2330 2345 2198 
Q 2310 2067 2266 1933 
L 1651 6 
L 1011 6 
L 70 3437 
L 653 3437 
L 1126 1606 
Q 1178 1421 1222 1232 
Q 1267 1043 1302 873 
Q 1338 704 1350 582 
L 1376 582 
Q 1395 659 1420 774 
Q 1446 890 1475 1018 
Q 1504 1146 1539 1274 
Q 1574 1402 1606 1504 
L 2214 3437 
L 2829 3437 
L 3418 1504 
Q 3462 1357 3510 1190 
Q 3558 1024 3596 867 
Q 3635 710 3648 589 
L 3674 589 
Q 3686 698 3721 861 
Q 3757 1024 3805 1219 
Q 3853 1414 3904 1606 
L 4384 3437 
L 4960 3437 
L 4006 6 
L 3347 6 
L 2758 1939 
z
" transform="scale(0.015625)"/>
      <path id="NotoSans-Regular-62" d="M 1107 3680 
Q 1107 3462 1097 3273 
Q 1088 3085 1075 2976 
L 1107 2976 
Q 1254 3194 1510 3341 
Q 1766 3488 2170 3488 
Q 2810 3488 3197 3043 
Q 3584 2598 3584 1715 
Q 3584 1126 3408 729 
Q 3232 333 2912 134 
Q 2592 -64 2170 -64 
Q 1766 -64 1510 83 
Q 1254 230 1107 435 
L 1062 435 
L 947 0 
L 544 0 
L 544 4864 
L 1107 4864 
L 1107 3680 
z
M 2074 3021 
Q 1709 3021 1497 2883 
Q 1286 2746 1196 2461 
Q 1107 2176 1107 1734 
L 1107 1709 
Q 1107 1075 1315 739 
Q 1523 403 2086 403 
Q 2547 403 2774 742 
Q 3002 1082 3002 1722 
Q 3002 2368 2774 2694 
Q 2547 3021 2074 3021 
z
" transform="scale(0.015625)"/>
      <path id="NotoSans-Regular-63" d="M 1920 -64 
Q 1466 -64 1110 121 
Q 755 307 553 697 
Q 352 1088 352 1696 
Q 352 2330 563 2726 
Q 774 3123 1136 3308 
Q 1498 3494 1958 3494 
Q 2221 3494 2464 3440 
Q 2707 3386 2861 3309 
L 2688 2842 
Q 2534 2899 2329 2950 
Q 2125 3002 1946 3002 
Q 1600 3002 1376 2854 
Q 1152 2707 1043 2419 
Q 934 2131 934 1702 
Q 934 1293 1043 1005 
Q 1152 717 1369 569 
Q 1587 422 1914 422 
Q 2195 422 2409 480 
Q 2624 538 2803 621 
L 2803 122 
Q 2630 32 2422 -16 
Q 2214 -64 1920 -64 
z
" transform="scale(0.015625)"/>
      <path id="NotoSans-Regular-70" d="M 2176 3494 
Q 2810 3494 3197 3052 
Q 3584 2611 3584 1722 
Q 3584 1139 3408 739 
Q 3232 339 2915 137 
Q 2598 -64 2170 -64 
Q 1907 -64 1702 6 
Q 1498 77 1354 189 
Q 1210 301 1107 435 
L 1069 435 
Q 1082 326 1094 160 
Q 1107 -6 1107 -128 
L 1107 -1536 
L 544 -1536 
L 544 3430 
L 1005 3430 
L 1082 2963 
L 1107 2963 
Q 1210 3110 1354 3232 
Q 1498 3354 1699 3424 
Q 1901 3494 2176 3494 
z
M 2074 3021 
Q 1728 3021 1517 2889 
Q 1306 2758 1210 2496 
Q 1114 2234 1107 1830 
L 1107 1722 
Q 1107 1299 1196 1004 
Q 1286 710 1500 556 
Q 1715 403 2086 403 
Q 2400 403 2601 576 
Q 2803 749 2902 1046 
Q 3002 1344 3002 1728 
Q 3002 2317 2774 2669 
Q 2547 3021 2074 3021 
z
" transform="scale(0.015625)"/>
     </defs>
     <use xlink:href="#NotoSans-Regular-4e"/>
     <use xlink:href="#NotoSans-Regular-6f" transform="translate(75.999985 0)"/>
     <use xlink:href="#NotoSans-Regular-6e" transform="translate(136.499969 0)"/>
     <use xlink:href="#NotoSans-Regular-2d" transform="translate(198.299957 0)"/>
     <use xlink:href="#NotoSans-Regular-72" transform="translate(230.499954 0)"/>
     <use xlink:href="#NotoSans-Regular-65" transform="translate(271.799942 0)"/>
     <use xlink:href="#NotoSans-Regular-6e" transform="translate(328.199936 0)"/>
     <use xlink:href="#NotoSans-Regular-65" transform="translate(389.999924 0)"/>
     <use xlink:href="#NotoSans-Regular-77" transform="translate(446.399918 0)"/>
     <use xlink:href="#NotoSans-Regular-61" transform="translate(524.999908 0)"/>
     <use xlink:href="#NotoSans-Regular-62" transform="translate(581.099899 0)"/>
     <use xlink:href="#NotoSans-Regular-6c" transform="translate(642.599884 0)"/>
     <use xlink:href="#NotoSans-Regular-65" transform="translate(668.399872 0)"/>
     <use xlink:href="#NotoSans-Regular-20" transform="translate(724.799866 0)"/>
     <use xlink:href="#NotoSans-Regular-68" transform="translate(750.79985 0)"/>
     <use xlink:href="#NotoSans-Regular-65" transform="translate(812.599838 0)"/>
     <use xlink:href="#NotoSans-Regular-61" transform="translate(868.999832 0)"/>
     <use xlink:href="#NotoSans-Regular-74" transform="translate(925.099823 0)"/>
     <use xlink:href="#NotoSans-Regular-20" transform="translate(961.199814 0)"/>
     <use xlink:href="#NotoSans-Regular-63" transform="translate(987.199799 0)"/>
     <use xlink:href="#NotoSans-Regular-6f" transform="translate(1035.199783 0)"/>
     <use xlink:href="#NotoSans-Regular-6e" transform="translate(1095.699768 0)"/>
     <use xlink:href="#NotoSans-Regular-73" transform="translate(1157.499756 0)"/>
     <use xlink:href="#NotoSans-Regular-75" transform="translate(1205.39975 0)"/>
     <use xlink:href="#NotoSans-Regular-6d" transform="translate(1267.199738 0)"/>
     <use xlink:href="#NotoSans-Regular-70" transform="translate(1360.699722 0)"/>
     <use xlink:href="#NotoSans-Regular-74" transform="translate(1422.199707 0)"/>
     <use xlink:href="#NotoSans-Regular-69" transform="translate(1458.299698 0)"/>
     <use xlink:href="#NotoSans-Regular-6f" transform="translate(1484.099686 0)"/>
     <use xlink:href="#NotoSans-Regular-6e" transform="translate(1544.59967 0)"/>
    </g>
   </g>
   <g id="line2d_67">
    <path d="M 60.768944 222.272087 
L 65.643944 222.272087 
L 70.518944 222.272087 
" style="fill: none; stroke: #2b8a3e; stroke-width: 0.75; stroke-linecap: square"/>
    <g>
     <use xlink:href="#mcf699d52c6" x="65.643944" y="222.272087" style="fill: #fff5f5; stroke: #2b8a3e; stroke-width: 0.75"/>
    </g>
   </g>
   <g id="text_61">
    <!-- Non-renewable + Traditional biomass -->
    <g transform="translate(72.468944 224.547087) scale(0.065 -0.065)">
     <defs>
      <path id="NotoSans-Regular-2b" d="M 2054 2483 
L 3328 2483 
L 3328 2029 
L 2054 2029 
L 2054 710 
L 1594 710 
L 1594 2029 
L 320 2029 
L 320 2483 
L 1594 2483 
L 1594 3808 
L 2054 3808 
L 2054 2483 
z
" transform="scale(0.015625)"/>
      <path id="NotoSans-Regular-64" d="M 1760 -64 
Q 1120 -64 736 381 
Q 352 826 352 1709 
Q 352 2592 739 3043 
Q 1126 3494 1766 3494 
Q 2035 3494 2233 3427 
Q 2432 3360 2579 3245 
Q 2726 3130 2829 2989 
L 2867 2989 
Q 2861 3072 2845 3235 
Q 2829 3398 2829 3494 
L 2829 4864 
L 3392 4864 
L 3392 0 
L 2938 0 
L 2854 461 
L 2829 461 
Q 2726 314 2579 195 
Q 2432 77 2230 6 
Q 2029 -64 1760 -64 
z
M 1850 403 
Q 2394 403 2614 700 
Q 2835 998 2835 1600 
L 2835 1702 
Q 2835 2342 2624 2684 
Q 2413 3027 1843 3027 
Q 1389 3027 1161 2665 
Q 934 2304 934 1696 
Q 934 1082 1161 742 
Q 1389 403 1850 403 
z
" transform="scale(0.015625)"/>
     </defs>
     <use xlink:href="#NotoSans-Regular-4e"/>
     <use xlink:href="#NotoSans-Regular-6f" transform="translate(75.999985 0)"/>
     <use xlink:href="#NotoSans-Regular-6e" transform="translate(136.499969 0)"/>
     <use xlink:href="#NotoSans-Regular-2d" transform="translate(198.299957 0)"/>
     <use xlink:href="#NotoSans-Regular-72" transform="translate(230.499954 0)"/>
     <use xlink:href="#NotoSans-Regular-65" transform="translate(271.799942 0)"/>
     <use xlink:href="#NotoSans-Regular-6e" transform="translate(328.199936 0)"/>
     <use xlink:href="#NotoSans-Regular-65" transform="translate(389.999924 0)"/>
     <use xlink:href="#NotoSans-Regular-77" transform="translate(446.399918 0)"/>
     <use xlink:href="#NotoSans-Regular-61" transform="translate(524.999908 0)"/>
     <use xlink:href="#NotoSans-Regular-62" transform="translate(581.099899 0)"/>
     <use xlink:href="#NotoSans-Regular-6c" transform="translate(642.599884 0)"/>
     <use xlink:href="#NotoSans-Regular-65" transform="translate(668.399872 0)"/>
     <use xlink:href="#NotoSans-Regular-20" transform="translate(724.799866 0)"/>
     <use xlink:href="#NotoSans-Regular-2b" transform="translate(750.79985 0)"/>
     <use xlink:href="#NotoSans-Regular-20" transform="translate(807.999847 0)"/>
     <use xlink:href="#NotoSans-Regular-54" transform="translate(833.999832 0)"/>
     <use xlink:href="#NotoSans-Regular-72" transform="translate(889.599823 0)"/>
     <use xlink:href="#NotoSans-Regular-61" transform="translate(930.899811 0)"/>
     <use xlink:href="#NotoSans-Regular-64" transform="translate(986.999802 0)"/>
     <use xlink:href="#NotoSans-Regular-69" transform="translate(1048.499786 0)"/>
     <use xlink:href="#NotoSans-Regular-74" transform="translate(1074.299774 0)"/>
     <use xlink:href="#NotoSans-Regular-69" transform="translate(1110.399765 0)"/>
     <use xlink:href="#NotoSans-Regular-6f" transform="translate(1136.199753 0)"/>
     <use xlink:href="#NotoSans-Regular-6e" transform="translate(1196.699738 0)"/>
     <use xlink:href="#NotoSans-Regular-61" transform="translate(1258.499725 0)"/>
     <use xlink:href="#NotoSans-Regular-6c" transform="translate(1314.599716 0)"/>
     <use xlink:href="#NotoSans-Regular-20" transform="translate(1340.399704 0)"/>
     <use xlink:href="#NotoSans-Regular-62" transform="translate(1366.399689 0)"/>
     <use xlink:href="#NotoSans-Regular-69" transform="translate(1427.899673 0)"/>
     <use xlink:href="#NotoSans-Regular-6f" transform="translate(1453.699661 0)"/>
     <use xlink:href="#NotoSans-Regular-6d" transform="translate(1514.199646 0)"/>
     <use xlink:href="#NotoSans-Regular-61" transform="translate(1607.699631 0)"/>
     <use xlink:href="#NotoSans-Regular-73" transform="translate(1663.799622 0)"/>
     <use xlink:href="#NotoSans-Regular-73" transform="translate(1711.699615 0)"/>
    </g>
   </g>
   <g id="patch_26">
    <path d="M 193.665507 212.847087 
L 203.415507 212.847087 
L 203.415507 208.297087 
L 193.665507 208.297087 
z
" style="fill: #82c91e"/>
   </g>
   <g id="text_62">
    <!-- Traditional uses of biomsass -->
    <g transform="translate(205.365507 212.847087) scale(0.065 -0.065)">
     <defs>
      <path id="NotoSans-Regular-66" d="M 2125 2995 
L 1261 2995 
L 1261 0 
L 698 0 
L 698 2995 
L 96 2995 
L 96 3258 
L 698 3450 
L 698 3648 
Q 698 4090 829 4365 
Q 960 4640 1209 4768 
Q 1459 4896 1811 4896 
Q 2016 4896 2185 4861 
Q 2355 4826 2477 4781 
L 2330 4339 
Q 2227 4371 2092 4403 
Q 1958 4435 1818 4435 
Q 1536 4435 1398 4246 
Q 1261 4058 1261 3654 
L 1261 3430 
L 2125 3430 
L 2125 2995 
z
" transform="scale(0.015625)"/>
     </defs>
     <use xlink:href="#NotoSans-Regular-54"/>
     <use xlink:href="#NotoSans-Regular-72" transform="translate(55.599991 0)"/>
     <use xlink:href="#NotoSans-Regular-61" transform="translate(96.899979 0)"/>
     <use xlink:href="#NotoSans-Regular-64" transform="translate(152.999969 0)"/>
     <use xlink:href="#NotoSans-Regular-69" transform="translate(214.499954 0)"/>
     <use xlink:href="#NotoSans-Regular-74" transform="translate(240.299942 0)"/>
     <use xlink:href="#NotoSans-Regular-69" transform="translate(276.399933 0)"/>
     <use xlink:href="#NotoSans-Regular-6f" transform="translate(302.199921 0)"/>
     <use xlink:href="#NotoSans-Regular-6e" transform="translate(362.699905 0)"/>
     <use xlink:href="#NotoSans-Regular-61" transform="translate(424.499893 0)"/>
     <use xlink:href="#NotoSans-Regular-6c" transform="translate(480.599884 0)"/>
     <use xlink:href="#NotoSans-Regular-20" transform="translate(506.399872 0)"/>
     <use xlink:href="#NotoSans-Regular-75" transform="translate(532.399857 0)"/>
     <use xlink:href="#NotoSans-Regular-73" transform="translate(594.199844 0)"/>
     <use xlink:href="#NotoSans-Regular-65" transform="translate(642.099838 0)"/>
     <use xlink:href="#NotoSans-Regular-73" transform="translate(698.499832 0)"/>
     <use xlink:href="#NotoSans-Regular-20" transform="translate(746.399826 0)"/>
     <use xlink:href="#NotoSans-Regular-6f" transform="translate(772.399811 0)"/>
     <use xlink:href="#NotoSans-Regular-66" transform="translate(832.899796 0)"/>
     <use xlink:href="#NotoSans-Regular-20" transform="translate(867.299789 0)"/>
     <use xlink:href="#NotoSans-Regular-62" transform="translate(893.299774 0)"/>
     <use xlink:href="#NotoSans-Regular-69" transform="translate(954.799759 0)"/>
     <use xlink:href="#NotoSans-Regular-6f" transform="translate(980.599747 0)"/>
     <use xlink:href="#NotoSans-Regular-6d" transform="translate(1041.099731 0)"/>
     <use xlink:href="#NotoSans-Regular-73" transform="translate(1134.599716 0)"/>
     <use xlink:href="#NotoSans-Regular-61" transform="translate(1182.49971 0)"/>
     <use xlink:href="#NotoSans-Regular-73" transform="translate(1238.599701 0)"/>
     <use xlink:href="#NotoSans-Regular-73" transform="translate(1286.499695 0)"/>
    </g>
   </g>
   <g id="line2d_68">
    <path d="M 193.665507 222.272087 
L 198.540507 222.272087 
L 203.415507 222.272087 
" style="fill: none; stroke: #fa5252; stroke-width: 0.75; stroke-linecap: square"/>
    <g>
     <use xlink:href="#m525ccf6502" x="198.540507" y="222.272087" style="fill: #fff5f5; stroke: #fa5252; stroke-width: 0.75"/>
    </g>
   </g>
   <g id="text_63">
    <!-- Heat-related CO2 emissions -->
    <g transform="translate(205.365507 224.547087) scale(0.065 -0.065)">
     <defs>
      <path id="NotoSans-Regular-48" d="M 4115 0 
L 3539 0 
L 3539 2131 
L 1197 2131 
L 1197 0 
L 621 0 
L 621 4570 
L 1197 4570 
L 1197 2637 
L 3539 2637 
L 3539 4570 
L 4115 4570 
L 4115 0 
z
" transform="scale(0.015625)"/>
     </defs>
     <use xlink:href="#NotoSans-Regular-48"/>
     <use xlink:href="#NotoSans-Regular-65" transform="translate(74.099991 0)"/>
     <use xlink:href="#NotoSans-Regular-61" transform="translate(130.499985 0)"/>
     <use xlink:href="#NotoSans-Regular-74" transform="translate(186.599976 0)"/>
     <use xlink:href="#NotoSans-Regular-2d" transform="translate(222.699966 0)"/>
     <use xlink:href="#NotoSans-Regular-72" transform="translate(254.899963 0)"/>
     <use xlink:href="#NotoSans-Regular-65" transform="translate(296.199951 0)"/>
     <use xlink:href="#NotoSans-Regular-6c" transform="translate(352.599945 0)"/>
     <use xlink:href="#NotoSans-Regular-61" transform="translate(378.399933 0)"/>
     <use xlink:href="#NotoSans-Regular-74" transform="translate(434.499924 0)"/>
     <use xlink:href="#NotoSans-Regular-65" transform="translate(470.599915 0)"/>
     <use xlink:href="#NotoSans-Regular-64" transform="translate(526.999908 0)"/>
     <use xlink:href="#NotoSans-Regular-20" transform="translate(588.499893 0)"/>
     <use xlink:href="#NotoSans-Regular-43" transform="translate(614.499878 0)"/>
     <use xlink:href="#NotoSans-Regular-4f" transform="translate(677.699875 0)"/>
     <use xlink:href="#NotoSans-Regular-32" transform="translate(755.799866 0)"/>
     <use xlink:href="#NotoSans-Regular-20" transform="translate(812.999863 0)"/>
     <use xlink:href="#NotoSans-Regular-65" transform="translate(838.999847 0)"/>
     <use xlink:href="#NotoSans-Regular-6d" transform="translate(895.399841 0)"/>
     <use xlink:href="#NotoSans-Regular-69" transform="translate(988.899826 0)"/>
     <use xlink:href="#NotoSans-Regular-73" transform="translate(1014.699814 0)"/>
     <use xlink:href="#NotoSans-Regular-73" transform="translate(1062.599808 0)"/>
     <use xlink:href="#NotoSans-Regular-69" transform="translate(1110.499802 0)"/>
     <use xlink:href="#NotoSans-Regular-6f" transform="translate(1136.299789 0)"/>
     <use xlink:href="#NotoSans-Regular-6e" transform="translate(1196.799774 0)"/>
     <use xlink:href="#NotoSans-Regular-73" transform="translate(1258.599762 0)"/>
    </g>
   </g>
   <g id="patch_27">
    <path d="M 298.925898 212.847087 
L 308.675898 212.847087 
L 308.675898 208.297087 
L 298.925898 208.297087 
z
" style="fill: #37b24d"/>
   </g>
   <g id="text_64">
    <!-- Modern uses of renewables for heat -->
    <g transform="translate(310.625898 212.847087) scale(0.065 -0.065)">
     <defs>
      <path id="NotoSans-Regular-4d" d="M 2637 0 
L 1133 4006 
L 1107 4006 
Q 1120 3878 1129 3680 
Q 1139 3482 1145 3248 
Q 1152 3014 1152 2771 
L 1152 0 
L 621 0 
L 621 4570 
L 1472 4570 
L 2880 826 
L 2906 826 
L 4339 4570 
L 5184 4570 
L 5184 0 
L 4614 0 
L 4614 2810 
Q 4614 3034 4620 3254 
Q 4627 3475 4640 3670 
Q 4653 3866 4659 4000 
L 4634 4000 
L 3110 0 
L 2637 0 
z
" transform="scale(0.015625)"/>
     </defs>
     <use xlink:href="#NotoSans-Regular-4d"/>
     <use xlink:href="#NotoSans-Regular-6f" transform="translate(90.699982 0)"/>
     <use xlink:href="#NotoSans-Regular-64" transform="translate(151.199966 0)"/>
     <use xlink:href="#NotoSans-Regular-65" transform="translate(212.699951 0)"/>
     <use xlink:href="#NotoSans-Regular-72" transform="translate(269.099945 0)"/>
     <use xlink:href="#NotoSans-Regular-6e" transform="translate(310.399933 0)"/>
     <use xlink:href="#NotoSans-Regular-20" transform="translate(372.199921 0)"/>
     <use xlink:href="#NotoSans-Regular-75" transform="translate(398.199905 0)"/>
     <use xlink:href="#NotoSans-Regular-73" transform="translate(459.999893 0)"/>
     <use xlink:href="#NotoSans-Regular-65" transform="translate(507.899887 0)"/>
     <use xlink:href="#NotoSans-Regular-73" transform="translate(564.299881 0)"/>
     <use xlink:href="#NotoSans-Regular-20" transform="translate(612.199875 0)"/>
     <use xlink:href="#NotoSans-Regular-6f" transform="translate(638.19986 0)"/>
     <use xlink:href="#NotoSans-Regular-66" transform="translate(698.699844 0)"/>
     <use xlink:href="#NotoSans-Regular-20" transform="translate(733.099838 0)"/>
     <use xlink:href="#NotoSans-Regular-72" transform="translate(759.099823 0)"/>
     <use xlink:href="#NotoSans-Regular-65" transform="translate(800.399811 0)"/>
     <use xlink:href="#NotoSans-Regular-6e" transform="translate(856.799805 0)"/>
     <use xlink:href="#NotoSans-Regular-65" transform="translate(918.599792 0)"/>
     <use xlink:href="#NotoSans-Regular-77" transform="translate(974.999786 0)"/>
     <use xlink:href="#NotoSans-Regular-61" transform="translate(1053.599777 0)"/>
     <use xlink:href="#NotoSans-Regular-62" transform="translate(1109.699768 0)"/>
     <use xlink:href="#NotoSans-Regular-6c" transform="translate(1171.199753 0)"/>
     <use xlink:href="#NotoSans-Regular-65" transform="translate(1196.999741 0)"/>
     <use xlink:href="#NotoSans-Regular-73" transform="translate(1253.399734 0)"/>
     <use xlink:href="#NotoSans-Regular-20" transform="translate(1301.299728 0)"/>
     <use xlink:href="#NotoSans-Regular-66" transform="translate(1327.299713 0)"/>
     <use xlink:href="#NotoSans-Regular-6f" transform="translate(1361.699707 0)"/>
     <use xlink:href="#NotoSans-Regular-72" transform="translate(1422.199692 0)"/>
     <use xlink:href="#NotoSans-Regular-20" transform="translate(1463.49968 0)"/>
     <use xlink:href="#NotoSans-Regular-68" transform="translate(1489.499664 0)"/>
     <use xlink:href="#NotoSans-Regular-65" transform="translate(1551.299652 0)"/>
     <use xlink:href="#NotoSans-Regular-61" transform="translate(1607.699646 0)"/>
     <use xlink:href="#NotoSans-Regular-74" transform="translate(1663.799637 0)"/>
    </g>
   </g>
  </g>
 </g>
 <defs>
  <clipPath id="pb7021d50b8">
   <rect x="38.551181" y="13.606299" width="161.914961" height="145.133858"/>
  </clipPath>
  <clipPath id="p44f6b5439b">
   <rect x="281.423622" y="13.606299" width="161.914961" height="145.133858"/>
  </clipPath>
 </defs>
</svg>
