<?xml version="1.0" encoding="utf-8" standalone="no"?>
<!DOCTYPE svg PUBLIC "-//W3C//DTD SVG 1.1//EN"
  "http://www.w3.org/Graphics/SVG/1.1/DTD/svg11.dtd">
<svg xmlns:xlink="http://www.w3.org/1999/xlink" width="396.850394pt" height="198.425197pt" viewBox="0 0 396.850394 198.425197" xmlns="http://www.w3.org/2000/svg" version="1.1">
 <metadata>
  <rdf:RDF xmlns:dc="http://purl.org/dc/elements/1.1/" xmlns:cc="http://creativecommons.org/ns#" xmlns:rdf="http://www.w3.org/1999/02/22-rdf-syntax-ns#">
   <cc:Work>
    <dc:type rdf:resource="http://purl.org/dc/dcmitype/StillImage"/>
    <dc:date>2025-04-29T14:28:03.303129</dc:date>
    <dc:format>image/svg+xml</dc:format>
    <dc:creator>
     <cc:Agent>
      <dc:title>Matplotlib v3.10.0, https://matplotlib.org/</dc:title>
     </cc:Agent>
    </dc:creator>
   </cc:Work>
  </rdf:RDF>
 </metadata>
 <defs>
  <style type="text/css">*{stroke-linejoin: round; stroke-linecap: butt}</style>
 </defs>
 <g id="figure_1">
  <g id="patch_1">
   <path d="M 0 198.425197 
L 396.850394 198.425197 
L 396.850394 0 
L 0 0 
L 0 198.425197 
z
" style="fill: none"/>
  </g>
  <g id="axes_1">
   <g id="patch_2">
    <path d="M 43.653543 182.551181 
L 384.944882 182.551181 
L 384.944882 9.92126 
L 43.653543 9.92126 
L 43.653543 182.551181 
z
" style="fill: none"/>
   </g>
   <g id="patch_3">
    <path d="M 43.653543 182.551181 
L 43.653543 9.92126 
" style="fill: none; stroke: #000000; stroke-width: 0.3; stroke-linejoin: miter; stroke-linecap: square"/>
   </g>
   <g id="patch_4">
    <path d="M 384.944882 182.551181 
L 384.944882 9.92126 
" style="fill: none; stroke: #000000; stroke-width: 0.3; stroke-linejoin: miter; stroke-linecap: square"/>
   </g>
   <g id="patch_5">
    <path d="M 43.653543 182.551181 
L 384.944882 182.551181 
" style="fill: none; stroke: #000000; stroke-width: 0.3; stroke-linejoin: miter; stroke-linecap: square"/>
   </g>
   <g id="patch_6">
    <path d="M 43.653543 9.92126 
L 384.944882 9.92126 
" style="fill: none; stroke: #000000; stroke-width: 0.3; stroke-linejoin: miter; stroke-linecap: square"/>
   </g>
   <g id="matplotlib.axis_1">
    <g id="xtick_1">
     <g id="text_1">
      <!-- Jan -->
      <g transform="translate(57.909788 192.801181) scale(0.09 -0.09)">
       <defs>
        <path id="Roboto-Regular-4a" d="M 2434 4550 
L 3038 4550 
L 3038 1328 
Q 3038 675 2645 306 
Q 2253 -63 1600 -63 
Q 922 -63 544 284 
Q 166 631 166 1256 
L 766 1256 
Q 766 866 980 647 
Q 1194 428 1600 428 
Q 1972 428 2201 662 
Q 2431 897 2434 1319 
L 2434 4550 
z
" transform="scale(0.015625)"/>
        <path id="Roboto-Regular-61" d="M 2525 0 
Q 2475 100 2444 356 
Q 2041 -63 1481 -63 
Q 981 -63 661 220 
Q 341 503 341 938 
Q 341 1466 742 1758 
Q 1144 2050 1872 2050 
L 2434 2050 
L 2434 2316 
Q 2434 2619 2253 2798 
Q 2072 2978 1719 2978 
Q 1409 2978 1200 2822 
Q 991 2666 991 2444 
L 409 2444 
Q 409 2697 589 2933 
Q 769 3169 1076 3306 
Q 1384 3444 1753 3444 
Q 2338 3444 2669 3151 
Q 3000 2859 3013 2347 
L 3013 791 
Q 3013 325 3131 50 
L 3131 0 
L 2525 0 
z
M 1566 441 
Q 1838 441 2081 581 
Q 2325 722 2434 947 
L 2434 1641 
L 1981 1641 
Q 919 1641 919 1019 
Q 919 747 1100 594 
Q 1281 441 1566 441 
z
" transform="scale(0.015625)"/>
        <path id="Roboto-Regular-6e" d="M 984 3381 
L 1003 2956 
Q 1391 3444 2016 3444 
Q 3088 3444 3097 2234 
L 3097 0 
L 2519 0 
L 2519 2238 
Q 2516 2603 2352 2778 
Q 2188 2953 1841 2953 
Q 1559 2953 1346 2803 
Q 1134 2653 1016 2409 
L 1016 0 
L 438 0 
L 438 3381 
L 984 3381 
z
" transform="scale(0.015625)"/>
       </defs>
       <use xlink:href="#Roboto-Regular-4a"/>
       <use xlink:href="#Roboto-Regular-61" transform="translate(55.175781 0)"/>
       <use xlink:href="#Roboto-Regular-6e" transform="translate(109.570312 0)"/>
      </g>
     </g>
    </g>
    <g id="xtick_2">
     <g id="text_2">
      <!-- Feb -->
      <g transform="translate(85.012574 192.801181) scale(0.09 -0.09)">
       <defs>
        <path id="Roboto-Regular-46" d="M 3038 2009 
L 1128 2009 
L 1128 0 
L 528 0 
L 528 4550 
L 3347 4550 
L 3347 4056 
L 1128 4056 
L 1128 2500 
L 3038 2500 
L 3038 2009 
z
" transform="scale(0.015625)"/>
        <path id="Roboto-Regular-65" d="M 1841 -63 
Q 1153 -63 722 389 
Q 291 841 291 1597 
L 291 1703 
Q 291 2206 483 2601 
Q 675 2997 1020 3220 
Q 1366 3444 1769 3444 
Q 2428 3444 2793 3009 
Q 3159 2575 3159 1766 
L 3159 1525 
L 869 1525 
Q 881 1025 1161 717 
Q 1441 409 1872 409 
Q 2178 409 2390 534 
Q 2603 659 2763 866 
L 3116 591 
Q 2691 -63 1841 -63 
z
M 1769 2969 
Q 1419 2969 1181 2714 
Q 944 2459 888 2000 
L 2581 2000 
L 2581 2044 
Q 2556 2484 2343 2726 
Q 2131 2969 1769 2969 
z
" transform="scale(0.015625)"/>
        <path id="Roboto-Regular-62" d="M 3300 1653 
Q 3300 878 2944 407 
Q 2588 -63 1988 -63 
Q 1347 -63 997 391 
L 969 0 
L 438 0 
L 438 4800 
L 1016 4800 
L 1016 3009 
Q 1366 3444 1981 3444 
Q 2597 3444 2948 2978 
Q 3300 2513 3300 1703 
L 3300 1653 
z
M 2722 1719 
Q 2722 2309 2494 2631 
Q 2266 2953 1838 2953 
Q 1266 2953 1016 2422 
L 1016 959 
Q 1281 428 1844 428 
Q 2259 428 2490 750 
Q 2722 1072 2722 1719 
z
" transform="scale(0.015625)"/>
       </defs>
       <use xlink:href="#Roboto-Regular-46"/>
       <use xlink:href="#Roboto-Regular-65" transform="translate(55.273438 0)"/>
       <use xlink:href="#Roboto-Regular-62" transform="translate(108.251953 0)"/>
      </g>
     </g>
    </g>
    <g id="xtick_3">
     <g id="text_3">
      <!-- Mar -->
      <g transform="translate(111.596454 192.801181) scale(0.09 -0.09)">
       <defs>
        <path id="Roboto-Regular-4d" d="M 1303 4550 
L 2791 838 
L 4278 4550 
L 5056 4550 
L 5056 0 
L 4456 0 
L 4456 1772 
L 4513 3684 
L 3019 0 
L 2559 0 
L 1069 3675 
L 1128 1772 
L 1128 0 
L 528 0 
L 528 4550 
L 1303 4550 
z
" transform="scale(0.015625)"/>
        <path id="Roboto-Regular-72" d="M 2072 2863 
Q 1941 2884 1788 2884 
Q 1219 2884 1016 2400 
L 1016 0 
L 438 0 
L 438 3381 
L 1000 3381 
L 1009 2991 
Q 1294 3444 1816 3444 
Q 1984 3444 2072 3400 
L 2072 2863 
z
" transform="scale(0.015625)"/>
       </defs>
       <use xlink:href="#Roboto-Regular-4d"/>
       <use xlink:href="#Roboto-Regular-61" transform="translate(87.304688 0)"/>
       <use xlink:href="#Roboto-Regular-72" transform="translate(141.699219 0)"/>
      </g>
     </g>
    </g>
    <g id="xtick_4">
     <g id="text_4">
      <!-- Apr -->
      <g transform="translate(139.59924 192.801181) scale(0.09 -0.09)">
       <defs>
        <path id="Roboto-Regular-41" d="M 3041 1188 
L 1134 1188 
L 706 0 
L 88 0 
L 1825 4550 
L 2350 4550 
L 4091 0 
L 3475 0 
L 3041 1188 
z
M 1316 1681 
L 2863 1681 
L 2088 3809 
L 1316 1681 
z
" transform="scale(0.015625)"/>
        <path id="Roboto-Regular-70" d="M 3294 1653 
Q 3294 881 2941 409 
Q 2588 -63 1984 -63 
Q 1369 -63 1016 328 
L 1016 -1300 
L 438 -1300 
L 438 3381 
L 966 3381 
L 994 3006 
Q 1347 3444 1975 3444 
Q 2584 3444 2939 2984 
Q 3294 2525 3294 1706 
L 3294 1653 
z
M 2716 1719 
Q 2716 2291 2472 2622 
Q 2228 2953 1803 2953 
Q 1278 2953 1016 2488 
L 1016 872 
Q 1275 409 1809 409 
Q 2225 409 2470 739 
Q 2716 1069 2716 1719 
z
" transform="scale(0.015625)"/>
       </defs>
       <use xlink:href="#Roboto-Regular-41"/>
       <use xlink:href="#Roboto-Regular-70" transform="translate(65.234375 0)"/>
       <use xlink:href="#Roboto-Regular-72" transform="translate(121.337891 0)"/>
      </g>
     </g>
    </g>
    <g id="xtick_5">
     <g id="text_5">
      <!-- May -->
      <g transform="translate(165.163588 192.708369) scale(0.09 -0.09)">
       <defs>
        <path id="Roboto-Regular-79" d="M 1544 847 
L 2331 3381 
L 2950 3381 
L 1591 -522 
Q 1275 -1366 588 -1366 
L 478 -1356 
L 263 -1316 
L 263 -847 
L 419 -859 
Q 713 -859 877 -740 
Q 1041 -622 1147 -306 
L 1275 38 
L 69 3381 
L 700 3381 
L 1544 847 
z
" transform="scale(0.015625)"/>
       </defs>
       <use xlink:href="#Roboto-Regular-4d"/>
       <use xlink:href="#Roboto-Regular-61" transform="translate(87.304688 0)"/>
       <use xlink:href="#Roboto-Regular-79" transform="translate(141.699219 0)"/>
      </g>
     </g>
    </g>
    <g id="xtick_6">
     <g id="text_6">
      <!-- Jun -->
      <g transform="translate(193.309812 192.801181) scale(0.09 -0.09)">
       <defs>
        <path id="Roboto-Regular-75" d="M 2525 334 
Q 2188 -63 1534 -63 
Q 994 -63 711 251 
Q 428 566 425 1181 
L 425 3381 
L 1003 3381 
L 1003 1197 
Q 1003 428 1628 428 
Q 2291 428 2509 922 
L 2509 3381 
L 3088 3381 
L 3088 0 
L 2538 0 
L 2525 334 
z
" transform="scale(0.015625)"/>
       </defs>
       <use xlink:href="#Roboto-Regular-4a"/>
       <use xlink:href="#Roboto-Regular-75" transform="translate(55.175781 0)"/>
       <use xlink:href="#Roboto-Regular-6e" transform="translate(110.302734 0)"/>
      </g>
     </g>
    </g>
    <g id="xtick_7">
     <g id="text_7">
      <!-- Jul -->
      <g transform="translate(221.787207 192.801181) scale(0.09 -0.09)">
       <defs>
        <path id="Roboto-Regular-6c" d="M 1066 0 
L 488 0 
L 488 4800 
L 1066 4800 
L 1066 0 
z
" transform="scale(0.015625)"/>
       </defs>
       <use xlink:href="#Roboto-Regular-4a"/>
       <use xlink:href="#Roboto-Regular-75" transform="translate(55.175781 0)"/>
       <use xlink:href="#Roboto-Regular-6c" transform="translate(110.302734 0)"/>
      </g>
     </g>
    </g>
    <g id="xtick_8">
     <g id="text_8">
      <!-- Aug -->
      <g transform="translate(246.98804 192.757587) scale(0.09 -0.09)">
       <defs>
        <path id="Roboto-Regular-67" d="M 300 1719 
Q 300 2509 665 2976 
Q 1031 3444 1634 3444 
Q 2253 3444 2600 3006 
L 2628 3381 
L 3156 3381 
L 3156 81 
Q 3156 -575 2767 -953 
Q 2378 -1331 1722 -1331 
Q 1356 -1331 1006 -1175 
Q 656 -1019 472 -747 
L 772 -400 
Q 1144 -859 1681 -859 
Q 2103 -859 2339 -621 
Q 2575 -384 2575 47 
L 2575 338 
Q 2228 -63 1628 -63 
Q 1034 -63 667 415 
Q 300 894 300 1719 
z
M 881 1653 
Q 881 1081 1115 754 
Q 1350 428 1772 428 
Q 2319 428 2575 925 
L 2575 2469 
Q 2309 2953 1778 2953 
Q 1356 2953 1118 2625 
Q 881 2297 881 1653 
z
" transform="scale(0.015625)"/>
       </defs>
       <use xlink:href="#Roboto-Regular-41"/>
       <use xlink:href="#Roboto-Regular-75" transform="translate(65.234375 0)"/>
       <use xlink:href="#Roboto-Regular-67" transform="translate(120.361328 0)"/>
      </g>
     </g>
    </g>
    <g id="xtick_9">
     <g id="text_9">
      <!-- Sep -->
      <g transform="translate(274.436764 192.801181) scale(0.09 -0.09)">
       <defs>
        <path id="Roboto-Regular-53" d="M 1869 2028 
Q 1097 2250 745 2573 
Q 394 2897 394 3372 
Q 394 3909 823 4261 
Q 1253 4613 1941 4613 
Q 2409 4613 2776 4431 
Q 3144 4250 3345 3931 
Q 3547 3613 3547 3234 
L 2944 3234 
Q 2944 3647 2681 3883 
Q 2419 4119 1941 4119 
Q 1497 4119 1248 3923 
Q 1000 3728 1000 3381 
Q 1000 3103 1236 2911 
Q 1472 2719 2039 2559 
Q 2606 2400 2926 2208 
Q 3247 2016 3401 1759 
Q 3556 1503 3556 1156 
Q 3556 603 3125 270 
Q 2694 -63 1972 -63 
Q 1503 -63 1097 117 
Q 691 297 470 609 
Q 250 922 250 1319 
L 853 1319 
Q 853 906 1158 667 
Q 1463 428 1972 428 
Q 2447 428 2700 622 
Q 2953 816 2953 1150 
Q 2953 1484 2718 1667 
Q 2484 1850 1869 2028 
z
" transform="scale(0.015625)"/>
       </defs>
       <use xlink:href="#Roboto-Regular-53"/>
       <use xlink:href="#Roboto-Regular-65" transform="translate(59.326172 0)"/>
       <use xlink:href="#Roboto-Regular-70" transform="translate(112.304688 0)"/>
      </g>
     </g>
    </g>
    <g id="xtick_10">
     <g id="text_10">
      <!-- Oct -->
      <g transform="translate(302.182909 192.801181) scale(0.09 -0.09)">
       <defs>
        <path id="Roboto-Regular-4f" d="M 4028 2128 
Q 4028 1459 3803 961 
Q 3578 463 3165 200 
Q 2753 -63 2203 -63 
Q 1666 -63 1250 201 
Q 834 466 604 955 
Q 375 1444 369 2088 
L 369 2416 
Q 369 3072 597 3575 
Q 825 4078 1242 4345 
Q 1659 4613 2197 4613 
Q 2744 4613 3161 4348 
Q 3578 4084 3803 3582 
Q 4028 3081 4028 2416 
L 4028 2128 
z
M 3431 2422 
Q 3431 3231 3106 3664 
Q 2781 4097 2197 4097 
Q 1628 4097 1301 3664 
Q 975 3231 966 2463 
L 966 2128 
Q 966 1344 1295 895 
Q 1625 447 2203 447 
Q 2784 447 3103 870 
Q 3422 1294 3431 2084 
L 3431 2422 
z
" transform="scale(0.015625)"/>
        <path id="Roboto-Regular-63" d="M 1794 409 
Q 2103 409 2334 596 
Q 2566 784 2591 1066 
L 3138 1066 
Q 3122 775 2937 512 
Q 2753 250 2445 93 
Q 2138 -63 1794 -63 
Q 1103 -63 695 398 
Q 288 859 288 1659 
L 288 1756 
Q 288 2250 469 2634 
Q 650 3019 989 3231 
Q 1328 3444 1791 3444 
Q 2359 3444 2736 3103 
Q 3113 2763 3138 2219 
L 2591 2219 
Q 2566 2547 2342 2758 
Q 2119 2969 1791 2969 
Q 1350 2969 1108 2651 
Q 866 2334 866 1734 
L 866 1625 
Q 866 1041 1106 725 
Q 1347 409 1794 409 
z
" transform="scale(0.015625)"/>
        <path id="Roboto-Regular-74" d="M 1222 4200 
L 1222 3381 
L 1853 3381 
L 1853 2934 
L 1222 2934 
L 1222 838 
Q 1222 634 1306 532 
Q 1391 431 1594 431 
Q 1694 431 1869 469 
L 1869 0 
Q 1641 -63 1425 -63 
Q 1038 -63 841 171 
Q 644 406 644 838 
L 644 2934 
L 28 2934 
L 28 3381 
L 644 3381 
L 644 4200 
L 1222 4200 
z
" transform="scale(0.015625)"/>
       </defs>
       <use xlink:href="#Roboto-Regular-4f"/>
       <use xlink:href="#Roboto-Regular-63" transform="translate(68.75 0)"/>
       <use xlink:href="#Roboto-Regular-74" transform="translate(121.09375 0)"/>
      </g>
     </g>
    </g>
    <g id="xtick_11">
     <g id="text_11">
      <!-- Nov -->
      <g transform="translate(328.234523 192.801181) scale(0.09 -0.09)">
       <defs>
        <path id="Roboto-Regular-4e" d="M 4025 0 
L 3422 0 
L 1131 3506 
L 1131 0 
L 528 0 
L 528 4550 
L 1131 4550 
L 3428 1028 
L 3428 4550 
L 4025 4550 
L 4025 0 
z
" transform="scale(0.015625)"/>
        <path id="Roboto-Regular-6f" d="M 284 1722 
Q 284 2219 479 2616 
Q 675 3013 1023 3228 
Q 1372 3444 1819 3444 
Q 2509 3444 2936 2966 
Q 3363 2488 3363 1694 
L 3363 1653 
Q 3363 1159 3173 767 
Q 2984 375 2632 156 
Q 2281 -63 1825 -63 
Q 1138 -63 711 415 
Q 284 894 284 1681 
L 284 1722 
z
M 866 1653 
Q 866 1091 1127 750 
Q 1388 409 1825 409 
Q 2266 409 2525 754 
Q 2784 1100 2784 1722 
Q 2784 2278 2520 2623 
Q 2256 2969 1819 2969 
Q 1391 2969 1128 2628 
Q 866 2288 866 1653 
z
" transform="scale(0.015625)"/>
        <path id="Roboto-Regular-76" d="M 1553 784 
L 2391 3381 
L 2981 3381 
L 1769 0 
L 1328 0 
L 103 3381 
L 694 3381 
L 1553 784 
z
" transform="scale(0.015625)"/>
       </defs>
       <use xlink:href="#Roboto-Regular-4e"/>
       <use xlink:href="#Roboto-Regular-6f" transform="translate(71.289062 0)"/>
       <use xlink:href="#Roboto-Regular-76" transform="translate(128.320312 0)"/>
      </g>
     </g>
    </g>
    <g id="xtick_12">
     <g id="text_12">
      <!-- Dec -->
      <g transform="translate(355.584809 192.801181) scale(0.09 -0.09)">
       <defs>
        <path id="Roboto-Regular-44" d="M 528 0 
L 528 4550 
L 1813 4550 
Q 2406 4550 2862 4287 
Q 3319 4025 3567 3540 
Q 3816 3056 3819 2428 
L 3819 2138 
Q 3819 1494 3570 1009 
Q 3322 525 2861 265 
Q 2400 6 1788 0 
L 528 0 
z
M 1128 4056 
L 1128 491 
L 1759 491 
Q 2453 491 2839 922 
Q 3225 1353 3225 2150 
L 3225 2416 
Q 3225 3191 2861 3620 
Q 2497 4050 1828 4056 
L 1128 4056 
z
" transform="scale(0.015625)"/>
       </defs>
       <use xlink:href="#Roboto-Regular-44"/>
       <use xlink:href="#Roboto-Regular-65" transform="translate(65.576172 0)"/>
       <use xlink:href="#Roboto-Regular-63" transform="translate(118.554688 0)"/>
      </g>
     </g>
    </g>
    <g id="xtick_13"/>
    <g id="xtick_14"/>
    <g id="xtick_15"/>
    <g id="xtick_16"/>
    <g id="xtick_17"/>
    <g id="xtick_18"/>
    <g id="xtick_19"/>
    <g id="xtick_20"/>
    <g id="xtick_21"/>
    <g id="xtick_22"/>
    <g id="xtick_23"/>
    <g id="xtick_24"/>
    <g id="xtick_25"/>
    <g id="xtick_26"/>
    <g id="xtick_27"/>
    <g id="xtick_28"/>
    <g id="xtick_29"/>
    <g id="xtick_30"/>
    <g id="xtick_31"/>
    <g id="xtick_32"/>
    <g id="xtick_33"/>
    <g id="xtick_34"/>
    <g id="xtick_35"/>
    <g id="xtick_36"/>
    <g id="xtick_37"/>
    <g id="xtick_38"/>
    <g id="xtick_39"/>
    <g id="xtick_40"/>
    <g id="xtick_41"/>
    <g id="xtick_42"/>
    <g id="xtick_43"/>
    <g id="xtick_44"/>
    <g id="xtick_45"/>
    <g id="xtick_46"/>
    <g id="xtick_47"/>
    <g id="xtick_48"/>
    <g id="xtick_49"/>
    <g id="xtick_50"/>
    <g id="xtick_51"/>
    <g id="xtick_52"/>
    <g id="xtick_53"/>
    <g id="xtick_54"/>
    <g id="xtick_55"/>
    <g id="xtick_56"/>
    <g id="xtick_57"/>
    <g id="xtick_58"/>
    <g id="xtick_59"/>
    <g id="xtick_60"/>
    <g id="xtick_61"/>
    <g id="xtick_62"/>
    <g id="xtick_63"/>
    <g id="xtick_64"/>
   </g>
   <g id="matplotlib.axis_2">
    <g id="ytick_1">
     <g id="line2d_1">
      <path d="M 43.653543 182.551181 
L 384.944882 182.551181 
" clip-path="url(#p882effe240)" style="fill: none; stroke-dasharray: 0.6,0.3; stroke-dashoffset: 0; stroke: #868e96; stroke-opacity: 0.6; stroke-width: 0.2"/>
     </g>
     <g id="line2d_2">
      <defs>
       <path id="mca249f706c" d="M 0 0 
L 1.75 0 
" style="stroke: #000000; stroke-width: 0.25"/>
      </defs>
      <g>
       <use xlink:href="#mca249f706c" x="43.653543" y="182.551181" style="stroke: #000000; stroke-width: 0.25"/>
      </g>
     </g>
     <g id="text_13">
      <!-- 0 -->
      <g transform="translate(35.099481 185.926181) scale(0.09 -0.09)">
       <defs>
        <path id="Roboto-Regular-30" d="M 3231 1941 
Q 3231 925 2884 431 
Q 2538 -63 1800 -63 
Q 1072 -63 722 420 
Q 372 903 359 1863 
L 359 2634 
Q 359 3638 706 4125 
Q 1053 4613 1794 4613 
Q 2528 4613 2875 4142 
Q 3222 3672 3231 2691 
L 3231 1941 
z
M 2653 2731 
Q 2653 3466 2447 3802 
Q 2241 4138 1794 4138 
Q 1350 4138 1147 3803 
Q 944 3469 938 2775 
L 938 1850 
Q 938 1113 1152 761 
Q 1366 409 1800 409 
Q 2228 409 2436 740 
Q 2644 1072 2653 1784 
L 2653 2731 
z
" transform="scale(0.015625)"/>
       </defs>
       <use xlink:href="#Roboto-Regular-30"/>
      </g>
     </g>
    </g>
    <g id="ytick_2">
     <g id="line2d_3">
      <path d="M 43.653543 148.025197 
L 384.944882 148.025197 
" clip-path="url(#p882effe240)" style="fill: none; stroke-dasharray: 0.6,0.3; stroke-dashoffset: 0; stroke: #868e96; stroke-opacity: 0.6; stroke-width: 0.2"/>
     </g>
     <g id="line2d_4">
      <g>
       <use xlink:href="#mca249f706c" x="43.653543" y="148.025197" style="stroke: #000000; stroke-width: 0.25"/>
      </g>
     </g>
     <g id="text_14">
      <!-- 1000 -->
      <g transform="translate(19.937293 151.400197) scale(0.09 -0.09)">
       <defs>
        <path id="Roboto-Regular-31" d="M 2278 0 
L 1697 0 
L 1697 3853 
L 531 3425 
L 531 3950 
L 2188 4572 
L 2278 4572 
L 2278 0 
z
" transform="scale(0.015625)"/>
       </defs>
       <use xlink:href="#Roboto-Regular-31"/>
       <use xlink:href="#Roboto-Regular-30" transform="translate(56.152344 0)"/>
       <use xlink:href="#Roboto-Regular-30" transform="translate(112.304688 0)"/>
       <use xlink:href="#Roboto-Regular-30" transform="translate(168.457031 0)"/>
      </g>
     </g>
    </g>
    <g id="ytick_3">
     <g id="line2d_5">
      <path d="M 43.653543 113.499213 
L 384.944882 113.499213 
" clip-path="url(#p882effe240)" style="fill: none; stroke-dasharray: 0.6,0.3; stroke-dashoffset: 0; stroke: #868e96; stroke-opacity: 0.6; stroke-width: 0.2"/>
     </g>
     <g id="line2d_6">
      <g>
       <use xlink:href="#mca249f706c" x="43.653543" y="113.499213" style="stroke: #000000; stroke-width: 0.25"/>
      </g>
     </g>
     <g id="text_15">
      <!-- 2000 -->
      <g transform="translate(19.937293 116.874213) scale(0.09 -0.09)">
       <defs>
        <path id="Roboto-Regular-32" d="M 3359 0 
L 378 0 
L 378 416 
L 1953 2166 
Q 2303 2563 2436 2811 
Q 2569 3059 2569 3325 
Q 2569 3681 2353 3909 
Q 2138 4138 1778 4138 
Q 1347 4138 1108 3892 
Q 869 3647 869 3209 
L 291 3209 
Q 291 3838 695 4225 
Q 1100 4613 1778 4613 
Q 2413 4613 2781 4280 
Q 3150 3947 3150 3394 
Q 3150 2722 2294 1794 
L 1075 472 
L 3359 472 
L 3359 0 
z
" transform="scale(0.015625)"/>
       </defs>
       <use xlink:href="#Roboto-Regular-32"/>
       <use xlink:href="#Roboto-Regular-30" transform="translate(56.152344 0)"/>
       <use xlink:href="#Roboto-Regular-30" transform="translate(112.304688 0)"/>
       <use xlink:href="#Roboto-Regular-30" transform="translate(168.457031 0)"/>
      </g>
     </g>
    </g>
    <g id="ytick_4">
     <g id="line2d_7">
      <path d="M 43.653543 78.973228 
L 384.944882 78.973228 
" clip-path="url(#p882effe240)" style="fill: none; stroke-dasharray: 0.6,0.3; stroke-dashoffset: 0; stroke: #868e96; stroke-opacity: 0.6; stroke-width: 0.2"/>
     </g>
     <g id="line2d_8">
      <g>
       <use xlink:href="#mca249f706c" x="43.653543" y="78.973228" style="stroke: #000000; stroke-width: 0.25"/>
      </g>
     </g>
     <g id="text_16">
      <!-- 3000 -->
      <g transform="translate(19.937293 82.348228) scale(0.09 -0.09)">
       <defs>
        <path id="Roboto-Regular-33" d="M 1219 2556 
L 1653 2556 
Q 2063 2563 2297 2772 
Q 2531 2981 2531 3338 
Q 2531 4138 1734 4138 
Q 1359 4138 1136 3923 
Q 913 3709 913 3356 
L 334 3356 
Q 334 3897 729 4255 
Q 1125 4613 1734 4613 
Q 2378 4613 2743 4272 
Q 3109 3931 3109 3325 
Q 3109 3028 2917 2750 
Q 2725 2472 2394 2334 
Q 2769 2216 2973 1941 
Q 3178 1666 3178 1269 
Q 3178 656 2778 296 
Q 2378 -63 1737 -63 
Q 1097 -63 695 284 
Q 294 631 294 1200 
L 875 1200 
Q 875 841 1109 625 
Q 1344 409 1738 409 
Q 2156 409 2378 628 
Q 2600 847 2600 1256 
Q 2600 1653 2356 1865 
Q 2113 2078 1653 2084 
L 1219 2084 
L 1219 2556 
z
" transform="scale(0.015625)"/>
       </defs>
       <use xlink:href="#Roboto-Regular-33"/>
       <use xlink:href="#Roboto-Regular-30" transform="translate(56.152344 0)"/>
       <use xlink:href="#Roboto-Regular-30" transform="translate(112.304688 0)"/>
       <use xlink:href="#Roboto-Regular-30" transform="translate(168.457031 0)"/>
      </g>
     </g>
    </g>
    <g id="ytick_5">
     <g id="line2d_9">
      <path d="M 43.653543 44.447244 
L 384.944882 44.447244 
" clip-path="url(#p882effe240)" style="fill: none; stroke-dasharray: 0.6,0.3; stroke-dashoffset: 0; stroke: #868e96; stroke-opacity: 0.6; stroke-width: 0.2"/>
     </g>
     <g id="line2d_10">
      <g>
       <use xlink:href="#mca249f706c" x="43.653543" y="44.447244" style="stroke: #000000; stroke-width: 0.25"/>
      </g>
     </g>
     <g id="text_17">
      <!-- 4000 -->
      <g transform="translate(19.937293 47.822244) scale(0.09 -0.09)">
       <defs>
        <path id="Roboto-Regular-34" d="M 2819 1528 
L 3450 1528 
L 3450 1056 
L 2819 1056 
L 2819 0 
L 2238 0 
L 2238 1056 
L 166 1056 
L 166 1397 
L 2203 4550 
L 2819 4550 
L 2819 1528 
z
M 822 1528 
L 2238 1528 
L 2238 3759 
L 2169 3634 
L 822 1528 
z
" transform="scale(0.015625)"/>
       </defs>
       <use xlink:href="#Roboto-Regular-34"/>
       <use xlink:href="#Roboto-Regular-30" transform="translate(56.152344 0)"/>
       <use xlink:href="#Roboto-Regular-30" transform="translate(112.304688 0)"/>
       <use xlink:href="#Roboto-Regular-30" transform="translate(168.457031 0)"/>
      </g>
     </g>
    </g>
    <g id="ytick_6">
     <g id="line2d_11">
      <path d="M 43.653543 9.92126 
L 384.944882 9.92126 
" clip-path="url(#p882effe240)" style="fill: none; stroke-dasharray: 0.6,0.3; stroke-dashoffset: 0; stroke: #868e96; stroke-opacity: 0.6; stroke-width: 0.2"/>
     </g>
     <g id="line2d_12">
      <g>
       <use xlink:href="#mca249f706c" x="43.653543" y="9.92126" style="stroke: #000000; stroke-width: 0.25"/>
      </g>
     </g>
     <g id="text_18">
      <!-- 5000 -->
      <g transform="translate(19.937293 13.29626) scale(0.09 -0.09)">
       <defs>
        <path id="Roboto-Regular-35" d="M 644 2281 
L 875 4550 
L 3206 4550 
L 3206 4016 
L 1366 4016 
L 1228 2775 
Q 1563 2972 1988 2972 
Q 2609 2972 2975 2561 
Q 3341 2150 3341 1450 
Q 3341 747 2961 342 
Q 2581 -63 1900 -63 
Q 1297 -63 915 271 
Q 534 606 481 1197 
L 1028 1197 
Q 1081 806 1306 607 
Q 1531 409 1900 409 
Q 2303 409 2533 684 
Q 2763 959 2763 1444 
Q 2763 1900 2514 2176 
Q 2266 2453 1853 2453 
Q 1475 2453 1259 2288 
L 1106 2163 
L 644 2281 
z
" transform="scale(0.015625)"/>
       </defs>
       <use xlink:href="#Roboto-Regular-35"/>
       <use xlink:href="#Roboto-Regular-30" transform="translate(56.152344 0)"/>
       <use xlink:href="#Roboto-Regular-30" transform="translate(112.304688 0)"/>
       <use xlink:href="#Roboto-Regular-30" transform="translate(168.457031 0)"/>
      </g>
     </g>
    </g>
    <g id="ytick_7">
     <g id="line2d_13">
      <defs>
       <path id="m80490c7f72" d="M 0 0 
L 1 0 
" style="stroke: #000000; stroke-width: 0.2"/>
      </defs>
      <g>
       <use xlink:href="#m80490c7f72" x="43.653543" y="175.645984" style="stroke: #000000; stroke-width: 0.2"/>
      </g>
     </g>
    </g>
    <g id="ytick_8">
     <g id="line2d_14">
      <g>
       <use xlink:href="#m80490c7f72" x="43.653543" y="168.740787" style="stroke: #000000; stroke-width: 0.2"/>
      </g>
     </g>
    </g>
    <g id="ytick_9">
     <g id="line2d_15">
      <g>
       <use xlink:href="#m80490c7f72" x="43.653543" y="161.835591" style="stroke: #000000; stroke-width: 0.2"/>
      </g>
     </g>
    </g>
    <g id="ytick_10">
     <g id="line2d_16">
      <g>
       <use xlink:href="#m80490c7f72" x="43.653543" y="154.930394" style="stroke: #000000; stroke-width: 0.2"/>
      </g>
     </g>
    </g>
    <g id="ytick_11">
     <g id="line2d_17">
      <g>
       <use xlink:href="#m80490c7f72" x="43.653543" y="141.12" style="stroke: #000000; stroke-width: 0.2"/>
      </g>
     </g>
    </g>
    <g id="ytick_12">
     <g id="line2d_18">
      <g>
       <use xlink:href="#m80490c7f72" x="43.653543" y="134.214803" style="stroke: #000000; stroke-width: 0.2"/>
      </g>
     </g>
    </g>
    <g id="ytick_13">
     <g id="line2d_19">
      <g>
       <use xlink:href="#m80490c7f72" x="43.653543" y="127.309606" style="stroke: #000000; stroke-width: 0.2"/>
      </g>
     </g>
    </g>
    <g id="ytick_14">
     <g id="line2d_20">
      <g>
       <use xlink:href="#m80490c7f72" x="43.653543" y="120.404409" style="stroke: #000000; stroke-width: 0.2"/>
      </g>
     </g>
    </g>
    <g id="ytick_15">
     <g id="line2d_21">
      <g>
       <use xlink:href="#m80490c7f72" x="43.653543" y="106.594016" style="stroke: #000000; stroke-width: 0.2"/>
      </g>
     </g>
    </g>
    <g id="ytick_16">
     <g id="line2d_22">
      <g>
       <use xlink:href="#m80490c7f72" x="43.653543" y="99.688819" style="stroke: #000000; stroke-width: 0.2"/>
      </g>
     </g>
    </g>
    <g id="ytick_17">
     <g id="line2d_23">
      <g>
       <use xlink:href="#m80490c7f72" x="43.653543" y="92.783622" style="stroke: #000000; stroke-width: 0.2"/>
      </g>
     </g>
    </g>
    <g id="ytick_18">
     <g id="line2d_24">
      <g>
       <use xlink:href="#m80490c7f72" x="43.653543" y="85.878425" style="stroke: #000000; stroke-width: 0.2"/>
      </g>
     </g>
    </g>
    <g id="ytick_19">
     <g id="line2d_25">
      <g>
       <use xlink:href="#m80490c7f72" x="43.653543" y="72.068031" style="stroke: #000000; stroke-width: 0.2"/>
      </g>
     </g>
    </g>
    <g id="ytick_20">
     <g id="line2d_26">
      <g>
       <use xlink:href="#m80490c7f72" x="43.653543" y="65.162835" style="stroke: #000000; stroke-width: 0.2"/>
      </g>
     </g>
    </g>
    <g id="ytick_21">
     <g id="line2d_27">
      <g>
       <use xlink:href="#m80490c7f72" x="43.653543" y="58.257638" style="stroke: #000000; stroke-width: 0.2"/>
      </g>
     </g>
    </g>
    <g id="ytick_22">
     <g id="line2d_28">
      <g>
       <use xlink:href="#m80490c7f72" x="43.653543" y="51.352441" style="stroke: #000000; stroke-width: 0.2"/>
      </g>
     </g>
    </g>
    <g id="ytick_23">
     <g id="line2d_29">
      <g>
       <use xlink:href="#m80490c7f72" x="43.653543" y="37.542047" style="stroke: #000000; stroke-width: 0.2"/>
      </g>
     </g>
    </g>
    <g id="ytick_24">
     <g id="line2d_30">
      <g>
       <use xlink:href="#m80490c7f72" x="43.653543" y="30.63685" style="stroke: #000000; stroke-width: 0.2"/>
      </g>
     </g>
    </g>
    <g id="ytick_25">
     <g id="line2d_31">
      <g>
       <use xlink:href="#m80490c7f72" x="43.653543" y="23.731654" style="stroke: #000000; stroke-width: 0.2"/>
      </g>
     </g>
    </g>
    <g id="ytick_26">
     <g id="line2d_32">
      <g>
       <use xlink:href="#m80490c7f72" x="43.653543" y="16.826457" style="stroke: #000000; stroke-width: 0.2"/>
      </g>
     </g>
    </g>
    <g id="text_19">
     <!-- Exergy [MWh] -->
     <g transform="translate(10.909637 124.999697) rotate(-90) scale(0.095 -0.095)">
      <defs>
       <path id="Roboto-Regular-45" d="M 3100 2103 
L 1128 2103 
L 1128 491 
L 3419 491 
L 3419 0 
L 528 0 
L 528 4550 
L 3388 4550 
L 3388 4056 
L 1128 4056 
L 1128 2594 
L 3100 2594 
L 3100 2103 
z
" transform="scale(0.015625)"/>
       <path id="Roboto-Regular-78" d="M 1572 2147 
L 2322 3381 
L 2997 3381 
L 1891 1709 
L 3031 0 
L 2363 0 
L 1581 1266 
L 800 0 
L 128 0 
L 1269 1709 
L 163 3381 
L 831 3381 
L 1572 2147 
z
" transform="scale(0.015625)"/>
       <path id="Roboto-Regular-20" transform="scale(0.015625)"/>
       <path id="Roboto-Regular-5b" d="M 1634 4725 
L 1038 4725 
L 1038 -500 
L 1634 -500 
L 1634 -975 
L 456 -975 
L 456 5200 
L 1634 5200 
L 1634 4725 
z
" transform="scale(0.015625)"/>
       <path id="Roboto-Regular-57" d="M 1509 1434 
L 1597 834 
L 1725 1375 
L 2625 4550 
L 3131 4550 
L 4009 1375 
L 4134 825 
L 4231 1438 
L 4938 4550 
L 5541 4550 
L 4438 0 
L 3891 0 
L 2953 3316 
L 2881 3663 
L 2809 3316 
L 1838 0 
L 1291 0 
L 191 4550 
L 791 4550 
L 1509 1434 
z
" transform="scale(0.015625)"/>
       <path id="Roboto-Regular-68" d="M 1016 2972 
Q 1400 3444 2016 3444 
Q 3088 3444 3097 2234 
L 3097 0 
L 2519 0 
L 2519 2238 
Q 2516 2603 2352 2778 
Q 2188 2953 1841 2953 
Q 1559 2953 1346 2803 
Q 1134 2653 1016 2409 
L 1016 0 
L 438 0 
L 438 4800 
L 1016 4800 
L 1016 2972 
z
" transform="scale(0.015625)"/>
       <path id="Roboto-Regular-5d" d="M 28 5200 
L 1209 5200 
L 1209 -975 
L 28 -975 
L 28 -500 
L 631 -500 
L 631 4725 
L 28 4725 
L 28 5200 
z
" transform="scale(0.015625)"/>
      </defs>
      <use xlink:href="#Roboto-Regular-45"/>
      <use xlink:href="#Roboto-Regular-78" transform="translate(56.835938 0)"/>
      <use xlink:href="#Roboto-Regular-65" transform="translate(106.396484 0)"/>
      <use xlink:href="#Roboto-Regular-72" transform="translate(159.375 0)"/>
      <use xlink:href="#Roboto-Regular-67" transform="translate(193.212891 0)"/>
      <use xlink:href="#Roboto-Regular-79" transform="translate(249.316406 0)"/>
      <use xlink:href="#Roboto-Regular-20" transform="translate(296.630859 0)"/>
      <use xlink:href="#Roboto-Regular-5b" transform="translate(321.386719 0)"/>
      <use xlink:href="#Roboto-Regular-4d" transform="translate(347.900391 0)"/>
      <use xlink:href="#Roboto-Regular-57" transform="translate(435.205078 0)"/>
      <use xlink:href="#Roboto-Regular-68" transform="translate(523.925781 0)"/>
      <use xlink:href="#Roboto-Regular-5d" transform="translate(579.003906 0)"/>
     </g>
    </g>
   </g>
   <g id="patch_7">
    <path d="M 57.60315 148.527874 
L 73.04252 148.527874 
L 73.04252 67.168763 
L 57.60315 67.168763 
z
" clip-path="url(#p882effe240)" style="fill: #e9ecef"/>
   </g>
   <g id="patch_8">
    <path d="M 84.689764 160.376041 
L 100.129134 160.376041 
L 100.129134 99.789779 
L 84.689764 99.789779 
z
" clip-path="url(#p882effe240)" style="fill: #e9ecef"/>
   </g>
   <g id="patch_9">
    <path d="M 111.776378 172.412759 
L 127.215748 172.412759 
L 127.215748 115.924914 
L 111.776378 115.924914 
z
" clip-path="url(#p882effe240)" style="fill: #e9ecef"/>
   </g>
   <g id="patch_10">
    <path d="M 138.862992 179.117884 
L 154.302362 179.117884 
L 154.302362 124.872576 
L 138.862992 124.872576 
z
" clip-path="url(#p882effe240)" style="fill: #e9ecef"/>
   </g>
   <g id="patch_11">
    <path d="M 165.949606 178.46391 
L 181.388976 178.46391 
L 181.388976 101.944787 
L 165.949606 101.944787 
z
" clip-path="url(#p882effe240)" style="fill: #e9ecef"/>
   </g>
   <g id="patch_12">
    <path d="M 193.03622 174.304045 
L 208.475591 174.304045 
L 208.475591 73.646086 
L 193.03622 73.646086 
z
" clip-path="url(#p882effe240)" style="fill: #e9ecef"/>
   </g>
   <g id="patch_13">
    <path d="M 220.122835 166.448318 
L 235.562205 166.448318 
L 235.562205 48.085935 
L 220.122835 48.085935 
z
" clip-path="url(#p882effe240)" style="fill: #e9ecef"/>
   </g>
   <g id="patch_14">
    <path d="M 247.209449 162.884135 
L 262.648819 162.884135 
L 262.648819 24.671207 
L 247.209449 24.671207 
z
" clip-path="url(#p882effe240)" style="fill: #e9ecef"/>
   </g>
   <g id="patch_15">
    <path d="M 274.296063 174.829377 
L 289.735433 174.829377 
L 289.735433 83.476673 
L 274.296063 83.476673 
z
" clip-path="url(#p882effe240)" style="fill: #e9ecef"/>
   </g>
   <g id="patch_16">
    <path d="M 301.382677 179.698766 
L 316.822047 179.698766 
L 316.822047 114.57597 
L 301.382677 114.57597 
z
" clip-path="url(#p882effe240)" style="fill: #e9ecef"/>
   </g>
   <g id="patch_17">
    <path d="M 328.469291 173.629561 
L 343.908661 173.629561 
L 343.908661 117.737049 
L 328.469291 117.737049 
z
" clip-path="url(#p882effe240)" style="fill: #e9ecef"/>
   </g>
   <g id="patch_18">
    <path d="M 355.555906 160.258494 
L 370.995276 160.258494 
L 370.995276 93.384814 
L 355.555906 93.384814 
z
" clip-path="url(#p882effe240)" style="fill: #e9ecef"/>
   </g>
   <g id="patch_19">
    <path d="M 57.60315 182.551181 
L 73.04252 182.551181 
L 73.04252 148.527874 
L 57.60315 148.527874 
z
" clip-path="url(#p882effe240)" style="fill: #69db7c; opacity: 0.75"/>
   </g>
   <g id="patch_20">
    <path d="M 84.689764 182.551181 
L 100.129134 182.551181 
L 100.129134 160.376041 
L 84.689764 160.376041 
z
" clip-path="url(#p882effe240)" style="fill: #69db7c; opacity: 0.75"/>
   </g>
   <g id="patch_21">
    <path d="M 111.776378 182.551181 
L 127.215748 182.551181 
L 127.215748 172.412759 
L 111.776378 172.412759 
z
" clip-path="url(#p882effe240)" style="fill: #69db7c; opacity: 0.75"/>
   </g>
   <g id="patch_22">
    <path d="M 138.862992 182.551181 
L 154.302362 182.551181 
L 154.302362 179.117884 
L 138.862992 179.117884 
z
" clip-path="url(#p882effe240)" style="fill: #69db7c; opacity: 0.75"/>
   </g>
   <g id="patch_23">
    <path d="M 165.949606 182.551181 
L 181.388976 182.551181 
L 181.388976 178.46391 
L 165.949606 178.46391 
z
" clip-path="url(#p882effe240)" style="fill: #69db7c; opacity: 0.75"/>
   </g>
   <g id="patch_24">
    <path d="M 193.03622 182.551181 
L 208.475591 182.551181 
L 208.475591 174.304045 
L 193.03622 174.304045 
z
" clip-path="url(#p882effe240)" style="fill: #69db7c; opacity: 0.75"/>
   </g>
   <g id="patch_25">
    <path d="M 220.122835 182.551181 
L 235.562205 182.551181 
L 235.562205 166.448318 
L 220.122835 166.448318 
z
" clip-path="url(#p882effe240)" style="fill: #69db7c; opacity: 0.75"/>
   </g>
   <g id="patch_26">
    <path d="M 247.209449 182.551181 
L 262.648819 182.551181 
L 262.648819 162.884135 
L 247.209449 162.884135 
z
" clip-path="url(#p882effe240)" style="fill: #69db7c; opacity: 0.75"/>
   </g>
   <g id="patch_27">
    <path d="M 274.296063 182.551181 
L 289.735433 182.551181 
L 289.735433 174.829377 
L 274.296063 174.829377 
z
" clip-path="url(#p882effe240)" style="fill: #69db7c; opacity: 0.75"/>
   </g>
   <g id="patch_28">
    <path d="M 301.382677 182.551181 
L 316.822047 182.551181 
L 316.822047 179.698766 
L 301.382677 179.698766 
z
" clip-path="url(#p882effe240)" style="fill: #69db7c; opacity: 0.75"/>
   </g>
   <g id="patch_29">
    <path d="M 328.469291 182.551181 
L 343.908661 182.551181 
L 343.908661 173.629561 
L 328.469291 173.629561 
z
" clip-path="url(#p882effe240)" style="fill: #69db7c; opacity: 0.75"/>
   </g>
   <g id="patch_30">
    <path d="M 355.555906 182.551181 
L 370.995276 182.551181 
L 370.995276 160.258494 
L 355.555906 160.258494 
z
" clip-path="url(#p882effe240)" style="fill: #69db7c; opacity: 0.75"/>
   </g>
   <g id="patch_31">
    <path d="M 57.60315 182.551181 
L 73.04252 182.551181 
L 73.04252 67.168763 
L 57.60315 67.168763 
L 57.60315 182.551181 
z
" clip-path="url(#p882effe240)" style="fill: none; opacity: 0.7; stroke: #343a40; stroke-width: 0.5; stroke-linejoin: miter"/>
   </g>
   <g id="patch_32">
    <path d="M 84.689764 182.551181 
L 100.129134 182.551181 
L 100.129134 99.789779 
L 84.689764 99.789779 
L 84.689764 182.551181 
z
" clip-path="url(#p882effe240)" style="fill: none; opacity: 0.7; stroke: #343a40; stroke-width: 0.5; stroke-linejoin: miter"/>
   </g>
   <g id="patch_33">
    <path d="M 111.776378 182.551181 
L 127.215748 182.551181 
L 127.215748 115.924914 
L 111.776378 115.924914 
L 111.776378 182.551181 
z
" clip-path="url(#p882effe240)" style="fill: none; opacity: 0.7; stroke: #343a40; stroke-width: 0.5; stroke-linejoin: miter"/>
   </g>
   <g id="patch_34">
    <path d="M 138.862992 182.551181 
L 154.302362 182.551181 
L 154.302362 124.872576 
L 138.862992 124.872576 
L 138.862992 182.551181 
z
" clip-path="url(#p882effe240)" style="fill: none; opacity: 0.7; stroke: #343a40; stroke-width: 0.5; stroke-linejoin: miter"/>
   </g>
   <g id="patch_35">
    <path d="M 165.949606 182.551181 
L 181.388976 182.551181 
L 181.388976 101.944787 
L 165.949606 101.944787 
L 165.949606 182.551181 
z
" clip-path="url(#p882effe240)" style="fill: none; opacity: 0.7; stroke: #343a40; stroke-width: 0.5; stroke-linejoin: miter"/>
   </g>
   <g id="patch_36">
    <path d="M 193.03622 182.551181 
L 208.475591 182.551181 
L 208.475591 73.646086 
L 193.03622 73.646086 
L 193.03622 182.551181 
z
" clip-path="url(#p882effe240)" style="fill: none; opacity: 0.7; stroke: #343a40; stroke-width: 0.5; stroke-linejoin: miter"/>
   </g>
   <g id="patch_37">
    <path d="M 220.122835 182.551181 
L 235.562205 182.551181 
L 235.562205 48.085935 
L 220.122835 48.085935 
L 220.122835 182.551181 
z
" clip-path="url(#p882effe240)" style="fill: none; opacity: 0.7; stroke: #343a40; stroke-width: 0.5; stroke-linejoin: miter"/>
   </g>
   <g id="patch_38">
    <path d="M 247.209449 182.551181 
L 262.648819 182.551181 
L 262.648819 24.671207 
L 247.209449 24.671207 
L 247.209449 182.551181 
z
" clip-path="url(#p882effe240)" style="fill: none; opacity: 0.7; stroke: #343a40; stroke-width: 0.5; stroke-linejoin: miter"/>
   </g>
   <g id="patch_39">
    <path d="M 274.296063 182.551181 
L 289.735433 182.551181 
L 289.735433 83.476673 
L 274.296063 83.476673 
L 274.296063 182.551181 
z
" clip-path="url(#p882effe240)" style="fill: none; opacity: 0.7; stroke: #343a40; stroke-width: 0.5; stroke-linejoin: miter"/>
   </g>
   <g id="patch_40">
    <path d="M 301.382677 182.551181 
L 316.822047 182.551181 
L 316.822047 114.57597 
L 301.382677 114.57597 
L 301.382677 182.551181 
z
" clip-path="url(#p882effe240)" style="fill: none; opacity: 0.7; stroke: #343a40; stroke-width: 0.5; stroke-linejoin: miter"/>
   </g>
   <g id="patch_41">
    <path d="M 328.469291 182.551181 
L 343.908661 182.551181 
L 343.908661 117.737049 
L 328.469291 117.737049 
L 328.469291 182.551181 
z
" clip-path="url(#p882effe240)" style="fill: none; opacity: 0.7; stroke: #343a40; stroke-width: 0.5; stroke-linejoin: miter"/>
   </g>
   <g id="patch_42">
    <path d="M 355.555906 182.551181 
L 370.995276 182.551181 
L 370.995276 93.384814 
L 355.555906 93.384814 
L 355.555906 182.551181 
z
" clip-path="url(#p882effe240)" style="fill: none; opacity: 0.7; stroke: #343a40; stroke-width: 0.5; stroke-linejoin: miter"/>
   </g>
   <g id="text_20">
    <!-- 70.5% -->
    <g transform="translate(58.622053 110.251285) scale(0.05 -0.05)">
     <defs>
      <path id="Roboto-Regular-37" d="M 3316 4225 
L 1431 0 
L 825 0 
L 2703 4075 
L 241 4075 
L 241 4550 
L 3316 4550 
L 3316 4225 
z
" transform="scale(0.015625)"/>
      <path id="Roboto-Regular-2e" d="M 450 303 
Q 450 453 539 553 
Q 628 653 806 653 
Q 984 653 1076 553 
Q 1169 453 1169 303 
Q 1169 159 1076 62 
Q 984 -34 806 -34 
Q 628 -34 539 62 
Q 450 159 450 303 
z
" transform="scale(0.015625)"/>
      <path id="Roboto-Regular-25" d="M 328 3675 
Q 328 4084 589 4350 
Q 850 4616 1259 4616 
Q 1675 4616 1933 4348 
Q 2191 4081 2191 3656 
L 2191 3434 
Q 2191 3022 1930 2761 
Q 1669 2500 1266 2500 
Q 859 2500 593 2761 
Q 328 3022 328 3456 
L 328 3675 
z
M 759 3434 
Q 759 3191 896 3033 
Q 1034 2875 1266 2875 
Q 1488 2875 1623 3028 
Q 1759 3181 1759 3447 
L 1759 3675 
Q 1759 3919 1625 4078 
Q 1491 4238 1259 4238 
Q 1028 4238 893 4078 
Q 759 3919 759 3663 
L 759 3434 
z
M 2544 1116 
Q 2544 1525 2805 1789 
Q 3066 2053 3475 2053 
Q 3884 2053 4146 1790 
Q 4409 1528 4409 1094 
L 4409 872 
Q 4409 463 4148 198 
Q 3888 -66 3481 -66 
Q 3075 -66 2809 195 
Q 2544 456 2544 891 
L 2544 1116 
z
M 2975 872 
Q 2975 625 3112 467 
Q 3250 309 3481 309 
Q 3706 309 3840 464 
Q 3975 619 3975 884 
L 3975 1116 
Q 3975 1363 3839 1519 
Q 3703 1675 3475 1675 
Q 3253 1675 3114 1520 
Q 2975 1366 2975 1103 
L 2975 872 
z
M 1397 344 
L 1069 550 
L 3291 4106 
L 3619 3900 
L 1397 344 
z
" transform="scale(0.015625)"/>
     </defs>
     <use xlink:href="#Roboto-Regular-37"/>
     <use xlink:href="#Roboto-Regular-30" transform="translate(56.152344 0)"/>
     <use xlink:href="#Roboto-Regular-2e" transform="translate(112.304688 0)"/>
     <use xlink:href="#Roboto-Regular-35" transform="translate(138.623047 0)"/>
     <use xlink:href="#Roboto-Regular-25" transform="translate(194.775391 0)"/>
    </g>
   </g>
   <g id="text_21">
    <!-- 29.5% -->
    <g transform="translate(58.622053 167.942495) scale(0.05 -0.05)">
     <defs>
      <path id="Roboto-Regular-39" d="M 2594 2000 
Q 2413 1784 2161 1653 
Q 1909 1522 1609 1522 
Q 1216 1522 923 1715 
Q 631 1909 472 2261 
Q 313 2613 313 3038 
Q 313 3494 486 3859 
Q 659 4225 978 4419 
Q 1297 4613 1722 4613 
Q 2397 4613 2786 4108 
Q 3175 3603 3175 2731 
L 3175 2563 
Q 3175 1234 2650 623 
Q 2125 13 1066 -3 
L 953 -3 
L 953 484 
L 1075 484 
Q 1791 497 2175 858 
Q 2559 1219 2594 2000 
z
M 1703 2000 
Q 1994 2000 2239 2178 
Q 2484 2356 2597 2619 
L 2597 2850 
Q 2597 3419 2350 3775 
Q 2103 4131 1725 4131 
Q 1344 4131 1112 3839 
Q 881 3547 881 3069 
Q 881 2603 1104 2301 
Q 1328 2000 1703 2000 
z
" transform="scale(0.015625)"/>
     </defs>
     <use xlink:href="#Roboto-Regular-32"/>
     <use xlink:href="#Roboto-Regular-39" transform="translate(56.152344 0)"/>
     <use xlink:href="#Roboto-Regular-2e" transform="translate(112.304688 0)"/>
     <use xlink:href="#Roboto-Regular-35" transform="translate(138.623047 0)"/>
     <use xlink:href="#Roboto-Regular-25" transform="translate(194.775391 0)"/>
    </g>
   </g>
   <g id="text_22">
    <!-- 73.2% -->
    <g transform="translate(85.708668 132.485877) scale(0.05 -0.05)">
     <use xlink:href="#Roboto-Regular-37"/>
     <use xlink:href="#Roboto-Regular-33" transform="translate(56.152344 0)"/>
     <use xlink:href="#Roboto-Regular-2e" transform="translate(112.304688 0)"/>
     <use xlink:href="#Roboto-Regular-32" transform="translate(138.623047 0)"/>
     <use xlink:href="#Roboto-Regular-25" transform="translate(194.775391 0)"/>
    </g>
   </g>
   <g id="text_23">
    <!-- 26.8% -->
    <g transform="translate(85.708668 173.866578) scale(0.05 -0.05)">
     <defs>
      <path id="Roboto-Regular-36" d="M 2647 4553 
L 2647 4063 
L 2541 4063 
Q 1866 4050 1466 3662 
Q 1066 3275 1003 2572 
Q 1363 2984 1984 2984 
Q 2578 2984 2933 2565 
Q 3288 2147 3288 1484 
Q 3288 781 2905 359 
Q 2522 -63 1878 -63 
Q 1225 -63 819 439 
Q 413 941 413 1731 
L 413 1953 
Q 413 3209 948 3873 
Q 1484 4538 2544 4553 
L 2647 4553 
z
M 1888 2503 
Q 1591 2503 1341 2325 
Q 1091 2147 994 1878 
L 994 1666 
Q 994 1103 1247 759 
Q 1500 416 1878 416 
Q 2269 416 2492 703 
Q 2716 991 2716 1456 
Q 2716 1925 2489 2214 
Q 2263 2503 1888 2503 
z
" transform="scale(0.015625)"/>
      <path id="Roboto-Regular-38" d="M 3138 3363 
Q 3138 3022 2958 2756 
Q 2778 2491 2472 2341 
Q 2828 2188 3036 1894 
Q 3244 1600 3244 1228 
Q 3244 638 2845 287 
Q 2447 -63 1797 -63 
Q 1141 -63 745 289 
Q 350 641 350 1228 
Q 350 1597 551 1894 
Q 753 2191 1109 2344 
Q 806 2494 631 2759 
Q 456 3025 456 3363 
Q 456 3938 825 4275 
Q 1194 4613 1797 4613 
Q 2397 4613 2767 4275 
Q 3138 3938 3138 3363 
z
M 2666 1241 
Q 2666 1622 2423 1862 
Q 2181 2103 1790 2103 
Q 1400 2103 1164 1865 
Q 928 1628 928 1240 
Q 928 853 1158 631 
Q 1388 409 1797 409 
Q 2203 409 2434 632 
Q 2666 856 2666 1241 
z
M 1797 4138 
Q 1456 4138 1245 3927 
Q 1034 3716 1034 3353 
Q 1034 3006 1242 2792 
Q 1450 2578 1797 2578 
Q 2144 2578 2351 2792 
Q 2559 3006 2559 3353 
Q 2559 3700 2343 3919 
Q 2128 4138 1797 4138 
z
" transform="scale(0.015625)"/>
     </defs>
     <use xlink:href="#Roboto-Regular-32"/>
     <use xlink:href="#Roboto-Regular-36" transform="translate(56.152344 0)"/>
     <use xlink:href="#Roboto-Regular-2e" transform="translate(112.304688 0)"/>
     <use xlink:href="#Roboto-Regular-38" transform="translate(138.623047 0)"/>
     <use xlink:href="#Roboto-Regular-25" transform="translate(194.775391 0)"/>
    </g>
   </g>
   <g id="text_24">
    <!-- 84.8% -->
    <g transform="translate(112.795282 146.571804) scale(0.05 -0.05)">
     <use xlink:href="#Roboto-Regular-38"/>
     <use xlink:href="#Roboto-Regular-34" transform="translate(56.152344 0)"/>
     <use xlink:href="#Roboto-Regular-2e" transform="translate(112.304688 0)"/>
     <use xlink:href="#Roboto-Regular-38" transform="translate(138.623047 0)"/>
     <use xlink:href="#Roboto-Regular-25" transform="translate(194.775391 0)"/>
    </g>
   </g>
   <g id="text_25">
    <!-- 15.2% -->
    <g transform="translate(112.795282 179.884937) scale(0.05 -0.05)">
     <use xlink:href="#Roboto-Regular-31"/>
     <use xlink:href="#Roboto-Regular-35" transform="translate(56.152344 0)"/>
     <use xlink:href="#Roboto-Regular-2e" transform="translate(112.304688 0)"/>
     <use xlink:href="#Roboto-Regular-32" transform="translate(138.623047 0)"/>
     <use xlink:href="#Roboto-Regular-25" transform="translate(194.775391 0)"/>
    </g>
   </g>
   <g id="text_26">
    <!-- 94.0% -->
    <g transform="translate(139.881896 154.398197) scale(0.05 -0.05)">
     <use xlink:href="#Roboto-Regular-39"/>
     <use xlink:href="#Roboto-Regular-34" transform="translate(56.152344 0)"/>
     <use xlink:href="#Roboto-Regular-2e" transform="translate(112.304688 0)"/>
     <use xlink:href="#Roboto-Regular-30" transform="translate(138.623047 0)"/>
     <use xlink:href="#Roboto-Regular-25" transform="translate(194.775391 0)"/>
    </g>
   </g>
   <g id="text_27">
    <!-- 6.0% -->
    <g transform="translate(141.285802 183.2375) scale(0.05 -0.05)">
     <use xlink:href="#Roboto-Regular-36"/>
     <use xlink:href="#Roboto-Regular-2e" transform="translate(56.152344 0)"/>
     <use xlink:href="#Roboto-Regular-30" transform="translate(82.470703 0)"/>
     <use xlink:href="#Roboto-Regular-25" transform="translate(138.623047 0)"/>
    </g>
   </g>
   <g id="text_28">
    <!-- 94.9% -->
    <g transform="translate(166.96851 142.607316) scale(0.05 -0.05)">
     <use xlink:href="#Roboto-Regular-39"/>
     <use xlink:href="#Roboto-Regular-34" transform="translate(56.152344 0)"/>
     <use xlink:href="#Roboto-Regular-2e" transform="translate(112.304688 0)"/>
     <use xlink:href="#Roboto-Regular-39" transform="translate(138.623047 0)"/>
     <use xlink:href="#Roboto-Regular-25" transform="translate(194.775391 0)"/>
    </g>
   </g>
   <g id="text_29">
    <!-- 5.1% -->
    <g transform="translate(168.372416 182.910513) scale(0.05 -0.05)">
     <use xlink:href="#Roboto-Regular-35"/>
     <use xlink:href="#Roboto-Regular-2e" transform="translate(56.152344 0)"/>
     <use xlink:href="#Roboto-Regular-31" transform="translate(82.470703 0)"/>
     <use xlink:href="#Roboto-Regular-25" transform="translate(138.623047 0)"/>
    </g>
   </g>
   <g id="text_30">
    <!-- 92.4% -->
    <g transform="translate(194.055124 126.378033) scale(0.05 -0.05)">
     <use xlink:href="#Roboto-Regular-39"/>
     <use xlink:href="#Roboto-Regular-32" transform="translate(56.152344 0)"/>
     <use xlink:href="#Roboto-Regular-2e" transform="translate(112.304688 0)"/>
     <use xlink:href="#Roboto-Regular-34" transform="translate(138.623047 0)"/>
     <use xlink:href="#Roboto-Regular-25" transform="translate(194.775391 0)"/>
    </g>
   </g>
   <g id="text_31">
    <!-- 7.6% -->
    <g transform="translate(195.459031 180.83058) scale(0.05 -0.05)">
     <use xlink:href="#Roboto-Regular-37"/>
     <use xlink:href="#Roboto-Regular-2e" transform="translate(56.152344 0)"/>
     <use xlink:href="#Roboto-Regular-36" transform="translate(82.470703 0)"/>
     <use xlink:href="#Roboto-Regular-25" transform="translate(138.623047 0)"/>
    </g>
   </g>
   <g id="text_32">
    <!-- 88.0% -->
    <g transform="translate(221.141738 109.670094) scale(0.05 -0.05)">
     <use xlink:href="#Roboto-Regular-38"/>
     <use xlink:href="#Roboto-Regular-38" transform="translate(56.152344 0)"/>
     <use xlink:href="#Roboto-Regular-2e" transform="translate(112.304688 0)"/>
     <use xlink:href="#Roboto-Regular-30" transform="translate(138.623047 0)"/>
     <use xlink:href="#Roboto-Regular-25" transform="translate(194.775391 0)"/>
    </g>
   </g>
   <g id="text_33">
    <!-- 12.0% -->
    <g transform="translate(221.141738 176.902716) scale(0.05 -0.05)">
     <use xlink:href="#Roboto-Regular-31"/>
     <use xlink:href="#Roboto-Regular-32" transform="translate(56.152344 0)"/>
     <use xlink:href="#Roboto-Regular-2e" transform="translate(112.304688 0)"/>
     <use xlink:href="#Roboto-Regular-30" transform="translate(138.623047 0)"/>
     <use xlink:href="#Roboto-Regular-25" transform="translate(194.775391 0)"/>
    </g>
   </g>
   <g id="text_34">
    <!-- 87.5% -->
    <g transform="translate(248.228353 96.180638) scale(0.05 -0.05)">
     <use xlink:href="#Roboto-Regular-38"/>
     <use xlink:href="#Roboto-Regular-37" transform="translate(56.152344 0)"/>
     <use xlink:href="#Roboto-Regular-2e" transform="translate(112.304688 0)"/>
     <use xlink:href="#Roboto-Regular-35" transform="translate(138.623047 0)"/>
     <use xlink:href="#Roboto-Regular-25" transform="translate(194.775391 0)"/>
    </g>
   </g>
   <g id="text_35">
    <!-- 12.5% -->
    <g transform="translate(248.228353 175.120625) scale(0.05 -0.05)">
     <use xlink:href="#Roboto-Regular-31"/>
     <use xlink:href="#Roboto-Regular-32" transform="translate(56.152344 0)"/>
     <use xlink:href="#Roboto-Regular-2e" transform="translate(112.304688 0)"/>
     <use xlink:href="#Roboto-Regular-35" transform="translate(138.623047 0)"/>
     <use xlink:href="#Roboto-Regular-25" transform="translate(194.775391 0)"/>
    </g>
   </g>
   <g id="text_36">
    <!-- 92.2% -->
    <g transform="translate(275.314967 131.555992) scale(0.05 -0.05)">
     <use xlink:href="#Roboto-Regular-39"/>
     <use xlink:href="#Roboto-Regular-32" transform="translate(56.152344 0)"/>
     <use xlink:href="#Roboto-Regular-2e" transform="translate(112.304688 0)"/>
     <use xlink:href="#Roboto-Regular-32" transform="translate(138.623047 0)"/>
     <use xlink:href="#Roboto-Regular-25" transform="translate(194.775391 0)"/>
    </g>
   </g>
   <g id="text_37">
    <!-- 7.8% -->
    <g transform="translate(276.718873 181.093246) scale(0.05 -0.05)">
     <use xlink:href="#Roboto-Regular-37"/>
     <use xlink:href="#Roboto-Regular-2e" transform="translate(56.152344 0)"/>
     <use xlink:href="#Roboto-Regular-38" transform="translate(82.470703 0)"/>
     <use xlink:href="#Roboto-Regular-25" transform="translate(138.623047 0)"/>
    </g>
   </g>
   <g id="text_38">
    <!-- 95.8% -->
    <g transform="translate(302.401581 149.540335) scale(0.05 -0.05)">
     <use xlink:href="#Roboto-Regular-39"/>
     <use xlink:href="#Roboto-Regular-35" transform="translate(56.152344 0)"/>
     <use xlink:href="#Roboto-Regular-2e" transform="translate(112.304688 0)"/>
     <use xlink:href="#Roboto-Regular-38" transform="translate(138.623047 0)"/>
     <use xlink:href="#Roboto-Regular-25" transform="translate(194.775391 0)"/>
    </g>
   </g>
   <g id="text_39">
    <!-- 4.2% -->
    <g transform="translate(303.805487 183.52794) scale(0.05 -0.05)">
     <use xlink:href="#Roboto-Regular-34"/>
     <use xlink:href="#Roboto-Regular-2e" transform="translate(56.152344 0)"/>
     <use xlink:href="#Roboto-Regular-32" transform="translate(82.470703 0)"/>
     <use xlink:href="#Roboto-Regular-25" transform="translate(138.623047 0)"/>
    </g>
   </g>
   <g id="text_40">
    <!-- 86.2% -->
    <g transform="translate(329.488195 148.086272) scale(0.05 -0.05)">
     <use xlink:href="#Roboto-Regular-38"/>
     <use xlink:href="#Roboto-Regular-36" transform="translate(56.152344 0)"/>
     <use xlink:href="#Roboto-Regular-2e" transform="translate(112.304688 0)"/>
     <use xlink:href="#Roboto-Regular-32" transform="translate(138.623047 0)"/>
     <use xlink:href="#Roboto-Regular-25" transform="translate(194.775391 0)"/>
    </g>
   </g>
   <g id="text_41">
    <!-- 13.8% -->
    <g transform="translate(329.488195 180.493338) scale(0.05 -0.05)">
     <use xlink:href="#Roboto-Regular-31"/>
     <use xlink:href="#Roboto-Regular-33" transform="translate(56.152344 0)"/>
     <use xlink:href="#Roboto-Regular-2e" transform="translate(112.304688 0)"/>
     <use xlink:href="#Roboto-Regular-38" transform="translate(138.623047 0)"/>
     <use xlink:href="#Roboto-Regular-25" transform="translate(194.775391 0)"/>
    </g>
   </g>
   <g id="text_42">
    <!-- 75.0% -->
    <g transform="translate(356.574809 129.224621) scale(0.05 -0.05)">
     <use xlink:href="#Roboto-Regular-37"/>
     <use xlink:href="#Roboto-Regular-35" transform="translate(56.152344 0)"/>
     <use xlink:href="#Roboto-Regular-2e" transform="translate(112.304688 0)"/>
     <use xlink:href="#Roboto-Regular-30" transform="translate(138.623047 0)"/>
     <use xlink:href="#Roboto-Regular-25" transform="translate(194.775391 0)"/>
    </g>
   </g>
   <g id="text_43">
    <!-- 25.0% -->
    <g transform="translate(356.574809 173.807805) scale(0.05 -0.05)">
     <use xlink:href="#Roboto-Regular-32"/>
     <use xlink:href="#Roboto-Regular-35" transform="translate(56.152344 0)"/>
     <use xlink:href="#Roboto-Regular-2e" transform="translate(112.304688 0)"/>
     <use xlink:href="#Roboto-Regular-30" transform="translate(138.623047 0)"/>
     <use xlink:href="#Roboto-Regular-25" transform="translate(194.775391 0)"/>
    </g>
   </g>
   <g id="legend_1">
    <g id="patch_43">
     <path d="M 310.776422 21.722559 
L 322.476422 21.722559 
L 322.476422 17.172559 
L 310.776422 17.172559 
L 310.776422 21.722559 
z
" style="fill: none; opacity: 0.7; stroke: #343a40; stroke-width: 0.5; stroke-linejoin: miter"/>
    </g>
    <g id="text_44">
     <!-- Input exergy -->
     <g transform="translate(324.426422 21.722559) scale(0.065 -0.065)">
      <defs>
       <path id="Roboto-Regular-49" d="M 1172 0 
L 572 0 
L 572 4550 
L 1172 4550 
L 1172 0 
z
" transform="scale(0.015625)"/>
      </defs>
      <use xlink:href="#Roboto-Regular-49"/>
      <use xlink:href="#Roboto-Regular-6e" transform="translate(27.197266 0)"/>
      <use xlink:href="#Roboto-Regular-70" transform="translate(82.373047 0)"/>
      <use xlink:href="#Roboto-Regular-75" transform="translate(138.476562 0)"/>
      <use xlink:href="#Roboto-Regular-74" transform="translate(193.603516 0)"/>
      <use xlink:href="#Roboto-Regular-20" transform="translate(226.269531 0)"/>
      <use xlink:href="#Roboto-Regular-65" transform="translate(251.025391 0)"/>
      <use xlink:href="#Roboto-Regular-78" transform="translate(304.003906 0)"/>
      <use xlink:href="#Roboto-Regular-65" transform="translate(353.564453 0)"/>
      <use xlink:href="#Roboto-Regular-72" transform="translate(406.542969 0)"/>
      <use xlink:href="#Roboto-Regular-67" transform="translate(440.380859 0)"/>
      <use xlink:href="#Roboto-Regular-79" transform="translate(496.484375 0)"/>
     </g>
    </g>
    <g id="patch_44">
     <path d="M 310.776422 33.184903 
L 322.476422 33.184903 
L 322.476422 28.634903 
L 310.776422 28.634903 
z
" style="fill: #e9ecef"/>
    </g>
    <g id="text_45">
     <!-- Consumed exergy -->
     <g transform="translate(324.426422 33.184903) scale(0.065 -0.065)">
      <defs>
       <path id="Roboto-Regular-43" d="M 3875 1444 
Q 3791 722 3342 329 
Q 2894 -63 2150 -63 
Q 1344 -63 858 515 
Q 372 1094 372 2063 
L 372 2500 
Q 372 3134 598 3615 
Q 825 4097 1240 4355 
Q 1656 4613 2203 4613 
Q 2928 4613 3365 4208 
Q 3803 3803 3875 3088 
L 3272 3088 
Q 3194 3631 2933 3875 
Q 2672 4119 2203 4119 
Q 1628 4119 1301 3694 
Q 975 3269 975 2484 
L 975 2044 
Q 975 1303 1284 865 
Q 1594 428 2150 428 
Q 2650 428 2917 654 
Q 3184 881 3272 1444 
L 3875 1444 
z
" transform="scale(0.015625)"/>
       <path id="Roboto-Regular-73" d="M 2406 897 
Q 2406 1131 2229 1261 
Q 2053 1391 1614 1484 
Q 1175 1578 917 1709 
Q 659 1841 536 2022 
Q 413 2203 413 2453 
Q 413 2869 764 3156 
Q 1116 3444 1663 3444 
Q 2238 3444 2595 3147 
Q 2953 2850 2953 2388 
L 2372 2388 
Q 2372 2625 2170 2797 
Q 1969 2969 1663 2969 
Q 1347 2969 1169 2831 
Q 991 2694 991 2472 
Q 991 2263 1156 2156 
Q 1322 2050 1755 1953 
Q 2188 1856 2456 1722 
Q 2725 1588 2854 1398 
Q 2984 1209 2984 938 
Q 2984 484 2621 210 
Q 2259 -63 1681 -63 
Q 1275 -63 962 81 
Q 650 225 473 483 
Q 297 741 297 1041 
L 875 1041 
Q 891 750 1108 579 
Q 1325 409 1681 409 
Q 2009 409 2207 542 
Q 2406 675 2406 897 
z
" transform="scale(0.015625)"/>
       <path id="Roboto-Regular-6d" d="M 981 3381 
L 997 3006 
Q 1369 3444 2000 3444 
Q 2709 3444 2966 2900 
Q 3134 3144 3404 3294 
Q 3675 3444 4044 3444 
Q 5156 3444 5175 2266 
L 5175 0 
L 4597 0 
L 4597 2231 
Q 4597 2594 4431 2773 
Q 4266 2953 3875 2953 
Q 3553 2953 3340 2761 
Q 3128 2569 3094 2244 
L 3094 0 
L 2513 0 
L 2513 2216 
Q 2513 2953 1791 2953 
Q 1222 2953 1013 2469 
L 1013 0 
L 434 0 
L 434 3381 
L 981 3381 
z
" transform="scale(0.015625)"/>
       <path id="Roboto-Regular-64" d="M 297 1719 
Q 297 2497 665 2970 
Q 1034 3444 1631 3444 
Q 2225 3444 2572 3038 
L 2572 4800 
L 3150 4800 
L 3150 0 
L 2619 0 
L 2591 363 
Q 2244 -63 1625 -63 
Q 1038 -63 667 418 
Q 297 900 297 1675 
L 297 1719 
z
M 875 1653 
Q 875 1078 1112 753 
Q 1350 428 1769 428 
Q 2319 428 2572 922 
L 2572 2475 
Q 2313 2953 1775 2953 
Q 1350 2953 1112 2625 
Q 875 2297 875 1653 
z
" transform="scale(0.015625)"/>
      </defs>
      <use xlink:href="#Roboto-Regular-43"/>
      <use xlink:href="#Roboto-Regular-6f" transform="translate(65.087891 0)"/>
      <use xlink:href="#Roboto-Regular-6e" transform="translate(122.119141 0)"/>
      <use xlink:href="#Roboto-Regular-73" transform="translate(177.294922 0)"/>
      <use xlink:href="#Roboto-Regular-75" transform="translate(228.857422 0)"/>
      <use xlink:href="#Roboto-Regular-6d" transform="translate(283.984375 0)"/>
      <use xlink:href="#Roboto-Regular-65" transform="translate(371.630859 0)"/>
      <use xlink:href="#Roboto-Regular-64" transform="translate(424.609375 0)"/>
      <use xlink:href="#Roboto-Regular-20" transform="translate(481.005859 0)"/>
      <use xlink:href="#Roboto-Regular-65" transform="translate(505.761719 0)"/>
      <use xlink:href="#Roboto-Regular-78" transform="translate(558.740234 0)"/>
      <use xlink:href="#Roboto-Regular-65" transform="translate(608.300781 0)"/>
      <use xlink:href="#Roboto-Regular-72" transform="translate(661.279297 0)"/>
      <use xlink:href="#Roboto-Regular-67" transform="translate(695.117188 0)"/>
      <use xlink:href="#Roboto-Regular-79" transform="translate(751.220703 0)"/>
     </g>
    </g>
    <g id="patch_45">
     <path d="M 310.776422 44.647247 
L 322.476422 44.647247 
L 322.476422 40.097247 
L 310.776422 40.097247 
z
" style="fill: #69db7c; opacity: 0.75"/>
    </g>
    <g id="text_46">
     <!-- Output exergy -->
     <g transform="translate(324.426422 44.647247) scale(0.065 -0.065)">
      <use xlink:href="#Roboto-Regular-4f"/>
      <use xlink:href="#Roboto-Regular-75" transform="translate(68.75 0)"/>
      <use xlink:href="#Roboto-Regular-74" transform="translate(123.876953 0)"/>
      <use xlink:href="#Roboto-Regular-70" transform="translate(156.542969 0)"/>
      <use xlink:href="#Roboto-Regular-75" transform="translate(212.646484 0)"/>
      <use xlink:href="#Roboto-Regular-74" transform="translate(267.773438 0)"/>
      <use xlink:href="#Roboto-Regular-20" transform="translate(300.439453 0)"/>
      <use xlink:href="#Roboto-Regular-65" transform="translate(325.195312 0)"/>
      <use xlink:href="#Roboto-Regular-78" transform="translate(378.173828 0)"/>
      <use xlink:href="#Roboto-Regular-65" transform="translate(427.734375 0)"/>
      <use xlink:href="#Roboto-Regular-72" transform="translate(480.712891 0)"/>
      <use xlink:href="#Roboto-Regular-67" transform="translate(514.550781 0)"/>
      <use xlink:href="#Roboto-Regular-79" transform="translate(570.654297 0)"/>
     </g>
    </g>
   </g>
  </g>
 </g>
 <defs>
  <clipPath id="p882effe240">
   <rect x="43.653543" y="9.92126" width="341.291339" height="172.629921"/>
  </clipPath>
 </defs>
</svg>
